<svg id="Component_208_1" data-name="Component 208 – 1" xmlns="http://www.w3.org/2000/svg" width="60" height="60" viewBox="0 0 60 60">
  <g id="Component_207_1" data-name="Component 207 – 1" transform="translate(6 6)">
    <path id="Subtraction_46" data-name="Subtraction 46" d="M24.5,49A24.506,24.506,0,0,1,14.964,1.925,24.506,24.506,0,0,1,34.036,47.075,24.346,24.346,0,0,1,24.5,49Zm0-46.375A21.875,21.875,0,1,0,46.375,24.5,21.9,21.9,0,0,0,24.5,2.625Z" fill="#ff7474"/>
    <path id="Path_295" data-name="Path 295" d="M0,0H2.628a2.4,2.4,0,0,1,2.43,2.371L4.648,5.757v4.679l.409,5.917H0l.422-5.917V5.757Z" transform="translate(21.979 4.284)" fill="#ff7474"/>
    <path id="Path_296" data-name="Path 296" d="M0,0H.992C2.5.113,4.8.51,4.71,3.476v12.8H2.529A2.522,2.522,0,0,1,0,13.764l.436-3.751Z" transform="translate(32.64 10.417) rotate(90)" fill="#ff7474"/>
    <circle id="Ellipse_138" data-name="Ellipse 138" cx="0.62" cy="0.62" r="0.62" transform="translate(27.468 25.726)" fill="#fff"/>
    <circle id="Ellipse_139" data-name="Ellipse 139" cx="0.62" cy="0.62" r="0.62" transform="translate(19.855 25.726)" fill="#fff"/>
    <path id="Path_297" data-name="Path 297" d="M2.529,0c1.4,0,.917,1.878,2.383,2.822s2.963.424,3.264.727c.267.269-.691.257-1.4.828-.429.347-.448,1.01-.543,1.127C6,5.8,5.128,5.054,4.348,4.972,3.673,4.9,2.885,5.5,2.529,5.5A2.647,2.647,0,0,1,0,2.752,2.647,2.647,0,0,1,2.529,0Z" transform="translate(12.541 25.226)" fill="#ff7474"/>
    <path id="Path_298" data-name="Path 298" d="M5.693,0C4.3,0,4.775,1.878,3.309,2.822S.346,3.246.046,3.549c-.267.269.691.257,1.4.828.429.347.448,1.01.543,1.127.239.293,1.108-.45,1.888-.532C4.549,4.9,5.337,5.5,5.693,5.5A2.647,2.647,0,0,0,8.222,2.752,2.647,2.647,0,0,0,5.693,0Z" transform="translate(28.126 25.226)" fill="#ff7474"/>
    <path id="Path_299" data-name="Path 299" d="M-46.127-5.327c-.718,0-.682-.5-1.449-.865-.513-.243-1.347.032-1.663-.474-.231-.371-.416-1.883-.092-2.219s.951.753,1.423.689.49-1.081.49-1.439c-.107-1.362-.6-1.632-.359-2.193,1.546-.474,1.245-.649,1.649-.669a2.812,2.812,0,0,0,1.447.669c.015.661-.38,1.106-.365,2.193-.066.333.019,1.428.627,1.439.381.007,1.214-.909,1.469-.689.425.366-.107,1.878-.2,2.219s-.887.18-1.557.474C-45.5-5.843-45.409-5.327-46.127-5.327Z" transform="translate(70.608 39.281)" fill="#ff7474"/>
    <path id="Path_301" data-name="Path 301" d="M45.4,2.111a1.02,1.02,0,0,1,.821,0,16.416,16.416,0,0,1,2.652,1.128,13.622,13.622,0,0,1,2.364,1.695A.68.68,0,0,1,50.9,6.211l-2.285-.159a5.422,5.422,0,0,1-3.084,1.563,4.559,4.559,0,0,1-2.865-1.563l-2.088.159a.68.68,0,0,1-.338-1.277,15.731,15.731,0,0,1,2.426-1.695A15.715,15.715,0,0,1,45.4,2.111Z" transform="translate(-21.295 36.281)" fill="#ff7474"/>
    <path id="Path_303" data-name="Path 303" d="M.156.929,0,1.753l.283.489.3-.571a2.728,2.728,0,0,1,.162-.546,6.9,6.9,0,0,0,2.922.6A2.618,2.618,0,0,0,5.545.27,8.363,8.363,0,0,1,3.1.56,7.136,7.136,0,0,1,1.009,0Z" transform="translate(21.567 38.165) rotate(-150)" fill="#ff7474"/>
    <path id="Path_304" data-name="Path 304" d="M.156,1.164,0,.34.331,0,.538.475A2.392,2.392,0,0,0,.747.967a6.9,6.9,0,0,1,2.922-.6A2.618,2.618,0,0,1,5.545,1.823,8.363,8.363,0,0,0,3.1,1.533a7.136,7.136,0,0,0-2.088.56Z" transform="matrix(0.875, -0.485, 0.485, 0.875, 26.076, 36.267)" fill="#ff7474"/>
    <path id="Path_305" data-name="Path 305" d="M.669,0a1.445,1.445,0,0,1,.384.464,1.628,1.628,0,0,1,.049.879L.669,1.187,0,1.242.434.782Z" transform="matrix(-0.951, -0.309, 0.309, -0.951, 20.975, 34.945)" fill="#fff"/>
    <path id="Path_307" data-name="Path 307" d="M.669,0a1.445,1.445,0,0,1,.384.464,1.628,1.628,0,0,1,.049.879L.669,1.187,0,1.242.434.782Z" transform="translate(23.08 35.842) rotate(-163)" fill="#fff"/>
    <path id="Path_308" data-name="Path 308" d="M.669,1.343A1.445,1.445,0,0,0,1.054.879,1.628,1.628,0,0,0,1.1,0L.669.156,0,.1l.434.46Z" transform="matrix(0.951, -0.309, 0.309, 0.951, 25.521, 34.594)" fill="#fff"/>
    <path id="Path_306" data-name="Path 306" d="M.669,1.343A1.445,1.445,0,0,0,1.054.879,1.628,1.628,0,0,0,1.1,0L.669.156,0,.1l.434.46Z" transform="matrix(0.951, -0.309, 0.309, 0.951, 27.396, 33.667)" fill="#fff"/>
    <path id="Path_457" data-name="Path 457" d="M.669,1.343A1.445,1.445,0,0,0,1.054.879,1.628,1.628,0,0,0,1.1,0L.669.156,0,.1l.434.46Z" transform="translate(27.117 36.887) rotate(163)" fill="#fff"/>
    <path id="Path_458" data-name="Path 458" d="M.669,0a1.445,1.445,0,0,1,.384.464,1.628,1.628,0,0,1,.049.879L.669,1.187,0,1.242.434.782Z" transform="matrix(0.875, 0.485, -0.485, 0.875, 22.16, 35.553)" fill="#fff"/>
  </g>
  <rect id="Rectangle_3289" data-name="Rectangle 3289" width="60" height="60" fill="none"/>
</svg>
