<svg id="Component_206_1" data-name="Component 206 – 1" xmlns="http://www.w3.org/2000/svg" width="60" height="60" viewBox="0 0 60 60">
  <g id="eys-of-iyo" transform="translate(5.006 5.001)">
    <path id="Union_34" data-name="Union 34" d="M24.606,49.289a24.634,24.634,0,1,1,.1,0ZM.8,24.6A24.018,24.018,0,0,0,24.521,48.531,24.011,24.011,0,0,0,48.508,24.672,23.978,23.978,0,0,0,24.86.814h-.13A23.967,23.967,0,0,0,.8,24.6ZM18.671,44.658a23.977,23.977,0,0,1-9.2-13.123c-.4-1.389-.714-2.821-1.065-4.224l.379-.1c.521.856,1,1.74,1.557,2.568.815,1.166,1.823,2.148,3.364,2.007,1.614-.154,2.475-1.3,3.035-2.75a5,5,0,0,0,.277-3.368,1.182,1.182,0,0,1,.21-1.011,12.752,12.752,0,0,0,4.559-4.182l.323.225c-.578,1.165-1.15,2.343-1.75,3.494-.243.491-.578.927-.8,1.418a2.031,2.031,0,0,0,1.993,2.961,25.183,25.183,0,0,1,6.337,0,2.021,2.021,0,0,0,1.942-3.031c-.617-1.236-1.325-2.414-1.954-3.621a13.845,13.845,0,0,1-.549-1.558,16.364,16.364,0,0,0,2.905,2.54,3.583,3.583,0,0,1,2.3,3.832,6.207,6.207,0,0,0,1.28,3.453,2.941,2.941,0,0,0,5.023.112A29.449,29.449,0,0,0,41,26.693a2.424,2.424,0,0,1,.714-.982c-.074.392-.1.8-.2,1.193-1.3,5.123-3.267,9.978-6.744,14.021a22.428,22.428,0,0,1-5.334,4.5,8.969,8.969,0,0,1-4.7,1.382A10.539,10.539,0,0,1,18.671,44.658Zm9.978-6.092c.736-.337,1.444-.785,2.18-1.207a3.325,3.325,0,0,0-2.48-1.18H21a2.782,2.782,0,0,0-2.31,1.25c.6.281,1.121.575,1.671.771a5.471,5.471,0,0,0,1.569.407c1.891.056,3.783.042,5.68.042A2.553,2.553,0,0,0,28.649,38.566ZM17.589,36.686c.464-.295.827-.506,1.167-.743a6.054,6.054,0,0,1,4.055-1.208,39.818,39.818,0,0,0,4.094,0,5.248,5.248,0,0,1,3.454,1.011c.419.309.895.547,1.331.814l.153-.169c-.351-.519-.674-1.066-1.065-1.558-1.008-1.235-2.276-2.441-3.9-2.118a11.926,11.926,0,0,1-4.343-.014,1.983,1.983,0,0,0-.34-.029C20.449,32.671,18.156,34.778,17.589,36.686ZM2.781,22.5A22.035,22.035,0,0,1,46.741,24a21.454,21.454,0,0,1-4.621,14.2,20.362,20.362,0,0,1-8.636,6.624L33.19,44.5c.714-.66,1.427-1.292,2.141-1.965a54.574,54.574,0,0,0,5.657-5.432A19.66,19.66,0,0,0,45.1,27.269c.968-7.312-1.586-13.249-6.807-18.119A19.275,19.275,0,0,0,27.522,4.266,20.481,20.481,0,0,0,5.165,18.441,19.192,19.192,0,0,0,4.35,27.1a20.577,20.577,0,0,0,8.024,13.88c1.444,1.122,2.735,2.441,4.349,3.9C10.409,43.212,1.7,34.735,2.781,22.5Zm34.067,5.123c-.028-1.81,0-3.62-.068-5.431-.011-.379-.368-1.011-.663-1.081-.685-.169-1.008.323-1.008,1.025a7.73,7.73,0,0,1-.125,1.4c-.028.169-.238.309-.368.463-.136-.14-.362-.267-.391-.435-.142-.562-.153-1.151-.323-1.712-.181-.646-.447-1.249-1.359-.843-.181.084-.532-.169-.759-.322-.714-.449-1.416-.927-2.118-1.4l-.391.267V16.378c0-.1.051-.267.108-.281,1.421-.463,1.659-1.768,2.135-2.9.057-.126.142-.253.323-.6l1.206,1.8,1.71-1.825c.408.449.883.955,1.3,1.473.883,1.109,1.178,1.109,2.01-.028.125-.168.249-.336.544-.743.425,1.754.787,3.284,1.178,4.94a4.946,4.946,0,0,0-1.806,3.523c-.142,1.951-.17,3.916-.266,5.852a7.016,7.016,0,0,1-.238,1.081l-.368.028A5.036,5.036,0,0,1,36.848,27.619ZM31.882,15.41c-.306.042-.657.476-.81.8a6.73,6.73,0,0,0-.5,1.656.741.741,0,0,0,.238.646,5.749,5.749,0,0,0,5.816,1.263,2.841,2.841,0,0,0,1.7-2.624c-.1-.2-.21-.843-.6-1.1a5.752,5.752,0,0,0-3.25-.862A21.44,21.44,0,0,0,31.882,15.41Zm-17.5,10.722c-.079-.364-.136-.715-.181-1.08-.068-1.052-.04-2.105-.181-3.144a1.108,1.108,0,0,0-.759-.772c-.277-.028-.657.393-.827.716a4.576,4.576,0,0,1-.589,1.165,8.5,8.5,0,0,1-.277-1c-.187-1.488-1.167-2.527-2.039-3.635-.125-.169-.249-.548-.164-.632.951-.968.589-2.245.815-3.382a7.381,7.381,0,0,1,.21-.828c.21.014.238,0,.266.028.487.434,1.234,1.319,1.444,1.207a9.085,9.085,0,0,0,2-1.754,3.263,3.263,0,0,0,.379-.562l1.472,1.754,1.484-1.389c.77,1.094.731,2.807,2.469,3.256v3.495c-1.823-.154-2.509,1.1-3.2,2.569l-.685-1.516a6.149,6.149,0,0,0-.714,1.4c-.181,1-.238,2.007-.362,3.017a10.523,10.523,0,0,1-.244,1.08Zm2.7-11.311c-.759.183-1.5.407-2.259.6-1.206.322-2.424.645-3.732,1.01-.17,2.877,2.022,4.463,4.672,3.41a8.384,8.384,0,0,1,1.472-.618c.929-.154,1.92-.448,1.71-1.5a11.2,11.2,0,0,0-1.455-2.877c-.023-.039-.113-.057-.2-.057A.651.651,0,0,0,17.074,14.82Z" transform="translate(-0.006 -0.001)" fill="#ff7474"/>
  </g>
  <rect id="Rectangle_3289" data-name="Rectangle 3289" width="60" height="60" fill="none"/>
</svg>
