<svg id="Component_222_1" data-name="Component 222 – 1" xmlns="http://www.w3.org/2000/svg" width="60" height="60" viewBox="0 0 60 60">
  <g id="Component_221_1" data-name="Component 221 – 1" transform="translate(2 12)">
    <rect id="Rectangle_933" data-name="Rectangle 933" width="11.899" height="30.798" transform="translate(14.955 6.753) rotate(-30)" fill="#ff7474"/>
    <rect id="Rectangle_935" data-name="Rectangle 935" width="2.1" height="19.598" rx="1" transform="translate(13.643 13.978) rotate(-30)" fill="#ff7474"/>
    <rect id="Rectangle_932" data-name="Rectangle 932" width="2.8" height="20.508" rx="1" transform="translate(29.045 4.177) rotate(-30)" fill="#ff7474"/>
    <rect id="Rectangle_938" data-name="Rectangle 938" width="1.181" height="19.599" rx="0.59" transform="translate(0.599 28.847) rotate(-120.5)" fill="#ff7474"/>
    <rect id="Rectangle_937" data-name="Rectangle 937" width="1.181" height="19.599" rx="0.59" transform="translate(2.564 33.049) rotate(-120.5)" fill="#ff7474"/>
    <rect id="Rectangle_930" data-name="Rectangle 930" width="1.181" height="13.999" rx="0.59" transform="translate(36.446 12.598) rotate(-120.5)" fill="#ff7474"/>
    <rect id="Rectangle_934" data-name="Rectangle 934" width="1.181" height="5.6" rx="0.59" transform="translate(33.852 8.335) rotate(-120.5)" fill="#ff7474"/>
    <rect id="Rectangle_931" data-name="Rectangle 931" width="1.181" height="5.6" rx="0.59" transform="translate(38.546 16.787) rotate(-120.5)" fill="#ff7474"/>
    <rect id="Rectangle_936" data-name="Rectangle 936" width="1.181" height="19.599" rx="0.59" transform="translate(5.369 36.828) rotate(-120.5)" fill="#ff7474"/>
    <path id="Path_514" data-name="Path 514" d="M.869,1.14,9.2-.172,4.543,5.668H0Z" transform="translate(37.128 0.172)" fill="#ff7474"/>
    <path id="Path_512" data-name="Path 512" d="M.869,1.14,9.2-.172,4.543,5.668H0Z" transform="translate(46.779 0.172)" fill="#ff7474"/>
    <path id="Path_513" data-name="Path 513" d="M.869,1.14,9.2-.172,4.543,5.668H0Z" transform="translate(42.178 8.626)" fill="#ff7474"/>
  </g>
  <rect id="Rectangle_3288" data-name="Rectangle 3288" width="60" height="60" fill="none"/>
</svg>
