<?xml version="1.0" encoding="UTF-8" standalone="no"?>
<!DOCTYPE svg PUBLIC "-//W3C//DTD SVG 1.1//EN" "http://www.w3.org/Graphics/SVG/1.1/DTD/svg11.dtd">
<svg xmlns="http://www.w3.org/2000/svg" version="1.1" viewBox="0.00 0.00 96.00 65.00">
<path fill="#25c2b8" d="
  M 27.28 0.00
  C 38.86 0.93 42.60 9.01 47.72 18.25
  C 50.09 22.53 56.58 29.16 62.26 28.27
  C 69.94 27.06 75.40 21.22 73.76 13.30
  A 1.76 1.75 -20.6 0 1 74.61 11.43
  Q 78.12 9.41 81.74 9.84
  Q 92.80 11.16 95.07 22.39
  Q 95.53 24.65 96.00 27.02
  L 96.00 32.34
  Q 95.23 41.12 90.78 48.10
  C 86.30 55.13 78.94 59.72 70.98 62.22
  Q 63.85 64.46 56.34 65.00
  L 48.00 65.00
  Q 34.56 64.41 22.93 57.53
  Q 17.14 54.10 12.11 49.64
  Q 2.15 40.81 0.00 27.78
  L 0.00 22.11
  C 1.32 10.73 9.50 1.17 21.30 0.00
  L 27.28 0.00
  Z
  M 30.62 29.14
  A 4.41 4.41 0.0 0 0 26.21 24.73
  A 4.41 4.41 0.0 0 0 21.80 29.14
  A 4.41 4.41 0.0 0 0 26.21 33.55
  A 4.41 4.41 0.0 0 0 30.62 29.14
  Z"
/>
</svg>
