<?xml version="1.0" encoding="UTF-8" standalone="no"?>
<!DOCTYPE svg PUBLIC "-//W3C//DTD SVG 1.1//EN" "http://www.w3.org/Graphics/SVG/1.1/DTD/svg11.dtd">
<svg xmlns="http://www.w3.org/2000/svg" version="1.1" viewBox="0.00 0.00 114.00 128.00">
<g stroke-width="2.00" fill="none" stroke-linecap="butt">
<path stroke="#014d85" vector-effect="non-scaling-stroke" d="
  M 105.30 103.03
  L 105.95 100.57
  L 106.38 98.12
  L 106.58 95.69
  L 106.55 93.27
  L 106.55 93.27
  L 106.55 93.27
  L 106.21 90.33
  L 105.54 87.42
  L 104.58 84.74
  L 103.22 82.07
  L 101.57 79.59
  L 99.74 77.52
  L 97.76 75.82
  L 95.74 74.60
  L 93.65 73.81
  L 91.42 73.45
  L 89.13 73.59
  L 72.91 76.12"
/>
<path stroke="#014d85" vector-effect="non-scaling-stroke" d="
  M 41.87 78.50
  L 32.27 78.20
  L 22.69 78.06
  L 20.05 78.65
  L 17.68 79.71
  L 17.68 79.71
  L 17.68 79.71
  L 15.92 80.93
  L 14.34 82.46
  L 12.94 84.31
  L 11.72 86.48
  L 10.21 90.24
  L 10.21 90.24
  L 9.38 93.38
  L 8.90 96.62
  L 8.76 99.98
  L 8.97 103.45"
/>
<path stroke="#7c8792" vector-effect="non-scaling-stroke" d="
  M 69.30 80.54
  L 71.25 82.90
  L 72.87 85.37
  L 74.17 87.93
  L 75.15 90.58
  L 75.72 92.88
  L 76.17 94.00
  L 77.01 94.86
  L 78.11 95.35
  L 79.31 95.39
  L 97.83 92.46
  L 98.52 92.49
  L 99.15 92.79
  L 99.60 93.32
  L 99.81 93.98
  L 99.82 94.07
  L 99.85 94.34
  L 99.77 95.16
  L 99.39 95.89
  L 98.76 96.42
  L 97.97 96.68
  L 79.62 98.91
  L 79.39 98.95
  L 78.72 99.29
  L 78.26 99.87
  L 78.07 100.59
  L 78.20 101.33
  L 81.11 108.54
  L 81.40 108.90
  L 81.84 109.04
  L 93.80 109.04
  L 95.71 108.70
  L 97.39 107.72
  L 97.41 107.71
  L 97.72 107.44
  L 99.66 105.29
  L 101.21 102.64
  L 102.25 99.65
  L 102.77 96.49
  L 102.77 93.02
  L 102.24 89.60
  L 101.19 86.33
  L 99.68 83.34
  L 97.58 80.66
  L 96.37 79.56
  L 95.05 78.62
  L 93.79 77.98
  L 92.48 77.54
  L 91.22 77.35
  L 89.94 77.40
  L 89.72 77.43
  L 79.50 79.01
  L 69.42 80.24
  L 69.30 80.54"
/>
<path stroke="#7c8792" vector-effect="non-scaling-stroke" d="
  M 35.14 116.85
  L 42.92 114.87
  L 50.10 113.24
  L 56.69 111.96
  L 62.68 111.03
  L 64.48 110.54
  L 66.10 109.60
  L 67.41 108.27
  L 68.34 106.65
  L 69.58 103.61
  L 69.74 102.58
  L 69.43 101.58
  L 68.70 100.83
  L 67.72 100.48
  L 67.10 100.50
  L 42.29 104.60
  L 42.26 104.60
  L 41.93 104.49
  L 41.79 104.17
  L 41.79 100.72
  L 41.99 100.18
  L 42.50 99.92
  L 68.42 96.76
  L 69.55 96.39
  L 70.45 95.62
  L 70.99 94.56
  L 71.09 93.38
  L 70.87 92.00
  L 70.87 92.00
  L 70.87 92.00
  L 70.22 89.85
  L 69.23 87.78
  L 67.89 85.78
  L 66.20 83.86
  L 64.88 82.66
  L 63.64 81.82
  L 62.50 81.35
  L 61.45 81.24
  L 47.41 81.91
  L 31.87 81.95
  L 31.75 81.97
  L 31.58 82.19
  L 31.66 82.46
  L 33.12 84.08
  L 34.41 85.82
  L 35.60 87.77
  L 36.61 89.81
  L 38.13 94.21
  L 38.92 98.82
  L 38.98 103.52
  L 38.28 108.14
  L 37.65 110.36
  L 36.84 112.50
  L 35.89 114.46
  L 34.76 116.32
  L 34.71 116.46
  L 34.82 116.77
  L 35.14 116.85"
/>
<path stroke="#7c8792" vector-effect="non-scaling-stroke" d="
  M 22.6709 82.8985
  L 20.4662 83.3817
  L 18.3908 84.5170
  L 16.5245 86.2608
  L 14.9389 88.5460
  L 13.6949 91.2848
  L 12.8405 94.3720
  L 12.4083 97.6890
  L 12.4152 101.1082
  L 12.8606 104.4982
  L 13.7276 107.7289
  L 14.9829 110.6760
  L 16.5781 113.2262
  L 18.4520 115.2817
  L 20.5326 116.7633
  L 22.7399 117.6141
  L 24.9891 117.8015
  L 27.1938 117.3183
  L 29.2692 116.1830
  L 31.1355 114.4392
  L 32.7211 112.1540
  L 33.9651 109.4152
  L 34.8195 106.3280
  L 35.2517 103.0110
  L 35.2448 99.5918
  L 34.7994 96.2018
  L 33.9324 92.9711
  L 32.6771 90.0240
  L 31.0819 87.4738
  L 29.2080 85.4183
  L 27.1274 83.9367
  L 24.9201 83.0859
  L 22.6709 82.8985"
/>
<path stroke="#7c8792" vector-effect="non-scaling-stroke" d="
  M 73.9087 98.1301
  L 73.4183 98.5098
  L 73.3273 99.1943
  L 73.6888 99.7825
  L 74.2913 99.9299
  L 74.7817 99.5502
  L 74.8727 98.8657
  L 74.5112 98.2775
  L 73.9087 98.1301"
/>
<path stroke="#7c8792" vector-effect="non-scaling-stroke" d="
  M 76.56 109.02
  L 75.99 105.57
  L 75.73 104.98
  L 75.21 104.61
  L 74.57 104.54
  L 73.98 104.80
  L 73.60 105.30
  L 71.89 109.52
  L 71.88 109.56
  L 72.08 109.76
  L 76.39 109.24
  L 76.39 109.24
  L 76.56 109.02"
/>
<path stroke="#7c8792" vector-effect="non-scaling-stroke" d="
  M 22.7512 85.9868
  L 20.9826 86.3908
  L 19.3216 87.3308
  L 17.8319 88.7708
  L 16.5708 90.6554
  L 15.5868 92.9121
  L 14.9176 95.4543
  L 14.5889 98.1843
  L 14.6135 100.9971
  L 14.9904 103.7846
  L 15.7050 106.4398
  L 16.7299 108.8605
  L 18.0258 110.9538
  L 19.5428 112.6393
  L 21.2227 113.8520
  L 23.0008 114.5456
  L 24.8088 114.6932
  L 26.5774 114.2892
  L 28.2384 113.3492
  L 29.7281 111.9092
  L 30.9892 110.0246
  L 31.9732 107.7679
  L 32.6424 105.2257
  L 32.9711 102.4957
  L 32.9465 99.6829
  L 32.5696 96.8954
  L 31.8550 94.2402
  L 30.8301 91.8195
  L 29.5342 89.7262
  L 28.0172 88.0407
  L 26.3373 86.8280
  L 24.5592 86.1344
  L 22.7512 85.9868"
/>
<path stroke="#7c8792" vector-effect="non-scaling-stroke" d="
  M 27.40 103.27
  L 27.79 102.92
  L 28.17 101.00
  L 28.14 98.99
  L 27.69 97.07
  L 26.88 95.39
  L 25.68 93.88
  L 24.25 92.83
  L 22.73 92.32
  L 21.23 92.43
  L 20.10 93.03
  L 19.12 94.13
  L 18.41 95.62
  L 17.92 97.60
  L 17.73 100.30
  L 18.03 102.88
  L 18.03 102.88
  L 18.59 104.75
  L 19.44 106.56
  L 20.08 107.46
  L 20.72 107.88
  L 21.57 107.90
  L 22.32 107.51
  L 22.77 106.81
  L 22.79 106.00
  L 22.79 106.00
  L 22.33 105.27
  L 21.43 104.34
  L 20.75 103.30
  L 20.75 103.30
  L 20.25 101.99
  L 20.02 100.53
  L 20.08 98.93
  L 20.42 97.19
  L 20.81 96.27
  L 21.40 95.67
  L 21.40 95.67
  L 21.77 95.49
  L 22.47 95.37
  L 23.18 95.49
  L 23.82 95.85
  L 24.32 96.40
  L 25.23 98.27
  L 25.51 100.13
  L 25.51 100.13
  L 25.51 100.13
  L 25.21 101.86
  L 24.36 103.59
  L 24.35 103.63
  L 24.47 103.75
  L 27.40 103.27"
/>
</g>
<path fill="#0284dd" d="
  M 105.30 103.03
  L 105.95 100.57
  L 106.38 98.12
  L 106.58 95.69
  L 106.55 93.27
  L 106.55 93.27
  L 106.55 93.27
  L 106.21 90.33
  L 105.54 87.42
  L 104.58 84.74
  L 103.22 82.07
  L 101.57 79.59
  L 99.74 77.52
  L 97.76 75.82
  L 95.74 74.60
  L 93.65 73.81
  L 91.42 73.45
  L 89.13 73.59
  L 72.91 76.12
  L 73.83 73.88
  L 74.13 71.81
  L 73.80 69.73
  L 72.72 67.02
  L 72.11 65.27
  L 71.89 63.63
  L 72.09 61.67
  L 72.82 59.51
  L 72.85 59.30
  L 72.60 58.95
  L 72.18 58.99
  L 70.37 60.56
  L 70.37 60.56
  L 69.07 62.26
  L 68.06 64.23
  L 67.85 65.23
  L 67.50 70.92
  L 67.17 71.90
  L 66.51 72.67
  L 65.66 73.13
  L 64.73 73.16
  L 64.08 72.83
  L 63.50 72.17
  L 63.15 71.22
  L 62.88 69.64
  L 62.39 66.72
  L 61.67 64.53
  L 60.58 62.57
  L 58.62 59.91
  L 57.45 58.38
  L 56.27 56.45
  L 55.55 54.42
  L 55.55 54.42
  L 55.55 54.42
  L 55.32 52.82
  L 55.36 51.16
  L 55.65 49.43
  L 56.21 47.65
  L 57.05 45.12
  L 57.05 45.02
  L 56.90 44.87
  L 56.69 44.91
  L 54.65 46.89
  L 53.06 48.96
  L 51.93 51.11
  L 51.26 53.36
  L 51.26 53.36
  L 51.26 53.36
  L 51.26 53.36
  L 51.05 55.51
  L 51.23 57.73
  L 51.79 60.03
  L 52.75 62.40
  L 53.24 63.87
  L 53.36 65.33
  L 53.13 66.85
  L 52.57 68.45
  L 51.66 70.11
  L 51.24 70.55
  L 50.68 70.80
  L 49.59 70.88
  L 48.73 70.60
  L 48.13 70.08
  L 47.72 69.33
  L 47.46 68.30
  L 47.41 67.12
  L 47.42 66.98
  L 47.39 63.44
  L 47.17 62.27
  L 46.75 61.18
  L 45.72 59.76
  L 44.04 58.40
  L 43.93 58.36
  L 43.68 58.45
  L 43.62 58.72
  L 44.00 60.73
  L 43.86 62.53
  L 43.20 64.19
  L 41.85 66.08
  L 40.48 67.99
  L 39.76 69.69
  L 39.59 70.61
  L 39.58 72.91
  L 39.58 72.91
  L 39.58 72.91
  L 39.84 74.34
  L 40.31 75.75
  L 41.87 78.50
  L 32.27 78.20
  L 22.69 78.06
  L 20.05 78.65
  L 17.68 79.71
  L 17.68 79.71
  L 17.68 79.71
  L 15.92 80.93
  L 14.34 82.46
  L 12.94 84.31
  L 11.72 86.48
  L 10.21 90.24
  L 10.21 90.24
  L 9.38 93.38
  L 8.90 96.62
  L 8.76 99.98
  L 8.97 103.45
  L 6.54 101.29
  L 4.55 98.99
  L 2.99 96.54
  L 1.86 93.94
  L 1.86 93.94
  L 1.86 93.94
  L 1.86 93.94
  L 1.28 91.77
  L 0.97 89.50
  L 0.93 87.14
  L 1.17 84.68
  L 1.86 81.67
  L 3.17 78.14
  L 4.48 74.52
  L 5.01 71.54
  L 4.99 69.31
  L 4.62 67.02
  L 4.61 66.94
  L 4.74 66.74
  L 4.98 66.72
  L 6.12 67.31
  L 7.13 68.06
  L 7.13 68.06
  L 8.56 69.75
  L 9.56 71.94
  L 10.13 74.60
  L 10.27 77.76
  L 10.58 78.34
  L 11.24 78.38
  L 11.48 78.18
  L 12.47 76.86
  L 13.16 75.53
  L 13.37 74.04
  L 13.15 72.33
  L 12.52 69.89
  L 11.85 67.25
  L 11.58 65.30
  L 11.69 62.62
  L 12.22 60.29
  L 13.17 57.97
  L 14.57 55.52
  L 16.74 52.45
  L 18.84 49.46
  L 20.17 47.13
  L 21.01 44.94
  L 21.42 42.80
  L 21.46 41.24
  L 21.27 39.58
  L 20.85 37.92
  L 20.19 36.14
  L 20.17 36.03
  L 20.30 35.85
  L 20.52 35.87
  L 22.43 37.30
  L 24.05 38.87
  L 25.38 40.57
  L 26.41 42.41
  L 26.41 42.41
  L 26.41 42.41
  L 27.09 44.14
  L 27.54 45.99
  L 27.76 47.93
  L 27.75 49.99
  L 27.43 52.09
  L 26.61 54.91
  L 25.86 57.41
  L 25.51 59.26
  L 25.49 60.97
  L 25.81 62.45
  L 26.89 64.41
  L 26.98 64.50
  L 27.35 64.55
  L 27.62 64.28
  L 28.19 62.53
  L 28.53 61.89
  L 32.33 56.79
  L 33.42 54.70
  L 34.01 52.67
  L 34.16 50.72
  L 33.95 48.69
  L 33.39 46.34
  L 32.39 43.35
  L 31.74 41.11
  L 31.39 38.87
  L 31.36 36.14
  L 31.74 33.47
  L 32.53 30.80
  L 33.69 28.26
  L 35.25 25.81
  L 37.12 23.57
  L 39.27 21.57
  L 41.67 19.85
  L 41.95 19.84
  L 42.07 20.21
  L 41.09 22.44
  L 40.36 24.58
  L 39.86 26.69
  L 39.59 28.80
  L 39.57 30.70
  L 39.79 32.57
  L 40.24 34.28
  L 40.96 35.92
  L 41.75 37.19
  L 43.44 39.03
  L 45.40 40.16
  L 45.53 40.21
  L 45.67 40.23
  L 46.02 40.05
  L 46.08 39.66
  L 45.41 37.22
  L 45.00 34.76
  L 45.00 34.76
  L 45.00 34.76
  L 44.84 31.91
  L 45.02 29.03
  L 45.38 27.32
  L 46.10 25.46
  L 47.21 23.41
  L 48.95 20.71
  L 51.48 16.59
  L 52.70 13.53
  L 53.12 11.06
  L 53.08 8.65
  L 52.80 7.05
  L 52.30 5.47
  L 50.68 2.38
  L 50.63 2.24
  L 50.76 2.00
  L 51.04 1.98
  L 53.37 3.30
  L 55.40 4.82
  L 57.10 6.53
  L 58.49 8.43
  L 58.49 8.43
  L 58.49 8.43
  L 59.51 10.38
  L 60.25 12.49
  L 60.71 14.77
  L 60.91 17.22
  L 60.89 18.59
  L 60.60 21.00
  L 59.91 24.07
  L 59.54 25.58
  L 59.12 28.27
  L 59.20 30.96
  L 59.65 33.15
  L 60.50 35.41
  L 61.72 37.65
  L 63.36 39.99
  L 64.44 41.67
  L 65.18 43.43
  L 65.59 45.16
  L 65.72 46.93
  L 65.57 48.81
  L 65.15 50.70
  L 65.14 50.83
  L 65.32 51.10
  L 65.64 51.09
  L 68.05 49.31
  L 68.95 48.27
  L 69.66 47.13
  L 69.66 47.13
  L 69.66 47.13
  L 70.40 45.00
  L 70.58 42.59
  L 70.12 40.24
  L 68.79 37.31
  L 67.53 34.58
  L 67.00 32.39
  L 66.99 29.81
  L 67.50 27.40
  L 67.50 27.40
  L 67.50 27.40
  L 68.17 25.82
  L 69.09 24.33
  L 70.27 22.92
  L 71.71 21.60
  L 71.80 21.55
  L 72.03 21.61
  L 72.10 21.84
  L 71.68 25.73
  L 71.80 27.45
  L 72.12 29.00
  L 72.66 30.45
  L 73.47 31.98
  L 76.30 35.77
  L 78.99 39.25
  L 80.16 41.08
  L 81.07 42.94
  L 81.74 44.85
  L 82.17 46.79
  L 82.17 46.79
  L 82.17 46.79
  L 82.35 48.94
  L 82.24 51.14
  L 81.84 53.38
  L 81.14 55.67
  L 80.85 56.80
  L 80.79 57.92
  L 80.94 59.11
  L 81.29 60.20
  L 81.82 61.15
  L 82.49 61.89
  L 83.27 62.38
  L 84.13 62.56
  L 84.96 62.42
  L 85.81 61.92
  L 86.58 61.13
  L 87.32 59.99
  L 87.98 58.49
  L 88.32 57.07
  L 88.29 54.63
  L 87.51 51.50
  L 86.78 48.78
  L 86.48 46.53
  L 86.60 43.45
  L 87.29 40.58
  L 88.15 38.64
  L 89.31 36.80
  L 89.44 36.68
  L 89.83 36.69
  L 90.04 37.02
  L 90.44 40.73
  L 91.22 43.51
  L 92.56 46.02
  L 94.83 48.92
  L 95.66 49.87
  L 98.44 53.21
  L 99.97 55.88
  L 100.50 57.42
  L 100.86 59.19
  L 100.98 61.06
  L 100.85 63.34
  L 99.84 69.12
  L 99.82 70.41
  L 100.33 71.60
  L 101.78 73.66
  L 102.31 73.92
  L 102.81 73.60
  L 102.81 73.60
  L 102.88 73.33
  L 103.13 70.67
  L 103.72 68.39
  L 104.66 66.49
  L 105.95 64.97
  L 105.95 64.97
  L 105.95 64.97
  L 106.95 64.20
  L 108.09 63.58
  L 108.32 63.59
  L 108.44 63.78
  L 108.44 63.85
  L 108.10 66.64
  L 108.05 69.11
  L 108.32 71.27
  L 108.88 73.11
  L 111.56 79.62
  L 112.69 82.83
  L 113.22 86.16
  L 113.29 89.29
  L 112.88 92.23
  L 112.01 94.98
  L 112.01 94.98
  L 112.01 94.98
  L 110.87 97.21
  L 109.37 99.30
  L 107.51 101.24
  L 105.30 103.03
  Z"
/>
<path fill="#00152d" d="
  M 105.30 103.03
  L 104.33 105.10
  L 103.18 106.95
  L 101.86 108.58
  L 100.35 109.98
  L 100.35 109.98
  L 100.35 109.98
  L 97.96 111.56
  L 95.22 112.70
  L 94.88 112.75
  L 81.82 112.88
  L 81.44 113.04
  L 81.27 113.42
  L 81.02 115.82
  L 80.44 118.10
  L 79.54 120.26
  L 78.32 122.31
  L 76.40 124.75
  L 74.91 125.95
  L 73.98 126.18
  L 73.23 126.13
  L 72.26 125.70
  L 71.38 124.84
  L 71.16 124.13
  L 71.45 123.44
  L 73.58 120.95
  L 75.12 118.69
  L 76.17 116.50
  L 76.78 114.32
  L 76.90 113.56
  L 76.90 113.51
  L 76.73 113.11
  L 76.32 112.96
  L 69.29 113.46
  L 68.73 113.66
  L 66.39 115.11
  L 64.41 115.83
  L 62.43 115.98
  L 59.62 115.68
  L 58.28 115.60
  L 56.95 115.73
  L 44.20 118.39
  L 29.62 122.14
  L 26.89 122.47
  L 23.41 122.14
  L 21.37 121.59
  L 19.45 120.68
  L 17.60 119.42
  L 15.77 117.76
  L 14.09 115.80
  L 12.54 113.50
  L 11.27 111.06
  L 10.34 108.63
  L 8.97 103.45
  L 8.76 99.98
  L 8.90 96.62
  L 9.38 93.38
  L 10.21 90.24
  L 11.72 86.48
  L 12.94 84.31
  L 14.34 82.46
  L 15.92 80.93
  L 17.68 79.71
  L 17.68 79.71
  L 20.05 78.65
  L 22.69 78.06
  L 32.27 78.20
  L 41.87 78.50
  L 53.71 78.06
  L 54.51 77.90
  L 55.21 77.48
  L 56.76 76.41
  L 58.32 75.78
  L 59.86 75.54
  L 61.62 75.64
  L 63.50 76.07
  L 65.65 76.86
  L 66.95 77.02
  L 72.91 76.12
  L 89.13 73.59
  L 91.42 73.45
  L 93.65 73.81
  L 95.74 74.60
  L 97.76 75.82
  L 99.74 77.52
  L 101.57 79.59
  L 103.22 82.07
  L 104.58 84.74
  L 105.54 87.42
  L 106.21 90.33
  L 106.55 93.27
  L 106.55 93.27
  L 106.55 93.27
  L 106.58 95.69
  L 106.38 98.12
  L 105.95 100.57
  L 105.30 103.03
  Z
  M 69.30 80.54
  L 71.25 82.90
  L 72.87 85.37
  L 74.17 87.93
  L 75.15 90.58
  L 75.72 92.88
  L 76.17 94.00
  L 77.01 94.86
  L 78.11 95.35
  L 79.31 95.39
  L 97.83 92.46
  L 98.52 92.49
  L 99.15 92.79
  L 99.60 93.32
  L 99.81 93.98
  L 99.82 94.07
  L 99.85 94.34
  L 99.77 95.16
  L 99.39 95.89
  L 98.76 96.42
  L 97.97 96.68
  L 79.62 98.91
  L 79.39 98.95
  L 78.72 99.29
  L 78.26 99.87
  L 78.07 100.59
  L 78.20 101.33
  L 81.11 108.54
  L 81.40 108.90
  L 81.84 109.04
  L 93.80 109.04
  L 95.71 108.70
  L 97.39 107.72
  L 97.41 107.71
  L 97.72 107.44
  L 99.66 105.29
  L 101.21 102.64
  L 102.25 99.65
  L 102.77 96.49
  L 102.77 93.02
  L 102.24 89.60
  L 101.19 86.33
  L 99.68 83.34
  L 97.58 80.66
  L 96.37 79.56
  L 95.05 78.62
  L 93.79 77.98
  L 92.48 77.54
  L 91.22 77.35
  L 89.94 77.40
  L 89.72 77.43
  L 79.50 79.01
  L 69.42 80.24
  L 69.30 80.54
  Z
  M 35.14 116.85
  L 42.92 114.87
  L 50.10 113.24
  L 56.69 111.96
  L 62.68 111.03
  L 64.48 110.54
  L 66.10 109.60
  L 67.41 108.27
  L 68.34 106.65
  L 69.58 103.61
  L 69.74 102.58
  L 69.43 101.58
  L 68.70 100.83
  L 67.72 100.48
  L 67.10 100.50
  L 42.29 104.60
  L 42.26 104.60
  L 41.93 104.49
  L 41.79 104.17
  L 41.79 100.72
  L 41.99 100.18
  L 42.50 99.92
  L 68.42 96.76
  L 69.55 96.39
  L 70.45 95.62
  L 70.99 94.56
  L 71.09 93.38
  L 70.87 92.00
  L 70.87 92.00
  L 70.87 92.00
  L 70.22 89.85
  L 69.23 87.78
  L 67.89 85.78
  L 66.20 83.86
  L 64.88 82.66
  L 63.64 81.82
  L 62.50 81.35
  L 61.45 81.24
  L 47.41 81.91
  L 31.87 81.95
  L 31.75 81.97
  L 31.58 82.19
  L 31.66 82.46
  L 33.12 84.08
  L 34.41 85.82
  L 35.60 87.77
  L 36.61 89.81
  L 38.13 94.21
  L 38.92 98.82
  L 38.98 103.52
  L 38.28 108.14
  L 37.65 110.36
  L 36.84 112.50
  L 35.89 114.46
  L 34.76 116.32
  L 34.71 116.46
  L 34.82 116.77
  L 35.14 116.85
  Z
  M 22.6709 82.8985
  L 20.4662 83.3817
  L 18.3908 84.5170
  L 16.5245 86.2608
  L 14.9389 88.5460
  L 13.6949 91.2848
  L 12.8405 94.3720
  L 12.4083 97.6890
  L 12.4152 101.1082
  L 12.8606 104.4982
  L 13.7276 107.7289
  L 14.9829 110.6760
  L 16.5781 113.2262
  L 18.4520 115.2817
  L 20.5326 116.7633
  L 22.7399 117.6141
  L 24.9891 117.8015
  L 27.1938 117.3183
  L 29.2692 116.1830
  L 31.1355 114.4392
  L 32.7211 112.1540
  L 33.9651 109.4152
  L 34.8195 106.3280
  L 35.2517 103.0110
  L 35.2448 99.5918
  L 34.7994 96.2018
  L 33.9324 92.9711
  L 32.6771 90.0240
  L 31.0819 87.4738
  L 29.2080 85.4183
  L 27.1274 83.9367
  L 24.9201 83.0859
  L 22.6709 82.8985
  Z
  M 73.9087 98.1301
  L 73.4183 98.5098
  L 73.3273 99.1943
  L 73.6888 99.7825
  L 74.2913 99.9299
  L 74.7817 99.5502
  L 74.8727 98.8657
  L 74.5112 98.2775
  L 73.9087 98.1301
  Z
  M 76.56 109.02
  L 75.99 105.57
  L 75.73 104.98
  L 75.21 104.61
  L 74.57 104.54
  L 73.98 104.80
  L 73.60 105.30
  L 71.89 109.52
  L 71.88 109.56
  L 72.08 109.76
  L 76.39 109.24
  L 76.39 109.24
  L 76.56 109.02
  Z"
/>
<path fill="#f8f8f6" d="
  M 69.30 80.54
  L 69.27 80.35
  L 69.42 80.24
  L 79.50 79.01
  L 89.72 77.43
  L 89.94 77.40
  L 91.22 77.35
  L 92.48 77.54
  L 93.79 77.98
  L 95.05 78.62
  L 96.37 79.56
  L 97.58 80.66
  L 99.68 83.34
  L 101.19 86.33
  L 102.24 89.60
  L 102.77 93.02
  L 102.77 96.49
  L 102.25 99.65
  L 101.21 102.64
  L 99.66 105.29
  L 97.72 107.44
  L 97.41 107.71
  L 95.84 108.65
  L 93.80 109.04
  L 81.84 109.04
  L 81.40 108.90
  L 81.11 108.54
  L 78.20 101.33
  L 78.07 100.59
  L 78.26 99.87
  L 78.72 99.29
  L 79.39 98.95
  L 79.62 98.91
  L 97.97 96.68
  L 98.76 96.42
  L 99.39 95.89
  L 99.77 95.16
  L 99.85 94.34
  L 99.82 94.07
  L 99.81 93.98
  L 99.60 93.32
  L 99.15 92.79
  L 98.52 92.49
  L 97.83 92.46
  L 79.31 95.39
  L 78.11 95.35
  L 77.01 94.86
  L 76.17 94.00
  L 75.72 92.88
  L 75.15 90.58
  L 74.17 87.93
  L 72.87 85.37
  L 71.25 82.90
  L 69.30 80.54
  Z"
/>
<path fill="#f8f8f6" d="
  M 34.76 116.32
  L 35.89 114.46
  L 36.84 112.50
  L 37.65 110.36
  L 38.28 108.14
  L 38.98 103.52
  L 38.92 98.82
  L 38.13 94.21
  L 36.61 89.81
  L 35.60 87.77
  L 34.41 85.82
  L 33.12 84.08
  L 31.66 82.46
  L 31.58 82.19
  L 31.75 81.97
  L 31.87 81.95
  L 47.41 81.91
  L 61.45 81.24
  L 62.50 81.35
  L 63.64 81.82
  L 64.88 82.66
  L 66.20 83.86
  L 67.89 85.78
  L 69.23 87.78
  L 70.22 89.85
  L 70.87 92.00
  L 70.87 92.00
  L 70.87 92.00
  L 71.09 93.38
  L 70.99 94.56
  L 70.45 95.62
  L 69.55 96.39
  L 68.42 96.76
  L 42.50 99.92
  L 41.99 100.18
  L 41.79 100.72
  L 41.79 104.17
  L 41.93 104.49
  L 42.26 104.60
  L 42.29 104.60
  L 67.10 100.50
  L 67.72 100.48
  L 68.70 100.83
  L 69.43 101.58
  L 69.74 102.58
  L 69.58 103.61
  L 68.34 106.65
  L 67.41 108.27
  L 66.10 109.60
  L 64.48 110.54
  L 62.68 111.03
  L 56.69 111.96
  L 50.10 113.24
  L 42.92 114.87
  L 35.14 116.85
  L 34.82 116.77
  L 34.71 116.46
  L 34.76 116.32
  Z"
/>
<path fill="#f8f8f6" d="
  M 22.6709 82.8985
  L 24.9201 83.0859
  L 27.1274 83.9367
  L 29.2080 85.4183
  L 31.0819 87.4738
  L 32.6771 90.0240
  L 33.9324 92.9711
  L 34.7994 96.2018
  L 35.2448 99.5918
  L 35.2517 103.0110
  L 34.8195 106.3280
  L 33.9651 109.4152
  L 32.7211 112.1540
  L 31.1355 114.4392
  L 29.2692 116.1830
  L 27.1938 117.3183
  L 24.9891 117.8015
  L 22.7399 117.6141
  L 20.5326 116.7633
  L 18.4520 115.2817
  L 16.5781 113.2262
  L 14.9829 110.6760
  L 13.7276 107.7289
  L 12.8606 104.4982
  L 12.4152 101.1082
  L 12.4083 97.6890
  L 12.8405 94.3720
  L 13.6949 91.2848
  L 14.9389 88.5460
  L 16.5245 86.2608
  L 18.3908 84.5170
  L 20.4662 83.3817
  L 22.6709 82.8985
  Z
  M 22.7512 85.9868
  L 20.9826 86.3908
  L 19.3216 87.3308
  L 17.8319 88.7708
  L 16.5708 90.6554
  L 15.5868 92.9121
  L 14.9176 95.4543
  L 14.5889 98.1843
  L 14.6135 100.9971
  L 14.9904 103.7846
  L 15.7050 106.4398
  L 16.7299 108.8605
  L 18.0258 110.9538
  L 19.5428 112.6393
  L 21.2227 113.8520
  L 23.0008 114.5456
  L 24.8088 114.6932
  L 26.5774 114.2892
  L 28.2384 113.3492
  L 29.7281 111.9092
  L 30.9892 110.0246
  L 31.9732 107.7679
  L 32.6424 105.2257
  L 32.9711 102.4957
  L 32.9465 99.6829
  L 32.5696 96.8954
  L 31.8550 94.2402
  L 30.8301 91.8195
  L 29.5342 89.7262
  L 28.0172 88.0407
  L 26.3373 86.8280
  L 24.5592 86.1344
  L 22.7512 85.9868
  Z"
/>
<path fill="#00152d" d="
  M 22.7512 85.9868
  L 24.5592 86.1344
  L 26.3373 86.8280
  L 28.0172 88.0407
  L 29.5342 89.7262
  L 30.8301 91.8195
  L 31.8550 94.2402
  L 32.5696 96.8954
  L 32.9465 99.6829
  L 32.9711 102.4957
  L 32.6424 105.2257
  L 31.9732 107.7679
  L 30.9892 110.0246
  L 29.7281 111.9092
  L 28.2384 113.3492
  L 26.5774 114.2892
  L 24.8088 114.6932
  L 23.0008 114.5456
  L 21.2227 113.8520
  L 19.5428 112.6393
  L 18.0258 110.9538
  L 16.7299 108.8605
  L 15.7050 106.4398
  L 14.9904 103.7846
  L 14.6135 100.9971
  L 14.5889 98.1843
  L 14.9176 95.4543
  L 15.5868 92.9121
  L 16.5708 90.6554
  L 17.8319 88.7708
  L 19.3216 87.3308
  L 20.9826 86.3908
  L 22.7512 85.9868
  Z
  M 27.40 103.27
  L 27.79 102.92
  L 28.17 101.00
  L 28.14 98.99
  L 27.69 97.07
  L 26.88 95.39
  L 25.68 93.88
  L 24.25 92.83
  L 22.73 92.32
  L 21.23 92.43
  L 20.10 93.03
  L 19.12 94.13
  L 18.41 95.62
  L 17.92 97.60
  L 17.73 100.30
  L 18.03 102.88
  L 18.03 102.88
  L 18.59 104.75
  L 19.44 106.56
  L 20.08 107.46
  L 20.72 107.88
  L 21.57 107.90
  L 22.32 107.51
  L 22.77 106.81
  L 22.79 106.00
  L 22.79 106.00
  L 22.33 105.27
  L 21.43 104.34
  L 20.75 103.30
  L 20.75 103.30
  L 20.25 101.99
  L 20.02 100.53
  L 20.08 98.93
  L 20.42 97.19
  L 20.81 96.27
  L 21.40 95.67
  L 21.40 95.67
  L 21.77 95.49
  L 22.47 95.37
  L 23.18 95.49
  L 23.82 95.85
  L 24.32 96.40
  L 25.23 98.27
  L 25.51 100.13
  L 25.51 100.13
  L 25.51 100.13
  L 25.21 101.86
  L 24.36 103.59
  L 24.35 103.63
  L 24.47 103.75
  L 27.40 103.27
  Z"
/>
<path fill="#f8f8f6" d="
  M 24.36 103.59
  L 25.21 101.86
  L 25.51 100.13
  L 25.23 98.27
  L 24.32 96.40
  L 23.82 95.85
  L 23.18 95.49
  L 22.47 95.37
  L 21.77 95.49
  L 21.40 95.67
  L 20.81 96.27
  L 20.42 97.19
  L 20.08 98.93
  L 20.02 100.53
  L 20.25 101.99
  L 20.75 103.30
  L 20.75 103.30
  L 21.43 104.34
  L 22.33 105.27
  L 22.79 106.00
  L 22.77 106.81
  L 22.32 107.51
  L 21.57 107.90
  L 20.72 107.88
  L 20.08 107.46
  L 19.44 106.56
  L 18.59 104.75
  L 18.03 102.88
  L 18.03 102.88
  L 17.73 100.30
  L 17.92 97.60
  L 18.41 95.62
  L 19.12 94.13
  L 20.10 93.03
  L 21.23 92.43
  L 22.73 92.32
  L 24.25 92.83
  L 25.68 93.88
  L 26.88 95.39
  L 27.69 97.07
  L 28.14 98.99
  L 28.17 101.00
  L 27.79 102.92
  L 27.40 103.27
  L 24.47 103.75
  L 24.35 103.63
  L 24.36 103.59
  Z"
/>
<ellipse fill="#f8f8f6" cx="0.00" cy="0.00" transform="translate(74.10,99.03) rotate(-102.0)" rx="0.92" ry="0.79"/>
<path fill="#f8f8f6" d="
  M 76.56 109.02
  L 76.39 109.24
  L 76.39 109.24
  L 72.08 109.76
  L 71.88 109.56
  L 71.89 109.52
  L 73.60 105.30
  L 73.98 104.80
  L 74.57 104.54
  L 75.21 104.61
  L 75.73 104.98
  L 75.99 105.57
  L 76.56 109.02
  Z"
/>
</svg>
