<?xml version="1.0" encoding="UTF-8" standalone="no"?>
<!DOCTYPE svg PUBLIC "-//W3C//DTD SVG 1.1//EN" "http://www.w3.org/Graphics/SVG/1.1/DTD/svg11.dtd">
<svg xmlns="http://www.w3.org/2000/svg" version="1.1" viewBox="0.00 0.00 80.00 79.00">
<g stroke-width="2.00" fill="none" stroke-linecap="butt">
<path stroke="#125217" vector-effect="non-scaling-stroke" d="
  M 72.83 18.04
  Q 70.86 17.53 70.14 16.34
  Q 68.79 14.11 66.99 12.49
  Q 59.26 5.53 48.86 2.78
  Q 47.02 2.29 45.09 2.21
  Q 43.61 2.15 41.26 2.25
  Q 40.30 2.29 40.84 2.91"
/>
<path stroke="#92d197" vector-effect="non-scaling-stroke" d="
  M 40.84 2.91
  Q 40.48 2.73 40.39 2.55"
/>
<path stroke="#125217" vector-effect="non-scaling-stroke" d="
  M 40.39 2.55
  L 39.71 2.06
  A 1.47 1.45 61.4 0 0 38.85 1.80
  Q 27.32 1.81 17.36 9.13
  Q 14.77 11.04 14.50 13.19"
/>
<path stroke="#92d197" vector-effect="non-scaling-stroke" d="
  M 14.50 13.19
  Q 13.46 13.78 13.60 14.72"
/>
<path stroke="#125217" vector-effect="non-scaling-stroke" d="
  M 13.60 14.72
  Q 13.02 13.02 11.54 14.53
  C 6.27 19.93 2.71 28.43 2.20 35.46
  Q 2.05 37.59 1.47 39.33
  Q 1.28 39.89 2.22 39.35"
/>
<path stroke="#92d197" vector-effect="non-scaling-stroke" d="
  M 2.22 39.35
  Q 2.20 40.07 2.71 40.50"
/>
<path stroke="#125217" vector-effect="non-scaling-stroke" d="
  M 2.71 40.50
  Q 2.37 40.49 2.15 40.68
  Q 1.97 40.84 1.98 41.20
  Q 2.27 55.89 12.61 66.17
  A 0.60 0.59 -52.5 0 0 13.54 66.04
  Q 13.67 65.81 13.57 65.40"
/>
<path stroke="#92d197" vector-effect="non-scaling-stroke" d="
  M 13.57 65.40
  Q 14.15 66.39 14.94 66.25"
/>
<path stroke="#125217" vector-effect="non-scaling-stroke" d="
  M 14.94 66.25
  Q 13.81 67.00 14.59 67.92
  Q 17.01 70.77 21.89 73.29
  C 38.01 81.63 55.25 78.61 67.91 65.77
  Q 78.04 55.50 78.27 39.68
  C 78.35 33.60 76.86 28.24 74.33 22.67
  A 0.37 0.37 0.0 0 1 74.70 22.15
  L 75.28 22.20"
/>
<path stroke="#125217" vector-effect="non-scaling-stroke" d="
  M 79.26 44.19
  Q 78.90 44.60 79.11 45.29"
/>
<path stroke="#808080" vector-effect="non-scaling-stroke" d="
  M 40.39 2.55
  Q 39.51 2.45 39.50 3.49
  Q 39.40 50.32 39.43 76.25
  A 0.73 0.72 -87.9 0 0 40.10 76.98
  L 40.19 76.99
  A 0.62 0.62 0.0 0 0 40.86 76.37
  L 40.84 2.91"
/>
<path stroke="#808080" vector-effect="non-scaling-stroke" d="
  M 14.94 66.25
  L 23.07 63.93
  A 1.39 1.39 0.0 0 1 24.21 64.11
  Q 28.30 66.86 33.39 68.09
  A 2.08 2.06 81.6 0 1 34.66 69.04
  L 37.40 73.80
  A 0.24 0.24 0.0 0 0 37.85 73.68
  L 37.85 62.05
  A 0.66 0.65 -86.5 0 0 37.28 61.40
  Q 31.05 60.57 26.08 56.41
  A 0.89 0.87 49.6 0 0 25.07 56.32
  L 23.77 57.07
  A 0.68 0.68 0.0 0 1 22.84 56.14
  L 23.61 54.82
  A 0.89 0.88 39.9 0 0 23.52 53.82
  Q 19.23 48.77 18.43 42.05
  A 0.84 0.83 11.8 0 0 18.02 41.43
  L 15.82 40.16
  A 0.47 0.47 0.0 0 1 15.82 39.35
  L 18.02 38.08
  A 0.86 0.84 78.9 0 0 18.44 37.44
  Q 19.22 30.79 23.51 25.67
  A 0.87 0.86 50.5 0 0 23.60 24.68
  L 22.85 23.38
  A 0.69 0.69 0.0 0 1 23.79 22.44
  L 25.12 23.21
  A 0.82 0.82 0.0 0 0 26.06 23.13
  Q 30.95 18.99 37.24 18.11
  A 0.71 0.70 86.3 0 0 37.85 17.41
  L 37.85 5.83
  A 0.24 0.23 60.0 0 0 37.41 5.71
  L 34.63 10.50
  A 1.92 1.89 7.4 0 1 33.43 11.41
  Q 28.31 12.64 24.26 15.36
  A 1.54 1.52 -54.0 0 1 22.99 15.57
  L 14.50 13.19"
/>
<path stroke="#808080" vector-effect="non-scaling-stroke" d="
  M 75.51 20.60
  Q 75.86 20.85 76.34 20.48
  A 0.18 0.18 0.0 0 0 76.25 20.16
  L 46.35 15.33
  A 0.33 0.33 0.0 0 0 46.07 15.89
  L 49.44 19.27
  A 0.26 0.26 0.0 0 1 49.26 19.71
  L 43.46 19.71
  A 1.12 1.11 90.0 0 0 42.35 20.83
  L 42.35 25.32
  A 1.15 1.15 0.0 0 0 43.50 26.47
  L 61.33 26.47
  A 0.53 0.53 0.0 0 0 61.71 25.56
  L 57.43 21.28
  A 0.46 0.46 0.0 0 1 57.75 20.50
  Q 67.38 20.41 74.26 20.83
  Q 74.55 20.85 74.96 20.58
  A 0.49 0.48 46.8 0 1 75.51 20.60"
/>
<path stroke="#808080" vector-effect="non-scaling-stroke" d="
  M 64.48 47.98
  L 60.32 49.49
  A 0.41 0.41 0.0 0 1 59.83 48.90
  L 68.29 34.25
  A 0.09 0.09 0.0 0 0 68.21 34.12
  L 60.96 34.12
  A 0.42 0.42 0.0 0 0 60.59 34.34
  L 48.01 56.13
  A 0.50 0.50 0.0 0 0 48.55 56.87
  L 54.40 55.64
  A 0.47 0.47 0.0 0 1 54.90 56.34
  L 45.53 72.58
  A 0.10 0.09 -58.5 0 0 45.56 72.72
  L 45.81 72.86
  A 0.35 0.35 0.0 0 0 46.27 72.77
  Q 55.52 60.76 64.78 48.78
  Q 64.91 48.62 64.87 48.22
  A 0.29 0.29 0.0 0 0 64.48 47.98"
/>
<path stroke="#808080" vector-effect="non-scaling-stroke" d="
  M 13.57 65.40
  L 15.88 56.98
  A 1.45 1.45 0.0 0 0 15.80 55.99
  C 14.32 52.73 12.74 50.24 11.84 46.53
  A 2.30 2.27 -82.0 0 0 10.75 45.07
  L 2.71 40.50"
/>
<path stroke="#808080" vector-effect="non-scaling-stroke" d="
  M 2.22 39.35
  L 10.97 34.20
  A 1.65 1.64 84.6 0 0 11.67 33.35
  C 12.87 29.91 13.70 27.16 15.75 23.72
  A 1.38 1.35 -38.2 0 0 15.89 22.65
  L 13.60 14.72"
/>
</g>
<path fill="#24a32e" fill-opacity="0.996" d="
  M 72.83 18.04
  Q 70.86 17.53 70.14 16.34
  Q 68.79 14.11 66.99 12.49
  Q 59.26 5.53 48.86 2.78
  Q 47.02 2.29 45.09 2.21
  Q 43.61 2.15 41.26 2.25
  Q 40.30 2.29 40.84 2.91
  Q 40.48 2.73 40.39 2.55
  L 39.71 2.06
  A 1.47 1.45 61.4 0 0 38.85 1.80
  Q 27.32 1.81 17.36 9.13
  Q 14.77 11.04 14.50 13.19
  Q 13.46 13.78 13.60 14.72
  Q 13.02 13.02 11.54 14.53
  C 6.27 19.93 2.71 28.43 2.20 35.46
  Q 2.05 37.59 1.47 39.33
  Q 1.28 39.89 2.22 39.35
  Q 2.20 40.07 2.71 40.50
  Q 2.37 40.49 2.15 40.68
  Q 1.97 40.84 1.98 41.20
  Q 2.27 55.89 12.61 66.17
  A 0.60 0.59 -52.5 0 0 13.54 66.04
  Q 13.67 65.81 13.57 65.40
  Q 14.15 66.39 14.94 66.25
  Q 13.81 67.00 14.59 67.92
  Q 17.01 70.77 21.89 73.29
  C 38.01 81.63 55.25 78.61 67.91 65.77
  Q 78.04 55.50 78.27 39.68
  C 78.35 33.60 76.86 28.24 74.33 22.67
  A 0.37 0.37 0.0 0 1 74.70 22.15
  L 75.28 22.20
  Q 80.56 32.66 79.26 44.19
  Q 78.90 44.60 79.11 45.29
  C 76.33 62.89 63.50 75.91 46.00 79.00
  L 34.05 79.00
  Q 8.95 74.03 1.80 50.15
  Q -0.96 40.91 1.66 30.54
  C 5.89 13.80 19.55 2.04 36.53 0.40
  C 50.63 -0.95 64.92 5.90 72.83 18.04
  Z"
/>
<path fill="#010101" d="
  M 40.39 2.55
  Q 39.51 2.45 39.50 3.49
  Q 39.40 50.32 39.43 76.25
  A 0.73 0.72 -87.9 0 0 40.10 76.98
  L 40.19 76.99
  A 0.62 0.62 0.0 0 0 40.86 76.37
  L 40.84 2.91
  Q 40.30 2.29 41.26 2.25
  Q 43.61 2.15 45.09 2.21
  Q 47.02 2.29 48.86 2.78
  Q 59.26 5.53 66.99 12.49
  Q 68.79 14.11 70.14 16.34
  Q 70.86 17.53 72.83 18.04
  L 76.79 20.02
  A 0.49 0.47 -81.5 0 1 77.04 20.37
  Q 77.19 21.29 75.87 21.09
  Q 75.39 21.02 75.24 21.41
  Q 75.12 21.73 75.28 22.20
  L 74.70 22.15
  A 0.37 0.37 0.0 0 0 74.33 22.67
  C 76.86 28.24 78.35 33.60 78.27 39.68
  Q 78.04 55.50 67.91 65.77
  C 55.25 78.61 38.01 81.63 21.89 73.29
  Q 17.01 70.77 14.59 67.92
  Q 13.81 67.00 14.94 66.25
  L 23.07 63.93
  A 1.39 1.39 0.0 0 1 24.21 64.11
  Q 28.30 66.86 33.39 68.09
  A 2.08 2.06 81.6 0 1 34.66 69.04
  L 37.40 73.80
  A 0.24 0.24 0.0 0 0 37.85 73.68
  L 37.85 62.05
  A 0.66 0.65 -86.5 0 0 37.28 61.40
  Q 31.05 60.57 26.08 56.41
  A 0.89 0.87 49.6 0 0 25.07 56.32
  L 23.77 57.07
  A 0.68 0.68 0.0 0 1 22.84 56.14
  L 23.61 54.82
  A 0.89 0.88 39.9 0 0 23.52 53.82
  Q 19.23 48.77 18.43 42.05
  A 0.84 0.83 11.8 0 0 18.02 41.43
  L 15.82 40.16
  A 0.47 0.47 0.0 0 1 15.82 39.35
  L 18.02 38.08
  A 0.86 0.84 78.9 0 0 18.44 37.44
  Q 19.22 30.79 23.51 25.67
  A 0.87 0.86 50.5 0 0 23.60 24.68
  L 22.85 23.38
  A 0.69 0.69 0.0 0 1 23.79 22.44
  L 25.12 23.21
  A 0.82 0.82 0.0 0 0 26.06 23.13
  Q 30.95 18.99 37.24 18.11
  A 0.71 0.70 86.3 0 0 37.85 17.41
  L 37.85 5.83
  A 0.24 0.23 60.0 0 0 37.41 5.71
  L 34.63 10.50
  A 1.92 1.89 7.4 0 1 33.43 11.41
  Q 28.31 12.64 24.26 15.36
  A 1.54 1.52 -54.0 0 1 22.99 15.57
  L 14.50 13.19
  Q 14.77 11.04 17.36 9.13
  Q 27.32 1.81 38.85 1.80
  A 1.47 1.45 61.4 0 1 39.71 2.06
  L 40.39 2.55
  Z
  M 75.51 20.60
  Q 75.86 20.85 76.34 20.48
  A 0.18 0.18 0.0 0 0 76.25 20.16
  L 46.35 15.33
  A 0.33 0.33 0.0 0 0 46.07 15.89
  L 49.44 19.27
  A 0.26 0.26 0.0 0 1 49.26 19.71
  L 43.46 19.71
  A 1.12 1.11 90.0 0 0 42.35 20.83
  L 42.35 25.32
  A 1.15 1.15 0.0 0 0 43.50 26.47
  L 61.33 26.47
  A 0.53 0.53 0.0 0 0 61.71 25.56
  L 57.43 21.28
  A 0.46 0.46 0.0 0 1 57.75 20.50
  Q 67.38 20.41 74.26 20.83
  Q 74.55 20.85 74.96 20.58
  A 0.49 0.48 46.8 0 1 75.51 20.60
  Z
  M 64.48 47.98
  L 60.32 49.49
  A 0.41 0.41 0.0 0 1 59.83 48.90
  L 68.29 34.25
  A 0.09 0.09 0.0 0 0 68.21 34.12
  L 60.96 34.12
  A 0.42 0.42 0.0 0 0 60.59 34.34
  L 48.01 56.13
  A 0.50 0.50 0.0 0 0 48.55 56.87
  L 54.40 55.64
  A 0.47 0.47 0.0 0 1 54.90 56.34
  L 45.53 72.58
  A 0.10 0.09 -58.5 0 0 45.56 72.72
  L 45.81 72.86
  A 0.35 0.35 0.0 0 0 46.27 72.77
  Q 55.52 60.76 64.78 48.78
  Q 64.91 48.62 64.87 48.22
  A 0.29 0.29 0.0 0 0 64.48 47.98
  Z"
/>
<path fill="#ffffff" d="
  M 40.39 2.55
  Q 40.48 2.73 40.84 2.91
  L 40.86 76.37
  A 0.62 0.62 0.0 0 1 40.19 76.99
  L 40.10 76.98
  A 0.73 0.72 -87.9 0 1 39.43 76.25
  Q 39.40 50.32 39.50 3.49
  Q 39.51 2.45 40.39 2.55
  Z"
/>
<path fill="#ffffff" d="
  M 14.94 66.25
  Q 14.15 66.39 13.57 65.40
  L 15.88 56.98
  A 1.45 1.45 0.0 0 0 15.80 55.99
  C 14.32 52.73 12.74 50.24 11.84 46.53
  A 2.30 2.27 -82.0 0 0 10.75 45.07
  L 2.71 40.50
  Q 2.20 40.07 2.22 39.35
  L 10.97 34.20
  A 1.65 1.64 84.6 0 0 11.67 33.35
  C 12.87 29.91 13.70 27.16 15.75 23.72
  A 1.38 1.35 -38.2 0 0 15.89 22.65
  L 13.60 14.72
  Q 13.46 13.78 14.50 13.19
  L 22.99 15.57
  A 1.54 1.52 -54.0 0 0 24.26 15.36
  Q 28.31 12.64 33.43 11.41
  A 1.92 1.89 7.4 0 0 34.63 10.50
  L 37.41 5.71
  A 0.24 0.23 60.0 0 1 37.85 5.83
  L 37.85 17.41
  A 0.71 0.70 86.3 0 1 37.24 18.11
  Q 30.95 18.99 26.06 23.13
  A 0.82 0.82 0.0 0 1 25.12 23.21
  L 23.79 22.44
  A 0.69 0.69 0.0 0 0 22.85 23.38
  L 23.60 24.68
  A 0.87 0.86 50.5 0 1 23.51 25.67
  Q 19.22 30.79 18.44 37.44
  A 0.86 0.84 78.9 0 1 18.02 38.08
  L 15.82 39.35
  A 0.47 0.47 0.0 0 0 15.82 40.16
  L 18.02 41.43
  A 0.84 0.83 11.8 0 1 18.43 42.05
  Q 19.23 48.77 23.52 53.82
  A 0.89 0.88 39.9 0 1 23.61 54.82
  L 22.84 56.14
  A 0.68 0.68 0.0 0 0 23.77 57.07
  L 25.07 56.32
  A 0.89 0.87 49.6 0 1 26.08 56.41
  Q 31.05 60.57 37.28 61.40
  A 0.66 0.65 -86.5 0 1 37.85 62.05
  L 37.85 73.68
  A 0.24 0.24 0.0 0 1 37.40 73.80
  L 34.66 69.04
  A 2.08 2.06 81.6 0 0 33.39 68.09
  Q 28.30 66.86 24.21 64.11
  A 1.39 1.39 0.0 0 0 23.07 63.93
  L 14.94 66.25
  Z"
/>
<path fill="#010101" d="
  M 13.60 14.72
  L 15.89 22.65
  A 1.38 1.35 -38.2 0 1 15.75 23.72
  C 13.70 27.16 12.87 29.91 11.67 33.35
  A 1.65 1.64 84.6 0 1 10.97 34.20
  L 2.22 39.35
  Q 1.28 39.89 1.47 39.33
  Q 2.05 37.59 2.20 35.46
  C 2.71 28.43 6.27 19.93 11.54 14.53
  Q 13.02 13.02 13.60 14.72
  Z"
/>
<path fill="#ffffff" d="
  M 74.96 20.58
  Q 74.55 20.85 74.26 20.83
  Q 67.38 20.41 57.75 20.50
  A 0.46 0.46 0.0 0 0 57.43 21.28
  L 61.71 25.56
  A 0.53 0.53 0.0 0 1 61.33 26.47
  L 43.50 26.47
  A 1.15 1.15 0.0 0 1 42.35 25.32
  L 42.35 20.83
  A 1.12 1.11 -90.0 0 1 43.46 19.71
  L 49.26 19.71
  A 0.26 0.26 0.0 0 0 49.44 19.27
  L 46.07 15.89
  A 0.33 0.33 0.0 0 1 46.35 15.33
  L 76.25 20.16
  A 0.18 0.18 0.0 0 1 76.34 20.48
  Q 75.86 20.85 75.51 20.60
  A 0.49 0.48 46.8 0 0 74.96 20.58
  Z"
/>
<path fill="#ffffff" d="
  M 64.48 47.98
  A 0.29 0.29 0.0 0 1 64.87 48.22
  Q 64.91 48.62 64.78 48.78
  Q 55.52 60.76 46.27 72.77
  A 0.35 0.35 0.0 0 1 45.81 72.86
  L 45.56 72.72
  A 0.10 0.09 -58.5 0 1 45.53 72.58
  L 54.90 56.34
  A 0.47 0.47 0.0 0 0 54.40 55.64
  L 48.55 56.87
  A 0.50 0.50 0.0 0 1 48.01 56.13
  L 60.59 34.34
  A 0.42 0.42 0.0 0 1 60.96 34.12
  L 68.21 34.12
  A 0.09 0.09 0.0 0 1 68.29 34.25
  L 59.83 48.90
  A 0.41 0.41 0.0 0 0 60.32 49.49
  L 64.48 47.98
  Z"
/>
<path fill="#010101" d="
  M 2.71 40.50
  L 10.75 45.07
  A 2.30 2.27 -82.0 0 1 11.84 46.53
  C 12.74 50.24 14.32 52.73 15.80 55.99
  A 1.45 1.45 0.0 0 1 15.88 56.98
  L 13.57 65.40
  Q 13.67 65.81 13.54 66.04
  A 0.60 0.59 -52.5 0 1 12.61 66.17
  Q 2.27 55.89 1.98 41.20
  Q 1.97 40.84 2.15 40.68
  Q 2.37 40.49 2.71 40.50
  Z"
/>
<path fill="#010101" d="
  M 79.26 44.19
  L 79.11 45.29
  Q 78.90 44.60 79.26 44.19
  Z"
/>
</svg>
