<?xml version="1.0" encoding="UTF-8" standalone="no"?>
<!DOCTYPE svg PUBLIC "-//W3C//DTD SVG 1.1//EN" "http://www.w3.org/Graphics/SVG/1.1/DTD/svg11.dtd">
<svg xmlns="http://www.w3.org/2000/svg" version="1.1" viewBox="0.00 0.00 150.00 150.00">
<path fill="#ffffff" d="
  M 92.48 72.92
  A 0.27 0.27 0.0 0 0 92.12 73.08
  L 92.12 73.09
  A 0.21 0.21 0.0 0 0 92.25 73.36
  Q 96.44 74.59 97.74 77.81
  Q 101.29 86.64 106.61 93.29
  A 0.38 0.38 0.0 0 1 106.37 93.90
  L 99.97 94.82
  A 0.71 0.71 0.0 0 0 99.49 95.93
  C 101.45 98.64 105.52 103.99 104.41 106.97
  A 1.89 1.81 -11.6 0 1 103.90 107.71
  L 100.20 110.91
  A 0.85 0.84 -35.7 0 0 100.02 111.97
  L 100.80 113.33
  A 3.57 3.57 0.0 0 1 101.25 115.56
  L 99.52 128.91
  A 0.88 0.86 27.5 0 0 99.75 129.61
  Q 101.48 131.42 102.47 135.75
  A 2.37 2.34 -39.9 0 1 102.33 137.21
  L 101.80 138.43
  A 1.11 1.09 35.5 0 0 102.01 139.61
  Q 104.62 142.37 103.94 146.47
  A 0.80 0.80 0.0 0 1 103.23 147.14
  Q 100.86 147.38 98.91 147.39
  C 92.49 147.45 91.38 136.30 91.85 132.18
  A 3.56 3.48 -53.8 0 0 91.59 130.38
  C 90.75 128.42 90.96 126.27 90.46 124.24
  Q 88.38 115.72 88.29 115.00
  Q 88.17 114.11 88.36 113.41
  A 0.48 0.48 0.0 0 0 87.98 112.81
  Q 86.81 112.63 86.42 112.30
  Q 81.00 107.73 81.45 100.17
  A 0.49 0.48 -15.1 0 0 80.70 99.74
  Q 79.52 100.51 78.15 100.43
  A 0.94 0.93 -75.8 0 0 77.24 100.98
  Q 75.49 104.77 74.24 108.22
  Q 73.99 108.90 71.47 111.91
  A 2.73 2.70 72.1 0 0 70.92 113.00
  C 69.89 117.28 72.22 120.54 70.91 124.58
  A 3.88 3.86 -46.7 0 0 70.98 127.21
  L 72.99 132.32
  A 1.34 1.33 38.5 0 1 73.07 133.00
  Q 72.80 134.96 70.78 135.78
  C 66.96 137.34 59.95 140.09 55.79 138.87
  A 1.78 1.51 12.1 0 1 54.50 137.20
  C 54.70 135.35 57.07 133.57 58.77 132.52
  A 1.19 1.18 81.8 0 0 59.30 131.80
  Q 60.15 128.43 62.59 125.16
  A 1.21 1.21 0.0 0 0 62.60 123.73
  Q 61.10 121.69 60.50 119.40
  A 0.35 0.35 0.0 0 0 59.81 119.45
  Q 59.71 120.45 59.92 121.38
  A 1.05 1.05 0.0 0 1 59.24 122.61
  L 58.29 122.94
  A 0.73 0.73 0.0 0 1 57.33 122.34
  Q 56.88 118.68 59.37 115.96
  A 0.89 0.89 0.0 0 0 58.94 114.49
  Q 56.32 113.81 54.55 111.47
  A 2.33 2.31 38.4 0 1 54.27 109.16
  L 59.98 96.06
  A 0.49 0.49 0.0 0 0 59.15 95.56
  Q 57.52 97.56 54.42 97.59
  A 0.67 0.54 51.5 0 1 54.16 97.53
  L 49.02 95.29
  A 0.50 0.50 0.0 0 1 48.79 94.56
  L 53.56 86.83
  A 5.67 5.34 74.2 0 0 53.93 86.12
  Q 56.06 81.16 57.00 80.23
  Q 59.84 77.42 63.20 75.02
  A 2.59 2.58 -32.0 0 0 63.98 71.68
  Q 61.32 66.79 63.07 61.04
  C 63.72 58.90 63.48 54.49 62.32 51.73
  C 60.20 46.67 57.34 42.84 52.89 40.08
  Q 50.67 38.71 48.89 37.21
  A 2.05 2.05 0.0 0 1 48.20 35.22
  Q 48.77 32.41 48.34 29.68
  A 5.64 5.55 46.4 0 1 48.37 27.83
  C 49.03 24.18 49.73 19.22 51.68 15.01
  Q 53.29 11.49 53.20 10.47
  A 0.52 0.51 60.7 0 1 53.30 10.11
  L 58.28 3.20
  A 2.46 2.40 -86.9 0 1 59.02 2.52
  L 59.24 2.38
  A 0.50 0.49 -3.8 0 1 59.95 3.00
  L 58.49 6.37
  A 0.98 0.98 0.0 0 0 59.13 7.71
  C 61.24 8.27 64.24 8.83 62.68 11.96
  C 61.67 13.99 61.19 15.24 58.83 14.39
  A 0.41 0.41 0.0 0 0 58.27 14.81
  L 58.49 17.88
  A 3.12 2.98 -74.3 0 1 58.48 18.32
  L 57.55 29.29
  A 1.95 1.95 0.0 0 0 59.24 31.38
  L 61.68 31.70
  A 0.73 0.72 -74.3 0 0 62.42 31.28
  L 64.28 27.01
  A 0.68 0.67 27.9 0 0 64.02 26.17
  Q 63.27 25.69 63.25 25.45
  Q 63.19 24.88 63.67 24.42
  Q 65.29 22.88 65.57 22.37
  Q 66.36 20.93 65.27 20.49
  A 0.64 0.63 -69.9 0 1 64.91 19.70
  C 65.39 18.30 66.58 17.21 68.09 17.86
  Q 68.81 18.17 69.25 18.17
  A 1.36 1.32 -63.9 0 0 70.14 17.85
  C 74.08 14.58 76.03 13.14 80.79 14.08
  C 81.52 14.22 82.15 14.83 82.90 15.15
  A 0.66 0.66 0.0 0 0 83.75 14.84
  Q 84.24 13.88 85.05 13.36
  A 0.53 0.53 0.0 0 1 85.82 14.01
  L 85.32 15.16
  A 0.86 0.86 0.0 0 0 85.36 15.94
  Q 86.61 18.19 86.79 20.79
  A 0.67 0.66 -20.0 0 0 87.85 21.28
  C 89.90 19.81 88.54 15.13 87.61 13.21
  A 0.35 0.35 0.0 0 1 88.15 12.79
  Q 90.21 14.43 90.38 17.28
  Q 90.64 21.55 88.20 26.37
  A 1.45 1.39 -84.6 0 1 87.39 27.07
  L 86.64 27.34
  A 0.67 0.67 0.0 0 0 86.21 28.17
  L 87.08 31.14
  A 1.96 1.71 41.0 0 1 87.15 31.64
  Q 87.17 32.49 86.82 33.15
  A 0.63 0.63 0.0 0 0 87.28 34.07
  Q 88.56 34.28 89.08 34.98
  C 90.05 36.32 91.47 35.34 92.54 35.79
  A 0.85 0.84 12.9 0 1 93.05 36.59
  C 93.00 39.00 94.76 42.08 95.44 44.70
  Q 97.39 52.20 99.62 56.94
  Q 102.56 63.21 102.80 65.28
  A 1.79 1.78 -79.1 0 0 103.71 66.63
  C 105.96 67.89 104.98 70.72 105.83 72.87
  Q 106.55 74.70 106.76 77.46
  A 0.67 0.67 0.0 0 1 106.19 78.18
  L 101.78 78.81
  A 1.19 1.18 76.4 0 1 100.49 78.02
  L 97.98 70.77
  A 2.44 2.33 21.8 0 0 97.77 70.31
  L 91.76 60.48
  A 0.42 0.42 0.0 0 0 91.01 60.53
  L 89.77 63.36
  A 0.94 0.94 0.0 0 0 90.24 64.58
  Q 92.26 65.50 91.63 67.88
  A 0.94 0.94 0.0 0 0 91.99 68.89
  L 94.96 71.03
  A 1.10 1.09 -70.0 0 1 95.41 72.01
  Q 95.24 74.04 92.48 72.92
  Z
  M 65.52 31.47
  L 70.64 22.95
  A 0.10 0.10 0.0 0 0 70.61 22.81
  L 70.55 22.77
  A 4.92 1.45 -59.0 0 0 66.77 26.24
  L 66.62 26.50
  A 4.92 1.45 -59.0 0 0 65.33 31.47
  L 65.39 31.50
  A 0.10 0.10 0.0 0 0 65.52 31.47
  Z"
/>
</svg>
