<?xml version="1.0" encoding="UTF-8" standalone="no"?>
<!DOCTYPE svg PUBLIC "-//W3C//DTD SVG 1.1//EN" "http://www.w3.org/Graphics/SVG/1.1/DTD/svg11.dtd">
<svg xmlns="http://www.w3.org/2000/svg" version="1.1" viewBox="0.00 0.00 150.00 150.00">
<path fill="#ffffff" d="
  M 55.63 94.90
  A 0.28 0.28 0.0 0 0 55.13 94.64
  L 52.78 98.13
  A 1.90 1.85 -84.4 0 1 51.96 98.82
  Q 48.63 100.27 46.66 97.00
  A 2.13 2.12 -53.8 0 1 46.42 95.42
  C 47.03 92.92 48.74 90.75 49.65 88.34
  C 51.14 84.41 52.64 79.16 57.08 78.64
  A 0.43 0.43 0.0 0 0 57.25 77.84
  L 56.86 77.62
  A 1.30 1.30 0.0 0 1 56.23 76.28
  C 57.02 71.58 56.26 68.45 57.47 64.02
  Q 58.43 60.51 57.96 54.69
  A 4.46 4.42 -59.3 0 0 57.61 53.29
  C 54.80 46.66 51.61 41.70 45.99 34.57
  A 1.57 1.49 24.3 0 1 45.65 33.74
  C 44.96 26.01 48.33 17.88 44.90 10.45
  A 0.99 0.98 -24.5 0 1 45.40 9.14
  Q 46.58 8.61 47.20 8.14
  C 49.32 6.54 51.96 6.86 54.34 7.95
  A 1.04 1.03 10.7 0 1 54.94 8.82
  Q 55.18 12.34 54.56 13.83
  Q 53.12 17.28 52.86 18.31
  Q 52.06 21.54 53.22 30.15
  A 2.08 2.04 -72.6 0 0 53.83 31.35
  C 57.27 34.67 60.39 36.70 61.40 40.17
  A 0.46 0.45 -46.8 0 0 62.28 40.14
  L 63.68 33.89
  A 2.76 2.74 -61.4 0 0 62.94 31.36
  L 61.93 30.35
  A 0.96 0.96 0.0 0 1 62.68 28.72
  Q 67.78 29.13 67.76 24.64
  C 67.75 22.04 69.05 20.27 71.32 19.56
  A 0.46 0.46 0.0 0 1 71.85 20.22
  L 70.35 22.81
  A 0.64 0.64 0.0 0 0 71.22 23.69
  Q 73.09 22.62 75.39 24.25
  Q 75.92 24.62 76.27 24.45
  Q 76.82 24.17 76.68 23.60
  Q 76.60 23.27 75.65 20.92
  A 0.56 0.56 0.0 0 1 76.44 20.23
  Q 78.10 21.18 78.90 23.59
  A 1.28 1.26 -39.5 0 1 78.79 24.63
  Q 77.60 26.67 78.04 29.16
  A 0.63 0.62 82.9 0 0 78.70 29.68
  L 80.60 29.53
  A 1.76 1.76 0.0 0 1 82.11 32.40
  L 80.74 34.09
  A 1.78 1.78 0.0 0 0 80.58 36.10
  L 80.73 36.35
  A 0.67 0.67 0.0 0 0 81.89 36.36
  C 83.12 34.25 85.50 33.49 87.20 31.70
  Q 89.05 29.77 92.15 27.63
  A 1.98 1.98 0.0 0 0 92.96 26.43
  L 94.69 18.72
  A 3.17 3.14 -47.4 0 0 94.63 17.12
  Q 94.11 15.35 94.24 13.39
  A 5.03 4.84 40.1 0 0 94.06 11.69
  L 92.02 4.79
  A 0.53 0.53 0.0 0 1 92.55 4.12
  Q 95.13 4.22 96.05 1.87
  A 1.04 1.03 4.3 0 1 96.79 1.24
  Q 100.28 0.44 103.31 2.09
  A 0.81 0.78 -87.4 0 1 103.70 2.53
  L 104.97 5.85
  A 0.83 0.81 57.4 0 1 104.79 6.72
  L 102.58 8.94
  A 1.89 1.86 -15.3 0 0 102.07 9.82
  Q 101.36 12.52 101.36 15.28
  Q 101.35 22.17 101.07 27.84
  A 4.31 4.28 -31.2 0 1 100.66 29.48
  C 99.32 32.29 96.88 33.93 95.49 36.56
  Q 93.34 40.63 92.16 42.32
  A 4.99 4.94 67.3 0 0 91.32 44.40
  C 90.78 48.01 88.97 50.39 86.44 54.96
  A 4.09 4.07 -27.1 0 0 85.99 56.34
  L 84.66 66.10
  A 0.75 0.73 24.3 0 0 84.93 66.78
  Q 86.19 67.81 85.73 69.76
  A 0.83 0.82 -67.9 0 0 86.11 70.66
  Q 88.28 71.93 90.42 74.39
  C 94.09 78.60 98.06 82.11 101.98 86.48
  A 1.72 1.71 40.1 0 1 102.16 88.53
  L 102.09 88.66
  A 0.89 0.89 0.0 0 1 100.67 88.84
  L 91.70 79.49
  A 2.13 2.10 84.1 0 0 91.30 79.16
  Q 88.64 77.38 87.23 75.24
  A 0.67 0.65 -4.3 0 0 86.93 74.99
  Q 86.71 74.88 86.63 74.89
  A 0.49 0.45 56.6 0 0 86.49 75.76
  Q 89.56 77.82 90.93 81.60
  C 93.06 87.47 94.02 92.73 96.69 98.03
  A 0.73 0.73 0.0 0 1 95.88 99.08
  L 92.98 98.44
  A 2.05 2.04 -0.9 0 0 90.55 100.94
  L 91.77 105.72
  A 0.79 0.78 -71.2 0 0 91.91 106.01
  L 93.96 108.54
  A 1.89 1.88 -40.7 0 1 93.76 111.12
  Q 92.81 111.98 90.42 112.63
  A 0.70 0.70 0.0 0 0 89.94 113.55
  L 90.84 115.96
  A 2.39 2.37 37.6 0 1 90.98 117.01
  L 89.95 130.04
  A 1.48 1.39 -59.4 0 0 90.13 130.85
  L 94.19 137.89
  A 0.37 0.37 0.0 0 1 93.88 138.45
  Q 92.61 138.49 92.65 139.68
  A 0.52 0.51 -60.5 0 0 92.72 139.94
  L 95.19 144.22
  A 2.18 2.18 0.0 0 1 94.36 147.21
  C 88.61 150.42 84.41 145.00 83.80 139.91
  Q 83.31 135.80 83.15 135.27
  C 82.20 132.18 82.32 129.06 81.15 125.89
  Q 80.75 124.83 78.59 117.36
  A 1.41 1.40 52.0 0 1 78.72 116.26
  L 79.29 115.27
  A 0.52 0.51 -67.1 0 0 78.99 114.51
  C 74.71 113.30 73.94 109.52 72.63 104.99
  A 0.16 0.16 0.0 0 0 72.33 104.98
  Q 72.28 105.12 71.81 107.55
  Q 70.97 111.90 66.87 111.63
  A 0.50 0.49 -3.2 0 0 66.35 112.21
  C 66.80 114.71 65.89 116.56 66.35 118.97
  C 67.26 123.72 63.69 128.74 66.66 133.92
  A 2.23 2.22 60.7 0 1 65.80 136.98
  Q 61.07 139.58 54.97 140.90
  Q 52.27 141.49 50.04 139.72
  A 1.03 1.03 0.0 0 1 49.86 138.29
  Q 52.25 135.15 54.80 134.47
  A 0.81 0.80 86.3 0 0 55.39 133.79
  Q 55.82 130.33 57.72 126.36
  A 2.45 2.44 -33.6 0 0 57.96 125.18
  Q 57.82 122.53 55.59 121.10
  A 1.05 1.04 -72.1 0 1 55.11 120.15
  Q 55.25 118.09 54.66 116.09
  A 1.55 1.54 -38.3 0 1 54.81 114.87
  L 55.78 113.19
  A 0.95 0.95 0.0 0 0 55.12 111.78
  C 50.04 110.90 50.88 107.79 52.11 104.12
  Q 52.46 103.10 55.63 94.90
  Z"
/>
</svg>
