<?xml version="1.0" encoding="UTF-8" standalone="no"?>
<!DOCTYPE svg PUBLIC "-//W3C//DTD SVG 1.1//EN" "http://www.w3.org/Graphics/SVG/1.1/DTD/svg11.dtd">
<svg xmlns="http://www.w3.org/2000/svg" version="1.1" viewBox="0.00 0.00 150.00 150.00">
<path fill="#ffffff" d="
  M 104.76 90.26
  C 107.12 92.89 109.09 97.96 105.35 99.84
  Q 102.93 101.06 102.92 101.07
  A 0.74 0.73 53.3 0 0 102.79 101.98
  Q 105.03 105.78 105.25 111.25
  Q 105.31 112.71 105.43 123.51
  A 3.26 3.26 0.0 0 0 107.11 126.33
  Q 111.63 128.85 110.73 133.66
  A 0.78 0.74 72.5 0 1 110.56 134.01
  L 109.67 134.94
  A 1.97 1.97 0.0 0 0 110.07 137.97
  Q 114.44 140.66 114.61 145.48
  A 0.61 0.61 0.0 0 1 114.12 146.10
  C 105.31 147.85 102.20 145.58 96.78 138.96
  A 2.04 2.04 0.0 0 1 96.39 137.16
  Q 97.81 131.69 94.94 126.34
  C 94.01 124.60 93.88 123.31 93.69 121.89
  A 6.07 5.78 -61.1 0 0 93.30 120.41
  L 88.70 109.00
  A 0.77 0.73 -53.7 0 1 88.65 108.60
  L 88.93 106.61
  A 0.45 0.44 -1.0 0 0 88.41 106.11
  Q 86.57 106.46 75.52 105.61
  Q 73.54 105.46 72.91 104.90
  A 1.02 1.01 59.6 0 0 72.04 104.67
  Q 69.78 105.15 67.71 103.96
  A 0.93 0.92 32.3 0 0 66.50 104.23
  L 62.47 109.91
  A 3.27 3.15 88.9 0 1 61.97 110.45
  Q 61.45 110.88 59.98 111.13
  C 58.60 111.37 54.79 112.97 56.31 115.01
  C 57.33 116.37 57.83 117.18 57.55 118.92
  Q 56.83 123.28 59.97 127.69
  Q 62.08 130.66 58.57 132.61
  Q 53.16 135.62 44.63 138.30
  Q 42.36 139.01 40.40 137.47
  A 2.38 1.91 31.6 0 1 39.53 135.03
  Q 41.17 130.81 45.65 129.57
  A 0.08 0.08 0.0 0 0 45.64 129.42
  L 44.03 129.29
  A 0.65 0.64 83.7 0 1 43.48 128.84
  Q 43.05 127.42 41.50 126.09
  A 4.61 3.48 33.3 0 1 39.90 121.61
  Q 40.38 120.37 40.63 117.63
  Q 40.71 116.84 41.18 116.55
  Q 41.56 116.32 41.65 116.01
  A 0.68 0.68 0.0 0 0 41.25 115.18
  Q 38.46 114.06 35.98 111.01
  C 34.27 108.90 35.21 107.04 37.02 105.18
  Q 39.73 102.41 44.42 96.27
  A 1.02 1.02 0.0 0 0 43.84 94.66
  L 36.25 92.89
  A 0.73 0.73 0.0 0 1 35.85 91.72
  Q 37.67 89.47 36.25 87.49
  A 0.60 0.59 -33.7 0 1 36.43 86.63
  L 41.85 83.39
  A 2.13 1.82 -79.1 0 0 42.29 83.04
  C 45.95 79.18 49.25 75.47 54.77 74.91
  A 0.84 0.84 0.0 0 0 55.32 73.52
  Q 53.74 71.73 54.12 69.45
  A 1.79 1.79 0.0 0 0 53.88 68.22
  Q 52.59 66.18 53.76 63.86
  A 0.87 0.87 0.0 0 0 53.78 63.11
  Q 53.60 62.69 53.16 62.53
  A 0.95 0.90 -69.2 0 1 52.65 61.32
  Q 52.68 61.24 54.03 58.76
  A 1.80 1.70 -30.4 0 0 54.22 58.11
  L 54.90 50.11
  A 1.56 1.55 32.7 0 0 54.70 49.21
  L 51.32 43.35
  A 1.09 1.09 0.0 0 0 49.73 43.02
  L 47.06 44.98
  A 3.79 3.78 -68.5 0 1 45.48 45.67
  Q 41.18 46.48 38.05 48.28
  A 0.65 0.64 43.7 0 1 37.44 48.29
  L 20.23 39.45
  A 4.18 3.92 -24.4 0 0 19.08 39.06
  Q 11.56 37.62 6.29 33.74
  Q 3.71 31.84 5.76 28.84
  A 1.88 1.86 -66.0 0 1 7.74 28.07
  L 13.56 29.42
  A 0.97 0.96 -7.3 0 0 14.64 28.03
  Q 14.29 27.38 13.27 25.36
  A 1.17 1.08 66.6 0 1 13.83 23.77
  Q 14.69 23.46 15.51 24.10
  C 18.24 26.24 20.30 27.34 21.78 30.33
  A 0.83 0.82 -14.5 0 0 22.57 30.79
  L 23.80 30.72
  A 1.89 1.85 -32.6 0 1 24.76 30.92
  L 30.26 33.75
  A 1.76 1.68 -26.2 0 0 30.86 33.94
  L 37.61 34.78
  A 1.45 1.41 40.0 0 0 38.14 34.74
  Q 45.08 32.98 50.37 28.99
  A 8.60 8.50 -76.3 0 1 51.57 28.25
  Q 55.59 26.26 56.66 25.63
  C 58.39 24.60 59.89 24.82 61.36 25.70
  A 1.18 1.17 32.6 0 0 62.92 25.36
  C 64.28 23.39 66.51 20.72 65.15 18.10
  A 1.01 1.00 63.2 0 1 65.59 16.74
  C 68.46 15.30 67.76 14.00 68.67 11.64
  C 71.18 5.15 72.54 5.51 79.44 4.96
  A 2.14 2.07 -61.9 0 0 80.34 4.67
  L 82.10 3.66
  A 0.51 0.51 0.0 0 1 82.79 4.38
  Q 81.89 5.79 83.74 6.85
  Q 87.29 8.89 87.10 12.30
  A 0.51 0.51 0.0 0 0 88.07 12.54
  C 89.97 8.38 87.05 6.23 85.18 3.20
  A 0.30 0.30 0.0 0 1 85.55 2.77
  C 89.48 4.40 92.13 7.92 91.52 12.34
  Q 91.22 14.50 91.85 16.21
  A 2.82 2.81 -37.4 0 1 91.50 18.81
  L 89.62 21.45
  A 1.90 1.89 61.9 0 0 89.27 22.61
  L 89.34 25.05
  A 1.14 1.12 26.0 0 0 89.57 25.70
  C 91.56 28.25 93.63 29.61 96.54 31.35
  C 98.82 32.71 100.97 35.45 103.04 36.54
  Q 108.96 39.69 109.55 40.64
  A 0.93 0.92 -20.2 0 0 110.47 41.06
  C 111.46 40.91 112.76 40.08 114.24 40.17
  Q 118.72 40.44 121.13 39.83
  A 1.22 1.22 0.0 0 1 122.14 40.02
  L 123.40 40.91
  A 0.87 0.87 0.0 0 0 124.69 40.59
  Q 126.32 37.33 128.10 39.13
  A 0.88 0.87 -46.1 0 0 129.36 39.10
  Q 132.90 35.30 137.43 34.10
  A 0.84 0.84 0.0 0 1 138.39 35.29
  L 136.69 38.59
  A 0.74 0.74 0.0 0 0 137.46 39.66
  L 141.48 39.06
  A 1.12 1.10 66.6 0 1 142.51 39.48
  L 144.93 42.62
  A 2.25 2.24 -42.5 0 1 144.80 45.52
  Q 144.16 46.21 142.33 47.03
  A 1.93 1.92 38.2 0 1 141.23 47.16
  Q 138.81 46.69 137.11 47.01
  Q 134.32 47.53 133.02 47.34
  Q 132.03 47.20 124.89 47.89
  A 1.16 0.88 26.3 0 0 124.68 47.93
  L 111.88 52.43
  A 3.98 3.93 -44.2 0 1 109.18 52.41
  Q 108.91 52.31 100.70 48.81
  Q 97.52 47.45 95.31 45.37
  A 0.92 0.92 0.0 0 0 93.97 45.46
  C 90.06 50.17 89.86 54.81 89.08 60.77
  Q 89.01 61.26 87.58 63.63
  A 0.90 0.89 -47.5 0 0 87.62 64.62
  Q 89.48 67.13 89.89 69.65
  A 2.03 2.02 8.4 0 0 91.00 71.14
  Q 92.35 71.79 93.55 73.18
  A 1.94 1.92 -17.4 0 0 94.85 73.85
  L 107.91 74.96
  A 0.66 0.66 0.0 0 1 108.51 75.50
  Q 108.99 78.11 110.49 81.77
  Q 111.04 83.12 110.59 89.38
  A 0.65 0.64 -10.4 0 1 110.20 89.94
  Q 108.69 90.59 105.10 89.69
  A 0.35 0.35 0.0 0 0 104.76 90.26
  Z
  M 106.6917 130.5701
  A 0.96 0.60 -89.3 0 0 106.0800 131.5227
  A 0.96 0.60 -89.3 0 0 106.6683 132.4899
  A 0.96 0.60 -89.3 0 0 107.2800 131.5373
  A 0.96 0.60 -89.3 0 0 106.6917 130.5701
  Z"
/>
</svg>
