<?xml version="1.0" encoding="UTF-8" standalone="no"?>
<!DOCTYPE svg PUBLIC "-//W3C//DTD SVG 1.1//EN" "http://www.w3.org/Graphics/SVG/1.1/DTD/svg11.dtd">
<svg xmlns="http://www.w3.org/2000/svg" version="1.1" viewBox="0.00 0.00 150.00 150.00">
<path fill="#ffffff" d="
  M 94.71 44.22
  L 85.07 52.24
  A 1.94 1.14 -3.9 0 1 84.85 52.39
  L 77.88 56.00
  A 3.27 3.00 -62.7 0 1 77.09 56.29
  C 73.27 57.10 71.56 59.56 68.87 62.74
  A 2.15 2.15 0.0 0 1 67.72 63.44
  L 62.82 64.53
  A 4.21 4.06 20.3 0 0 61.34 65.18
  Q 48.10 74.46 42.15 78.87
  C 36.87 82.78 31.28 86.13 26.61 89.32
  C 22.75 91.95 15.67 95.77 11.14 95.76
  A 0.47 0.47 0.0 0 1 10.87 94.90
  L 58.96 61.77
  A 4.41 4.38 -6.7 0 0 60.55 59.77
  Q 60.70 59.41 63.01 55.61
  Q 64.06 53.89 66.58 52.54
  C 70.60 50.40 74.28 46.72 78.41 43.81
  Q 88.55 36.71 97.36 27.69
  A 1.06 1.05 -77.5 0 1 97.73 27.45
  L 99.80 26.69
  A 0.70 0.70 0.0 0 0 100.18 26.34
  L 104.35 17.35
  A 1.66 1.64 36.9 0 0 104.09 15.57
  Q 103.60 15.01 103.50 14.43
  A 0.82 0.82 0.0 0 1 104.00 13.52
  Q 105.95 12.72 106.95 10.31
  C 107.94 7.93 109.49 7.62 111.67 6.61
  A 1.86 1.77 -84.1 0 0 112.42 5.97
  Q 113.89 3.77 116.21 2.70
  A 0.36 0.36 0.0 0 1 116.65 3.23
  Q 115.52 4.85 115.47 6.15
  A 0.72 0.72 0.0 0 0 116.17 6.89
  Q 118.55 6.96 120.12 9.73
  A 0.72 0.72 0.0 0 0 121.46 9.38
  C 121.48 7.26 119.39 4.89 118.54 3.32
  A 0.34 0.34 0.0 0 1 118.97 2.85
  Q 121.30 3.87 122.95 6.46
  Q 125.55 10.52 122.01 14.05
  A 0.24 0.24 0.0 0 0 122.20 14.46
  C 126.79 14.24 126.16 17.64 124.14 19.98
  A 2.44 2.44 0.0 0 0 123.70 22.42
  L 125.62 27.66
  A 0.89 0.89 0.0 0 1 124.79 28.86
  L 119.87 28.86
  A 1.02 1.02 0.0 0 0 119.18 30.63
  Q 121.70 32.97 123.33 34.68
  Q 125.10 36.53 123.44 38.34
  A 0.36 0.35 44.4 0 0 123.45 38.84
  L 123.46 38.85
  A 0.45 0.45 0.0 0 0 124.07 38.89
  Q 125.12 38.04 125.98 38.27
  A 0.82 0.81 -79.8 0 1 126.57 39.13
  L 125.20 54.12
  A 0.41 0.41 0.0 0 0 125.75 54.54
  L 127.14 54.04
  A 1.07 1.07 0.0 0 1 128.48 55.49
  L 127.61 57.36
  A 0.92 0.90 49.2 0 0 127.57 58.00
  Q 129.00 62.50 128.32 65.07
  Q 127.78 67.11 127.84 67.32
  C 128.27 68.99 128.76 69.91 127.04 71.19
  A 0.58 0.58 0.0 0 0 127.15 72.18
  L 128.76 72.92
  A 1.14 1.14 0.0 0 1 129.38 73.70
  L 134.34 95.83
  A 0.17 0.17 0.0 0 1 134.09 96.01
  Q 131.73 94.71 129.87 95.93
  A 1.07 1.02 -51.0 0 1 128.93 96.05
  Q 128.05 95.74 127.52 95.80
  A 0.70 0.69 -2.7 0 0 126.89 96.49
  C 126.89 101.10 126.31 107.51 122.82 110.43
  A 1.92 1.86 16.6 0 1 122.09 110.81
  L 119.39 111.54
  A 1.37 1.37 0.0 0 0 118.57 113.55
  L 120.80 117.42
  A 0.96 0.93 -61.1 0 1 120.93 117.90
  Q 121.04 121.01 118.34 121.70
  A 1.10 0.90 14.5 0 1 117.17 120.10
  Q 118.57 119.09 117.81 117.12
  A 0.55 0.54 45.9 0 0 116.80 117.10
  Q 116.42 118.00 116.63 119.98
  A 1.18 1.15 -26.1 0 1 116.29 120.93
  Q 114.07 123.18 112.99 126.86
  A 3.64 3.62 -42.1 0 0 112.90 128.56
  Q 113.18 130.12 112.85 132.04
  A 0.92 0.92 0.0 0 0 113.82 133.11
  Q 118.45 132.79 120.97 136.60
  A 1.68 1.68 0.0 0 1 119.83 139.19
  Q 116.90 139.63 113.23 138.85
  A 0.63 0.63 0.0 0 0 112.67 139.94
  Q 115.18 142.18 115.17 146.08
  A 0.76 0.76 0.0 0 1 114.45 146.84
  C 109.37 147.11 102.36 148.03 101.39 141.27
  Q 101.10 139.20 99.98 135.80
  A 1.57 1.55 46.4 0 1 100.00 134.77
  Q 103.74 124.91 101.94 114.37
  Q 101.75 113.23 102.06 112.67
  Q 102.55 111.77 102.09 110.96
  A 0.77 0.71 1.4 0 0 101.81 110.69
  L 99.17 109.30
  A 0.74 0.74 0.0 0 1 98.80 108.43
  C 99.14 107.31 99.78 106.05 99.81 105.24
  Q 100.02 99.21 100.68 96.06
  A 0.46 0.45 6.1 0 0 100.23 95.51
  L 92.42 95.51
  A 0.61 0.61 0.0 0 1 91.81 94.86
  Q 92.02 91.01 92.93 87.58
  A 7.51 7.09 55.2 0 0 93.18 85.92
  C 93.40 79.16 93.67 73.32 98.66 69.28
  A 1.95 1.95 0.0 0 0 99.09 66.76
  C 97.76 64.58 96.05 61.28 99.18 59.70
  A 0.57 0.57 0.0 0 0 99.42 58.90
  L 97.20 55.05
  A 1.65 1.58 25.4 0 1 97.04 54.63
  Q 94.94 45.01 95.05 44.46
  A 0.22 0.21 -9.4 0 0 94.71 44.22
  Z"
/>
</svg>
