<?xml version="1.0" encoding="UTF-8" standalone="no"?>
<!DOCTYPE svg PUBLIC "-//W3C//DTD SVG 1.1//EN" "http://www.w3.org/Graphics/SVG/1.1/DTD/svg11.dtd">
<svg xmlns="http://www.w3.org/2000/svg" version="1.1" viewBox="0.00 0.00 150.00 150.00">
<path fill="#ffffff" d="
  M 47.83 128.50
  L 46.05 128.69
  A 0.99 0.98 -87.8 0 1 44.98 127.53
  Q 46.01 122.06 49.73 120.16
  A 0.56 0.56 0.0 0 0 50.04 119.60
  L 49.26 112.15
  A 5.10 5.01 29.1 0 0 48.77 110.49
  C 48.11 109.17 46.51 108.50 45.93 106.58
  Q 44.35 101.32 48.02 98.20
  A 1.42 1.42 0.0 0 0 47.88 95.94
  Q 45.90 94.61 43.95 92.82
  C 42.39 91.38 42.07 90.09 42.69 87.91
  Q 44.97 79.86 50.47 73.25
  A 0.53 0.53 0.0 0 0 50.08 72.38
  Q 44.75 72.23 44.38 72.24
  C 41.75 72.34 40.47 71.69 38.33 70.33
  A 0.37 0.37 0.0 0 1 38.30 69.73
  C 43.02 66.03 46.86 62.24 51.92 57.91
  C 53.58 56.49 55.48 55.70 56.63 53.91
  Q 59.54 49.40 59.31 43.67
  A 2.28 2.22 26.8 0 0 58.90 42.48
  L 56.35 38.95
  A 1.26 1.26 0.0 0 0 54.39 38.85
  L 47.28 46.84
  A 2.74 2.69 -12.8 0 0 46.79 47.60
  Q 43.96 54.08 37.71 56.21
  C 36.03 56.79 35.04 55.64 33.96 54.60
  Q 29.69 50.51 28.72 48.53
  Q 27.12 45.30 25.21 41.75
  A 4.70 4.60 -68.4 0 1 24.84 40.87
  Q 22.34 32.46 22.99 23.50
  Q 23.17 21.07 24.61 18.98
  A 1.58 1.55 9.3 0 1 25.52 18.34
  Q 26.69 18.02 28.40 18.38
  A 1.06 1.05 84.9 0 1 29.14 19.01
  C 29.46 19.84 29.66 21.19 30.31 22.11
  Q 31.88 24.32 31.88 26.67
  A 0.50 0.50 0.0 0 0 32.63 27.10
  L 34.77 25.87
  A 1.60 1.60 0.0 0 1 37.15 27.02
  C 37.49 29.30 37.41 30.80 36.17 32.80
  Q 34.39 35.67 35.96 39.78
  A 0.32 0.32 0.0 0 0 36.49 39.89
  Q 40.96 35.46 42.49 30.21
  A 2.79 2.68 77.5 0 1 43.21 29.03
  L 45.90 26.45
  A 4.18 4.15 74.4 0 0 47.09 24.32
  Q 47.47 22.55 48.59 21.30
  A 2.64 2.63 69.0 0 0 49.24 19.83
  L 49.56 16.63
  A 1.36 1.33 67.2 0 1 49.83 15.95
  L 50.77 14.75
  A 0.37 0.37 0.0 0 0 50.80 14.37
  Q 50.60 13.97 50.28 13.92
  A 0.49 0.49 0.0 0 0 49.75 14.21
  Q 48.70 16.69 46.01 15.01
  A 1.27 1.26 -45.6 0 1 45.99 12.87
  L 51.01 9.61
  A 1.54 1.51 -7.3 0 0 51.60 8.86
  L 53.05 5.06
  A 1.39 1.37 -1.2 0 1 53.84 4.25
  L 59.45 2.00
  A 0.75 0.74 9.7 0 1 60.29 3.18
  Q 58.40 5.33 57.83 6.93
  A 0.51 0.51 0.0 0 0 58.44 7.60
  Q 64.30 6.06 70.06 6.91
  A 3.34 3.28 -21.3 0 1 71.60 7.57
  L 78.31 12.75
  A 1.01 1.01 0.0 0 0 79.23 12.91
  L 85.48 10.94
  A 0.90 0.89 -30.9 0 1 86.38 11.16
  L 88.66 13.49
  A 3.20 3.19 -11.4 0 0 89.78 14.23
  C 90.85 14.63 92.35 14.36 93.49 15.07
  Q 94.80 15.88 96.81 16.43
  A 1.18 1.17 -6.7 0 1 97.53 16.99
  Q 99.39 20.34 99.88 23.21
  C 100.23 25.33 100.90 25.91 102.07 27.15
  C 103.95 29.14 104.84 30.95 106.28 34.98
  C 107.34 37.95 111.09 40.78 108.81 45.43
  Q 107.50 48.10 107.31 51.13
  A 0.91 0.91 0.0 0 0 107.78 51.99
  L 116.63 56.81
  A 1.45 1.44 35.1 0 1 117.02 59.04
  L 116.83 59.26
  A 2.25 2.24 35.4 0 1 114.01 59.73
  L 107.45 55.94
  A 1.59 1.59 0.0 0 0 105.56 56.17
  Q 104.38 57.29 103.92 58.55
  A 1.34 1.33 -51.2 0 0 104.04 59.69
  Q 106.16 63.17 109.12 69.44
  Q 111.75 75.00 116.47 78.47
  A 0.60 0.60 0.0 0 1 116.29 79.52
  L 113.28 80.47
  A 1.55 1.53 57.4 0 1 111.77 80.13
  Q 109.70 78.22 105.94 78.59
  A 0.57 0.56 -9.6 0 0 105.44 79.29
  Q 107.31 86.94 112.11 92.07
  C 115.44 95.63 111.43 97.17 108.53 98.76
  A 1.33 1.33 0.0 0 0 108.13 100.76
  Q 109.72 102.75 110.02 105.02
  Q 111.01 112.22 111.26 122.41
  A 2.95 2.94 -72.3 0 0 112.44 124.71
  C 113.78 125.70 114.95 126.72 115.59 128.45
  Q 115.91 129.30 116.42 129.87
  Q 118.46 132.16 116.49 135.15
  A 0.78 0.78 0.0 0 0 116.58 136.12
  C 119.43 139.17 121.58 140.31 121.61 144.69
  A 1.72 1.72 0.0 0 1 120.51 146.31
  Q 117.60 147.43 114.55 147.05
  C 109.99 146.47 105.46 141.31 104.04 137.41
  A 1.33 1.09 39.2 0 1 103.97 137.07
  L 103.69 133.27
  A 7.36 7.27 -57.2 0 0 103.28 131.31
  C 101.73 126.88 100.38 122.51 98.42 118.37
  Q 95.85 112.97 93.39 107.12
  A 1.17 1.17 0.0 0 1 93.33 106.42
  L 93.92 103.77
  A 0.71 0.71 0.0 0 0 92.98 102.95
  Q 90.84 103.71 89.42 102.09
  Q 83.95 95.87 82.69 88.82
  A 0.97 0.96 85.9 0 0 81.78 88.03
  L 76.48 87.77
  A 0.98 0.96 23.5 0 0 75.75 88.05
  Q 72.78 91.15 72.28 92.04
  C 70.02 96.12 68.95 100.17 63.56 99.32
  A 0.86 0.86 0.0 0 0 62.57 100.12
  L 61.74 117.21
  A 1.07 1.03 66.3 0 1 61.53 117.78
  L 60.59 118.99
  A 1.94 1.93 64.0 0 0 60.19 120.17
  L 60.18 126.32
  A 3.55 3.45 32.3 0 0 60.56 127.90
  C 62.09 130.83 63.64 135.05 59.37 136.44
  Q 48.25 140.06 44.77 140.70
  Q 41.29 141.33 38.73 139.53
  A 2.18 2.18 0.0 0 1 38.24 136.45
  Q 40.69 133.15 44.94 131.79
  A 2.39 2.33 11.2 0 0 46.00 131.10
  L 48.01 128.85
  A 0.21 0.21 0.0 0 0 47.83 128.50
  Z
  M 72.8141 11.1549
  A 1.12 0.41 -5.9 0 0 71.6579 10.8622
  A 1.12 0.41 -5.9 0 0 70.5859 11.3851
  A 1.12 0.41 -5.9 0 0 71.7421 11.6778
  A 1.12 0.41 -5.9 0 0 72.8141 11.1549
  Z
  M 96.3895 43.3681
  A 0.99 0.56 -125.9 0 0 96.5164 44.4984
  A 0.99 0.56 -125.9 0 0 97.5505 44.9719
  A 0.99 0.56 -125.9 0 0 97.4236 43.8416
  A 0.99 0.56 -125.9 0 0 96.3895 43.3681
  Z
  M 49.37 125.81
  A 0.64 0.63 -62.9 0 0 50.57 125.42
  Q 50.27 124.03 49.73 123.77
  A 0.46 0.46 0.0 0 0 49.08 124.26
  Q 49.31 125.68 49.37 125.81
  Z
  M 112.6149 128.8207
  A 1.21 0.35 -171.0 0 0 113.7552 129.3557
  A 1.21 0.35 -171.0 0 0 115.0051 129.1993
  A 1.21 0.35 -171.0 0 0 113.8648 128.6643
  A 1.21 0.35 -171.0 0 0 112.6149 128.8207
  Z"
/>
</svg>
