<?xml version="1.0" encoding="UTF-8" standalone="no"?>
<!DOCTYPE svg PUBLIC "-//W3C//DTD SVG 1.1//EN" "http://www.w3.org/Graphics/SVG/1.1/DTD/svg11.dtd">
<svg xmlns="http://www.w3.org/2000/svg" version="1.1" viewBox="0.00 0.00 150.00 150.00">
<path fill="#ffffff" d="
  M 84.53 77.53
  A 0.53 0.52 -32.3 0 0 84.30 78.54
  L 86.25 79.35
  A 1.04 0.98 87.7 0 1 86.79 79.88
  C 87.56 81.66 88.26 83.53 89.31 84.61
  Q 90.79 86.12 91.05 88.08
  A 2.45 2.45 0.0 0 0 91.58 89.31
  L 96.45 95.40
  A 1.10 1.10 0.0 0 1 96.22 96.98
  C 93.67 98.75 89.39 99.16 88.29 95.21
  Q 87.68 93.05 86.93 90.91
  A 0.38 0.38 0.0 0 0 86.24 90.85
  L 85.88 91.47
  A 1.71 1.67 -38.0 0 0 85.71 92.75
  Q 87.53 99.70 89.17 103.65
  C 90.62 107.14 91.08 110.77 86.44 111.40
  A 0.75 0.74 -3.7 0 0 85.80 112.12
  Q 85.77 113.58 86.70 115.02
  A 0.65 0.63 35.1 0 1 86.79 115.49
  L 84.50 128.80
  A 1.61 1.59 31.4 0 0 84.81 130.05
  Q 88.21 134.37 86.67 138.07
  A 1.86 1.85 -49.0 0 0 86.78 139.71
  Q 89.05 143.62 88.52 145.78
  A 2.39 2.22 3.8 0 1 86.42 147.48
  C 76.18 148.29 77.32 135.06 77.09 128.85
  C 76.91 124.07 74.87 117.79 75.28 112.56
  A 0.60 0.60 0.0 0 0 74.73 111.91
  L 73.81 111.84
  A 0.82 0.80 -14.0 0 1 73.23 111.50
  Q 70.10 107.12 70.36 101.60
  Q 70.36 101.55 70.17 100.99
  Q 70.05 100.64 69.70 100.56
  A 1.04 0.82 14.5 0 0 68.50 101.09
  Q 66.88 107.20 66.78 107.49
  A 3.02 2.94 75.2 0 1 66.08 108.73
  L 63.83 111.14
  A 2.71 2.67 -12.6 0 0 63.29 111.98
  C 61.55 116.37 60.48 118.43 59.98 122.63
  Q 59.52 126.50 57.53 131.75
  A 4.24 4.23 -75.9 0 1 52.78 134.59
  L 52.48 134.53
  A 3.00 2.99 -73.7 0 1 50.25 130.44
  L 53.35 122.92
  A 0.19 0.19 0.0 0 0 53.10 122.67
  Q 53.00 122.72 52.51 122.68
  A 0.80 0.80 0.0 0 1 51.78 121.84
  Q 51.85 120.44 53.51 119.59
  A 0.99 0.99 0.0 0 0 54.04 118.58
  L 53.11 111.58
  A 1.48 1.39 -66.0 0 0 52.91 111.01
  L 49.87 106.11
  A 1.39 1.39 0.0 0 1 49.85 104.68
  L 52.69 99.76
  A 1.64 1.64 0.0 0 0 51.89 97.42
  L 50.35 96.78
  A 0.46 0.34 71.6 0 1 50.22 96.69
  Q 49.29 95.74 50.25 94.07
  A 0.22 0.22 0.0 0 0 50.15 93.77
  Q 47.87 92.79 48.48 91.55
  Q 51.87 84.63 53.23 80.76
  Q 54.19 78.02 58.70 75.01
  A 1.45 1.45 0.0 0 0 59.34 73.61
  L 58.85 69.93
  A 0.85 0.85 0.0 0 1 58.85 69.67
  L 60.56 58.53
  A 8.93 8.90 -47.9 0 0 60.38 54.89
  C 59.72 52.30 57.75 47.71 57.22 43.90
  C 56.90 41.59 55.13 40.55 55.25 38.30
  C 55.41 35.44 52.84 34.57 52.29 31.98
  Q 51.87 30.04 50.09 29.22
  A 1.03 1.02 -69.4 0 1 49.54 28.00
  C 49.87 26.90 50.47 25.84 50.80 24.41
  Q 53.88 11.21 54.85 8.38
  Q 55.85 5.47 58.54 2.02
  A 1.32 1.32 0.0 0 1 60.61 2.01
  L 64.56 6.95
  A 1.27 1.27 0.0 0 1 64.36 8.73
  L 60.24 12.02
  A 2.12 2.10 73.4 0 0 59.46 13.48
  L 58.55 24.38
  A 1.42 1.33 57.2 0 1 58.49 24.71
  L 58.23 25.60
  A 1.04 1.04 0.0 0 0 58.51 26.73
  Q 63.13 30.87 65.81 37.63
  A 0.61 0.61 0.0 0 0 66.90 37.71
  L 69.87 32.57
  A 0.62 0.61 -49.6 0 0 69.82 31.89
  L 68.46 30.20
  A 0.94 0.93 -23.1 0 1 69.07 28.69
  Q 72.65 28.20 74.76 25.10
  C 76.10 23.13 75.21 21.27 78.16 19.78
  A 0.66 0.66 0.0 0 1 78.90 20.86
  Q 77.91 21.76 77.91 22.81
  A 0.76 0.76 0.0 0 0 78.49 23.55
  Q 80.64 24.04 81.96 25.24
  A 0.97 0.97 0.0 0 0 83.58 24.48
  Q 83.53 23.08 82.46 21.22
  A 0.51 0.50 -88.6 0 1 83.17 20.54
  Q 85.70 22.19 85.88 24.86
  A 2.28 2.22 -33.9 0 1 85.63 26.04
  L 83.64 29.94
  A 0.53 0.53 0.0 0 0 84.30 30.68
  Q 85.02 30.42 85.65 30.47
  A 2.12 1.99 15.7 0 1 87.44 33.44
  Q 87.25 33.77 86.10 35.46
  A 1.59 1.56 61.8 0 0 85.82 36.42
  C 85.87 38.25 89.24 41.98 86.02 43.33
  A 0.96 0.95 -59.2 0 0 86.48 45.16
  Q 87.60 45.05 88.91 45.40
  A 0.93 0.92 6.5 0 1 89.59 46.25
  Q 90.06 55.61 93.65 65.99
  C 94.50 68.46 94.66 72.12 96.00 74.28
  A 1.57 1.54 32.3 0 1 96.23 75.25
  L 95.68 81.83
  A 0.94 0.94 0.0 0 1 94.58 82.68
  Q 92.68 82.34 91.33 82.54
  A 0.89 0.87 -19.5 0 1 90.44 82.13
  Q 89.26 80.21 90.12 78.94
  A 1.58 1.58 0.0 0 0 90.27 77.46
  L 86.22 67.41
  A 0.79 0.79 0.0 0 0 84.89 67.18
  Q 84.27 67.87 84.45 68.50
  Q 84.96 70.31 84.68 72.83
  A 0.79 0.75 33.7 0 0 84.79 73.32
  L 86.26 75.87
  A 0.91 0.90 -39.9 0 1 86.16 76.91
  Q 85.58 77.59 84.53 77.53
  Z
  M 85.1571 84.5591
  A 2.17 0.51 -103.4 0 0 85.1639 86.7882
  A 2.17 0.51 -103.4 0 0 86.1629 88.7809
  A 2.17 0.51 -103.4 0 0 86.1561 86.5518
  A 2.17 0.51 -103.4 0 0 85.1571 84.5591
  Z"
/>
</svg>
