<?xml version="1.0" encoding="UTF-8" standalone="no"?>
<!DOCTYPE svg PUBLIC "-//W3C//DTD SVG 1.1//EN" "http://www.w3.org/Graphics/SVG/1.1/DTD/svg11.dtd">
<svg xmlns="http://www.w3.org/2000/svg" version="1.1" viewBox="0.00 0.00 150.00 150.00">
<path fill="#ffffff" d="
  M 72.09 23.43
  L 70.88 21.33
  A 0.43 0.43 0.0 0 1 71.29 20.69
  Q 74.43 20.95 76.22 17.41
  A 1.65 1.65 0.0 0 0 76.36 16.30
  L 76.08 15.00
  A 0.42 0.42 0.0 0 1 76.68 14.54
  Q 79.16 15.79 82.13 15.44
  A 2.97 2.97 0.0 0 1 84.84 16.61
  Q 86.49 18.81 87.55 22.00
  A 1.68 1.66 4.1 0 0 88.41 22.98
  Q 89.61 23.56 89.91 24.72
  A 1.35 1.32 8.1 0 0 90.53 25.53
  L 92.75 26.81
  A 1.65 1.64 21.5 0 1 93.53 28.60
  L 92.42 33.50
  A 1.00 1.00 0.0 0 0 93.40 34.72
  L 96.21 34.72
  A 0.19 0.19 0.0 0 1 96.38 35.01
  L 96.01 35.65
  A 1.17 1.15 -43.5 0 0 95.97 36.74
  Q 96.91 38.63 97.42 40.61
  Q 100.30 52.00 102.42 56.41
  Q 106.63 65.13 107.07 66.65
  A 1.73 1.61 -75.8 0 0 107.46 67.36
  L 108.66 68.67
  A 0.95 0.90 17.0 0 1 108.88 69.06
  C 109.57 71.29 112.06 75.14 112.23 78.47
  A 1.03 1.02 -1.6 0 1 111.20 79.55
  L 106.90 79.55
  A 1.11 1.10 -0.0 0 1 105.79 78.45
  L 105.79 76.74
  A 1.27 1.26 18.2 0 0 105.27 75.72
  Q 103.15 74.17 102.81 73.72
  Q 99.47 69.36 96.64 64.86
  Q 95.56 63.16 94.13 61.79
  A 2.15 2.14 -73.8 0 1 93.51 60.65
  L 92.86 57.26
  A 0.98 0.98 0.0 0 0 91.90 56.46
  L 91.55 56.46
  A 0.29 0.28 79.3 0 0 91.29 56.85
  Q 92.40 59.73 91.49 61.54
  A 1.02 1.01 -50.1 0 0 91.58 62.60
  L 94.01 65.86
  A 0.81 0.77 28.5 0 1 94.16 66.32
  L 94.16 67.99
  A 2.91 2.79 34.3 0 0 94.40 69.13
  C 97.50 76.35 98.49 82.58 100.12 89.12
  A 0.50 0.31 31.7 0 0 100.21 89.30
  L 101.79 91.31
  A 1.22 1.22 0.0 0 1 100.19 93.11
  Q 97.15 91.24 94.31 91.53
  A 0.47 0.47 0.0 0 0 93.90 92.11
  Q 94.56 94.82 94.69 95.07
  C 95.96 97.74 97.94 100.95 96.63 103.83
  Q 94.72 108.04 91.04 108.86
  A 0.80 0.80 0.0 0 0 90.42 109.64
  L 90.42 112.94
  A 1.99 1.97 -61.3 0 0 90.72 113.99
  Q 92.24 116.53 92.56 118.84
  A 1.56 1.55 85.9 0 1 91.04 120.60
  L 90.85 120.60
  A 1.68 1.68 0.0 0 1 89.12 118.86
  L 89.19 116.77
  A 0.23 0.22 68.8 0 0 88.81 116.60
  C 87.75 117.67 88.28 118.87 89.02 120.10
  A 0.47 0.46 68.0 0 1 88.73 120.80
  Q 86.28 121.37 85.58 124.07
  A 0.77 0.76 -63.0 0 0 85.83 124.86
  Q 88.02 126.63 88.83 129.15
  A 0.98 0.95 -48.2 0 1 88.85 129.66
  L 88.38 131.74
  A 0.46 0.46 0.0 0 0 88.73 132.29
  C 89.57 132.46 90.48 132.37 91.03 132.83
  Q 93.68 135.01 94.64 137.92
  A 1.95 1.95 0.0 0 1 93.50 140.34
  Q 91.92 140.94 90.11 140.35
  Q 82.16 137.75 77.12 134.79
  A 3.49 3.48 14.4 0 1 75.39 131.87
  C 75.33 129.46 76.91 126.93 77.06 124.90
  Q 77.25 122.12 77.01 119.70
  A 6.97 6.93 -40.9 0 1 77.19 117.25
  Q 77.19 117.22 78.10 112.07
  Q 78.65 108.96 77.06 107.04
  C 75.28 104.90 75.20 103.45 74.18 100.69
  A 0.63 0.62 -54.8 0 0 72.97 100.90
  C 72.93 103.38 71.66 105.66 69.04 106.17
  Q 68.47 106.28 68.16 106.52
  A 1.00 0.99 63.7 0 0 67.83 107.51
  L 68.32 109.59
  A 3.88 3.88 0.0 0 1 68.32 111.33
  L 65.66 123.11
  A 2.06 0.96 79.0 0 0 65.63 123.36
  C 65.54 126.81 64.82 129.21 64.76 132.49
  Q 64.65 138.77 61.74 144.30
  A 2.32 2.27 85.8 0 1 61.09 145.07
  Q 55.92 148.98 50.55 145.41
  A 1.03 1.03 0.0 0 1 50.09 144.57
  C 50.04 140.93 52.48 138.10 55.35 135.13
  Q 56.66 133.76 56.53 131.15
  A 0.27 0.27 0.0 0 0 56.26 130.90
  L 55.99 130.90
  A 0.13 0.13 0.0 0 0 55.86 131.05
  Q 56.18 134.15 53.53 135.63
  A 0.98 0.98 0.0 0 1 52.19 134.32
  Q 53.56 131.71 53.94 129.02
  Q 54.14 127.54 56.11 126.64
  A 0.73 0.72 75.6 0 0 56.53 125.92
  Q 56.09 120.33 54.89 110.88
  C 54.63 108.82 54.89 108.25 55.73 106.50
  A 1.21 1.19 27.3 0 0 55.22 104.94
  Q 52.57 103.48 51.12 101.78
  A 1.07 1.07 0.0 0 1 51.48 100.12
  Q 52.29 99.74 53.03 99.02
  A 1.26 1.24 -23.6 0 0 53.41 98.08
  Q 53.21 93.58 56.61 89.39
  A 0.82 0.82 0.0 0 0 56.01 88.05
  Q 53.12 87.90 50.40 86.79
  A 2.85 2.80 -39.5 0 0 48.79 86.65
  L 47.85 86.85
  A 0.29 0.29 0.0 0 1 47.55 86.40
  Q 48.83 84.52 49.21 83.52
  Q 51.97 76.35 52.49 73.90
  Q 52.88 72.04 53.63 70.71
  Q 54.97 68.36 56.66 66.62
  A 1.92 1.91 8.3 0 1 57.01 66.36
  L 60.30 64.45
  A 2.78 2.77 -16.5 0 0 61.69 61.90
  L 61.43 57.07
  A 3.21 3.17 -34.9 0 1 61.70 55.61
  Q 62.62 53.54 62.55 50.92
  A 2.58 2.55 -30.7 0 1 62.91 49.54
  L 64.37 47.00
  A 1.71 1.67 56.6 0 0 64.58 45.92
  C 64.11 42.72 62.85 40.74 60.96 36.26
  A 6.06 6.03 -59.4 0 1 60.51 34.49
  Q 58.77 18.32 58.43 15.76
  C 57.88 11.66 59.15 10.71 62.56 8.10
  C 65.21 6.07 69.04 5.08 72.41 3.55
  A 5.70 5.58 29.4 0 1 74.24 3.06
  Q 77.77 2.72 80.87 3.27
  A 3.35 3.27 43.3 0 0 82.12 3.25
  L 83.55 2.95
  A 0.96 0.96 0.0 0 1 84.37 3.15
  Q 87.74 5.87 85.22 9.70
  A 0.95 0.86 -1.7 0 1 84.93 9.98
  L 80.52 12.64
  A 0.82 0.53 12.0 0 1 80.39 12.69
  Q 78.48 13.00 75.95 10.98
  A 1.09 1.08 51.9 0 0 74.83 10.84
  Q 69.76 13.14 69.03 13.56
  Q 66.78 14.84 68.25 17.25
  Q 70.06 20.23 71.16 23.64
  A 0.05 0.05 0.0 0 0 71.21 23.68
  L 71.94 23.68
  A 0.17 0.16 -15.0 0 0 72.09 23.43
  Z
  M 92.71 67.94
  Q 92.68 67.92 92.05 67.72
  A 0.22 0.22 0.0 0 0 91.86 68.12
  Q 92.29 68.40 92.60 68.34
  A 0.23 0.23 0.0 0 0 92.71 67.94
  Z"
/>
</svg>
