<?xml version="1.0" encoding="UTF-8" standalone="no"?>
<!DOCTYPE svg PUBLIC "-//W3C//DTD SVG 1.1//EN" "http://www.w3.org/Graphics/SVG/1.1/DTD/svg11.dtd">
<svg xmlns="http://www.w3.org/2000/svg" version="1.1" viewBox="0.00 0.00 150.00 150.00">
<path fill="#ffffff" d="
  M 106.30 57.45
  A 0.41 0.40 -4.3 0 1 106.80 56.87
  C 109.31 57.84 112.83 61.83 110.99 64.61
  A 0.66 0.66 0.0 0 0 111.15 65.50
  L 112.90 66.79
  A 1.00 0.99 33.4 0 1 113.17 68.08
  L 111.40 71.14
  A 1.87 1.86 54.2 0 0 111.19 72.44
  C 111.86 75.91 113.31 78.16 115.81 82.24
  A 3.56 3.53 -60.9 0 1 116.33 84.09
  L 116.33 85.94
  A 1.06 1.00 33.1 0 0 116.44 86.40
  Q 117.43 88.29 118.70 94.23
  A 3.04 2.98 50.8 0 1 118.54 95.99
  Q 116.84 100.16 115.15 101.46
  Q 110.38 105.17 108.21 107.32
  A 1.97 1.97 0.0 0 0 107.90 109.70
  L 110.94 114.97
  A 1.76 1.76 0.0 0 1 110.83 116.90
  L 110.59 117.23
  A 0.64 0.64 0.0 0 0 110.83 118.19
  L 117.51 121.30
  A 0.92 0.92 0.0 0 1 117.58 122.94
  L 113.96 125.03
  A 2.94 2.93 -41.6 0 1 110.75 124.85
  L 104.09 119.94
  A 0.38 0.38 0.0 0 0 103.48 120.26
  C 103.53 122.45 104.01 124.07 105.73 125.71
  Q 108.70 128.56 111.70 132.87
  A 1.58 1.56 43.2 0 1 111.76 134.56
  Q 108.76 139.59 104.55 141.96
  A 3.31 3.31 0.0 0 1 101.53 142.07
  L 95.39 139.21
  A 2.41 2.36 -4.4 0 1 94.46 138.43
  L 92.46 135.54
  A 0.80 0.79 -54.0 0 0 91.05 135.77
  Q 90.68 136.97 90.90 138.33
  C 91.31 140.90 93.22 142.18 92.40 146.44
  A 0.76 0.75 3.5 0 1 91.71 147.05
  C 90.21 147.17 89.06 147.03 87.39 147.08
  Q 83.50 147.21 83.11 142.72
  Q 82.80 139.07 82.90 137.07
  A 2.78 2.76 -63.9 0 0 82.24 135.12
  Q 80.45 133.04 80.89 130.50
  A 0.55 0.54 -82.5 0 0 80.41 129.87
  L 76.18 129.42
  A 0.99 0.99 0.0 0 1 75.30 128.33
  L 75.93 122.37
  A 0.48 0.48 0.0 0 0 75.50 121.83
  L 75.19 121.80
  A 0.26 0.26 0.0 0 0 74.90 122.03
  L 74.46 126.13
  A 0.63 0.62 -86.5 0 1 73.83 126.69
  C 70.50 126.64 66.13 120.00 63.66 116.60
  A 1.24 1.23 42.2 0 1 63.59 115.26
  L 70.44 103.40
  A 1.51 1.48 -40.6 0 0 70.55 102.14
  L 68.25 95.87
  A 1.36 1.36 0.0 0 1 69.52 94.04
  L 78.92 94.04
  A 1.03 1.03 0.0 0 0 79.87 93.40
  Q 81.76 88.89 81.40 87.54
  Q 80.70 84.84 80.76 82.19
  C 80.86 78.26 79.58 74.46 77.29 72.20
  Q 70.18 65.14 69.62 64.39
  Q 67.34 61.36 61.39 51.90
  A 1.50 1.45 85.7 0 0 60.78 51.36
  L 58.47 50.29
  A 1.99 1.90 87.4 0 1 57.58 49.44
  L 54.82 44.27
  A 2.36 2.00 -85.3 0 0 54.57 43.92
  Q 42.48 30.36 36.99 24.44
  Q 35.85 23.20 32.73 19.43
  C 28.49 14.29 24.61 9.96 22.82 3.96
  A 0.70 0.70 0.0 0 1 24.03 3.32
  Q 39.50 22.20 57.51 41.02
  A 6.43 6.36 -5.8 0 0 58.81 42.07
  C 65.38 46.12 69.63 50.88 74.81 56.61
  C 79.48 61.76 85.59 66.88 89.09 71.62
  A 1.19 1.18 44.3 0 0 91.01 71.60
  Q 92.51 69.49 92.69 67.70
  A 1.47 1.47 0.0 0 1 93.25 66.68
  Q 94.46 65.73 94.85 63.60
  C 95.70 58.92 100.29 59.71 103.09 57.32
  A 0.52 0.52 0.0 0 1 103.91 57.53
  Q 103.94 57.60 103.71 58.38
  A 0.85 0.84 26.4 0 0 104.02 59.29
  L 108.16 62.35
  A 0.44 0.44 0.0 0 0 108.80 61.78
  L 106.30 57.45
  Z
  M 110.2925 93.8781
  A 0.26 0.26 0.0 0 0 110.2091 93.5199
  L 109.9205 93.3403
  A 0.26 0.26 0.0 0 0 109.5624 93.4236
  L 106.1275 98.9419
  A 0.26 0.26 0.0 0 0 106.2109 99.3001
  L 106.4995 99.4797
  A 0.26 0.26 0.0 0 0 106.8576 99.3964
  L 110.2925 93.8781
  Z"
/>
</svg>
