<?xml version="1.0" encoding="UTF-8" standalone="no"?>
<!DOCTYPE svg PUBLIC "-//W3C//DTD SVG 1.1//EN" "http://www.w3.org/Graphics/SVG/1.1/DTD/svg11.dtd">
<svg xmlns="http://www.w3.org/2000/svg" version="1.1" viewBox="0.00 0.00 150.00 150.00">
<path fill="#ffffff" d="
  M 91.13 95.38
  L 95.73 101.48
  A 1.98 1.98 0.0 0 1 96.11 102.96
  Q 95.41 107.62 92.26 109.84
  A 2.04 2.04 0.0 0 0 91.38 111.44
  L 91.22 115.13
  A 3.35 3.33 59.3 0 1 90.89 116.44
  C 90.11 117.78 87.68 122.48 88.82 124.61
  Q 90.33 127.41 93.21 131.34
  A 1.56 1.55 -34.8 0 1 92.81 133.56
  C 89.18 135.96 82.75 130.83 80.41 128.04
  A 2.81 2.80 -56.1 0 1 79.89 125.37
  C 81.36 120.82 80.64 117.00 80.64 111.58
  A 0.90 0.90 0.0 0 0 79.20 110.86
  L 78.69 111.24
  A 1.19 1.14 78.1 0 0 78.26 111.93
  L 76.27 121.38
  A 3.20 3.07 69.3 0 1 75.80 122.48
  Q 72.85 126.81 72.01 131.70
  C 71.78 133.09 71.01 133.69 70.81 134.72
  A 0.73 0.66 -50.0 0 0 70.82 135.03
  L 73.54 145.12
  A 2.29 2.28 -13.9 0 1 71.83 147.95
  Q 65.77 149.30 63.69 144.93
  Q 61.04 139.35 62.26 134.98
  Q 62.78 133.14 63.16 129.54
  Q 64.28 118.85 64.55 111.58
  C 64.57 110.85 65.09 110.45 65.27 109.86
  A 0.70 0.70 0.0 0 0 64.95 109.05
  L 62.40 107.58
  A 0.97 0.96 24.6 0 1 61.97 106.44
  L 64.62 98.83
  A 2.62 2.62 0.0 0 0 63.00 95.50
  L 62.42 95.30
  A 0.89 0.88 11.2 0 1 61.83 94.43
  Q 61.90 92.71 61.17 91.35
  A 0.39 0.38 45.7 0 0 60.50 91.34
  Q 59.20 93.60 55.75 94.78
  A 0.42 0.42 0.0 0 1 55.20 94.28
  Q 56.56 88.81 57.14 87.45
  C 58.31 84.64 58.39 80.81 59.61 78.14
  Q 61.03 75.02 63.96 73.10
  A 1.25 1.24 -11.3 0 0 64.51 72.29
  Q 65.09 69.45 63.40 67.20
  A 1.39 1.39 0.0 0 1 63.67 65.25
  L 65.96 63.52
  A 0.75 0.74 -25.6 0 0 66.24 62.74
  L 63.46 51.80
  A 8.85 8.65 -52.8 0 1 63.19 49.64
  L 63.19 39.36
  A 3.32 3.20 55.8 0 1 63.38 38.26
  L 66.89 28.14
  A 4.60 4.53 -33.2 0 0 67.14 26.99
  L 67.41 23.98
  A 3.12 3.01 59.2 0 1 67.60 23.17
  L 70.92 14.33
  A 1.53 1.19 -38.0 0 0 71.00 14.01
  L 72.49 3.24
  A 1.19 1.19 0.0 0 1 74.56 2.61
  Q 75.01 3.13 75.30 4.11
  A 0.80 0.79 -15.6 0 0 76.26 4.65
  L 77.39 4.37
  A 0.71 0.71 0.0 0 1 78.25 4.86
  Q 79.43 9.00 78.57 12.37
  A 1.52 1.49 -54.1 0 0 78.74 13.51
  C 80.28 16.14 79.36 17.68 78.13 19.89
  A 0.33 0.33 0.0 0 0 78.31 20.36
  L 78.55 20.44
  A 0.15 0.15 0.0 0 0 78.74 20.35
  Q 79.43 18.27 81.36 16.89
  A 0.30 0.30 0.0 0 1 81.83 17.14
  L 81.83 19.16
  A 1.00 0.99 11.8 0 0 82.43 20.07
  Q 84.58 20.96 85.42 22.32
  A 0.73 0.73 0.0 0 0 86.77 21.84
  Q 86.57 20.34 85.40 18.11
  A 0.33 0.33 0.0 0 1 85.83 17.66
  Q 87.15 18.24 87.74 19.36
  Q 90.16 23.89 86.74 27.10
  A 0.34 0.33 -65.8 0 0 86.96 27.68
  Q 87.18 27.69 87.95 27.28
  A 1.29 1.28 45.2 0 1 89.21 27.29
  C 91.64 28.68 89.06 31.33 87.99 32.70
  A 1.50 1.50 0.0 0 0 87.72 33.97
  L 88.67 37.70
  A 1.31 1.31 0.0 0 1 87.13 39.30
  L 84.94 38.84
  A 0.44 0.44 0.0 0 0 84.47 39.50
  L 86.82 43.56
  A 1.01 0.94 -62.5 0 1 86.96 44.07
  L 86.96 46.14
  A 3.16 3.02 -58.3 0 0 87.23 47.41
  Q 89.71 52.87 89.02 58.51
  A 1.19 1.19 0.0 0 0 90.92 59.61
  L 102.54 50.84
  A 1.61 1.61 0.0 0 1 104.88 51.28
  L 104.91 51.33
  A 1.45 1.44 57.5 0 1 104.50 53.20
  L 93.95 60.94
  A 2.31 2.29 -14.9 0 0 93.03 62.51
  Q 92.78 64.64 90.70 66.08
  A 0.89 0.89 0.0 0 0 90.70 67.54
  L 92.69 68.91
  A 3.00 2.93 -87.9 0 1 93.56 69.87
  L 96.76 75.69
  A 2.21 2.21 0.0 0 1 95.53 78.85
  Q 94.72 79.12 92.97 78.66
  A 0.38 0.38 0.0 0 0 92.50 79.10
  C 92.88 81.22 94.53 81.79 95.15 84.08
  C 96.01 87.23 98.68 90.40 100.80 92.79
  A 0.50 0.50 0.0 0 1 100.43 93.63
  L 97.73 93.63
  A 0.40 0.39 -12.4 0 0 97.37 94.19
  Q 98.25 96.06 98.29 96.88
  A 0.52 0.51 6.5 0 1 97.63 97.40
  C 94.68 96.58 92.96 96.41 91.70 94.92
  A 0.37 0.37 0.0 0 0 91.13 95.38
  Z
  M 81.4314 40.6690
  A 0.85 0.42 -138.7 0 0 81.7928 41.5455
  A 0.85 0.42 -138.7 0 0 82.7086 41.7910
  A 0.85 0.42 -138.7 0 0 82.3472 40.9145
  A 0.85 0.42 -138.7 0 0 81.4314 40.6690
  Z
  M 91.44 76.75
  Q 90.90 75.76 90.68 75.57
  A 0.27 0.26 -76.1 0 0 90.25 75.83
  Q 90.48 76.89 91.07 77.15
  A 0.29 0.29 0.0 0 0 91.44 76.75
  Z"
/>
</svg>
