<?xml version="1.0" encoding="UTF-8" standalone="no"?>
<!DOCTYPE svg PUBLIC "-//W3C//DTD SVG 1.1//EN" "http://www.w3.org/Graphics/SVG/1.1/DTD/svg11.dtd">
<svg xmlns="http://www.w3.org/2000/svg" version="1.1" viewBox="0.00 0.00 150.00 150.00">
<path fill="#ffffff" d="
  M 45.67 108.76
  A 0.15 0.15 0.0 0 0 45.43 108.60
  L 34.90 120.86
  A 0.97 0.96 -62.1 0 1 33.91 121.17
  Q 31.93 120.66 30.11 121.05
  A 0.71 0.70 81.8 0 1 29.26 120.41
  Q 28.69 112.75 29.69 104.54
  A 0.46 0.44 -86.3 0 1 30.13 104.14
  L 34.04 104.14
  A 0.93 0.93 0.0 0 0 34.64 103.92
  Q 37.52 101.40 42.84 100.92
  Q 43.63 100.85 47.52 99.17
  C 50.49 97.88 53.01 95.30 56.28 92.80
  A 2.13 2.12 -46.1 0 0 56.22 89.38
  Q 51.83 86.28 46.21 80.44
  Q 45.37 79.56 43.79 78.58
  C 41.87 77.38 42.71 75.13 42.90 73.12
  Q 43.64 64.95 45.13 60.63
  Q 48.26 51.50 48.67 48.23
  A 5.27 5.20 -28.6 0 1 49.17 46.57
  C 50.18 44.57 52.37 41.70 52.19 39.21
  A 0.50 0.50 0.0 0 1 52.77 38.68
  Q 54.17 38.92 55.15 38.74
  A 1.75 1.75 0.0 0 0 56.26 38.03
  Q 57.75 35.90 60.07 35.79
  A 0.63 0.62 -4.8 0 0 60.66 35.10
  L 60.21 31.12
  A 3.01 2.96 55.1 0 1 60.49 29.47
  L 62.24 25.83
  A 0.89 0.88 -47.4 0 0 62.21 25.01
  L 58.44 18.49
  A 0.48 0.47 60.4 0 1 58.61 17.85
  Q 62.43 15.57 65.82 15.42
  A 0.70 0.70 0.0 0 0 66.47 14.85
  C 67.16 10.90 67.14 8.40 70.48 5.49
  Q 74.00 2.42 80.47 3.58
  C 83.99 4.21 87.73 8.04 87.76 12.36
  Q 87.76 13.05 87.94 14.45
  A 0.82 0.82 0.0 0 0 88.59 15.16
  Q 89.11 15.26 91.00 15.17
  Q 92.61 15.10 95.31 17.16
  A 0.77 0.77 0.0 0 1 95.53 18.10
  L 92.72 23.95
  A 0.54 0.53 -48.6 0 0 92.75 24.47
  Q 95.10 28.21 95.44 31.65
  C 95.53 32.67 94.84 33.83 94.95 34.45
  A 0.52 0.52 0.0 0 0 95.71 34.81
  Q 98.19 33.45 99.06 37.22
  A 0.92 0.92 0.0 0 0 100.14 37.91
  L 102.31 37.47
  A 0.65 0.64 -14.0 0 1 103.05 37.91
  Q 103.96 40.91 107.14 44.23
  Q 108.80 45.96 108.72 48.39
  C 108.60 52.39 111.05 55.85 112.62 59.15
  A 11.24 11.24 0.0 0 1 113.46 61.67
  L 116.03 74.31
  A 3.66 3.65 -28.3 0 1 115.03 77.62
  L 103.77 88.88
  A 0.47 0.47 0.0 0 0 103.89 89.63
  L 106.99 91.11
  A 1.77 1.76 25.8 0 1 107.81 93.46
  L 107.07 94.99
  A 1.66 1.65 41.6 0 0 107.17 96.60
  C 109.55 100.39 110.95 103.25 115.69 103.13
  Q 118.92 103.05 121.52 104.04
  A 2.50 2.46 49.5 0 0 122.93 104.16
  L 126.03 103.53
  A 1.15 1.14 71.9 0 1 127.30 104.18
  L 131.13 112.57
  A 4.01 3.85 -58.3 0 1 131.48 114.20
  L 131.48 120.00
  A 0.32 0.31 -72.0 0 1 130.98 120.26
  Q 128.93 118.75 127.35 120.90
  A 1.00 0.99 -58.3 0 1 126.11 121.20
  Q 121.48 118.93 118.29 115.37
  A 0.23 0.22 47.8 0 0 117.98 115.35
  L 117.97 115.36
  A 0.27 0.26 51.4 0 0 117.94 115.70
  L 119.33 117.77
  A 0.94 0.92 -41.9 0 1 119.26 118.89
  L 117.83 120.56
  A 1.57 1.56 42.9 0 0 117.91 122.69
  L 120.91 125.69
  A 0.99 0.99 0.0 0 1 120.29 127.38
  Q 119.50 127.45 119.31 127.57
  A 0.37 0.36 39.1 0 0 119.38 128.22
  Q 121.25 128.92 123.98 132.40
  A 1.63 1.62 59.6 0 1 123.33 134.91
  Q 121.15 135.82 118.13 138.84
  A 2.56 2.52 -80.9 0 1 117.60 139.23
  L 113.16 141.58
  A 0.89 0.85 -2.9 0 0 112.78 141.98
  L 111.45 144.73
  A 1.11 1.10 12.7 0 1 110.45 145.36
  L 96.61 145.36
  A 0.96 0.91 60.6 0 1 96.09 145.20
  Q 94.48 144.10 92.49 143.63
  A 1.81 1.79 83.9 0 1 91.28 142.64
  C 89.75 139.30 89.65 136.63 86.21 133.58
  A 1.12 1.10 -19.0 0 0 85.62 133.30
  L 71.89 131.40
  A 0.90 0.90 0.0 0 0 70.97 131.90
  L 66.32 141.57
  A 2.40 2.38 6.8 0 1 64.65 142.87
  L 59.03 144.01
  A 5.01 4.97 46.3 0 1 56.74 143.95
  C 55.18 143.54 53.46 142.81 51.95 143.26
  Q 51.06 143.52 50.50 143.39
  Q 48.51 142.93 46.48 143.37
  A 0.92 0.91 -25.5 0 1 45.59 143.06
  Q 44.80 142.11 45.35 140.12
  A 0.97 0.97 0.0 0 0 44.92 139.04
  Q 39.03 135.43 36.08 130.70
  A 1.54 1.54 0.0 0 1 36.50 128.62
  L 42.69 124.31
  A 0.44 0.44 0.0 0 0 42.35 123.52
  L 40.35 123.93
  A 1.11 1.11 0.0 0 1 39.13 122.36
  L 45.67 108.76
  Z
  M 89.33 34.44
  L 91.34 33.89
  A 0.26 0.26 0.0 0 0 91.52 33.57
  L 91.40 33.13
  A 3.19 1.26 74.7 0 0 89.34 30.39
  L 89.27 30.41
  A 3.19 1.26 74.7 0 0 88.89 33.82
  L 89.01 34.25
  A 0.26 0.26 0.0 0 0 89.33 34.44
  Z
  M 66.69 35.28
  L 66.69 31.83
  A 0.64 0.64 0.0 0 0 65.53 31.46
  Q 64.23 33.29 64.36 35.02
  A 0.78 0.78 0.0 0 0 65.14 35.75
  L 66.22 35.75
  A 0.47 0.47 0.0 0 0 66.69 35.28
  Z
  M 58.99 74.39
  L 58.99 69.73
  A 0.88 0.88 0.0 0 0 57.32 69.35
  Q 56.54 71.00 55.36 72.17
  A 1.26 1.25 -22.7 0 0 54.99 73.06
  L 54.99 74.32
  A 0.66 0.65 0.0 0 0 55.65 74.97
  L 58.41 74.97
  A 0.58 0.58 0.0 0 0 58.99 74.39
  Z
  M 102.5049 70.5634
  A 2.95 1.93 -44.2 0 0 99.0445 71.2364
  A 2.95 1.93 -44.2 0 0 98.2751 74.6766
  A 2.95 1.93 -44.2 0 0 101.7355 74.0036
  A 2.95 1.93 -44.2 0 0 102.5049 70.5634
  Z"
/>
</svg>
