<?xml version="1.0" encoding="UTF-8" standalone="no"?>
<!DOCTYPE svg PUBLIC "-//W3C//DTD SVG 1.1//EN" "http://www.w3.org/Graphics/SVG/1.1/DTD/svg11.dtd">
<svg xmlns="http://www.w3.org/2000/svg" version="1.1" viewBox="0.00 0.00 150.00 150.00">
<path fill="#ffffff" d="
  M 62.91 62.88
  A 0.36 0.35 -54.2 0 0 62.83 62.37
  L 62.81 62.36
  A 0.29 0.28 37.3 0 0 62.47 62.40
  Q 61.53 63.26 61.28 63.33
  Q 60.59 63.51 60.29 62.53
  Q 59.58 60.19 61.90 59.46
  A 0.56 0.56 0.0 0 0 62.27 58.79
  Q 62.16 58.34 62.26 53.01
  C 62.39 46.15 58.48 41.66 52.72 37.98
  Q 48.50 35.28 42.64 32.13
  C 40.79 31.13 39.71 29.77 39.85 27.48
  Q 40.09 23.37 40.68 21.28
  A 5.68 5.60 -38.7 0 0 40.89 19.49
  C 40.72 14.46 41.02 10.69 44.55 7.30
  Q 47.14 4.79 50.21 2.95
  Q 50.77 2.62 51.06 2.61
  A 1.13 1.12 -75.1 0 1 52.08 4.38
  L 50.42 6.73
  A 0.74 0.74 0.0 0 0 50.76 7.85
  Q 52.99 8.68 53.79 9.84
  A 0.89 0.88 53.7 0 1 53.61 11.03
  L 48.81 14.78
  A 0.57 0.57 0.0 0 0 48.59 15.25
  Q 48.59 16.48 48.15 20.72
  Q 48.13 20.99 49.27 24.14
  A 1.33 1.31 0.2 0 0 50.08 24.94
  C 52.74 25.84 54.73 26.94 57.54 27.71
  Q 60.69 28.58 63.27 30.37
  A 0.19 0.19 0.0 0 0 63.57 30.21
  L 63.57 23.05
  A 0.50 0.46 73.8 0 1 63.77 22.65
  Q 63.96 22.51 64.01 22.47
  A 0.21 0.21 0.0 0 0 64.06 22.16
  L 62.45 20.10
  A 0.97 0.97 0.0 0 1 62.78 18.64
  L 65.29 17.39
  A 1.21 1.19 -0.9 0 0 65.87 16.80
  L 68.07 12.10
  A 1.89 1.85 -38.2 0 0 68.22 10.96
  L 67.71 8.10
  A 2.50 2.49 -24.2 0 1 68.63 5.69
  L 69.85 4.74
  A 0.47 0.47 0.0 0 1 70.60 5.19
  Q 69.99 8.69 70.97 9.20
  A 0.71 0.69 -35.8 0 0 71.44 9.27
  Q 74.92 8.58 76.68 9.20
  A 1.03 1.03 0.0 0 0 78.01 7.94
  Q 77.53 6.27 75.67 4.59
  A 0.64 0.64 0.0 0 1 76.30 3.50
  Q 79.09 4.43 80.63 7.09
  A 2.47 2.45 33.0 0 1 80.95 8.57
  L 80.50 13.19
  A 0.99 0.98 -14.0 0 0 82.03 14.10
  Q 83.45 13.16 85.82 13.81
  A 1.46 1.45 14.8 0 1 86.85 15.57
  L 86.14 18.31
  A 3.42 3.41 -60.4 0 0 87.04 21.59
  L 90.52 25.08
  A 1.06 1.05 -47.3 0 1 90.57 26.52
  L 88.19 29.30
  A 0.41 0.40 -68.5 0 0 88.48 29.97
  C 89.05 29.99 89.65 29.56 90.48 30.00
  Q 92.74 31.17 94.89 31.22
  A 0.92 0.91 77.0 0 1 95.69 31.73
  L 96.41 33.17
  A 1.23 1.23 0.0 0 0 97.03 33.76
  Q 99.68 34.89 101.05 37.92
  Q 101.41 38.72 104.14 40.93
  C 107.80 43.90 110.18 47.37 113.00 51.78
  A 1.10 1.08 41.3 0 1 113.08 52.83
  Q 112.21 54.74 111.51 57.75
  C 110.51 62.08 107.80 65.67 106.15 68.89
  Q 103.94 73.20 99.13 74.62
  A 0.21 0.21 0.0 0 0 99.14 75.03
  Q 102.62 75.77 105.46 76.79
  Q 105.59 76.83 109.26 77.53
  Q 112.75 78.19 114.63 81.20
  A 0.59 0.58 -46.2 0 1 114.64 81.81
  L 112.94 84.75
  A 0.87 0.87 0.0 0 1 112.04 85.18
  Q 106.37 84.25 99.86 80.87
  A 0.38 0.37 -89.3 0 0 99.35 81.37
  C 101.63 85.88 104.71 90.93 108.87 93.78
  C 110.81 95.11 114.21 97.29 114.10 99.78
  C 113.94 103.69 112.37 105.77 109.82 107.59
  A 1.49 1.48 77.1 0 0 109.21 108.57
  Q 108.80 111.25 109.31 112.04
  Q 111.26 115.03 113.53 118.25
  Q 113.80 118.64 113.87 119.06
  A 1.48 1.48 0.0 0 1 112.01 120.71
  Q 109.70 120.07 108.42 117.92
  A 0.34 0.34 0.0 0 0 107.83 117.92
  Q 105.89 121.35 105.54 124.12
  A 1.48 1.48 0.0 0 1 105.12 124.96
  L 104.16 125.93
  A 0.67 0.66 45.3 0 0 104.16 126.88
  L 105.70 128.42
  A 0.88 0.87 -36.0 0 1 105.47 129.82
  L 103.32 130.89
  A 0.73 0.72 -26.7 0 0 102.99 131.87
  L 105.42 136.75
  A 2.68 2.67 -87.8 0 0 106.39 137.80
  C 108.58 139.13 114.15 144.35 111.09 147.14
  C 107.38 150.53 97.80 141.45 93.94 137.84
  Q 90.70 134.80 92.56 131.61
  C 94.18 128.85 94.80 127.62 94.44 124.75
  Q 94.25 123.16 93.92 121.91
  A 5.86 5.78 42.3 0 1 93.79 119.55
  C 94.35 115.84 95.82 110.35 92.97 107.54
  C 91.88 106.46 90.86 106.62 89.57 106.18
  A 1.81 1.77 79.8 0 1 88.74 105.59
  L 86.31 102.48
  A 3.63 3.50 -6.0 0 0 84.99 101.45
  Q 82.58 100.38 81.82 99.45
  A 0.68 0.67 -35.7 0 0 80.92 99.31
  C 78.61 100.83 78.03 98.57 75.90 98.56
  C 73.74 98.55 72.37 97.28 69.98 97.05
  C 68.57 96.91 68.06 96.44 67.04 96.10
  A 1.29 1.26 -48.4 0 0 66.06 96.17
  L 57.89 100.25
  A 2.49 2.48 -43.2 0 1 55.55 100.18
  L 51.90 98.07
  A 0.25 0.25 0.0 0 0 51.53 98.36
  L 54.48 108.24
  A 1.02 1.02 0.0 0 1 54.43 108.98
  Q 52.30 113.48 55.81 116.08
  C 58.41 118.00 59.89 119.88 57.60 122.43
  Q 52.89 127.64 46.75 133.48
  Q 45.30 134.86 43.40 134.67
  A 1.64 1.62 -87.3 0 1 41.93 133.04
  Q 41.92 131.71 42.61 129.79
  A 1.71 1.71 0.0 0 1 43.26 128.96
  C 44.87 127.88 46.91 125.14 46.27 123.11
  A 1.31 1.29 46.7 0 1 46.29 122.28
  Q 47.19 119.71 46.15 117.46
  A 0.66 0.65 32.6 0 0 44.90 117.73
  L 44.90 120.66
  A 1.17 1.17 0.0 0 1 42.57 120.86
  Q 42.05 117.87 44.59 114.13
  A 1.34 1.33 45.5 0 0 44.60 112.66
  Q 41.31 107.65 39.83 102.58
  A 0.48 0.48 0.0 0 0 38.89 102.71
  L 38.89 106.66
  A 0.86 0.86 0.0 0 1 37.52 107.35
  Q 36.01 106.24 35.41 103.60
  A 1.59 1.57 -36.7 0 1 35.58 102.48
  L 37.79 98.65
  A 1.82 1.82 0.0 0 0 37.50 96.44
  L 34.23 93.16
  A 4.04 4.04 0.0 0 1 33.12 89.48
  C 34.07 84.84 39.63 80.35 43.58 78.11
  A 1.88 1.88 0.0 0 0 44.52 76.69
  Q 44.66 75.53 45.54 75.17
  A 0.59 0.59 0.0 0 0 45.73 74.20
  L 41.94 70.40
  A 0.31 0.29 16.8 0 1 41.86 70.26
  L 41.23 67.06
  A 0.26 0.26 0.0 0 1 41.59 66.78
  Q 43.15 67.51 46.98 66.97
  Q 48.00 66.82 51.12 67.62
  A 5.79 5.67 -39.7 0 0 52.93 67.77
  Q 56.56 67.49 60.63 69.28
  A 0.71 0.71 0.0 0 0 61.63 68.63
  L 61.63 65.01
  A 1.45 1.44 -26.4 0 1 61.93 64.13
  L 62.91 62.88
  Z
  M 65.60 22.86
  Q 65.43 22.39 65.11 22.42
  A 0.28 0.28 0.0 0 0 64.93 22.89
  Q 65.01 22.97 65.17 23.13
  A 0.26 0.26 0.0 0 0 65.60 22.86
  Z
  M 93.59 68.57
  C 100.26 68.86 98.07 64.34 100.25 60.76
  Q 102.61 56.87 102.09 54.13
  A 0.83 0.79 17.1 0 0 101.85 53.70
  L 97.57 49.75
  A 0.91 0.90 -41.6 0 0 96.43 49.69
  Q 93.81 51.63 93.59 54.06
  Q 92.84 62.29 91.04 64.98
  A 1.02 1.02 0.0 0 0 91.08 66.17
  L 92.54 68.03
  A 1.42 1.41 -17.6 0 0 93.59 68.57
  Z
  M 92.16 69.95
  Q 92.14 70.11 92.74 71.40
  A 0.32 0.32 0.0 0 0 93.33 71.18
  L 92.95 69.86
  A 0.40 0.40 0.0 0 0 92.16 69.95
  Z"
/>
</svg>
