<?xml version="1.0" encoding="UTF-8" standalone="no"?>
<!DOCTYPE svg PUBLIC "-//W3C//DTD SVG 1.1//EN" "http://www.w3.org/Graphics/SVG/1.1/DTD/svg11.dtd">
<svg xmlns="http://www.w3.org/2000/svg" version="1.1" viewBox="0.00 0.00 150.00 150.00">
<path fill="#ffffff" d="
  M 62.44 67.90
  A 0.23 0.23 0.0 0 0 62.51 67.45
  Q 60.34 66.78 60.66 65.51
  C 61.14 63.67 61.43 62.63 60.93 60.86
  Q 59.95 57.43 60.11 54.42
  A 4.13 4.11 37.7 0 0 59.93 53.03
  L 57.66 45.56
  A 4.49 4.47 6.4 0 0 55.60 42.99
  Q 54.36 42.28 52.95 41.23
  Q 51.94 40.49 51.27 38.69
  C 50.41 36.36 48.43 34.46 47.39 32.03
  Q 46.47 29.88 44.37 26.64
  A 1.84 1.81 -61.8 0 1 44.08 25.65
  L 44.08 23.49
  A 1.23 1.21 -68.6 0 0 43.70 22.60
  Q 42.36 21.34 42.05 19.97
  A 0.70 0.69 -6.2 0 0 41.37 19.43
  L 37.85 19.43
  A 1.36 1.36 0.0 0 1 36.49 18.07
  L 36.49 17.77
  A 1.00 0.99 7.2 0 1 37.74 16.81
  Q 39.03 17.14 40.34 16.45
  A 0.96 0.96 0.0 0 0 40.39 14.78
  L 36.43 12.44
  A 1.15 1.14 -54.0 0 1 36.16 10.70
  L 36.34 10.52
  A 1.52 1.50 37.0 0 1 38.19 10.27
  L 41.57 12.22
  A 0.82 0.82 0.0 0 0 42.54 10.90
  Q 40.71 9.22 39.77 8.04
  Q 38.80 6.82 39.15 6.05
  A 1.60 1.41 31.9 0 1 41.46 5.66
  Q 43.36 7.10 44.65 8.84
  A 1.37 1.35 71.1 0 0 45.73 9.38
  L 46.24 9.38
  A 0.49 0.49 0.0 0 0 46.65 8.63
  Q 45.43 6.76 45.54 3.87
  A 0.43 0.43 0.0 0 1 46.19 3.52
  Q 48.92 5.18 49.13 6.42
  Q 49.71 9.74 52.58 12.75
  A 2.07 2.06 -32.4 0 0 54.85 13.25
  Q 57.00 12.40 58.86 12.54
  A 1.06 1.05 -66.8 0 1 59.56 14.30
  L 56.39 17.78
  A 1.15 1.15 0.0 0 0 56.10 18.46
  Q 55.70 23.21 57.70 25.51
  Q 61.46 29.82 66.91 30.68
  A 0.87 0.86 9.8 0 0 67.89 30.00
  Q 68.89 25.18 72.12 21.94
  A 1.97 1.96 55.1 0 0 72.51 19.72
  L 70.66 15.76
  A 1.52 1.52 0.0 0 1 72.04 13.60
  L 76.91 13.60
  A 1.06 1.04 -76.8 0 0 77.85 13.01
  Q 80.98 6.76 88.82 3.86
  A 0.35 0.34 -71.1 0 1 89.12 4.48
  Q 88.55 4.84 88.15 5.34
  A 0.32 0.32 0.0 0 0 88.18 5.77
  L 92.46 10.05
  A 0.85 0.84 -34.1 0 0 93.41 10.23
  L 93.77 10.07
  A 0.66 0.65 -38.1 0 0 93.90 9.02
  Q 92.22 7.44 91.48 5.80
  A 0.64 0.64 0.0 0 1 92.52 5.08
  L 96.76 9.31
  A 1.06 1.06 0.0 0 1 97.07 10.06
  L 97.07 14.96
  A 1.34 1.34 0.0 0 1 96.82 15.74
  L 94.97 18.31
  A 0.78 0.78 0.0 0 0 95.94 19.47
  L 96.70 19.11
  A 1.13 1.12 -42.0 0 1 97.73 19.16
  L 100.56 20.79
  A 1.76 1.76 0.0 0 1 100.92 23.56
  L 97.14 27.34
  A 1.42 1.42 0.0 0 0 96.81 28.83
  Q 98.29 32.96 98.21 38.54
  A 0.86 0.84 -22.8 0 1 97.96 39.14
  L 96.91 40.18
  A 0.74 0.72 66.2 0 0 96.70 40.74
  L 97.15 50.31
  A 2.03 2.00 -67.7 0 0 97.65 51.53
  Q 101.23 55.51 105.88 56.20
  C 110.06 56.82 112.89 58.22 116.54 58.46
  A 1.01 1.01 0.0 0 1 117.47 59.35
  Q 117.66 60.87 119.12 61.80
  A 0.99 0.99 0.0 0 1 119.52 62.93
  Q 118.65 65.61 117.79 66.48
  Q 115.16 69.16 112.59 66.57
  Q 111.59 65.57 109.28 65.10
  C 106.79 64.60 103.63 67.58 102.05 69.02
  A 1.13 1.13 0.0 0 0 101.73 70.20
  C 102.13 71.44 102.34 72.35 101.28 73.24
  Q 98.54 75.53 98.58 80.05
  A 1.18 1.17 -7.2 0 0 100.04 81.18
  L 115.60 77.32
  A 1.24 1.24 0.0 0 1 117.02 78.02
  Q 118.35 81.06 120.32 84.69
  Q 121.18 86.29 121.59 90.87
  A 1.37 1.35 29.5 0 0 121.74 91.40
  L 123.29 94.37
  A 4.69 4.68 -43.6 0 1 123.18 98.89
  Q 122.57 99.93 121.87 101.39
  C 120.36 104.54 124.08 109.09 126.19 112.05
  C 127.08 113.30 126.55 115.38 125.60 117.19
  Q 123.97 120.30 124.39 124.77
  A 0.86 0.84 -85.0 0 0 124.99 125.50
  Q 126.89 126.08 127.95 126.99
  A 1.91 1.85 -82.3 0 1 128.43 127.64
  L 130.50 132.47
  A 1.66 1.64 -56.0 0 1 130.63 133.16
  Q 130.59 134.51 129.56 135.62
  A 1.23 1.23 0.0 0 0 130.46 137.69
  L 132.91 137.69
  A 1.03 1.03 0.0 0 1 133.71 138.07
  Q 136.31 141.23 137.29 144.11
  A 1.11 1.11 0.0 0 1 136.73 145.46
  Q 133.71 146.93 130.30 145.90
  Q 121.72 143.32 118.62 142.14
  Q 116.28 141.25 114.92 139.92
  A 2.83 2.83 0.0 0 1 114.32 136.74
  C 115.90 133.21 115.35 130.48 113.10 126.96
  Q 110.42 122.78 109.59 118.12
  C 109.25 116.21 108.31 114.65 107.57 113.26
  A 1.43 1.43 0.0 0 0 105.83 112.58
  L 102.87 113.61
  A 0.82 0.82 0.0 0 1 102.29 113.61
  Q 100.08 112.80 99.19 112.05
  C 97.41 110.55 95.05 111.23 93.02 110.02
  A 0.85 0.84 -47.8 0 0 92.07 110.07
  Q 90.62 111.15 89.09 110.85
  A 0.50 0.50 0.0 0 0 88.55 111.55
  L 91.53 117.92
  A 1.10 1.09 71.9 0 1 90.76 119.45
  C 87.83 120.03 86.27 118.06 83.89 118.57
  Q 81.29 119.12 79.18 117.96
  A 2.89 2.88 56.2 0 0 77.52 117.63
  L 74.90 117.91
  A 2.64 2.64 0.0 0 1 73.57 117.72
  Q 67.33 115.16 62.64 119.31
  C 60.82 120.92 59.89 120.41 57.86 119.50
  A 1.65 1.26 26.7 0 0 55.94 119.86
  C 54.11 122.92 54.52 126.21 53.00 129.29
  C 52.06 131.19 52.64 134.84 53.39 136.64
  A 3.36 3.25 -32.3 0 1 52.49 140.35
  Q 50.74 141.93 48.31 142.59
  Q 39.77 144.93 37.94 145.55
  C 35.00 146.56 31.93 146.58 30.11 143.99
  A 1.52 1.52 0.0 0 1 30.11 142.25
  Q 32.63 138.63 35.09 137.32
  A 0.92 0.91 -14.4 0 0 35.57 136.52
  L 35.57 135.16
  A 1.26 1.26 0.0 0 1 35.75 134.51
  L 40.37 126.93
  A 0.32 0.32 0.0 0 0 40.05 126.45
  Q 37.64 126.87 37.22 125.64
  A 2.42 1.17 84.8 0 1 37.13 125.33
  Q 37.04 125.00 37.07 121.67
  A 1.30 1.30 0.0 0 1 37.45 120.75
  C 44.16 114.01 30.47 109.25 36.64 104.63
  A 1.81 1.72 -65.7 0 1 37.43 104.31
  L 39.38 104.07
  A 1.72 1.72 0.0 0 0 40.73 101.63
  L 36.27 92.08
  A 1.23 1.23 0.0 0 1 37.26 90.34
  Q 39.62 90.11 41.73 88.93
  A 6.43 6.28 26.5 0 1 44.00 88.20
  Q 45.54 88.00 46.83 87.58
  A 1.89 1.75 -28.1 0 0 47.82 84.72
  Q 47.29 84.10 47.15 83.40
  A 0.52 0.51 86.5 0 1 47.69 82.78
  Q 55.12 83.36 61.33 81.24
  A 1.07 1.06 68.1 0 0 61.95 79.77
  L 60.50 76.67
  A 2.02 2.02 0.0 0 1 61.48 73.99
  L 62.93 73.31
  A 0.94 0.93 -35.0 0 0 63.20 71.80
  L 61.09 69.69
  A 1.05 1.05 0.0 0 1 61.83 67.90
  L 62.44 67.90
  Z
  M 96.20 64.30
  L 96.80 66.56
  A 0.35 0.35 0.0 0 0 97.23 66.81
  L 97.53 66.73
  A 3.46 1.44 -14.9 0 0 100.50 64.45
  L 100.46 64.29
  A 3.46 1.44 -14.9 0 0 96.75 63.79
  L 96.45 63.87
  A 0.35 0.35 0.0 0 0 96.20 64.30
  Z"
/>
</svg>
