<?xml version="1.0" encoding="UTF-8" standalone="no"?>
<!DOCTYPE svg PUBLIC "-//W3C//DTD SVG 1.1//EN" "http://www.w3.org/Graphics/SVG/1.1/DTD/svg11.dtd">
<svg xmlns="http://www.w3.org/2000/svg" version="1.1" viewBox="0.00 0.00 150.00 150.00">
<path fill="#ffffff" d="
  M 86.41 66.04
  Q 86.34 66.42 86.78 66.48
  Q 89.39 66.87 90.51 69.52
  Q 93.43 76.43 94.54 79.72
  Q 95.90 83.74 99.27 87.26
  A 1.02 1.02 0.0 0 1 98.34 88.97
  L 95.58 88.43
  A 0.49 0.49 0.0 0 0 95.12 88.57
  Q 94.02 89.65 91.38 89.34
  A 0.34 0.34 0.0 0 0 91.02 89.79
  C 92.14 92.95 95.42 97.88 95.23 100.65
  Q 94.96 104.80 90.81 105.24
  A 0.82 0.82 0.0 0 0 90.10 106.24
  L 91.04 110.43
  A 1.18 1.00 48.3 0 1 91.05 110.82
  L 88.85 125.51
  A 0.47 0.46 -52.5 0 0 88.88 125.76
  L 92.59 134.58
  A 0.76 0.76 0.0 0 1 91.47 135.51
  Q 89.41 134.15 88.87 131.02
  A 0.13 0.13 0.0 0 0 88.62 131.02
  C 87.89 134.35 90.25 136.31 92.54 139.30
  A 2.31 2.30 21.1 0 1 92.99 140.31
  Q 93.39 142.45 93.06 144.24
  A 1.21 1.20 84.0 0 1 92.34 145.13
  C 82.40 149.17 79.56 136.24 80.76 129.43
  A 3.37 3.31 -51.6 0 0 80.56 127.54
  C 79.31 124.47 79.97 120.87 79.17 117.29
  Q 77.92 111.68 78.16 107.30
  A 0.56 0.56 0.0 0 0 77.50 106.72
  L 76.59 106.88
  A 1.01 1.01 0.0 0 1 75.54 106.38
  L 72.72 101.51
  A 0.58 0.57 -54.5 0 0 71.66 101.69
  L 71.02 104.94
  A 1.44 1.44 0.0 0 1 69.98 106.04
  L 67.41 106.72
  A 0.91 0.90 83.6 0 0 66.74 107.57
  Q 66.72 108.29 67.37 109.79
  A 2.54 2.49 39.4 0 1 67.53 111.27
  L 62.96 134.36
  A 1.99 1.96 -50.4 0 0 63.05 135.41
  Q 64.59 139.58 63.44 145.50
  A 2.48 2.48 0.0 0 1 60.64 147.48
  L 56.23 146.82
  A 2.26 2.19 -19.4 0 1 55.14 146.32
  C 51.45 143.14 54.87 137.41 55.48 134.03
  A 1.36 1.35 25.0 0 0 55.02 132.77
  Q 53.82 131.75 53.61 131.01
  A 1.00 0.98 61.1 0 1 53.88 130.04
  Q 56.13 127.88 55.58 124.00
  Q 55.01 119.93 54.31 110.63
  A 4.14 4.01 -38.7 0 1 54.51 109.04
  L 54.96 107.72
  A 1.30 1.30 0.0 0 0 54.05 106.05
  Q 51.15 105.31 50.58 103.54
  C 50.11 102.11 51.24 100.51 51.87 99.05
  A 10.99 10.77 62.9 0 0 52.52 96.96
  Q 53.29 93.02 54.67 90.13
  A 0.45 0.45 0.0 0 0 54.13 89.51
  Q 51.62 90.33 49.31 89.93
  A 1.46 1.27 -19.9 0 1 48.82 89.74
  L 45.01 87.32
  A 0.37 0.36 31.0 0 1 44.88 86.83
  L 49.52 78.79
  A 0.70 0.70 0.0 0 0 49.05 77.75
  L 48.57 77.65
  A 0.93 0.93 0.0 0 1 48.36 75.89
  Q 51.13 74.61 50.34 72.52
  A 1.10 1.08 -37.6 0 1 50.48 71.49
  Q 53.31 67.67 56.95 66.25
  A 0.92 0.91 72.3 0 0 57.51 65.16
  L 55.58 57.89
  A 0.78 0.36 -69.7 0 1 55.57 57.76
  L 56.68 44.21
  A 2.78 2.76 34.6 0 0 56.41 42.78
  Q 55.17 40.23 53.61 34.85
  Q 51.49 27.47 57.34 23.85
  Q 59.94 22.24 60.88 21.92
  A 3.25 3.17 5.7 0 0 62.12 20.93
  L 65.73 16.19
  A 0.64 0.62 49.3 0 0 65.77 15.51
  L 64.73 13.72
  A 1.55 1.55 0.0 0 1 65.68 11.45
  L 68.81 10.62
  A 0.90 0.90 0.0 0 0 69.45 9.99
  Q 70.34 6.89 72.22 5.07
  A 1.98 1.89 -76.1 0 1 72.88 4.65
  L 77.50 2.85
  A 0.89 0.88 -32.9 0 1 78.46 3.05
  L 82.74 7.33
  A 0.37 0.37 0.0 0 0 83.33 6.91
  Q 82.61 5.42 82.48 3.01
  A 0.30 0.30 0.0 0 1 82.99 2.77
  Q 84.62 4.34 84.95 6.16
  A 0.70 0.70 0.0 0 0 86.25 6.39
  L 87.20 4.73
  A 1.46 1.46 0.0 0 1 89.90 5.21
  L 93.34 24.61
  A 2.95 2.92 -66.4 0 0 93.74 25.65
  C 96.75 30.43 100.33 40.63 92.59 43.08
  A 1.79 1.78 51.8 0 1 91.11 42.90
  Q 90.10 42.28 89.39 42.20
  A 1.30 1.29 -63.8 0 0 88.31 42.57
  Q 86.34 44.61 86.28 46.56
  Q 86.14 51.11 84.68 55.17
  A 1.10 1.00 -71.2 0 0 85.29 56.57
  Q 86.88 57.05 86.22 60.07
  Q 86.00 61.06 87.07 61.82
  Q 88.33 62.70 88.92 64.57
  Q 89.26 65.64 88.54 65.85
  Q 87.83 66.07 86.90 65.75
  A 0.38 0.38 0.0 0 0 86.41 66.04
  Z
  M 68.06 24.52
  L 68.04 22.44
  A 0.48 0.48 0.0 0 0 67.55 21.97
  L 67.43 21.97
  A 2.32 1.40 -0.8 0 0 65.13 23.40
  L 65.13 23.64
  A 2.32 1.40 -0.8 0 0 67.47 25.01
  L 67.59 25.01
  A 0.48 0.48 0.0 0 0 68.06 24.52
  Z
  M 82.03 24.68
  Q 81.86 26.03 82.05 26.69
  A 0.35 0.34 54.9 0 0 82.66 26.80
  Q 83.43 25.72 85.52 26.02
  A 0.37 0.37 0.0 0 0 85.88 25.45
  Q 84.64 23.50 82.59 24.04
  A 0.77 0.76 86.7 0 0 82.03 24.68
  Z"
/>
</svg>
