<?xml version="1.0" encoding="UTF-8" standalone="no"?>
<!DOCTYPE svg PUBLIC "-//W3C//DTD SVG 1.1//EN" "http://www.w3.org/Graphics/SVG/1.1/DTD/svg11.dtd">
<svg xmlns="http://www.w3.org/2000/svg" version="1.1" viewBox="0.00 0.00 150.00 150.00">
<path fill="#ffffff" d="
  M 98.65 92.01
  A 0.31 0.31 0.0 0 0 98.27 92.50
  C 100.00 94.32 101.35 95.36 102.90 97.45
  Q 104.41 99.47 108.33 102.67
  C 111.64 105.37 107.36 108.78 104.03 107.41
  A 1.20 1.13 86.3 0 1 103.44 106.86
  L 98.65 97.61
  A 0.09 0.08 64.8 0 0 98.54 97.56
  L 98.29 97.64
  A 0.32 0.32 0.0 0 0 98.09 98.05
  Q 99.13 100.90 99.36 102.23
  C 99.60 103.62 98.25 105.12 98.44 106.29
  C 98.86 108.84 99.75 109.31 101.95 110.65
  A 0.93 0.93 0.0 0 1 102.22 111.98
  L 99.80 115.36
  A 0.38 0.38 0.0 0 0 99.84 115.85
  L 101.39 117.40
  A 1.56 1.49 -77.5 0 1 101.73 117.96
  C 103.94 124.98 105.64 130.45 109.60 135.53
  A 3.98 3.94 26.5 0 1 110.42 137.94
  C 110.41 141.31 113.64 142.94 111.63 146.25
  A 1.14 1.12 12.2 0 1 110.65 146.87
  L 105.29 147.00
  A 1.39 1.37 -23.0 0 1 104.30 146.61
  C 102.18 144.53 102.20 142.34 102.36 139.11
  A 0.77 0.74 28.2 0 0 102.20 138.62
  L 90.43 122.91
  A 1.45 1.39 27.8 0 1 90.15 122.07
  L 90.15 120.87
  A 0.73 0.73 0.0 0 0 89.62 120.17
  Q 84.97 118.85 84.17 118.26
  Q 80.78 115.80 80.17 111.50
  A 0.44 0.44 0.0 0 0 79.43 111.24
  C 77.07 113.45 75.90 115.10 72.68 113.99
  A 1.24 1.24 0.0 0 0 71.10 115.56
  L 73.70 123.36
  A 1.27 1.20 -51.2 0 1 73.75 123.96
  L 73.37 126.32
  A 2.09 2.04 37.0 0 0 73.56 127.55
  Q 74.81 130.09 75.91 132.41
  Q 77.58 135.96 73.47 137.29
  A 1.93 1.86 35.8 0 1 72.83 137.38
  Q 67.11 137.24 61.11 138.02
  A 2.12 1.88 -1.7 0 1 58.71 136.02
  C 58.87 134.19 62.43 132.68 63.95 132.68
  A 0.53 0.52 -1.0 0 0 64.48 132.14
  Q 64.43 130.33 65.76 128.36
  A 1.07 1.05 42.3 0 0 65.69 127.08
  Q 63.29 124.29 61.62 119.53
  A 0.44 0.44 0.0 0 0 60.94 119.32
  L 60.68 119.52
  A 0.40 0.39 61.0 0 0 60.55 119.99
  L 61.44 122.02
  A 1.01 1.01 0.0 0 1 60.06 123.33
  Q 58.61 122.62 57.94 121.00
  A 1.43 1.43 0.0 0 1 57.91 120.03
  Q 58.65 117.72 59.99 116.19
  A 0.67 0.66 -50.5 0 0 59.90 115.23
  L 55.57 111.81
  A 1.85 1.82 18.0 0 1 54.87 110.46
  C 54.67 106.90 56.42 104.87 58.99 101.30
  A 0.72 0.71 -45.8 0 0 58.98 100.45
  L 55.09 95.26
  A 0.52 0.52 0.0 0 1 55.59 94.43
  C 57.60 94.74 58.71 93.55 60.63 93.35
  Q 63.41 93.07 66.92 91.63
  A 1.20 1.19 75.8 0 0 67.65 90.39
  Q 67.20 86.61 70.28 85.71
  A 0.41 0.41 0.0 0 0 70.13 84.91
  C 68.17 85.05 66.01 85.34 65.14 84.10
  A 1.18 1.01 -18.2 0 1 66.12 82.48
  Q 68.33 82.28 71.38 82.64
  A 0.54 0.54 0.0 0 0 71.90 81.81
  C 69.98 78.83 63.59 78.03 59.78 77.10
  A 1.06 1.06 0.0 0 1 59.25 75.35
  L 59.31 75.29
  A 3.08 3.08 0.0 0 1 62.27 74.52
  L 70.43 76.77
  A 0.37 0.36 88.5 0 0 70.87 76.30
  L 70.31 74.65
  A 4.12 4.04 36.3 0 1 70.10 73.36
  L 70.10 67.65
  A 6.88 6.84 -62.1 0 0 68.94 63.83
  L 65.38 58.51
  A 5.68 5.49 -86.3 0 0 64.55 57.53
  L 57.37 50.59
  A 0.83 0.81 -60.9 0 1 57.14 49.76
  Q 59.17 42.67 60.19 40.07
  Q 61.97 35.57 62.07 32.76
  Q 62.23 27.95 62.16 27.00
  A 10.44 10.38 -59.1 0 0 61.31 23.57
  L 52.75 4.01
  A 0.54 0.54 0.0 0 1 53.39 3.28
  L 53.83 3.40
  A 1.43 1.42 83.3 0 1 54.70 4.09
  Q 59.53 13.22 63.86 23.62
  Q 64.05 24.08 65.89 25.26
  A 2.27 2.26 87.4 0 1 66.49 25.81
  Q 68.97 29.01 68.34 32.23
  A 1.69 1.66 -62.5 0 0 68.81 33.76
  Q 70.71 35.59 72.12 39.23
  A 0.79 0.79 0.0 0 0 73.65 38.98
  Q 73.77 36.61 76.02 35.40
  A 0.38 0.38 0.0 0 1 76.56 35.83
  L 75.92 38.14
  A 0.23 0.22 81.0 0 0 76.26 38.39
  Q 77.42 37.62 80.50 38.82
  A 0.49 0.49 0.0 0 0 81.15 38.23
  Q 80.64 36.32 78.40 35.27
  A 0.31 0.31 0.0 0 1 78.24 34.92
  L 78.31 34.67
  A 0.20 0.20 0.0 0 1 78.56 34.53
  Q 85.48 36.47 83.66 43.01
  A 0.32 0.32 0.0 0 0 84.17 43.34
  C 85.71 42.05 87.35 41.83 88.50 43.70
  A 0.58 0.58 0.0 0 1 88.57 44.17
  L 87.42 48.36
  A 0.81 0.81 0.0 0 0 87.45 48.87
  C 88.29 50.99 89.63 52.26 91.63 53.52
  A 1.33 1.33 0.0 0 1 92.25 54.61
  C 92.29 56.49 93.88 59.09 94.41 61.58
  Q 95.78 68.02 95.39 71.49
  Q 95.23 72.99 92.87 80.90
  A 1.39 1.38 40.4 0 0 92.95 81.89
  Q 93.16 82.31 93.79 82.80
  A 0.89 0.89 0.0 0 1 94.11 83.76
  L 93.80 84.92
  A 1.23 1.23 0.0 0 0 94.44 86.36
  Q 107.11 92.59 119.91 100.65
  A 1.18 1.17 -59.0 0 1 120.30 102.23
  L 119.71 103.25
  A 0.79 0.78 29.8 0 1 118.63 103.54
  L 98.65 92.01
  Z
  M 69.97 50.21
  Q 67.97 48.61 66.20 42.98
  Q 66.14 42.80 66.34 41.71
  A 0.13 0.13 0.0 0 0 66.13 41.58
  L 65.85 41.79
  A 0.28 0.27 72.6 0 0 65.74 42.01
  L 65.64 46.96
  A 1.43 1.42 -68.6 0 0 66.12 48.07
  Q 69.59 51.14 69.67 51.14
  A 0.52 0.52 0.0 0 0 69.97 50.21
  Z"
/>
</svg>
