<?xml version="1.0" encoding="UTF-8" standalone="no"?>
<!DOCTYPE svg PUBLIC "-//W3C//DTD SVG 1.1//EN" "http://www.w3.org/Graphics/SVG/1.1/DTD/svg11.dtd">
<svg xmlns="http://www.w3.org/2000/svg" version="1.1" viewBox="0.00 0.00 150.00 150.00">
<path fill="#ffffff" d="
  M 108.49 66.50
  Q 108.13 69.58 110.40 71.69
  A 0.38 0.37 59.2 0 1 110.24 72.33
  L 105.97 73.40
  A 0.75 0.74 71.6 0 0 105.47 74.41
  C 107.58 79.41 106.69 83.05 112.32 85.83
  A 1.30 1.30 0.0 0 1 112.98 87.40
  Q 111.78 91.16 109.17 93.15
  A 0.67 0.66 52.1 0 0 109.06 94.10
  L 110.06 95.36
  A 2.87 2.85 -71.4 0 1 110.60 96.46
  L 114.15 110.61
  A 3.88 3.73 -68.8 0 0 114.58 111.64
  Q 117.27 116.01 117.72 120.93
  A 3.39 3.31 -62.1 0 0 118.09 122.19
  L 120.54 126.94
  A 3.09 3.01 31.2 0 1 120.88 128.25
  L 121.08 139.03
  A 0.89 0.81 53.6 0 1 121.05 139.32
  Q 118.86 147.25 111.33 145.64
  C 106.84 144.67 107.01 143.75 106.56 139.27
  A 2.41 2.16 51.3 0 1 106.60 138.53
  L 108.14 131.39
  A 3.91 3.86 -22.1 0 1 108.75 129.97
  L 109.75 128.52
  A 0.96 0.95 39.6 0 0 109.63 127.31
  L 107.55 125.22
  A 4.69 4.58 -81.2 0 1 106.67 123.99
  C 105.47 121.58 104.43 119.04 102.47 116.29
  Q 96.26 107.58 94.11 102.65
  Q 93.46 101.15 93.41 99.31
  A 2.51 2.51 0.0 0 0 91.14 96.87
  C 87.59 96.52 84.90 96.33 82.79 93.21
  Q 79.99 89.04 79.24 84.11
  A 0.41 0.41 0.0 0 0 78.54 83.88
  L 71.43 90.99
  A 1.43 1.33 -72.5 0 1 70.78 91.36
  Q 68.55 91.91 66.94 90.93
  A 0.34 0.34 0.0 0 0 66.42 91.21
  C 66.29 93.80 65.19 96.05 65.22 99.28
  Q 65.26 105.26 62.48 110.98
  Q 61.86 112.26 61.75 117.73
  A 1.52 1.52 0.0 0 0 62.06 118.68
  L 63.64 120.76
  A 1.15 1.13 -59.4 0 1 63.86 121.64
  Q 63.50 123.96 62.01 125.06
  Q 55.41 129.91 47.91 132.05
  Q 45.70 132.68 42.98 130.48
  A 0.89 0.89 0.0 0 1 42.68 129.57
  Q 43.45 126.60 44.54 125.77
  C 48.15 123.03 49.41 122.56 50.61 118.56
  A 2.29 2.13 74.9 0 1 51.03 117.76
  L 52.26 116.25
  A 1.33 1.32 34.6 0 0 51.89 114.27
  L 49.70 113.01
  A 1.05 1.05 0.0 0 1 49.70 111.19
  L 52.08 109.81
  A 0.47 0.46 74.2 0 0 52.32 109.37
  L 51.90 101.33
  A 1.52 1.52 0.0 0 0 51.58 100.49
  L 50.51 99.15
  A 2.72 2.64 -68.7 0 1 49.96 97.85
  L 49.41 93.53
  A 1.87 1.87 0.0 0 1 49.81 92.12
  L 51.91 89.54
  A 1.90 1.90 0.0 0 0 51.13 86.57
  Q 48.17 85.39 46.66 81.29
  A 0.91 0.90 -29.9 0 1 46.94 80.28
  C 48.00 79.40 49.33 79.32 50.34 80.51
  Q 50.87 81.15 51.51 81.12
  A 0.49 0.49 0.0 0 0 51.95 80.45
  Q 51.51 79.29 50.74 79.11
  A 1.03 0.89 -66.0 0 1 50.29 77.61
  Q 51.31 76.01 52.56 76.97
  Q 53.05 77.35 53.66 78.00
  A 0.29 0.29 0.0 0 0 54.12 77.94
  L 54.25 77.72
  A 0.06 0.06 0.0 0 0 54.23 77.64
  Q 51.58 75.92 51.13 73.61
  A 1.39 1.38 -28.4 0 1 51.51 72.35
  L 57.45 66.41
  A 0.92 0.91 28.4 0 0 56.99 64.87
  L 56.14 64.69
  A 3.55 3.55 0.0 0 0 53.36 65.24
  C 51.67 66.39 50.59 67.09 49.25 67.49
  A 0.78 0.77 14.2 0 1 48.48 66.20
  L 51.73 62.95
  A 0.60 0.59 -45.3 0 0 51.73 62.10
  L 48.99 59.35
  A 1.26 1.26 0.0 0 1 49.74 57.21
  Q 53.41 56.80 56.57 55.33
  A 0.90 0.89 -42.3 0 0 56.65 53.74
  L 51.43 50.69
  A 5.06 4.92 -27.0 0 0 49.33 50.04
  Q 48.01 49.94 46.44 50.94
  Q 45.63 51.47 44.84 50.10
  A 0.74 0.72 37.5 0 1 44.77 49.62
  L 45.65 45.55
  A 1.08 1.08 0.0 0 0 45.23 44.46
  Q 42.97 42.85 40.37 42.14
  A 1.39 1.38 -7.5 0 1 39.57 41.53
  Q 39.26 41.01 39.25 39.82
  A 0.66 0.65 6.0 0 0 38.73 39.18
  L 35.71 38.53
  A 0.75 0.74 35.5 0 0 35.15 38.62
  L 32.11 40.37
  A 0.45 0.45 0.0 0 1 31.43 39.99
  Q 31.35 37.55 29.68 36.28
  C 27.40 34.55 25.49 32.35 24.19 30.75
  A 1.01 1.00 76.5 0 1 25.18 29.13
  L 26.00 29.30
  A 0.46 0.46 0.0 0 0 26.54 28.71
  Q 25.20 24.67 22.33 21.28
  A 0.55 0.54 -9.7 0 1 22.94 20.42
  Q 23.53 20.65 24.61 21.53
  A 0.66 0.66 0.0 0 0 25.68 20.98
  C 25.52 18.44 30.57 13.86 32.99 11.72
  C 35.90 9.14 37.36 9.70 41.27 9.80
  A 4.78 4.66 -53.7 0 0 43.08 9.50
  Q 46.14 8.33 48.90 8.58
  C 51.39 8.81 52.98 7.79 54.76 6.45
  A 0.70 0.70 0.0 0 1 55.75 6.61
  Q 57.79 9.55 61.66 7.93
  Q 66.83 5.76 72.45 2.94
  Q 72.94 2.70 73.40 2.80
  A 1.27 1.27 0.0 0 1 74.07 4.95
  L 69.13 9.91
  A 3.52 3.39 -76.5 0 1 67.86 10.72
  L 56.39 14.89
  A 0.63 0.63 0.0 0 0 56.24 15.99
  C 57.08 16.59 57.70 16.55 58.52 15.89
  C 59.49 15.11 59.78 14.63 60.92 14.50
  C 63.35 14.21 64.49 12.89 66.79 13.03
  C 69.96 13.22 70.43 10.01 73.23 9.87
  C 76.63 9.71 78.83 8.65 82.00 8.13
  Q 86.66 7.37 91.28 6.09
  C 96.48 4.64 97.78 7.40 101.38 9.63
  Q 107.42 13.36 111.61 19.41
  A 6.57 6.49 3.2 0 0 112.76 20.68
  Q 118.88 25.87 122.98 34.07
  A 1.70 1.66 38.6 0 1 123.12 35.19
  L 122.18 39.59
  A 0.71 0.70 8.2 0 0 122.82 40.44
  L 137.58 41.43
  A 2.23 2.23 0.0 0 1 139.66 43.53
  L 139.67 43.72
  A 2.01 2.00 -89.8 0 1 137.49 45.89
  Q 128.02 45.04 121.92 44.51
  C 115.81 43.98 110.18 44.23 105.22 44.01
  A 0.44 0.44 0.0 0 0 104.81 44.65
  Q 107.25 49.22 110.58 52.61
  Q 111.67 53.72 111.94 55.08
  C 112.95 60.04 117.43 64.07 121.30 67.70
  A 0.32 0.31 -26.0 0 1 121.11 68.24
  Q 116.58 68.65 111.73 68.09
  Q 111.24 68.03 109.09 66.25
  A 0.37 0.37 0.0 0 0 108.49 66.50
  Z
  M 54.00 15.07
  L 47.20 11.72
  A 0.24 0.24 0.0 0 0 46.88 11.83
  L 46.86 11.87
  A 2.55 2.38 26.2 0 0 48.09 15.13
  L 50.75 16.44
  A 2.55 2.38 26.2 0 0 54.09 15.43
  L 54.11 15.39
  A 0.24 0.24 0.0 0 0 54.00 15.07
  Z
  M 86.35 21.64
  A 0.77 0.77 0.0 0 0 85.81 22.82
  C 87.34 25.14 88.91 26.12 89.71 28.98
  Q 90.63 32.32 93.61 33.48
  A 1.52 1.51 -0.9 0 1 94.45 34.29
  L 95.55 36.71
  A 0.85 0.85 0.0 0 0 95.94 37.13
  L 100.38 39.49
  A 1.21 1.14 58.0 0 0 100.95 39.64
  L 113.86 39.64
  A 0.81 0.81 0.0 0 0 114.65 39.00
  Q 114.90 37.74 115.92 36.94
  Q 116.84 36.22 116.78 35.82
  Q 116.70 35.21 116.02 34.54
  A 1.25 1.24 19.8 0 0 113.91 35.53
  Q 113.97 36.30 113.65 37.45
  A 1.39 1.39 0.0 0 1 111.21 37.93
  Q 109.78 36.09 109.43 32.05
  A 3.17 3.15 -69.7 0 0 108.56 30.14
  Q 105.70 27.15 102.25 25.13
  A 1.56 1.26 -4.1 0 1 102.08 25.02
  L 93.63 18.15
  A 1.20 1.20 0.0 0 0 91.91 18.36
  Q 89.77 21.20 86.35 21.64
  Z"
/>
<path fill="#ffffff" d="
  M 38.27 71.36
  A 0.68 0.68 0.0 0 1 37.41 72.24
  Q 34.97 71.39 33.08 69.06
  A 1.56 1.53 23.5 0 1 32.74 68.22
  C 32.62 66.58 32.69 65.43 33.90 64.06
  Q 39.25 58.00 37.72 48.57
  A 0.06 0.06 0.0 0 1 37.84 48.54
  Q 37.94 48.75 37.66 48.49
  A 0.68 0.68 0.0 0 0 36.53 48.84
  L 34.47 58.41
  A 1.21 1.19 -11.4 0 1 33.98 59.14
  Q 32.39 60.21 30.06 65.32
  C 29.37 66.85 27.14 68.29 26.29 70.12
  Q 23.93 75.21 25.91 80.02
  A 1.54 1.50 44.2 0 1 25.94 81.10
  L 25.09 83.52
  A 0.98 0.98 0.0 0 1 23.55 83.96
  L 23.30 83.75
  A 1.37 1.37 0.0 0 1 23.07 81.86
  Q 24.85 79.51 24.03 77.21
  A 2.09 2.08 43.3 0 1 23.99 75.98
  Q 25.78 69.41 26.68 67.66
  Q 29.69 61.77 29.67 60.33
  A 1.54 1.53 63.8 0 1 30.00 59.35
  Q 33.81 54.66 34.71 46.94
  A 1.63 1.63 0.0 0 0 33.09 45.11
  Q 29.91 45.10 27.08 47.65
  A 0.64 0.63 -46.1 0 1 26.25 47.67
  L 26.02 47.48
  A 0.27 0.26 40.0 0 1 25.98 47.09
  Q 29.03 43.66 32.91 43.32
  A 1.13 1.11 16.8 0 0 33.69 42.91
  L 35.63 40.53
  A 1.10 1.10 0.0 0 1 37.53 40.89
  Q 38.70 44.67 41.64 47.43
  A 2.86 2.85 -65.6 0 1 42.53 49.82
  Q 42.12 53.68 39.91 55.89
  A 3.35 3.32 -16.9 0 0 39.00 57.58
  Q 38.52 59.95 36.69 63.59
  C 35.88 65.21 37.81 65.85 37.23 67.54
  A 1.44 1.42 -46.1 0 0 37.24 68.51
  L 38.27 71.36
  Z"
/>
<ellipse fill="#ffffff" cx="0.00" cy="0.00" transform="translate(20.49,49.32) rotate(-147.4)" rx="1.02" ry="0.84"/>
<rect fill="#ffffff" x="-0.77" y="-3.57" transform="translate(42.76,58.01) rotate(-9.0)" width="1.54" height="7.14" rx="0.51"/>
<circle fill="#ffffff" cx="45.01" cy="64.24" r="0.53"/>
<ellipse fill="#ffffff" cx="0.00" cy="0.00" transform="translate(42.69,67.87) rotate(-141.4)" rx="0.46" ry="0.30"/>
<path fill="#ffffff" d="
  M 34.18 72.97
  A 0.47 0.47 0.0 0 1 35.03 73.26
  Q 35.00 76.79 35.39 77.77
  A 0.32 0.24 -63.4 0 1 35.41 77.88
  L 34.84 87.85
  A 0.93 0.93 0.0 0 1 33.85 88.73
  L 33.42 88.70
  A 0.61 0.60 7.9 0 1 32.87 87.98
  Q 33.55 84.62 31.12 80.24
  Q 30.49 79.12 31.20 77.05
  A 0.62 0.61 -72.5 0 1 31.96 76.65
  Q 32.07 76.69 32.63 77.30
  Q 33.10 77.81 33.44 77.59
  Q 33.74 77.39 33.82 77.06
  Q 33.90 76.72 33.84 76.45
  Q 33.35 74.09 34.18 72.97
  Z"
/>
<path fill="#ffffff" d="
  M 32.35 90.45
  L 35.18 92.75
  A 0.46 0.37 -83.7 0 1 35.32 92.97
  Q 35.83 94.75 35.37 95.78
  A 1.25 1.25 0.0 0 1 33.02 95.58
  L 31.82 90.79
  A 0.33 0.33 0.0 0 1 32.35 90.45
  Z"
/>
</svg>
