<?xml version="1.0" encoding="UTF-8" standalone="no"?>
<!DOCTYPE svg PUBLIC "-//W3C//DTD SVG 1.1//EN" "http://www.w3.org/Graphics/SVG/1.1/DTD/svg11.dtd">
<svg xmlns="http://www.w3.org/2000/svg" version="1.1" viewBox="0.00 0.00 150.00 150.00">
<path fill="#ffffff" d="
  M 54.60 87.37
  Q 52.52 87.89 49.26 87.12
  A 0.54 0.54 0.0 0 1 48.86 86.48
  C 51.11 76.04 55.71 69.36 62.21 57.49
  C 62.91 56.19 61.76 54.07 62.34 53.15
  Q 63.12 51.89 65.47 52.38
  A 0.80 0.80 0.0 0 0 66.44 51.63
  L 66.56 48.73
  A 4.71 4.65 59.0 0 1 66.99 46.96
  Q 67.65 45.38 70.08 40.19
  Q 70.87 38.51 68.95 37.00
  A 0.40 0.40 0.0 0 1 69.07 36.31
  L 71.65 35.52
  A 1.63 1.63 0.0 0 0 72.13 35.28
  L 75.92 32.40
  A 0.60 0.60 0.0 0 0 75.82 31.38
  Q 74.41 30.71 74.80 29.69
  A 1.37 1.28 -42.1 0 1 77.34 29.73
  Q 77.77 31.82 80.34 32.73
  A 0.82 0.82 0.0 0 0 81.20 31.39
  Q 79.69 29.83 79.69 29.80
  A 0.32 0.31 7.2 0 1 80.15 29.45
  Q 82.85 30.99 84.13 33.20
  A 1.04 1.04 0.0 0 1 83.96 34.45
  L 83.21 35.20
  A 0.59 0.59 0.0 0 0 83.26 36.08
  Q 84.22 36.84 85.67 40.52
  A 1.62 1.59 42.8 0 1 85.72 41.55
  L 85.42 42.61
  A 1.18 1.18 0.0 0 0 87.19 43.94
  Q 92.04 40.86 97.03 36.13
  Q 98.97 34.29 103.18 28.66
  Q 106.94 23.64 111.45 20.20
  Q 111.88 19.88 113.13 16.41
  A 0.71 0.69 -57.9 0 0 112.97 15.68
  L 109.88 12.60
  A 1.02 1.01 -40.6 0 0 108.55 12.50
  Q 106.51 14.01 105.41 13.84
  A 1.35 1.08 -57.6 0 1 105.17 11.65
  Q 106.95 10.04 109.62 9.76
  A 0.59 0.59 0.0 0 0 109.86 8.67
  L 108.84 8.09
  A 1.00 1.00 0.0 0 1 108.80 6.38
  L 112.19 4.21
  A 0.87 0.85 31.0 0 1 112.74 4.08
  L 117.80 4.73
  A 1.31 1.30 17.3 0 1 118.80 6.62
  Q 117.57 9.03 116.24 10.16
  A 1.71 1.69 -17.1 0 0 115.66 11.24
  L 115.16 15.11
  A 0.26 0.25 -17.1 0 0 115.58 15.33
  Q 116.78 14.32 118.22 14.89
  A 1.79 1.71 -66.7 0 1 119.11 17.27
  Q 118.11 19.44 117.09 21.61
  A 17.04 16.52 -15.7 0 1 115.57 24.22
  C 113.10 27.69 111.02 30.14 108.52 34.53
  Q 104.69 41.25 98.84 46.85
  C 97.36 48.28 95.36 51.24 94.32 54.13
  Q 92.96 57.91 89.41 63.65
  A 3.13 3.10 69.2 0 0 89.06 64.44
  L 86.18 74.44
  A 1.48 1.47 -52.4 0 0 86.33 75.63
  Q 87.05 76.87 86.18 78.25
  A 0.67 0.66 -58.5 0 0 86.40 79.19
  L 87.50 79.84
  A 2.05 1.99 86.1 0 1 88.11 80.39
  C 88.54 80.97 88.62 82.30 89.33 83.28
  Q 96.39 93.09 103.25 104.66
  A 1.15 1.15 0.0 0 1 102.60 106.35
  L 102.17 106.48
  A 1.36 1.36 0.0 0 1 100.63 105.92
  L 85.82 82.83
  A 0.07 0.06 54.1 0 0 85.73 82.81
  L 85.48 82.96
  A 0.19 0.18 -35.3 0 0 85.43 83.22
  C 88.67 87.72 89.61 92.54 90.22 98.06
  A 1.98 1.59 38.8 0 0 90.29 98.38
  L 92.39 105.22
  A 0.63 0.63 0.0 0 1 91.98 106.01
  Q 89.18 106.88 86.71 105.52
  A 0.44 0.44 0.0 0 0 86.06 105.91
  L 86.06 110.21
  A 1.71 1.69 25.8 0 0 86.44 111.28
  L 88.74 114.05
  A 1.76 1.76 0.0 0 1 88.15 116.75
  Q 86.63 117.48 84.99 117.57
  A 0.58 0.57 72.1 0 0 84.54 118.46
  L 85.56 120.05
  A 1.45 1.44 33.8 0 1 85.77 121.09
  C 84.91 125.86 82.94 132.33 85.61 137.27
  A 2.97 2.94 36.2 0 1 85.92 139.19
  Q 85.52 141.32 86.05 144.43
  A 2.05 2.05 0.0 0 1 84.03 146.83
  L 79.49 146.83
  A 1.27 1.26 75.7 0 1 78.38 146.17
  Q 77.22 143.99 77.27 142.23
  C 77.51 134.88 75.62 128.15 73.97 122.03
  A 2.20 2.11 -45.6 0 1 73.98 120.86
  L 74.36 119.53
  A 0.72 0.72 0.0 0 0 73.76 118.62
  Q 69.56 118.07 69.18 112.97
  A 0.32 0.31 59.3 0 0 68.60 112.82
  L 66.14 116.65
  A 1.18 1.12 -25.0 0 0 65.97 117.08
  C 65.33 121.09 65.67 125.02 64.62 129.06
  A 1.05 1.02 36.7 0 0 64.75 129.89
  L 66.15 132.07
  A 2.55 2.54 47.9 0 1 66.01 135.02
  C 63.64 138.05 58.16 141.00 54.64 142.46
  A 2.49 2.41 -22.5 0 1 51.41 141.18
  Q 50.39 138.71 54.31 135.46
  Q 55.45 134.51 55.37 133.37
  Q 55.15 130.20 57.75 127.39
  A 1.13 1.13 0.0 0 0 57.64 125.76
  Q 55.85 124.26 54.96 121.62
  A 1.94 1.92 -48.7 0 1 54.90 120.60
  L 55.62 117.35
  A 1.06 1.05 21.5 0 0 55.12 116.22
  L 52.00 114.42
  A 1.98 1.98 0.0 0 1 51.59 111.30
  L 53.74 109.15
  A 0.88 0.87 -26.7 0 0 53.99 108.41
  Q 53.68 106.41 54.87 104.54
  C 56.75 101.59 56.70 100.96 57.16 97.28
  A 0.76 0.76 0.0 0 0 55.81 96.72
  Q 55.54 97.07 55.10 98.54
  C 54.29 101.21 52.16 101.98 49.66 100.68
  A 1.63 1.62 -61.4 0 1 49.00 98.43
  L 55.05 87.96
  A 0.40 0.40 0.0 0 0 54.60 87.37
  Z
  M 59.98 79.51
  L 58.92 78.91
  A 0.15 0.15 0.0 0 0 58.71 78.96
  L 58.54 79.28
  A 7.21 0.73 -60.2 0 0 55.59 85.89
  L 55.64 85.92
  A 7.21 0.73 -60.2 0 0 59.85 80.03
  L 60.03 79.72
  A 0.15 0.15 0.0 0 0 59.98 79.51
  Z"
/>
</svg>
