<?xml version="1.0" encoding="UTF-8" standalone="no"?>
<!DOCTYPE svg PUBLIC "-//W3C//DTD SVG 1.1//EN" "http://www.w3.org/Graphics/SVG/1.1/DTD/svg11.dtd">
<svg xmlns="http://www.w3.org/2000/svg" version="1.1" viewBox="0.00 0.00 150.00 150.00">
<path fill="#ffffff" d="
  M 61.29 58.93
  Q 58.64 59.24 57.71 57.22
  A 0.93 0.92 -33.6 0 1 57.93 56.14
  Q 60.27 54.04 60.36 49.87
  A 1.54 1.53 -77.7 0 0 59.43 48.41
  L 52.72 45.50
  A 1.63 1.62 23.5 0 1 51.87 43.36
  L 51.90 43.31
  A 1.66 1.66 0.0 0 1 54.06 42.49
  L 59.48 44.83
  A 0.53 0.53 0.0 0 0 60.20 44.19
  C 58.91 39.92 54.97 37.81 50.94 36.68
  C 47.90 35.83 45.72 34.20 42.75 33.26
  A 0.97 0.96 7.1 0 1 42.07 32.40
  C 41.85 29.32 41.47 26.97 41.84 23.86
  Q 42.31 19.98 42.26 14.80
  Q 42.26 13.95 43.98 8.15
  C 45.69 2.41 50.11 6.59 51.58 9.31
  A 2.70 2.70 0.0 0 1 51.23 12.42
  L 49.28 14.58
  A 1.78 1.77 69.2 0 0 48.83 15.59
  Q 48.18 21.30 49.80 25.61
  A 2.29 2.28 -7.5 0 0 51.74 27.09
  Q 58.22 27.65 61.98 29.40
  A 0.50 0.49 -77.9 0 0 62.68 28.94
  Q 62.68 25.38 63.95 21.71
  A 1.83 1.82 -58.1 0 0 63.51 19.81
  L 60.98 17.28
  A 0.65 0.64 -46.7 0 1 60.96 16.39
  Q 63.20 13.88 65.63 14.52
  A 0.46 0.46 0.0 0 0 66.21 14.07
  Q 66.21 11.48 65.18 9.42
  A 1.56 1.52 -53.6 0 1 65.04 8.40
  Q 65.64 5.49 67.37 3.83
  A 0.74 0.74 0.0 0 1 68.56 4.66
  L 67.55 7.00
  A 0.56 0.56 0.0 0 0 68.34 7.71
  L 71.67 5.78
  A 0.61 0.60 52.5 0 1 72.40 5.88
  L 73.09 6.56
  A 0.81 0.81 0.0 0 0 74.47 5.98
  Q 74.45 4.34 72.53 2.84
  A 0.53 0.52 72.2 0 1 73.00 1.92
  C 77.29 3.19 77.59 7.30 78.82 11.24
  A 0.59 0.59 0.0 0 0 79.56 11.63
  Q 80.37 11.39 81.36 11.00
  A 1.95 1.65 -13.8 0 1 83.98 12.31
  Q 84.09 14.28 83.16 15.59
  A 2.73 2.61 42.4 0 0 83.39 18.91
  Q 85.87 21.74 85.73 24.37
  A 0.90 0.89 -79.7 0 0 86.34 25.26
  L 91.11 26.84
  A 1.21 1.21 0.0 0 1 91.73 27.31
  L 94.53 31.47
  A 3.81 3.80 -65.0 0 1 95.14 33.16
  C 95.36 35.10 95.45 36.39 96.44 38.01
  Q 100.23 44.17 99.47 51.78
  A 1.83 1.82 -16.3 0 1 98.76 53.07
  Q 94.54 56.35 89.41 55.83
  A 1.25 1.25 0.0 0 0 88.31 57.85
  Q 89.49 59.33 88.98 60.52
  A 1.78 1.51 30.1 0 0 89.68 62.48
  Q 101.82 71.05 115.61 82.64
  A 1.51 1.51 0.0 0 1 115.71 84.87
  L 115.40 85.18
  A 1.27 1.26 -46.9 0 1 113.67 85.24
  Q 106.81 79.29 97.89 72.55
  C 94.97 70.33 92.67 69.41 90.52 67.39
  A 0.64 0.63 43.4 0 0 89.63 67.41
  L 89.58 67.47
  A 0.67 0.67 0.0 0 0 89.55 68.35
  Q 89.84 68.70 90.72 68.84
  Q 91.27 68.93 91.62 69.36
  Q 96.72 75.62 97.94 81.14
  A 2.84 2.48 27.1 0 0 98.24 81.89
  L 102.48 89.24
  A 0.66 0.66 0.0 0 1 101.89 90.23
  Q 99.53 90.15 98.90 91.68
  A 0.96 0.93 -80.0 0 1 98.08 92.27
  L 95.94 92.39
  A 0.62 0.62 0.0 0 0 95.36 93.06
  Q 95.65 97.48 99.12 100.44
  C 103.38 104.07 100.97 105.28 97.62 107.58
  A 0.72 0.71 -28.7 0 0 97.36 108.43
  L 98.41 111.11
  A 4.98 4.73 33.7 0 1 98.74 112.57
  L 99.57 126.76
  A 3.29 3.20 32.0 0 0 99.86 127.95
  Q 100.56 129.45 102.33 130.69
  A 0.58 0.57 55.6 0 1 102.14 131.72
  Q 101.30 131.93 100.90 132.27
  A 0.74 0.73 -35.6 0 0 100.74 133.19
  Q 104.24 139.17 106.10 142.86
  Q 106.91 144.46 105.99 146.47
  A 1.42 1.41 3.4 0 1 105.13 147.23
  Q 98.44 149.40 95.32 143.23
  Q 93.75 140.14 93.31 135.54
  A 4.91 4.90 -59.5 0 0 92.90 133.95
  C 91.39 130.58 90.99 127.13 89.35 123.60
  Q 87.71 120.04 85.75 114.98
  Q 85.07 113.22 85.77 111.31
  A 0.73 0.72 -73.4 0 0 85.26 110.36
  L 81.51 109.44
  A 5.42 4.79 57.3 0 1 80.82 109.21
  Q 79.40 108.62 77.94 104.37
  A 0.55 0.54 61.8 0 0 77.10 104.11
  C 76.52 104.55 75.90 105.92 74.91 106.69
  Q 73.96 107.43 71.95 106.43
  A 0.59 0.59 0.0 0 0 71.09 106.96
  L 71.09 118.91
  A 1.61 1.55 -33.2 0 1 70.93 119.60
  Q 68.39 124.59 71.03 129.61
  A 2.75 2.73 55.0 0 1 70.46 132.91
  Q 69.21 134.06 67.28 134.34
  Q 62.33 135.06 57.42 135.94
  C 55.19 136.33 53.68 135.97 52.11 134.60
  A 1.28 1.28 0.0 0 1 51.87 132.95
  Q 53.76 129.93 57.20 129.84
  C 58.27 129.81 59.27 129.35 59.44 128.25
  A 0.60 0.59 -80.0 0 0 58.97 127.57
  Q 58.37 127.44 58.12 126.97
  Q 57.99 126.72 58.28 126.09
  Q 60.23 121.92 61.50 120.57
  A 0.68 0.67 41.1 0 0 61.43 119.58
  Q 60.29 118.65 60.56 116.30
  A 0.92 0.92 0.0 0 0 59.62 115.27
  Q 56.03 115.39 56.73 110.61
  A 1.63 1.60 69.0 0 1 57.09 109.78
  L 58.83 107.66
  A 0.95 0.94 34.7 0 0 58.57 106.24
  L 54.28 103.76
  A 1.56 1.52 -80.2 0 1 53.53 102.67
  Q 52.75 97.84 54.87 93.10
  A 0.67 0.67 0.0 0 0 53.92 92.24
  L 52.26 93.20
  A 0.83 0.82 54.0 0 1 51.23 93.03
  Q 49.68 91.32 49.85 89.99
  C 50.28 86.71 52.53 82.29 53.66 78.66
  Q 54.95 74.54 57.65 70.88
  Q 58.31 69.99 57.72 69.43
  A 0.77 0.76 -63.9 0 1 57.49 68.74
  Q 57.94 66.01 57.17 63.74
  A 1.24 1.24 0.0 0 1 57.41 62.54
  L 60.12 59.45
  A 0.73 0.72 25.1 0 1 60.77 59.22
  Q 60.88 59.24 61.33 59.09
  A 0.08 0.08 0.0 0 0 61.29 58.93
  Z
  M 59.02 69.57
  Q 60.23 69.33 60.87 68.01
  Q 61.44 66.86 60.58 66.13
  A 0.21 0.21 0.0 0 0 60.25 66.36
  Q 60.75 67.61 58.82 69.13
  A 0.25 0.25 0.0 0 0 59.02 69.57
  Z
  M 61.7451 125.2934
  A 0.48 0.21 -57.9 0 0 61.3121 125.5884
  A 0.48 0.21 -57.9 0 0 61.2349 126.1066
  A 0.48 0.21 -57.9 0 0 61.6679 125.8116
  A 0.48 0.21 -57.9 0 0 61.7451 125.2934
  Z"
/>
</svg>
