<?xml version="1.0" encoding="UTF-8" standalone="no"?>
<!DOCTYPE svg PUBLIC "-//W3C//DTD SVG 1.1//EN" "http://www.w3.org/Graphics/SVG/1.1/DTD/svg11.dtd">
<svg xmlns="http://www.w3.org/2000/svg" version="1.1" viewBox="0.00 0.00 150.00 150.00">
<path fill="#ffffff" d="
  M 54.10 71.50
  L 49.78 73.16
  A 0.47 0.44 -5.2 0 0 49.49 73.49
  Q 49.37 74.05 49.66 74.57
  A 1.37 1.36 -5.6 0 1 48.03 76.53
  Q 46.32 75.97 44.60 74.61
  A 2.05 2.01 -84.2 0 1 44.00 73.86
  Q 42.44 70.47 45.16 67.90
  Q 48.60 64.66 52.85 62.45
  A 5.07 5.06 -86.9 0 0 54.72 60.77
  Q 58.28 55.43 58.53 49.84
  A 1.39 1.34 58.2 0 1 58.63 49.38
  L 61.25 43.33
  A 1.18 1.17 -46.2 0 0 61.23 42.36
  L 60.17 40.23
  A 0.53 0.53 0.0 0 1 60.81 39.50
  Q 63.48 40.38 64.00 39.69
  A 2.19 1.93 41.6 0 0 63.67 36.98
  Q 60.25 33.56 59.94 33.22
  A 1.46 1.46 0.0 0 1 60.19 31.01
  Q 61.83 29.90 62.94 31.47
  A 0.03 0.02 58.3 0 0 62.96 31.48
  L 63.51 31.48
  A 0.21 0.21 0.0 0 0 63.71 31.21
  Q 63.49 30.56 62.74 30.13
  A 0.59 0.59 0.0 0 1 62.52 29.33
  Q 64.35 26.02 67.90 25.56
  A 0.69 0.69 0.0 0 0 68.46 24.65
  Q 68.45 24.64 68.28 24.21
  A 0.60 0.60 0.0 0 1 68.84 23.38
  L 69.50 23.38
  A 1.17 1.13 -66.8 0 0 70.31 23.04
  L 74.38 18.97
  A 0.89 0.88 44.8 0 0 74.37 17.71
  Q 73.07 16.45 73.42 14.57
  C 73.81 12.49 72.22 11.31 71.22 9.91
  C 69.04 6.82 75.37 1.70 78.36 3.60
  Q 81.09 5.34 81.03 8.59
  A 0.61 0.61 0.0 0 0 81.71 9.21
  L 83.90 8.99
  A 5.31 5.24 49.0 0 1 85.72 9.13
  Q 88.56 9.84 91.43 10.13
  C 95.78 10.58 98.22 12.33 100.60 15.30
  A 1.70 1.67 -63.7 0 1 100.96 16.40
  C 100.83 20.23 99.33 24.44 99.36 27.40
  C 99.39 30.02 98.59 31.62 98.65 34.57
  C 98.79 40.66 94.39 45.87 92.94 50.75
  Q 92.69 51.60 90.64 59.08
  Q 89.82 62.05 93.07 63.85
  A 1.17 1.17 0.0 0 1 93.63 65.19
  Q 93.37 66.11 93.42 66.62
  A 0.36 0.36 0.0 0 0 93.49 66.80
  L 114.51 95.86
  A 2.19 2.19 0.0 0 1 114.13 98.83
  L 113.83 99.00
  A 1.23 1.23 0.0 0 1 112.20 98.66
  L 95.59 75.71
  A 0.21 0.21 0.0 0 0 95.23 75.92
  C 96.92 79.86 97.25 85.73 100.37 89.62
  Q 100.76 90.12 100.25 90.43
  Q 99.64 90.79 99.07 90.50
  A 0.68 0.64 -88.6 0 0 98.20 91.38
  Q 99.29 94.09 100.00 95.78
  A 0.84 0.84 0.0 0 1 99.74 96.76
  Q 96.46 99.36 93.09 99.30
  A 0.58 0.58 0.0 0 0 92.85 100.41
  L 97.05 102.23
  A 2.03 2.02 -60.1 0 1 97.87 105.30
  Q 96.28 107.47 94.29 107.48
  A 0.75 0.75 0.0 0 0 93.74 108.74
  Q 95.64 110.82 95.98 112.79
  Q 96.02 113.02 97.68 123.34
  Q 98.14 126.21 102.24 134.03
  Q 102.50 134.52 102.63 137.50
  A 2.00 2.00 0.0 0 0 102.93 138.48
  Q 104.56 141.13 103.63 144.38
  A 0.80 0.80 0.0 0 1 102.95 144.95
  Q 98.99 145.35 96.28 145.29
  C 92.09 145.20 91.86 138.55 91.95 135.65
  A 1.63 1.57 27.3 0 0 91.59 134.59
  C 89.74 132.27 89.03 129.23 87.20 126.30
  Q 81.45 117.11 81.10 116.46
  Q 80.38 115.10 80.78 113.36
  A 0.85 0.84 3.4 0 0 79.86 112.33
  Q 74.90 112.88 72.83 109.58
  A 1.07 1.07 0.0 0 0 71.47 109.18
  L 70.27 109.78
  A 1.05 1.05 0.0 0 0 69.79 111.18
  L 74.03 119.75
  A 1.83 1.79 -59.0 0 1 74.22 120.56
  L 74.22 123.62
  A 2.36 2.35 -64.7 0 0 74.75 125.11
  C 77.68 128.73 81.67 134.70 74.18 136.14
  Q 66.82 137.55 59.13 137.51
  Q 57.36 137.50 56.88 136.78
  Q 56.24 135.84 56.95 134.39
  Q 58.40 131.40 61.98 130.73
  A 0.79 0.79 0.0 0 0 62.62 130.02
  Q 62.76 128.19 64.13 126.86
  A 0.60 0.60 0.0 0 0 64.20 126.09
  L 61.53 122.40
  A 0.54 0.54 0.0 0 0 60.77 122.28
  L 60.39 122.55
  A 0.33 0.33 0.0 0 0 60.36 123.05
  Q 61.38 123.99 61.05 125.79
  A 1.24 1.23 24.5 0 1 59.06 126.53
  Q 57.66 125.40 56.18 125.02
  A 0.87 0.87 0.0 0 1 55.53 124.18
  L 55.53 123.02
  A 0.41 0.41 0.0 0 1 56.23 122.72
  Q 56.81 123.27 58.00 123.14
  A 0.38 0.38 0.0 0 0 58.18 122.45
  Q 57.01 121.65 56.17 121.46
  A 0.89 0.88 -68.8 0 1 55.60 120.15
  L 57.34 117.15
  A 0.55 0.55 0.0 0 0 56.94 116.33
  C 55.68 116.15 53.93 116.58 52.44 115.81
  Q 48.68 113.89 49.67 108.74
  Q 51.65 98.51 55.56 89.42
  A 0.51 0.51 0.0 0 0 55.29 88.75
  L 55.00 88.63
  A 0.31 0.31 0.0 0 0 54.61 88.76
  L 51.13 94.79
  A 2.13 2.12 20.3 0 1 48.91 95.81
  Q 46.70 95.39 44.19 93.35
  A 0.77 0.76 -60.0 0 1 43.96 92.48
  Q 46.00 87.06 48.77 82.32
  Q 49.47 81.11 50.78 75.27
  A 0.92 0.91 -15.4 0 1 51.06 74.78
  L 54.28 71.80
  A 0.18 0.18 0.0 0 0 54.10 71.50
  Z
  M 83.90 18.76
  L 86.52 23.60
  A 0.23 0.23 0.0 0 0 86.83 23.69
  L 86.94 23.63
  A 4.10 2.93 -28.4 0 0 89.16 19.10
  L 89.11 19.02
  A 4.10 2.93 -28.4 0 0 84.11 18.39
  L 83.99 18.45
  A 0.23 0.23 0.0 0 0 83.90 18.76
  Z"
/>
</svg>
