<?xml version="1.0" encoding="UTF-8" standalone="no"?>
<!DOCTYPE svg PUBLIC "-//W3C//DTD SVG 1.1//EN" "http://www.w3.org/Graphics/SVG/1.1/DTD/svg11.dtd">
<svg xmlns="http://www.w3.org/2000/svg" version="1.1" viewBox="0.00 0.00 150.00 150.00">
<circle fill="#ffffff" cx="79.34" cy="5.26" r="0.27"/>
<ellipse fill="#ffffff" cx="0.00" cy="0.00" transform="translate(92.56,7.83) rotate(-143.5)" rx="0.67" ry="0.57"/>
<path fill="#ffffff" d="
  M 89.61 28.46
  L 92.20 30.33
  A 0.37 0.28 10.9 0 1 92.28 30.42
  Q 92.50 30.74 92.18 31.25
  Q 92.01 31.51 91.72 31.65
  Q 90.78 32.10 91.04 32.85
  A 1.29 1.28 -83.0 0 0 91.51 33.46
  Q 93.50 34.77 93.84 35.08
  Q 95.74 36.81 96.41 39.70
  Q 97.53 44.54 100.72 49.31
  A 2.06 2.03 -9.6 0 0 101.94 50.16
  L 109.74 52.04
  A 2.47 2.33 46.7 0 0 110.58 52.09
  Q 113.87 51.70 115.43 49.44
  A 2.10 2.07 -49.2 0 1 118.66 49.18
  Q 119.95 50.57 121.73 50.95
  A 1.96 1.95 18.8 0 1 123.08 53.69
  C 121.81 56.38 118.44 58.59 115.35 58.79
  Q 113.13 58.94 112.09 59.15
  A 4.38 4.35 -42.8 0 1 110.05 59.08
  Q 107.59 58.40 106.79 58.58
  Q 101.09 59.84 96.25 58.19
  A 2.05 2.01 78.7 0 1 95.34 57.57
  L 89.78 51.00
  A 0.44 0.44 0.0 0 0 89.02 51.18
  Q 88.85 51.86 89.15 53.65
  A 0.67 0.66 -2.1 0 0 89.76 54.21
  Q 90.56 54.27 91.49 55.08
  A 0.51 0.50 -17.8 0 1 91.04 55.95
  L 89.12 55.49
  A 0.44 0.44 0.0 0 0 88.58 55.82
  L 88.16 57.57
  A 1.47 1.44 -47.2 0 0 88.18 58.32
  L 89.50 62.42
  A 2.43 2.41 11.5 0 0 90.24 63.53
  L 115.20 84.16
  A 2.24 2.24 0.0 0 1 115.84 86.75
  L 115.72 87.05
  A 1.18 1.17 34.3 0 1 113.86 87.40
  Q 102.68 76.97 89.81 67.77
  A 0.17 0.12 -31.7 0 0 89.69 67.76
  Q 89.68 67.77 89.66 67.78
  A 0.40 0.05 41.1 0 0 89.95 68.10
  Q 91.07 69.08 92.18 69.85
  A 4.96 4.95 2.9 0 1 93.73 71.56
  C 95.97 75.57 97.80 78.39 98.00 81.29
  A 0.15 0.10 34.7 0 0 98.03 81.37
  L 101.58 87.11
  A 0.95 0.88 -61.4 0 1 101.71 87.62
  L 101.55 91.34
  A 0.53 0.52 1.1 0 1 101.02 91.84
  L 95.18 91.84
  A 0.44 0.43 86.5 0 0 94.75 92.33
  C 95.39 97.65 95.49 100.31 99.37 103.07
  C 102.62 105.39 98.54 107.60 96.59 107.79
  A 1.01 1.00 -17.9 0 0 95.82 109.29
  L 97.14 111.56
  A 2.00 1.95 -60.1 0 1 97.40 112.58
  C 97.32 117.44 96.98 122.73 97.92 127.51
  A 2.22 2.18 19.6 0 0 98.42 128.54
  L 102.60 133.49
  A 0.91 0.91 0.0 0 1 102.36 134.87
  L 102.11 135.01
  A 0.79 0.78 -40.1 0 1 101.21 134.94
  L 98.85 132.98
  A 0.22 0.22 0.0 0 0 98.53 133.27
  Q 100.81 136.77 102.89 139.58
  Q 103.46 140.35 103.55 143.72
  A 0.87 0.86 77.8 0 1 103.03 144.53
  Q 100.23 145.76 98.03 145.67
  C 94.47 145.53 92.22 140.81 91.72 137.68
  Q 91.04 133.36 90.62 132.37
  C 89.40 129.49 89.07 126.06 87.47 122.69
  Q 86.41 120.46 84.04 114.10
  A 1.58 1.55 -48.7 0 1 83.99 113.20
  L 84.23 112.21
  A 0.66 0.66 0.0 0 0 83.74 111.42
  L 80.25 110.58
  A 1.39 1.35 78.7 0 1 79.45 110.03
  Q 76.32 105.54 76.24 99.82
  A 0.34 0.33 51.7 0 0 75.58 99.74
  C 74.81 102.87 74.32 107.07 70.08 106.60
  A 0.56 0.55 3.2 0 0 69.46 107.15
  Q 69.48 112.07 70.67 116.38
  C 71.41 119.05 69.11 120.18 69.85 122.49
  Q 70.60 124.80 72.14 128.34
  A 1.81 1.75 -52.5 0 1 72.25 129.30
  Q 71.87 131.40 70.67 131.85
  Q 65.80 133.69 58.96 134.97
  Q 56.59 135.41 54.52 134.76
  A 1.76 1.75 -69.3 0 1 53.45 132.38
  Q 54.71 129.58 57.30 129.03
  C 59.61 128.54 60.91 127.18 61.89 125.61
  A 0.33 0.33 0.0 0 0 61.53 125.12
  Q 61.08 125.24 60.79 125.40
  Q 60.48 125.57 60.30 124.66
  Q 59.91 122.66 61.12 121.09
  A 1.31 1.31 0.0 0 0 61.27 119.72
  Q 60.48 118.03 58.88 116.76
  C 57.21 115.44 57.81 113.90 56.83 112.07
  Q 56.39 111.25 57.51 110.10
  A 1.03 1.03 0.0 0 0 57.02 108.38
  L 54.58 107.79
  A 2.85 2.83 -88.5 0 1 52.45 105.53
  Q 52.04 103.27 52.76 100.76
  Q 53.64 97.70 57.99 87.40
  A 1.48 1.48 0.0 0 0 57.91 86.08
  L 57.04 84.57
  A 1.06 1.06 0.0 0 1 57.13 83.37
  Q 59.85 80.03 59.06 75.20
  A 0.69 0.68 -44.8 0 0 57.71 75.20
  C 56.73 80.74 54.47 85.05 52.95 90.14
  A 1.96 1.92 76.2 0 1 52.46 90.97
  Q 51.36 92.06 49.48 92.25
  A 1.00 0.98 -23.6 0 1 48.62 91.92
  Q 47.54 90.69 47.15 89.56
  A 1.46 1.45 -44.7 0 1 47.16 88.58
  Q 48.31 85.50 52.58 75.06
  Q 54.09 71.37 58.00 68.93
  A 0.60 0.60 0.0 0 0 58.21 68.16
  Q 57.06 65.94 58.42 61.90
  A 0.54 0.54 0.0 0 0 57.91 61.18
  L 56.35 61.18
  A 3.59 3.38 -32.7 0 1 55.07 60.94
  Q 53.23 60.22 49.12 59.86
  Q 43.06 59.34 38.91 54.20
  A 1.08 1.08 0.0 0 1 39.21 52.58
  L 43.34 50.20
  A 1.18 1.17 -34.1 0 1 44.86 50.49
  L 46.95 53.15
  A 2.18 2.18 0.0 0 0 48.30 53.95
  Q 52.63 54.67 56.80 53.54
  A 0.85 0.85 0.0 0 0 57.41 52.92
  L 58.68 47.63
  A 0.88 0.86 -68.7 0 0 58.27 46.67
  L 54.18 44.30
  A 1.60 1.59 28.9 0 1 53.56 42.17
  L 53.73 41.85
  A 1.13 1.13 0.0 0 1 55.30 41.40
  L 58.48 43.24
  A 0.54 0.54 0.0 0 0 59.22 43.03
  Q 61.09 39.51 60.54 36.34
  A 0.61 0.61 0.0 0 1 61.11 35.63
  Q 62.12 35.58 63.35 36.22
  A 0.76 0.75 -69.4 0 0 64.43 35.73
  L 64.59 35.06
  A 1.55 1.54 6.6 0 1 66.10 33.87
  L 69.68 33.87
  A 0.69 0.69 0.0 0 0 70.37 33.18
  L 70.37 32.76
  A 0.89 0.89 0.0 0 0 69.48 31.87
  L 62.71 31.87
  A 1.10 1.10 0.0 0 1 61.76 30.22
  L 64.68 25.15
  A 1.23 1.23 0.0 0 0 64.68 23.91
  L 63.46 21.80
  A 0.87 0.87 0.0 0 1 64.02 20.52
  Q 65.19 20.26 65.69 19.49
  Q 68.11 15.79 69.98 11.26
  Q 70.39 10.25 71.33 9.65
  A 0.52 0.52 0.0 0 1 72.12 10.21
  L 71.51 12.72
  A 0.42 0.42 0.0 0 0 72.20 13.12
  Q 73.01 12.38 73.83 12.20
  A 1.34 1.31 -36.0 0 1 74.77 12.34
  L 76.84 13.53
  A 0.75 0.75 0.0 0 0 77.86 12.51
  L 75.92 9.14
  A 0.25 0.25 0.0 0 1 76.22 8.78
  Q 80.27 10.21 80.40 14.26
  Q 80.50 17.52 80.34 18.01
  A 0.37 0.37 0.0 0 0 80.76 18.49
  Q 81.26 18.39 81.82 18.05
  C 83.03 17.32 84.50 18.20 85.36 19.14
  A 0.77 0.75 -51.5 0 1 85.45 20.02
  L 84.53 21.60
  A 1.06 1.06 0.0 0 0 84.62 22.78
  Q 85.60 24.05 87.16 24.72
  Q 88.49 25.29 88.54 25.84
  Q 88.58 26.23 88.66 27.25
  A 0.51 0.51 0.0 0 1 88.16 27.80
  Q 86.44 27.83 85.76 29.03
  A 0.53 0.53 0.0 0 1 85.06 29.24
  Q 82.97 28.15 80.98 29.99
  A 0.69 0.69 0.0 0 0 81.66 31.16
  L 85.71 29.87
  A 0.41 0.37 42.1 0 1 85.98 29.87
  L 89.69 31.19
  A 0.40 0.38 -49.8 0 0 90.04 31.15
  Q 90.89 30.60 89.51 28.55
  A 0.07 0.07 0.0 0 1 89.61 28.46
  Z
  M 60.36 67.78
  A 0.30 0.28 -30.9 0 0 60.88 67.89
  Q 61.10 67.62 61.09 67.33
  A 0.31 0.31 0.0 0 0 60.53 67.16
  Q 60.31 67.45 60.36 67.78
  Z"
/>
<path fill="#ffffff" d="
  M 56.13 13.58
  Q 56.06 13.16 56.17 13.07
  A 0.38 0.33 -88.5 0 1 56.62 13.62
  Q 56.43 13.88 56.19 13.69
  A 0.18 0.16 -77.7 0 1 56.13 13.58
  Z"
/>
<ellipse fill="#ffffff" cx="0.00" cy="0.00" transform="translate(97.18,14.78) rotate(-102.2)" rx="0.77" ry="0.46"/>
<path fill="#ffffff" d="
  M 105.42 14.45
  A 0.51 0.19 82.3 0 1 105.75 15.06
  Q 105.76 15.22 105.57 15.42
  A 0.29 0.29 0.0 0 1 105.07 15.19
  Q 105.13 14.78 105.42 14.45
  Z"
/>
<ellipse fill="#ffffff" cx="0.00" cy="0.00" transform="translate(101.26,15.83) rotate(-79.8)" rx="0.47" ry="0.38"/>
<path fill="#ffffff" d="
  M 92.56 16.17
  A 0.15 0.15 0.0 0 1 92.84 16.27
  Q 92.81 16.40 92.67 16.32
  Q 92.53 16.24 92.56 16.17
  Z"
/>
<path fill="#ffffff" d="
  M 95.41 18.94
  Q 94.87 19.87 94.20 20.00
  A 0.35 0.35 0.0 0 1 93.96 19.35
  L 95.14 18.67
  A 0.20 0.20 0.0 0 1 95.41 18.94
  Z"
/>
<path fill="#ffffff" d="
  M 100.29 20.75
  L 99.22 20.49
  A 0.47 0.46 -60.0 0 1 99.01 19.70
  Q 99.46 19.26 99.47 19.26
  Q 99.86 19.14 100.01 19.32
  Q 100.43 19.83 100.62 20.38
  A 0.29 0.28 87.5 0 1 100.29 20.75
  Z"
/>
<ellipse fill="#ffffff" cx="0.00" cy="0.00" transform="translate(91.43,19.88) rotate(-173.1)" rx="0.80" ry="0.25"/>
<circle fill="#ffffff" cx="50.38" cy="23.10" r="1.05"/>
<ellipse fill="#ffffff" cx="0.00" cy="0.00" transform="translate(57.04,23.54) rotate(-41.0)" rx="2.09" ry="0.74"/>
<ellipse fill="#ffffff" cx="0.00" cy="0.00" transform="translate(89.58,24.16) rotate(-32.4)" rx="1.06" ry="0.79"/>
<path fill="#ffffff" d="
  M 93.80 27.96
  Q 91.85 27.53 91.45 26.65
  A 0.57 0.57 0.0 0 1 91.87 25.85
  Q 93.31 25.60 93.10 23.93
  A 0.61 0.61 0.0 0 1 93.71 23.24
  L 94.02 23.24
  A 0.60 0.60 0.0 0 1 94.55 23.56
  Q 95.00 24.44 93.38 25.24
  A 0.54 0.53 61.9 0 0 93.16 25.99
  L 94.08 27.58
  A 0.26 0.26 0.0 0 1 93.80 27.96
  Z"
/>
<circle fill="#ffffff" cx="97.18" cy="26.55" r="0.49"/>
<path fill="#ffffff" d="
  M 97.69 33.23
  Q 97.61 33.50 94.69 32.72
  A 0.17 0.14 77.7 0 1 94.59 32.65
  Q 94.52 32.51 94.57 32.34
  Q 94.62 32.16 94.75 32.09
  A 0.17 0.14 -45.8 0 1 94.88 32.08
  Q 97.77 32.95 97.69 33.23
  Z"
/>
<ellipse fill="#ffffff" cx="0.00" cy="0.00" transform="translate(104.60,32.41) rotate(-37.4)" rx="0.54" ry="0.35"/>
<ellipse fill="#ffffff" cx="0.00" cy="0.00" transform="translate(110.29,35.12) rotate(-90.4)" rx="0.94" ry="0.70"/>
<path fill="#ffffff" d="
  M 110.71 43.18
  Q 110.47 43.22 110.39 43.15
  A 0.40 0.32 68.5 0 1 110.60 42.47
  Q 110.86 42.55 110.88 42.98
  A 0.19 0.19 0.0 0 1 110.71 43.18
  Z"
/>
<circle fill="#ffffff" cx="31.48" cy="48.86" r="0.62"/>
<circle fill="#ffffff" cx="92.85" cy="58.25" r="0.26"/>
<path fill="#ffffff" d="
  M 93.42 62.10
  A 0.19 0.19 0.0 0 1 93.13 62.27
  Q 92.94 62.16 92.85 61.89
  A 0.16 0.16 0.0 0 1 93.00 61.68
  Q 93.41 61.68 93.42 62.10
  Z"
/>
<ellipse fill="#ffffff" cx="0.00" cy="0.00" transform="translate(101.75,62.05) rotate(-16.7)" rx="0.83" ry="0.34"/>
<circle fill="#ffffff" cx="110.47" cy="62.15" r="0.55"/>
<ellipse fill="#ffffff" cx="0.00" cy="0.00" transform="translate(33.48,64.52) rotate(-106.2)" rx="0.95" ry="0.74"/>
<ellipse fill="#ffffff" cx="0.00" cy="0.00" transform="translate(107.85,67.69) rotate(-77.7)" rx="0.86" ry="0.65"/>
<ellipse fill="#ffffff" cx="0.00" cy="0.00" transform="translate(117.10,69.93) rotate(-94.7)" rx="1.28" ry="0.64"/>
<ellipse fill="#ffffff" cx="0.00" cy="0.00" transform="translate(106.63,72.76) rotate(-155.1)" rx="0.94" ry="0.73"/>
</svg>
