<?xml version="1.0" encoding="UTF-8" standalone="no"?>
<!DOCTYPE svg PUBLIC "-//W3C//DTD SVG 1.1//EN" "http://www.w3.org/Graphics/SVG/1.1/DTD/svg11.dtd">
<svg xmlns="http://www.w3.org/2000/svg" version="1.1" viewBox="0.00 0.00 150.00 150.00">
<path fill="#ffffff" d="
  M 78.79 18.86
  L 80.79 23.61
  A 0.99 0.97 0.9 0 0 81.31 24.14
  Q 84.59 25.52 87.05 25.08
  A 0.65 0.65 0.0 0 1 87.81 25.72
  L 87.81 26.96
  A 1.50 1.49 -76.9 0 0 88.64 28.30
  L 89.92 28.94
  A 4.55 4.51 84.6 0 1 91.54 30.29
  Q 93.53 32.95 96.17 34.88
  C 101.73 38.94 107.08 44.37 110.87 49.14
  Q 111.51 49.94 114.94 55.78
  A 7.70 7.25 -83.9 0 0 115.94 57.10
  L 117.49 58.83
  A 1.77 1.74 18.0 0 1 117.91 59.64
  L 120.41 71.00
  A 3.27 3.25 7.2 0 0 122.15 73.23
  L 129.77 77.02
  A 1.46 1.46 0.0 0 1 130.18 79.34
  L 130.15 79.38
  A 2.60 2.60 0.0 0 1 127.02 79.94
  L 120.83 76.72
  A 2.81 2.79 43.6 0 0 118.15 76.78
  L 116.22 77.90
  A 1.00 1.00 0.0 0 1 114.74 76.84
  L 115.11 74.95
  A 0.88 0.88 0.0 0 0 114.59 73.97
  L 99.62 67.80
  A 0.26 0.26 0.0 0 0 99.35 68.24
  Q 102.28 70.82 107.88 76.70
  Q 111.61 80.61 115.55 81.75
  A 0.73 0.73 0.0 0 1 116.06 82.60
  Q 115.45 85.36 115.01 86.67
  C 114.17 89.16 111.37 90.22 109.07 89.40
  C 107.61 88.89 106.11 86.30 104.64 84.55
  A 2.00 1.98 13.8 0 1 104.39 84.14
  L 101.34 76.88
  A 0.13 0.13 0.0 0 0 101.16 76.82
  L 100.89 76.97
  A 0.21 0.21 0.0 0 0 100.80 77.22
  Q 102.05 80.76 103.42 84.34
  C 103.94 85.70 103.50 86.65 103.64 87.74
  A 1.61 1.57 17.8 0 0 104.08 88.57
  L 107.68 92.18
  A 2.28 2.28 0.0 0 1 107.68 95.41
  L 104.76 98.33
  A 1.88 1.87 47.1 0 0 104.67 100.88
  Q 106.37 102.84 106.97 105.52
  Q 108.24 111.26 109.95 119.33
  C 110.66 122.72 111.46 123.40 113.84 125.27
  Q 114.94 126.14 114.58 127.59
  A 1.49 1.47 -51.0 0 0 114.68 128.59
  C 115.59 130.47 116.37 131.39 116.29 133.63
  C 116.17 136.68 119.15 137.95 119.67 140.09
  Q 120.39 143.05 120.09 145.36
  A 1.11 1.09 81.8 0 1 119.46 146.22
  C 109.57 150.79 105.60 141.75 104.77 133.63
  A 3.56 3.56 0.0 0 0 104.34 132.24
  C 101.46 126.96 99.50 122.19 95.76 116.59
  Q 93.97 113.90 91.41 109.17
  A 4.08 4.08 0.0 0 1 90.93 107.25
  L 90.93 105.09
  A 0.69 0.69 0.0 0 0 90.11 104.41
  C 83.80 105.61 80.03 95.24 78.61 90.74
  A 0.15 0.14 67.7 0 0 78.40 90.65
  L 67.07 97.19
  A 1.80 1.77 40.9 0 1 65.51 97.29
  L 62.14 95.90
  A 0.31 0.31 0.0 0 0 61.72 96.26
  L 64.30 107.98
  A 1.77 1.56 -52.7 0 1 64.33 108.39
  Q 64.32 108.68 63.93 110.35
  C 63.64 111.61 63.89 112.86 64.16 114.21
  A 3.97 3.91 24.6 0 0 64.64 115.47
  C 67.27 119.88 69.62 124.80 62.10 125.49
  Q 59.42 125.74 57.38 126.06
  C 54.43 126.53 51.42 125.95 48.68 126.82
  A 0.94 0.93 -40.5 0 1 48.02 126.77
  L 44.79 125.16
  A 1.11 1.11 0.0 0 1 44.36 123.55
  C 46.16 120.88 49.41 120.21 53.31 118.97
  A 1.80 1.79 81.6 0 0 54.57 117.27
  C 54.60 114.48 54.45 112.15 52.82 109.46
  Q 51.21 106.80 49.94 103.24
  A 0.35 0.35 0.0 0 0 49.29 103.22
  Q 48.70 104.67 47.30 105.08
  A 0.55 0.55 0.0 0 1 46.61 104.45
  L 47.03 102.32
  A 0.57 0.52 -52.7 0 0 47.00 101.98
  L 46.16 99.99
  A 1.04 1.00 48.1 0 1 46.19 99.12
  L 47.47 96.53
  A 1.52 1.52 0.0 0 0 46.88 94.54
  Q 43.45 92.52 42.14 87.95
  A 2.60 2.60 0.0 0 1 42.14 86.57
  Q 43.39 82.00 47.61 78.35
  A 0.89 0.89 0.0 0 0 47.89 77.45
  Q 47.70 76.70 46.78 75.67
  A 0.68 0.68 0.0 0 1 47.48 74.57
  Q 49.06 75.06 50.77 74.91
  A 0.52 0.52 0.0 0 0 51.03 73.97
  Q 47.74 71.61 45.83 68.10
  A 0.47 0.47 0.0 0 1 46.20 67.41
  Q 52.29 66.81 59.25 66.78
  Q 61.96 66.77 62.58 63.76
  A 0.52 0.52 0.0 0 0 62.05 63.14
  Q 60.52 63.20 58.55 62.92
  A 1.55 1.51 -75.4 0 1 57.37 60.85
  Q 57.72 59.94 59.06 59.93
  Q 63.01 59.93 64.73 59.86
  A 0.56 0.55 -20.9 0 0 65.14 58.95
  Q 63.12 56.51 60.07 56.16
  Q 54.60 55.52 49.30 55.00
  C 44.47 54.54 42.66 52.80 39.96 49.10
  C 38.61 47.25 38.53 43.60 37.61 41.08
  A 1.44 1.42 51.4 0 1 37.74 39.85
  C 39.39 37.13 42.29 36.17 41.25 32.46
  A 0.67 0.67 0.0 0 1 42.48 31.94
  L 45.97 37.99
  A 1.35 1.35 0.0 0 0 48.34 37.94
  Q 50.26 34.27 53.52 29.89
  Q 54.16 29.01 54.74 25.51
  C 55.18 22.83 53.07 23.47 51.97 22.04
  Q 48.46 17.47 48.14 17.10
  A 2.20 2.18 -67.9 0 1 47.54 15.67
  L 47.33 9.52
  A 1.37 1.37 0.0 0 1 48.17 8.20
  L 48.53 8.05
  A 0.94 0.94 0.0 0 1 49.81 9.10
  L 48.88 13.85
  A 1.06 1.06 0.0 0 0 50.84 14.58
  Q 52.33 12.01 52.78 8.94
  A 1.16 1.15 78.6 0 1 53.31 8.13
  Q 55.08 7.00 58.42 4.68
  C 61.90 2.27 67.50 3.49 71.28 5.14
  A 1.84 1.83 83.8 0 1 72.02 5.74
  Q 72.89 6.97 73.24 7.23
  A 4.06 3.97 65.6 0 0 74.14 7.58
  L 76.49 8.21
  A 1.12 1.11 -89.2 0 1 77.30 9.05
  Q 77.92 11.76 79.25 13.05
  A 0.66 0.65 39.2 0 1 79.34 13.90
  Q 78.76 14.74 77.68 15.43
  A 0.46 0.45 21.5 0 0 78.04 16.25
  Q 81.55 15.40 85.39 21.29
  A 1.40 1.40 0.0 0 1 84.76 23.34
  L 84.39 23.50
  A 1.68 1.67 -31.0 0 1 82.45 23.02
  Q 79.63 19.60 78.93 18.77
  A 0.09 0.08 -77.0 0 0 78.79 18.86
  Z
  M 61.22 52.07
  Q 60.04 50.45 59.50 48.20
  Q 59.12 46.57 56.87 46.41
  A 1.98 1.97 15.3 0 0 54.97 47.49
  L 53.52 50.41
  A 0.78 0.78 0.0 0 0 54.07 51.52
  L 60.74 52.83
  A 0.48 0.48 0.0 0 0 61.22 52.07
  Z
  M 92.18 55.26
  A 1.03 1.03 0.0 0 0 92.83 56.22
  L 93.73 56.59
  A 1.10 1.09 15.7 0 1 94.39 57.75
  Q 93.90 61.01 97.23 62.55
  Q 99.67 63.68 107.09 66.65
  A 1.51 1.32 19.0 0 0 109.05 65.85
  C 109.52 64.15 109.08 63.08 107.77 61.56
  Q 100.59 53.22 92.37 46.17
  A 0.12 0.11 -69.6 0 0 92.18 46.26
  L 92.18 55.26
  Z"
/>
</svg>
