<?xml version="1.0" encoding="UTF-8" standalone="no"?>
<!DOCTYPE svg PUBLIC "-//W3C//DTD SVG 1.1//EN" "http://www.w3.org/Graphics/SVG/1.1/DTD/svg11.dtd">
<svg xmlns="http://www.w3.org/2000/svg" version="1.1" viewBox="0.00 0.00 150.00 150.00">
<path fill="#ffffff" d="
  M 107.85 83.60
  L 109.30 90.60
  A 1.20 1.18 59.6 0 1 109.04 91.64
  Q 108.46 92.31 108.22 93.14
  A 1.76 1.74 43.3 0 0 108.26 94.29
  L 109.12 96.61
  A 1.30 1.28 -38.9 0 1 108.99 97.77
  L 105.34 103.30
  A 0.68 0.67 -48.7 0 0 105.39 104.10
  C 106.07 104.88 106.98 105.53 107.37 106.58
  Q 109.67 112.78 110.86 117.49
  Q 112.23 122.88 114.13 125.29
  Q 117.09 129.07 117.86 131.95
  Q 118.97 136.14 121.96 140.57
  Q 123.61 143.01 122.22 146.61
  A 1.05 1.04 -80.3 0 1 121.30 147.27
  L 114.38 147.56
  A 1.09 1.04 59.1 0 1 113.73 147.38
  C 108.84 144.17 108.36 140.82 107.79 135.37
  A 1.86 1.85 -74.8 0 0 107.04 134.05
  C 104.06 131.88 103.04 127.48 101.01 124.99
  Q 98.85 122.33 92.10 112.99
  A 0.87 0.84 27.6 0 1 91.93 112.48
  L 91.93 109.68
  A 0.76 0.76 0.0 0 0 91.02 108.94
  L 89.38 109.28
  A 1.05 1.03 -27.8 0 1 88.44 109.00
  Q 87.26 107.84 85.85 107.43
  C 82.48 106.45 80.23 102.53 79.31 99.51
  A 0.55 0.55 0.0 0 0 78.40 99.28
  L 73.48 104.20
  A 1.36 1.35 19.4 0 1 72.66 104.59
  L 69.49 104.93
  A 0.76 0.75 2.6 0 0 68.83 105.53
  Q 67.74 110.81 67.81 111.90
  Q 68.13 116.54 66.40 119.28
  Q 65.86 120.14 65.82 123.42
  A 1.40 1.30 32.2 0 0 66.01 124.14
  L 67.81 127.27
  A 1.98 1.97 52.8 0 1 67.49 129.67
  Q 65.28 131.84 62.54 132.31
  Q 58.39 133.01 50.01 134.55
  Q 49.04 134.73 46.57 134.52
  A 1.38 1.38 0.0 0 1 45.38 132.72
  Q 47.25 127.01 52.23 127.84
  A 0.52 0.52 0.0 0 0 52.74 127.03
  C 51.07 124.58 53.64 122.85 53.85 120.35
  A 1.61 1.61 0.0 0 1 54.45 119.23
  L 55.94 118.04
  A 0.90 0.90 0.0 0 0 56.27 117.15
  L 55.55 113.71
  A 0.71 0.71 0.0 0 0 54.77 113.15
  Q 53.71 113.28 52.63 112.96
  A 0.72 0.71 -81.9 0 1 52.12 112.27
  L 52.16 107.76
  A 3.32 3.28 61.7 0 1 52.67 106.03
  Q 53.16 105.25 54.49 104.33
  A 1.02 1.02 0.0 0 0 54.21 102.51
  Q 50.01 101.23 50.40 96.44
  A 2.36 2.33 -24.5 0 1 50.88 95.18
  Q 52.73 92.80 53.54 90.17
  A 0.44 0.44 0.0 0 0 52.80 89.75
  Q 52.12 90.49 51.17 90.58
  A 0.82 0.82 0.0 0 1 50.59 89.12
  L 56.19 84.68
  A 0.35 0.35 0.0 0 0 56.16 84.12
  L 50.10 80.11
  A 0.64 0.64 0.0 0 1 50.11 79.03
  L 57.64 74.28
  A 2.13 2.10 -84.1 0 0 58.04 73.95
  Q 58.68 73.27 60.82 70.00
  C 62.02 68.16 62.75 67.55 64.35 65.90
  A 1.26 1.25 -58.9 0 0 63.84 63.83
  L 60.52 62.76
  A 0.79 0.79 0.0 0 1 59.99 61.88
  L 60.37 59.56
  A 0.53 0.53 0.0 0 0 59.94 58.95
  L 51.76 57.61
  A 1.69 1.69 0.0 0 1 50.43 55.43
  L 50.74 54.48
  A 2.11 2.11 0.0 0 1 53.39 53.13
  L 58.27 54.71
  A 0.47 0.47 0.0 0 0 58.87 54.14
  Q 57.45 49.05 59.30 43.85
  A 1.81 1.76 51.6 0 0 59.39 42.96
  C 58.71 38.64 57.60 37.22 55.79 34.19
  A 2.16 2.16 0.0 0 1 55.55 32.53
  Q 56.75 27.97 53.70 24.60
  A 1.75 1.72 23.1 0 1 53.26 23.53
  Q 53.20 22.00 54.88 21.74
  A 0.68 0.67 79.5 0 0 55.43 20.93
  Q 54.29 15.61 59.24 11.72
  A 1.45 1.44 -63.6 0 1 60.12 11.42
  L 63.52 11.42
  A 0.70 0.70 0.0 0 0 64.22 10.74
  C 64.27 7.35 71.74 3.18 74.25 2.49
  A 3.44 3.28 -52.1 0 1 75.06 2.37
  Q 78.80 2.24 81.43 4.72
  C 84.26 7.40 83.47 10.44 87.84 12.10
  C 90.91 13.27 90.60 14.97 89.12 17.21
  A 1.64 1.63 44.3 0 0 89.15 19.06
  Q 90.81 21.42 91.24 23.92
  C 92.39 30.70 97.85 35.00 100.90 40.41
  A 2.26 2.17 -64.1 0 1 101.19 41.30
  Q 101.93 47.71 100.24 52.76
  A 0.87 0.86 -64.6 0 0 100.59 53.76
  L 118.94 65.87
  A 0.64 0.64 0.0 0 1 118.78 67.02
  Q 117.93 67.28 116.62 66.90
  Q 107.09 64.16 99.03 57.96
  A 0.26 0.25 6.1 0 0 98.64 58.27
  Q 100.21 61.42 100.70 65.11
  A 2.68 2.67 4.0 0 0 102.65 67.34
  Q 105.08 68.01 106.22 68.85
  Q 106.47 69.03 107.63 71.14
  Q 108.20 72.19 109.52 72.81
  Q 121.90 78.59 134.18 85.98
  A 1.65 1.64 -57.8 0 1 134.70 88.30
  L 134.22 89.03
  A 1.52 1.52 0.0 0 1 132.22 89.53
  L 112.94 79.10
  A 0.36 0.35 84.6 0 0 112.50 79.64
  Q 115.49 83.40 119.73 85.53
  Q 122.38 86.87 122.30 89.36
  Q 122.26 90.72 121.34 91.02
  C 120.49 91.31 119.36 91.20 118.56 91.38
  Q 116.83 91.74 116.39 91.72
  A 1.13 1.13 0.0 0 1 115.58 91.33
  C 113.16 88.63 111.81 85.12 108.34 83.24
  A 0.34 0.33 8.5 0 0 107.85 83.60
  Z
  M 69.59 30.82
  Q 68.11 28.75 67.87 26.95
  A 0.73 0.73 0.0 0 0 67.15 26.32
  L 66.69 26.32
  A 0.82 0.82 0.0 0 0 65.88 27.30
  Q 66.40 29.93 69.26 31.21
  A 0.27 0.26 -5.2 0 0 69.59 30.82
  Z
  M 68.78 39.88
  Q 69.30 36.32 65.48 34.43
  A 0.31 0.31 0.0 0 0 65.13 34.92
  L 67.65 37.44
  A 2.22 2.19 -69.5 0 1 68.29 38.87
  Q 68.35 39.81 68.39 39.92
  A 0.20 0.20 0.0 0 0 68.78 39.88
  Z
  M 65.8002 68.5238
  A 1.71 0.52 -32.0 0 0 64.0744 68.9890
  A 1.71 0.52 -32.0 0 0 62.8998 70.3362
  A 1.71 0.52 -32.0 0 0 64.6256 69.8710
  A 1.71 0.52 -32.0 0 0 65.8002 68.5238
  Z"
/>
</svg>
