<?xml version="1.0" encoding="UTF-8" standalone="no"?>
<!DOCTYPE svg PUBLIC "-//W3C//DTD SVG 1.1//EN" "http://www.w3.org/Graphics/SVG/1.1/DTD/svg11.dtd">
<svg xmlns="http://www.w3.org/2000/svg" version="1.1" viewBox="0.00 0.00 150.00 150.00">
<path fill="#ffffff" d="
  M 97.66 16.85
  L 97.72 11.68
  A 0.75 0.72 -34.4 0 1 97.78 11.39
  L 99.47 7.52
  A 1.55 1.52 84.2 0 1 99.99 6.87
  Q 101.62 5.69 102.96 5.39
  A 0.53 0.53 0.0 0 1 103.44 6.30
  Q 102.04 7.59 101.55 8.56
  A 0.65 0.65 0.0 0 0 102.55 9.35
  Q 105.09 7.27 107.65 8.95
  A 0.69 0.68 31.5 0 0 108.62 8.72
  L 108.78 8.44
  A 0.58 0.57 33.4 0 0 108.62 7.68
  L 106.74 6.31
  A 0.61 0.61 0.0 0 1 107.19 5.21
  C 111.73 5.91 113.54 11.78 113.37 15.44
  A 0.47 0.46 86.9 0 0 113.90 15.92
  Q 116.60 15.57 119.78 17.16
  A 0.81 0.80 31.6 0 1 120.07 18.35
  L 116.91 22.70
  A 1.55 1.54 48.1 0 0 116.82 24.38
  L 120.15 30.16
  A 1.09 1.08 -24.2 0 0 121.43 30.64
  L 123.92 29.78
  A 0.53 0.53 0.0 0 1 124.62 30.33
  Q 124.46 31.99 126.09 33.48
  C 129.14 36.27 128.79 38.53 130.61 41.66
  C 132.66 45.19 134.68 49.15 135.62 53.12
  A 2.17 2.16 49.2 0 1 135.53 54.39
  C 133.94 58.44 132.71 60.35 128.39 63.02
  Q 125.79 64.63 123.58 66.61
  A 1.26 1.26 0.0 0 0 123.56 68.47
  C 126.67 71.36 130.69 73.76 134.13 76.87
  Q 135.42 78.04 141.29 82.85
  Q 142.81 84.09 142.54 85.01
  Q 142.15 86.28 140.92 86.59
  A 0.49 0.49 0.0 0 0 140.56 87.06
  L 140.56 91.68
  A 0.50 0.50 0.0 0 1 139.95 92.17
  Q 138.93 91.93 137.62 92.34
  A 2.42 2.11 -22.2 0 1 134.87 91.40
  Q 134.13 90.04 133.63 89.62
  A 0.31 0.31 0.0 0 0 133.13 89.96
  L 135.90 98.05
  A 0.62 0.62 0.0 0 1 135.33 98.87
  C 133.95 98.91 133.20 98.87 132.07 99.47
  Q 128.16 101.57 122.97 102.40
  A 0.68 0.67 -12.5 0 0 122.42 103.25
  Q 124.71 111.18 124.69 119.34
  A 7.23 7.05 -55.1 0 0 125.09 121.76
  Q 126.66 126.34 126.48 131.78
  A 2.12 2.09 -64.9 0 0 126.98 133.20
  L 127.89 134.26
  A 0.96 0.95 31.4 0 1 128.10 135.10
  Q 126.98 139.91 125.87 142.37
  C 123.88 146.76 116.93 146.36 112.99 144.97
  A 1.41 1.41 0.0 0 1 112.05 143.61
  C 112.12 139.91 115.34 135.48 117.12 132.30
  A 0.99 0.99 0.0 0 0 117.01 131.16
  L 115.92 129.88
  A 2.09 2.08 21.7 0 1 115.43 128.75
  L 115.02 125.06
  A 1.46 1.39 29.5 0 0 114.88 124.60
  Q 109.31 112.95 108.05 108.50
  Q 106.94 104.60 104.70 103.55
  A 0.56 0.56 0.0 0 0 103.97 103.82
  Q 102.40 107.15 97.77 108.89
  A 1.10 1.10 0.0 0 0 97.53 110.82
  Q 100.29 112.76 100.83 116.17
  A 3.59 3.59 0.0 0 0 101.84 118.16
  C 104.45 120.78 108.67 127.14 101.98 128.31
  Q 93.25 129.85 88.50 129.95
  Q 86.56 129.99 85.48 129.78
  A 1.21 1.20 21.2 0 1 84.67 127.96
  Q 87.30 123.75 90.51 123.53
  A 1.06 1.05 73.5 0 0 91.36 121.96
  Q 89.99 119.54 86.98 117.67
  Q 86.20 117.19 85.82 117.36
  Q 85.55 117.48 85.16 117.96
  A 0.40 0.39 -64.0 0 0 85.37 118.59
  Q 86.00 118.74 86.73 120.34
  A 2.05 2.04 -32.9 0 1 86.21 122.75
  L 85.88 123.04
  A 1.09 1.09 0.0 0 1 84.23 122.75
  L 82.12 119.11
  A 0.76 0.76 0.0 0 1 82.14 118.32
  Q 83.89 115.46 80.48 113.98
  C 77.68 112.77 75.22 111.91 75.80 108.30
  Q 76.62 103.22 79.35 99.31
  A 1.42 1.41 -54.7 0 0 79.02 97.36
  L 72.66 92.73
  A 1.06 1.05 42.8 0 1 72.59 91.08
  L 77.94 86.48
  A 2.33 2.15 -5.9 0 0 78.38 85.98
  Q 81.63 80.85 87.77 77.35
  Q 88.59 76.89 91.18 72.41
  A 1.84 1.77 -32.6 0 0 91.42 71.41
  Q 91.28 69.40 89.66 67.66
  A 1.09 1.08 -65.2 0 1 89.38 66.88
  L 89.54 63.40
  A 1.04 1.04 0.0 0 1 90.51 62.41
  Q 90.55 62.41 90.58 62.41
  A 0.55 0.55 0.0 0 0 91.12 61.74
  L 90.22 57.60
  A 4.22 4.17 39.0 0 1 90.12 56.69
  C 90.12 51.35 89.75 47.78 85.85 43.97
  A 1.27 1.26 54.4 0 0 84.43 43.73
  Q 79.83 45.84 74.07 47.84
  Q 67.16 50.24 61.56 55.39
  Q 60.15 56.69 58.34 56.90
  Q 54.51 57.35 50.38 59.60
  Q 38.34 66.13 18.29 75.78
  C 14.62 77.55 10.60 78.45 6.50 78.91
  Q 5.50 79.03 4.88 78.57
  A 0.58 0.57 50.4 0 1 4.97 77.59
  Q 28.82 66.18 52.18 53.97
  C 54.21 52.91 56.26 49.57 58.06 48.10
  Q 71.07 37.40 85.79 31.82
  C 88.80 30.68 93.83 27.64 94.25 24.05
  A 1.16 1.15 -61.3 0 0 94.00 23.18
  Q 92.70 21.61 91.86 18.99
  A 0.90 0.88 -33.0 0 1 92.05 18.13
  Q 94.14 15.79 96.98 17.25
  A 0.47 0.46 14.3 0 0 97.66 16.85
  Z
  M 124.4560 51.4549
  A 0.60 0.60 0.0 0 0 123.8264 50.8860
  L 123.5467 50.9002
  A 0.60 0.60 0.0 0 0 122.9779 51.5298
  L 123.1640 55.2051
  A 0.60 0.60 0.0 0 0 123.7936 55.7740
  L 124.0733 55.7598
  A 0.60 0.60 0.0 0 0 124.6421 55.1302
  L 124.4560 51.4549
  Z
  M 84.0590 118.8924
  A 0.28 0.14 -16.1 0 0 83.7512 118.8355
  A 0.28 0.14 -16.1 0 0 83.5210 119.0476
  A 0.28 0.14 -16.1 0 0 83.8288 119.1045
  A 0.28 0.14 -16.1 0 0 84.0590 118.8924
  Z"
/>
</svg>
