<?xml version="1.0" encoding="UTF-8" standalone="no"?>
<!DOCTYPE svg PUBLIC "-//W3C//DTD SVG 1.1//EN" "http://www.w3.org/Graphics/SVG/1.1/DTD/svg11.dtd">
<svg xmlns="http://www.w3.org/2000/svg" version="1.1" viewBox="0.00 0.00 150.00 150.00">
<path fill="#ffffff" d="
  M 44.54 9.32
  A 0.28 0.28 0.0 0 0 45.03 9.52
  Q 46.72 7.53 50.48 8.16
  A 1.66 1.66 0.0 0 0 52.13 7.46
  Q 52.66 6.70 47.85 5.79
  A 0.50 0.50 0.0 0 1 47.59 4.94
  L 47.83 4.70
  A 2.38 2.36 -64.9 0 1 49.70 4.01
  Q 57.84 4.63 59.44 11.96
  Q 59.57 12.54 60.86 13.67
  A 0.29 0.29 0.0 0 0 61.34 13.43
  Q 61.22 11.28 63.46 11.20
  Q 65.85 11.12 66.96 11.28
  A 1.47 1.46 4.1 0 1 68.22 12.73
  L 68.22 17.13
  A 0.71 0.70 9.1 0 0 68.71 17.80
  Q 73.39 19.30 74.23 19.86
  Q 78.64 22.81 80.47 23.34
  A 3.45 3.44 -14.9 0 1 82.13 24.30
  L 84.61 26.94
  A 13.29 13.03 -4.4 0 0 86.82 28.80
  C 93.45 33.25 96.08 37.28 100.40 43.35
  Q 101.94 45.51 104.57 53.28
  A 1.50 1.42 7.2 0 0 105.21 54.06
  L 106.05 54.55
  A 1.73 1.70 -82.5 0 1 106.86 55.62
  L 107.40 57.82
  A 2.23 2.07 24.5 0 0 107.60 58.30
  L 111.46 64.70
  A 1.43 1.37 -63.7 0 1 111.63 65.24
  Q 112.04 71.18 111.80 72.88
  Q 111.60 74.32 112.34 76.11
  C 113.79 79.60 110.78 80.48 111.26 83.15
  Q 111.72 85.78 113.87 87.31
  A 0.83 0.83 0.0 0 0 114.95 87.22
  L 117.64 84.53
  A 0.72 0.72 0.0 0 1 118.86 84.94
  L 119.53 89.40
  A 0.79 0.79 0.0 0 1 119.40 89.95
  Q 117.12 93.41 113.92 91.45
  A 0.30 0.29 -83.9 0 0 113.49 91.80
  Q 115.33 97.10 115.16 102.82
  A 0.82 0.82 0.0 0 0 116.06 103.66
  C 118.58 103.41 121.78 102.91 121.66 106.85
  A 0.99 0.99 0.0 0 1 120.09 107.62
  Q 118.68 106.58 117.36 106.55
  A 0.97 0.96 7.3 0 0 116.39 107.29
  L 116.31 107.62
  A 0.47 0.47 0.0 0 0 116.82 108.20
  Q 118.89 108.00 119.90 109.23
  A 1.17 1.11 81.5 0 0 120.31 109.55
  Q 123.42 111.00 125.73 109.32
  A 1.51 1.51 0.0 0 1 126.87 109.04
  Q 129.72 109.49 131.50 110.74
  A 1.57 1.56 -44.0 0 1 131.45 113.32
  C 125.74 117.09 118.31 118.27 112.18 120.13
  A 2.20 2.18 -47.4 0 1 111.11 120.18
  Q 106.97 119.35 107.24 115.29
  Q 107.70 108.50 103.74 105.40
  A 3.08 3.04 -81.2 0 1 102.75 104.03
  L 99.20 94.21
  A 1.74 1.66 -74.6 0 0 98.99 93.82
  Q 96.38 90.24 93.17 91.87
  A 1.65 1.60 -51.5 0 1 92.07 92.01
  Q 86.90 90.82 82.33 87.80
  A 1.32 1.28 -32.4 0 0 81.38 87.60
  C 78.02 88.18 75.88 90.58 72.74 90.37
  A 1.02 1.01 -72.8 0 0 71.78 90.88
  L 70.52 93.07
  A 1.50 1.49 29.4 0 1 68.50 93.63
  C 67.67 93.18 66.80 92.31 65.75 92.67
  Q 63.94 93.29 63.60 96.09
  C 63.11 100.13 58.59 102.86 55.79 105.33
  A 1.05 1.05 0.0 0 0 55.45 106.28
  L 55.77 108.48
  A 1.58 1.56 50.6 0 1 55.70 109.24
  Q 54.47 112.66 54.10 117.23
  C 53.92 119.38 52.47 120.34 52.72 122.54
  Q 53.05 125.52 52.84 126.04
  C 51.12 130.29 52.02 133.95 52.66 138.27
  Q 53.14 141.46 49.85 142.49
  Q 45.42 143.87 40.68 145.64
  C 37.67 146.77 35.32 146.59 32.65 145.24
  A 1.44 1.43 20.6 0 1 31.90 143.60
  Q 32.65 140.77 35.02 139.05
  C 36.23 138.17 37.71 138.21 38.56 137.31
  A 0.47 0.46 -51.9 0 0 38.48 136.60
  C 36.78 135.50 36.64 134.04 37.72 132.48
  Q 38.93 130.75 38.85 127.75
  A 0.64 0.64 0.0 0 1 39.49 127.09
  L 41.54 127.09
  A 0.66 0.66 0.0 0 0 42.19 126.33
  L 39.49 108.24
  A 1.68 1.62 50.4 0 1 39.55 107.48
  L 40.58 104.16
  A 0.70 0.69 26.3 0 0 40.32 103.40
  L 35.63 100.05
  A 1.46 1.45 -52.5 0 1 35.36 97.95
  Q 35.37 97.94 37.31 96.12
  A 1.66 1.59 -49.9 0 0 37.15 93.56
  C 35.49 92.51 35.49 88.87 35.29 87.73
  A 1.06 1.06 0.0 0 0 34.50 86.90
  L 29.82 85.77
  A 1.04 1.04 0.0 0 1 29.32 84.02
  L 32.14 81.20
  A 1.93 1.93 0.0 0 0 32.35 78.72
  Q 30.04 75.43 28.10 73.29
  C 24.18 68.95 22.19 65.18 20.23 60.76
  A 2.94 2.91 -44.8 0 1 20.25 58.36
  Q 24.00 50.20 29.65 44.26
  A 4.22 4.19 80.0 0 0 30.40 43.18
  C 31.45 41.08 31.16 38.44 34.46 38.86
  A 1.08 1.07 -86.3 0 0 35.67 37.79
  L 35.67 33.58
  A 0.40 0.40 0.0 0 1 35.90 33.22
  Q 36.53 32.93 37.12 34.35
  A 0.53 0.53 0.0 0 0 37.99 34.51
  Q 39.82 32.57 40.63 30.71
  A 0.71 0.71 0.0 0 0 39.74 29.76
  Q 36.88 30.82 35.61 29.38
  A 2.24 1.90 -36.8 0 1 36.31 26.32
  Q 36.46 26.23 38.44 25.00
  A 1.44 1.42 -25.2 0 0 39.05 23.33
  Q 38.19 20.78 40.48 20.10
  A 1.05 0.94 -26.3 0 0 41.09 18.58
  C 40.44 17.75 40.10 16.47 40.64 15.27
  C 42.23 11.76 40.69 8.01 45.21 6.19
  A 0.46 0.46 0.0 0 1 45.77 6.85
  Q 44.57 8.89 44.54 9.32
  Z
  M 79.77 38.40
  Q 79.76 38.58 80.51 40.35
  A 0.72 0.60 -61.3 0 1 80.56 40.61
  L 80.76 51.80
  A 0.34 0.34 0.0 0 0 81.40 51.96
  L 85.43 44.98
  A 0.84 0.83 46.0 0 0 85.44 44.17
  Q 83.95 41.41 81.68 40.67
  A 1.20 1.19 86.5 0 1 80.95 40.02
  L 80.14 38.30
  A 0.20 0.19 -60.0 0 0 79.77 38.40
  Z
  M 89.42 54.33
  Q 91.93 53.29 92.65 53.36
  A 0.56 0.56 0.0 0 0 93.27 52.79
  Q 93.23 51.26 92.30 50.53
  A 0.94 0.93 -53.0 0 0 90.97 50.72
  L 88.88 53.65
  A 0.45 0.45 0.0 0 0 89.42 54.33
  Z
  M 39.01 71.24
  A 0.77 0.76 -53.0 0 0 40.27 71.06
  Q 42.18 67.04 45.26 65.46
  A 0.56 0.56 0.0 0 0 45.47 64.65
  Q 43.13 61.13 43.66 55.86
  A 1.13 1.13 0.0 0 0 41.93 54.79
  Q 40.07 55.96 37.90 56.43
  A 3.08 3.05 16.2 0 0 36.37 57.26
  L 33.05 60.59
  A 0.88 0.87 -34.2 0 0 32.86 61.55
  Q 35.15 66.89 39.01 71.24
  Z
  M 101.34 68.41
  A 0.52 0.52 0.0 0 0 101.24 67.69
  Q 99.34 66.18 100.02 64.45
  A 1.17 1.16 28.6 0 0 99.61 63.08
  L 99.04 62.66
  A 2.47 2.43 8.1 0 1 98.14 61.48
  L 96.56 57.14
  A 0.80 0.79 -36.2 0 0 95.18 56.93
  C 93.43 59.24 91.92 62.02 89.16 61.99
  A 0.77 0.76 0.4 0 0 88.38 62.75
  L 88.38 64.69
  A 0.94 0.94 0.0 0 0 89.30 65.63
  Q 95.12 65.78 100.57 68.85
  A 0.41 0.40 -56.9 0 0 101.11 68.73
  L 101.34 68.41
  Z
  M 104.2997 67.8426
  A 1.74 1.04 -140.9 0 0 104.9941 69.7471
  A 1.74 1.04 -140.9 0 0 107.0003 70.0374
  A 1.74 1.04 -140.9 0 0 106.3059 68.1329
  A 1.74 1.04 -140.9 0 0 104.2997 67.8426
  Z
  M 40.96 88.94
  Q 40.70 89.15 40.42 89.63
  A 0.24 0.24 0.0 0 0 40.75 89.96
  Q 41.16 89.73 41.34 89.22
  A 0.25 0.25 0.0 0 0 40.96 88.94
  Z
  M 42.1541 132.2263
  A 0.76 0.41 -34.8 0 0 41.2960 132.3233
  A 0.76 0.41 -34.8 0 0 40.9059 133.0937
  A 0.76 0.41 -34.8 0 0 41.7640 132.9967
  A 0.76 0.41 -34.8 0 0 42.1541 132.2263
  Z"
/>
</svg>
