<?xml version="1.0" encoding="UTF-8" standalone="no"?>
<!DOCTYPE svg PUBLIC "-//W3C//DTD SVG 1.1//EN" "http://www.w3.org/Graphics/SVG/1.1/DTD/svg11.dtd">
<svg xmlns="http://www.w3.org/2000/svg" version="1.1" viewBox="0.00 0.00 150.00 150.00">
<path fill="#ffffff" d="
  M 44.85 73.47
  Q 44.93 74.92 43.97 75.68
  A 0.85 0.84 39.1 0 1 43.07 75.77
  L 38.49 73.52
  A 0.87 0.84 -75.2 0 1 38.02 72.69
  Q 38.13 71.10 39.88 56.81
  Q 40.47 52.03 44.90 43.37
  Q 46.89 39.48 54.69 28.27
  A 10.93 10.88 -21.9 0 0 56.44 24.19
  Q 57.14 20.77 59.56 16.84
  A 1.02 1.01 26.2 0 0 59.05 15.36
  Q 56.29 14.31 57.29 13.11
  A 0.70 0.69 17.0 0 1 57.79 12.85
  L 60.55 12.71
  A 0.78 0.78 0.0 0 0 61.28 12.07
  Q 61.71 9.59 64.17 8.07
  A 0.82 0.82 0.0 0 0 63.90 6.57
  Q 62.32 6.25 61.95 5.01
  A 1.28 1.22 16.6 0 1 64.12 3.90
  Q 66.27 6.25 69.78 6.05
  A 0.67 0.67 0.0 0 0 70.42 5.34
  L 70.34 3.67
  A 0.38 0.37 13.3 0 1 70.90 3.33
  Q 72.52 4.26 72.65 4.34
  C 74.18 5.28 73.93 7.16 72.47 7.90
  A 0.33 0.33 0.0 0 0 72.51 8.51
  C 75.24 9.41 74.89 12.80 78.14 12.79
  A 0.65 0.65 0.0 0 1 78.71 13.75
  C 77.83 15.39 77.49 16.74 79.61 17.78
  C 81.71 18.82 82.58 19.60 82.72 21.77
  C 82.82 23.28 81.65 23.85 81.27 24.83
  A 0.27 0.27 0.0 0 0 81.70 25.13
  L 83.51 23.57
  A 1.24 1.23 -42.9 0 1 85.19 23.63
  L 86.53 24.97
  A 0.88 0.86 -23.4 0 0 87.19 25.22
  L 94.85 24.84
  A 0.73 0.73 0.0 0 0 95.33 23.59
  L 93.64 21.90
  A 2.37 2.33 -17.1 0 0 92.39 21.25
  L 85.49 20.07
  A 0.72 0.71 -62.6 0 1 85.11 18.86
  L 86.33 17.64
  A 0.76 0.76 0.0 0 0 86.44 16.71
  C 85.80 15.68 85.17 14.18 86.40 13.31
  C 90.68 10.30 96.28 13.10 99.19 16.84
  Q 103.76 22.71 105.44 25.80
  Q 107.73 30.00 104.02 32.16
  Q 98.73 35.25 93.14 35.54
  A 2.37 2.32 -61.6 0 0 92.04 35.88
  C 89.74 37.29 88.88 40.46 89.43 43.37
  C 89.96 46.20 90.73 51.95 88.64 54.14
  A 0.30 0.29 -66.3 0 0 88.83 54.64
  C 91.09 54.82 92.13 56.35 91.55 58.47
  Q 91.38 59.11 91.39 59.46
  A 1.23 1.22 -69.2 0 0 91.76 60.29
  C 94.12 62.61 93.89 63.88 94.49 66.38
  A 6.47 6.28 21.6 0 0 95.46 68.53
  Q 100.22 75.41 103.99 83.11
  C 105.07 85.33 106.17 86.29 108.04 87.80
  A 0.76 0.76 0.0 0 1 107.89 89.07
  L 103.92 91.00
  A 0.80 0.79 -47.3 0 1 103.27 91.03
  L 97.93 88.93
  A 0.34 0.34 0.0 0 0 97.49 89.39
  Q 98.98 92.65 102.06 95.71
  C 106.00 99.64 103.49 104.89 99.46 107.34
  A 1.23 1.23 0.0 0 0 99.08 109.08
  L 103.41 115.51
  A 1.97 1.97 0.0 0 1 101.87 118.58
  L 100.78 118.64
  A 1.40 1.40 0.0 0 0 99.55 119.50
  Q 98.46 122.08 98.28 125.94
  A 1.09 1.09 0.0 0 0 98.66 126.83
  L 99.94 127.95
  A 1.43 1.29 8.4 0 1 100.22 128.29
  L 103.52 133.91
  A 0.75 0.75 0.0 0 1 102.75 135.03
  Q 99.80 134.52 98.99 131.04
  A 0.29 0.29 0.0 0 0 98.56 130.85
  L 98.24 131.03
  A 0.29 0.29 0.0 0 0 98.15 131.44
  L 102.19 137.44
  A 1.26 1.24 82.8 0 0 102.81 137.93
  Q 106.87 139.38 108.21 144.24
  A 1.51 1.50 -17.9 0 1 107.27 146.05
  Q 104.26 147.14 101.83 145.92
  Q 94.26 142.13 89.93 138.46
  C 88.62 137.35 88.59 135.64 89.21 133.83
  Q 90.74 129.30 89.36 126.08
  Q 87.58 121.94 87.70 117.29
  Q 87.82 112.26 85.17 109.57
  C 82.80 107.16 82.50 106.19 80.55 103.90
  A 4.88 4.85 18.3 0 1 79.51 101.85
  Q 78.90 99.27 78.81 96.52
  Q 78.75 94.67 76.64 94.60
  A 2.22 2.03 4.7 0 0 74.39 96.35
  Q 73.88 99.97 72.46 105.74
  Q 72.04 107.44 68.80 110.11
  A 1.94 1.92 -15.1 0 0 68.12 111.28
  Q 67.31 115.89 64.73 122.35
  A 14.91 14.41 -30.0 0 0 63.93 125.14
  C 63.32 128.45 62.55 130.60 62.43 133.49
  C 62.20 138.99 59.23 147.90 51.69 143.22
  C 49.23 141.69 51.29 136.95 52.67 135.27
  A 1.00 1.00 0.0 0 0 52.77 134.14
  L 52.14 133.06
  A 1.41 1.41 0.0 0 1 52.10 131.74
  Q 53.00 129.90 53.09 127.82
  A 1.71 1.71 0.0 0 1 53.59 126.66
  L 55.07 125.19
  A 1.14 1.11 -25.2 0 0 55.39 124.34
  L 54.61 108.77
  A 1.10 1.09 21.4 0 0 54.29 108.05
  L 51.72 105.48
  A 2.07 2.06 33.3 0 1 51.26 103.26
  L 55.85 91.56
  A 0.38 0.37 4.0 0 0 55.41 91.06
  L 53.51 91.52
  A 0.83 0.74 40.1 0 1 53.18 91.53
  L 46.73 90.62
  A 0.62 0.62 0.0 0 1 46.24 89.79
  Q 47.55 86.43 49.40 82.47
  C 50.38 80.38 50.51 77.61 51.87 75.71
  C 52.52 74.79 52.27 73.44 52.87 72.61
  Q 55.62 68.80 59.54 66.79
  A 2.38 2.38 0.0 0 0 60.83 64.49
  Q 60.57 61.13 58.68 58.39
  A 2.42 2.42 0.0 0 1 58.26 57.13
  Q 58.21 55.97 58.74 53.97
  C 59.67 50.38 59.01 46.68 56.75 43.87
  A 0.61 0.61 0.0 0 0 55.80 43.86
  L 53.83 46.18
  A 1.11 0.61 -29.0 0 0 53.73 46.34
  L 50.10 53.71
  A 3.24 1.44 -85.2 0 0 49.95 54.07
  L 47.27 61.56
  A 4.40 4.25 -34.1 0 0 47.02 62.75
  Q 46.73 66.91 47.86 71.22
  A 1.96 1.72 70.8 0 1 46.97 73.42
  Q 45.77 73.98 45.16 73.34
  A 0.18 0.18 0.0 0 0 44.85 73.47
  Z
  M 83.9587 28.3476
  A 1.25 0.60 -58.2 0 0 82.7901 29.0938
  A 1.25 0.60 -58.2 0 0 82.6413 30.4724
  A 1.25 0.60 -58.2 0 0 83.8099 29.7262
  A 1.25 0.60 -58.2 0 0 83.9587 28.3476
  Z
  M 78.09 30.73
  Q 78.03 30.89 78.13 31.04
  A 0.21 0.20 -30.6 0 0 78.40 31.10
  Q 78.55 31.01 78.46 30.73
  A 0.20 0.20 0.0 0 0 78.09 30.73
  Z
  M 78.08 31.23
  Q 77.54 32.23 77.66 32.64
  A 0.39 0.38 -36.8 0 0 78.36 32.74
  Q 78.40 32.68 78.43 31.32
  A 0.19 0.19 0.0 0 0 78.08 31.23
  Z
  M 83.36 36.61
  L 84.17 32.96
  A 0.13 0.13 0.0 0 0 84.08 32.80
  L 84.02 32.79
  A 1.92 1.75 -77.4 0 0 81.89 34.28
  L 81.86 34.44
  A 1.92 1.75 -77.4 0 0 83.14 36.69
  L 83.20 36.71
  A 0.13 0.13 0.0 0 0 83.36 36.61
  Z
  M 83.14 42.96
  Q 82.94 40.52 83.59 38.33
  A 0.22 0.22 0.0 0 0 83.18 38.17
  Q 81.79 41.26 82.60 43.10
  A 0.28 0.28 0.0 0 0 83.14 42.96
  Z
  M 87.83 50.06
  Q 87.05 47.09 87.11 43.96
  Q 87.13 43.07 86.38 42.62
  A 0.54 0.54 0.0 0 0 85.62 43.34
  Q 86.64 45.23 85.73 47.72
  A 1.29 1.28 -49.5 0 0 85.81 48.78
  Q 86.47 49.99 87.13 50.52
  A 0.44 0.44 0.0 0 0 87.83 50.06
  Z
  M 77.04 47.56
  Q 76.81 49.01 76.91 49.14
  A 0.75 0.41 87.1 0 1 76.98 49.25
  Q 77.08 49.46 77.13 49.48
  A 0.24 0.24 0.0 0 0 77.48 49.25
  Q 77.41 48.42 77.53 47.63
  Q 77.66 46.85 77.97 46.08
  A 0.24 0.24 0.0 0 0 77.71 45.75
  Q 77.66 45.76 77.50 45.93
  A 0.75 0.41 -69.4 0 1 77.40 46.01
  Q 77.26 46.10 77.04 47.56
  Z
  M 80.6066 46.0094
  A 2.22 0.71 -120.1 0 0 81.1057 48.2861
  A 2.22 0.71 -120.1 0 0 82.8334 49.8506
  A 2.22 0.71 -120.1 0 0 82.3343 47.5739
  A 2.22 0.71 -120.1 0 0 80.6066 46.0094
  Z
  M 83.52 69.15
  C 83.22 67.24 82.48 65.26 83.56 62.98
  A 0.76 0.76 0.0 0 1 84.57 62.62
  Q 84.69 62.67 84.92 62.81
  A 0.68 0.68 0.0 0 0 85.89 62.54
  L 87.81 58.64
  A 0.30 0.30 0.0 0 0 87.67 58.24
  L 87.43 58.12
  A 0.47 0.47 0.0 0 0 86.78 58.37
  Q 86.18 59.91 84.64 61.06
  A 0.67 0.67 0.0 0 1 83.60 60.73
  Q 82.07 56.02 84.79 54.24
  A 1.06 1.05 58.5 0 0 85.12 52.84
  L 84.84 52.37
  A 0.40 0.39 50.6 0 0 84.20 52.30
  Q 83.41 53.20 82.57 53.17
  C 81.70 53.14 81.34 52.53 81.04 51.70
  A 0.74 0.73 69.5 0 0 80.09 51.26
  L 79.97 51.30
  A 0.76 0.76 0.0 0 0 79.52 52.27
  Q 81.42 57.32 79.34 62.57
  A 1.70 1.69 -43.6 0 0 79.31 63.74
  L 80.10 66.14
  A 1.03 0.94 -51.1 0 1 80.13 66.64
  L 77.87 79.93
  A 0.16 0.16 0.0 0 0 78.00 80.12
  L 78.35 80.18
  A 0.09 0.09 0.0 0 0 78.45 80.11
  L 79.82 74.41
  A 0.75 0.67 -20.2 0 1 80.00 74.07
  Q 81.52 72.39 80.65 69.75
  A 1.18 1.17 -24.1 0 1 81.19 68.36
  L 81.55 68.15
  A 0.69 0.68 -29.9 0 1 82.49 68.40
  L 83.03 69.33
  A 0.27 0.26 -64.7 0 0 83.52 69.15
  Z
  M 85.8846 64.8210
  A 1.62 0.42 -109.3 0 0 86.0236 66.4888
  A 1.62 0.42 -109.3 0 0 86.9554 67.8790
  A 1.62 0.42 -109.3 0 0 86.8164 66.2112
  A 1.62 0.42 -109.3 0 0 85.8846 64.8210
  Z
  M 91.84 72.87
  Q 91.35 70.21 91.81 67.73
  A 0.25 0.24 59.9 0 0 91.34 67.60
  Q 90.17 71.15 91.26 73.08
  A 0.31 0.31 0.0 0 0 91.84 72.87
  Z
  M 86.91 76.63
  L 87.02 75.15
  A 0.45 0.45 0.0 0 0 86.16 74.94
  Q 85.98 75.27 86.47 76.68
  A 0.23 0.23 0.0 0 0 86.91 76.63
  Z
  M 86.9132 78.1748
  A 2.44 0.62 -86.4 0 0 86.1412 80.5711
  A 2.44 0.62 -86.4 0 0 86.6068 83.0452
  A 2.44 0.62 -86.4 0 0 87.3788 80.6489
  A 2.44 0.62 -86.4 0 0 86.9132 78.1748
  Z
  M 86.7248 83.5131
  A 2.22 0.27 -112.1 0 0 87.3098 85.6716
  A 2.22 0.27 -112.1 0 0 88.3952 87.6269
  A 2.22 0.27 -112.1 0 0 87.8102 85.4684
  A 2.22 0.27 -112.1 0 0 86.7248 83.5131
  Z"
/>
</svg>
