<?xml version="1.0" encoding="UTF-8" standalone="no"?>
<!DOCTYPE svg PUBLIC "-//W3C//DTD SVG 1.1//EN" "http://www.w3.org/Graphics/SVG/1.1/DTD/svg11.dtd">
<svg xmlns="http://www.w3.org/2000/svg" version="1.1" viewBox="0.00 0.00 150.00 150.00">
<path fill="#ffffff" d="
  M 99.08 31.18
  Q 98.08 30.89 98.23 30.00
  Q 98.39 29.10 98.92 28.58
  C 100.76 26.80 101.13 24.49 102.26 22.37
  Q 106.03 15.34 108.94 6.46
  A 0.65 0.64 82.6 0 1 109.22 6.09
  L 111.62 4.55
  A 0.39 0.39 0.0 0 1 112.22 4.83
  Q 112.51 7.21 111.99 8.49
  Q 110.27 12.67 106.97 18.67
  Q 105.45 21.43 104.89 23.05
  C 104.01 25.60 102.71 27.28 102.46 29.66
  Q 102.30 31.17 101.54 31.62
  A 0.75 0.72 83.4 0 0 101.20 32.07
  L 100.65 34.31
  A 0.83 0.81 -89.3 0 1 100.03 34.93
  Q 98.32 35.30 96.97 34.78
  A 0.64 0.63 15.7 0 1 96.57 34.08
  Q 96.86 32.22 99.07 31.66
  A 0.25 0.25 0.0 0 0 99.08 31.18
  Z"
/>
<path fill="#ffffff" d="
  M 60.00 95.67
  L 58.96 98.10
  A 1.34 1.32 80.1 0 1 58.69 98.49
  Q 57.47 99.69 55.17 99.64
  A 1.20 1.20 0.0 0 1 54.02 98.20
  Q 54.44 96.25 54.64 95.45
  C 55.22 93.14 57.30 91.54 57.31 89.17
  Q 57.32 87.14 59.19 85.24
  A 0.44 0.44 0.0 0 0 58.82 84.49
  Q 55.46 84.90 55.60 82.28
  Q 55.75 79.63 55.65 77.09
  Q 55.58 75.48 56.38 72.00
  Q 59.08 60.28 61.73 47.98
  A 3.06 3.03 48.1 0 0 61.78 46.97
  L 61.49 44.49
  A 1.04 1.03 -15.4 0 1 62.09 43.44
  L 69.53 40.06
  A 0.13 0.13 0.0 0 0 69.49 39.82
  L 65.48 39.45
  A 1.07 1.07 0.0 0 1 64.60 37.93
  L 67.58 31.49
  A 1.51 1.47 47.7 0 0 67.62 30.32
  Q 67.24 29.34 65.98 28.59
  A 0.78 0.78 0.0 0 1 66.05 27.21
  L 68.02 26.31
  A 1.58 1.56 86.8 0 0 68.88 25.33
  C 69.47 23.36 70.16 22.00 72.03 20.51
  Q 73.90 19.01 74.79 17.06
  Q 75.07 16.46 76.09 16.18
  A 0.59 0.59 0.0 0 1 76.74 17.07
  Q 76.42 17.58 76.25 18.40
  A 0.63 0.62 11.0 0 0 76.76 19.15
  Q 78.98 19.53 80.96 21.36
  A 0.44 0.44 0.0 0 0 81.66 20.85
  L 79.51 16.10
  A 0.23 0.23 0.0 0 1 79.83 15.80
  C 83.39 17.58 86.09 21.59 83.03 25.43
  A 0.27 0.27 0.0 0 0 83.28 25.87
  Q 83.33 25.86 84.36 25.31
  C 85.59 24.64 86.83 25.62 87.45 26.70
  A 0.64 0.63 42.6 0 1 87.48 27.29
  L 85.53 31.49
  A 1.64 1.64 0.0 0 0 85.53 32.85
  L 87.89 38.05
  A 0.59 0.58 -21.8 0 0 88.62 38.36
  Q 91.29 37.42 92.38 40.24
  A 0.43 0.43 0.0 0 0 93.17 40.26
  L 94.78 36.79
  A 1.73 1.73 0.0 0 1 97.08 35.95
  L 99.47 37.06
  A 2.34 2.33 14.1 0 1 100.82 39.31
  C 100.57 44.04 101.68 47.56 103.28 52.77
  A 3.94 3.82 40.1 0 1 103.43 54.25
  C 102.97 59.42 100.83 63.16 95.04 60.66
  A 1.24 1.20 -5.0 0 1 94.51 60.23
  L 91.57 55.91
  A 0.37 0.37 0.0 0 0 90.90 56.08
  L 89.91 67.01
  A 0.42 0.41 36.9 0 0 89.95 67.26
  Q 90.69 68.93 90.39 70.67
  A 0.74 0.73 -70.9 0 0 90.76 71.44
  C 91.22 71.69 91.50 71.74 91.89 72.09
  Q 102.15 80.95 111.82 90.83
  A 1.85 1.85 0.0 0 1 111.98 93.23
  L 111.84 93.42
  A 1.21 1.21 0.0 0 1 110.03 93.57
  L 91.06 75.44
  A 0.29 0.29 0.0 0 0 90.60 75.53
  L 90.46 75.82
  A 0.32 0.32 0.0 0 0 90.60 76.24
  Q 94.11 78.24 95.06 81.69
  Q 95.86 84.64 96.16 85.34
  A 5.32 5.31 28.5 0 1 96.55 86.65
  Q 97.54 92.47 99.91 97.96
  A 0.66 0.66 0.0 0 1 99.45 98.87
  Q 95.37 99.81 93.17 99.17
  A 0.50 0.50 0.0 0 0 92.53 99.62
  C 92.23 105.03 94.04 104.72 96.59 108.46
  Q 97.80 110.24 96.12 111.57
  Q 94.49 112.87 93.12 113.66
  A 0.76 0.75 62.7 0 0 92.82 114.62
  L 93.33 115.73
  A 1.87 1.82 33.7 0 1 93.49 116.48
  Q 93.48 121.75 93.07 129.45
  Q 93.00 130.75 95.25 136.01
  A 0.85 0.83 -53.6 0 1 95.31 136.45
  L 95.00 138.58
  A 1.83 1.78 -56.4 0 0 95.21 139.70
  C 96.40 141.77 96.96 143.29 96.27 145.49
  A 1.15 1.13 -89.8 0 1 95.55 146.22
  C 91.50 147.57 87.83 147.69 86.74 142.40
  Q 86.36 140.55 86.44 138.16
  A 4.38 4.36 31.5 0 0 85.89 135.89
  C 84.66 133.65 84.80 130.35 84.01 127.70
  Q 82.36 122.22 80.99 117.55
  A 1.79 1.78 49.8 0 1 81.09 116.31
  L 81.54 115.34
  A 0.71 0.70 24.9 0 0 81.19 114.40
  L 79.26 113.50
  A 1.96 1.94 -36.4 0 0 78.17 113.34
  Q 76.45 113.58 75.08 113.25
  A 0.56 0.56 0.0 0 0 74.40 113.86
  L 75.71 125.18
  A 1.41 1.38 -31.4 0 1 75.46 126.17
  C 73.02 129.63 75.62 132.29 76.53 135.31
  A 2.05 1.92 43.2 0 1 76.59 136.27
  Q 76.06 139.31 72.74 139.53
  Q 63.48 140.15 62.50 140.23
  Q 60.23 140.41 58.46 139.72
  A 1.20 1.20 0.0 0 1 57.82 138.05
  Q 59.73 134.29 63.77 134.60
  A 0.71 0.71 0.0 0 0 64.53 133.85
  Q 64.32 130.70 66.06 128.26
  A 1.54 1.51 -33.8 0 0 66.31 127.06
  C 65.81 124.83 65.30 121.46 62.58 121.35
  Q 61.49 121.30 61.17 120.93
  Q 60.63 120.30 60.83 119.25
  A 0.30 0.29 32.9 0 1 61.36 119.14
  Q 61.75 119.68 62.52 119.73
  A 0.32 0.32 0.0 0 0 62.82 119.25
  L 61.92 117.69
  A 0.64 0.62 42.5 0 1 61.89 117.12
  L 63.21 114.27
  A 0.49 0.48 13.7 0 0 62.79 113.58
  C 60.99 113.53 57.78 112.05 57.39 109.80
  C 56.65 105.60 59.02 100.00 60.18 95.73
  A 0.10 0.09 -26.1 0 0 60.00 95.67
  Z
  M 82.79 38.65
  Q 82.82 38.94 83.33 39.02
  A 0.27 0.25 -5.3 0 0 83.63 38.68
  Q 83.52 38.40 83.11 38.37
  Q 82.76 38.35 82.79 38.65
  Z
  M 63.38 78.02
  A 0.55 0.54 -76.6 0 0 63.94 77.67
  Q 64.52 76.25 64.05 74.82
  A 0.41 0.41 0.0 0 0 63.26 74.91
  L 62.99 77.85
  A 0.15 0.14 6.4 0 0 63.12 78.00
  L 63.38 78.02
  Z"
/>
</svg>
