<?xml version="1.0" encoding="UTF-8" standalone="no"?>
<!DOCTYPE svg PUBLIC "-//W3C//DTD SVG 1.1//EN" "http://www.w3.org/Graphics/SVG/1.1/DTD/svg11.dtd">
<svg xmlns="http://www.w3.org/2000/svg" version="1.1" viewBox="0.00 0.00 150.00 150.00">
<circle fill="#ffffff" cx="80.87" cy="5.57" r="1.14"/>
<ellipse fill="#ffffff" cx="0.00" cy="0.00" transform="translate(71.62,6.88) rotate(-83.9)" rx="1.01" ry="0.74"/>
<ellipse fill="#ffffff" cx="0.00" cy="0.00" transform="translate(90.55,6.69) rotate(-87.3)" rx="0.85" ry="0.67"/>
<path fill="#ffffff" d="
  M 87.88 8.06
  L 87.07 6.89
  A 0.38 0.38 0.0 0 1 87.38 6.30
  L 88.49 6.30
  A 0.40 0.40 0.0 0 1 88.82 6.92
  Q 88.45 7.46 88.41 7.92
  A 0.29 0.29 0.0 0 1 87.88 8.06
  Z"
/>
<ellipse fill="#ffffff" cx="0.00" cy="0.00" transform="translate(103.58,7.50) rotate(-131.3)" rx="0.97" ry="0.76"/>
<ellipse fill="#ffffff" cx="0.00" cy="0.00" transform="translate(61.67,8.09) rotate(-171.6)" rx="1.07" ry="0.57"/>
<ellipse fill="#ffffff" cx="0.00" cy="0.00" transform="translate(48.87,8.67) rotate(-62.5)" rx="0.88" ry="0.70"/>
<ellipse fill="#ffffff" cx="0.00" cy="0.00" transform="translate(64.71,8.31) rotate(-23.6)" rx="0.51" ry="0.24"/>
<path fill="#ffffff" d="
  M 88.76 9.93
  L 88.71 10.51
  A 0.52 0.52 0.0 0 1 87.68 10.54
  Q 87.64 10.30 88.10 9.68
  A 0.37 0.37 0.0 0 1 88.76 9.93
  Z"
/>
<ellipse fill="#ffffff" cx="0.00" cy="0.00" transform="translate(63.97,11.34) rotate(-100.8)" rx="1.09" ry="0.32"/>
<path fill="#ffffff" d="
  M 100.58 11.68
  Q 98.49 11.91 98.47 11.90
  A 0.82 0.81 56.3 0 1 98.78 10.33
  Q 100.04 10.35 100.77 11.19
  A 0.30 0.30 0.0 0 1 100.58 11.68
  Z"
/>
<ellipse fill="#ffffff" cx="0.00" cy="0.00" transform="translate(95.24,11.57) rotate(-166.2)" rx="1.07" ry="0.61"/>
<ellipse fill="#ffffff" cx="0.00" cy="0.00" transform="translate(53.00,12.43) rotate(0.7)" rx="0.99" ry="0.75"/>
<path fill="#ffffff" d="
  M 87.09 15.18
  Q 86.59 16.36 85.61 16.46
  A 1.10 1.10 0.0 0 1 84.48 15.80
  Q 83.99 14.65 82.25 13.47
  Q 81.11 12.69 82.04 11.96
  A 0.62 0.62 0.0 0 1 83.04 12.37
  Q 83.40 15.18 86.54 14.51
  A 0.49 0.49 0.0 0 1 87.09 15.18
  Z"
/>
<ellipse fill="#ffffff" cx="0.00" cy="0.00" transform="translate(57.17,13.06) rotate(-38.0)" rx="0.83" ry="0.59"/>
<path fill="#ffffff" d="
  M 102.24 12.92
  A 0.44 0.44 0.0 0 1 102.63 12.43
  L 103.05 12.38
  A 1.48 1.22 -6.4 0 1 104.66 13.43
  L 104.71 13.89
  A 1.48 1.22 -6.4 0 1 103.37 15.27
  L 102.96 15.31
  A 0.44 0.44 0.0 0 1 102.47 14.92
  L 102.24 12.92
  Z"
/>
<path fill="#ffffff" d="
  M 56.68 79.27
  Q 56.41 79.38 56.04 79.81
  Q 52.08 84.37 47.05 88.12
  C 45.81 89.05 44.56 89.19 43.12 88.93
  A 0.87 0.86 5.2 0 1 42.41 88.08
  L 42.41 84.61
  A 3.38 3.38 0.0 0 1 44.07 81.70
  Q 50.43 77.93 53.96 75.68
  C 54.73 75.18 56.00 74.83 56.85 74.55
  A 0.56 0.55 73.8 0 0 57.21 73.88
  L 55.92 68.83
  A 1.06 0.96 42.1 0 1 55.90 68.63
  C 55.92 66.37 57.80 65.78 59.79 65.25
  A 0.92 0.92 0.0 0 0 59.83 63.48
  L 56.18 62.35
  A 0.67 0.67 0.0 0 1 55.70 61.71
  L 55.70 57.02
  A 0.76 0.76 0.0 0 1 56.83 56.36
  Q 58.92 57.52 59.91 57.53
  A 0.95 0.95 0.0 0 0 60.39 55.76
  L 50.19 49.87
  A 1.23 1.22 -60.1 0 1 49.74 48.19
  L 49.87 47.96
  A 1.40 1.40 0.0 0 1 51.78 47.45
  L 60.16 52.29
  A 0.60 0.60 0.0 0 0 61.06 51.72
  Q 60.75 48.22 62.66 45.93
  A 0.87 0.87 0.0 0 0 62.56 44.71
  Q 61.56 43.85 61.35 43.35
  A 1.04 1.04 0.0 0 1 61.52 42.08
  L 64.53 39.15
  A 0.42 0.42 0.0 0 0 64.25 38.43
  Q 63.47 38.40 62.92 38.14
  A 1.01 1.00 -75.7 0 1 62.36 37.19
  Q 62.54 34.12 63.92 31.91
  A 1.66 1.65 -53.9 0 0 63.59 29.78
  L 61.58 28.04
  A 1.17 1.17 0.0 0 1 61.76 26.14
  L 63.99 24.85
  A 1.36 1.35 76.8 0 0 64.65 23.78
  Q 64.84 20.91 66.03 19.31
  C 66.77 18.32 66.33 17.62 65.65 16.76
  A 0.57 0.57 0.0 0 1 66.19 15.84
  Q 66.84 15.95 67.37 15.86
  A 0.89 0.88 2.6 0 0 68.06 15.24
  Q 68.45 13.92 69.64 13.40
  A 0.42 0.42 0.0 0 1 70.22 13.83
  Q 70.07 15.13 69.28 15.98
  A 0.54 0.54 0.0 0 0 69.79 16.88
  Q 71.70 16.48 74.29 17.60
  A 0.63 0.63 0.0 0 0 75.06 16.66
  L 72.97 13.62
  A 0.21 0.21 0.0 0 1 73.14 13.29
  Q 73.87 13.30 75.36 14.28
  Q 79.55 17.03 77.56 22.15
  A 0.18 0.18 0.0 0 0 77.83 22.37
  Q 81.19 20.15 83.14 22.46
  A 0.90 0.89 -50.2 0 1 83.23 23.49
  L 80.97 27.41
  A 1.09 1.09 0.0 0 0 80.97 28.51
  L 83.40 32.72
  A 0.82 0.82 0.0 0 1 83.10 33.84
  L 80.95 35.08
  A 0.47 0.46 68.7 0 0 80.73 35.59
  L 80.81 35.89
  A 0.52 0.52 0.0 0 0 81.31 36.28
  L 87.47 36.28
  A 2.01 1.98 67.7 0 1 88.90 36.89
  Q 90.55 38.59 97.23 45.37
  Q 98.69 46.85 100.84 46.91
  Q 101.59 46.93 102.27 47.28
  A 2.31 2.30 52.2 0 0 103.82 47.48
  Q 107.21 46.74 109.58 44.67
  A 1.35 1.34 20.8 0 1 110.30 44.35
  L 112.72 44.03
  A 2.04 2.03 17.5 0 0 113.92 43.41
  Q 115.39 41.87 117.22 41.39
  C 119.45 40.80 120.23 39.66 119.48 37.67
  A 0.82 0.81 3.3 0 1 120.62 36.66
  Q 123.45 38.14 124.00 37.84
  Q 126.40 36.52 128.45 36.11
  A 0.70 0.70 0.0 0 1 129.09 37.28
  Q 124.87 41.68 121.08 45.58
  Q 115.50 51.32 110.47 53.94
  Q 105.74 56.40 101.64 58.57
  A 2.32 2.30 -47.7 0 1 99.66 58.67
  Q 94.21 56.46 90.31 52.26
  A 0.52 0.52 0.0 0 0 89.44 52.46
  L 85.80 64.29
  A 1.92 1.86 -40.8 0 0 85.73 65.08
  L 86.15 68.77
  A 2.35 2.33 17.1 0 0 86.94 70.25
  L 112.85 92.56
  A 2.17 2.16 -54.4 0 1 113.30 95.31
  L 113.20 95.48
  A 1.33 1.32 -51.1 0 1 111.19 95.70
  Q 107.28 91.94 97.31 83.23
  Q 91.94 78.53 86.72 74.70
  A 0.26 0.25 -54.9 0 0 86.36 74.77
  L 86.35 74.78
  A 0.29 0.28 -60.6 0 0 86.46 75.19
  Q 89.04 76.53 90.68 79.14
  C 92.46 81.97 93.96 83.30 95.87 85.89
  Q 96.79 87.14 96.58 88.48
  A 1.35 1.34 26.8 0 0 96.96 89.63
  L 101.79 94.46
  A 0.77 0.77 0.0 0 1 101.25 95.78
  L 96.71 95.78
  A 2.22 2.22 0.0 0 1 94.79 94.67
  L 90.12 86.58
  A 0.74 0.74 0.0 0 0 88.75 87.09
  Q 89.72 92.40 88.89 96.63
  A 0.95 0.93 -54.7 0 0 88.99 97.25
  L 89.73 98.52
  A 0.58 0.58 0.0 0 1 89.22 99.39
  L 87.24 99.39
  A 0.37 0.37 0.0 0 0 86.91 99.92
  Q 87.86 101.85 90.30 101.36
  A 0.93 0.93 0.0 0 1 91.27 102.75
  Q 89.93 104.96 88.28 106.01
  A 1.18 1.18 0.0 0 0 88.00 107.75
  L 89.59 109.71
  A 1.03 0.97 20.7 0 1 89.81 110.16
  Q 90.13 111.60 92.51 120.20
  C 93.50 123.76 95.91 127.56 97.02 131.43
  A 10.35 10.32 -68.1 0 0 98.00 133.73
  C 100.18 137.51 105.46 144.56 98.96 146.87
  C 91.00 149.69 89.81 139.23 89.18 134.31
  A 2.61 2.55 -66.5 0 0 88.75 133.18
  L 76.18 114.95
  A 1.49 1.49 0.0 0 1 75.92 114.11
  L 75.92 111.43
  A 1.04 1.03 88.7 0 0 74.84 110.39
  C 68.92 110.64 66.26 107.42 65.25 102.13
  A 0.39 0.39 0.0 0 0 64.54 101.99
  Q 63.23 104.08 60.31 104.35
  A 0.57 0.56 81.8 0 0 59.81 105.03
  C 60.62 108.88 61.26 110.71 60.22 114.11
  A 2.58 2.56 44.8 0 0 60.23 115.63
  C 61.30 118.96 64.93 122.15 58.72 123.47
  Q 51.36 125.04 46.42 124.87
  A 1.29 1.29 0.0 0 1 45.25 123.14
  C 45.62 122.14 47.23 120.65 48.42 120.41
  Q 50.88 119.92 52.66 117.92
  Q 53.23 117.28 52.75 115.79
  Q 51.04 110.53 49.58 107.36
  A 1.13 1.13 0.0 0 0 47.48 107.50
  L 46.73 109.93
  A 0.63 0.63 0.0 0 1 45.53 109.95
  C 45.04 108.53 44.49 105.99 46.68 105.43
  A 0.53 0.52 65.8 0 0 46.98 104.62
  L 43.64 99.77
  A 1.10 1.10 0.0 0 1 43.44 99.17
  C 43.28 93.97 49.54 88.71 52.72 85.20
  A 5.12 5.08 -12.3 0 0 53.60 83.84
  Q 54.69 81.33 56.84 79.53
  A 0.15 0.15 0.0 0 0 56.68 79.27
  Z"
/>
<ellipse fill="#ffffff" cx="0.00" cy="0.00" transform="translate(49.08,15.09) rotate(-86.8)" rx="1.50" ry="0.92"/>
<path fill="#ffffff" d="
  M 99.32 20.32
  A 0.58 0.58 0.0 0 1 98.67 19.47
  Q 99.49 18.04 100.38 18.05
  Q 101.03 18.05 101.40 18.74
  Q 101.60 19.12 101.99 19.44
  A 1.61 1.60 70.3 0 0 102.64 19.75
  Q 103.87 20.01 104.34 20.79
  A 0.88 0.87 -46.7 0 1 104.36 21.69
  L 102.65 24.65
  A 0.80 0.80 0.0 0 1 101.55 24.94
  L 101.23 24.76
  A 0.48 0.48 0.0 0 1 101.06 24.11
  L 102.41 21.77
  A 1.28 1.28 0.0 0 0 100.98 19.89
  L 99.32 20.32
  Z"
/>
<path fill="#ffffff" d="
  M 53.03 21.57
  L 51.35 21.13
  A 1.30 1.30 0.0 0 0 49.90 23.03
  L 51.27 25.40
  A 0.48 0.48 0.0 0 1 51.09 26.06
  L 50.77 26.24
  A 0.81 0.81 0.0 0 1 49.66 25.95
  L 47.93 22.95
  A 0.89 0.88 46.7 0 1 47.95 22.04
  Q 48.42 21.25 49.67 20.99
  A 1.63 1.62 -70.2 0 0 50.33 20.68
  Q 50.72 20.35 50.93 19.97
  Q 51.30 19.27 51.96 19.27
  Q 52.86 19.26 53.69 20.71
  A 0.59 0.59 0.0 0 1 53.03 21.57
  Z"
/>
<ellipse fill="#ffffff" cx="0.00" cy="0.00" transform="translate(115.04,30.89) rotate(-154.5)" rx="1.63" ry="1.04"/>
<ellipse fill="#ffffff" cx="0.00" cy="0.00" transform="translate(37.26,32.18) rotate(-41.0)" rx="1.42" ry="1.08"/>
<ellipse fill="#ffffff" cx="0.00" cy="0.00" transform="translate(99.49,32.30) rotate(-20.9)" rx="1.18" ry="0.91"/>
<ellipse fill="#ffffff" cx="0.00" cy="0.00" transform="translate(52.89,33.67) rotate(-145.6)" rx="1.21" ry="0.91"/>
<ellipse fill="#ffffff" cx="0.00" cy="0.00" transform="translate(115.01,38.56) rotate(-130.8)" rx="1.08" ry="0.85"/>
<rect fill="#ffffff" x="-1.78" y="-0.97" transform="translate(31.36,39.51) rotate(-0.4)" width="3.56" height="1.94" rx="0.90"/>
<ellipse fill="#ffffff" cx="0.00" cy="0.00" transform="translate(37.26,40.02) rotate(-45.3)" rx="1.14" ry="0.97"/>
<circle fill="#ffffff" cx="31.91" cy="43.96" r="1.09"/>
<ellipse fill="#ffffff" cx="0.00" cy="0.00" transform="translate(39.83,50.60) rotate(-62.0)" rx="1.09" ry="0.83"/>
<path fill="#ffffff" d="
  M 118.06 54.78
  A 0.20 0.20 0.0 0 1 117.99 54.51
  L 118.03 54.43
  A 2.03 1.83 30.4 0 1 120.71 53.88
  L 121.64 54.43
  A 2.03 1.83 30.4 0 1 122.47 57.03
  L 122.42 57.11
  A 0.20 0.20 0.0 0 1 122.15 57.18
  L 118.06 54.78
  Z"
/>
<path fill="#ffffff" d="
  M 42.54 55.29
  A 0.43 0.41 55.2 0 1 41.81 55.14
  Q 41.63 54.63 42.02 54.33
  C 42.56 53.93 42.74 55.03 42.54 55.29
  Z"
/>
<path fill="#ffffff" d="
  M 30.28 58.30
  A 0.21 0.21 0.0 0 1 30.00 58.20
  L 29.95 58.10
  A 2.22 1.84 -26.1 0 1 31.13 55.47
  L 31.60 55.25
  A 2.22 1.84 -26.1 0 1 34.40 55.92
  L 34.45 56.02
  A 0.21 0.21 0.0 0 1 34.35 56.30
  L 30.28 58.30
  Z"
/>
<ellipse fill="#ffffff" cx="0.00" cy="0.00" transform="translate(38.85,64.02) rotate(-94.9)" rx="1.25" ry="0.99"/>
<ellipse fill="#ffffff" cx="0.00" cy="0.00" transform="translate(41.97,68.31) rotate(-37.5)" rx="1.91" ry="0.90"/>
<ellipse fill="#ffffff" cx="0.00" cy="0.00" transform="translate(29.61,70.61) rotate(-30.4)" rx="1.09" ry="0.93"/>
<circle fill="#ffffff" cx="34.36" cy="71.07" r="0.90"/>
<ellipse fill="#ffffff" cx="0.00" cy="0.00" transform="translate(36.21,78.55) rotate(-31.4)" rx="1.27" ry="1.06"/>
<path fill="#ffffff" d="
  M 30.09 97.88
  Q 30.65 98.08 30.33 99.80
  A 0.65 0.61 -19.1 0 1 30.15 100.15
  Q 29.76 100.54 29.20 100.33
  Q 28.64 100.13 28.59 99.58
  A 0.65 0.61 59.1 0 1 28.68 99.20
  Q 29.54 97.68 30.09 97.88
  Z"
/>
<ellipse fill="#ffffff" cx="0.00" cy="0.00" transform="translate(39.72,101.70) rotate(-120.5)" rx="0.94" ry="0.64"/>
<ellipse fill="#ffffff" cx="0.00" cy="0.00" transform="translate(31.97,108.22) rotate(-115.2)" rx="1.47" ry="1.02"/>
</svg>
