<?xml version="1.0" encoding="UTF-8" standalone="no"?>
<!DOCTYPE svg PUBLIC "-//W3C//DTD SVG 1.1//EN" "http://www.w3.org/Graphics/SVG/1.1/DTD/svg11.dtd">
<svg xmlns="http://www.w3.org/2000/svg" version="1.1" viewBox="0.00 0.00 150.00 150.00">
<path fill="#ffffff" d="
  M 92.32 71.44
  Q 94.26 74.57 94.06 77.88
  C 93.81 81.91 95.32 88.13 97.03 90.73
  A 0.56 0.56 0.0 0 1 96.53 91.59
  L 88.68 91.08
  A 0.30 0.29 0.1 0 0 88.36 91.39
  L 88.71 97.27
  A 2.27 2.26 24.1 0 0 89.21 98.57
  L 90.93 100.73
  A 0.95 0.95 0.0 0 1 91.07 101.67
  Q 90.31 103.61 89.59 104.88
  Q 89.36 105.29 88.86 105.47
  Q 88.43 105.63 88.37 105.84
  A 0.71 0.70 36.8 0 0 88.45 106.37
  Q 89.82 108.57 89.89 109.44
  Q 90.36 115.53 92.53 119.91
  C 94.97 124.84 95.33 129.43 97.87 134.14
  A 3.36 3.29 -63.6 0 1 98.26 135.34
  Q 98.97 141.17 94.35 144.81
  C 92.40 146.35 89.39 148.78 86.73 147.16
  Q 83.29 145.08 84.99 141.60
  Q 87.06 137.39 87.97 134.87
  A 1.12 1.10 41.7 0 0 87.91 133.97
  L 83.22 125.21
  A 7.53 6.98 -80.7 0 0 82.51 124.14
  C 81.26 122.57 80.37 120.83 78.73 121.15
  A 0.48 0.48 0.0 0 1 78.17 120.65
  L 78.26 119.17
  A 1.10 1.01 35.4 0 0 78.14 118.61
  Q 76.01 114.59 75.25 109.93
  A 1.87 1.86 -2.0 0 0 73.57 108.37
  Q 71.35 108.17 68.91 106.96
  A 0.59 0.59 0.0 0 0 68.10 107.70
  Q 69.08 110.32 67.49 112.84
  A 2.23 2.22 -44.0 0 0 67.44 115.14
  L 69.79 119.20
  A 0.91 0.91 0.0 0 1 69.89 119.86
  Q 69.34 122.19 67.69 122.73
  C 63.23 124.18 57.93 126.22 53.23 125.62
  A 1.38 1.37 9.5 0 1 52.05 123.98
  C 52.63 121.18 55.57 120.34 57.96 119.37
  A 0.70 0.70 0.0 0 0 58.19 118.23
  Q 57.14 117.18 57.99 115.91
  C 59.91 113.05 59.34 109.29 57.54 106.00
  A 1.57 1.57 0.0 0 0 56.85 105.34
  Q 55.68 104.78 55.49 104.41
  Q 55.19 103.84 55.62 102.72
  Q 55.92 101.95 55.89 101.53
  A 1.25 1.23 16.0 0 0 55.42 100.70
  L 52.46 98.33
  A 2.42 2.42 0.0 0 1 51.66 95.75
  Q 52.46 93.06 52.48 90.73
  A 3.86 3.79 56.5 0 1 52.76 89.29
  Q 54.15 85.83 55.77 84.32
  A 0.49 0.48 32.7 0 0 55.59 83.51
  L 50.11 81.72
  A 0.36 0.36 0.0 0 1 49.97 81.12
  L 58.79 72.29
  A 1.12 1.12 0.0 0 0 59.13 71.51
  Q 59.28 67.14 58.97 65.24
  C 58.59 62.93 58.99 61.96 61.20 61.43
  A 0.47 0.47 0.0 0 0 61.12 60.50
  L 54.68 60.09
  A 1.00 0.99 4.0 0 1 53.75 59.03
  L 53.78 58.60
  A 1.07 1.06 -86.2 0 1 54.91 57.60
  L 62.36 58.08
  A 0.29 0.28 83.6 0 0 62.65 57.71
  Q 62.22 56.35 61.47 56.01
  Q 54.56 52.84 46.30 50.92
  A 1.76 1.75 -81.2 0 1 44.95 49.07
  L 44.99 48.87
  A 1.54 1.54 0.0 0 1 46.98 47.71
  L 60.62 52.17
  A 0.49 0.48 2.9 0 0 61.25 51.61
  Q 59.67 44.41 63.94 37.93
  A 0.92 0.91 44.0 0 0 63.92 36.90
  Q 63.55 36.36 63.42 35.80
  A 0.74 0.74 0.0 0 1 63.62 35.11
  L 66.41 32.33
  A 0.23 0.23 0.0 0 0 66.21 31.94
  L 60.99 32.89
  A 0.45 0.45 0.0 0 1 60.46 32.51
  Q 60.02 29.41 60.55 27.38
  A 1.81 1.81 0.0 0 0 59.88 25.47
  L 56.66 23.07
  A 0.88 0.87 -63.9 0 1 56.34 22.12
  Q 56.99 19.82 60.31 19.58
  A 0.38 0.37 78.8 0 0 60.64 19.08
  C 60.12 17.49 58.86 15.51 58.79 14.13
  Q 58.65 11.24 59.89 9.00
  A 0.63 0.63 0.0 0 1 61.07 9.35
  L 60.91 11.76
  A 0.51 0.51 0.0 0 0 61.78 12.15
  L 63.72 10.21
  A 0.89 0.88 -65.7 0 1 64.39 9.95
  L 65.91 10.05
  A 0.56 0.56 0.0 0 0 66.34 9.10
  L 64.25 7.01
  A 0.34 0.34 0.0 0 1 64.56 6.43
  Q 68.17 7.19 68.92 8.36
  Q 71.60 12.55 72.37 13.44
  A 0.71 0.71 0.0 0 0 73.43 13.44
  Q 74.66 12.04 76.92 12.65
  A 1.07 1.07 0.0 0 1 77.62 13.27
  Q 78.07 14.40 76.94 17.63
  A 1.88 1.86 33.0 0 0 77.36 19.56
  C 79.22 21.49 81.45 23.14 80.21 25.80
  A 0.42 0.42 0.0 0 0 80.67 26.39
  L 89.10 24.85
  A 1.75 1.74 13.4 0 0 90.18 24.19
  L 92.68 20.82
  A 0.76 0.73 63.4 0 0 92.83 20.34
  L 92.50 13.35
  A 2.07 2.04 -28.5 0 1 92.89 12.06
  L 99.59 3.07
  A 0.72 0.72 0.0 0 1 100.88 3.37
  L 101.26 5.50
  A 1.10 1.09 3.6 0 0 102.00 6.34
  L 103.86 6.95
  A 2.38 2.38 0.0 0 1 105.39 9.93
  Q 103.04 17.38 101.00 24.99
  Q 99.89 29.12 97.87 32.70
  A 2.66 2.64 -85.5 0 1 96.46 33.91
  L 87.54 37.23
  A 0.38 0.38 0.0 0 0 87.30 37.61
  Q 87.57 43.42 87.26 45.27
  C 86.78 48.05 84.73 52.61 84.56 57.09
  A 1.50 1.49 -68.1 0 0 85.06 58.27
  Q 86.53 59.61 86.73 61.54
  C 86.98 64.14 88.19 64.85 90.30 65.97
  Q 104.85 73.65 118.86 83.04
  A 0.51 0.51 0.0 0 1 118.98 83.77
  L 117.70 85.49
  A 0.77 0.77 0.0 0 1 116.68 85.69
  L 92.76 71.00
  A 0.32 0.32 0.0 0 0 92.32 71.44
  Z
  M 64.1104 70.1898
  A 0.76 0.39 -9.1 0 0 63.2983 69.9249
  A 0.76 0.39 -9.1 0 0 62.6096 70.4302
  A 0.76 0.39 -9.1 0 0 63.4217 70.6951
  A 0.76 0.39 -9.1 0 0 64.1104 70.1898
  Z"
/>
</svg>
