<?xml version="1.0" encoding="UTF-8" standalone="no"?>
<!DOCTYPE svg PUBLIC "-//W3C//DTD SVG 1.1//EN" "http://www.w3.org/Graphics/SVG/1.1/DTD/svg11.dtd">
<svg xmlns="http://www.w3.org/2000/svg" version="1.1" viewBox="0.00 0.00 150.00 150.00">
<path fill="#ffffff" d="
  M 38.41 119.67
  L 33.87 119.67
  A 1.99 1.98 -75.7 0 1 32.13 116.73
  C 34.89 111.67 38.69 106.11 38.14 101.45
  A 1.26 1.20 -43.7 0 1 38.16 101.01
  L 39.73 93.73
  A 1.22 1.15 69.9 0 1 39.91 93.31
  L 42.83 88.56
  A 1.49 1.49 0.0 0 0 42.66 86.77
  Q 40.15 84.03 38.10 79.68
  Q 37.55 78.51 33.38 68.77
  A 8.92 8.75 -61.5 0 1 32.78 66.67
  Q 32.25 63.26 30.90 59.77
  A 4.30 4.29 -39.6 0 1 31.27 55.93
  Q 33.76 52.01 36.30 47.08
  Q 37.42 44.91 39.18 43.31
  Q 41.85 40.87 43.68 36.74
  C 44.96 33.84 47.84 33.23 48.95 30.45
  A 0.59 0.58 18.2 0 1 49.64 30.11
  Q 50.27 30.28 50.88 30.11
  Q 51.67 29.89 51.97 29.61
  Q 54.54 27.10 56.88 26.81
  A 0.49 0.49 0.0 0 0 57.29 26.17
  C 56.34 23.17 60.58 18.07 62.79 16.62
  C 65.75 14.68 67.25 13.05 69.86 11.41
  A 0.50 0.49 43.7 0 0 69.84 10.56
  L 67.87 9.42
  A 0.76 0.76 0.0 0 1 67.97 8.05
  C 71.12 6.81 73.12 6.52 74.33 3.49
  A 1.81 1.81 0.0 0 1 76.97 2.62
  Q 79.51 4.20 83.13 4.94
  C 85.75 5.49 87.33 6.73 89.00 8.64
  C 90.25 10.06 90.49 12.18 91.22 13.63
  A 1.62 1.59 -0.4 0 0 91.92 14.31
  C 92.47 14.57 93.41 14.54 94.24 15.08
  C 99.73 18.69 96.61 25.06 92.50 27.99
  A 1.76 1.76 0.0 0 0 92.34 30.73
  C 94.13 32.36 95.05 33.23 95.77 35.66
  C 97.59 41.78 98.23 47.07 99.93 53.11
  Q 100.72 55.91 100.64 59.78
  A 5.50 5.47 -55.1 0 0 101.02 61.94
  C 103.25 67.71 106.02 70.54 111.14 76.81
  A 1.94 1.69 -80.8 0 1 111.42 77.26
  L 114.56 84.20
  A 0.73 0.73 0.0 0 1 114.52 84.88
  Q 113.94 85.85 112.14 85.60
  A 0.59 0.59 0.0 0 0 111.47 86.13
  Q 111.40 87.00 112.07 87.26
  C 118.18 89.65 121.26 96.61 112.05 97.94
  A 1.59 1.59 0.0 0 0 110.70 99.29
  L 109.47 107.74
  A 2.01 2.00 -56.8 0 0 109.74 109.06
  C 111.02 111.11 112.25 112.66 112.32 114.53
  A 0.52 0.51 21.3 0 1 111.44 114.91
  L 108.93 112.40
  A 0.80 0.80 0.0 0 0 107.67 112.58
  L 100.26 125.90
  Q 100.25 125.93 100.24 125.96
  Q 99.92 126.90 101.16 128.08
  C 103.01 129.85 101.47 131.19 101.95 133.17
  Q 102.79 136.72 102.71 138.70
  A 1.07 1.06 15.9 0 0 103.25 139.66
  C 105.02 140.68 107.01 141.37 107.59 143.44
  A 1.88 1.69 -20.7 0 1 106.53 145.49
  C 102.21 147.48 97.04 146.57 92.41 145.22
  A 4.71 4.57 -19.3 0 1 91.11 144.62
  Q 87.26 142.05 83.93 138.00
  A 1.80 1.75 23.1 0 1 83.52 137.02
  Q 83.37 135.33 83.85 133.86
  Q 85.30 129.37 86.72 125.01
  Q 87.93 121.29 87.08 117.70
  A 0.97 0.96 -19.0 0 0 85.74 117.05
  L 83.84 117.91
  A 0.58 0.54 46.7 0 1 83.34 117.88
  L 81.50 116.82
  A 0.97 0.96 44.2 0 0 80.51 116.83
  Q 78.56 118.01 76.86 116.90
  A 1.21 1.20 55.8 0 0 75.95 116.72
  L 72.63 117.39
  A 0.50 0.49 79.4 0 0 72.25 117.95
  C 72.77 121.07 71.88 127.90 72.97 134.26
  A 1.91 1.91 0.0 0 1 72.86 135.29
  C 71.56 138.48 71.25 140.58 67.85 142.76
  Q 66.04 143.91 62.82 143.73
  Q 61.21 143.64 54.35 143.70
  A 3.90 3.78 55.0 0 1 52.84 143.41
  C 47.83 141.36 44.99 140.10 42.90 135.54
  A 1.61 1.60 -44.0 0 1 42.93 134.13
  Q 43.38 133.24 45.06 130.34
  C 46.00 128.71 45.71 125.67 46.12 123.62
  Q 46.72 120.61 47.19 116.37
  A 0.47 0.47 0.0 0 0 46.60 115.86
  Q 44.04 116.56 41.54 115.88
  A 1.08 1.07 33.6 0 0 40.58 116.07
  Q 39.20 117.13 39.05 119.08
  A 0.64 0.64 0.0 0 1 38.41 119.67
  Z
  M 91.93 20.05
  Q 93.65 19.31 94.24 18.44
  A 0.81 0.81 0.0 0 0 94.21 17.50
  Q 93.82 17.00 92.65 16.63
  A 0.47 0.47 0.0 0 0 92.04 17.06
  Q 92.01 18.48 91.55 19.68
  A 0.29 0.29 0.0 0 0 91.93 20.05
  Z
  M 48.25 55.37
  A 1.05 1.05 0.0 0 0 46.35 54.78
  L 42.82 59.76
  A 0.97 0.96 -26.2 0 0 42.66 60.22
  Q 42.52 62.08 42.97 63.77
  Q 44.10 68.09 46.24 75.83
  Q 46.43 76.52 47.12 76.36
  Q 47.54 76.26 47.70 75.95
  Q 48.81 73.88 49.86 70.78
  A 1.42 1.41 35.3 0 0 49.63 69.46
  Q 45.70 64.50 47.87 58.17
  Q 47.97 57.87 48.11 56.79
  Q 48.25 55.65 48.25 55.37
  Z
  M 84.64 70.36
  Q 87.87 71.25 90.44 69.53
  A 1.34 1.33 57.4 0 0 90.83 67.72
  L 89.50 65.60
  A 1.41 1.40 28.2 0 1 89.28 64.88
  L 89.07 59.36
  A 1.13 1.13 0.0 0 0 88.02 58.28
  L 87.99 58.28
  A 0.98 0.97 -86.0 0 0 86.94 59.20
  C 86.71 62.90 86.42 65.92 84.15 68.94
  A 0.91 0.91 0.0 0 0 84.64 70.36
  Z
  M 97.8292 132.3736
  A 0.96 0.62 -133.5 0 0 98.0403 133.4968
  A 0.96 0.62 -133.5 0 0 99.1508 133.7664
  A 0.96 0.62 -133.5 0 0 98.9397 132.6432
  A 0.96 0.62 -133.5 0 0 97.8292 132.3736
  Z"
/>
</svg>
