<?xml version="1.0" encoding="UTF-8" standalone="no"?>
<!DOCTYPE svg PUBLIC "-//W3C//DTD SVG 1.1//EN" "http://www.w3.org/Graphics/SVG/1.1/DTD/svg11.dtd">
<svg xmlns="http://www.w3.org/2000/svg" version="1.1" viewBox="0.00 0.00 128.00 128.00">
<path fill="#e8e8e8" d="
  M 128.00 61.63
  L 128.00 64.35
  L 126.50 75.44
  L 126.33 76.09
  L 125.14 80.43
  L 123.99 84.70
  L 121.23 91.21
  L 117.96 97.22
  L 114.16 102.75
  L 109.86 107.77
  L 109.86 107.77
  L 109.86 107.77
  L 105.31 112.07
  L 100.30 115.92
  L 94.83 119.33
  L 88.90 122.30
  L 84.97 123.78
  L 79.10 125.49
  L 76.22 126.30
  L 75.30 126.39
  L 72.90 126.50
  L 70.23 127.24
  L 69.25 127.39
  L 67.91 127.25
  L 65.91 127.13
  L 64.54 127.45
  L 63.73 128.00
  L 63.00 128.00
  L 62.39 127.40
  L 61.76 127.17
  L 61.76 127.17
  L 60.94 127.44
  L 60.25 127.61
  L 58.75 127.38
  L 53.87 126.53
  L 49.36 125.54
  L 45.19 124.42
  L 41.39 123.16
  L 39.58 122.28
  L 38.10 121.54
  L 36.90 121.24
  L 36.55 121.17
  L 35.90 120.84
  L 34.46 119.90
  L 33.30 119.51
  L 32.79 119.31
  L 22.46 111.87
  L 21.94 111.32
  L 21.14 110.29
  L 20.21 109.43
  L 20.21 109.43
  L 19.64 109.03
  L 18.50 108.05
  L 13.04 101.33
  L 11.19 98.72
  L 9.91 96.60
  L 7.26 91.90
  L 6.14 89.74
  L 5.02 87.03
  L 3.91 83.79
  L 3.02 80.57
  L 2.34 77.36
  L 1.89 74.18
  L 2.04 72.97
  L 2.02 72.09
  L 1.31 69.23
  L 1.21 66.41
  L 1.21 66.41
  L 1.55 64.24
  L 2.25 62.10
  L 2.87 61.49
  L 3.26 61.44
  L 3.59 61.58
  L 3.75 61.84
  L 3.79 62.55
  L 3.57 63.64
  L 3.40 63.85
  L 3.13 63.85
  L 3.09 63.83
  L 2.93 63.48
  L 2.79 63.38
  L 2.77 63.39
  L 2.54 63.90
  L 2.53 64.32
  L 2.82 64.63
  L 3.30 64.80
  L 4.19 64.88
  L 4.44 64.97
  L 4.52 65.22
  L 4.50 65.29
  L 4.12 67.03
  L 4.31 68.77
  L 4.33 69.26
  L 4.13 69.70
  L 3.76 70.02
  L 3.28 70.13
  L 3.01 70.10
  L 2.85 70.07
  L 2.73 70.28
  L 2.79 70.33
  L 2.96 70.41
  L 3.57 71.01
  L 4.67 73.54
  L 5.06 73.65
  L 5.10 73.62
  L 5.59 73.35
  L 6.14 73.33
  L 6.59 73.66
  L 7.37 75.01
  L 7.72 76.24
  L 7.87 76.64
  L 10.57 80.61
  L 10.88 81.59
  L 10.86 81.84
  L 10.98 82.23
  L 11.35 82.42
  L 11.35 82.42
  L 11.98 82.57
  L 11.98 82.57
  L 12.69 83.09
  L 13.25 83.96
  L 13.27 84.05
  L 13.16 84.24
  L 12.95 84.25
  L 11.99 83.92
  L 11.07 83.90
  L 10.06 84.28
  L 9.70 84.66
  L 9.57 85.17
  L 9.72 85.67
  L 10.10 86.01
  L 10.63 86.11
  L 11.85 85.80
  L 13.01 85.04
  L 13.35 84.92
  L 13.66 85.09
  L 13.68 85.11
  L 14.56 86.73
  L 14.66 88.04
  L 14.61 88.16
  L 14.29 88.34
  L 13.95 88.19
  L 13.32 87.28
  L 13.12 86.70
  L 12.85 86.22
  L 12.30 86.25
  L 12.30 86.25
  L 12.10 86.52
  L 11.87 87.80
  L 12.15 88.59
  L 12.15 88.59
  L 12.15 88.59
  L 12.90 88.89
  L 14.14 88.71
  L 14.38 88.77
  L 14.47 89.00
  L 14.47 89.00
  L 14.43 89.10
  L 13.81 90.38
  L 13.87 91.14
  L 13.87 91.14
  L 14.12 91.32
  L 14.32 91.29
  L 15.48 90.46
  L 15.75 90.56
  L 15.75 90.64
  L 15.23 92.27
  L 15.18 93.32
  L 15.80 94.06
  L 16.11 94.43
  L 16.12 94.90
  L 16.08 95.12
  L 16.10 95.41
  L 16.38 95.83
  L 16.87 95.92
  L 16.89 95.91
  L 17.74 95.80
  L 18.29 96.01
  L 18.29 96.01
  L 18.46 96.25
  L 18.53 96.34
  L 18.75 96.36
  L 18.88 96.18
  L 18.93 95.68
  L 18.86 95.49
  L 18.66 95.28
  L 18.66 95.28
  L 18.20 94.48
  L 18.01 93.46
  L 18.92 93.82
  L 19.27 94.27
  L 20.40 95.93
  L 21.37 97.31
  L 21.75 98.48
  L 21.76 98.55
  L 22.01 99.08
  L 22.54 99.34
  L 23.60 99.45
  L 23.95 99.40
  L 24.40 98.84
  L 24.15 98.16
  L 21.95 96.07
  L 20.58 94.23
  L 20.20 93.90
  L 19.70 93.89
  L 19.41 94.04
  L 19.37 94.08
  L 19.18 93.81
  L 19.16 93.61
  L 19.50 93.40
  L 19.77 93.20
  L 19.78 92.87
  L 19.74 92.80
  L 18.43 91.61
  L 18.27 91.44
  L 15.15 85.86
  L 14.96 85.03
  L 14.52 82.04
  L 14.48 81.49
  L 14.64 81.11
  L 14.64 81.11
  L 14.70 81.05
  L 14.75 81.01
  L 15.05 80.98
  L 15.27 81.20
  L 18.04 88.85
  L 18.24 89.22
  L 23.68 95.93
  L 24.05 95.99
  L 24.10 95.59
  L 24.09 95.58
  L 23.12 94.09
  L 21.95 92.43
  L 21.79 92.29
  L 21.21 91.70
  L 21.21 91.70
  L 20.72 90.82
  L 20.47 89.75
  L 20.50 89.57
  L 20.78 89.40
  L 21.06 89.57
  L 22.46 92.00
  L 24.01 94.25
  L 25.70 96.30
  L 27.55 98.17
  L 27.82 98.48
  L 28.14 99.13
  L 28.08 99.42
  L 27.74 99.53
  L 27.22 99.39
  L 26.93 99.46
  L 26.84 99.74
  L 26.90 99.87
  L 28.59 101.57
  L 30.76 103.05
  L 30.87 103.08
  L 31.11 102.98
  L 31.14 102.72
  L 29.13 100.68
  L 29.09 100.60
  L 29.29 100.46
  L 31.10 101.61
  L 32.09 102.57
  L 32.13 103.02
  L 31.94 103.24
  L 31.75 103.28
  L 31.71 103.29
  L 31.70 103.45
  L 32.15 103.68
  L 33.00 103.82
  L 33.84 103.98
  L 34.31 104.27
  L 36.12 105.70
  L 37.25 106.33
  L 37.64 106.69
  L 37.85 107.04
  L 37.85 107.04
  L 38.31 107.36
  L 38.95 107.50
  L 40.26 108.00
  L 42.84 109.49
  L 45.53 110.73
  L 45.53 110.73
  L 49.40 112.01
  L 53.48 112.80
  L 53.59 112.83
  L 57.32 113.94
  L 58.55 114.03
  L 59.77 113.97
  L 60.89 114.20
  L 60.89 114.20
  L 60.99 114.24
  L 62.05 114.30
  L 64.44 114.05
  L 65.99 114.27
  L 66.20 114.29
  L 71.22 113.78
  L 72.76 113.49
  L 75.23 112.89
  L 79.25 111.83
  L 83.30 110.36
  L 87.39 108.48
  L 91.51 106.18
  L 91.99 105.82
  L 93.91 104.20
  L 96.09 102.70
  L 96.62 102.29
  L 100.95 98.07
  L 102.93 95.92
  L 107.35 89.33
  L 110.44 83.75
  L 110.69 82.77
  L 110.96 81.78
  L 111.95 79.76
  L 112.94 75.98
  L 114.06 69.22
  L 114.40 63.35
  L 114.21 59.56
  L 113.61 55.16
  L 112.60 50.80
  L 111.24 46.60
  L 109.58 42.61
  L 107.62 38.82
  L 105.35 35.26
  L 105.35 35.26
  L 105.35 35.26
  L 105.35 35.26
  L 105.35 35.26
  L 102.26 31.28
  L 98.73 27.60
  L 94.78 24.23
  L 90.40 21.15
  L 86.92 19.38
  L 83.80 17.78
  L 82.38 16.99
  L 80.90 16.50
  L 80.90 16.50
  L 79.95 16.36
  L 79.71 16.33
  L 78.54 16.06
  L 77.19 15.50
  L 75.87 14.96
  L 74.80 14.77
  L 74.39 14.78
  L 69.29 14.14
  L 64.19 13.79
  L 58.95 14.03
  L 54.42 14.68
  L 47.38 16.50
  L 46.44 16.85
  L 40.79 19.55
  L 37.88 21.14
  L 35.15 22.88
  L 32.61 24.78
  L 30.26 26.83
  L 30.22 26.87
  L 30.08 27.33
  L 30.33 27.75
  L 30.84 28.12
  L 31.12 28.52
  L 31.23 29.53
  L 31.00 30.33
  L 31.00 30.33
  L 31.00 30.33
  L 30.60 30.80
  L 30.01 31.16
  L 29.57 31.49
  L 29.31 31.99
  L 29.30 32.03
  L 29.11 32.64
  L 29.05 32.74
  L 28.31 32.77
  L 27.40 32.64
  L 26.69 32.85
  L 26.69 32.85
  L 26.69 32.85
  L 26.16 33.41
  L 25.84 34.32
  L 25.63 34.75
  L 25.24 35.02
  L 22.58 35.98
  L 22.21 36.27
  L 20.07 39.66
  L 18.35 43.08
  L 17.03 46.52
  L 16.12 49.99
  L 15.66 50.53
  L 14.88 50.55
  L 14.80 50.51
  L 14.43 50.45
  L 14.12 50.65
  L 13.32 52.05
  L 12.91 53.41
  L 12.91 53.41
  L 12.60 53.63
  L 12.37 53.60
  L 12.34 53.59
  L 12.30 53.51
  L 12.68 50.70
  L 12.54 50.31
  L 12.14 50.20
  L 12.01 50.25
  L 10.68 51.02
  L 10.57 51.45
  L 10.80 52.20
  L 10.76 53.14
  L 9.81 55.57
  L 9.64 55.74
  L 9.18 55.75
  L 8.95 55.35
  L 8.95 51.70
  L 9.28 51.35
  L 9.45 51.38
  L 9.80 51.30
  L 9.97 50.98
  L 9.97 50.93
  L 9.85 50.62
  L 9.67 50.54
  L 9.09 50.26
  L 8.89 49.78
  L 8.94 49.07
  L 9.10 47.31
  L 8.99 47.12
  L 8.77 47.11
  L 8.77 47.11
  L 8.70 47.17
  L 8.23 47.93
  L 8.10 48.68
  L 8.10 48.68
  L 8.26 49.28
  L 8.34 49.71
  L 8.21 50.12
  L 7.83 50.81
  L 7.83 50.81
  L 7.36 52.14
  L 7.16 53.60
  L 7.23 55.19
  L 7.57 56.91
  L 7.57 57.37
  L 7.36 57.76
  L 6.39 58.43
  L 6.30 58.45
  L 5.94 58.32
  L 5.81 57.96
  L 6.78 48.76
  L 6.91 48.03
  L 8.65 41.77
  L 8.56 41.44
  L 8.23 41.36
  L 8.23 41.36
  L 8.07 41.47
  L 7.37 42.58
  L 6.95 43.76
  L 6.95 43.76
  L 6.80 45.12
  L 6.32 48.02
  L 4.81 52.45
  L 4.51 53.66
  L 4.53 54.91
  L 4.99 58.04
  L 4.76 58.74
  L 4.63 58.89
  L 4.42 59.44
  L 4.43 60.15
  L 4.39 60.58
  L 4.14 60.91
  L 3.76 61.07
  L 3.34 61.02
  L 3.01 60.77
  L 2.87 60.46
  L 2.49 60.05
  L 1.93 60.02
  L 1.29 60.02
  L 1.19 59.93
  L 1.05 59.22
  L 1.40 57.35
  L 1.34 56.18
  L 1.36 55.74
  L 1.67 55.42
  L 2.54 54.68
  L 2.78 53.70
  L 2.53 52.25
  L 2.38 51.60
  L 2.41 51.03
  L 2.69 50.54
  L 3.05 50.00
  L 3.19 49.32
  L 3.11 48.37
  L 3.01 47.34
  L 3.13 46.51
  L 3.15 46.44
  L 4.84 41.82
  L 5.08 40.97
  L 4.96 40.30
  L 4.96 40.30
  L 4.14 39.67
  L 3.80 39.40
  L 3.70 38.98
  L 4.08 37.49
  L 4.84 36.50
  L 5.66 36.07
  L 6.69 35.92
  L 7.29 35.75
  L 7.71 35.29
  L 11.27 28.97
  L 14.28 24.78
  L 20.17 18.37
  L 24.31 14.52
  L 30.86 10.12
  L 36.63 6.86
  L 40.93 5.05
  L 45.28 3.55
  L 49.68 2.36
  L 54.13 1.48
  L 54.13 1.48
  L 54.13 1.48
  L 58.23 0.95
  L 62.38 0.69
  L 66.57 0.68
  L 70.80 0.93
  L 74.99 1.47
  L 78.13 2.21
  L 82.95 3.52
  L 84.96 4.09
  L 87.66 5.12
  L 93.57 7.90
  L 99.04 11.12
  L 104.08 14.78
  L 108.67 18.89
  L 108.67 18.89
  L 108.67 18.89
  L 108.67 18.89
  L 113.23 23.93
  L 117.25 29.50
  L 120.74 35.62
  L 123.70 42.27
  L 123.90 43.54
  L 123.94 44.02
  L 124.19 44.43
  L 124.81 45.57
  L 125.36 47.62
  L 128.00 61.63
  Z
  M 5.69 46.03
  L 5.75 45.68
  L 5.68 45.62
  L 5.66 45.64
  L 5.45 46.10
  L 5.48 46.17
  L 5.69 46.03
  Z
  M 9.55 46.39
  L 9.79 46.02
  L 9.79 45.88
  L 9.59 45.70
  L 9.33 45.78
  L 9.13 46.16
  L 9.12 46.32
  L 9.31 46.49
  L 9.55 46.39
  Z
  M 13.09 47.61
  L 12.74 48.09
  L 12.74 48.20
  L 12.82 48.27
  L 13.19 47.66
  L 13.19 47.62
  L 13.09 47.61
  Z
  M 15.2246 48.5123
  L 14.9205 48.6349
  L 14.5986 49.1178
  L 14.4473 49.6781
  L 14.5554 49.9877
  L 14.8595 49.8651
  L 15.1814 49.3822
  L 15.3327 48.8219
  L 15.2246 48.5123
  Z
  M 12.52 49.12
  L 12.28 49.47
  L 12.28 49.50
  L 12.31 49.58
  L 12.66 49.60
  L 12.77 49.29
  L 12.56 49.10
  L 12.52 49.12
  Z
  M 2.84 59.64
  L 3.22 58.72
  L 3.09 58.40
  L 2.60 58.40
  L 2.39 58.66
  L 2.35 59.57
  L 2.50 59.78
  L 2.76 59.75
  L 2.84 59.64
  Z
  M 3.68 75.31
  L 3.57 75.35
  L 3.46 75.55
  L 3.58 75.75
  L 4.51 76.50
  L 5.33 77.58
  L 5.70 77.66
  L 5.72 77.65
  L 5.73 77.64
  L 5.76 77.30
  L 5.26 76.61
  L 5.20 76.50
  L 5.24 76.10
  L 5.59 75.88
  L 6.76 75.73
  L 6.80 75.49
  L 6.63 75.33
  L 6.63 75.33
  L 6.53 75.32
  L 5.80 75.31
  L 5.27 75.06
  L 5.27 75.06
  L 4.93 74.60
  L 4.84 74.49
  L 4.56 74.45
  L 4.38 74.67
  L 4.16 75.12
  L 3.68 75.31
  Z
  M 7.88 80.39
  L 7.81 79.54
  L 7.55 79.30
  L 7.22 79.40
  L 7.22 79.40
  L 7.13 79.56
  L 7.47 80.53
  L 7.67 80.63
  L 7.86 80.50
  L 7.88 80.39
  Z
  M 6.96 87.79
  L 7.50 87.36
  L 8.11 87.50
  L 8.36 87.58
  L 8.95 87.28
  L 9.07 86.54
  L 8.74 86.01
  L 8.74 86.01
  L 8.20 85.94
  L 7.43 86.24
  L 6.88 86.74
  L 6.42 87.59
  L 6.58 87.81
  L 6.61 87.84
  L 6.96 87.79
  Z
  M 7.09 89.25
  L 7.85 90.64
  L 8.67 91.12
  L 9.23 91.11
  L 9.63 90.92
  L 9.81 90.69
  L 9.90 90.40
  L 9.90 90.40
  L 9.83 89.96
  L 9.53 89.50
  L 8.67 89.09
  L 7.09 89.25
  Z
  M 11.41 90.85
  L 11.09 91.27
  L 11.03 91.45
  L 11.15 91.80
  L 12.09 93.45
  L 12.81 95.50
  L 13.32 96.07
  L 14.08 96.03
  L 14.25 95.90
  L 14.62 95.43
  L 14.72 94.98
  L 14.53 94.53
  L 12.59 92.93
  L 12.01 92.41
  L 11.72 91.83
  L 11.72 91.16
  L 11.72 91.15
  L 11.65 90.91
  L 11.41 90.85
  Z
  M 9.0952 91.7186
  L 8.8452 92.2665
  L 8.9905 93.3788
  L 9.4460 94.4040
  L 9.9448 94.7414
  L 10.1948 94.1935
  L 10.0495 93.0812
  L 9.5940 92.0560
  L 9.0952 91.7186
  Z
  M 12.21 96.14
  L 11.86 95.68
  L 11.68 95.65
  L 11.41 95.86
  L 11.45 96.20
  L 11.88 96.51
  L 12.01 96.54
  L 12.23 96.40
  L 12.21 96.14
  Z
  M 14.83 96.41
  L 14.47 96.31
  L 14.38 96.40
  L 14.40 96.43
  L 14.77 96.64
  L 14.81 96.63
  L 14.83 96.41
  Z
  M 15.00 98.19
  L 14.75 98.23
  L 14.72 98.25
  L 14.69 98.40
  L 16.02 100.62
  L 16.24 100.73
  L 16.60 100.57
  L 16.61 100.18
  L 15.66 98.52
  L 15.62 98.00
  L 15.99 97.65
  L 15.99 97.65
  L 16.12 97.62
  L 16.70 97.65
  L 16.98 97.55
  L 17.05 97.39
  L 16.99 97.25
  L 16.89 97.15
  L 16.22 96.99
  L 15.20 97.28
  L 14.89 97.57
  L 15.08 98.05
  L 15.10 98.08
  L 15.00 98.19
  Z
  M 20.16 99.11
  L 20.20 97.71
  L 20.17 97.60
  L 19.99 97.51
  L 19.82 97.62
  L 19.37 98.43
  L 19.45 98.88
  L 19.84 99.46
  L 20.06 99.35
  L 20.16 99.11
  Z
  M 25.76 97.48
  L 25.37 97.20
  L 25.15 97.22
  L 25.08 97.42
  L 25.08 97.42
  L 25.16 97.54
  L 25.48 97.77
  L 25.70 97.79
  L 25.81 97.60
  L 25.76 97.48
  Z
  M 17.87 98.58
  L 17.85 98.56
  L 17.60 98.45
  L 17.61 98.48
  L 17.82 98.65
  L 17.84 98.65
  L 17.87 98.58
  Z
  M 28.70 103.40
  L 27.95 103.13
  L 27.82 103.13
  L 27.62 103.30
  L 27.66 103.57
  L 28.27 103.89
  L 28.41 103.91
  L 28.69 103.73
  L 28.70 103.40
  Z
  M 32.06 105.58
  L 32.22 105.27
  L 32.22 105.15
  L 32.20 105.09
  L 32.01 104.92
  L 31.76 104.97
  L 31.37 105.14
  L 30.60 105.05
  L 29.72 104.44
  L 29.43 104.36
  L 29.21 104.55
  L 29.18 104.65
  L 29.23 104.92
  L 29.46 105.40
  L 29.88 105.71
  L 32.60 106.85
  L 32.61 106.85
  L 32.92 106.85
  L 33.14 106.62
  L 33.89 105.67
  L 34.02 105.30
  L 33.84 104.95
  L 33.82 104.93
  L 33.71 104.87
  L 33.05 105.01
  L 32.75 105.68
  L 32.59 105.87
  L 32.16 105.88
  L 32.10 105.86
  L 32.06 105.58
  Z
  M 25.80 105.82
  L 25.59 105.55
  L 25.38 105.43
  L 25.11 105.46
  L 25.00 105.70
  L 25.03 105.82
  L 25.30 106.15
  L 25.37 106.20
  L 25.51 106.25
  L 25.78 106.11
  L 25.80 105.82
  Z
  M 33.6209 107.2273
  L 33.8688 107.9077
  L 34.9375 108.7769
  L 36.2010 109.3257
  L 36.9191 109.2327
  L 36.6712 108.5523
  L 35.6025 107.6831
  L 34.3390 107.1343
  L 33.6209 107.2273
  Z
  M 32.88 111.42
  L 33.68 110.88
  L 33.94 110.86
  L 34.15 110.75
  L 34.17 110.51
  L 34.09 110.42
  L 30.86 108.10
  L 30.85 108.09
  L 30.55 108.15
  L 30.37 108.40
  L 30.34 108.45
  L 30.33 108.74
  L 30.55 108.94
  L 31.78 109.53
  L 32.40 110.34
  L 32.40 110.34
  L 32.45 111.22
  L 32.46 111.35
  L 32.65 111.51
  L 32.88 111.42
  Z
  M 34.5594 111.0942
  L 34.6197 111.4644
  L 35.0375 111.8145
  L 35.5681 111.9393
  L 35.9006 111.7658
  L 35.8403 111.3956
  L 35.4225 111.0455
  L 34.8919 110.9207
  L 34.5594 111.0942
  Z
  M 33.9866 116.9678
  L 34.1228 117.4348
  L 34.7963 118.1684
  L 35.6125 118.7389
  L 36.0934 118.8122
  L 35.9572 118.3452
  L 35.2837 117.6116
  L 34.4675 117.0411
  L 33.9866 116.9678
  Z
  M 56.2411 119.8189
  L 56.4600 120.0810
  L 57.0889 120.3308
  L 57.7595 120.4220
  L 58.0789 120.3011
  L 57.8600 120.0390
  L 57.2311 119.7892
  L 56.5605 119.6980
  L 56.2411 119.8189
  Z"
/>
<ellipse fill="#e8e8e8" cx="0.00" cy="0.00" transform="translate(1.38,31.22) rotate(-80.4)" rx="0.89" ry="0.77"/>
<ellipse fill="#e8e8e8" cx="0.00" cy="0.00" transform="translate(5.64,32.54) rotate(-176.1)" rx="0.96" ry="0.78"/>
<path fill="#c72316" d="
  M 35.64 61.82
  L 37.89 58.50
  L 38.49 57.82
  L 63.77 36.31
  L 64.08 36.18
  L 64.47 36.31
  L 94.04 61.57
  L 94.01 61.79
  L 93.96 61.80
  L 76.51 61.80
  L 75.74 61.66
  L 75.07 61.27
  L 64.54 52.28
  L 64.23 52.16
  L 63.91 52.28
  L 52.72 61.80
  L 52.25 62.06
  L 51.71 62.11
  L 49.37 61.86
  L 48.57 61.95
  L 47.89 62.38
  L 47.00 63.13
  L 46.28 63.48
  L 46.14 63.49
  L 45.77 63.27
  L 45.74 62.84
  L 45.84 62.45
  L 45.81 62.33
  L 45.47 62.03
  L 45.02 62.11
  L 43.92 62.91
  L 43.43 63.05
  L 35.84 62.25
  L 35.63 62.12
  L 35.61 61.88
  L 35.61 61.88
  L 35.64 61.82
  Z"
/>
<path fill="#e8e8e8" d="
  M 23.73 42.97
  L 23.39 41.86
  L 23.48 41.32
  L 24.03 40.90
  L 25.06 40.70
  L 25.93 40.78
  L 26.24 41.03
  L 26.21 41.43
  L 26.12 41.54
  L 24.29 43.10
  L 24.25 43.13
  L 23.96 43.17
  L 23.73 42.97
  Z"
/>
<path fill="#e8e8e8" d="
  M 12.36 55.78
  L 12.36 55.46
  L 12.55 55.36
  L 12.60 55.42
  L 12.60 55.86
  L 12.45 55.90
  L 12.45 55.90
  L 12.36 55.78
  Z"
/>
<path fill="#c72316" d="
  M 45.85 82.42
  L 45.11 82.58
  L 44.38 82.45
  L 43.32 82.08
  L 41.77 81.86
  L 40.97 82.04
  L 39.74 82.57
  L 37.72 82.78
  L 35.50 82.28
  L 35.44 82.25
  L 35.24 81.97
  L 35.33 81.63
  L 36.39 80.81
  L 37.52 79.89
  L 37.56 79.83
  L 39.05 78.13
  L 40.79 77.13
  L 40.95 77.08
  L 41.41 76.80
  L 41.69 76.33
  L 42.26 75.40
  L 42.26 75.40
  L 42.77 75.11
  L 43.42 74.99
  L 43.79 74.83
  L 43.96 74.47
  L 43.96 74.45
  L 44.15 73.90
  L 63.73 57.11
  L 64.15 56.95
  L 64.57 57.11
  L 79.10 69.55
  L 80.27 70.24
  L 81.54 70.11
  L 81.62 70.09
  L 82.09 70.11
  L 82.48 70.36
  L 83.81 72.26
  L 84.35 73.71
  L 84.79 74.40
  L 94.24 82.48
  L 94.28 82.54
  L 94.13 82.78
  L 80.16 82.78
  L 80.09 82.79
  L 79.90 82.94
  L 79.91 83.19
  L 80.71 84.14
  L 81.71 84.58
  L 81.87 84.68
  L 81.92 84.99
  L 81.66 85.17
  L 79.66 84.87
  L 77.15 83.69
  L 75.63 82.92
  L 74.74 82.72
  L 50.42 82.72
  L 49.29 82.51
  L 45.08 80.88
  L 44.72 80.86
  L 44.31 81.30
  L 44.51 81.87
  L 45.59 81.89
  L 45.73 81.90
  L 45.93 82.13
  L 45.85 82.42
  Z
  M 53.36 79.72
  L 53.05 79.73
  L 53.07 80.05
  L 53.18 80.05
  L 53.47 79.91
  L 53.40 79.72
  L 53.36 79.72
  Z
  M 86.46 80.96
  L 85.71 80.56
  L 84.77 80.33
  L 82.28 80.39
  L 81.73 80.81
  L 81.81 81.47
  L 82.09 81.67
  L 82.57 81.67
  L 83.17 81.38
  L 83.68 81.19
  L 84.22 81.25
  L 85.28 81.53
  L 86.27 81.59
  L 86.42 81.55
  L 86.60 81.27
  L 86.46 80.96
  Z"
/>
<path fill="#e8e8e8" d="
  M 4.54 64.34
  L 4.61 64.39
  L 4.48 64.75
  L 4.25 64.76
  L 4.15 64.64
  L 4.13 64.50
  L 4.22 64.37
  L 4.34 64.31
  L 4.54 64.34
  Z"
/>
<path fill="#e8e8e8" d="
  M 13.73 64.72
  L 13.73 65.03
  L 13.72 65.05
  L 13.57 65.07
  L 13.42 64.72
  L 13.45 64.61
  L 13.73 64.72
  Z"
/>
<path fill="#c72316" d="
  M 89.41 69.92
  L 89.28 69.49
  L 89.36 69.06
  L 89.63 68.72
  L 90.03 68.56
  L 90.40 68.61
  L 90.54 68.69
  L 90.64 68.93
  L 90.43 69.84
  L 90.13 70.04
  L 89.56 70.07
  L 89.41 69.92
  Z"
/>
<path fill="#e8e8e8" d="
  M 14.75 72.76
  L 14.73 73.95
  L 14.76 74.34
  L 16.32 78.64
  L 16.16 78.89
  L 16.12 78.89
  L 15.33 78.81
  L 15.26 78.75
  L 14.83 76.46
  L 14.06 74.85
  L 13.86 74.45
  L 13.71 73.50
  L 13.76 72.80
  L 13.89 72.54
  L 14.38 72.40
  L 14.75 72.76
  Z"
/>
<path fill="#c72316" d="
  M 32.36 72.79
  L 32.30 72.75
  L 32.23 72.54
  L 32.37 72.32
  L 32.65 72.22
  L 32.83 72.26
  L 32.92 72.33
  L 32.95 72.60
  L 32.74 72.80
  L 32.40 72.81
  L 32.36 72.79
  Z"
/>
<path fill="#c72316" d="
  M 37.87 72.99
  L 37.89 72.76
  L 38.16 72.43
  L 38.55 72.39
  L 38.79 72.62
  L 38.82 72.72
  L 38.61 73.18
  L 38.23 73.32
  L 37.91 73.12
  L 37.91 73.12
  L 37.87 72.99
  Z"
/>
<path fill="#c72316" d="
  M 33.54 75.06
  L 33.50 74.98
  L 33.56 74.69
  L 33.82 74.56
  L 33.97 74.58
  L 34.23 74.74
  L 34.31 74.86
  L 34.26 75.19
  L 33.95 75.35
  L 33.86 75.34
  L 33.54 75.06
  Z"
/>
<path fill="#e8e8e8" d="
  M 17.81 84.45
  L 17.29 83.82
  L 17.14 83.45
  L 17.41 83.15
  L 17.41 83.15
  L 17.66 83.17
  L 18.02 83.43
  L 18.31 84.31
  L 18.18 84.54
  L 17.91 84.55
  L 17.81 84.45
  Z"
/>
<path fill="#c72316" d="
  M 84.57 87.04
  L 84.31 87.20
  L 83.96 87.12
  L 83.86 87.02
  L 83.86 86.74
  L 84.10 86.59
  L 84.51 86.73
  L 84.58 87.02
  L 84.57 87.04
  Z"
/>
<path fill="#e8e8e8" d="
  M 18.01 93.46
  L 17.48 93.09
  L 16.98 92.16
  L 17.04 91.90
  L 17.28 91.79
  L 17.28 91.79
  L 17.37 91.81
  L 18.05 92.39
  L 18.05 92.39
  L 18.14 92.87
  L 18.01 93.46
  Z"
/>
</svg>
