<?xml version="1.0" encoding="UTF-8" standalone="no"?>
<!DOCTYPE svg PUBLIC "-//W3C//DTD SVG 1.1//EN" "http://www.w3.org/Graphics/SVG/1.1/DTD/svg11.dtd">
<svg xmlns="http://www.w3.org/2000/svg" version="1.1" viewBox="0.00 0.00 93.00 96.00">
<g stroke-width="2.00" fill="none" stroke-linecap="butt">
<path stroke="#d16907" vector-effect="non-scaling-stroke" d="
  M 44.55 7.87
  Q 47.09 9.79 51.09 10.02"
/>
<path stroke="#ff9300" vector-effect="non-scaling-stroke" d="
  M 51.09 10.02
  C 52.33 13.14 50.01 13.90 47.45 13.58
  Q 37.26 12.30 32.92 12.60
  A 1.99 1.91 -59.2 0 0 32.23 12.79
  L 28.92 14.45
  A 1.26 1.25 77.3 0 0 28.22 15.56
  Q 28.05 24.75 36.99 24.40
  Q 43.20 24.16 47.87 24.60
  A 1.43 1.42 -17.5 0 1 48.84 25.10
  Q 54.07 31.12 53.23 39.21"
/>
<path stroke="#f78001" vector-effect="non-scaling-stroke" d="
  M 53.23 39.21
  C 48.05 48.22 39.19 46.53 31.03 43.77
  A 2.20 2.20 0.0 0 0 28.51 44.62
  L 24.50 50.51
  A 0.83 0.81 61.6 0 0 24.36 51.00
  Q 24.51 55.64 27.16 59.51"
/>
<path stroke="#d15b07" vector-effect="non-scaling-stroke" d="
  M 23.29 79.89
  C 25.31 83.11 30.51 84.65 33.81 85.49"
/>
<path stroke="#be3d08" vector-effect="non-scaling-stroke" d="
  M 33.81 85.49
  C 43.33 88.71 52.78 87.32 61.74 82.95
  C 66.74 80.52 71.84 74.71 74.87 70.12
  Q 86.08 53.14 79.90 33.60
  C 79.02 30.81 77.41 28.34 75.77 25.51
  Q 73.92 22.31 70.98 20.29"
/>
<path stroke="#d15b07" vector-effect="non-scaling-stroke" d="
  M 70.98 20.29
  Q 62.76 12.00 51.09 10.02"
/>
<path stroke="#ec6701" vector-effect="non-scaling-stroke" d="
  M 70.98 20.29
  Q 72.20 28.13 73.77 35.92
  C 74.16 37.83 75.20 40.94 75.29 43.50
  Q 75.88 59.96 65.59 72.61
  Q 64.56 73.88 57.48 79.53
  A 5.40 5.23 -75.3 0 1 56.29 80.25
  Q 48.33 83.72 47.18 84.02
  Q 44.23 84.80 33.81 85.49"
/>
<path stroke="#f77201" vector-effect="non-scaling-stroke" d="
  M 27.93 71.00
  Q 39.87 66.96 44.03 65.95
  C 50.06 64.49 53.99 62.33 57.14 56.97
  Q 62.36 48.08 55.63 37.57
  A 0.90 0.90 0.0 0 0 54.00 37.84
  Q 53.85 38.43 53.23 39.21"
/>
<path stroke="#ec7501" vector-effect="non-scaling-stroke" d="
  M 18.08 29.23
  Q 18.49 28.62 19.00 28.30
  A 1.12 1.12 0.0 0 1 20.10 28.26
  Q 23.42 29.97 26.19 26.78
  A 0.66 0.65 -49.5 0 0 26.12 25.84
  Q 23.40 23.55 20.49 24.91
  A 1.67 1.65 3.1 0 0 19.78 25.54
  L 17.66 29.01
  A 0.25 0.24 -53.5 0 0 17.70 29.31
  L 17.71 29.31
  A 0.27 0.26 -56.3 0 0 18.08 29.23"
/>
</g>
<path fill="#ffa000" d="
  M 44.55 7.87
  Q 47.09 9.79 51.09 10.02
  C 52.33 13.14 50.01 13.90 47.45 13.58
  Q 37.26 12.30 32.92 12.60
  A 1.99 1.91 -59.2 0 0 32.23 12.79
  L 28.92 14.45
  A 1.26 1.25 77.3 0 0 28.22 15.56
  Q 28.05 24.75 36.99 24.40
  Q 43.20 24.16 47.87 24.60
  A 1.43 1.42 -17.5 0 1 48.84 25.10
  Q 54.07 31.12 53.23 39.21
  C 48.05 48.22 39.19 46.53 31.03 43.77
  A 2.20 2.20 0.0 0 0 28.51 44.62
  L 24.50 50.51
  A 0.83 0.81 61.6 0 0 24.36 51.00
  Q 24.51 55.64 27.16 59.51
  Q 23.88 62.47 19.73 62.70
  A 0.95 0.94 -13.1 0 1 18.80 62.13
  L 17.99 60.24
  A 2.04 2.03 -6.9 0 0 16.44 59.03
  Q 10.80 58.13 6.56 55.22
  C 2.87 52.70 3.43 49.67 5.48 45.94
  Q 8.47 40.54 15.33 26.07
  A 1.19 0.97 65.7 0 0 15.41 25.77
  L 15.80 22.90
  A 3.62 3.59 -21.3 0 1 16.61 21.07
  Q 19.11 18.13 23.24 15.65
  A 0.46 0.46 0.0 0 0 23.11 14.80
  Q 17.06 13.41 12.49 8.47
  A 0.49 0.48 -21.3 0 1 12.85 7.66
  L 19.43 7.66
  A 0.51 0.51 0.0 0 0 19.79 6.78
  Q 18.57 5.59 17.39 3.22
  A 0.33 0.32 -7.2 0 1 17.75 2.76
  Q 24.60 4.26 36.10 5.32
  Q 39.35 5.62 44.55 7.87
  Z
  M 18.08 29.23
  Q 18.49 28.62 19.00 28.30
  A 1.12 1.12 0.0 0 1 20.10 28.26
  Q 23.42 29.97 26.19 26.78
  A 0.66 0.65 -49.5 0 0 26.12 25.84
  Q 23.40 23.55 20.49 24.91
  A 1.67 1.65 3.1 0 0 19.78 25.54
  L 17.66 29.01
  A 0.25 0.24 -53.5 0 0 17.70 29.31
  L 17.71 29.31
  A 0.27 0.26 -56.3 0 0 18.08 29.23
  Z"
/>
<path fill="#a3310e" d="
  M 23.29 79.89
  C 25.31 83.11 30.51 84.65 33.81 85.49
  C 43.33 88.71 52.78 87.32 61.74 82.95
  C 66.74 80.52 71.84 74.71 74.87 70.12
  Q 86.08 53.14 79.90 33.60
  C 79.02 30.81 77.41 28.34 75.77 25.51
  Q 73.92 22.31 70.98 20.29
  Q 62.76 12.00 51.09 10.02
  Q 47.09 9.79 44.55 7.87
  C 55.27 6.22 69.16 8.77 76.71 17.18
  A 0.49 0.49 0.0 0 1 76.66 17.89
  L 76.64 17.91
  A 0.47 0.47 0.0 0 1 76.06 17.91
  Q 73.58 15.90 71.09 15.21
  A 0.13 0.13 0.0 0 0 70.98 15.45
  C 83.30 23.55 88.48 34.95 89.09 49.07
  A 0.41 0.41 0.0 0 1 88.30 49.25
  L 85.83 43.49
  A 0.23 0.23 0.0 0 0 85.40 43.64
  Q 93.04 71.64 70.23 87.96
  A 0.30 0.30 0.0 0 1 69.82 87.54
  L 73.57 82.46
  A 0.03 0.02 -58.3 0 0 73.57 82.43
  L 73.32 82.26
  A 0.19 0.18 -49.1 0 0 73.09 82.28
  Q 67.18 88.09 61.36 90.41
  Q 47.83 95.83 32.82 93.39
  A 0.07 0.07 0.0 0 1 32.82 93.26
  L 40.80 92.02
  A 0.21 0.21 0.0 0 0 40.79 91.61
  Q 19.23 89.39 8.95 68.57
  A 0.15 0.14 -80.7 0 1 9.18 68.40
  Q 15.34 74.79 22.34 80.25
  Q 22.82 80.62 23.27 80.26
  Q 23.50 80.08 23.29 79.89
  Z"
/>
<path fill="#ff8500" d="
  M 70.98 20.29
  Q 72.20 28.13 73.77 35.92
  C 74.16 37.83 75.20 40.94 75.29 43.50
  Q 75.88 59.96 65.59 72.61
  Q 64.56 73.88 57.48 79.53
  A 5.40 5.23 -75.3 0 1 56.29 80.25
  Q 48.33 83.72 47.18 84.02
  Q 44.23 84.80 33.81 85.49
  C 30.51 84.65 25.31 83.11 23.29 79.89
  Q 23.78 74.82 27.93 71.00
  Q 39.87 66.96 44.03 65.95
  C 50.06 64.49 53.99 62.33 57.14 56.97
  Q 62.36 48.08 55.63 37.57
  A 0.90 0.90 0.0 0 0 54.00 37.84
  Q 53.85 38.43 53.23 39.21
  Q 54.07 31.12 48.84 25.10
  A 1.43 1.42 -17.5 0 0 47.87 24.60
  Q 43.20 24.16 36.99 24.40
  Q 28.05 24.75 28.22 15.56
  A 1.26 1.25 77.3 0 1 28.92 14.45
  L 32.23 12.79
  A 1.99 1.91 -59.2 0 1 32.92 12.60
  Q 37.26 12.30 47.45 13.58
  C 50.01 13.90 52.33 13.14 51.09 10.02
  Q 62.76 12.00 70.98 20.29
  Z"
/>
<path fill="#d94901" d="
  M 33.81 85.49
  Q 44.23 84.80 47.18 84.02
  Q 48.33 83.72 56.29 80.25
  A 5.40 5.23 -75.3 0 0 57.48 79.53
  Q 64.56 73.88 65.59 72.61
  Q 75.88 59.96 75.29 43.50
  C 75.20 40.94 74.16 37.83 73.77 35.92
  Q 72.20 28.13 70.98 20.29
  Q 73.92 22.31 75.77 25.51
  C 77.41 28.34 79.02 30.81 79.90 33.60
  Q 86.08 53.14 74.87 70.12
  C 71.84 74.71 66.74 80.52 61.74 82.95
  C 52.78 87.32 43.33 88.71 33.81 85.49
  Z"
/>
<path fill="#d94901" d="
  M 18.08 29.23
  A 0.27 0.26 -56.3 0 1 17.71 29.31
  L 17.70 29.31
  A 0.25 0.24 -53.5 0 1 17.66 29.01
  L 19.78 25.54
  A 1.67 1.65 3.1 0 1 20.49 24.91
  Q 23.40 23.55 26.12 25.84
  A 0.66 0.65 -49.5 0 1 26.19 26.78
  Q 23.42 29.97 20.10 28.26
  A 1.12 1.12 0.0 0 0 19.00 28.30
  Q 18.49 28.62 18.08 29.23
  Z"
/>
<path fill="#ee5f01" d="
  M 27.93 71.00
  Q 31.95 67.39 40.28 62.05
  Q 42.72 60.48 45.56 56.46
  C 47.18 54.17 47.45 51.61 47.05 49.04
  A 0.64 0.62 -5.5 0 0 46.39 48.51
  C 44.13 48.67 43.12 48.86 41.20 48.48
  C 37.74 47.80 27.05 52.54 27.36 57.24
  Q 27.48 59.01 27.16 59.51
  Q 24.51 55.64 24.36 51.00
  A 0.83 0.81 61.6 0 1 24.50 50.51
  L 28.51 44.62
  A 2.20 2.20 0.0 0 1 31.03 43.77
  C 39.19 46.53 48.05 48.22 53.23 39.21
  Q 53.85 38.43 54.00 37.84
  A 0.90 0.90 0.0 0 1 55.63 37.57
  Q 62.36 48.08 57.14 56.97
  C 53.99 62.33 50.06 64.49 44.03 65.95
  Q 39.87 66.96 27.93 71.00
  Z"
/>
</svg>
