<?xml version="1.0" encoding="UTF-8" standalone="no"?>
<!DOCTYPE svg PUBLIC "-//W3C//DTD SVG 1.1//EN" "http://www.w3.org/Graphics/SVG/1.1/DTD/svg11.dtd">
<svg xmlns="http://www.w3.org/2000/svg" version="1.1" viewBox="0.00 0.00 264.00 265.00">
<g stroke-width="2.00" fill="none" stroke-linecap="butt">
<path stroke="#c60000" vector-effect="non-scaling-stroke" d="
  M 236.90 98.65
  L 212.21 69.89"
/>
<path stroke="#990000" vector-effect="non-scaling-stroke" d="
  M 218.25 123.78
  L 198.68 101.94"
/>
<path stroke="#bf4d00" vector-effect="non-scaling-stroke" d="
  M 209.91 130.14
  L 202.90 134.17
  A 0.14 0.14 0.0 0 0 203.01 134.42
  L 210.08 132.20"
/>
<path stroke="#bf4d00" vector-effect="non-scaling-stroke" d="
  M 214.76 165.22
  L 209.14 167.39
  A 0.17 0.17 0.0 0 0 209.22 167.71
  L 214.97 167.02"
/>
<path stroke="#6e0000" vector-effect="non-scaling-stroke" d="
  M 214.06 198.52
  C 201.22 179.52 186.71 161.66 173.02 143.29"
/>
<path stroke="#af4d00" vector-effect="non-scaling-stroke" d="
  M 201.98 200.95
  L 198.06 201.60
  A 0.16 0.15 -8.6 0 0 197.93 201.76
  L 197.93 201.77
  A 0.19 0.15 5.7 0 0 198.08 201.91
  L 202.01 202.56"
/>
<path stroke="#990000" vector-effect="non-scaling-stroke" d="
  M 238.34 150.06
  L 220.98 127.24"
/>
<path stroke="#ff8c00" vector-effect="non-scaling-stroke" d="
  M 50.38 53.44
  Q 36.82 57.44 22.79 59.77"
/>
<path stroke="#ff6e00" vector-effect="non-scaling-stroke" d="
  M 67.23 105.26
  L 38.64 116.27"
/>
<path stroke="#ff7c00" vector-effect="non-scaling-stroke" d="
  M 54.93 132.11
  Q 57.85 133.90 61.23 134.35
  A 0.09 0.08 62.8 0 0 61.28 134.19
  L 55.06 130.72"
/>
<path stroke="#ff5200" vector-effect="non-scaling-stroke" d="
  M 96.28 152.73
  Q 74.89 159.28 54.56 168.24
  A 1.09 1.08 45.3 0 1 53.68 168.23
  L 52.19 167.53"
/>
<path stroke="#ff7c00" vector-effect="non-scaling-stroke" d="
  M 52.19 167.53
  L 54.60 167.72
  A 0.16 0.16 0.0 0 0 54.68 167.41
  L 50.15 165.35"
/>
<path stroke="#ff3a00" vector-effect="non-scaling-stroke" d="
  M 165.58 163.21
  Q 149.57 172.89 129.51 178.37
  Q 83.28 191.00 69.59 194.23
  Q 60.53 196.37 50.79 198.60"
/>
<path stroke="#ff7000" vector-effect="non-scaling-stroke" d="
  M 50.02 166.94
  L 52.19 167.53"
/>
<path stroke="#ff6400" vector-effect="non-scaling-stroke" d="
  M 100.09 253.17
  L 102.23 252.26
  A 0.27 0.27 0.0 0 0 102.23 251.76
  L 100.12 250.93"
/>
<path stroke="#ff6400" vector-effect="non-scaling-stroke" d="
  M 63.08 202.06
  Q 64.64 202.60 65.85 201.81
  A 0.24 0.24 0.0 0 0 65.76 201.37
  L 63.04 200.92"
/>
<path stroke="#ff5200" vector-effect="non-scaling-stroke" d="
  M 143.04 126.24
  L 116.34 136.75"
/>
</g>
<path fill="#d70000" d="
  M 236.90 98.65
  L 212.21 69.89
  C 215.80 42.83 204.64 16.04 181.40 1.21
  A 0.08 0.08 0.0 0 1 181.47 1.06
  C 198.41 7.86 214.48 17.38 226.58 30.86
  Q 234.75 39.96 238.74 50.10
  Q 246.57 70.01 239.58 91.63
  Q 238.47 95.09 236.90 98.65
  Z"
/>
<path fill="#ff9a00" d="
  M 50.38 53.44
  Q 36.82 57.44 22.79 59.77
  L 25.58 49.89
  A 0.12 0.06 73.2 0 1 25.59 49.84
  Q 32.43 34.48 45.37 23.36
  Q 60.37 10.48 79.59 2.56
  A 0.05 0.04 -72.7 0 1 79.63 2.64
  Q 53.74 21.34 50.38 53.44
  Z
  M 71.83 8.01
  Q 71.43 8.29 71.37 8.55
  A 0.27 0.27 0.0 0 0 71.82 8.80
  Q 72.26 8.39 72.26 8.38
  A 0.30 0.29 85.6 0 0 71.83 8.01
  Z"
/>
<path fill="#ff7e00" d="
  M 50.38 53.44
  Q 48.41 83.06 67.23 105.26
  L 38.64 116.27
  Q 20.11 94.73 21.72 66.00
  Q 21.85 63.62 22.79 59.77
  Q 36.82 57.44 50.38 53.44
  Z"
/>
<path fill="#b40000" d="
  M 212.21 69.89
  L 236.90 98.65
  Q 230.57 113.22 218.25 123.78
  L 198.68 101.94
  Q 201.08 98.35 203.29 94.62
  Q 210.10 83.11 212.21 69.89
  Z"
/>
<path fill="#ff5e00" d="
  M 54.93 132.11
  Q 57.85 133.90 61.23 134.35
  A 0.09 0.08 62.8 0 0 61.28 134.19
  L 55.06 130.72
  L 54.93 130.41
  A 1.05 1.03 4.9 0 0 54.50 129.91
  Q 45.53 124.36 38.64 116.27
  L 67.23 105.26
  Q 76.23 115.46 88.21 121.52
  A 0.74 0.74 0.0 0 1 88.62 122.24
  Q 87.07 138.93 96.28 152.73
  Q 74.89 159.28 54.56 168.24
  A 1.09 1.08 45.3 0 1 53.68 168.23
  L 52.19 167.53
  L 54.60 167.72
  A 0.16 0.16 0.0 0 0 54.68 167.41
  L 50.15 165.35
  Q 30.26 157.67 18.52 141.49
  C 4.88 122.69 0.44 98.44 9.14 76.29
  A 0.17 0.17 0.0 0 1 9.47 76.33
  Q 11.22 86.15 12.63 89.94
  Q 23.60 119.30 52.32 131.78
  A 1.90 1.79 57.0 0 0 52.94 131.93
  L 54.93 132.11
  Z"
/>
<path fill="#b40000" d="
  M 238.34 150.06
  L 220.98 127.24
  C 239.55 116.29 252.21 97.36 254.91 75.91
  A 0.13 0.13 0.0 0 1 255.16 75.89
  C 256.27 79.25 257.90 83.53 258.57 87.47
  Q 263.01 113.55 249.27 136.32
  Q 244.70 143.90 238.34 150.06
  Z"
/>
<path fill="#ff5e00" d="
  M 143.04 126.24
  L 116.34 136.75
  Q 112.87 121.92 117.93 107.55
  A 0.41 0.41 0.0 0 0 117.54 107.01
  C 112.84 107.06 109.08 107.48 105.21 106.46
  Q 100.54 105.23 96.91 102.26
  A 0.23 0.23 0.0 0 1 97.03 101.85
  C 108.58 100.71 116.94 94.05 125.99 86.75
  Q 128.75 84.51 132.77 82.79
  Q 138.58 80.30 143.54 83.63
  A 2.02 1.98 65.0 0 0 144.39 83.95
  Q 145.48 84.08 147.37 82.68
  Q 150.97 79.99 156.07 78.09
  C 159.80 76.70 163.10 77.22 166.34 79.28
  A 0.32 0.32 0.0 0 1 166.21 79.86
  C 160.71 80.53 157.75 84.28 153.77 88.85
  Q 146.62 97.08 143.78 102.30
  Q 137.68 113.53 143.04 126.24
  Z"
/>
<path fill="#7e0000" d="
  M 198.68 101.94
  L 218.25 123.78
  L 209.91 130.14
  L 202.90 134.17
  A 0.14 0.14 0.0 0 0 203.01 134.42
  L 210.08 132.20
  Q 215.71 130.63 220.98 127.24
  L 238.34 150.06
  Q 228.14 159.83 214.76 165.22
  L 209.14 167.39
  A 0.17 0.17 0.0 0 0 209.22 167.71
  L 214.97 167.02
  Q 221.11 166.38 227.90 163.65
  Q 250.72 154.51 263.32 133.34
  A 0.09 0.09 0.0 0 1 263.48 133.40
  Q 262.41 144.66 259.90 155.44
  Q 258.64 160.87 255.52 166.21
  Q 241.51 190.19 214.06 198.52
  C 201.22 179.52 186.71 161.66 173.02 143.29
  Q 176.92 132.80 175.65 121.70
  A 0.73 0.73 0.0 0 1 176.03 120.98
  Q 185.94 115.71 192.76 108.53
  Q 194.08 107.14 198.68 101.94
  Z"
/>
<path fill="#ff4500" d="
  M 165.58 163.21
  Q 149.57 172.89 129.51 178.37
  Q 83.28 191.00 69.59 194.23
  Q 60.53 196.37 50.79 198.60
  Q 22.81 190.42 8.51 165.54
  Q 5.60 160.49 4.41 155.26
  Q 1.98 144.60 0.93 133.55
  A 0.09 0.09 0.0 0 1 1.10 133.49
  Q 15.83 158.24 43.72 166.05
  Q 47.36 167.07 50.02 166.94
  L 52.19 167.53
  L 53.68 168.23
  A 1.09 1.08 45.3 0 0 54.56 168.24
  Q 74.89 159.28 96.28 152.73
  Q 98.77 155.74 101.61 158.63
  Q 108.44 165.60 116.78 168.47
  Q 118.35 169.01 119.90 168.95
  A 0.58 0.57 -89.4 0 0 120.45 168.40
  Q 120.86 158.41 119.00 149.75
  Q 117.05 140.64 116.34 136.75
  L 143.04 126.24
  Q 146.38 133.48 149.44 137.80
  C 156.23 147.39 161.25 154.11 165.58 163.21
  Z"
/>
<path fill="#ff9a00" d="
  M 209.91 130.14
  L 210.08 132.20
  L 203.01 134.42
  A 0.14 0.14 0.0 0 1 202.90 134.17
  L 209.91 130.14
  Z"
/>
<path fill="#ff9a00" d="
  M 54.93 132.11
  L 55.06 130.72
  L 61.28 134.19
  A 0.09 0.08 62.8 0 1 61.23 134.35
  Q 57.85 133.90 54.93 132.11
  Z"
/>
<path fill="#5e0000" d="
  M 214.06 198.52
  L 201.98 200.95
  L 198.06 201.60
  A 0.16 0.15 -8.6 0 0 197.93 201.76
  L 197.93 201.77
  A 0.19 0.15 5.7 0 0 198.08 201.91
  L 202.01 202.56
  Q 222.87 204.10 241.29 194.35
  A 2.39 0.47 -26.1 0 0 241.56 194.19
  L 243.39 192.95
  A 0.23 0.23 0.0 0 1 243.71 193.27
  Q 235.97 204.59 232.03 209.03
  Q 195.84 249.88 141.17 254.67
  A 0.14 0.14 0.0 0 1 141.08 254.41
  C 176.87 232.09 191.61 189.29 169.38 151.23
  A 0.19 0.19 0.0 0 1 169.37 151.04
  L 173.02 143.29
  C 186.71 161.66 201.22 179.52 214.06 198.52
  Z"
/>
<path fill="#ff2e00" d="
  M 100.09 253.17
  L 102.23 252.26
  A 0.27 0.27 0.0 0 0 102.23 251.76
  L 100.12 250.93
  Q 75.08 244.44 54.81 229.68
  Q 35.06 215.30 20.84 193.51
  A 0.16 0.16 0.0 0 1 21.05 193.29
  Q 21.81 193.70 24.08 194.87
  Q 41.51 203.88 62.24 202.65
  Q 62.85 202.61 63.08 202.06
  Q 64.64 202.60 65.85 201.81
  A 0.24 0.24 0.0 0 0 65.76 201.37
  L 63.04 200.92
  L 50.79 198.60
  Q 60.53 196.37 69.59 194.23
  Q 83.28 191.00 129.51 178.37
  Q 149.57 172.89 165.58 163.21
  Q 168.62 168.83 170.70 176.26
  Q 175.56 193.59 170.83 210.05
  Q 165.67 228.01 150.99 241.78
  Q 131.23 260.31 103.72 264.00
  Q 92.76 265.47 81.92 263.79
  Q 55.67 259.73 36.42 241.09
  Q 35.84 240.52 35.75 240.55
  Q 35.17 240.74 35.16 240.54
  A 0.36 0.36 0.0 0 1 35.73 240.22
  Q 64.87 260.09 100.09 253.17
  Z"
/>
<path fill="#ff9a00" d="
  M 52.19 167.53
  L 50.02 166.94
  Q 49.92 166.27 50.15 165.35
  L 54.68 167.41
  A 0.16 0.16 0.0 0 1 54.60 167.72
  L 52.19 167.53
  Z"
/>
<path fill="#ff9a00" d="
  M 214.76 165.22
  Q 215.08 166.17 214.97 167.02
  L 209.22 167.71
  A 0.17 0.17 0.0 0 1 209.14 167.39
  L 214.76 165.22
  Z"
/>
<path fill="#ff9a00" d="
  M 63.08 202.06
  L 63.04 200.92
  L 65.76 201.37
  A 0.24 0.24 0.0 0 1 65.85 201.81
  Q 64.64 202.60 63.08 202.06
  Z"
/>
<path fill="#ff9a00" d="
  M 201.98 200.95
  L 202.01 202.56
  L 198.08 201.91
  A 0.19 0.15 5.7 0 1 197.93 201.77
  L 197.93 201.76
  A 0.16 0.15 -8.6 0 1 198.06 201.60
  L 201.98 200.95
  Z"
/>
<path fill="#ff9a00" d="
  M 100.09 253.17
  L 100.12 250.93
  L 102.23 251.76
  A 0.27 0.27 0.0 0 1 102.23 252.26
  L 100.09 253.17
  Z"
/>
</svg>
