<?xml version="1.0" encoding="UTF-8" standalone="no"?>
<!DOCTYPE svg PUBLIC "-//W3C//DTD SVG 1.1//EN" "http://www.w3.org/Graphics/SVG/1.1/DTD/svg11.dtd">
<svg xmlns="http://www.w3.org/2000/svg" version="1.1" viewBox="0.00 0.00 89.00 96.00">
<g stroke-width="2.00" fill="none" stroke-linecap="butt">
<path stroke="#7f091d" vector-effect="non-scaling-stroke" d="
  M 34.04 1.09
  L 33.46 1.30"
/>
<path stroke="#808080" vector-effect="non-scaling-stroke" d="
  M 33.46 1.30
  C 20.82 6.36 10.33 16.97 7.91 30.66
  C 6.16 40.57 9.44 49.34 18.58 53.68
  C 20.41 54.54 21.38 55.61 21.83 57.38
  A 0.42 0.42 0.0 0 0 22.65 57.36
  Q 23.23 54.60 24.53 52.68
  A 0.37 0.36 67.1 0 1 25.19 52.95
  C 24.30 57.86 22.98 61.34 26.29 65.60
  A 0.35 0.35 0.0 0 1 25.84 66.12
  L 24.44 65.32
  A 0.54 0.54 0.0 0 0 23.64 65.89
  Q 25.12 73.04 28.59 76.83
  A 0.46 0.46 0.0 0 0 29.30 76.79
  Q 30.76 74.82 30.57 72.98
  A 0.65 0.65 0.0 0 1 31.60 72.38
  Q 32.27 72.87 33.00 74.16
  A 1.12 1.12 0.0 0 1 33.04 75.16
  Q 31.77 78.04 32.07 78.95
  Q 32.62 80.65 33.62 80.61
  A 1.63 1.36 -87.1 0 1 34.99 82.43
  Q 34.41 87.47 31.36 89.86
  A 0.47 0.47 0.0 0 0 31.64 90.70
  C 34.73 90.79 36.97 86.36 38.23 83.38
  A 1.28 1.26 -44.7 0 0 38.24 82.40
  L 36.53 78.25
  A 0.74 0.74 0.0 0 0 35.63 77.83
  Q 34.58 78.17 34.18 79.72
  A 0.10 0.10 0.0 0 1 34.04 79.79
  L 33.72 79.67
  A 0.23 0.22 -76.1 0 1 33.58 79.42
  C 34.01 76.90 36.27 77.52 37.37 76.10
  Q 38.14 75.13 39.28 75.20
  C 40.92 75.29 41.62 73.41 43.82 74.83
  A 0.83 0.82 -45.3 0 0 44.72 74.82
  Q 46.19 73.82 47.32 74.63
  C 48.88 75.75 50.03 74.38 51.45 76.37
  A 1.14 1.13 -13.4 0 0 52.21 76.83
  Q 54.35 77.12 55.03 79.45
  A 0.04 0.03 68.9 0 1 55.02 79.49
  L 54.72 79.61
  A 0.28 0.28 0.0 0 1 54.35 79.44
  Q 53.91 78.20 52.62 77.76
  A 0.59 0.59 0.0 0 0 51.87 78.11
  L 50.38 82.08
  A 1.83 1.78 -42.7 0 0 50.32 83.19
  C 51.02 85.91 53.12 90.08 56.64 90.57
  A 0.44 0.44 0.0 0 0 57.13 90.05
  Q 57.12 90.00 54.92 87.10
  Q 52.98 84.54 53.99 81.00
  A 0.78 0.77 -82.4 0 1 54.72 80.44
  Q 56.45 80.43 56.48 78.17
  Q 56.49 77.76 55.44 75.19
  A 1.12 1.11 -41.2 0 1 55.51 74.20
  Q 56.25 72.93 57.02 72.36
  A 0.60 0.60 0.0 0 1 57.98 72.92
  Q 57.70 74.93 59.42 76.94
  A 0.39 0.39 0.0 0 0 60.02 76.92
  Q 63.98 71.82 64.75 65.85
  A 0.44 0.44 0.0 0 0 64.15 65.39
  L 62.61 66.02
  A 0.33 0.33 0.0 0 1 62.22 65.51
  C 65.39 61.38 63.91 57.78 63.56 53.20
  A 0.32 0.32 0.0 0 1 64.17 53.05
  L 66.00 57.51
  A 0.37 0.36 40.8 0 0 66.69 57.46
  Q 67.06 56.06 67.93 54.98
  A 2.72 2.65 4.8 0 1 68.72 54.33
  Q 72.49 52.32 73.10 51.85
  C 82.79 44.35 82.51 31.68 77.29 21.63
  Q 70.04 7.68 54.72 1.51
  A 0.46 0.46 0.0 0 0 54.24 2.27
  Q 59.91 7.47 63.81 13.15
  C 68.81 20.44 77.62 39.11 59.07 37.60
  C 55.04 37.27 49.96 34.07 46.20 33.83
  C 40.61 33.49 37.81 34.86 31.82 37.05
  A 8.66 8.48 -57.4 0 1 29.83 37.51
  Q 25.76 37.94 24.16 37.58
  C 14.89 35.52 17.69 25.73 20.60 19.60
  Q 25.53 9.23 33.95 2.24"
/>
<path stroke="#7f091d" vector-effect="non-scaling-stroke" d="
  M 33.95 2.24
  Q 34.17 2.26 34.39 2.28"
/>
<path stroke="#7f091d" vector-effect="non-scaling-stroke" d="
  M 32.29 5.28
  Q 31.25 5.94 31.14 6.60
  A 0.44 0.44 0.0 0 0 31.70 7.09
  Q 43.66 3.58 55.76 6.66
  A 0.42 0.42 0.0 0 0 56.28 6.18
  Q 56.16 5.50 55.19 4.88"
/>
<path stroke="#7f091d" vector-effect="non-scaling-stroke" d="
  M 77.22 18.65
  Q 76.40 19.23 78.19 20.83
  A 1.47 1.46 -74.5 0 1 78.67 21.68
  Q 78.99 23.30 79.81 24.66
  C 85.81 34.46 88.24 46.40 85.15 57.62
  Q 79.29 78.83 57.95 87.30
  A 0.67 0.64 85.4 0 0 57.55 87.79
  Q 57.35 88.73 58.45 89.01"
/>
<path stroke="#7f091d" vector-effect="non-scaling-stroke" d="
  M 30.45 89.08
  Q 31.44 87.56 30.36 87.13
  Q 9.42 78.84 3.57 57.91
  Q 1.17 49.30 3.46 37.46
  A 4.79 4.69 -27.0 0 1 3.86 36.27
  Q 5.74 32.36 6.27 29.21
  A 1.70 1.68 -21.5 0 1 6.62 28.42
  Q 7.95 26.75 8.42 24.02
  Q 8.53 23.42 8.96 23.14
  Q 9.54 22.76 9.56 22.39
  Q 9.60 21.91 9.29 21.34"
/>
<path stroke="#fe889d" vector-effect="non-scaling-stroke" d="
  M 33.95 2.24
  Q 33.97 1.59 33.46 1.30"
/>
<path stroke="#7f091d" vector-effect="non-scaling-stroke" d="
  M 40.17 21.20
  Q 40.17 21.50 40.07 21.58
  C 37.26 23.87 33.22 25.59 33.81 29.55
  A 1.00 0.99 87.7 0 0 34.72 30.40
  Q 37.03 30.58 44.23 30.57
  Q 51.43 30.56 53.75 30.37
  A 1.00 0.99 -87.9 0 0 54.65 29.52
  C 55.23 25.56 51.18 23.85 48.36 21.57
  Q 48.27 21.49 48.27 21.19
  Q 48.27 20.89 48.36 20.81
  C 51.18 18.52 55.22 16.80 54.63 12.84
  A 1.00 0.99 87.7 0 0 53.72 11.99
  Q 51.40 11.81 44.20 11.82
  Q 37.01 11.83 34.69 12.02
  A 1.00 0.99 -87.9 0 0 33.79 12.87
  C 33.21 16.83 37.25 18.54 40.07 20.82
  Q 40.16 20.90 40.17 21.20"
/>
<path stroke="#808080" vector-effect="non-scaling-stroke" d="
  M 42.2732 74.7048
  A 3.27 1.50 -93.1 0 0 40.9522 78.0511
  A 3.27 1.50 -93.1 0 0 42.6268 81.2352
  A 3.27 1.50 -93.1 0 0 43.9478 77.8889
  A 3.27 1.50 -93.1 0 0 42.2732 74.7048"
/>
<path stroke="#808080" vector-effect="non-scaling-stroke" d="
  M 46.2670 74.7595
  A 3.22 1.59 -85.6 0 0 44.4347 77.8480
  A 3.22 1.59 -85.6 0 0 45.7730 81.1805
  A 3.22 1.59 -85.6 0 0 47.6053 78.0920
  A 3.22 1.59 -85.6 0 0 46.2670 74.7595"
/>
<path stroke="#808080" vector-effect="non-scaling-stroke" d="
  M 49.9508 75.8410
  A 3.09 1.35 -78.6 0 0 48.0166 78.6032
  A 3.09 1.35 -78.6 0 0 48.7292 81.8990
  A 3.09 1.35 -78.6 0 0 50.6634 79.1368
  A 3.09 1.35 -78.6 0 0 49.9508 75.8410"
/>
<path stroke="#808080" vector-effect="non-scaling-stroke" d="
  M 39.46 76.16
  L 37.79 76.49
  A 0.51 0.51 0.0 0 0 37.38 77.08
  L 37.54 77.87
  A 4.55 1.25 79.0 0 0 39.63 82.10
  L 39.85 82.06
  A 4.55 1.25 79.0 0 0 40.21 77.35
  L 40.05 76.56
  A 0.51 0.51 0.0 0 0 39.46 76.16"
/>
<path stroke="#808080" vector-effect="non-scaling-stroke" d="
  M 51.12 90.27
  L 52.24 89.74
  A 0.41 0.41 0.0 0 0 52.44 89.19
  L 52.37 89.06
  A 6.30 0.99 64.8 0 0 48.80 83.78
  L 48.72 83.81
  A 6.30 0.99 64.8 0 0 50.51 89.94
  L 50.57 90.07
  A 0.41 0.41 0.0 0 0 51.12 90.27"
/>
<path stroke="#808080" vector-effect="non-scaling-stroke" d="
  M 39.01 83.88
  L 35.95 89.18
  A 0.55 0.55 0.0 0 0 36.23 89.97
  L 36.53 90.08
  A 1.41 1.40 24.4 0 0 38.27 89.43
  Q 39.83 86.55 39.72 84.05
  A 0.38 0.38 0.0 0 0 39.01 83.88"
/>
<path stroke="#808080" vector-effect="non-scaling-stroke" d="
  M 40.6548 87.8345
  A 1.98 1.19 -71.3 0 0 38.8928 89.3285
  A 1.98 1.19 -71.3 0 0 39.3852 91.5855
  A 1.98 1.19 -71.3 0 0 41.1472 90.0915
  A 1.98 1.19 -71.3 0 0 40.6548 87.8345"
/>
<path stroke="#808080" vector-effect="non-scaling-stroke" d="
  M 47.7621 87.9185
  A 1.93 1.23 -109.3 0 0 47.2391 90.1465
  A 1.93 1.23 -109.3 0 0 49.0379 91.5615
  A 1.93 1.23 -109.3 0 0 49.5609 89.3335
  A 1.93 1.23 -109.3 0 0 47.7621 87.9185"
/>
<path stroke="#808080" vector-effect="non-scaling-stroke" d="
  M 46.18 92.24
  Q 47.23 91.79 46.77 90.01
  Q 46.55 89.18 46.08 88.33
  A 0.70 0.70 0.0 0 0 44.85 88.33
  Q 43.61 90.59 45.30 92.03
  A 0.29 0.28 63.1 0 1 45.14 92.53
  Q 39.59 92.90 35.78 90.05
  A 0.95 0.95 0.0 0 0 34.29 91.02
  Q 34.58 92.30 35.55 92.67
  Q 44.34 96.05 53.06 92.57
  Q 54.20 92.11 54.25 90.67
  A 0.84 0.84 0.0 0 0 52.92 89.96
  Q 49.89 92.14 46.30 92.65
  A 0.22 0.21 29.0 0 1 46.18 92.24"
/>
<path stroke="#808080" vector-effect="non-scaling-stroke" d="
  M 43.0785 88.0859
  A 2.10 1.19 -81.0 0 0 41.5747 89.9738
  A 2.10 1.19 -81.0 0 0 42.4215 92.2341
  A 2.10 1.19 -81.0 0 0 43.9253 90.3462
  A 2.10 1.19 -81.0 0 0 43.0785 88.0859"
/>
<path stroke="#808080" vector-effect="non-scaling-stroke" d="
  M 28.95 54.22
  C 25.79 56.44 25.00 60.67 28.71 63.01
  C 32.80 65.58 38.70 64.15 42.14 61.43
  A 0.64 0.64 0.0 0 0 41.86 60.30
  C 36.84 59.35 33.99 56.92 30.03 54.22
  A 0.96 0.96 0.0 0 0 28.95 54.22"
/>
<path stroke="#808080" vector-effect="non-scaling-stroke" d="
  M 59.49 54.26
  A 0.95 0.95 0.0 0 0 58.42 54.25
  C 54.47 56.94 51.64 59.35 46.64 60.29
  A 0.64 0.64 0.0 0 0 46.36 61.42
  C 49.78 64.13 55.65 65.56 59.72 63.00
  C 63.42 60.68 62.64 56.47 59.49 54.26"
/>
<path stroke="#808080" vector-effect="non-scaling-stroke" d="
  M 44.21 69.80
  Q 44.39 69.80 46.23 71.49
  A 0.35 0.35 0.0 0 0 46.68 71.50
  C 48.84 69.71 45.90 65.43 44.64 62.81
  C 44.56 62.63 44.33 62.55 44.17 62.56
  C 44.00 62.56 43.78 62.63 43.69 62.81
  C 42.47 65.45 39.58 69.76 41.76 71.53
  A 0.35 0.35 0.0 0 0 42.20 71.51
  Q 44.03 69.80 44.21 69.80"
/>
<path stroke="#7f091d" vector-effect="non-scaling-stroke" d="
  M 44.19 17.69
  Q 45.01 17.65 46.09 17.08
  A 0.43 0.43 0.0 0 0 45.83 16.27
  Q 45.12 16.37 44.13 16.42
  Q 43.13 16.46 42.42 16.43
  A 0.43 0.43 0.0 0 0 42.23 17.25
  Q 43.36 17.72 44.19 17.69"
/>
<path stroke="#7f091d" vector-effect="non-scaling-stroke" d="
  M 42.21 26.09
  L 46.13 26.07
  A 0.14 0.14 0.0 0 0 46.26 25.93
  L 46.26 25.87
  A 1.91 1.32 -0.4 0 0 44.34 24.56
  L 43.96 24.56
  A 1.91 1.32 -0.4 0 0 42.06 25.89
  L 42.06 25.95
  A 0.14 0.14 0.0 0 0 42.21 26.09"
/>
</g>
<path fill="#010000" d="
  M 34.04 1.09
  L 33.46 1.30
  C 20.82 6.36 10.33 16.97 7.91 30.66
  C 6.16 40.57 9.44 49.34 18.58 53.68
  C 20.41 54.54 21.38 55.61 21.83 57.38
  A 0.42 0.42 0.0 0 0 22.65 57.36
  Q 23.23 54.60 24.53 52.68
  A 0.37 0.36 67.1 0 1 25.19 52.95
  C 24.30 57.86 22.98 61.34 26.29 65.60
  A 0.35 0.35 0.0 0 1 25.84 66.12
  L 24.44 65.32
  A 0.54 0.54 0.0 0 0 23.64 65.89
  Q 25.12 73.04 28.59 76.83
  A 0.46 0.46 0.0 0 0 29.30 76.79
  Q 30.76 74.82 30.57 72.98
  A 0.65 0.65 0.0 0 1 31.60 72.38
  Q 32.27 72.87 33.00 74.16
  A 1.12 1.12 0.0 0 1 33.04 75.16
  Q 31.77 78.04 32.07 78.95
  Q 32.62 80.65 33.62 80.61
  A 1.63 1.36 -87.1 0 1 34.99 82.43
  Q 34.41 87.47 31.36 89.86
  A 0.47 0.47 0.0 0 0 31.64 90.70
  C 34.73 90.79 36.97 86.36 38.23 83.38
  A 1.28 1.26 -44.7 0 0 38.24 82.40
  L 36.53 78.25
  A 0.74 0.74 0.0 0 0 35.63 77.83
  Q 34.58 78.17 34.18 79.72
  A 0.10 0.10 0.0 0 1 34.04 79.79
  L 33.72 79.67
  A 0.23 0.22 -76.1 0 1 33.58 79.42
  C 34.01 76.90 36.27 77.52 37.37 76.10
  Q 38.14 75.13 39.28 75.20
  C 40.92 75.29 41.62 73.41 43.82 74.83
  A 0.83 0.82 -45.3 0 0 44.72 74.82
  Q 46.19 73.82 47.32 74.63
  C 48.88 75.75 50.03 74.38 51.45 76.37
  A 1.14 1.13 -13.4 0 0 52.21 76.83
  Q 54.35 77.12 55.03 79.45
  A 0.04 0.03 68.9 0 1 55.02 79.49
  L 54.72 79.61
  A 0.28 0.28 0.0 0 1 54.35 79.44
  Q 53.91 78.20 52.62 77.76
  A 0.59 0.59 0.0 0 0 51.87 78.11
  L 50.38 82.08
  A 1.83 1.78 -42.7 0 0 50.32 83.19
  C 51.02 85.91 53.12 90.08 56.64 90.57
  A 0.44 0.44 0.0 0 0 57.13 90.05
  Q 57.12 90.00 54.92 87.10
  Q 52.98 84.54 53.99 81.00
  A 0.78 0.77 -82.4 0 1 54.72 80.44
  Q 56.45 80.43 56.48 78.17
  Q 56.49 77.76 55.44 75.19
  A 1.12 1.11 -41.2 0 1 55.51 74.20
  Q 56.25 72.93 57.02 72.36
  A 0.60 0.60 0.0 0 1 57.98 72.92
  Q 57.70 74.93 59.42 76.94
  A 0.39 0.39 0.0 0 0 60.02 76.92
  Q 63.98 71.82 64.75 65.85
  A 0.44 0.44 0.0 0 0 64.15 65.39
  L 62.61 66.02
  A 0.33 0.33 0.0 0 1 62.22 65.51
  C 65.39 61.38 63.91 57.78 63.56 53.20
  A 0.32 0.32 0.0 0 1 64.17 53.05
  L 66.00 57.51
  A 0.37 0.36 40.8 0 0 66.69 57.46
  Q 67.06 56.06 67.93 54.98
  A 2.72 2.65 4.8 0 1 68.72 54.33
  Q 72.49 52.32 73.10 51.85
  C 82.79 44.35 82.51 31.68 77.29 21.63
  Q 70.04 7.68 54.72 1.51
  A 0.46 0.46 0.0 0 0 54.24 2.27
  Q 59.91 7.47 63.81 13.15
  C 68.81 20.44 77.62 39.11 59.07 37.60
  C 55.04 37.27 49.96 34.07 46.20 33.83
  C 40.61 33.49 37.81 34.86 31.82 37.05
  A 8.66 8.48 -57.4 0 1 29.83 37.51
  Q 25.76 37.94 24.16 37.58
  C 14.89 35.52 17.69 25.73 20.60 19.60
  Q 25.53 9.23 33.95 2.24
  Q 34.17 2.26 34.39 2.28
  Q 32.13 4.11 32.29 5.28
  Q 31.25 5.94 31.14 6.60
  A 0.44 0.44 0.0 0 0 31.70 7.09
  Q 43.66 3.58 55.76 6.66
  A 0.42 0.42 0.0 0 0 56.28 6.18
  Q 56.16 5.50 55.19 4.88
  Q 55.76 3.94 53.48 2.03
  A 0.52 0.51 -35.3 0 1 53.63 1.15
  C 56.36 0.15 63.09 4.60 65.88 6.87
  Q 72.30 12.11 77.22 18.65
  Q 76.40 19.23 78.19 20.83
  A 1.47 1.46 -74.5 0 1 78.67 21.68
  Q 78.99 23.30 79.81 24.66
  C 85.81 34.46 88.24 46.40 85.15 57.62
  Q 79.29 78.83 57.95 87.30
  A 0.67 0.64 85.4 0 0 57.55 87.79
  Q 57.35 88.73 58.45 89.01
  Q 57.98 89.64 57.82 90.52
  A 0.95 0.93 84.7 0 1 57.23 91.25
  C 56.13 91.68 55.34 91.29 54.48 92.39
  Q 53.67 93.43 51.07 94.12
  Q 42.84 96.28 36.00 93.55
  C 34.37 92.90 33.45 91.35 31.97 91.58
  A 0.98 0.98 0.0 0 1 30.95 91.07
  Q 30.48 90.18 30.45 89.08
  Q 31.44 87.56 30.36 87.13
  Q 9.42 78.84 3.57 57.91
  Q 1.17 49.30 3.46 37.46
  A 4.79 4.69 -27.0 0 1 3.86 36.27
  Q 5.74 32.36 6.27 29.21
  A 1.70 1.68 -21.5 0 1 6.62 28.42
  Q 7.95 26.75 8.42 24.02
  Q 8.53 23.42 8.96 23.14
  Q 9.54 22.76 9.56 22.39
  Q 9.60 21.91 9.29 21.34
  Q 14.98 12.43 21.53 7.04
  C 23.29 5.60 31.02 0.43 34.04 1.09
  Z
  M 40.17 21.20
  Q 40.17 21.50 40.07 21.58
  C 37.26 23.87 33.22 25.59 33.81 29.55
  A 1.00 0.99 87.7 0 0 34.72 30.40
  Q 37.03 30.58 44.23 30.57
  Q 51.43 30.56 53.75 30.37
  A 1.00 0.99 -87.9 0 0 54.65 29.52
  C 55.23 25.56 51.18 23.85 48.36 21.57
  Q 48.27 21.49 48.27 21.19
  Q 48.27 20.89 48.36 20.81
  C 51.18 18.52 55.22 16.80 54.63 12.84
  A 1.00 0.99 87.7 0 0 53.72 11.99
  Q 51.40 11.81 44.20 11.82
  Q 37.01 11.83 34.69 12.02
  A 1.00 0.99 -87.9 0 0 33.79 12.87
  C 33.21 16.83 37.25 18.54 40.07 20.82
  Q 40.16 20.90 40.17 21.20
  Z
  M 42.2732 74.7048
  A 3.27 1.50 -93.1 0 0 40.9522 78.0511
  A 3.27 1.50 -93.1 0 0 42.6268 81.2352
  A 3.27 1.50 -93.1 0 0 43.9478 77.8889
  A 3.27 1.50 -93.1 0 0 42.2732 74.7048
  Z
  M 46.2670 74.7595
  A 3.22 1.59 -85.6 0 0 44.4347 77.8480
  A 3.22 1.59 -85.6 0 0 45.7730 81.1805
  A 3.22 1.59 -85.6 0 0 47.6053 78.0920
  A 3.22 1.59 -85.6 0 0 46.2670 74.7595
  Z
  M 49.9508 75.8410
  A 3.09 1.35 -78.6 0 0 48.0166 78.6032
  A 3.09 1.35 -78.6 0 0 48.7292 81.8990
  A 3.09 1.35 -78.6 0 0 50.6634 79.1368
  A 3.09 1.35 -78.6 0 0 49.9508 75.8410
  Z
  M 39.46 76.16
  L 37.79 76.49
  A 0.51 0.51 0.0 0 0 37.38 77.08
  L 37.54 77.87
  A 4.55 1.25 79.0 0 0 39.63 82.10
  L 39.85 82.06
  A 4.55 1.25 79.0 0 0 40.21 77.35
  L 40.05 76.56
  A 0.51 0.51 0.0 0 0 39.46 76.16
  Z
  M 51.12 90.27
  L 52.24 89.74
  A 0.41 0.41 0.0 0 0 52.44 89.19
  L 52.37 89.06
  A 6.30 0.99 64.8 0 0 48.80 83.78
  L 48.72 83.81
  A 6.30 0.99 64.8 0 0 50.51 89.94
  L 50.57 90.07
  A 0.41 0.41 0.0 0 0 51.12 90.27
  Z
  M 39.01 83.88
  L 35.95 89.18
  A 0.55 0.55 0.0 0 0 36.23 89.97
  L 36.53 90.08
  A 1.41 1.40 24.4 0 0 38.27 89.43
  Q 39.83 86.55 39.72 84.05
  A 0.38 0.38 0.0 0 0 39.01 83.88
  Z
  M 40.6548 87.8345
  A 1.98 1.19 -71.3 0 0 38.8928 89.3285
  A 1.98 1.19 -71.3 0 0 39.3852 91.5855
  A 1.98 1.19 -71.3 0 0 41.1472 90.0915
  A 1.98 1.19 -71.3 0 0 40.6548 87.8345
  Z
  M 47.7621 87.9185
  A 1.93 1.23 -109.3 0 0 47.2391 90.1465
  A 1.93 1.23 -109.3 0 0 49.0379 91.5615
  A 1.93 1.23 -109.3 0 0 49.5609 89.3335
  A 1.93 1.23 -109.3 0 0 47.7621 87.9185
  Z
  M 46.18 92.24
  Q 47.23 91.79 46.77 90.01
  Q 46.55 89.18 46.08 88.33
  A 0.70 0.70 0.0 0 0 44.85 88.33
  Q 43.61 90.59 45.30 92.03
  A 0.29 0.28 63.1 0 1 45.14 92.53
  Q 39.59 92.90 35.78 90.05
  A 0.95 0.95 0.0 0 0 34.29 91.02
  Q 34.58 92.30 35.55 92.67
  Q 44.34 96.05 53.06 92.57
  Q 54.20 92.11 54.25 90.67
  A 0.84 0.84 0.0 0 0 52.92 89.96
  Q 49.89 92.14 46.30 92.65
  A 0.22 0.21 29.0 0 1 46.18 92.24
  Z
  M 43.0785 88.0859
  A 2.10 1.19 -81.0 0 0 41.5747 89.9738
  A 2.10 1.19 -81.0 0 0 42.4215 92.2341
  A 2.10 1.19 -81.0 0 0 43.9253 90.3462
  A 2.10 1.19 -81.0 0 0 43.0785 88.0859
  Z"
/>
<path fill="#fc113a" d="
  M 34.39 2.28
  Q 34.17 2.26 33.95 2.24
  Q 33.97 1.59 33.46 1.30
  L 34.04 1.09
  Q 34.48 1.06 34.56 1.38
  Q 34.66 1.79 34.39 2.28
  Z"
/>
<path fill="#ffffff" d="
  M 33.46 1.30
  Q 33.97 1.59 33.95 2.24
  Q 25.53 9.23 20.60 19.60
  C 17.69 25.73 14.89 35.52 24.16 37.58
  Q 25.76 37.94 29.83 37.51
  A 8.66 8.48 -57.4 0 0 31.82 37.05
  C 37.81 34.86 40.61 33.49 46.20 33.83
  C 49.96 34.07 55.04 37.27 59.07 37.60
  C 77.62 39.11 68.81 20.44 63.81 13.15
  Q 59.91 7.47 54.24 2.27
  A 0.46 0.46 0.0 0 1 54.72 1.51
  Q 70.04 7.68 77.29 21.63
  C 82.51 31.68 82.79 44.35 73.10 51.85
  Q 72.49 52.32 68.72 54.33
  A 2.72 2.65 4.8 0 0 67.93 54.98
  Q 67.06 56.06 66.69 57.46
  A 0.37 0.36 40.8 0 1 66.00 57.51
  L 64.17 53.05
  A 0.32 0.32 0.0 0 0 63.56 53.20
  C 63.91 57.78 65.39 61.38 62.22 65.51
  A 0.33 0.33 0.0 0 0 62.61 66.02
  L 64.15 65.39
  A 0.44 0.44 0.0 0 1 64.75 65.85
  Q 63.98 71.82 60.02 76.92
  A 0.39 0.39 0.0 0 1 59.42 76.94
  Q 57.70 74.93 57.98 72.92
  A 0.60 0.60 0.0 0 0 57.02 72.36
  Q 56.25 72.93 55.51 74.20
  A 1.12 1.11 -41.2 0 0 55.44 75.19
  Q 56.49 77.76 56.48 78.17
  Q 56.45 80.43 54.72 80.44
  A 0.78 0.77 -82.4 0 0 53.99 81.00
  Q 52.98 84.54 54.92 87.10
  Q 57.12 90.00 57.13 90.05
  A 0.44 0.44 0.0 0 1 56.64 90.57
  C 53.12 90.08 51.02 85.91 50.32 83.19
  A 1.83 1.78 -42.7 0 1 50.38 82.08
  L 51.87 78.11
  A 0.59 0.59 0.0 0 1 52.62 77.76
  Q 53.91 78.20 54.35 79.44
  A 0.28 0.28 0.0 0 0 54.72 79.61
  L 55.02 79.49
  A 0.04 0.03 68.9 0 0 55.03 79.45
  Q 54.35 77.12 52.21 76.83
  A 1.14 1.13 -13.4 0 1 51.45 76.37
  C 50.03 74.38 48.88 75.75 47.32 74.63
  Q 46.19 73.82 44.72 74.82
  A 0.83 0.82 -45.3 0 1 43.82 74.83
  C 41.62 73.41 40.92 75.29 39.28 75.20
  Q 38.14 75.13 37.37 76.10
  C 36.27 77.52 34.01 76.90 33.58 79.42
  A 0.23 0.22 -76.1 0 0 33.72 79.67
  L 34.04 79.79
  A 0.10 0.10 0.0 0 0 34.18 79.72
  Q 34.58 78.17 35.63 77.83
  A 0.74 0.74 0.0 0 1 36.53 78.25
  L 38.24 82.40
  A 1.28 1.26 -44.7 0 1 38.23 83.38
  C 36.97 86.36 34.73 90.79 31.64 90.70
  A 0.47 0.47 0.0 0 1 31.36 89.86
  Q 34.41 87.47 34.99 82.43
  A 1.63 1.36 -87.1 0 0 33.62 80.61
  Q 32.62 80.65 32.07 78.95
  Q 31.77 78.04 33.04 75.16
  A 1.12 1.12 0.0 0 0 33.00 74.16
  Q 32.27 72.87 31.60 72.38
  A 0.65 0.65 0.0 0 0 30.57 72.98
  Q 30.76 74.82 29.30 76.79
  A 0.46 0.46 0.0 0 1 28.59 76.83
  Q 25.12 73.04 23.64 65.89
  A 0.54 0.54 0.0 0 1 24.44 65.32
  L 25.84 66.12
  A 0.35 0.35 0.0 0 0 26.29 65.60
  C 22.98 61.34 24.30 57.86 25.19 52.95
  A 0.37 0.36 67.1 0 0 24.53 52.68
  Q 23.23 54.60 22.65 57.36
  A 0.42 0.42 0.0 0 1 21.83 57.38
  C 21.38 55.61 20.41 54.54 18.58 53.68
  C 9.44 49.34 6.16 40.57 7.91 30.66
  C 10.33 16.97 20.82 6.36 33.46 1.30
  Z
  M 28.95 54.22
  C 25.79 56.44 25.00 60.67 28.71 63.01
  C 32.80 65.58 38.70 64.15 42.14 61.43
  A 0.64 0.64 0.0 0 0 41.86 60.30
  C 36.84 59.35 33.99 56.92 30.03 54.22
  A 0.96 0.96 0.0 0 0 28.95 54.22
  Z
  M 59.49 54.26
  A 0.95 0.95 0.0 0 0 58.42 54.25
  C 54.47 56.94 51.64 59.35 46.64 60.29
  A 0.64 0.64 0.0 0 0 46.36 61.42
  C 49.78 64.13 55.65 65.56 59.72 63.00
  C 63.42 60.68 62.64 56.47 59.49 54.26
  Z
  M 44.21 69.80
  Q 44.39 69.80 46.23 71.49
  A 0.35 0.35 0.0 0 0 46.68 71.50
  C 48.84 69.71 45.90 65.43 44.64 62.81
  C 44.56 62.63 44.33 62.55 44.17 62.56
  C 44.00 62.56 43.78 62.63 43.69 62.81
  C 42.47 65.45 39.58 69.76 41.76 71.53
  A 0.35 0.35 0.0 0 0 42.20 71.51
  Q 44.03 69.80 44.21 69.80
  Z"
/>
<path fill="#fc113a" d="
  M 55.19 4.88
  Q 56.16 5.50 56.28 6.18
  A 0.42 0.42 0.0 0 1 55.76 6.66
  Q 43.66 3.58 31.70 7.09
  A 0.44 0.44 0.0 0 1 31.14 6.60
  Q 31.25 5.94 32.29 5.28
  Q 43.57 2.22 55.19 4.88
  Z"
/>
<path fill="#fc113a" d="
  M 44.20 11.82
  Q 51.40 11.81 53.72 11.99
  A 1.00 0.99 87.7 0 1 54.63 12.84
  C 55.22 16.80 51.18 18.52 48.36 20.81
  Q 48.27 20.89 48.27 21.19
  Q 48.27 21.49 48.36 21.57
  C 51.18 23.85 55.23 25.56 54.65 29.52
  A 1.00 0.99 -87.9 0 1 53.75 30.37
  Q 51.43 30.56 44.23 30.57
  Q 37.03 30.58 34.72 30.40
  A 1.00 0.99 87.7 0 1 33.81 29.55
  C 33.22 25.59 37.26 23.87 40.07 21.58
  Q 40.17 21.50 40.17 21.20
  Q 40.16 20.90 40.07 20.82
  C 37.25 18.54 33.21 16.83 33.79 12.87
  A 1.00 0.99 -87.9 0 1 34.69 12.02
  Q 37.01 11.83 44.20 11.82
  Z
  M 44.19 17.69
  Q 45.01 17.65 46.09 17.08
  A 0.43 0.43 0.0 0 0 45.83 16.27
  Q 45.12 16.37 44.13 16.42
  Q 43.13 16.46 42.42 16.43
  A 0.43 0.43 0.0 0 0 42.23 17.25
  Q 43.36 17.72 44.19 17.69
  Z
  M 42.21 26.09
  L 46.13 26.07
  A 0.14 0.14 0.0 0 0 46.26 25.93
  L 46.26 25.87
  A 1.91 1.32 -0.4 0 0 44.34 24.56
  L 43.96 24.56
  A 1.91 1.32 -0.4 0 0 42.06 25.89
  L 42.06 25.95
  A 0.14 0.14 0.0 0 0 42.21 26.09
  Z"
/>
<path fill="#010000" d="
  M 44.13 16.42
  Q 45.12 16.37 45.83 16.27
  A 0.43 0.43 0.0 0 1 46.09 17.08
  Q 45.01 17.65 44.19 17.69
  Q 43.36 17.72 42.23 17.25
  A 0.43 0.43 0.0 0 1 42.42 16.43
  Q 43.13 16.46 44.13 16.42
  Z"
/>
<path fill="#fc113a" d="
  M 77.22 18.65
  Q 89.30 32.59 88.13 50.01
  C 86.91 68.21 75.74 82.40 58.45 89.01
  Q 57.35 88.73 57.55 87.79
  A 0.67 0.64 85.4 0 1 57.95 87.30
  Q 79.29 78.83 85.15 57.62
  C 88.24 46.40 85.81 34.46 79.81 24.66
  Q 78.99 23.30 78.67 21.68
  A 1.47 1.46 -74.5 0 0 78.19 20.83
  Q 76.40 19.23 77.22 18.65
  Z"
/>
<path fill="#fc113a" d="
  M 9.29 21.34
  Q 9.60 21.91 9.56 22.39
  Q 9.54 22.76 8.96 23.14
  Q 8.53 23.42 8.42 24.02
  Q 7.95 26.75 6.62 28.42
  A 1.70 1.68 -21.5 0 0 6.27 29.21
  Q 5.74 32.36 3.86 36.27
  A 4.79 4.69 -27.0 0 0 3.46 37.46
  Q 1.17 49.30 3.57 57.91
  Q 9.42 78.84 30.36 87.13
  Q 31.44 87.56 30.45 89.08
  Q 14.02 83.24 5.84 68.40
  C -2.34 53.56 -0.99 34.88 9.29 21.34
  Z"
/>
<path fill="#010000" d="
  M 42.21 26.09
  A 0.14 0.14 0.0 0 1 42.06 25.95
  L 42.06 25.89
  A 1.91 1.32 -0.4 0 1 43.96 24.56
  L 44.34 24.56
  A 1.91 1.32 -0.4 0 1 46.26 25.87
  L 46.26 25.93
  A 0.14 0.14 0.0 0 1 46.13 26.07
  L 42.21 26.09
  Z"
/>
<path fill="#010000" d="
  M 30.03 54.22
  C 33.99 56.92 36.84 59.35 41.86 60.30
  A 0.64 0.64 0.0 0 1 42.14 61.43
  C 38.70 64.15 32.80 65.58 28.71 63.01
  C 25.00 60.67 25.79 56.44 28.95 54.22
  A 0.96 0.96 0.0 0 1 30.03 54.22
  Z"
/>
<path fill="#010000" d="
  M 59.49 54.26
  C 62.64 56.47 63.42 60.68 59.72 63.00
  C 55.65 65.56 49.78 64.13 46.36 61.42
  A 0.64 0.64 0.0 0 1 46.64 60.29
  C 51.64 59.35 54.47 56.94 58.42 54.25
  A 0.95 0.95 0.0 0 1 59.49 54.26
  Z"
/>
<path fill="#010000" d="
  M 44.17 62.56
  C 44.33 62.55 44.56 62.63 44.64 62.81
  C 45.90 65.43 48.84 69.71 46.68 71.50
  A 0.35 0.35 0.0 0 1 46.23 71.49
  Q 44.39 69.80 44.21 69.80
  Q 44.03 69.80 42.20 71.51
  A 0.35 0.35 0.0 0 1 41.76 71.53
  C 39.58 69.76 42.47 65.45 43.69 62.81
  C 43.78 62.63 44.00 62.56 44.17 62.56
  Z"
/>
<ellipse fill="#ffffff" cx="0.00" cy="0.00" transform="translate(42.45,77.97) rotate(-93.1)" rx="3.27" ry="1.50"/>
<ellipse fill="#ffffff" cx="0.00" cy="0.00" transform="translate(46.02,77.97) rotate(-85.6)" rx="3.22" ry="1.59"/>
<ellipse fill="#ffffff" cx="0.00" cy="0.00" transform="translate(49.34,78.87) rotate(-78.6)" rx="3.09" ry="1.35"/>
<path fill="#ffffff" d="
  M 39.46 76.16
  A 0.51 0.51 0.0 0 1 40.05 76.56
  L 40.21 77.35
  A 4.55 1.25 79.0 0 1 39.85 82.06
  L 39.63 82.10
  A 4.55 1.25 79.0 0 1 37.54 77.87
  L 37.38 77.08
  A 0.51 0.51 0.0 0 1 37.79 76.49
  L 39.46 76.16
  Z"
/>
<path fill="#ffffff" d="
  M 51.12 90.27
  A 0.41 0.41 0.0 0 1 50.57 90.07
  L 50.51 89.94
  A 6.30 0.99 64.8 0 1 48.72 83.81
  L 48.80 83.78
  A 6.30 0.99 64.8 0 1 52.37 89.06
  L 52.44 89.19
  A 0.41 0.41 0.0 0 1 52.24 89.74
  L 51.12 90.27
  Z"
/>
<path fill="#ffffff" d="
  M 39.01 83.88
  A 0.38 0.38 0.0 0 1 39.72 84.05
  Q 39.83 86.55 38.27 89.43
  A 1.41 1.40 24.4 0 1 36.53 90.08
  L 36.23 89.97
  A 0.55 0.55 0.0 0 1 35.95 89.18
  L 39.01 83.88
  Z"
/>
<ellipse fill="#ffffff" cx="0.00" cy="0.00" transform="translate(40.02,89.71) rotate(-71.3)" rx="1.98" ry="1.19"/>
<ellipse fill="#ffffff" cx="0.00" cy="0.00" transform="translate(48.40,89.74) rotate(-109.3)" rx="1.93" ry="1.23"/>
<path fill="#ffffff" d="
  M 46.18 92.24
  A 0.22 0.21 29.0 0 0 46.30 92.65
  Q 49.89 92.14 52.92 89.96
  A 0.84 0.84 0.0 0 1 54.25 90.67
  Q 54.20 92.11 53.06 92.57
  Q 44.34 96.05 35.55 92.67
  Q 34.58 92.30 34.29 91.02
  A 0.95 0.95 0.0 0 1 35.78 90.05
  Q 39.59 92.90 45.14 92.53
  A 0.29 0.28 63.1 0 0 45.30 92.03
  Q 43.61 90.59 44.85 88.33
  A 0.70 0.70 0.0 0 1 46.08 88.33
  Q 46.55 89.18 46.77 90.01
  Q 47.23 91.79 46.18 92.24
  Z"
/>
<ellipse fill="#ffffff" cx="0.00" cy="0.00" transform="translate(42.75,90.16) rotate(-81.0)" rx="2.10" ry="1.19"/>
</svg>
