<?xml version="1.0" encoding="UTF-8" standalone="no"?>
<!DOCTYPE svg PUBLIC "-//W3C//DTD SVG 1.1//EN" "http://www.w3.org/Graphics/SVG/1.1/DTD/svg11.dtd">
<svg xmlns="http://www.w3.org/2000/svg" version="1.1" viewBox="0.00 0.00 384.00 384.00">
<g stroke-width="2.00" fill="none" stroke-linecap="butt">
<path stroke="#2b667f" vector-effect="non-scaling-stroke" d="
  M 198.53 18.04
  Q 198.76 18.21 199.29 18.13"
/>
<path stroke="#2b667f" vector-effect="non-scaling-stroke" d="
  M 204.79 18.61
  L 206.48 18.77"
/>
<path stroke="#2b667f" vector-effect="non-scaling-stroke" d="
  M 216.45 19.58
  Q 217.02 19.79 217.52 19.60"
/>
<path stroke="#2b667f" vector-effect="non-scaling-stroke" d="
  M 274.76 39.22
  L 280.62 43.09
  A 3.19 2.93 83.0 0 1 281.17 43.56
  Q 286.50 49.18 289.50 56.72
  A 0.36 0.36 0.0 0 1 288.99 57.16
  Q 284.43 54.50 280.09 50.83
  A 4.21 4.02 -9.5 0 0 279.56 50.47
  Q 268.59 44.35 260.47 40.56
  Q 245.67 33.64 228.78 29.91
  C 208.73 25.47 191.87 23.97 173.21 26.40
  Q 160.39 28.07 146.54 31.81
  Q 117.75 39.57 94.13 58.39
  Q 93.35 59.02 92.34 59.22
  A 0.29 0.29 0.0 0 1 92.02 58.81
  Q 96.43 50.01 103.04 42.93"
/>
<path stroke="#2b667f" vector-effect="non-scaling-stroke" d="
  M 357.25 142.53
  L 355.63 139.13"
/>
<path stroke="#02407e" vector-effect="non-scaling-stroke" d="
  M 355.63 139.13
  Q 353.04 151.72 353.14 160.25
  C 353.23 168.72 355.19 184.21 354.83 194.17
  C 354.38 206.88 353.99 216.23 350.92 227.69
  C 343.82 254.15 330.73 279.59 312.09 299.57
  Q 298.30 314.36 281.48 325.99
  Q 279.99 327.02 274.06 329.46"
/>
<path stroke="#7f7f7f" vector-effect="non-scaling-stroke" d="
  M 274.06 329.46
  Q 263.12 326.85 254.67 317.34
  Q 245.37 306.86 245.53 292.98
  A 1.73 1.73 0.0 0 0 243.63 291.24
  Q 235.38 292.03 228.59 296.87
  Q 222.82 300.98 222.46 301.66
  A 1.01 0.99 47.4 0 0 222.43 302.52
  C 222.58 302.87 223.49 303.67 223.98 304.59
  C 231.92 319.77 246.64 331.27 264.18 332.89
  A 4.10 4.00 -49.5 0 0 265.72 332.75
  L 272.90 330.72"
/>
<path stroke="#02407e" vector-effect="non-scaling-stroke" d="
  M 272.90 330.72
  Q 273.57 330.64 273.61 331.14
  Q 273.66 331.72 273.11 331.91
  Q 253.04 339.09 232.27 347.93
  A 1.54 1.53 69.4 0 0 231.42 349.82
  C 231.88 351.25 232.71 354.86 234.64 354.99"
/>
<path stroke="#02407e" vector-effect="non-scaling-stroke" d="
  M 149.07 355.30
  L 152.83 350.65
  A 0.65 0.65 0.0 0 0 152.83 349.83
  Q 151.14 347.70 148.03 346.46
  C 142.36 344.21 137.12 342.51 130.71 339.65
  Q 122.95 336.19 112.61 333.41
  Q 110.15 332.75 108.05 330.95"
/>
<path stroke="#7f7f7f" vector-effect="non-scaling-stroke" d="
  M 108.05 330.95
  C 121.21 335.34 132.45 330.43 143.70 323.61
  Q 146.31 322.03 148.88 319.40
  Q 157.04 311.07 161.03 301.62
  A 0.82 0.82 0.0 0 0 160.80 300.67
  Q 153.00 294.07 142.89 291.89
  Q 140.87 291.46 139.90 292.01
  A 1.18 1.16 -9.0 0 0 139.33 292.78
  Q 137.22 303.01 136.11 305.86
  C 131.89 316.66 122.52 326.07 111.20 328.95
  Q 109.01 329.51 106.21 328.89"
/>
<path stroke="#02407e" vector-effect="non-scaling-stroke" d="
  M 106.21 328.89
  Q 104.41 327.97 103.74 327.50
  C 79.35 310.11 59.24 290.06 45.62 263.08
  C 39.33 250.61 33.14 234.78 30.91 220.66
  Q 27.20 197.04 29.48 172.25
  Q 30.77 158.13 28.82 144.29"
/>
<path stroke="#2da6fd" vector-effect="non-scaling-stroke" d="
  M 355.63 139.13
  L 355.62 143.92
  A 0.53 0.53 0.0 0 0 356.45 144.36
  L 357.39 143.71"
/>
<path stroke="#02407e" vector-effect="non-scaling-stroke" d="
  M 357.71 144.54
  Q 357.65 144.94 357.92 145.31"
/>
<path stroke="#02407e" vector-effect="non-scaling-stroke" d="
  M 237.69 353.44
  Q 237.68 353.59 237.08 353.71"
/>
<path stroke="#81bffd" vector-effect="non-scaling-stroke" d="
  M 272.90 330.72
  Q 275.77 328.86 274.06 329.46"
/>
<path stroke="#81bffd" vector-effect="non-scaling-stroke" d="
  M 106.21 328.89
  Q 105.95 328.81 105.72 329.05
  A 0.43 0.43 0.0 0 0 105.89 329.76
  Q 107.23 330.23 108.05 330.95"
/>
<path stroke="#7f7f7f" vector-effect="non-scaling-stroke" d="
  M 270.18 222.26
  Q 287.28 221.37 301.31 214.75
  Q 314.18 208.68 326.28 197.52
  Q 345.41 179.90 350.80 155.89
  Q 351.87 151.11 352.39 144.26
  Q 353.05 135.58 352.82 132.51
  C 352.15 123.42 350.58 112.40 347.32 103.15
  Q 338.09 76.96 319.09 57.92
  Q 309.58 48.39 297.60 40.31
  C 292.73 37.02 287.45 34.81 282.23 31.25
  A 1.04 1.04 0.0 0 0 280.61 32.02
  Q 280.50 33.43 281.38 34.87
  C 296.13 58.86 306.91 84.25 309.86 112.30
  Q 311.40 126.93 306.83 139.37
  C 302.57 150.95 295.51 158.92 283.53 161.76
  Q 278.86 162.87 271.52 163.38
  Q 268.81 163.57 267.67 162.19
  C 263.85 157.52 259.78 155.73 253.73 152.83
  Q 228.39 140.66 203.52 136.50
  Q 195.08 135.09 191.02 135.35
  C 170.95 136.62 150.48 143.46 131.74 151.78
  C 124.66 154.92 120.63 156.94 116.33 161.91
  A 3.10 3.00 5.3 0 1 115.51 162.57
  Q 114.73 162.99 111.30 163.03
  Q 86.57 163.27 77.44 141.04
  C 72.45 128.90 72.88 113.73 75.33 101.01
  C 80.00 76.80 89.74 54.68 103.22 33.98
  Q 103.82 33.07 103.65 32.22
  A 0.68 0.68 0.0 0 0 102.71 31.73
  Q 92.24 36.39 83.40 42.24
  C 56.89 59.77 36.10 90.38 32.19 122.17
  Q 30.45 136.42 32.09 150.38
  C 34.11 167.54 43.81 185.03 56.72 196.74
  C 70.44 209.20 83.37 217.42 101.69 221.12
  Q 107.84 222.36 115.01 222.09
  A 0.41 0.41 0.0 0 1 115.13 222.90
  Q 112.91 223.44 112.20 226.03
  Q 109.65 235.31 109.84 242.49
  Q 110.06 251.02 110.78 259.48
  C 111.20 264.34 113.38 267.75 118.01 269.54
  C 123.79 271.77 129.06 273.95 131.89 279.73
  A 1.40 1.31 24.7 0 1 132.00 280.00
  L 134.50 288.53
  A 2.63 2.62 77.3 0 0 137.43 290.39
  C 143.70 289.42 152.29 292.05 157.69 296.33
  Q 159.26 297.58 165.93 302.23
  Q 166.13 302.36 171.21 306.28
  Q 173.00 307.67 175.10 307.89
  C 177.98 308.21 180.17 308.86 183.42 308.94
  C 191.94 309.13 196.72 308.93 201.71 309.41
  Q 208.14 310.04 213.61 305.63
  Q 219.60 300.81 229.13 294.38
  C 233.78 291.25 241.00 288.88 246.48 290.75
  A 0.90 0.90 0.0 0 0 247.39 290.54
  C 251.26 286.77 250.44 279.91 254.16 276.26
  C 257.16 273.32 261.30 271.13 265.11 269.64
  C 270.06 267.69 272.54 264.63 272.95 259.72
  C 274.00 246.97 274.71 237.22 271.19 225.31
  C 270.88 224.26 270.01 223.63 269.74 222.94
  A 0.50 0.50 0.0 0 1 270.18 222.26"
/>
<path stroke="#2b667f" vector-effect="non-scaling-stroke" d="
  M 114.83 85.63
  C 117.04 85.70 120.73 85.82 122.15 88.24
  C 125.44 93.78 127.83 87.56 130.73 86.71
  Q 137.78 84.66 144.46 85.16
  A 0.68 0.68 0.0 0 0 145.14 84.23
  Q 141.82 75.80 140.78 72.98
  C 138.98 68.15 138.81 64.91 141.45 60.00
  Q 143.09 56.97 143.86 53.88
  A 1.08 1.08 0.0 0 0 142.65 52.55
  C 141.13 52.78 138.42 55.06 135.49 57.24
  C 130.88 60.68 129.85 56.03 128.53 52.43
  A 2.31 2.29 74.8 0 0 125.98 50.95
  Q 125.41 51.05 124.65 52.15
  Q 124.05 53.02 121.56 57.42
  A 2.19 2.18 -63.0 0 1 118.75 58.34
  Q 115.60 56.92 112.53 53.94
  A 2.42 2.09 32.1 0 0 108.71 54.53
  C 108.23 56.22 109.97 58.65 111.37 60.77
  C 116.37 68.39 109.33 76.16 107.14 82.99
  A 1.36 1.36 0.0 0 0 108.37 84.76
  Q 111.44 84.90 114.14 85.54
  A 3.46 3.42 -37.2 0 0 114.83 85.63"
/>
<path stroke="#2b667f" vector-effect="non-scaling-stroke" d="
  M 150.98 124.44
  L 231.51 124.44
  A 1.13 1.12 90.0 0 0 232.63 123.31
  L 232.63 110.60
  A 3.27 3.27 0.0 0 0 231.47 108.10
  Q 219.74 98.20 209.10 90.56
  Q 207.33 89.29 207.04 88.59
  Q 206.35 86.92 207.90 86.13
  C 212.10 83.99 216.13 80.03 220.26 76.92
  Q 226.94 71.87 231.72 68.75
  A 2.67 2.65 -16.8 0 0 232.92 66.53
  L 232.92 52.20
  A 0.85 0.85 0.0 0 0 232.07 51.35
  L 151.95 51.35
  A 0.90 0.90 0.0 0 0 151.05 52.29
  Q 151.29 58.10 150.82 65.01
  Q 150.61 68.04 152.79 69.44
  Q 160.05 74.11 168.27 80.71
  Q 172.68 84.25 176.63 86.83
  A 1.20 1.20 0.0 0 1 176.78 88.72
  C 170.83 94.12 164.05 98.70 152.50 107.24
  Q 151.23 108.18 150.06 109.52
  A 2.02 1.93 45.2 0 0 150.11 112.12
  Q 151.81 114.06 151.39 117.07
  Q 150.64 122.41 150.35 123.65
  A 0.65 0.65 0.0 0 0 150.98 124.44"
/>
<path stroke="#2b667f" vector-effect="non-scaling-stroke" d="
  M 275.36 89.18
  Q 275.58 87.99 275.19 86.53
  Q 273.15 78.69 272.86 68.91
  C 272.70 63.69 274.36 59.17 276.10 54.65
  A 1.03 1.03 0.0 0 0 274.94 53.27
  Q 263.63 55.44 251.21 54.58
  C 247.02 54.29 244.37 53.19 240.47 51.94
  A 0.54 0.54 0.0 0 0 239.77 52.47
  L 239.83 54.98
  A 1.73 1.68 -55.5 0 0 239.90 55.39
  C 243.00 65.89 242.74 77.28 240.20 88.26
  A 0.91 0.91 0.0 0 0 241.11 89.37
  Q 241.74 89.36 242.51 88.98
  Q 247.12 86.73 250.75 86.46
  Q 260.26 85.76 269.23 87.06
  A 1.75 1.46 58.3 0 1 269.68 87.21
  L 274.31 89.68
  A 0.72 0.71 19.1 0 0 275.36 89.18"
/>
<path stroke="#2b667f" vector-effect="non-scaling-stroke" d="
  M 89.37 133.88
  Q 89.46 133.99 92.09 141.84
  A 1.49 1.48 56.8 0 0 94.59 142.37
  Q 99.28 137.21 105.78 132.43
  C 107.44 131.21 108.61 130.94 110.20 132.33
  Q 112.12 133.99 120.06 141.30
  A 1.76 1.76 0.0 0 0 122.86 140.72
  Q 124.70 136.52 126.87 133.17
  C 128.70 130.35 129.73 127.49 125.89 125.72
  Q 121.14 123.54 120.03 123.27
  Q 116.03 122.33 113.74 121.23
  A 2.21 2.20 -71.2 0 1 112.54 118.78
  L 116.07 102.02
  A 0.91 0.90 5.5 0 0 115.16 100.93
  Q 108.17 101.07 103.09 100.60
  C 101.00 100.40 99.93 101.42 100.32 103.47
  Q 102.18 113.22 102.82 116.73
  C 103.38 119.75 102.92 120.86 99.92 122.15
  Q 91.70 125.71 89.00 128.19
  Q 86.32 130.64 88.70 133.12
  A 7.29 4.80 58.2 0 1 89.37 133.88"
/>
<path stroke="#2b667f" vector-effect="non-scaling-stroke" d="
  M 271.69 145.15
  Q 278.35 146.48 285.69 142.87
  C 296.97 137.34 300.07 122.80 293.14 112.66
  C 290.45 108.73 285.10 103.83 280.17 102.84
  C 275.24 101.85 268.41 104.32 264.42 106.90
  C 254.11 113.59 251.37 128.20 259.65 137.66
  Q 265.04 143.82 271.69 145.15"
/>
<path stroke="#7f7f7f" vector-effect="non-scaling-stroke" d="
  M 152.91 323.10
  Q 162.08 323.43 168.11 315.43
  A 4.85 4.82 68.6 0 0 169.01 313.35
  Q 169.52 310.27 170.22 309.44
  A 1.45 1.45 0.0 0 0 170.05 307.39
  L 164.53 302.69
  A 1.12 1.12 0.0 0 0 162.72 303.28
  Q 160.33 313.48 152.30 321.55
  A 0.91 0.91 0.0 0 0 152.91 323.10"
/>
<path stroke="#7f7f7f" vector-effect="non-scaling-stroke" d="
  M 202.43 311.89
  Q 202.51 313.41 203.06 314.25
  C 205.86 318.53 203.66 326.66 211.62 325.84
  A 0.92 0.91 -89.2 0 0 212.44 325.04
  Q 213.32 317.84 212.03 311.21
  A 0.56 0.56 0.0 0 1 212.69 310.55
  L 213.13 310.64
  A 1.69 1.68 0.3 0 1 214.43 311.95
  Q 215.59 317.67 220.68 320.42
  C 222.47 321.38 228.86 324.33 231.24 323.65
  A 0.79 0.79 0.0 0 0 231.65 322.41
  C 226.83 316.13 222.73 310.94 221.42 303.52
  A 0.90 0.90 0.0 0 0 220.00 302.95
  L 209.95 310.31
  A 1.44 1.39 23.0 0 1 209.25 310.58
  L 203.00 311.23
  A 0.64 0.63 86.2 0 0 202.43 311.89"
/>
<path stroke="#7f7f7f" vector-effect="non-scaling-stroke" d="
  M 180.73 310.65
  L 172.32 309.18
  A 0.26 0.26 0.0 0 0 172.02 309.39
  L 171.31 313.43
  A 10.96 2.56 -80.1 0 0 171.95 324.67
  L 175.83 325.34
  A 10.96 2.56 -80.1 0 0 180.24 314.99
  L 180.94 310.95
  A 0.26 0.26 0.0 0 0 180.73 310.65"
/>
<path stroke="#7f7f7f" vector-effect="non-scaling-stroke" d="
  M 183.05 312.20
  L 182.62 321.91
  A 1.64 1.64 0.0 0 0 184.19 323.62
  L 187.86 323.78
  A 2.27 1.49 2.5 0 0 190.19 322.39
  L 190.62 312.38
  A 2.27 1.49 2.5 0 0 188.42 310.79
  L 184.76 310.63
  A 1.64 1.64 0.0 0 0 183.05 312.20"
/>
<path stroke="#7f7f7f" vector-effect="non-scaling-stroke" d="
  M 201.21 311.06
  L 193.05 311.22
  A 0.22 0.22 0.0 0 0 192.83 311.44
  L 192.84 311.53
  A 12.35 2.05 88.9 0 0 195.12 323.84
  L 199.62 323.76
  A 12.35 2.05 88.9 0 0 201.43 311.37
  L 201.43 311.28
  A 0.22 0.22 0.0 0 0 201.21 311.06"
/>
<path stroke="#7f7f7f" vector-effect="non-scaling-stroke" d="
  M 227.45 347.62
  Q 227.15 344.73 227.04 340.74
  C 226.92 336.45 224.66 322.40 218.59 322.54
  A 0.61 0.60 88.6 0 0 218.00 323.17
  Q 218.32 331.49 217.75 333.78
  Q 216.14 340.32 215.69 342.29
  A 1.82 1.81 -14.5 0 1 215.14 343.22
  C 213.85 344.38 211.70 345.75 211.46 347.37
  A 1.65 1.65 0.0 0 0 213.06 349.26
  L 225.63 349.59
  A 1.79 1.79 0.0 0 0 227.45 347.62"
/>
<path stroke="#7f7f7f" vector-effect="non-scaling-stroke" d="
  M 171.55 348.49
  C 170.73 348.00 169.83 345.40 168.44 342.33
  C 167.04 339.23 167.00 335.62 165.80 332.50
  A 0.67 0.55 39.1 0 1 165.75 332.26
  L 166.03 323.61
  A 0.56 0.55 -6.9 0 0 165.32 323.06
  C 161.37 324.23 159.44 326.59 158.30 330.84
  Q 156.13 338.95 156.23 347.87
  A 1.01 0.98 -77.1 0 0 156.76 348.74
  Q 158.75 349.78 161.34 349.63
  Q 169.66 349.14 171.41 349.06
  A 0.31 0.30 59.1 0 0 171.55 348.49"
/>
<path stroke="#7f7f7f" vector-effect="non-scaling-stroke" d="
  M 188.13 331.25
  L 184.48 331.25
  A 1.08 1.08 0.0 0 0 183.48 331.93
  C 181.78 336.17 179.36 342.25 182.30 346.26
  A 1.52 1.50 -18.2 0 0 183.51 346.86
  L 190.62 346.86
  A 1.45 1.45 0.0 0 0 192.06 345.22
  Q 191.73 342.65 190.41 338.76
  C 189.68 336.61 189.47 334.12 189.20 332.18
  A 1.08 1.08 0.0 0 0 188.13 331.25"
/>
<path stroke="#7f7f7f" vector-effect="non-scaling-stroke" d="
  M 202.23 345.22
  Q 203.15 339.81 201.52 332.65
  A 1.83 1.82 -6.3 0 0 199.74 331.23
  L 196.29 331.23
  A 0.94 0.93 -77.7 0 0 195.44 331.78
  C 193.54 335.92 192.94 341.01 192.68 345.75
  A 0.91 0.90 2.4 0 0 193.57 346.71
  L 202.10 346.90
  A 0.82 0.76 59.8 0 1 202.46 347.01
  L 203.88 347.83
  A 1.00 0.92 58.6 0 0 204.30 347.95
  L 209.39 348.13
  A 0.93 0.91 -76.2 0 0 210.25 347.60
  Q 213.07 341.78 212.70 335.22
  A 0.64 0.64 0.0 0 0 212.05 334.62
  C 205.98 334.76 206.32 341.84 202.80 345.50
  A 0.33 0.33 0.0 0 1 202.23 345.22"
/>
<path stroke="#7f7f7f" vector-effect="non-scaling-stroke" d="
  M 172.36 348.29
  L 179.30 348.29
  A 1.73 1.72 -17.0 0 0 180.73 345.60
  Q 177.90 341.41 177.06 337.95
  C 176.45 335.45 174.66 334.36 172.51 334.42
  A 0.73 0.73 0.0 0 0 171.81 335.00
  Q 170.89 339.44 171.02 340.04
  Q 172.42 346.46 172.14 348.03
  A 0.23 0.22 -85.6 0 0 172.36 348.29"
/>
<path stroke="#7f7f7f" vector-effect="non-scaling-stroke" d="
  M 228.78 350.63
  Q 226.86 351.16 220.07 351.12
  Q 216.75 351.10 211.45 350.25
  Q 199.28 348.30 191.50 348.10
  Q 185.17 347.94 173.62 349.95
  C 167.51 351.01 161.43 351.14 155.41 350.81
  A 2.04 2.04 0.0 0 0 153.31 352.40
  C 151.30 361.32 156.83 367.46 165.11 369.65
  Q 191.85 376.72 218.63 369.86
  Q 227.36 367.62 230.33 359.07
  Q 231.72 355.09 229.76 351.08
  A 0.85 0.84 -20.1 0 0 228.78 350.63"
/>
<path stroke="#7f7f7f" vector-effect="non-scaling-stroke" d="
  M 185.14 246.81
  C 183.87 245.97 181.42 245.85 179.97 245.41
  Q 171.55 242.82 162.97 239.52
  C 161.47 238.94 159.98 238.18 158.95 237.15
  Q 153.68 231.91 151.11 230.42
  Q 142.70 225.57 133.59 219.68
  Q 131.46 218.30 129.98 219.96
  Q 125.64 224.79 122.89 227.38
  C 120.79 229.35 119.80 231.50 119.52 234.24
  Q 118.15 247.56 125.62 258.10
  C 128.72 262.49 132.97 264.56 138.88 264.73
  Q 140.63 264.78 152.98 265.80
  C 162.20 266.57 172.92 257.48 180.72 250.97
  Q 182.93 249.13 185.13 247.75
  A 0.56 0.56 0.0 0 0 185.14 246.81"
/>
<path stroke="#7f7f7f" vector-effect="non-scaling-stroke" d="
  M 199.15 248.02
  C 199.63 248.88 201.01 249.66 201.53 250.07
  Q 211.54 258.06 219.15 262.59
  Q 223.32 265.07 225.74 265.52
  C 231.95 266.67 239.38 265.51 246.80 264.82
  C 259.82 263.61 264.97 246.94 264.46 236.01
  Q 264.23 231.05 261.45 228.06
  Q 259.62 226.08 253.08 219.51
  A 1.86 1.85 51.9 0 0 250.81 219.23
  Q 239.53 226.09 231.76 231.11
  C 228.54 233.19 225.43 236.35 222.98 238.18
  A 10.15 9.95 16.4 0 1 220.22 239.65
  L 199.59 246.86
  A 0.81 0.81 0.0 0 0 199.15 248.02"
/>
<path stroke="#7f7f7f" vector-effect="non-scaling-stroke" d="
  M 191.05 255.73
  Q 190.02 260.73 188.01 264.76
  Q 183.93 272.90 180.10 281.10
  Q 178.85 283.78 178.98 286.64
  A 1.52 1.50 24.0 0 0 179.34 287.56
  Q 181.37 289.98 184.14 291.48
  A 1.67 1.67 0.0 0 0 186.43 290.77
  C 187.61 288.41 189.03 285.98 191.87 285.93
  A 1.81 1.77 62.2 0 1 192.96 286.28
  Q 195.66 288.26 197.03 291.01
  A 2.10 2.10 0.0 0 0 200.23 291.70
  C 203.00 289.46 206.23 285.26 204.30 281.59
  Q 197.88 269.37 191.93 255.64
  A 0.46 0.46 0.0 0 0 191.05 255.73"
/>
<path stroke="#2b667f" vector-effect="non-scaling-stroke" d="
  M 181.49 69.04
  Q 181.95 69.91 182.51 70.21
  Q 187.17 72.76 189.49 75.41
  Q 190.33 76.37 193.15 76.49
  A 1.41 1.40 23.3 0 0 194.19 76.08
  L 197.31 72.95
  A 6.45 6.33 5.8 0 1 198.41 72.07
  C 199.34 71.49 201.19 70.70 201.82 69.82
  Q 202.10 69.43 202.13 69.22
  A 0.77 0.77 0.0 0 0 201.38 68.31
  L 197.86 68.31
  A 4.16 4.14 -50.3 0 0 196.91 68.40
  Q 189.43 69.91 182.28 68.04
  A 0.70 0.70 0.0 0 0 181.49 69.04"
/>
<path stroke="#2b667f" vector-effect="non-scaling-stroke" d="
  M 181.80 107.03
  Q 184.98 107.69 186.30 107.51
  Q 194.51 106.40 201.74 107.94
  A 0.61 0.60 -88.7 0 0 202.46 107.25
  Q 202.33 106.37 201.39 105.60
  Q 198.44 103.18 195.49 100.79
  C 193.88 99.49 192.63 99.08 190.79 100.06
  C 187.60 101.76 183.25 103.53 181.51 106.35
  A 0.45 0.45 0.0 0 0 181.80 107.03"
/>
<path stroke="#2b667f" vector-effect="non-scaling-stroke" d="
  M 259.98 67.85
  L 256.22 67.30
  A 1.38 1.38 0.0 0 0 254.66 68.46
  L 254.48 69.65
  A 3.62 3.16 -81.6 0 0 257.08 73.69
  L 257.32 73.72
  A 3.62 3.16 -81.6 0 0 260.97 70.60
  L 261.15 69.42
  A 1.38 1.38 0.0 0 0 259.98 67.85"
/>
<path stroke="#2b667f" vector-effect="non-scaling-stroke" d="
  M 273.64 110.29
  Q 277.96 115.24 274.96 122.29
  A 1.77 1.74 84.2 0 1 274.32 123.09
  Q 272.94 124.04 269.15 124.64
  Q 263.71 125.49 262.85 130.46
  Q 262.45 132.78 264.33 133.53
  A 2.42 2.18 -63.5 0 0 267.11 132.44
  Q 269.49 128.45 269.74 128.09
  A 3.61 3.44 -1.0 0 1 270.53 127.31
  C 277.75 122.28 280.95 137.62 289.65 131.20
  A 1.12 1.12 0.0 0 0 289.14 129.18
  C 286.04 128.76 280.47 127.70 278.91 124.85
  A 2.10 2.10 0.0 0 1 278.64 123.82
  Q 278.65 119.48 279.67 115.27
  Q 280.36 112.42 278.76 111.14
  A 0.93 0.92 71.9 0 0 278.45 110.98
  L 274.14 109.54
  A 0.47 0.47 0.0 0 0 273.64 110.29"
/>
<path stroke="#6e1500" vector-effect="non-scaling-stroke" d="
  M 167.23 251.10
  C 167.64 248.00 163.88 245.67 161.48 244.08
  C 157.28 241.31 152.70 238.33 149.28 237.96
  Q 145.03 237.50 138.99 237.95
  C 134.21 238.31 128.59 240.93 128.54 246.20
  Q 128.50 249.33 130.55 251.19
  Q 139.17 259.05 150.17 260.08
  Q 155.50 260.57 159.01 258.90
  C 162.36 257.30 166.77 254.51 167.23 251.10"
/>
<path stroke="#6e1500" vector-effect="non-scaling-stroke" d="
  M 236.41 237.71
  Q 232.62 238.31 231.54 238.53
  Q 230.32 238.78 224.71 241.94
  Q 223.83 242.44 220.98 244.80
  C 218.52 246.84 216.22 248.30 215.02 250.77
  A 1.90 1.88 -56.8 0 0 215.48 253.01
  Q 219.02 256.06 223.63 257.97
  C 229.39 260.36 237.35 259.12 243.55 256.69
  C 249.92 254.19 253.16 249.32 254.16 242.95
  A 1.82 1.82 0.0 0 0 253.21 241.05
  C 248.22 238.42 242.03 236.82 236.41 237.71"
/>
</g>
<path fill="#56ccfe" d="
  M 198.53 18.04
  Q 198.76 18.21 199.29 18.13
  L 204.79 18.61
  L 206.48 18.77
  L 216.45 19.58
  Q 217.02 19.79 217.52 19.60
  Q 227.54 21.31 237.49 23.98
  Q 257.20 29.25 274.76 39.22
  L 280.62 43.09
  A 3.19 2.93 83.0 0 1 281.17 43.56
  Q 286.50 49.18 289.50 56.72
  A 0.36 0.36 0.0 0 1 288.99 57.16
  Q 284.43 54.50 280.09 50.83
  A 4.21 4.02 -9.5 0 0 279.56 50.47
  Q 268.59 44.35 260.47 40.56
  Q 245.67 33.64 228.78 29.91
  C 208.73 25.47 191.87 23.97 173.21 26.40
  Q 160.39 28.07 146.54 31.81
  Q 117.75 39.57 94.13 58.39
  Q 93.35 59.02 92.34 59.22
  A 0.29 0.29 0.0 0 1 92.02 58.81
  Q 96.43 50.01 103.04 42.93
  Q 117.76 34.71 124.81 31.81
  C 148.46 22.07 172.95 17.08 198.53 18.04
  Z"
/>
<path fill="#000000" d="
  M 199.29 18.13
  Q 198.76 18.21 198.53 18.04
  Q 198.85 18.15 199.29 18.13
  Z"
/>
<path fill="#000000" d="
  M 206.48 18.77
  L 204.79 18.61
  Q 205.72 18.50 206.48 18.77
  Z"
/>
<path fill="#000000" d="
  M 217.52 19.60
  Q 217.02 19.79 216.45 19.58
  L 217.52 19.60
  Z"
/>
<path fill="#000000" d="
  M 274.76 39.22
  Q 276.64 39.37 278.46 39.12
  A 0.17 0.09 8.5 0 1 278.67 39.28
  Q 278.61 39.32 278.59 39.36
  A 0.19 0.12 -68.2 0 1 278.42 39.49
  Q 277.37 39.21 277.34 39.23
  A 0.33 0.33 0.0 0 0 277.48 39.85
  L 278.76 39.94
  A 0.59 0.59 0.0 0 0 279.39 39.32
  Q 279.35 38.49 279.69 37.64
  A 1.14 1.14 0.0 0 0 279.63 36.63
  Q 278.29 34.22 277.94 32.19
  A 2.36 2.35 -7.8 0 1 280.03 29.44
  Q 284.56 28.99 288.91 29.06
  Q 289.04 29.07 289.32 29.21
  Q 289.49 29.29 289.57 29.32
  A 0.04 0.04 0.0 0 1 289.55 29.39
  L 285.14 29.07
  A 0.31 0.30 -88.3 0 0 284.82 29.38
  A 0.31 0.31 0.0 0 0 285.17 29.69
  Q 288.38 29.28 290.92 30.72
  A 0.11 0.11 0.0 0 1 290.85 30.93
  Q 290.84 30.93 290.71 30.87
  Q 287.65 29.36 285.77 29.71
  A 0.37 0.36 54.0 0 0 285.67 30.39
  L 295.36 35.71
  A 2.08 2.04 59.6 0 0 296.32 35.97
  C 300.15 36.12 303.17 39.05 306.09 41.49
  A 0.15 0.15 0.0 0 1 306.10 41.72
  L 306.10 41.73
  A 0.12 0.12 0.0 0 1 305.93 41.72
  Q 304.81 40.41 304.00 40.09
  A 0.27 0.26 -8.1 0 0 303.69 40.50
  C 305.49 42.75 307.96 43.36 309.83 45.74
  C 310.96 47.19 313.12 48.01 313.71 49.45
  A 1.51 1.46 5.7 0 0 314.31 50.16
  Q 315.94 51.15 318.30 53.47
  Q 326.30 61.33 333.06 70.90
  Q 336.61 75.92 345.08 90.79
  A 2.90 2.75 -70.0 0 1 345.28 91.25
  L 346.37 94.54
  A 8.41 8.35 21.6 0 0 347.01 96.00
  Q 349.74 100.92 350.65 107.29
  A 1.20 1.18 9.4 0 0 351.30 108.18
  Q 351.44 108.25 351.46 108.26
  A 0.92 0.92 0.0 0 1 351.90 108.80
  C 353.59 114.40 355.41 119.65 355.51 125.44
  C 355.61 130.99 356.90 136.80 357.25 142.53
  L 355.63 139.13
  Q 353.04 151.72 353.14 160.25
  C 353.23 168.72 355.19 184.21 354.83 194.17
  C 354.38 206.88 353.99 216.23 350.92 227.69
  C 343.82 254.15 330.73 279.59 312.09 299.57
  Q 298.30 314.36 281.48 325.99
  Q 279.99 327.02 274.06 329.46
  Q 263.12 326.85 254.67 317.34
  Q 245.37 306.86 245.53 292.98
  A 1.73 1.73 0.0 0 0 243.63 291.24
  Q 235.38 292.03 228.59 296.87
  Q 222.82 300.98 222.46 301.66
  A 1.01 0.99 47.4 0 0 222.43 302.52
  C 222.58 302.87 223.49 303.67 223.98 304.59
  C 231.92 319.77 246.64 331.27 264.18 332.89
  A 4.10 4.00 -49.5 0 0 265.72 332.75
  L 272.90 330.72
  Q 273.57 330.64 273.61 331.14
  Q 273.66 331.72 273.11 331.91
  Q 253.04 339.09 232.27 347.93
  A 1.54 1.53 69.4 0 0 231.42 349.82
  C 231.88 351.25 232.71 354.86 234.64 354.99
  Q 233.06 361.37 230.10 365.84
  C 225.86 372.25 218.10 373.43 210.14 375.18
  C 199.29 377.56 189.51 377.82 178.54 376.27
  Q 171.55 375.28 163.45 372.92
  A 1.86 1.67 -17.1 0 1 163.04 372.73
  L 157.78 369.45
  A 0.71 0.64 -26.3 0 0 157.42 369.35
  Q 156.57 369.38 156.00 368.97
  A 0.59 0.58 -51.6 0 1 155.91 368.11
  Q 155.94 368.07 156.00 368.04
  A 0.20 0.19 -43.4 0 0 156.01 367.73
  Q 153.14 365.28 152.69 364.05
  Q 150.90 359.18 149.07 355.30
  L 152.83 350.65
  A 0.65 0.65 0.0 0 0 152.83 349.83
  Q 151.14 347.70 148.03 346.46
  C 142.36 344.21 137.12 342.51 130.71 339.65
  Q 122.95 336.19 112.61 333.41
  Q 110.15 332.75 108.05 330.95
  C 121.21 335.34 132.45 330.43 143.70 323.61
  Q 146.31 322.03 148.88 319.40
  Q 157.04 311.07 161.03 301.62
  A 0.82 0.82 0.0 0 0 160.80 300.67
  Q 153.00 294.07 142.89 291.89
  Q 140.87 291.46 139.90 292.01
  A 1.18 1.16 -9.0 0 0 139.33 292.78
  Q 137.22 303.01 136.11 305.86
  C 131.89 316.66 122.52 326.07 111.20 328.95
  Q 109.01 329.51 106.21 328.89
  Q 104.41 327.97 103.74 327.50
  C 79.35 310.11 59.24 290.06 45.62 263.08
  C 39.33 250.61 33.14 234.78 30.91 220.66
  Q 27.20 197.04 29.48 172.25
  Q 30.77 158.13 28.82 144.29
  L 29.10 137.85
  A 0.16 0.16 0.0 0 0 28.79 137.79
  Q 28.33 139.18 28.93 140.94
  A 0.20 0.20 0.0 0 1 28.78 141.20
  L 28.74 141.21
  A 0.31 0.31 0.0 0 1 28.38 140.98
  C 26.11 131.50 28.43 121.45 30.46 110.84
  Q 31.86 103.49 35.27 96.07
  Q 40.81 84.04 47.64 73.39
  Q 47.81 73.12 48.49 72.68
  A 1.06 1.06 0.0 0 0 48.98 71.93
  C 49.39 69.23 51.27 68.86 52.09 67.02
  A 1.82 1.74 -9.0 0 1 52.54 66.43
  Q 55.86 63.70 59.63 58.81
  A 5.27 4.91 -89.0 0 1 60.44 57.97
  Q 63.69 55.27 64.20 54.56
  Q 64.40 54.28 66.91 51.98
  Q 68.57 50.46 69.90 48.49
  A 2.09 2.00 1.3 0 1 70.60 47.85
  Q 72.27 46.91 74.27 44.95
  C 75.73 43.51 76.91 43.10 78.77 42.00
  A 0.27 0.26 -47.8 0 0 78.75 41.53
  L 78.42 41.39
  A 0.01 0.01 0.0 0 1 78.42 41.37
  Q 79.98 39.08 82.71 38.48
  A 1.39 1.12 17.4 0 0 82.99 38.37
  L 88.59 35.23
  A 1.00 0.66 -56.3 0 1 88.71 35.18
  Q 90.10 34.88 91.55 33.73
  A 3.00 2.93 -68.5 0 1 92.82 33.16
  Q 95.47 32.66 97.09 31.39
  A 1.39 1.38 29.4 0 1 98.11 31.11
  Q 102.01 31.60 104.32 30.50
  A 1.46 1.46 0.0 0 1 106.28 32.42
  L 101.80 42.34
  A 0.53 0.53 0.0 0 0 102.40 43.07
  L 103.04 42.93
  Q 96.43 50.01 92.02 58.81
  A 0.29 0.29 0.0 0 0 92.34 59.22
  Q 93.35 59.02 94.13 58.39
  Q 117.75 39.57 146.54 31.81
  Q 160.39 28.07 173.21 26.40
  C 191.87 23.97 208.73 25.47 228.78 29.91
  Q 245.67 33.64 260.47 40.56
  Q 268.59 44.35 279.56 50.47
  A 4.21 4.02 -9.5 0 1 280.09 50.83
  Q 284.43 54.50 288.99 57.16
  A 0.36 0.36 0.0 0 0 289.50 56.72
  Q 286.50 49.18 281.17 43.56
  A 3.19 2.93 83.0 0 0 280.62 43.09
  L 274.76 39.22
  Z
  M 270.18 222.26
  Q 287.28 221.37 301.31 214.75
  Q 314.18 208.68 326.28 197.52
  Q 345.41 179.90 350.80 155.89
  Q 351.87 151.11 352.39 144.26
  Q 353.05 135.58 352.82 132.51
  C 352.15 123.42 350.58 112.40 347.32 103.15
  Q 338.09 76.96 319.09 57.92
  Q 309.58 48.39 297.60 40.31
  C 292.73 37.02 287.45 34.81 282.23 31.25
  A 1.04 1.04 0.0 0 0 280.61 32.02
  Q 280.50 33.43 281.38 34.87
  C 296.13 58.86 306.91 84.25 309.86 112.30
  Q 311.40 126.93 306.83 139.37
  C 302.57 150.95 295.51 158.92 283.53 161.76
  Q 278.86 162.87 271.52 163.38
  Q 268.81 163.57 267.67 162.19
  C 263.85 157.52 259.78 155.73 253.73 152.83
  Q 228.39 140.66 203.52 136.50
  Q 195.08 135.09 191.02 135.35
  C 170.95 136.62 150.48 143.46 131.74 151.78
  C 124.66 154.92 120.63 156.94 116.33 161.91
  A 3.10 3.00 5.3 0 1 115.51 162.57
  Q 114.73 162.99 111.30 163.03
  Q 86.57 163.27 77.44 141.04
  C 72.45 128.90 72.88 113.73 75.33 101.01
  C 80.00 76.80 89.74 54.68 103.22 33.98
  Q 103.82 33.07 103.65 32.22
  A 0.68 0.68 0.0 0 0 102.71 31.73
  Q 92.24 36.39 83.40 42.24
  C 56.89 59.77 36.10 90.38 32.19 122.17
  Q 30.45 136.42 32.09 150.38
  C 34.11 167.54 43.81 185.03 56.72 196.74
  C 70.44 209.20 83.37 217.42 101.69 221.12
  Q 107.84 222.36 115.01 222.09
  A 0.41 0.41 0.0 0 1 115.13 222.90
  Q 112.91 223.44 112.20 226.03
  Q 109.65 235.31 109.84 242.49
  Q 110.06 251.02 110.78 259.48
  C 111.20 264.34 113.38 267.75 118.01 269.54
  C 123.79 271.77 129.06 273.95 131.89 279.73
  A 1.40 1.31 24.7 0 1 132.00 280.00
  L 134.50 288.53
  A 2.63 2.62 77.3 0 0 137.43 290.39
  C 143.70 289.42 152.29 292.05 157.69 296.33
  Q 159.26 297.58 165.93 302.23
  Q 166.13 302.36 171.21 306.28
  Q 173.00 307.67 175.10 307.89
  C 177.98 308.21 180.17 308.86 183.42 308.94
  C 191.94 309.13 196.72 308.93 201.71 309.41
  Q 208.14 310.04 213.61 305.63
  Q 219.60 300.81 229.13 294.38
  C 233.78 291.25 241.00 288.88 246.48 290.75
  A 0.90 0.90 0.0 0 0 247.39 290.54
  C 251.26 286.77 250.44 279.91 254.16 276.26
  C 257.16 273.32 261.30 271.13 265.11 269.64
  C 270.06 267.69 272.54 264.63 272.95 259.72
  C 274.00 246.97 274.71 237.22 271.19 225.31
  C 270.88 224.26 270.01 223.63 269.74 222.94
  A 0.50 0.50 0.0 0 1 270.18 222.26
  Z
  M 114.83 85.63
  C 117.04 85.70 120.73 85.82 122.15 88.24
  C 125.44 93.78 127.83 87.56 130.73 86.71
  Q 137.78 84.66 144.46 85.16
  A 0.68 0.68 0.0 0 0 145.14 84.23
  Q 141.82 75.80 140.78 72.98
  C 138.98 68.15 138.81 64.91 141.45 60.00
  Q 143.09 56.97 143.86 53.88
  A 1.08 1.08 0.0 0 0 142.65 52.55
  C 141.13 52.78 138.42 55.06 135.49 57.24
  C 130.88 60.68 129.85 56.03 128.53 52.43
  A 2.31 2.29 74.8 0 0 125.98 50.95
  Q 125.41 51.05 124.65 52.15
  Q 124.05 53.02 121.56 57.42
  A 2.19 2.18 -63.0 0 1 118.75 58.34
  Q 115.60 56.92 112.53 53.94
  A 2.42 2.09 32.1 0 0 108.71 54.53
  C 108.23 56.22 109.97 58.65 111.37 60.77
  C 116.37 68.39 109.33 76.16 107.14 82.99
  A 1.36 1.36 0.0 0 0 108.37 84.76
  Q 111.44 84.90 114.14 85.54
  A 3.46 3.42 -37.2 0 0 114.83 85.63
  Z
  M 150.98 124.44
  L 231.51 124.44
  A 1.13 1.12 90.0 0 0 232.63 123.31
  L 232.63 110.60
  A 3.27 3.27 0.0 0 0 231.47 108.10
  Q 219.74 98.20 209.10 90.56
  Q 207.33 89.29 207.04 88.59
  Q 206.35 86.92 207.90 86.13
  C 212.10 83.99 216.13 80.03 220.26 76.92
  Q 226.94 71.87 231.72 68.75
  A 2.67 2.65 -16.8 0 0 232.92 66.53
  L 232.92 52.20
  A 0.85 0.85 0.0 0 0 232.07 51.35
  L 151.95 51.35
  A 0.90 0.90 0.0 0 0 151.05 52.29
  Q 151.29 58.10 150.82 65.01
  Q 150.61 68.04 152.79 69.44
  Q 160.05 74.11 168.27 80.71
  Q 172.68 84.25 176.63 86.83
  A 1.20 1.20 0.0 0 1 176.78 88.72
  C 170.83 94.12 164.05 98.70 152.50 107.24
  Q 151.23 108.18 150.06 109.52
  A 2.02 1.93 45.2 0 0 150.11 112.12
  Q 151.81 114.06 151.39 117.07
  Q 150.64 122.41 150.35 123.65
  A 0.65 0.65 0.0 0 0 150.98 124.44
  Z
  M 275.36 89.18
  Q 275.58 87.99 275.19 86.53
  Q 273.15 78.69 272.86 68.91
  C 272.70 63.69 274.36 59.17 276.10 54.65
  A 1.03 1.03 0.0 0 0 274.94 53.27
  Q 263.63 55.44 251.21 54.58
  C 247.02 54.29 244.37 53.19 240.47 51.94
  A 0.54 0.54 0.0 0 0 239.77 52.47
  L 239.83 54.98
  A 1.73 1.68 -55.5 0 0 239.90 55.39
  C 243.00 65.89 242.74 77.28 240.20 88.26
  A 0.91 0.91 0.0 0 0 241.11 89.37
  Q 241.74 89.36 242.51 88.98
  Q 247.12 86.73 250.75 86.46
  Q 260.26 85.76 269.23 87.06
  A 1.75 1.46 58.3 0 1 269.68 87.21
  L 274.31 89.68
  A 0.72 0.71 19.1 0 0 275.36 89.18
  Z
  M 89.37 133.88
  Q 89.46 133.99 92.09 141.84
  A 1.49 1.48 56.8 0 0 94.59 142.37
  Q 99.28 137.21 105.78 132.43
  C 107.44 131.21 108.61 130.94 110.20 132.33
  Q 112.12 133.99 120.06 141.30
  A 1.76 1.76 0.0 0 0 122.86 140.72
  Q 124.70 136.52 126.87 133.17
  C 128.70 130.35 129.73 127.49 125.89 125.72
  Q 121.14 123.54 120.03 123.27
  Q 116.03 122.33 113.74 121.23
  A 2.21 2.20 -71.2 0 1 112.54 118.78
  L 116.07 102.02
  A 0.91 0.90 5.5 0 0 115.16 100.93
  Q 108.17 101.07 103.09 100.60
  C 101.00 100.40 99.93 101.42 100.32 103.47
  Q 102.18 113.22 102.82 116.73
  C 103.38 119.75 102.92 120.86 99.92 122.15
  Q 91.70 125.71 89.00 128.19
  Q 86.32 130.64 88.70 133.12
  A 7.29 4.80 58.2 0 1 89.37 133.88
  Z
  M 271.69 145.15
  Q 278.35 146.48 285.69 142.87
  C 296.97 137.34 300.07 122.80 293.14 112.66
  C 290.45 108.73 285.10 103.83 280.17 102.84
  C 275.24 101.85 268.41 104.32 264.42 106.90
  C 254.11 113.59 251.37 128.20 259.65 137.66
  Q 265.04 143.82 271.69 145.15
  Z
  M 152.91 323.10
  Q 162.08 323.43 168.11 315.43
  A 4.85 4.82 68.6 0 0 169.01 313.35
  Q 169.52 310.27 170.22 309.44
  A 1.45 1.45 0.0 0 0 170.05 307.39
  L 164.53 302.69
  A 1.12 1.12 0.0 0 0 162.72 303.28
  Q 160.33 313.48 152.30 321.55
  A 0.91 0.91 0.0 0 0 152.91 323.10
  Z
  M 202.43 311.89
  Q 202.51 313.41 203.06 314.25
  C 205.86 318.53 203.66 326.66 211.62 325.84
  A 0.92 0.91 -89.2 0 0 212.44 325.04
  Q 213.32 317.84 212.03 311.21
  A 0.56 0.56 0.0 0 1 212.69 310.55
  L 213.13 310.64
  A 1.69 1.68 0.3 0 1 214.43 311.95
  Q 215.59 317.67 220.68 320.42
  C 222.47 321.38 228.86 324.33 231.24 323.65
  A 0.79 0.79 0.0 0 0 231.65 322.41
  C 226.83 316.13 222.73 310.94 221.42 303.52
  A 0.90 0.90 0.0 0 0 220.00 302.95
  L 209.95 310.31
  A 1.44 1.39 23.0 0 1 209.25 310.58
  L 203.00 311.23
  A 0.64 0.63 86.2 0 0 202.43 311.89
  Z
  M 180.73 310.65
  L 172.32 309.18
  A 0.26 0.26 0.0 0 0 172.02 309.39
  L 171.31 313.43
  A 10.96 2.56 -80.1 0 0 171.95 324.67
  L 175.83 325.34
  A 10.96 2.56 -80.1 0 0 180.24 314.99
  L 180.94 310.95
  A 0.26 0.26 0.0 0 0 180.73 310.65
  Z
  M 183.05 312.20
  L 182.62 321.91
  A 1.64 1.64 0.0 0 0 184.19 323.62
  L 187.86 323.78
  A 2.27 1.49 2.5 0 0 190.19 322.39
  L 190.62 312.38
  A 2.27 1.49 2.5 0 0 188.42 310.79
  L 184.76 310.63
  A 1.64 1.64 0.0 0 0 183.05 312.20
  Z
  M 201.21 311.06
  L 193.05 311.22
  A 0.22 0.22 0.0 0 0 192.83 311.44
  L 192.84 311.53
  A 12.35 2.05 88.9 0 0 195.12 323.84
  L 199.62 323.76
  A 12.35 2.05 88.9 0 0 201.43 311.37
  L 201.43 311.28
  A 0.22 0.22 0.0 0 0 201.21 311.06
  Z
  M 227.45 347.62
  Q 227.15 344.73 227.04 340.74
  C 226.92 336.45 224.66 322.40 218.59 322.54
  A 0.61 0.60 88.6 0 0 218.00 323.17
  Q 218.32 331.49 217.75 333.78
  Q 216.14 340.32 215.69 342.29
  A 1.82 1.81 -14.5 0 1 215.14 343.22
  C 213.85 344.38 211.70 345.75 211.46 347.37
  A 1.65 1.65 0.0 0 0 213.06 349.26
  L 225.63 349.59
  A 1.79 1.79 0.0 0 0 227.45 347.62
  Z
  M 171.55 348.49
  C 170.73 348.00 169.83 345.40 168.44 342.33
  C 167.04 339.23 167.00 335.62 165.80 332.50
  A 0.67 0.55 39.1 0 1 165.75 332.26
  L 166.03 323.61
  A 0.56 0.55 -6.9 0 0 165.32 323.06
  C 161.37 324.23 159.44 326.59 158.30 330.84
  Q 156.13 338.95 156.23 347.87
  A 1.01 0.98 -77.1 0 0 156.76 348.74
  Q 158.75 349.78 161.34 349.63
  Q 169.66 349.14 171.41 349.06
  A 0.31 0.30 59.1 0 0 171.55 348.49
  Z
  M 188.13 331.25
  L 184.48 331.25
  A 1.08 1.08 0.0 0 0 183.48 331.93
  C 181.78 336.17 179.36 342.25 182.30 346.26
  A 1.52 1.50 -18.2 0 0 183.51 346.86
  L 190.62 346.86
  A 1.45 1.45 0.0 0 0 192.06 345.22
  Q 191.73 342.65 190.41 338.76
  C 189.68 336.61 189.47 334.12 189.20 332.18
  A 1.08 1.08 0.0 0 0 188.13 331.25
  Z
  M 202.23 345.22
  Q 203.15 339.81 201.52 332.65
  A 1.83 1.82 -6.3 0 0 199.74 331.23
  L 196.29 331.23
  A 0.94 0.93 -77.7 0 0 195.44 331.78
  C 193.54 335.92 192.94 341.01 192.68 345.75
  A 0.91 0.90 2.4 0 0 193.57 346.71
  L 202.10 346.90
  A 0.82 0.76 59.8 0 1 202.46 347.01
  L 203.88 347.83
  A 1.00 0.92 58.6 0 0 204.30 347.95
  L 209.39 348.13
  A 0.93 0.91 -76.2 0 0 210.25 347.60
  Q 213.07 341.78 212.70 335.22
  A 0.64 0.64 0.0 0 0 212.05 334.62
  C 205.98 334.76 206.32 341.84 202.80 345.50
  A 0.33 0.33 0.0 0 1 202.23 345.22
  Z
  M 172.36 348.29
  L 179.30 348.29
  A 1.73 1.72 -17.0 0 0 180.73 345.60
  Q 177.90 341.41 177.06 337.95
  C 176.45 335.45 174.66 334.36 172.51 334.42
  A 0.73 0.73 0.0 0 0 171.81 335.00
  Q 170.89 339.44 171.02 340.04
  Q 172.42 346.46 172.14 348.03
  A 0.23 0.22 -85.6 0 0 172.36 348.29
  Z
  M 228.78 350.63
  Q 226.86 351.16 220.07 351.12
  Q 216.75 351.10 211.45 350.25
  Q 199.28 348.30 191.50 348.10
  Q 185.17 347.94 173.62 349.95
  C 167.51 351.01 161.43 351.14 155.41 350.81
  A 2.04 2.04 0.0 0 0 153.31 352.40
  C 151.30 361.32 156.83 367.46 165.11 369.65
  Q 191.85 376.72 218.63 369.86
  Q 227.36 367.62 230.33 359.07
  Q 231.72 355.09 229.76 351.08
  A 0.85 0.84 -20.1 0 0 228.78 350.63
  Z"
/>
<path fill="#fefefe" d="
  M 269.74 222.94
  C 270.01 223.63 270.88 224.26 271.19 225.31
  C 274.71 237.22 274.00 246.97 272.95 259.72
  C 272.54 264.63 270.06 267.69 265.11 269.64
  C 261.30 271.13 257.16 273.32 254.16 276.26
  C 250.44 279.91 251.26 286.77 247.39 290.54
  A 0.90 0.90 0.0 0 1 246.48 290.75
  C 241.00 288.88 233.78 291.25 229.13 294.38
  Q 219.60 300.81 213.61 305.63
  Q 208.14 310.04 201.71 309.41
  C 196.72 308.93 191.94 309.13 183.42 308.94
  C 180.17 308.86 177.98 308.21 175.10 307.89
  Q 173.00 307.67 171.21 306.28
  Q 166.13 302.36 165.93 302.23
  Q 159.26 297.58 157.69 296.33
  C 152.29 292.05 143.70 289.42 137.43 290.39
  A 2.63 2.62 77.3 0 1 134.50 288.53
  L 132.00 280.00
  A 1.40 1.31 24.7 0 0 131.89 279.73
  C 129.06 273.95 123.79 271.77 118.01 269.54
  C 113.38 267.75 111.20 264.34 110.78 259.48
  Q 110.06 251.02 109.84 242.49
  Q 109.65 235.31 112.20 226.03
  Q 112.91 223.44 115.13 222.90
  A 0.41 0.41 0.0 0 0 115.01 222.09
  Q 107.84 222.36 101.69 221.12
  C 83.37 217.42 70.44 209.20 56.72 196.74
  C 43.81 185.03 34.11 167.54 32.09 150.38
  Q 30.45 136.42 32.19 122.17
  C 36.10 90.38 56.89 59.77 83.40 42.24
  Q 92.24 36.39 102.71 31.73
  A 0.68 0.68 0.0 0 1 103.65 32.22
  Q 103.82 33.07 103.22 33.98
  C 89.74 54.68 80.00 76.80 75.33 101.01
  C 72.88 113.73 72.45 128.90 77.44 141.04
  Q 86.57 163.27 111.30 163.03
  Q 114.73 162.99 115.51 162.57
  A 3.10 3.00 5.3 0 0 116.33 161.91
  C 120.63 156.94 124.66 154.92 131.74 151.78
  C 150.48 143.46 170.95 136.62 191.02 135.35
  Q 195.08 135.09 203.52 136.50
  Q 228.39 140.66 253.73 152.83
  C 259.78 155.73 263.85 157.52 267.67 162.19
  Q 268.81 163.57 271.52 163.38
  Q 278.86 162.87 283.53 161.76
  C 295.51 158.92 302.57 150.95 306.83 139.37
  Q 311.40 126.93 309.86 112.30
  C 306.91 84.25 296.13 58.86 281.38 34.87
  Q 280.50 33.43 280.61 32.02
  A 1.04 1.04 0.0 0 1 282.23 31.25
  C 287.45 34.81 292.73 37.02 297.60 40.31
  Q 309.58 48.39 319.09 57.92
  Q 338.09 76.96 347.32 103.15
  C 350.58 112.40 352.15 123.42 352.82 132.51
  Q 353.05 135.58 352.39 144.26
  Q 351.87 151.11 350.80 155.89
  Q 345.41 179.90 326.28 197.52
  Q 314.18 208.68 301.31 214.75
  Q 287.28 221.37 270.18 222.26
  A 0.50 0.50 0.0 0 0 269.74 222.94
  Z
  M 185.14 246.81
  C 183.87 245.97 181.42 245.85 179.97 245.41
  Q 171.55 242.82 162.97 239.52
  C 161.47 238.94 159.98 238.18 158.95 237.15
  Q 153.68 231.91 151.11 230.42
  Q 142.70 225.57 133.59 219.68
  Q 131.46 218.30 129.98 219.96
  Q 125.64 224.79 122.89 227.38
  C 120.79 229.35 119.80 231.50 119.52 234.24
  Q 118.15 247.56 125.62 258.10
  C 128.72 262.49 132.97 264.56 138.88 264.73
  Q 140.63 264.78 152.98 265.80
  C 162.20 266.57 172.92 257.48 180.72 250.97
  Q 182.93 249.13 185.13 247.75
  A 0.56 0.56 0.0 0 0 185.14 246.81
  Z
  M 199.15 248.02
  C 199.63 248.88 201.01 249.66 201.53 250.07
  Q 211.54 258.06 219.15 262.59
  Q 223.32 265.07 225.74 265.52
  C 231.95 266.67 239.38 265.51 246.80 264.82
  C 259.82 263.61 264.97 246.94 264.46 236.01
  Q 264.23 231.05 261.45 228.06
  Q 259.62 226.08 253.08 219.51
  A 1.86 1.85 51.9 0 0 250.81 219.23
  Q 239.53 226.09 231.76 231.11
  C 228.54 233.19 225.43 236.35 222.98 238.18
  A 10.15 9.95 16.4 0 1 220.22 239.65
  L 199.59 246.86
  A 0.81 0.81 0.0 0 0 199.15 248.02
  Z
  M 191.05 255.73
  Q 190.02 260.73 188.01 264.76
  Q 183.93 272.90 180.10 281.10
  Q 178.85 283.78 178.98 286.64
  A 1.52 1.50 24.0 0 0 179.34 287.56
  Q 181.37 289.98 184.14 291.48
  A 1.67 1.67 0.0 0 0 186.43 290.77
  C 187.61 288.41 189.03 285.98 191.87 285.93
  A 1.81 1.77 62.2 0 1 192.96 286.28
  Q 195.66 288.26 197.03 291.01
  A 2.10 2.10 0.0 0 0 200.23 291.70
  C 203.00 289.46 206.23 285.26 204.30 281.59
  Q 197.88 269.37 191.93 255.64
  A 0.46 0.46 0.0 0 0 191.05 255.73
  Z"
/>
<path fill="#56ccfe" d="
  M 114.14 85.54
  Q 111.44 84.90 108.37 84.76
  A 1.36 1.36 0.0 0 1 107.14 82.99
  C 109.33 76.16 116.37 68.39 111.37 60.77
  C 109.97 58.65 108.23 56.22 108.71 54.53
  A 2.42 2.09 32.1 0 1 112.53 53.94
  Q 115.60 56.92 118.75 58.34
  A 2.19 2.18 -63.0 0 0 121.56 57.42
  Q 124.05 53.02 124.65 52.15
  Q 125.41 51.05 125.98 50.95
  A 2.31 2.29 74.8 0 1 128.53 52.43
  C 129.85 56.03 130.88 60.68 135.49 57.24
  C 138.42 55.06 141.13 52.78 142.65 52.55
  A 1.08 1.08 0.0 0 1 143.86 53.88
  Q 143.09 56.97 141.45 60.00
  C 138.81 64.91 138.98 68.15 140.78 72.98
  Q 141.82 75.80 145.14 84.23
  A 0.68 0.68 0.0 0 1 144.46 85.16
  Q 137.78 84.66 130.73 86.71
  C 127.83 87.56 125.44 93.78 122.15 88.24
  C 120.73 85.82 117.04 85.70 114.83 85.63
  A 3.46 3.42 -37.2 0 1 114.14 85.54
  Z"
/>
<path fill="#56ccfe" d="
  M 150.35 123.65
  Q 150.64 122.41 151.39 117.07
  Q 151.81 114.06 150.11 112.12
  A 2.02 1.93 45.2 0 1 150.06 109.52
  Q 151.23 108.18 152.50 107.24
  C 164.05 98.70 170.83 94.12 176.78 88.72
  A 1.20 1.20 0.0 0 0 176.63 86.83
  Q 172.68 84.25 168.27 80.71
  Q 160.05 74.11 152.79 69.44
  Q 150.61 68.04 150.82 65.01
  Q 151.29 58.10 151.05 52.29
  A 0.90 0.90 0.0 0 1 151.95 51.35
  L 232.07 51.35
  A 0.85 0.85 0.0 0 1 232.92 52.20
  L 232.92 66.53
  A 2.67 2.65 -16.8 0 1 231.72 68.75
  Q 226.94 71.87 220.26 76.92
  C 216.13 80.03 212.10 83.99 207.90 86.13
  Q 206.35 86.92 207.04 88.59
  Q 207.33 89.29 209.10 90.56
  Q 219.74 98.20 231.47 108.10
  A 3.27 3.27 0.0 0 1 232.63 110.60
  L 232.63 123.31
  A 1.13 1.12 -90.0 0 1 231.51 124.44
  L 150.98 124.44
  A 0.65 0.65 0.0 0 1 150.35 123.65
  Z
  M 181.49 69.04
  Q 181.95 69.91 182.51 70.21
  Q 187.17 72.76 189.49 75.41
  Q 190.33 76.37 193.15 76.49
  A 1.41 1.40 23.3 0 0 194.19 76.08
  L 197.31 72.95
  A 6.45 6.33 5.8 0 1 198.41 72.07
  C 199.34 71.49 201.19 70.70 201.82 69.82
  Q 202.10 69.43 202.13 69.22
  A 0.77 0.77 0.0 0 0 201.38 68.31
  L 197.86 68.31
  A 4.16 4.14 -50.3 0 0 196.91 68.40
  Q 189.43 69.91 182.28 68.04
  A 0.70 0.70 0.0 0 0 181.49 69.04
  Z
  M 181.80 107.03
  Q 184.98 107.69 186.30 107.51
  Q 194.51 106.40 201.74 107.94
  A 0.61 0.60 -88.7 0 0 202.46 107.25
  Q 202.33 106.37 201.39 105.60
  Q 198.44 103.18 195.49 100.79
  C 193.88 99.49 192.63 99.08 190.79 100.06
  C 187.60 101.76 183.25 103.53 181.51 106.35
  A 0.45 0.45 0.0 0 0 181.80 107.03
  Z"
/>
<path fill="#56ccfe" d="
  M 275.36 89.18
  A 0.72 0.71 19.1 0 1 274.31 89.68
  L 269.68 87.21
  A 1.75 1.46 58.3 0 0 269.23 87.06
  Q 260.26 85.76 250.75 86.46
  Q 247.12 86.73 242.51 88.98
  Q 241.74 89.36 241.11 89.37
  A 0.91 0.91 0.0 0 1 240.20 88.26
  C 242.74 77.28 243.00 65.89 239.90 55.39
  A 1.73 1.68 -55.5 0 1 239.83 54.98
  L 239.77 52.47
  A 0.54 0.54 0.0 0 1 240.47 51.94
  C 244.37 53.19 247.02 54.29 251.21 54.58
  Q 263.63 55.44 274.94 53.27
  A 1.03 1.03 0.0 0 1 276.10 54.65
  C 274.36 59.17 272.70 63.69 272.86 68.91
  Q 273.15 78.69 275.19 86.53
  Q 275.58 87.99 275.36 89.18
  Z
  M 259.98 67.85
  L 256.22 67.30
  A 1.38 1.38 0.0 0 0 254.66 68.46
  L 254.48 69.65
  A 3.62 3.16 -81.6 0 0 257.08 73.69
  L 257.32 73.72
  A 3.62 3.16 -81.6 0 0 260.97 70.60
  L 261.15 69.42
  A 1.38 1.38 0.0 0 0 259.98 67.85
  Z"
/>
<path fill="#000000" d="
  M 259.98 67.85
  A 1.38 1.38 0.0 0 1 261.15 69.42
  L 260.97 70.60
  A 3.62 3.16 -81.6 0 1 257.32 73.72
  L 257.08 73.69
  A 3.62 3.16 -81.6 0 1 254.48 69.65
  L 254.66 68.46
  A 1.38 1.38 0.0 0 1 256.22 67.30
  L 259.98 67.85
  Z"
/>
<path fill="#000000" d="
  M 181.49 69.04
  A 0.70 0.70 0.0 0 1 182.28 68.04
  Q 189.43 69.91 196.91 68.40
  A 4.16 4.14 -50.3 0 1 197.86 68.31
  L 201.38 68.31
  A 0.77 0.77 0.0 0 1 202.13 69.22
  Q 202.10 69.43 201.82 69.82
  C 201.19 70.70 199.34 71.49 198.41 72.07
  A 6.45 6.33 5.8 0 0 197.31 72.95
  L 194.19 76.08
  A 1.41 1.40 23.3 0 1 193.15 76.49
  Q 190.33 76.37 189.49 75.41
  Q 187.17 72.76 182.51 70.21
  Q 181.95 69.91 181.49 69.04
  Z"
/>
<path fill="#000000" d="
  M 181.51 106.35
  C 183.25 103.53 187.60 101.76 190.79 100.06
  C 192.63 99.08 193.88 99.49 195.49 100.79
  Q 198.44 103.18 201.39 105.60
  Q 202.33 106.37 202.46 107.25
  A 0.61 0.60 -88.7 0 1 201.74 107.94
  Q 194.51 106.40 186.30 107.51
  Q 184.98 107.69 181.80 107.03
  A 0.45 0.45 0.0 0 1 181.51 106.35
  Z"
/>
<path fill="#56ccfe" d="
  M 88.70 133.12
  Q 86.32 130.64 89.00 128.19
  Q 91.70 125.71 99.92 122.15
  C 102.92 120.86 103.38 119.75 102.82 116.73
  Q 102.18 113.22 100.32 103.47
  C 99.93 101.42 101.00 100.40 103.09 100.60
  Q 108.17 101.07 115.16 100.93
  A 0.91 0.90 5.5 0 1 116.07 102.02
  L 112.54 118.78
  A 2.21 2.20 -71.2 0 0 113.74 121.23
  Q 116.03 122.33 120.03 123.27
  Q 121.14 123.54 125.89 125.72
  C 129.73 127.49 128.70 130.35 126.87 133.17
  Q 124.70 136.52 122.86 140.72
  A 1.76 1.76 0.0 0 1 120.06 141.30
  Q 112.12 133.99 110.20 132.33
  C 108.61 130.94 107.44 131.21 105.78 132.43
  Q 99.28 137.21 94.59 142.37
  A 1.49 1.48 56.8 0 1 92.09 141.84
  Q 89.46 133.99 89.37 133.88
  A 7.29 4.80 58.2 0 0 88.70 133.12
  Z"
/>
<path fill="#56ccfe" d="
  M 280.17 102.84
  C 285.10 103.83 290.45 108.73 293.14 112.66
  C 300.07 122.80 296.97 137.34 285.69 142.87
  Q 278.35 146.48 271.69 145.15
  Q 265.04 143.82 259.65 137.66
  C 251.37 128.20 254.11 113.59 264.42 106.90
  C 268.41 104.32 275.24 101.85 280.17 102.84
  Z
  M 273.64 110.29
  Q 277.96 115.24 274.96 122.29
  A 1.77 1.74 84.2 0 1 274.32 123.09
  Q 272.94 124.04 269.15 124.64
  Q 263.71 125.49 262.85 130.46
  Q 262.45 132.78 264.33 133.53
  A 2.42 2.18 -63.5 0 0 267.11 132.44
  Q 269.49 128.45 269.74 128.09
  A 3.61 3.44 -1.0 0 1 270.53 127.31
  C 277.75 122.28 280.95 137.62 289.65 131.20
  A 1.12 1.12 0.0 0 0 289.14 129.18
  C 286.04 128.76 280.47 127.70 278.91 124.85
  A 2.10 2.10 0.0 0 1 278.64 123.82
  Q 278.65 119.48 279.67 115.27
  Q 280.36 112.42 278.76 111.14
  A 0.93 0.92 71.9 0 0 278.45 110.98
  L 274.14 109.54
  A 0.47 0.47 0.0 0 0 273.64 110.29
  Z"
/>
<path fill="#000000" d="
  M 273.64 110.29
  A 0.47 0.47 0.0 0 1 274.14 109.54
  L 278.45 110.98
  A 0.93 0.92 71.9 0 1 278.76 111.14
  Q 280.36 112.42 279.67 115.27
  Q 278.65 119.48 278.64 123.82
  A 2.10 2.10 0.0 0 0 278.91 124.85
  C 280.47 127.70 286.04 128.76 289.14 129.18
  A 1.12 1.12 0.0 0 1 289.65 131.20
  C 280.95 137.62 277.75 122.28 270.53 127.31
  A 3.61 3.44 -1.0 0 0 269.74 128.09
  Q 269.49 128.45 267.11 132.44
  A 2.42 2.18 -63.5 0 1 264.33 133.53
  Q 262.45 132.78 262.85 130.46
  Q 263.71 125.49 269.15 124.64
  Q 272.94 124.04 274.32 123.09
  A 1.77 1.74 84.2 0 0 274.96 122.29
  Q 277.96 115.24 273.64 110.29
  Z"
/>
<path fill="#037ffc" d="
  M 355.63 139.13
  L 355.62 143.92
  A 0.53 0.53 0.0 0 0 356.45 144.36
  L 357.39 143.71
  L 357.71 144.54
  Q 357.65 144.94 357.92 145.31
  Q 359.57 153.75 360.98 162.25
  C 367.98 204.61 357.77 248.37 333.99 283.76
  Q 320.95 303.18 301.12 320.14
  Q 296.98 323.68 292.96 326.40
  C 289.35 328.84 285.85 331.73 281.73 334.19
  Q 260.98 346.60 237.69 353.44
  Q 237.68 353.59 237.08 353.71
  L 234.64 354.99
  C 232.71 354.86 231.88 351.25 231.42 349.82
  A 1.54 1.53 69.4 0 1 232.27 347.93
  Q 253.04 339.09 273.11 331.91
  Q 273.66 331.72 273.61 331.14
  Q 273.57 330.64 272.90 330.72
  Q 275.77 328.86 274.06 329.46
  Q 279.99 327.02 281.48 325.99
  Q 298.30 314.36 312.09 299.57
  C 330.73 279.59 343.82 254.15 350.92 227.69
  C 353.99 216.23 354.38 206.88 354.83 194.17
  C 355.19 184.21 353.23 168.72 353.14 160.25
  Q 353.04 151.72 355.63 139.13
  Z"
/>
<path fill="#56ccfe" d="
  M 357.25 142.53
  L 357.39 143.71
  L 356.45 144.36
  A 0.53 0.53 0.0 0 1 355.62 143.92
  L 355.63 139.13
  L 357.25 142.53
  Z"
/>
<path fill="#037ffc" d="
  M 28.82 144.29
  Q 30.77 158.13 29.48 172.25
  Q 27.20 197.04 30.91 220.66
  C 33.14 234.78 39.33 250.61 45.62 263.08
  C 59.24 290.06 79.35 310.11 103.74 327.50
  Q 104.41 327.97 106.21 328.89
  Q 105.95 328.81 105.72 329.05
  A 0.43 0.43 0.0 0 0 105.89 329.76
  Q 107.23 330.23 108.05 330.95
  Q 110.15 332.75 112.61 333.41
  Q 122.95 336.19 130.71 339.65
  C 137.12 342.51 142.36 344.21 148.03 346.46
  Q 151.14 347.70 152.83 349.83
  A 0.65 0.65 0.0 0 1 152.83 350.65
  L 149.07 355.30
  Q 146.05 353.24 143.50 352.48
  Q 121.67 346.00 102.43 334.38
  C 97.71 331.52 93.69 328.21 89.72 325.61
  C 84.19 321.98 79.20 317.07 72.55 310.85
  Q 61.72 300.73 51.40 285.88
  Q 39.53 268.81 31.89 248.66
  Q 28.33 239.26 25.54 227.26
  Q 19.89 202.97 21.51 178.25
  C 22.15 168.54 23.64 160.88 25.65 148.38
  Q 26.07 145.73 26.72 144.44
  Q 27.55 142.79 27.53 141.40
  A 0.37 0.36 19.7 0 1 28.13 141.12
  Q 29.16 141.99 28.82 144.29
  Z"
/>
<path fill="#000000" d="
  M 357.92 145.31
  Q 357.65 144.94 357.71 144.54
  Q 358.17 144.13 357.92 145.31
  Z"
/>
<path fill="#000000" d="
  M 185.14 246.81
  A 0.56 0.56 0.0 0 1 185.13 247.75
  Q 182.93 249.13 180.72 250.97
  C 172.92 257.48 162.20 266.57 152.98 265.80
  Q 140.63 264.78 138.88 264.73
  C 132.97 264.56 128.72 262.49 125.62 258.10
  Q 118.15 247.56 119.52 234.24
  C 119.80 231.50 120.79 229.35 122.89 227.38
  Q 125.64 224.79 129.98 219.96
  Q 131.46 218.30 133.59 219.68
  Q 142.70 225.57 151.11 230.42
  Q 153.68 231.91 158.95 237.15
  C 159.98 238.18 161.47 238.94 162.97 239.52
  Q 171.55 242.82 179.97 245.41
  C 181.42 245.85 183.87 245.97 185.14 246.81
  Z
  M 167.23 251.10
  C 167.64 248.00 163.88 245.67 161.48 244.08
  C 157.28 241.31 152.70 238.33 149.28 237.96
  Q 145.03 237.50 138.99 237.95
  C 134.21 238.31 128.59 240.93 128.54 246.20
  Q 128.50 249.33 130.55 251.19
  Q 139.17 259.05 150.17 260.08
  Q 155.50 260.57 159.01 258.90
  C 162.36 257.30 166.77 254.51 167.23 251.10
  Z"
/>
<path fill="#000000" d="
  M 199.15 248.02
  A 0.81 0.81 0.0 0 1 199.59 246.86
  L 220.22 239.65
  A 10.15 9.95 16.4 0 0 222.98 238.18
  C 225.43 236.35 228.54 233.19 231.76 231.11
  Q 239.53 226.09 250.81 219.23
  A 1.86 1.85 51.9 0 1 253.08 219.51
  Q 259.62 226.08 261.45 228.06
  Q 264.23 231.05 264.46 236.01
  C 264.97 246.94 259.82 263.61 246.80 264.82
  C 239.38 265.51 231.95 266.67 225.74 265.52
  Q 223.32 265.07 219.15 262.59
  Q 211.54 258.06 201.53 250.07
  C 201.01 249.66 199.63 248.88 199.15 248.02
  Z
  M 236.41 237.71
  Q 232.62 238.31 231.54 238.53
  Q 230.32 238.78 224.71 241.94
  Q 223.83 242.44 220.98 244.80
  C 218.52 246.84 216.22 248.30 215.02 250.77
  A 1.90 1.88 -56.8 0 0 215.48 253.01
  Q 219.02 256.06 223.63 257.97
  C 229.39 260.36 237.35 259.12 243.55 256.69
  C 249.92 254.19 253.16 249.32 254.16 242.95
  A 1.82 1.82 0.0 0 0 253.21 241.05
  C 248.22 238.42 242.03 236.82 236.41 237.71
  Z"
/>
<path fill="#dc2a00" d="
  M 236.41 237.71
  C 242.03 236.82 248.22 238.42 253.21 241.05
  A 1.82 1.82 0.0 0 1 254.16 242.95
  C 253.16 249.32 249.92 254.19 243.55 256.69
  C 237.35 259.12 229.39 260.36 223.63 257.97
  Q 219.02 256.06 215.48 253.01
  A 1.90 1.88 -56.8 0 1 215.02 250.77
  C 216.22 248.30 218.52 246.84 220.98 244.80
  Q 223.83 242.44 224.71 241.94
  Q 230.32 238.78 231.54 238.53
  Q 232.62 238.31 236.41 237.71
  Z"
/>
<path fill="#dc2a00" d="
  M 167.23 251.10
  C 166.77 254.51 162.36 257.30 159.01 258.90
  Q 155.50 260.57 150.17 260.08
  Q 139.17 259.05 130.55 251.19
  Q 128.50 249.33 128.54 246.20
  C 128.59 240.93 134.21 238.31 138.99 237.95
  Q 145.03 237.50 149.28 237.96
  C 152.70 238.33 157.28 241.31 161.48 244.08
  C 163.88 245.67 167.64 248.00 167.23 251.10
  Z"
/>
<path fill="#000000" d="
  M 191.05 255.73
  A 0.46 0.46 0.0 0 1 191.93 255.64
  Q 197.88 269.37 204.30 281.59
  C 206.23 285.26 203.00 289.46 200.23 291.70
  A 2.10 2.10 0.0 0 1 197.03 291.01
  Q 195.66 288.26 192.96 286.28
  A 1.81 1.77 62.2 0 0 191.87 285.93
  C 189.03 285.98 187.61 288.41 186.43 290.77
  A 1.67 1.67 0.0 0 1 184.14 291.48
  Q 181.37 289.98 179.34 287.56
  A 1.52 1.50 24.0 0 1 178.98 286.64
  Q 178.85 283.78 180.10 281.10
  Q 183.93 272.90 188.01 264.76
  Q 190.02 260.73 191.05 255.73
  Z"
/>
<path fill="#fefefe" d="
  M 274.06 329.46
  Q 275.77 328.86 272.90 330.72
  L 265.72 332.75
  A 4.10 4.00 -49.5 0 1 264.18 332.89
  C 246.64 331.27 231.92 319.77 223.98 304.59
  C 223.49 303.67 222.58 302.87 222.43 302.52
  A 1.01 0.99 47.4 0 1 222.46 301.66
  Q 222.82 300.98 228.59 296.87
  Q 235.38 292.03 243.63 291.24
  A 1.73 1.73 0.0 0 1 245.53 292.98
  Q 245.37 306.86 254.67 317.34
  Q 263.12 326.85 274.06 329.46
  Z"
/>
<path fill="#fefefe" d="
  M 108.05 330.95
  Q 107.23 330.23 105.89 329.76
  A 0.43 0.43 0.0 0 1 105.72 329.05
  Q 105.95 328.81 106.21 328.89
  Q 109.01 329.51 111.20 328.95
  C 122.52 326.07 131.89 316.66 136.11 305.86
  Q 137.22 303.01 139.33 292.78
  A 1.18 1.16 -9.0 0 1 139.90 292.01
  Q 140.87 291.46 142.89 291.89
  Q 153.00 294.07 160.80 300.67
  A 0.82 0.82 0.0 0 1 161.03 301.62
  Q 157.04 311.07 148.88 319.40
  Q 146.31 322.03 143.70 323.61
  C 132.45 330.43 121.21 335.34 108.05 330.95
  Z"
/>
<path fill="#fefefe" d="
  M 152.91 323.10
  A 0.91 0.91 0.0 0 1 152.30 321.55
  Q 160.33 313.48 162.72 303.28
  A 1.12 1.12 0.0 0 1 164.53 302.69
  L 170.05 307.39
  A 1.45 1.45 0.0 0 1 170.22 309.44
  Q 169.52 310.27 169.01 313.35
  A 4.85 4.82 68.6 0 1 168.11 315.43
  Q 162.08 323.43 152.91 323.10
  Z"
/>
<path fill="#fefefe" d="
  M 203.00 311.23
  L 209.25 310.58
  A 1.44 1.39 23.0 0 0 209.95 310.31
  L 220.00 302.95
  A 0.90 0.90 0.0 0 1 221.42 303.52
  C 222.73 310.94 226.83 316.13 231.65 322.41
  A 0.79 0.79 0.0 0 1 231.24 323.65
  C 228.86 324.33 222.47 321.38 220.68 320.42
  Q 215.59 317.67 214.43 311.95
  A 1.69 1.68 0.3 0 0 213.13 310.64
  L 212.69 310.55
  A 0.56 0.56 0.0 0 0 212.03 311.21
  Q 213.32 317.84 212.44 325.04
  A 0.92 0.91 -89.2 0 1 211.62 325.84
  C 203.66 326.66 205.86 318.53 203.06 314.25
  Q 202.51 313.41 202.43 311.89
  A 0.64 0.63 86.2 0 1 203.00 311.23
  Z"
/>
<path fill="#fefefe" d="
  M 180.73 310.65
  A 0.26 0.26 0.0 0 1 180.94 310.95
  L 180.24 314.99
  A 10.96 2.56 -80.1 0 1 175.83 325.34
  L 171.95 324.67
  A 10.96 2.56 -80.1 0 1 171.31 313.43
  L 172.02 309.39
  A 0.26 0.26 0.0 0 1 172.32 309.18
  L 180.73 310.65
  Z"
/>
<path fill="#fefefe" d="
  M 183.05 312.20
  A 1.64 1.64 0.0 0 1 184.76 310.63
  L 188.42 310.79
  A 2.27 1.49 2.5 0 1 190.62 312.38
  L 190.19 322.39
  A 2.27 1.49 2.5 0 1 187.86 323.78
  L 184.19 323.62
  A 1.64 1.64 0.0 0 1 182.62 321.91
  L 183.05 312.20
  Z"
/>
<path fill="#fefefe" d="
  M 201.21 311.06
  A 0.22 0.22 0.0 0 1 201.43 311.28
  L 201.43 311.37
  A 12.35 2.05 88.9 0 1 199.62 323.76
  L 195.12 323.84
  A 12.35 2.05 88.9 0 1 192.84 311.53
  L 192.83 311.44
  A 0.22 0.22 0.0 0 1 193.05 311.22
  L 201.21 311.06
  Z"
/>
<path fill="#fefefe" d="
  M 227.45 347.62
  A 1.79 1.79 0.0 0 1 225.63 349.59
  L 213.06 349.26
  A 1.65 1.65 0.0 0 1 211.46 347.37
  C 211.70 345.75 213.85 344.38 215.14 343.22
  A 1.82 1.81 -14.5 0 0 215.69 342.29
  Q 216.14 340.32 217.75 333.78
  Q 218.32 331.49 218.00 323.17
  A 0.61 0.60 88.6 0 1 218.59 322.54
  C 224.66 322.40 226.92 336.45 227.04 340.74
  Q 227.15 344.73 227.45 347.62
  Z"
/>
<path fill="#fefefe" d="
  M 171.55 348.49
  A 0.31 0.30 59.1 0 1 171.41 349.06
  Q 169.66 349.14 161.34 349.63
  Q 158.75 349.78 156.76 348.74
  A 1.01 0.98 -77.1 0 1 156.23 347.87
  Q 156.13 338.95 158.30 330.84
  C 159.44 326.59 161.37 324.23 165.32 323.06
  A 0.56 0.55 -6.9 0 1 166.03 323.61
  L 165.75 332.26
  A 0.67 0.55 39.1 0 0 165.80 332.50
  C 167.00 335.62 167.04 339.23 168.44 342.33
  C 169.83 345.40 170.73 348.00 171.55 348.49
  Z"
/>
<path fill="#fefefe" d="
  M 189.20 332.18
  C 189.47 334.12 189.68 336.61 190.41 338.76
  Q 191.73 342.65 192.06 345.22
  A 1.45 1.45 0.0 0 1 190.62 346.86
  L 183.51 346.86
  A 1.52 1.50 -18.2 0 1 182.30 346.26
  C 179.36 342.25 181.78 336.17 183.48 331.93
  A 1.08 1.08 0.0 0 1 184.48 331.25
  L 188.13 331.25
  A 1.08 1.08 0.0 0 1 189.20 332.18
  Z"
/>
<path fill="#fefefe" d="
  M 202.80 345.50
  C 206.32 341.84 205.98 334.76 212.05 334.62
  A 0.64 0.64 0.0 0 1 212.70 335.22
  Q 213.07 341.78 210.25 347.60
  A 0.93 0.91 -76.2 0 1 209.39 348.13
  L 204.30 347.95
  A 1.00 0.92 58.6 0 1 203.88 347.83
  L 202.46 347.01
  A 0.82 0.76 59.8 0 0 202.10 346.90
  L 193.57 346.71
  A 0.91 0.90 2.4 0 1 192.68 345.75
  C 192.94 341.01 193.54 335.92 195.44 331.78
  A 0.94 0.93 -77.7 0 1 196.29 331.23
  L 199.74 331.23
  A 1.83 1.82 -6.3 0 1 201.52 332.65
  Q 203.15 339.81 202.23 345.22
  A 0.33 0.33 0.0 0 0 202.80 345.50
  Z"
/>
<path fill="#fefefe" d="
  M 172.14 348.03
  Q 172.42 346.46 171.02 340.04
  Q 170.89 339.44 171.81 335.00
  A 0.73 0.73 0.0 0 1 172.51 334.42
  C 174.66 334.36 176.45 335.45 177.06 337.95
  Q 177.90 341.41 180.73 345.60
  A 1.73 1.72 -17.0 0 1 179.30 348.29
  L 172.36 348.29
  A 0.23 0.22 -85.6 0 1 172.14 348.03
  Z"
/>
<path fill="#fefefe" d="
  M 228.78 350.63
  A 0.85 0.84 -20.1 0 1 229.76 351.08
  Q 231.72 355.09 230.33 359.07
  Q 227.36 367.62 218.63 369.86
  Q 191.85 376.72 165.11 369.65
  C 156.83 367.46 151.30 361.32 153.31 352.40
  A 2.04 2.04 0.0 0 1 155.41 350.81
  C 161.43 351.14 167.51 351.01 173.62 349.95
  Q 185.17 347.94 191.50 348.10
  Q 199.28 348.30 211.45 350.25
  Q 216.75 351.10 220.07 351.12
  Q 226.86 351.16 228.78 350.63
  Z"
/>
<path fill="#000000" d="
  M 237.69 353.44
  Q 237.82 353.69 237.08 353.71
  Q 237.68 353.59 237.69 353.44
  Z"
/>
</svg>
