<?xml version="1.0" encoding="UTF-8" standalone="no"?>
<!DOCTYPE svg PUBLIC "-//W3C//DTD SVG 1.1//EN" "http://www.w3.org/Graphics/SVG/1.1/DTD/svg11.dtd">
<svg xmlns="http://www.w3.org/2000/svg" version="1.1" viewBox="0.00 0.00 221.00 221.00">
<g stroke-width="2.00" fill="none" stroke-linecap="butt">
<path stroke="#120f10" vector-effect="non-scaling-stroke" d="
  M 163.93 157.76
  Q 160.60 159.77 156.66 160.85
  Q 152.60 161.96 154.58 165.84
  Q 155.27 167.20 156.19 167.03
  A 0.59 0.59 0.0 0 1 156.85 167.39
  L 157.95 170.04
  A 0.51 0.44 -59.2 0 1 157.98 170.21
  L 158.30 178.87
  A 0.55 0.55 0.0 0 1 157.59 179.42
  Q 156.15 179.01 154.20 179.35
  A 4.76 4.73 -33.4 0 1 150.78 178.66
  L 146.49 175.88"
/>
<path stroke="#8c1c2e" vector-effect="non-scaling-stroke" d="
  M 146.49 175.88
  Q 146.32 174.33 146.09 174.25
  Q 144.78 173.77 143.20 173.80
  Q 98.68 174.68 70.32 173.60
  C 67.51 173.49 63.19 173.11 59.29 172.40
  C 56.72 171.93 52.10 172.35 49.58 170.78
  A 1.79 1.70 63.7 0 0 48.87 170.52
  L 36.54 168.89
  A 0.23 0.23 0.0 0 1 36.53 168.43
  Q 38.46 168.09 39.76 168.31
  C 43.48 168.94 47.79 168.64 51.81 169.77
  A 3.59 3.38 50.6 0 0 52.82 169.90
  Q 65.59 169.79 76.07 170.97
  C 81.64 171.60 87.15 171.07 93.00 171.05
  Q 116.52 170.99 141.25 171.40
  Q 142.74 171.43 145.29 171.16
  A 0.87 0.86 -4.6 0 0 146.06 170.26
  L 146.06 170.22
  A 0.85 0.85 0.0 0 0 145.20 169.41
  Q 120.69 169.79 92.06 169.70
  C 81.95 169.67 70.68 168.92 62.85 168.89
  C 59.10 168.87 55.89 168.12 52.23 168.15
  C 46.49 168.19 40.01 166.90 34.05 166.08"
/>
<path stroke="#120f10" vector-effect="non-scaling-stroke" d="
  M 34.05 166.08
  Q 34.94 166.15 35.71 165.23"
/>
<path stroke="#120f10" vector-effect="non-scaling-stroke" d="
  M 47.73 91.48
  L 49.07 91.41
  A 0.43 0.43 0.0 0 0 49.12 90.56
  Q 36.81 88.32 24.68 82.77
  Q 21.13 81.15 19.21 78.95
  A 0.27 0.27 0.0 0 1 19.47 78.51
  Q 36.34 81.68 38.58 81.69
  Q 49.27 81.72 55.64 80.88
  Q 64.73 79.67 76.35 74.37
  A 1.04 1.03 -40.0 0 1 77.34 74.45
  L 78.59 75.27
  A 0.73 0.72 39.0 0 1 78.71 76.39
  L 72.98 82.05
  A 6.61 6.49 10.4 0 1 70.98 83.40
  Q 67.28 85.02 62.58 85.88
  A 0.78 0.70 -31.0 0 0 62.18 87.19
  Q 62.29 87.27 62.46 87.59"
/>
<path stroke="#8f8c8d" vector-effect="non-scaling-stroke" d="
  M 62.46 87.59
  Q 63.35 88.01 65.26 87.88"
/>
<path stroke="#120f10" vector-effect="non-scaling-stroke" d="
  M 65.26 87.88
  Q 74.52 88.85 82.12 82.13
  Q 83.54 80.88 91.21 73.15
  C 95.12 69.22 98.97 66.76 103.42 63.78
  C 107.72 60.90 108.37 57.67 114.27 57.65
  A 0.13 0.13 0.0 0 1 114.35 57.88
  L 109.94 61.78
  A 0.77 0.77 0.0 0 0 109.70 62.57
  Q 110.19 64.43 111.57 64.60
  A 1.39 1.28 -47.5 0 0 112.15 64.55
  L 123.80 61.01
  A 1.44 1.44 0.0 0 1 125.58 61.93
  C 127.20 66.76 131.90 69.11 137.25 72.72
  Q 140.25 74.74 139.62 78.15
  A 1.16 1.15 -24.1 0 1 139.46 78.56
  L 135.97 83.88
  A 1.11 1.11 0.0 0 0 137.24 85.54
  Q 141.82 84.05 144.92 79.34"
/>
<path stroke="#8f8c8d" vector-effect="non-scaling-stroke" d="
  M 144.92 79.34
  Q 145.09 79.73 145.24 79.77"
/>
<path stroke="#120f10" vector-effect="non-scaling-stroke" d="
  M 145.24 79.77
  Q 147.17 90.40 140.49 98.68"
/>
<path stroke="#8c1c2e" vector-effect="non-scaling-stroke" d="
  M 140.49 98.68
  Q 139.79 97.87 138.75 97.85"
/>
<path stroke="#120f10" vector-effect="non-scaling-stroke" d="
  M 138.75 97.85
  L 136.25 88.75
  A 1.02 0.97 -88.7 0 0 135.63 88.07
  C 132.20 86.81 128.49 86.01 125.84 83.31
  Q 123.82 81.25 122.57 78.71"
/>
<path stroke="#8f8c8d" vector-effect="non-scaling-stroke" d="
  M 122.57 78.71
  L 115.03 69.65"
/>
<path stroke="#120f10" vector-effect="non-scaling-stroke" d="
  M 115.03 69.65
  Q 114.98 73.75 115.39 75.58
  C 116.55 80.75 119.67 84.61 115.65 89.66
  Q 114.06 91.66 110.62 95.09
  A 1.03 1.03 0.0 0 0 110.77 96.68
  Q 116.78 100.75 121.18 107.14"
/>
<path stroke="#8f1a21" vector-effect="non-scaling-stroke" d="
  M 121.18 107.14
  L 100.82 113.84
  A 0.40 0.40 0.0 0 1 100.42 113.16
  Q 104.91 109.09 110.38 107.33
  A 0.52 0.52 0.0 0 0 110.28 106.31
  L 101.70 105.38
  A 1.90 1.62 -42.5 0 0 101.17 105.40
  Q 96.99 106.12 96.03 106.51
  Q 93.64 107.46 87.99 110.46
  A 0.15 0.15 0.0 0 1 87.80 110.42
  L 87.63 110.23
  A 0.40 0.39 48.5 0 1 87.66 109.67
  L 94.41 103.72
  A 4.76 4.74 64.5 0 0 95.95 99.35
  L 95.51 96.84
  A 1.19 1.18 56.7 0 0 93.35 96.39
  L 86.92 106.18
  A 0.90 0.85 -9.7 0 1 86.77 106.38
  Q 81.50 111.84 80.55 112.79
  C 77.05 116.28 75.50 120.04 74.27 124.53
  Q 71.74 133.77 69.52 145.01
  A 0.82 0.82 0.0 0 0 70.23 145.98
  L 70.27 145.99
  A 1.06 1.06 0.0 0 0 71.40 145.25
  Q 73.06 139.79 73.92 134.69
  Q 74.13 133.45 76.80 125.49
  C 78.17 121.42 80.60 117.96 83.00 115.25
  A 0.75 0.75 0.0 0 1 84.29 115.56
  Q 85.75 121.10 90.33 124.35
  A 0.44 0.43 -70.4 0 0 91.01 124.02
  Q 91.14 122.04 90.01 119.98
  A 0.44 0.44 0.0 0 1 90.72 119.48
  C 96.30 125.77 94.36 132.46 91.24 139.38
  A 0.60 0.59 22.1 0 0 91.58 140.18
  Q 91.79 140.26 92.15 140.13
  Q 92.74 139.93 93.14 139.56
  Q 95.36 137.54 95.63 138.51
  A 0.43 0.43 0.0 0 1 95.48 138.98
  L 90.49 142.71
  A 0.09 0.09 0.0 0 0 90.46 142.82
  L 90.53 143.12
  A 0.29 0.29 0.0 0 0 90.91 143.32
  L 103.32 138.98
  A 0.74 0.74 0.0 0 1 104.28 139.50
  Q 104.49 140.31 105.51 140.09
  Q 111.94 138.74 117.79 136.36
  A 0.34 0.34 0.0 0 1 118.22 136.82
  Q 117.13 139.03 114.01 141.50
  A 0.56 0.56 0.0 0 0 114.57 142.45
  L 121.54 139.56
  A 1.60 1.51 -83.1 0 0 122.25 138.97
  L 126.35 132.71
  A 0.32 0.31 -26.6 0 1 126.93 132.90
  L 126.72 136.21
  A 0.92 0.92 0.0 0 0 128.25 136.95
  Q 136.51 129.49 142.53 122.03
  Q 143.01 121.43 144.70 118.02
  A 0.38 0.37 -73.2 0 1 145.08 117.81
  L 145.38 117.85
  A 0.50 0.49 15.9 0 1 145.77 118.54
  Q 144.60 121.16 143.79 123.74
  A 0.51 0.46 -80.3 0 0 144.21 124.40
  Q 144.54 124.40 144.82 124.07
  Q 146.78 121.68 148.29 118.72
  A 0.76 0.75 -57.9 0 1 149.41 118.46
  Q 149.67 118.66 149.76 119.10
  Q 150.20 121.33 150.55 125.51
  A 0.38 0.38 0.0 0 0 151.07 125.83
  Q 151.50 125.66 151.65 125.14
  Q 153.25 119.85 154.30 114.55
  Q 154.40 114.00 155.35 112.46
  A 0.30 0.30 0.0 0 1 155.90 112.60
  L 156.15 117.38
  A 0.23 0.23 0.0 0 0 156.60 117.42
  L 159.65 103.06"
/>
<path stroke="#120f10" vector-effect="non-scaling-stroke" d="
  M 159.65 103.06
  L 161.72 100.44
  A 0.65 0.64 41.1 0 1 162.68 100.38
  L 164.29 101.95
  A 0.41 0.41 0.0 0 0 164.58 102.07
  Q 165.21 102.06 165.73 101.25"
/>
<path stroke="#8f1a21" vector-effect="non-scaling-stroke" d="
  M 165.73 101.25
  C 168.82 108.21 172.48 115.33 173.40 122.82
  Q 174.04 127.96 172.83 133.15
  A 0.33 0.32 50.2 0 1 172.19 133.09
  L 171.94 128.29
  A 0.43 0.43 0.0 0 0 171.26 127.96
  Q 170.52 128.49 169.55 128.64
  A 1.11 1.10 -86.6 0 0 168.66 129.44
  Q 168.27 130.94 168.21 131.51
  C 167.90 134.15 166.32 136.76 164.72 139.20
  A 0.70 0.70 0.0 0 0 165.09 140.24
  Q 167.44 141.02 169.61 140.14
  A 0.48 0.48 0.0 0 1 170.15 140.90
  Q 168.03 143.38 167.56 145.09
  A 0.42 0.42 0.0 0 0 168.27 145.49
  C 173.52 140.04 177.22 135.35 177.12 128.31
  Q 177.08 124.97 175.34 118.51"
/>
<path stroke="#120f10" vector-effect="non-scaling-stroke" d="
  M 175.34 118.51
  L 177.14 116.09"
/>
<path stroke="#8f8c8d" vector-effect="non-scaling-stroke" d="
  M 177.14 116.09
  L 184.77 66.55
  A 1.26 1.21 71.7 0 1 185.06 65.94
  Q 190.41 59.88 186.07 52.38
  Q 185.90 52.07 182.92 47.84
  Q 182.88 47.77 182.84 47.70
  L 180.49 42.78
  A 1.22 1.21 34.2 0 0 178.18 43.22
  L 177.93 47.20
  A 0.18 0.18 0.0 0 1 177.72 47.37
  L 177.40 47.33
  A 0.36 0.35 2.9 0 1 177.09 46.99
  L 176.87 42.76
  A 1.86 1.86 0.0 0 0 175.69 41.12
  L 175.44 41.02
  A 1.29 1.29 0.0 0 0 173.72 42.08
  Q 173.25 45.98 172.77 46.93
  A 0.36 0.36 0.0 0 1 172.09 46.77
  L 172.07 41.63
  A 1.80 1.79 -1.2 0 0 170.19 39.84
  L 170.05 39.85
  A 1.85 1.84 0.2 0 0 168.27 41.61
  L 168.07 46.31
  A 0.34 0.34 0.0 0 1 167.41 46.42
  Q 166.72 44.57 166.85 42.71
  A 2.25 2.16 -57.9 0 0 166.61 41.55
  L 165.31 39.09
  A 1.28 1.28 0.0 0 0 163.42 38.66
  Q 163.33 38.72 163.16 39.25"
/>
<path stroke="#120f10" vector-effect="non-scaling-stroke" d="
  M 163.16 39.25
  L 162.24 39.99"
/>
<path stroke="#828282" vector-effect="non-scaling-stroke" d="
  M 177.14 116.09
  Q 175.85 105.80 177.47 95.50
  Q 178.32 90.12 178.16 84.85
  A 0.36 0.36 0.0 0 0 177.45 84.81
  Q 174.59 103.21 173.96 107.26
  Q 173.93 107.44 173.94 107.94
  Q 173.95 108.36 173.77 108.07
  Q 171.55 104.43 170.33 100.27
  A 4.61 4.54 42.0 0 1 170.21 98.29
  C 171.71 89.32 174.28 81.29 178.35 67.71
  A 1.02 1.02 0.0 0 1 179.39 66.98
  L 181.48 67.11
  A 0.19 0.18 4.9 0 0 181.68 66.95
  L 181.74 66.49
  A 0.34 0.33 8.5 0 0 181.45 66.11
  L 179.46 65.85
  A 0.58 0.58 0.0 0 1 179.34 64.72
  L 184.21 63.01
  A 0.35 0.35 0.0 0 0 184.17 62.33
  C 178.91 61.18 172.01 60.60 168.62 56.15
  Q 166.81 53.78 165.08 51.93
  A 0.40 0.39 58.6 0 1 165.23 51.28
  L 166.83 50.72
  A 0.29 0.29 0.0 0 0 166.90 50.21
  L 166.45 49.92
  A 1.01 0.96 -83.7 0 1 166.04 49.38
  C 164.82 45.82 163.27 43.70 163.16 39.25"
/>
<path stroke="#821016" vector-effect="non-scaling-stroke" d="
  M 175.34 118.51
  Q 174.65 116.51 173.78 114.62
  Q 171.37 109.45 169.04 104.22
  C 167.11 99.90 166.21 95.74 167.03 90.52
  Q 167.71 86.24 168.17 82.41
  A 0.53 0.53 0.0 0 0 167.50 81.84
  L 167.40 81.87
  A 1.32 1.31 -4.5 0 0 166.46 82.96
  Q 166.27 84.50 165.79 86.02
  C 164.31 90.71 164.62 96.52 165.73 101.25"
/>
<path stroke="#821016" vector-effect="non-scaling-stroke" d="
  M 159.65 103.06
  L 148.83 106.18
  A 0.10 0.10 0.0 0 1 148.76 106.00
  L 158.90 101.12
  A 1.94 1.94 0.0 0 0 160.01 99.45
  Q 160.15 96.35 162.09 94.88
  A 1.26 1.23 74.1 0 0 162.59 93.96
  L 162.68 92.57
  A 0.39 0.39 0.0 0 0 162.09 92.21
  C 159.51 93.73 158.80 96.18 157.83 98.18
  A 3.16 3.16 0.0 0 1 156.35 99.66
  L 144.00 105.60
  A 0.66 0.66 0.0 0 0 143.65 106.02
  L 141.19 115.86
  A 0.80 0.79 -65.5 0 1 139.96 116.32
  Q 139.45 115.96 139.15 115.98
  A 1.35 1.35 0.0 0 0 138.29 116.36
  Q 133.49 121.06 127.25 123.30
  A 0.35 0.35 0.0 0 1 126.94 122.67
  L 129.60 121.00
  A 1.12 1.04 -80.7 0 0 129.82 120.83
  L 136.07 114.99
  A 0.46 0.46 0.0 0 0 135.87 114.20
  L 135.62 114.14
  A 1.53 1.48 38.2 0 0 134.61 114.24
  L 129.88 116.51
  A 0.42 0.42 0.0 0 1 129.42 115.81
  Q 130.72 114.69 130.65 114.57
  Q 130.21 113.79 129.31 113.94
  Q 119.45 115.60 113.01 116.22
  A 0.34 0.34 0.0 0 1 112.87 115.56
  L 133.21 108.45
  A 0.53 0.52 -35.7 0 0 133.36 107.54
  Q 132.93 107.21 132.16 107.12
  Q 127.03 106.53 121.18 107.14"
/>
<path stroke="#828282" vector-effect="non-scaling-stroke" d="
  M 115.03 69.65
  Q 116.39 76.30 122.57 78.71"
/>
<path stroke="#7f1323" vector-effect="non-scaling-stroke" d="
  M 138.75 97.85
  Q 136.95 97.69 135.97 98.62
  A 0.61 0.61 0.0 0 0 136.17 99.63
  Q 139.26 100.85 140.49 98.68"
/>
<path stroke="#828282" vector-effect="non-scaling-stroke" d="
  M 145.24 79.77
  C 146.80 77.55 143.62 73.24 141.98 71.86
  Q 136.54 67.25 128.02 63.50
  A 0.35 0.35 0.0 0 0 127.54 63.74
  L 127.45 64.09
  A 0.25 0.25 0.0 0 0 127.56 64.37
  Q 135.74 69.29 138.93 72.38
  Q 142.88 76.21 139.66 80.98
  Q 137.92 83.56 137.72 84.14
  A 0.28 0.28 0.0 0 0 138.14 84.46
  Q 142.88 81.35 142.91 76.00
  A 0.34 0.34 0.0 0 1 143.51 75.78
  Q 144.84 77.33 144.92 79.34"
/>
<path stroke="#828282" vector-effect="non-scaling-stroke" d="
  M 65.26 87.88
  Q 71.75 86.63 77.22 83.55
  Q 81.44 81.18 86.48 76.00
  C 92.81 69.49 99.09 64.00 106.59 59.48
  A 0.04 0.04 0.0 0 0 106.61 59.42
  L 106.48 59.19
  A 0.24 0.24 0.0 0 0 106.16 59.10
  Q 97.92 63.54 91.98 69.00
  Q 85.83 74.64 83.16 76.39
  Q 82.09 77.09 75.42 81.03
  A 0.04 0.04 0.0 0 0 75.41 81.08
  L 75.60 81.28
  A 0.33 0.33 0.0 0 0 76.02 81.35
  L 82.72 77.49
  A 0.14 0.13 -36.7 0 1 82.88 77.51
  L 83.05 77.71
  A 0.35 0.35 0.0 0 1 83.01 78.21
  Q 73.96 85.52 62.46 87.59"
/>
<path stroke="#7f1323" vector-effect="non-scaling-stroke" d="
  M 126.24 56.56
  Q 126.22 57.22 126.39 57.44
  A 0.28 0.28 0.0 0 0 126.90 57.29
  Q 126.92 56.97 126.71 56.72"
/>
<path stroke="#7f1323" vector-effect="non-scaling-stroke" d="
  M 34.05 166.08
  L 20.45 164.78
  A 0.19 0.19 0.0 0 0 20.36 165.14
  Q 27.13 168.07 34.24 169.75
  Q 46.66 172.67 56.27 173.67
  C 64.86 174.55 73.14 175.87 81.71 175.90
  Q 113.88 176.05 146.49 175.88"
/>
<path stroke="#8c1c2e" vector-effect="non-scaling-stroke" d="
  M 184.04 45.04
  L 184.29 47.76
  A 0.30 0.30 0.0 0 0 184.62 48.03
  L 184.81 48.02
  A 1.45 1.35 -5.3 0 0 186.13 46.54
  L 186.07 45.90
  A 1.45 1.35 -5.3 0 0 184.50 44.69
  L 184.31 44.71
  A 0.30 0.30 0.0 0 0 184.04 45.04"
/>
<path stroke="#8c1c2e" vector-effect="non-scaling-stroke" d="
  M 190.0998 46.4720
  A 0.80 0.80 0.0 0 0 189.2943 45.6776
  L 188.5943 45.6825
  A 0.80 0.80 0.0 0 0 187.7999 46.4881
  L 187.8202 49.3880
  A 0.80 0.80 0.0 0 0 188.6257 50.1824
  L 189.3257 50.1775
  A 0.80 0.80 0.0 0 0 190.1201 49.3719
  L 190.0998 46.4720"
/>
<path stroke="#8c1c2e" vector-effect="non-scaling-stroke" d="
  M 196.36 47.13
  Q 196.85 47.45 196.31 48.31
  A 1.13 1.12 48.4 0 0 196.25 49.41
  Q 196.89 50.70 198.74 49.95
  A 1.20 1.20 0.0 0 0 199.49 48.68
  L 199.21 46.31
  A 0.75 0.74 -88.4 0 0 198.61 45.67
  Q 197.26 45.40 196.29 46.33
  A 0.52 0.51 40.2 0 0 196.36 47.13"
/>
<path stroke="#8c1c2e" vector-effect="non-scaling-stroke" d="
  M 194.2982 46.8241
  A 1.10 1.10 0.0 0 0 193.1188 45.8097
  L 192.9393 45.8232
  A 1.10 1.10 0.0 0 0 191.9249 47.0025
  L 192.1018 49.3559
  A 1.10 1.10 0.0 0 0 193.2812 50.3703
  L 193.4607 50.3568
  A 1.10 1.10 0.0 0 0 194.4751 49.1775
  L 194.2982 46.8241"
/>
<path stroke="#8f8c8d" vector-effect="non-scaling-stroke" d="
  M 105.2869 74.0922
  A 4.31 0.75 -76.9 0 0 103.5795 78.1200
  A 4.31 0.75 -76.9 0 0 103.3331 82.4878
  A 4.31 0.75 -76.9 0 0 105.0405 78.4600
  A 4.31 0.75 -76.9 0 0 105.2869 74.0922"
/>
<path stroke="#8f8c8d" vector-effect="non-scaling-stroke" d="
  M 107.81 100.12
  A 0.38 0.38 0.0 0 0 107.87 99.50
  Q 104.48 96.49 105.05 93.51
  Q 105.41 91.59 105.08 89.80
  A 0.86 0.86 0.0 0 1 106.54 89.03
  L 108.00 90.49
  A 0.71 0.70 17.0 0 0 109.19 89.86
  C 108.32 85.34 103.88 86.37 103.36 90.11
  Q 102.56 95.93 106.79 100.22
  A 0.56 0.55 -36.9 0 0 107.47 100.31
  L 107.81 100.12"
/>
<path stroke="#8c1c2e" vector-effect="non-scaling-stroke" d="
  M 106.6744 93.5193
  A 1.63 0.59 -102.6 0 0 106.4542 95.2387
  A 1.63 0.59 -102.6 0 0 107.3856 96.7007
  A 1.63 0.59 -102.6 0 0 107.6058 94.9813
  A 1.63 0.59 -102.6 0 0 106.6744 93.5193"
/>
<path stroke="#8c1c2e" vector-effect="non-scaling-stroke" d="
  M 103.77 101.25
  A 0.32 0.32 0.0 0 0 104.13 100.74
  Q 101.42 97.85 100.13 94.43
  A 0.52 0.49 10.1 0 0 99.94 94.17
  Q 98.83 93.34 97.89 96.24
  A 2.93 2.90 -51.3 0 0 98.14 98.60
  L 98.61 99.41
  A 0.67 0.67 0.0 0 0 99.82 99.30
  Q 100.36 97.78 101.08 98.82
  Q 102.31 100.60 103.77 101.25"
/>
<path stroke="#8f1a21" vector-effect="non-scaling-stroke" d="
  M 155.31 135.95
  L 154.91 135.11
  A 0.31 0.31 0.0 0 0 154.37 135.08
  C 153.28 136.85 152.35 139.60 151.01 141.55
  Q 145.46 149.68 136.51 153.69
  C 133.40 155.09 130.71 156.35 127.56 155.86
  A 0.44 0.44 0.0 0 1 127.47 155.01
  Q 129.84 154.06 131.76 151.38
  A 0.48 0.47 -84.9 0 0 131.17 150.67
  L 128.27 152.06
  A 1.01 1.01 0.0 0 1 126.99 150.60
  L 129.07 147.43
  A 0.57 0.57 0.0 0 0 128.33 146.61
  C 110.36 156.14 90.62 154.91 71.21 149.15
  Q 66.23 147.67 62.68 147.33
  C 57.18 146.81 50.02 146.31 43.84 147.46
  Q 39.35 148.30 35.50 148.44
  A 2.56 2.56 0.0 0 0 34.12 148.91
  Q 33.20 149.58 31.69 149.95
  A 0.08 0.08 0.0 0 0 31.71 150.11
  C 37.68 150.14 42.51 150.22 48.70 151.14
  Q 52.15 151.65 61.01 152.68
  Q 63.99 153.03 79.88 157.10
  Q 82.10 157.67 84.81 157.88
  Q 100.73 159.11 116.77 158.99
  C 121.84 158.96 126.04 158.15 130.63 157.88
  C 133.65 157.70 140.41 156.09 143.63 153.79
  C 148.89 150.02 152.40 145.46 155.69 140.02
  A 0.52 0.52 0.0 0 1 156.66 140.29
  Q 156.66 143.34 156.85 143.93
  A 0.28 0.28 0.0 0 0 157.39 143.91
  L 159.39 135.89
  A 0.78 0.75 -3.3 0 1 159.87 135.37
  Q 161.91 134.67 161.85 132.00
  Q 161.57 118.93 161.66 113.38
  A 0.41 0.41 0.0 0 0 160.87 113.23
  Q 160.22 114.94 159.92 118.35
  A 3.03 2.55 -40.1 0 1 159.83 118.87
  L 155.56 135.93
  A 0.13 0.13 0.0 0 1 155.31 135.95"
/>
<path stroke="#8c1c2e" vector-effect="non-scaling-stroke" d="
  M 166.1786 149.7914
  A 3.00 0.90 -32.2 0 0 163.1604 150.6284
  A 3.00 0.90 -32.2 0 0 161.1014 152.9886
  A 3.00 0.90 -32.2 0 0 164.1196 152.1516
  A 3.00 0.90 -32.2 0 0 166.1786 149.7914"
/>
<path stroke="#7f1323" vector-effect="non-scaling-stroke" d="
  M 160.17 49.61
  A 0.66 0.66 0.0 0 0 161.45 49.82
  Q 162.80 46.45 161.21 41.86
  A 0.72 0.70 -5.6 0 0 160.61 41.38
  Q 158.50 41.14 157.28 41.56
  A 0.67 0.66 77.7 0 0 156.83 42.27
  L 157.26 45.71
  A 0.91 0.90 -4.6 0 0 158.18 46.49
  L 158.21 46.49
  A 0.77 0.76 88.1 0 0 158.94 45.70
  L 158.85 42.25
  A 0.38 0.37 -2.4 0 1 159.21 41.87
  L 159.51 41.86
  A 0.25 0.25 0.0 0 1 159.78 42.10
  L 160.17 49.61"
/>
<path stroke="#7f1323" vector-effect="non-scaling-stroke" d="
  M 151.70 43.04
  Q 151.28 43.00 150.47 42.94
  Q 138.82 42.16 135.50 42.14
  Q 112.34 41.97 101.25 41.94
  Q 96.63 41.92 73.77 42.81
  Q 73.18 42.84 73.18 42.83
  Q 72.94 42.52 72.80 42.82
  A 0.77 0.77 0.0 0 1 72.15 43.27
  Q 64.53 43.82 57.25 44.22
  Q 54.63 44.37 51.27 45.11
  C 48.17 45.79 45.57 45.95 42.74 46.15
  Q 39.50 46.37 24.75 51.00
  Q 24.63 51.03 20.16 53.77
  A 0.23 0.23 0.0 0 0 20.32 54.20
  L 32.13 52.16
  A 1.02 0.95 -47.0 0 1 32.27 52.15
  L 42.08 51.90"
/>
<path stroke="#120f10" vector-effect="non-scaling-stroke" d="
  M 42.08 51.90
  Q 45.98 51.93 50.04 50.39
  A 0.20 0.19 -16.4 0 0 50.17 50.16
  Q 50.15 50.12 50.02 50.02
  A 0.33 0.33 0.0 0 1 49.99 49.51
  Q 50.31 49.22 50.38 48.83"
/>
<path stroke="#7f1323" vector-effect="non-scaling-stroke" d="
  M 50.38 48.83
  L 65.03 47.44
  A 1.75 0.97 -17.1 0 0 65.27 47.39
  C 70.99 45.65 80.52 45.73 93.33 45.38
  Q 97.19 45.27 98.61 45.09
  C 103.24 44.47 107.50 45.49 111.78 45.37
  C 120.75 45.13 128.58 45.72 139.10 45.90
  Q 145.28 46.01 151.74 46.72
  Q 152.33 46.78 153.22 46.11"
/>
<path stroke="#821016" vector-effect="non-scaling-stroke" d="
  M 153.22 46.11
  Q 153.66 46.18 154.01 45.96
  A 0.25 0.25 0.0 0 1 154.38 46.13
  L 154.57 47.20
  A 0.61 0.61 0.0 0 0 155.65 47.48
  Q 156.50 46.43 155.96 42.43
  A 0.47 0.47 0.0 0 0 155.32 42.06
  Q 154.04 42.59 154.14 43.62
  A 0.48 0.47 12.9 0 1 153.42 44.07
  L 151.70 43.04"
/>
<path stroke="#fc1e34" vector-effect="non-scaling-stroke" d="
  M 153.22 46.11
  Q 153.28 44.88 151.70 43.04"
/>
<path stroke="#8c1c2e" vector-effect="non-scaling-stroke" d="
  M 50.38 48.83
  Q 46.71 49.39 43.13 50.11
  Q 41.72 50.40 42.08 51.90"
/>
<path stroke="#120f10" vector-effect="non-scaling-stroke" d="
  M 152.1900 48.1228
  A 0.32 0.32 0.0 0 0 151.8705 47.8022
  L 114.9506 47.7378
  A 0.32 0.32 0.0 0 0 114.6300 48.0572
  L 114.6300 48.0772
  A 0.32 0.32 0.0 0 0 114.9495 48.3978
  L 151.8694 48.4622
  A 0.32 0.32 0.0 0 0 152.1900 48.1428
  L 152.1900 48.1228"
/>
<path stroke="#7f1323" vector-effect="non-scaling-stroke" d="
  M 163.65 49.50
  Q 163.68 49.35 163.44 48.77
  A 0.17 0.17 0.0 0 0 163.11 48.85
  L 163.13 49.46
  A 0.26 0.26 0.0 0 0 163.65 49.50"
/>
<path stroke="#828282" vector-effect="non-scaling-stroke" d="
  M 164.83 51.02
  Q 164.98 50.88 164.67 50.64
  A 0.18 0.18 0.0 0 0 164.37 50.80
  Q 164.40 51.04 164.73 51.06
  A 0.15 0.13 20.8 0 0 164.83 51.02"
/>
<path stroke="#828282" vector-effect="non-scaling-stroke" d="
  M 80.13 74.39
  C 85.52 72.36 90.20 67.67 95.70 63.23
  C 101.40 58.62 108.50 55.62 115.76 55.92
  Q 121.68 56.18 121.79 56.19
  A 0.20 0.13 -24.8 0 0 121.97 55.90
  Q 121.85 55.88 121.65 56.00
  Q 116.89 53.57 111.55 54.17
  C 102.91 55.15 95.76 59.47 89.82 65.44
  C 86.53 68.76 83.43 71.24 79.90 73.97
  A 0.24 0.24 0.0 0 0 80.13 74.39"
/>
<path stroke="#828282" vector-effect="non-scaling-stroke" d="
  M 116.48 59.09
  Q 113.31 60.21 111.64 62.38
  A 0.53 0.53 0.0 0 0 112.32 63.16
  Q 114.20 62.15 117.19 61.09
  Q 120.18 60.03 122.28 59.64
  A 0.53 0.53 0.0 0 0 122.31 58.61
  Q 119.65 57.97 116.48 59.09"
/>
<path stroke="#828282" vector-effect="non-scaling-stroke" d="
  M 173.9275 72.1713
  A 5.71 0.83 -72.6 0 0 171.4280 77.3718
  A 5.71 0.83 -72.6 0 0 170.5125 83.0687
  A 5.71 0.83 -72.6 0 0 173.0120 77.8682
  A 5.71 0.83 -72.6 0 0 173.9275 72.1713"
/>
<path stroke="#828282" vector-effect="non-scaling-stroke" d="
  M 123.76 82.69
  L 116.83 77.20
  A 0.11 0.11 0.0 0 0 116.67 77.22
  L 116.65 77.25
  A 4.40 1.11 38.4 0 0 119.41 80.85
  L 119.61 81.01
  A 4.40 1.11 38.4 0 0 123.75 82.88
  L 123.77 82.85
  A 0.11 0.11 0.0 0 0 123.76 82.69"
/>
<path stroke="#828282" vector-effect="non-scaling-stroke" d="
  M 119.68 84.34
  C 119.37 86.63 119.92 88.89 117.05 90.23
  A 2.17 2.15 -81.5 0 0 116.34 90.76
  L 113.01 94.55
  A 1.31 1.31 0.0 0 0 114.06 96.72
  L 115.24 96.66
  A 0.85 0.84 -11.1 0 1 116.08 97.22
  C 116.70 99.02 119.34 103.64 121.30 103.87
  C 123.88 104.16 128.92 104.67 129.96 101.92
  A 0.67 0.66 -72.8 0 0 129.50 101.04
  L 122.85 99.38
  A 1.00 0.94 -11.2 0 1 122.37 99.08
  L 119.88 96.26
  A 0.75 0.75 0.0 0 1 120.40 95.01
  L 124.26 94.81
  A 0.31 0.30 -33.6 0 0 124.38 94.23
  Q 120.70 92.52 117.11 92.15
  A 0.55 0.55 0.0 0 1 117.04 91.07
  C 121.05 90.08 124.54 92.25 128.15 94.38
  C 129.78 95.34 131.09 95.56 132.95 95.40
  A 0.66 0.65 -57.1 0 1 133.22 96.67
  Q 132.18 97.05 131.54 97.74
  A 0.95 0.94 -33.2 0 0 131.34 98.67
  C 131.92 100.57 132.79 103.71 130.55 104.65
  A 0.34 0.34 0.0 0 0 130.67 105.30
  L 133.72 105.42
  A 0.63 0.63 0.0 0 0 134.38 104.78
  Q 134.38 104.74 134.16 102.25
  C 133.90 99.35 135.10 97.25 137.61 95.61
  A 0.56 0.54 70.9 0 0 137.85 95.10
  Q 137.82 94.68 137.05 94.49
  A 1.09 1.08 2.1 0 1 136.24 93.62
  L 135.79 91.03
  A 2.65 2.64 0.5 0 0 133.67 88.88
  Q 126.07 87.47 120.37 84.01
  A 0.46 0.46 0.0 0 0 119.68 84.34"
/>
<path stroke="#7f1323" vector-effect="non-scaling-stroke" d="
  M 122.88 96.27
  Q 122.86 96.22 122.46 96.11
  A 0.46 0.46 0.0 0 0 122.03 96.90
  Q 124.57 99.09 128.58 99.09
  A 0.18 0.18 0.0 0 0 128.74 98.82
  L 127.60 96.84
  A 0.55 0.54 73.9 0 0 127.14 96.58
  L 123.56 96.63
  A 0.77 0.59 -9.3 0 1 122.88 96.27"
/>
<path stroke="#8f1a21" vector-effect="non-scaling-stroke" d="
  M 123.68 120.02
  Q 121.10 120.18 118.31 120.98
  C 114.41 122.10 111.79 122.28 107.43 123.33
  C 106.08 123.66 99.12 124.35 99.01 124.59
  A 0.58 0.55 -73.5 0 0 99.41 125.37
  C 107.12 126.73 116.66 123.80 123.78 120.41
  A 0.21 0.21 0.0 0 0 123.68 120.02"
/>
<path stroke="#8f1a21" vector-effect="non-scaling-stroke" d="
  M 105.69 138.54
  Q 105.21 138.54 105.09 138.67
  A 0.31 0.23 17.7 0 0 105.38 139.07
  Q 105.49 139.07 105.79 138.87
  A 0.18 0.18 0.0 0 0 105.69 138.54"
/>
<path stroke="#828282" vector-effect="non-scaling-stroke" d="
  M 170.63 165.84
  L 171.19 176.70
  A 0.47 0.47 0.0 0 0 172.01 176.98
  C 173.37 175.38 173.34 170.19 173.29 168.56
  A 0.52 0.52 0.0 0 1 174.29 168.36
  Q 175.77 172.10 173.93 175.70
  A 0.85 0.85 0.0 0 0 175.16 176.79
  C 177.76 175.01 177.19 170.76 176.55 167.29
  A 1.13 1.12 4.8 0 0 175.83 166.45
  Q 173.33 165.54 171.48 163.52
  Q 171.07 163.07 170.44 163.09
  Q 170.08 163.10 169.26 163.60
  A 0.35 0.34 -10.6 0 1 168.74 163.25
  Q 169.07 161.34 164.88 161.88
  C 162.17 162.23 161.51 159.75 158.40 162.28
  A 0.78 0.78 0.0 0 1 157.72 162.44
  Q 156.76 162.23 156.75 162.23
  A 1.91 1.85 -35.7 0 0 156.11 165.78
  Q 156.31 165.87 157.48 165.09
  A 0.81 0.81 0.0 0 1 158.74 165.72
  L 158.86 167.92
  A 0.95 0.95 0.0 0 0 159.34 168.71
  Q 159.98 169.08 160.14 169.41
  A 1.25 1.22 41.3 0 1 160.21 170.33
  Q 159.07 173.77 159.95 177.07
  A 1.36 1.36 0.0 0 0 162.40 177.46
  C 164.48 174.28 164.05 169.70 163.69 165.86
  A 0.37 0.36 -4.4 0 1 164.04 165.46
  L 164.40 165.44
  A 0.47 0.46 85.6 0 1 164.89 165.87
  L 165.67 176.32
  A 2.37 2.37 0.0 0 0 167.65 178.48
  L 167.77 178.50
  A 1.61 1.60 -83.5 0 0 169.66 176.99
  Q 169.70 176.12 169.46 171.05
  Q 169.37 169.22 170.25 165.80
  A 0.19 0.19 0.0 0 1 170.63 165.84"
/>
<path stroke="#7f1323" vector-effect="non-scaling-stroke" d="
  M 178.35 170.85
  Q 178.35 171.48 179.75 171.50
  Q 190.50 171.68 203.38 171.54
  A 1.28 1.26 -63.2 0 0 204.09 171.30
  Q 204.18 171.24 204.25 171.18
  A 0.76 0.75 41.1 0 1 205.07 171.13
  Q 205.69 171.46 206.37 171.08
  A 0.17 0.02 -82.2 0 0 206.41 170.93
  Q 206.41 170.90 206.41 170.87
  Q 206.41 170.84 206.41 170.81
  A 0.17 0.02 82.3 0 0 206.37 170.66
  Q 205.69 170.28 205.07 170.61
  A 0.76 0.75 -41.0 0 1 204.25 170.56
  Q 204.18 170.50 204.09 170.44
  A 1.28 1.26 63.2 0 0 203.38 170.20
  Q 190.50 170.04 179.76 170.21
  Q 178.35 170.23 178.35 170.85"
/>
<path stroke="#120f10" vector-effect="non-scaling-stroke" d="
  M 160.2300 179.9060
  A 1.14 0.29 -179.8 0 0 161.3690 180.2000
  A 1.14 0.29 -179.8 0 0 162.5100 179.9140
  A 1.14 0.29 -179.8 0 0 161.3710 179.6200
  A 1.14 0.29 -179.8 0 0 160.2300 179.9060"
/>
<path stroke="#828282" vector-effect="non-scaling-stroke" d="
  M 162.2793 182.7508
  A 0.27 0.27 0.0 0 0 162.0989 182.4143
  L 154.7084 180.1829
  A 0.27 0.27 0.0 0 0 154.3719 180.3634
  L 154.1407 181.1292
  A 0.27 0.27 0.0 0 0 154.3211 181.4657
  L 161.7116 183.6971
  A 0.27 0.27 0.0 0 0 162.0481 183.5166
  L 162.2793 182.7508"
/>
</g>
<path fill="#1e181a" d="
  M 163.93 157.76
  Q 160.60 159.77 156.66 160.85
  Q 152.60 161.96 154.58 165.84
  Q 155.27 167.20 156.19 167.03
  A 0.59 0.59 0.0 0 1 156.85 167.39
  L 157.95 170.04
  A 0.51 0.44 -59.2 0 1 157.98 170.21
  L 158.30 178.87
  A 0.55 0.55 0.0 0 1 157.59 179.42
  Q 156.15 179.01 154.20 179.35
  A 4.76 4.73 -33.4 0 1 150.78 178.66
  L 146.49 175.88
  Q 146.32 174.33 146.09 174.25
  Q 144.78 173.77 143.20 173.80
  Q 98.68 174.68 70.32 173.60
  C 67.51 173.49 63.19 173.11 59.29 172.40
  C 56.72 171.93 52.10 172.35 49.58 170.78
  A 1.79 1.70 63.7 0 0 48.87 170.52
  L 36.54 168.89
  A 0.23 0.23 0.0 0 1 36.53 168.43
  Q 38.46 168.09 39.76 168.31
  C 43.48 168.94 47.79 168.64 51.81 169.77
  A 3.59 3.38 50.6 0 0 52.82 169.90
  Q 65.59 169.79 76.07 170.97
  C 81.64 171.60 87.15 171.07 93.00 171.05
  Q 116.52 170.99 141.25 171.40
  Q 142.74 171.43 145.29 171.16
  A 0.87 0.86 -4.6 0 0 146.06 170.26
  L 146.06 170.22
  A 0.85 0.85 0.0 0 0 145.20 169.41
  Q 120.69 169.79 92.06 169.70
  C 81.95 169.67 70.68 168.92 62.85 168.89
  C 59.10 168.87 55.89 168.12 52.23 168.15
  C 46.49 168.19 40.01 166.90 34.05 166.08
  Q 34.94 166.15 35.71 165.23
  L 67.06 167.94
  A 0.40 0.39 -1.1 0 0 67.49 167.50
  L 66.26 157.26
  A 1.43 1.42 2.3 0 0 65.14 156.05
  Q 55.64 154.04 43.73 153.32
  Q 31.89 152.60 22.97 153.01
  A 0.46 0.46 0.0 0 1 22.68 152.18
  Q 30.53 146.38 40.19 145.21
  Q 43.83 144.76 54.22 144.12
  Q 54.31 144.12 54.40 144.12
  L 65.97 145.25
  A 0.97 0.97 0.0 0 0 67.02 144.47
  Q 70.47 126.98 73.45 118.78
  Q 74.45 116.02 77.41 112.66
  Q 81.15 108.42 85.07 104.54
  A 6.42 6.21 -7.2 0 0 85.93 103.47
  Q 88.52 99.45 90.12 96.86
  Q 92.33 93.29 95.48 93.70
  A 0.81 0.80 -63.7 0 0 96.15 93.47
  L 99.46 90.16
  A 5.09 5.05 69.6 0 0 100.93 86.92
  L 101.32 80.77
  A 0.52 0.52 0.0 0 0 100.32 80.54
  C 99.22 83.31 95.09 86.33 92.62 87.58
  Q 88.47 89.67 86.42 91.01
  C 78.51 96.17 70.35 98.82 60.75 97.88
  A 0.38 0.38 0.0 0 1 60.73 97.12
  Q 67.60 96.10 73.67 92.66
  A 0.42 0.42 0.0 0 0 73.58 91.90
  Q 72.61 91.61 71.57 91.90
  Q 61.56 94.70 53.48 94.98
  Q 48.38 95.15 40.90 93.39
  A 0.03 0.01 22.5 0 1 40.88 93.37
  L 40.87 93.11
  A 0.08 0.08 0.0 0 1 40.95 93.03
  L 47.98 93.03
  A 0.56 0.56 0.0 0 0 48.36 92.06
  L 47.73 91.48
  L 49.07 91.41
  A 0.43 0.43 0.0 0 0 49.12 90.56
  Q 36.81 88.32 24.68 82.77
  Q 21.13 81.15 19.21 78.95
  A 0.27 0.27 0.0 0 1 19.47 78.51
  Q 36.34 81.68 38.58 81.69
  Q 49.27 81.72 55.64 80.88
  Q 64.73 79.67 76.35 74.37
  A 1.04 1.03 -40.0 0 1 77.34 74.45
  L 78.59 75.27
  A 0.73 0.72 39.0 0 1 78.71 76.39
  L 72.98 82.05
  A 6.61 6.49 10.4 0 1 70.98 83.40
  Q 67.28 85.02 62.58 85.88
  A 0.78 0.70 -31.0 0 0 62.18 87.19
  Q 62.29 87.27 62.46 87.59
  Q 63.35 88.01 65.26 87.88
  Q 74.52 88.85 82.12 82.13
  Q 83.54 80.88 91.21 73.15
  C 95.12 69.22 98.97 66.76 103.42 63.78
  C 107.72 60.90 108.37 57.67 114.27 57.65
  A 0.13 0.13 0.0 0 1 114.35 57.88
  L 109.94 61.78
  A 0.77 0.77 0.0 0 0 109.70 62.57
  Q 110.19 64.43 111.57 64.60
  A 1.39 1.28 -47.5 0 0 112.15 64.55
  L 123.80 61.01
  A 1.44 1.44 0.0 0 1 125.58 61.93
  C 127.20 66.76 131.90 69.11 137.25 72.72
  Q 140.25 74.74 139.62 78.15
  A 1.16 1.15 -24.1 0 1 139.46 78.56
  L 135.97 83.88
  A 1.11 1.11 0.0 0 0 137.24 85.54
  Q 141.82 84.05 144.92 79.34
  Q 145.09 79.73 145.24 79.77
  Q 147.17 90.40 140.49 98.68
  Q 139.79 97.87 138.75 97.85
  L 136.25 88.75
  A 1.02 0.97 -88.7 0 0 135.63 88.07
  C 132.20 86.81 128.49 86.01 125.84 83.31
  Q 123.82 81.25 122.57 78.71
  L 115.03 69.65
  Q 114.98 73.75 115.39 75.58
  C 116.55 80.75 119.67 84.61 115.65 89.66
  Q 114.06 91.66 110.62 95.09
  A 1.03 1.03 0.0 0 0 110.77 96.68
  Q 116.78 100.75 121.18 107.14
  L 100.82 113.84
  A 0.40 0.40 0.0 0 1 100.42 113.16
  Q 104.91 109.09 110.38 107.33
  A 0.52 0.52 0.0 0 0 110.28 106.31
  L 101.70 105.38
  A 1.90 1.62 -42.5 0 0 101.17 105.40
  Q 96.99 106.12 96.03 106.51
  Q 93.64 107.46 87.99 110.46
  A 0.15 0.15 0.0 0 1 87.80 110.42
  L 87.63 110.23
  A 0.40 0.39 48.5 0 1 87.66 109.67
  L 94.41 103.72
  A 4.76 4.74 64.5 0 0 95.95 99.35
  L 95.51 96.84
  A 1.19 1.18 56.7 0 0 93.35 96.39
  L 86.92 106.18
  A 0.90 0.85 -9.7 0 1 86.77 106.38
  Q 81.50 111.84 80.55 112.79
  C 77.05 116.28 75.50 120.04 74.27 124.53
  Q 71.74 133.77 69.52 145.01
  A 0.82 0.82 0.0 0 0 70.23 145.98
  L 70.27 145.99
  A 1.06 1.06 0.0 0 0 71.40 145.25
  Q 73.06 139.79 73.92 134.69
  Q 74.13 133.45 76.80 125.49
  C 78.17 121.42 80.60 117.96 83.00 115.25
  A 0.75 0.75 0.0 0 1 84.29 115.56
  Q 85.75 121.10 90.33 124.35
  A 0.44 0.43 -70.4 0 0 91.01 124.02
  Q 91.14 122.04 90.01 119.98
  A 0.44 0.44 0.0 0 1 90.72 119.48
  C 96.30 125.77 94.36 132.46 91.24 139.38
  A 0.60 0.59 22.1 0 0 91.58 140.18
  Q 91.79 140.26 92.15 140.13
  Q 92.74 139.93 93.14 139.56
  Q 95.36 137.54 95.63 138.51
  A 0.43 0.43 0.0 0 1 95.48 138.98
  L 90.49 142.71
  A 0.09 0.09 0.0 0 0 90.46 142.82
  L 90.53 143.12
  A 0.29 0.29 0.0 0 0 90.91 143.32
  L 103.32 138.98
  A 0.74 0.74 0.0 0 1 104.28 139.50
  Q 104.49 140.31 105.51 140.09
  Q 111.94 138.74 117.79 136.36
  A 0.34 0.34 0.0 0 1 118.22 136.82
  Q 117.13 139.03 114.01 141.50
  A 0.56 0.56 0.0 0 0 114.57 142.45
  L 121.54 139.56
  A 1.60 1.51 -83.1 0 0 122.25 138.97
  L 126.35 132.71
  A 0.32 0.31 -26.6 0 1 126.93 132.90
  L 126.72 136.21
  A 0.92 0.92 0.0 0 0 128.25 136.95
  Q 136.51 129.49 142.53 122.03
  Q 143.01 121.43 144.70 118.02
  A 0.38 0.37 -73.2 0 1 145.08 117.81
  L 145.38 117.85
  A 0.50 0.49 15.9 0 1 145.77 118.54
  Q 144.60 121.16 143.79 123.74
  A 0.51 0.46 -80.3 0 0 144.21 124.40
  Q 144.54 124.40 144.82 124.07
  Q 146.78 121.68 148.29 118.72
  A 0.76 0.75 -57.9 0 1 149.41 118.46
  Q 149.67 118.66 149.76 119.10
  Q 150.20 121.33 150.55 125.51
  A 0.38 0.38 0.0 0 0 151.07 125.83
  Q 151.50 125.66 151.65 125.14
  Q 153.25 119.85 154.30 114.55
  Q 154.40 114.00 155.35 112.46
  A 0.30 0.30 0.0 0 1 155.90 112.60
  L 156.15 117.38
  A 0.23 0.23 0.0 0 0 156.60 117.42
  L 159.65 103.06
  L 161.72 100.44
  A 0.65 0.64 41.1 0 1 162.68 100.38
  L 164.29 101.95
  A 0.41 0.41 0.0 0 0 164.58 102.07
  Q 165.21 102.06 165.73 101.25
  C 168.82 108.21 172.48 115.33 173.40 122.82
  Q 174.04 127.96 172.83 133.15
  A 0.33 0.32 50.2 0 1 172.19 133.09
  L 171.94 128.29
  A 0.43 0.43 0.0 0 0 171.26 127.96
  Q 170.52 128.49 169.55 128.64
  A 1.11 1.10 -86.6 0 0 168.66 129.44
  Q 168.27 130.94 168.21 131.51
  C 167.90 134.15 166.32 136.76 164.72 139.20
  A 0.70 0.70 0.0 0 0 165.09 140.24
  Q 167.44 141.02 169.61 140.14
  A 0.48 0.48 0.0 0 1 170.15 140.90
  Q 168.03 143.38 167.56 145.09
  A 0.42 0.42 0.0 0 0 168.27 145.49
  C 173.52 140.04 177.22 135.35 177.12 128.31
  Q 177.08 124.97 175.34 118.51
  L 177.14 116.09
  L 184.77 66.55
  A 1.26 1.21 71.7 0 1 185.06 65.94
  Q 190.41 59.88 186.07 52.38
  Q 185.90 52.07 182.92 47.84
  Q 182.88 47.77 182.84 47.70
  L 180.49 42.78
  A 1.22 1.21 34.2 0 0 178.18 43.22
  L 177.93 47.20
  A 0.18 0.18 0.0 0 1 177.72 47.37
  L 177.40 47.33
  A 0.36 0.35 2.9 0 1 177.09 46.99
  L 176.87 42.76
  A 1.86 1.86 0.0 0 0 175.69 41.12
  L 175.44 41.02
  A 1.29 1.29 0.0 0 0 173.72 42.08
  Q 173.25 45.98 172.77 46.93
  A 0.36 0.36 0.0 0 1 172.09 46.77
  L 172.07 41.63
  A 1.80 1.79 -1.2 0 0 170.19 39.84
  L 170.05 39.85
  A 1.85 1.84 0.2 0 0 168.27 41.61
  L 168.07 46.31
  A 0.34 0.34 0.0 0 1 167.41 46.42
  Q 166.72 44.57 166.85 42.71
  A 2.25 2.16 -57.9 0 0 166.61 41.55
  L 165.31 39.09
  A 1.28 1.28 0.0 0 0 163.42 38.66
  Q 163.33 38.72 163.16 39.25
  L 162.24 39.99
  Q 161.83 40.14 162.10 39.26
  Q 162.67 37.33 164.57 37.47
  A 1.30 1.28 -22.7 0 1 165.31 37.77
  L 166.88 39.10
  A 1.68 1.68 0.0 0 0 167.87 39.49
  Q 168.54 39.52 169.05 39.13
  C 170.75 37.82 171.57 39.94 173.02 39.96
  Q 173.94 39.97 174.89 39.79
  A 1.49 1.48 -27.9 0 1 176.20 40.19
  Q 177.27 41.25 179.16 40.94
  A 1.37 1.30 -32.0 0 1 180.09 41.13
  L 182.49 42.71
  A 1.43 1.42 61.6 0 0 183.28 42.95
  Q 191.83 43.10 200.18 43.07
  Q 201.44 43.06 203.69 44.28
  A 2.85 2.84 84.2 0 1 204.52 44.96
  Q 207.67 48.78 204.01 51.96
  C 202.19 53.54 198.26 53.10 195.74 53.06
  A 4.38 4.25 53.0 0 1 194.58 52.88
  Q 192.18 52.19 189.03 52.46
  A 0.97 0.96 -13.4 0 0 188.21 53.78
  L 189.69 57.46
  A 4.55 4.46 -54.5 0 1 190.00 59.44
  Q 189.78 62.55 188.62 65.73
  C 185.67 73.77 184.88 82.77 183.90 91.24
  Q 183.25 96.78 184.05 102.76
  Q 185.94 116.82 187.38 125.29
  C 188.38 131.13 180.49 141.42 176.92 144.97
  Q 171.13 150.70 163.23 155.11
  A 1.24 1.24 0.0 0 0 163.13 157.22
  L 163.93 157.76
  Z
  M 184.04 45.04
  L 184.29 47.76
  A 0.30 0.30 0.0 0 0 184.62 48.03
  L 184.81 48.02
  A 1.45 1.35 -5.3 0 0 186.13 46.54
  L 186.07 45.90
  A 1.45 1.35 -5.3 0 0 184.50 44.69
  L 184.31 44.71
  A 0.30 0.30 0.0 0 0 184.04 45.04
  Z
  M 190.0998 46.4720
  A 0.80 0.80 0.0 0 0 189.2943 45.6776
  L 188.5943 45.6825
  A 0.80 0.80 0.0 0 0 187.7999 46.4881
  L 187.8202 49.3880
  A 0.80 0.80 0.0 0 0 188.6257 50.1824
  L 189.3257 50.1775
  A 0.80 0.80 0.0 0 0 190.1201 49.3719
  L 190.0998 46.4720
  Z
  M 196.36 47.13
  Q 196.85 47.45 196.31 48.31
  A 1.13 1.12 48.4 0 0 196.25 49.41
  Q 196.89 50.70 198.74 49.95
  A 1.20 1.20 0.0 0 0 199.49 48.68
  L 199.21 46.31
  A 0.75 0.74 -88.4 0 0 198.61 45.67
  Q 197.26 45.40 196.29 46.33
  A 0.52 0.51 40.2 0 0 196.36 47.13
  Z
  M 194.2982 46.8241
  A 1.10 1.10 0.0 0 0 193.1188 45.8097
  L 192.9393 45.8232
  A 1.10 1.10 0.0 0 0 191.9249 47.0025
  L 192.1018 49.3559
  A 1.10 1.10 0.0 0 0 193.2812 50.3703
  L 193.4607 50.3568
  A 1.10 1.10 0.0 0 0 194.4751 49.1775
  L 194.2982 46.8241
  Z
  M 105.2869 74.0922
  A 4.31 0.75 -76.9 0 0 103.5795 78.1200
  A 4.31 0.75 -76.9 0 0 103.3331 82.4878
  A 4.31 0.75 -76.9 0 0 105.0405 78.4600
  A 4.31 0.75 -76.9 0 0 105.2869 74.0922
  Z
  M 107.81 100.12
  A 0.38 0.38 0.0 0 0 107.87 99.50
  Q 104.48 96.49 105.05 93.51
  Q 105.41 91.59 105.08 89.80
  A 0.86 0.86 0.0 0 1 106.54 89.03
  L 108.00 90.49
  A 0.71 0.70 17.0 0 0 109.19 89.86
  C 108.32 85.34 103.88 86.37 103.36 90.11
  Q 102.56 95.93 106.79 100.22
  A 0.56 0.55 -36.9 0 0 107.47 100.31
  L 107.81 100.12
  Z
  M 106.6744 93.5193
  A 1.63 0.59 -102.6 0 0 106.4542 95.2387
  A 1.63 0.59 -102.6 0 0 107.3856 96.7007
  A 1.63 0.59 -102.6 0 0 107.6058 94.9813
  A 1.63 0.59 -102.6 0 0 106.6744 93.5193
  Z
  M 103.77 101.25
  A 0.32 0.32 0.0 0 0 104.13 100.74
  Q 101.42 97.85 100.13 94.43
  A 0.52 0.49 10.1 0 0 99.94 94.17
  Q 98.83 93.34 97.89 96.24
  A 2.93 2.90 -51.3 0 0 98.14 98.60
  L 98.61 99.41
  A 0.67 0.67 0.0 0 0 99.82 99.30
  Q 100.36 97.78 101.08 98.82
  Q 102.31 100.60 103.77 101.25
  Z
  M 155.31 135.95
  L 154.91 135.11
  A 0.31 0.31 0.0 0 0 154.37 135.08
  C 153.28 136.85 152.35 139.60 151.01 141.55
  Q 145.46 149.68 136.51 153.69
  C 133.40 155.09 130.71 156.35 127.56 155.86
  A 0.44 0.44 0.0 0 1 127.47 155.01
  Q 129.84 154.06 131.76 151.38
  A 0.48 0.47 -84.9 0 0 131.17 150.67
  L 128.27 152.06
  A 1.01 1.01 0.0 0 1 126.99 150.60
  L 129.07 147.43
  A 0.57 0.57 0.0 0 0 128.33 146.61
  C 110.36 156.14 90.62 154.91 71.21 149.15
  Q 66.23 147.67 62.68 147.33
  C 57.18 146.81 50.02 146.31 43.84 147.46
  Q 39.35 148.30 35.50 148.44
  A 2.56 2.56 0.0 0 0 34.12 148.91
  Q 33.20 149.58 31.69 149.95
  A 0.08 0.08 0.0 0 0 31.71 150.11
  C 37.68 150.14 42.51 150.22 48.70 151.14
  Q 52.15 151.65 61.01 152.68
  Q 63.99 153.03 79.88 157.10
  Q 82.10 157.67 84.81 157.88
  Q 100.73 159.11 116.77 158.99
  C 121.84 158.96 126.04 158.15 130.63 157.88
  C 133.65 157.70 140.41 156.09 143.63 153.79
  C 148.89 150.02 152.40 145.46 155.69 140.02
  A 0.52 0.52 0.0 0 1 156.66 140.29
  Q 156.66 143.34 156.85 143.93
  A 0.28 0.28 0.0 0 0 157.39 143.91
  L 159.39 135.89
  A 0.78 0.75 -3.3 0 1 159.87 135.37
  Q 161.91 134.67 161.85 132.00
  Q 161.57 118.93 161.66 113.38
  A 0.41 0.41 0.0 0 0 160.87 113.23
  Q 160.22 114.94 159.92 118.35
  A 3.03 2.55 -40.1 0 1 159.83 118.87
  L 155.56 135.93
  A 0.13 0.13 0.0 0 1 155.31 135.95
  Z
  M 166.1786 149.7914
  A 3.00 0.90 -32.2 0 0 163.1604 150.6284
  A 3.00 0.90 -32.2 0 0 161.1014 152.9886
  A 3.00 0.90 -32.2 0 0 164.1196 152.1516
  A 3.00 0.90 -32.2 0 0 166.1786 149.7914
  Z"
/>
<path fill="#ffffff" d="
  M 177.14 116.09
  Q 175.85 105.80 177.47 95.50
  Q 178.32 90.12 178.16 84.85
  A 0.36 0.36 0.0 0 0 177.45 84.81
  Q 174.59 103.21 173.96 107.26
  Q 173.93 107.44 173.94 107.94
  Q 173.95 108.36 173.77 108.07
  Q 171.55 104.43 170.33 100.27
  A 4.61 4.54 42.0 0 1 170.21 98.29
  C 171.71 89.32 174.28 81.29 178.35 67.71
  A 1.02 1.02 0.0 0 1 179.39 66.98
  L 181.48 67.11
  A 0.19 0.18 4.9 0 0 181.68 66.95
  L 181.74 66.49
  A 0.34 0.33 8.5 0 0 181.45 66.11
  L 179.46 65.85
  A 0.58 0.58 0.0 0 1 179.34 64.72
  L 184.21 63.01
  A 0.35 0.35 0.0 0 0 184.17 62.33
  C 178.91 61.18 172.01 60.60 168.62 56.15
  Q 166.81 53.78 165.08 51.93
  A 0.40 0.39 58.6 0 1 165.23 51.28
  L 166.83 50.72
  A 0.29 0.29 0.0 0 0 166.90 50.21
  L 166.45 49.92
  A 1.01 0.96 -83.7 0 1 166.04 49.38
  C 164.82 45.82 163.27 43.70 163.16 39.25
  Q 163.33 38.72 163.42 38.66
  A 1.28 1.28 0.0 0 1 165.31 39.09
  L 166.61 41.55
  A 2.25 2.16 -57.9 0 1 166.85 42.71
  Q 166.72 44.57 167.41 46.42
  A 0.34 0.34 0.0 0 0 168.07 46.31
  L 168.27 41.61
  A 1.85 1.84 0.2 0 1 170.05 39.85
  L 170.19 39.84
  A 1.80 1.79 -1.2 0 1 172.07 41.63
  L 172.09 46.77
  A 0.36 0.36 0.0 0 0 172.77 46.93
  Q 173.25 45.98 173.72 42.08
  A 1.29 1.29 0.0 0 1 175.44 41.02
  L 175.69 41.12
  A 1.86 1.86 0.0 0 1 176.87 42.76
  L 177.09 46.99
  A 0.36 0.35 2.9 0 0 177.40 47.33
  L 177.72 47.37
  A 0.18 0.18 0.0 0 0 177.93 47.20
  L 178.18 43.22
  A 1.22 1.21 34.2 0 1 180.49 42.78
  L 182.84 47.70
  Q 182.88 47.77 182.92 47.84
  Q 185.90 52.07 186.07 52.38
  Q 190.41 59.88 185.06 65.94
  A 1.26 1.21 71.7 0 0 184.77 66.55
  L 177.14 116.09
  Z"
/>
<path fill="#050505" d="
  M 163.16 39.25
  C 163.27 43.70 164.82 45.82 166.04 49.38
  A 1.01 0.96 -83.7 0 0 166.45 49.92
  L 166.90 50.21
  A 0.29 0.29 0.0 0 1 166.83 50.72
  L 165.23 51.28
  A 0.40 0.39 58.6 0 0 165.08 51.93
  Q 166.81 53.78 168.62 56.15
  C 172.01 60.60 178.91 61.18 184.17 62.33
  A 0.35 0.35 0.0 0 1 184.21 63.01
  L 179.34 64.72
  A 0.58 0.58 0.0 0 0 179.46 65.85
  L 181.45 66.11
  A 0.34 0.33 8.5 0 1 181.74 66.49
  L 181.68 66.95
  A 0.19 0.18 4.9 0 1 181.48 67.11
  L 179.39 66.98
  A 1.02 1.02 0.0 0 0 178.35 67.71
  C 174.28 81.29 171.71 89.32 170.21 98.29
  A 4.61 4.54 42.0 0 0 170.33 100.27
  Q 171.55 104.43 173.77 108.07
  Q 173.95 108.36 173.94 107.94
  Q 173.93 107.44 173.96 107.26
  Q 174.59 103.21 177.45 84.81
  A 0.36 0.36 0.0 0 1 178.16 84.85
  Q 178.32 90.12 177.47 95.50
  Q 175.85 105.80 177.14 116.09
  L 175.34 118.51
  Q 174.65 116.51 173.78 114.62
  Q 171.37 109.45 169.04 104.22
  C 167.11 99.90 166.21 95.74 167.03 90.52
  Q 167.71 86.24 168.17 82.41
  A 0.53 0.53 0.0 0 0 167.50 81.84
  L 167.40 81.87
  A 1.32 1.31 -4.5 0 0 166.46 82.96
  Q 166.27 84.50 165.79 86.02
  C 164.31 90.71 164.62 96.52 165.73 101.25
  Q 165.21 102.06 164.58 102.07
  A 0.41 0.41 0.0 0 1 164.29 101.95
  L 162.68 100.38
  A 0.65 0.64 41.1 0 0 161.72 100.44
  L 159.65 103.06
  L 148.83 106.18
  A 0.10 0.10 0.0 0 1 148.76 106.00
  L 158.90 101.12
  A 1.94 1.94 0.0 0 0 160.01 99.45
  Q 160.15 96.35 162.09 94.88
  A 1.26 1.23 74.1 0 0 162.59 93.96
  L 162.68 92.57
  A 0.39 0.39 0.0 0 0 162.09 92.21
  C 159.51 93.73 158.80 96.18 157.83 98.18
  A 3.16 3.16 0.0 0 1 156.35 99.66
  L 144.00 105.60
  A 0.66 0.66 0.0 0 0 143.65 106.02
  L 141.19 115.86
  A 0.80 0.79 -65.5 0 1 139.96 116.32
  Q 139.45 115.96 139.15 115.98
  A 1.35 1.35 0.0 0 0 138.29 116.36
  Q 133.49 121.06 127.25 123.30
  A 0.35 0.35 0.0 0 1 126.94 122.67
  L 129.60 121.00
  A 1.12 1.04 -80.7 0 0 129.82 120.83
  L 136.07 114.99
  A 0.46 0.46 0.0 0 0 135.87 114.20
  L 135.62 114.14
  A 1.53 1.48 38.2 0 0 134.61 114.24
  L 129.88 116.51
  A 0.42 0.42 0.0 0 1 129.42 115.81
  Q 130.72 114.69 130.65 114.57
  Q 130.21 113.79 129.31 113.94
  Q 119.45 115.60 113.01 116.22
  A 0.34 0.34 0.0 0 1 112.87 115.56
  L 133.21 108.45
  A 0.53 0.52 -35.7 0 0 133.36 107.54
  Q 132.93 107.21 132.16 107.12
  Q 127.03 106.53 121.18 107.14
  Q 116.78 100.75 110.77 96.68
  A 1.03 1.03 0.0 0 1 110.62 95.09
  Q 114.06 91.66 115.65 89.66
  C 119.67 84.61 116.55 80.75 115.39 75.58
  Q 114.98 73.75 115.03 69.65
  Q 116.39 76.30 122.57 78.71
  Q 123.82 81.25 125.84 83.31
  C 128.49 86.01 132.20 86.81 135.63 88.07
  A 1.02 0.97 -88.7 0 1 136.25 88.75
  L 138.75 97.85
  Q 136.95 97.69 135.97 98.62
  A 0.61 0.61 0.0 0 0 136.17 99.63
  Q 139.26 100.85 140.49 98.68
  Q 147.17 90.40 145.24 79.77
  C 146.80 77.55 143.62 73.24 141.98 71.86
  Q 136.54 67.25 128.02 63.50
  A 0.35 0.35 0.0 0 0 127.54 63.74
  L 127.45 64.09
  A 0.25 0.25 0.0 0 0 127.56 64.37
  Q 135.74 69.29 138.93 72.38
  Q 142.88 76.21 139.66 80.98
  Q 137.92 83.56 137.72 84.14
  A 0.28 0.28 0.0 0 0 138.14 84.46
  Q 142.88 81.35 142.91 76.00
  A 0.34 0.34 0.0 0 1 143.51 75.78
  Q 144.84 77.33 144.92 79.34
  Q 141.82 84.05 137.24 85.54
  A 1.11 1.11 0.0 0 1 135.97 83.88
  L 139.46 78.56
  A 1.16 1.15 -24.1 0 0 139.62 78.15
  Q 140.25 74.74 137.25 72.72
  C 131.90 69.11 127.20 66.76 125.58 61.93
  A 1.44 1.44 0.0 0 0 123.80 61.01
  L 112.15 64.55
  A 1.39 1.28 -47.5 0 1 111.57 64.60
  Q 110.19 64.43 109.70 62.57
  A 0.77 0.77 0.0 0 1 109.94 61.78
  L 114.35 57.88
  A 0.13 0.13 0.0 0 0 114.27 57.65
  C 108.37 57.67 107.72 60.90 103.42 63.78
  C 98.97 66.76 95.12 69.22 91.21 73.15
  Q 83.54 80.88 82.12 82.13
  Q 74.52 88.85 65.26 87.88
  Q 71.75 86.63 77.22 83.55
  Q 81.44 81.18 86.48 76.00
  C 92.81 69.49 99.09 64.00 106.59 59.48
  A 0.04 0.04 0.0 0 0 106.61 59.42
  L 106.48 59.19
  A 0.24 0.24 0.0 0 0 106.16 59.10
  Q 97.92 63.54 91.98 69.00
  Q 85.83 74.64 83.16 76.39
  Q 82.09 77.09 75.42 81.03
  A 0.04 0.04 0.0 0 0 75.41 81.08
  L 75.60 81.28
  A 0.33 0.33 0.0 0 0 76.02 81.35
  L 82.72 77.49
  A 0.14 0.13 -36.7 0 1 82.88 77.51
  L 83.05 77.71
  A 0.35 0.35 0.0 0 1 83.01 78.21
  Q 73.96 85.52 62.46 87.59
  Q 62.29 87.27 62.18 87.19
  A 0.78 0.70 -31.0 0 1 62.58 85.88
  Q 67.28 85.02 70.98 83.40
  A 6.61 6.49 10.4 0 0 72.98 82.05
  L 78.71 76.39
  A 0.73 0.72 39.0 0 0 78.59 75.27
  L 77.34 74.45
  A 1.04 1.03 -40.0 0 0 76.35 74.37
  Q 64.73 79.67 55.64 80.88
  Q 49.27 81.72 38.58 81.69
  Q 36.34 81.68 19.47 78.51
  A 0.27 0.27 0.0 0 0 19.21 78.95
  Q 21.13 81.15 24.68 82.77
  Q 36.81 88.32 49.12 90.56
  A 0.43 0.43 0.0 0 1 49.07 91.41
  L 47.73 91.48
  Q 35.81 90.12 24.97 85.12
  Q 16.01 80.98 12.30 72.37
  Q 10.39 67.93 13.61 63.15
  A 0.23 0.23 0.0 0 1 13.92 63.08
  L 13.93 63.09
  A 0.22 0.22 0.0 0 1 13.99 63.39
  Q 11.32 67.69 13.41 72.11
  A 2.67 2.57 -82.5 0 0 14.00 72.91
  Q 17.85 76.48 24.73 78.21
  A 0.52 0.52 0.0 0 0 25.33 77.50
  C 24.34 75.15 22.88 74.57 22.96 71.16
  A 0.33 0.33 0.0 0 1 23.51 70.92
  Q 23.64 71.05 23.88 72.57
  Q 24.02 73.44 24.48 73.95
  Q 28.70 78.61 33.86 79.41
  Q 49.29 81.79 66.06 76.94
  C 74.50 74.51 80.01 70.73 86.66 64.89
  C 91.17 60.93 95.59 57.17 100.71 54.80
  Q 106.96 51.92 116.75 52.03
  Q 123.15 52.11 126.24 56.56
  Q 126.22 57.22 126.39 57.44
  A 0.28 0.28 0.0 0 0 126.90 57.29
  Q 126.92 56.97 126.71 56.72
  Q 126.91 56.29 126.99 56.26
  A 0.70 0.69 -86.1 0 1 127.87 57.27
  L 125.96 60.20
  A 0.49 0.48 26.3 0 0 126.21 60.92
  Q 133.00 63.32 138.51 66.41
  Q 140.38 67.46 143.91 71.65
  C 147.44 75.86 147.75 80.26 146.89 86.08
  Q 145.58 94.88 141.83 98.81
  A 1.61 1.58 67.7 0 0 141.39 99.89
  Q 141.35 101.51 141.87 102.77
  A 1.07 1.06 -24.1 0 0 143.32 103.32
  L 154.43 97.98
  A 3.70 3.66 -1.7 0 0 156.25 96.07
  L 157.26 93.67
  A 2.39 2.37 82.3 0 1 158.00 92.69
  L 161.78 89.74
  A 2.11 2.10 79.2 0 0 162.51 88.66
  L 164.34 82.55
  A 0.87 0.80 -24.2 0 1 164.43 82.34
  Q 165.22 80.93 166.77 79.46
  C 169.32 77.06 170.37 73.47 170.96 70.42
  C 172.24 63.79 167.91 61.06 163.36 57.64
  Q 161.83 56.49 161.33 54.47
  A 0.89 0.88 79.6 0 0 160.37 53.80
  L 157.44 54.16
  A 0.93 0.93 0.0 0 1 156.41 53.35
  L 156.36 52.93
  A 1.29 1.28 7.3 0 0 155.54 51.88
  L 153.25 51.02
  A 4.72 4.68 -34.3 0 0 151.57 50.71
  Q 137.72 50.65 118.28 50.16
  Q 113.36 50.04 107.70 50.63
  C 102.66 51.16 97.92 50.88 92.87 51.15
  Q 51.83 53.37 26.73 55.52
  Q 17.99 56.27 16.86 56.02
  A 1.63 1.63 0.0 0 0 15.91 56.05
  L 13.90 56.75
  A 0.42 0.42 0.0 0 1 13.49 56.03
  Q 18.75 51.59 25.38 49.15
  Q 35.16 45.55 47.21 43.48
  Q 51.63 42.72 63.33 41.35
  C 66.89 40.93 70.46 41.14 73.90 40.51
  Q 75.30 40.26 78.13 40.18
  Q 104.85 39.41 129.19 40.16
  Q 129.67 40.17 130.26 40.44
  A 0.91 0.84 -28.8 0 0 130.58 40.52
  L 152.32 41.90
  A 1.29 1.23 36.0 0 0 152.84 41.83
  L 158.62 39.90
  A 1.11 1.04 -46.7 0 1 159.14 39.87
  L 162.19 40.40
  A 0.17 0.17 0.0 0 0 162.39 40.25
  Q 162.41 40.09 162.24 39.99
  L 163.16 39.25
  Z
  M 160.17 49.61
  A 0.66 0.66 0.0 0 0 161.45 49.82
  Q 162.80 46.45 161.21 41.86
  A 0.72 0.70 -5.6 0 0 160.61 41.38
  Q 158.50 41.14 157.28 41.56
  A 0.67 0.66 77.7 0 0 156.83 42.27
  L 157.26 45.71
  A 0.91 0.90 -4.6 0 0 158.18 46.49
  L 158.21 46.49
  A 0.77 0.76 88.1 0 0 158.94 45.70
  L 158.85 42.25
  A 0.38 0.37 -2.4 0 1 159.21 41.87
  L 159.51 41.86
  A 0.25 0.25 0.0 0 1 159.78 42.10
  L 160.17 49.61
  Z
  M 151.70 43.04
  Q 151.28 43.00 150.47 42.94
  Q 138.82 42.16 135.50 42.14
  Q 112.34 41.97 101.25 41.94
  Q 96.63 41.92 73.77 42.81
  Q 73.18 42.84 73.18 42.83
  Q 72.94 42.52 72.80 42.82
  A 0.77 0.77 0.0 0 1 72.15 43.27
  Q 64.53 43.82 57.25 44.22
  Q 54.63 44.37 51.27 45.11
  C 48.17 45.79 45.57 45.95 42.74 46.15
  Q 39.50 46.37 24.75 51.00
  Q 24.63 51.03 20.16 53.77
  A 0.23 0.23 0.0 0 0 20.32 54.20
  L 32.13 52.16
  A 1.02 0.95 -47.0 0 1 32.27 52.15
  L 42.08 51.90
  Q 45.98 51.93 50.04 50.39
  A 0.20 0.19 -16.4 0 0 50.17 50.16
  Q 50.15 50.12 50.02 50.02
  A 0.33 0.33 0.0 0 1 49.99 49.51
  Q 50.31 49.22 50.38 48.83
  L 65.03 47.44
  A 1.75 0.97 -17.1 0 0 65.27 47.39
  C 70.99 45.65 80.52 45.73 93.33 45.38
  Q 97.19 45.27 98.61 45.09
  C 103.24 44.47 107.50 45.49 111.78 45.37
  C 120.75 45.13 128.58 45.72 139.10 45.90
  Q 145.28 46.01 151.74 46.72
  Q 152.33 46.78 153.22 46.11
  Q 153.66 46.18 154.01 45.96
  A 0.25 0.25 0.0 0 1 154.38 46.13
  L 154.57 47.20
  A 0.61 0.61 0.0 0 0 155.65 47.48
  Q 156.50 46.43 155.96 42.43
  A 0.47 0.47 0.0 0 0 155.32 42.06
  Q 154.04 42.59 154.14 43.62
  A 0.48 0.47 12.9 0 1 153.42 44.07
  L 151.70 43.04
  Z
  M 152.1900 48.1228
  A 0.32 0.32 0.0 0 0 151.8705 47.8022
  L 114.9506 47.7378
  A 0.32 0.32 0.0 0 0 114.6300 48.0572
  L 114.6300 48.0772
  A 0.32 0.32 0.0 0 0 114.9495 48.3978
  L 151.8694 48.4622
  A 0.32 0.32 0.0 0 0 152.1900 48.1428
  L 152.1900 48.1228
  Z
  M 163.65 49.50
  Q 163.68 49.35 163.44 48.77
  A 0.17 0.17 0.0 0 0 163.11 48.85
  L 163.13 49.46
  A 0.26 0.26 0.0 0 0 163.65 49.50
  Z
  M 164.83 51.02
  Q 164.98 50.88 164.67 50.64
  A 0.18 0.18 0.0 0 0 164.37 50.80
  Q 164.40 51.04 164.73 51.06
  A 0.15 0.13 20.8 0 0 164.83 51.02
  Z
  M 80.13 74.39
  C 85.52 72.36 90.20 67.67 95.70 63.23
  C 101.40 58.62 108.50 55.62 115.76 55.92
  Q 121.68 56.18 121.79 56.19
  A 0.20 0.13 -24.8 0 0 121.97 55.90
  Q 121.85 55.88 121.65 56.00
  Q 116.89 53.57 111.55 54.17
  C 102.91 55.15 95.76 59.47 89.82 65.44
  C 86.53 68.76 83.43 71.24 79.90 73.97
  A 0.24 0.24 0.0 0 0 80.13 74.39
  Z
  M 116.48 59.09
  Q 113.31 60.21 111.64 62.38
  A 0.53 0.53 0.0 0 0 112.32 63.16
  Q 114.20 62.15 117.19 61.09
  Q 120.18 60.03 122.28 59.64
  A 0.53 0.53 0.0 0 0 122.31 58.61
  Q 119.65 57.97 116.48 59.09
  Z
  M 173.9275 72.1713
  A 5.71 0.83 -72.6 0 0 171.4280 77.3718
  A 5.71 0.83 -72.6 0 0 170.5125 83.0687
  A 5.71 0.83 -72.6 0 0 173.0120 77.8682
  A 5.71 0.83 -72.6 0 0 173.9275 72.1713
  Z
  M 123.76 82.69
  L 116.83 77.20
  A 0.11 0.11 0.0 0 0 116.67 77.22
  L 116.65 77.25
  A 4.40 1.11 38.4 0 0 119.41 80.85
  L 119.61 81.01
  A 4.40 1.11 38.4 0 0 123.75 82.88
  L 123.77 82.85
  A 0.11 0.11 0.0 0 0 123.76 82.69
  Z
  M 119.68 84.34
  C 119.37 86.63 119.92 88.89 117.05 90.23
  A 2.17 2.15 -81.5 0 0 116.34 90.76
  L 113.01 94.55
  A 1.31 1.31 0.0 0 0 114.06 96.72
  L 115.24 96.66
  A 0.85 0.84 -11.1 0 1 116.08 97.22
  C 116.70 99.02 119.34 103.64 121.30 103.87
  C 123.88 104.16 128.92 104.67 129.96 101.92
  A 0.67 0.66 -72.8 0 0 129.50 101.04
  L 122.85 99.38
  A 1.00 0.94 -11.2 0 1 122.37 99.08
  L 119.88 96.26
  A 0.75 0.75 0.0 0 1 120.40 95.01
  L 124.26 94.81
  A 0.31 0.30 -33.6 0 0 124.38 94.23
  Q 120.70 92.52 117.11 92.15
  A 0.55 0.55 0.0 0 1 117.04 91.07
  C 121.05 90.08 124.54 92.25 128.15 94.38
  C 129.78 95.34 131.09 95.56 132.95 95.40
  A 0.66 0.65 -57.1 0 1 133.22 96.67
  Q 132.18 97.05 131.54 97.74
  A 0.95 0.94 -33.2 0 0 131.34 98.67
  C 131.92 100.57 132.79 103.71 130.55 104.65
  A 0.34 0.34 0.0 0 0 130.67 105.30
  L 133.72 105.42
  A 0.63 0.63 0.0 0 0 134.38 104.78
  Q 134.38 104.74 134.16 102.25
  C 133.90 99.35 135.10 97.25 137.61 95.61
  A 0.56 0.54 70.9 0 0 137.85 95.10
  Q 137.82 94.68 137.05 94.49
  A 1.09 1.08 2.1 0 1 136.24 93.62
  L 135.79 91.03
  A 2.65 2.64 0.5 0 0 133.67 88.88
  Q 126.07 87.47 120.37 84.01
  A 0.46 0.46 0.0 0 0 119.68 84.34
  Z
  M 122.88 96.27
  Q 122.86 96.22 122.46 96.11
  A 0.46 0.46 0.0 0 0 122.03 96.90
  Q 124.57 99.09 128.58 99.09
  A 0.18 0.18 0.0 0 0 128.74 98.82
  L 127.60 96.84
  A 0.55 0.54 73.9 0 0 127.14 96.58
  L 123.56 96.63
  A 0.77 0.59 -9.3 0 1 122.88 96.27
  Z"
/>
<path fill="#f92041" d="
  M 160.17 49.61
  L 159.78 42.10
  A 0.25 0.25 0.0 0 0 159.51 41.86
  L 159.21 41.87
  A 0.38 0.37 -2.4 0 0 158.85 42.25
  L 158.94 45.70
  A 0.77 0.76 88.1 0 1 158.21 46.49
  L 158.18 46.49
  A 0.91 0.90 -4.6 0 1 157.26 45.71
  L 156.83 42.27
  A 0.67 0.66 77.7 0 1 157.28 41.56
  Q 158.50 41.14 160.61 41.38
  A 0.72 0.70 -5.6 0 1 161.21 41.86
  Q 162.80 46.45 161.45 49.82
  A 0.66 0.66 0.0 0 1 160.17 49.61
  Z"
/>
<path fill="#ff1b27" d="
  M 153.22 46.11
  Q 153.28 44.88 151.70 43.04
  L 153.42 44.07
  A 0.48 0.47 12.9 0 0 154.14 43.62
  Q 154.04 42.59 155.32 42.06
  A 0.47 0.47 0.0 0 1 155.96 42.43
  Q 156.50 46.43 155.65 47.48
  A 0.61 0.61 0.0 0 1 154.57 47.20
  L 154.38 46.13
  A 0.25 0.25 0.0 0 0 154.01 45.96
  Q 153.66 46.18 153.22 46.11
  Z"
/>
<path fill="#f92041" d="
  M 151.70 43.04
  Q 153.28 44.88 153.22 46.11
  Q 152.33 46.78 151.74 46.72
  Q 145.28 46.01 139.10 45.90
  C 128.58 45.72 120.75 45.13 111.78 45.37
  C 107.50 45.49 103.24 44.47 98.61 45.09
  Q 97.19 45.27 93.33 45.38
  C 80.52 45.73 70.99 45.65 65.27 47.39
  A 1.75 0.97 -17.1 0 1 65.03 47.44
  L 50.38 48.83
  Q 46.71 49.39 43.13 50.11
  Q 41.72 50.40 42.08 51.90
  L 32.27 52.15
  A 1.02 0.95 -47.0 0 0 32.13 52.16
  L 20.32 54.20
  A 0.23 0.23 0.0 0 1 20.16 53.77
  Q 24.63 51.03 24.75 51.00
  Q 39.50 46.37 42.74 46.15
  C 45.57 45.95 48.17 45.79 51.27 45.11
  Q 54.63 44.37 57.25 44.22
  Q 64.53 43.82 72.15 43.27
  A 0.77 0.77 0.0 0 0 72.80 42.82
  Q 72.94 42.52 73.18 42.83
  Q 73.18 42.84 73.77 42.81
  Q 96.63 41.92 101.25 41.94
  Q 112.34 41.97 135.50 42.14
  Q 138.82 42.16 150.47 42.94
  Q 151.28 43.00 151.70 43.04
  Z"
/>
<path fill="#f92041" d="
  M 184.04 45.04
  A 0.30 0.30 0.0 0 1 184.31 44.71
  L 184.50 44.69
  A 1.45 1.35 -5.3 0 1 186.07 45.90
  L 186.13 46.54
  A 1.45 1.35 -5.3 0 1 184.81 48.02
  L 184.62 48.03
  A 0.30 0.30 0.0 0 1 184.29 47.76
  L 184.04 45.04
  Z"
/>
<rect fill="#f92041" x="-1.15" y="-2.25" transform="translate(188.96,47.93) rotate(-0.4)" width="2.30" height="4.50" rx="0.80"/>
<path fill="#f92041" d="
  M 196.29 46.33
  Q 197.26 45.40 198.61 45.67
  A 0.75 0.74 -88.4 0 1 199.21 46.31
  L 199.49 48.68
  A 1.20 1.20 0.0 0 1 198.74 49.95
  Q 196.89 50.70 196.25 49.41
  A 1.13 1.12 48.4 0 1 196.31 48.31
  Q 196.85 47.45 196.36 47.13
  A 0.52 0.51 40.2 0 1 196.29 46.33
  Z"
/>
<rect fill="#f92041" x="-1.19" y="-2.28" transform="translate(193.20,48.09) rotate(-4.3)" width="2.38" height="4.56" rx="1.10"/>
<rect fill="#1e181a" x="-18.78" y="-0.33" transform="translate(133.41,48.10) rotate(0.1)" width="37.56" height="0.66" rx="0.32"/>
<path fill="#f92041" d="
  M 163.65 49.50
  A 0.26 0.26 0.0 0 1 163.13 49.46
  L 163.11 48.85
  A 0.17 0.17 0.0 0 1 163.44 48.77
  Q 163.68 49.35 163.65 49.50
  Z"
/>
<path fill="#1e181a" d="
  M 50.38 48.83
  Q 50.31 49.22 49.99 49.51
  A 0.33 0.33 0.0 0 0 50.02 50.02
  Q 50.15 50.12 50.17 50.16
  A 0.20 0.19 -16.4 0 1 50.04 50.39
  Q 45.98 51.93 42.08 51.90
  Q 41.72 50.40 43.13 50.11
  Q 46.71 49.39 50.38 48.83
  Z"
/>
<path fill="#ffffff" d="
  M 164.73 51.06
  Q 164.40 51.04 164.37 50.80
  A 0.18 0.18 0.0 0 1 164.67 50.64
  Q 164.98 50.88 164.83 51.02
  A 0.15 0.13 20.8 0 1 164.73 51.06
  Z"
/>
<path fill="#ffffff" d="
  M 80.13 74.39
  A 0.24 0.24 0.0 0 1 79.90 73.97
  C 83.43 71.24 86.53 68.76 89.82 65.44
  C 95.76 59.47 102.91 55.15 111.55 54.17
  Q 116.89 53.57 121.65 56.00
  Q 121.85 55.88 121.97 55.90
  A 0.20 0.13 -24.8 0 1 121.79 56.19
  Q 121.68 56.18 115.76 55.92
  C 108.50 55.62 101.40 58.62 95.70 63.23
  C 90.20 67.67 85.52 72.36 80.13 74.39
  Z"
/>
<path fill="#f92041" d="
  M 126.71 56.72
  Q 126.92 56.97 126.90 57.29
  A 0.28 0.28 0.0 0 1 126.39 57.44
  Q 126.22 57.22 126.24 56.56
  Q 126.45 56.53 126.71 56.72
  Z"
/>
<path fill="#ffffff" d="
  M 117.19 61.09
  Q 114.20 62.15 112.32 63.16
  A 0.53 0.53 0.0 0 1 111.64 62.38
  Q 113.31 60.21 116.48 59.09
  Q 119.65 57.97 122.31 58.61
  A 0.53 0.53 0.0 0 1 122.28 59.64
  Q 120.18 60.03 117.19 61.09
  Z"
/>
<path fill="#ffffff" d="
  M 65.26 87.88
  Q 63.35 88.01 62.46 87.59
  Q 73.96 85.52 83.01 78.21
  A 0.35 0.35 0.0 0 0 83.05 77.71
  L 82.88 77.51
  A 0.14 0.13 -36.7 0 0 82.72 77.49
  L 76.02 81.35
  A 0.33 0.33 0.0 0 1 75.60 81.28
  L 75.41 81.08
  A 0.04 0.04 0.0 0 1 75.42 81.03
  Q 82.09 77.09 83.16 76.39
  Q 85.83 74.64 91.98 69.00
  Q 97.92 63.54 106.16 59.10
  A 0.24 0.24 0.0 0 1 106.48 59.19
  L 106.61 59.42
  A 0.04 0.04 0.0 0 1 106.59 59.48
  C 99.09 64.00 92.81 69.49 86.48 76.00
  Q 81.44 81.18 77.22 83.55
  Q 71.75 86.63 65.26 87.88
  Z"
/>
<path fill="#ffffff" d="
  M 145.24 79.77
  Q 145.09 79.73 144.92 79.34
  Q 144.84 77.33 143.51 75.78
  A 0.34 0.34 0.0 0 0 142.91 76.00
  Q 142.88 81.35 138.14 84.46
  A 0.28 0.28 0.0 0 1 137.72 84.14
  Q 137.92 83.56 139.66 80.98
  Q 142.88 76.21 138.93 72.38
  Q 135.74 69.29 127.56 64.37
  A 0.25 0.25 0.0 0 1 127.45 64.09
  L 127.54 63.74
  A 0.35 0.35 0.0 0 1 128.02 63.50
  Q 136.54 67.25 141.98 71.86
  C 143.62 73.24 146.80 77.55 145.24 79.77
  Z"
/>
<path fill="#ffffff" d="
  M 122.57 78.71
  Q 116.39 76.30 115.03 69.65
  L 122.57 78.71
  Z"
/>
<ellipse fill="#ffffff" cx="0.00" cy="0.00" transform="translate(172.22,77.62) rotate(-72.6)" rx="5.71" ry="0.83"/>
<ellipse fill="#ffffff" cx="0.00" cy="0.00" transform="translate(104.31,78.29) rotate(-76.9)" rx="4.31" ry="0.75"/>
<path fill="#ffffff" d="
  M 123.76 82.69
  A 0.11 0.11 0.0 0 1 123.77 82.85
  L 123.75 82.88
  A 4.40 1.11 38.4 0 1 119.61 81.01
  L 119.41 80.85
  A 4.40 1.11 38.4 0 1 116.65 77.25
  L 116.67 77.22
  A 0.11 0.11 0.0 0 1 116.83 77.20
  L 123.76 82.69
  Z"
/>
<path fill="#ff1b27" d="
  M 175.34 118.51
  Q 177.08 124.97 177.12 128.31
  C 177.22 135.35 173.52 140.04 168.27 145.49
  A 0.42 0.42 0.0 0 1 167.56 145.09
  Q 168.03 143.38 170.15 140.90
  A 0.48 0.48 0.0 0 0 169.61 140.14
  Q 167.44 141.02 165.09 140.24
  A 0.70 0.70 0.0 0 1 164.72 139.20
  C 166.32 136.76 167.90 134.15 168.21 131.51
  Q 168.27 130.94 168.66 129.44
  A 1.11 1.10 -86.6 0 1 169.55 128.64
  Q 170.52 128.49 171.26 127.96
  A 0.43 0.43 0.0 0 1 171.94 128.29
  L 172.19 133.09
  A 0.33 0.32 50.2 0 0 172.83 133.15
  Q 174.04 127.96 173.40 122.82
  C 172.48 115.33 168.82 108.21 165.73 101.25
  C 164.62 96.52 164.31 90.71 165.79 86.02
  Q 166.27 84.50 166.46 82.96
  A 1.32 1.31 -4.5 0 1 167.40 81.87
  L 167.50 81.84
  A 0.53 0.53 0.0 0 1 168.17 82.41
  Q 167.71 86.24 167.03 90.52
  C 166.21 95.74 167.11 99.90 169.04 104.22
  Q 171.37 109.45 173.78 114.62
  Q 174.65 116.51 175.34 118.51
  Z"
/>
<path fill="#ffffff" d="
  M 120.37 84.01
  Q 126.07 87.47 133.67 88.88
  A 2.65 2.64 0.5 0 1 135.79 91.03
  L 136.24 93.62
  A 1.09 1.08 2.1 0 0 137.05 94.49
  Q 137.82 94.68 137.85 95.10
  A 0.56 0.54 70.9 0 1 137.61 95.61
  C 135.10 97.25 133.90 99.35 134.16 102.25
  Q 134.38 104.74 134.38 104.78
  A 0.63 0.63 0.0 0 1 133.72 105.42
  L 130.67 105.30
  A 0.34 0.34 0.0 0 1 130.55 104.65
  C 132.79 103.71 131.92 100.57 131.34 98.67
  A 0.95 0.94 -33.2 0 1 131.54 97.74
  Q 132.18 97.05 133.22 96.67
  A 0.66 0.65 -57.1 0 0 132.95 95.40
  C 131.09 95.56 129.78 95.34 128.15 94.38
  C 124.54 92.25 121.05 90.08 117.04 91.07
  A 0.55 0.55 0.0 0 0 117.11 92.15
  Q 120.70 92.52 124.38 94.23
  A 0.31 0.30 -33.6 0 1 124.26 94.81
  L 120.40 95.01
  A 0.75 0.75 0.0 0 0 119.88 96.26
  L 122.37 99.08
  A 1.00 0.94 -11.2 0 0 122.85 99.38
  L 129.50 101.04
  A 0.67 0.66 -72.8 0 1 129.96 101.92
  C 128.92 104.67 123.88 104.16 121.30 103.87
  C 119.34 103.64 116.70 99.02 116.08 97.22
  A 0.85 0.84 -11.1 0 0 115.24 96.66
  L 114.06 96.72
  A 1.31 1.31 0.0 0 1 113.01 94.55
  L 116.34 90.76
  A 2.17 2.15 -81.5 0 1 117.05 90.23
  C 119.92 88.89 119.37 86.63 119.68 84.34
  A 0.46 0.46 0.0 0 1 120.37 84.01
  Z"
/>
<path fill="#ffffff" d="
  M 107.81 100.12
  L 107.47 100.31
  A 0.56 0.55 -36.9 0 1 106.79 100.22
  Q 102.56 95.93 103.36 90.11
  C 103.88 86.37 108.32 85.34 109.19 89.86
  A 0.71 0.70 17.0 0 1 108.00 90.49
  L 106.54 89.03
  A 0.86 0.86 0.0 0 0 105.08 89.80
  Q 105.41 91.59 105.05 93.51
  Q 104.48 96.49 107.87 99.50
  A 0.38 0.38 0.0 0 1 107.81 100.12
  Z"
/>
<path fill="#ff1b27" d="
  M 159.65 103.06
  L 156.60 117.42
  A 0.23 0.23 0.0 0 1 156.15 117.38
  L 155.90 112.60
  A 0.30 0.30 0.0 0 0 155.35 112.46
  Q 154.40 114.00 154.30 114.55
  Q 153.25 119.85 151.65 125.14
  Q 151.50 125.66 151.07 125.83
  A 0.38 0.38 0.0 0 1 150.55 125.51
  Q 150.20 121.33 149.76 119.10
  Q 149.67 118.66 149.41 118.46
  A 0.76 0.75 -57.9 0 0 148.29 118.72
  Q 146.78 121.68 144.82 124.07
  Q 144.54 124.40 144.21 124.40
  A 0.51 0.46 -80.3 0 1 143.79 123.74
  Q 144.60 121.16 145.77 118.54
  A 0.50 0.49 15.9 0 0 145.38 117.85
  L 145.08 117.81
  A 0.38 0.37 -73.2 0 0 144.70 118.02
  Q 143.01 121.43 142.53 122.03
  Q 136.51 129.49 128.25 136.95
  A 0.92 0.92 0.0 0 1 126.72 136.21
  L 126.93 132.90
  A 0.32 0.31 -26.6 0 0 126.35 132.71
  L 122.25 138.97
  A 1.60 1.51 -83.1 0 1 121.54 139.56
  L 114.57 142.45
  A 0.56 0.56 0.0 0 1 114.01 141.50
  Q 117.13 139.03 118.22 136.82
  A 0.34 0.34 0.0 0 0 117.79 136.36
  Q 111.94 138.74 105.51 140.09
  Q 104.49 140.31 104.28 139.50
  A 0.74 0.74 0.0 0 0 103.32 138.98
  L 90.91 143.32
  A 0.29 0.29 0.0 0 1 90.53 143.12
  L 90.46 142.82
  A 0.09 0.09 0.0 0 1 90.49 142.71
  L 95.48 138.98
  A 0.43 0.43 0.0 0 0 95.63 138.51
  Q 95.36 137.54 93.14 139.56
  Q 92.74 139.93 92.15 140.13
  Q 91.79 140.26 91.58 140.18
  A 0.60 0.59 22.1 0 1 91.24 139.38
  C 94.36 132.46 96.30 125.77 90.72 119.48
  A 0.44 0.44 0.0 0 0 90.01 119.98
  Q 91.14 122.04 91.01 124.02
  A 0.44 0.43 -70.4 0 1 90.33 124.35
  Q 85.75 121.10 84.29 115.56
  A 0.75 0.75 0.0 0 0 83.00 115.25
  C 80.60 117.96 78.17 121.42 76.80 125.49
  Q 74.13 133.45 73.92 134.69
  Q 73.06 139.79 71.40 145.25
  A 1.06 1.06 0.0 0 1 70.27 145.99
  L 70.23 145.98
  A 0.82 0.82 0.0 0 1 69.52 145.01
  Q 71.74 133.77 74.27 124.53
  C 75.50 120.04 77.05 116.28 80.55 112.79
  Q 81.50 111.84 86.77 106.38
  A 0.90 0.85 -9.7 0 0 86.92 106.18
  L 93.35 96.39
  A 1.19 1.18 56.7 0 1 95.51 96.84
  L 95.95 99.35
  A 4.76 4.74 64.5 0 1 94.41 103.72
  L 87.66 109.67
  A 0.40 0.39 48.5 0 0 87.63 110.23
  L 87.80 110.42
  A 0.15 0.15 0.0 0 0 87.99 110.46
  Q 93.64 107.46 96.03 106.51
  Q 96.99 106.12 101.17 105.40
  A 1.90 1.62 -42.5 0 1 101.70 105.38
  L 110.28 106.31
  A 0.52 0.52 0.0 0 1 110.38 107.33
  Q 104.91 109.09 100.42 113.16
  A 0.40 0.40 0.0 0 0 100.82 113.84
  L 121.18 107.14
  Q 127.03 106.53 132.16 107.12
  Q 132.93 107.21 133.36 107.54
  A 0.53 0.52 -35.7 0 1 133.21 108.45
  L 112.87 115.56
  A 0.34 0.34 0.0 0 0 113.01 116.22
  Q 119.45 115.60 129.31 113.94
  Q 130.21 113.79 130.65 114.57
  Q 130.72 114.69 129.42 115.81
  A 0.42 0.42 0.0 0 0 129.88 116.51
  L 134.61 114.24
  A 1.53 1.48 38.2 0 1 135.62 114.14
  L 135.87 114.20
  A 0.46 0.46 0.0 0 1 136.07 114.99
  L 129.82 120.83
  A 1.12 1.04 -80.7 0 1 129.60 121.00
  L 126.94 122.67
  A 0.35 0.35 0.0 0 0 127.25 123.30
  Q 133.49 121.06 138.29 116.36
  A 1.35 1.35 0.0 0 1 139.15 115.98
  Q 139.45 115.96 139.96 116.32
  A 0.80 0.79 -65.5 0 0 141.19 115.86
  L 143.65 106.02
  A 0.66 0.66 0.0 0 1 144.00 105.60
  L 156.35 99.66
  A 3.16 3.16 0.0 0 0 157.83 98.18
  C 158.80 96.18 159.51 93.73 162.09 92.21
  A 0.39 0.39 0.0 0 1 162.68 92.57
  L 162.59 93.96
  A 1.26 1.23 74.1 0 1 162.09 94.88
  Q 160.15 96.35 160.01 99.45
  A 1.94 1.94 0.0 0 1 158.90 101.12
  L 148.76 106.00
  A 0.10 0.10 0.0 0 0 148.83 106.18
  L 159.65 103.06
  Z
  M 123.68 120.02
  Q 121.10 120.18 118.31 120.98
  C 114.41 122.10 111.79 122.28 107.43 123.33
  C 106.08 123.66 99.12 124.35 99.01 124.59
  A 0.58 0.55 -73.5 0 0 99.41 125.37
  C 107.12 126.73 116.66 123.80 123.78 120.41
  A 0.21 0.21 0.0 0 0 123.68 120.02
  Z
  M 105.69 138.54
  Q 105.21 138.54 105.09 138.67
  A 0.31 0.23 17.7 0 0 105.38 139.07
  Q 105.49 139.07 105.79 138.87
  A 0.18 0.18 0.0 0 0 105.69 138.54
  Z"
/>
<ellipse fill="#f92041" cx="0.00" cy="0.00" transform="translate(107.03,95.11) rotate(-102.6)" rx="1.63" ry="0.59"/>
<path fill="#f92041" d="
  M 103.77 101.25
  Q 102.31 100.60 101.08 98.82
  Q 100.36 97.78 99.82 99.30
  A 0.67 0.67 0.0 0 1 98.61 99.41
  L 98.14 98.60
  A 2.93 2.90 -51.3 0 1 97.89 96.24
  Q 98.83 93.34 99.94 94.17
  A 0.52 0.49 10.1 0 1 100.13 94.43
  Q 101.42 97.85 104.13 100.74
  A 0.32 0.32 0.0 0 1 103.77 101.25
  Z"
/>
<path fill="#f92041" d="
  M 123.56 96.63
  L 127.14 96.58
  A 0.55 0.54 73.9 0 1 127.60 96.84
  L 128.74 98.82
  A 0.18 0.18 0.0 0 1 128.58 99.09
  Q 124.57 99.09 122.03 96.90
  A 0.46 0.46 0.0 0 1 122.46 96.11
  Q 122.86 96.22 122.88 96.27
  A 0.77 0.59 -9.3 0 0 123.56 96.63
  Z"
/>
<path fill="#f92041" d="
  M 138.75 97.85
  Q 139.79 97.87 140.49 98.68
  Q 139.26 100.85 136.17 99.63
  A 0.61 0.61 0.0 0 1 135.97 98.62
  Q 136.95 97.69 138.75 97.85
  Z"
/>
<path fill="#ff1b27" d="
  M 155.56 135.93
  L 159.83 118.87
  A 3.03 2.55 -40.1 0 0 159.92 118.35
  Q 160.22 114.94 160.87 113.23
  A 0.41 0.41 0.0 0 1 161.66 113.38
  Q 161.57 118.93 161.85 132.00
  Q 161.91 134.67 159.87 135.37
  A 0.78 0.75 -3.3 0 0 159.39 135.89
  L 157.39 143.91
  A 0.28 0.28 0.0 0 1 156.85 143.93
  Q 156.66 143.34 156.66 140.29
  A 0.52 0.52 0.0 0 0 155.69 140.02
  C 152.40 145.46 148.89 150.02 143.63 153.79
  C 140.41 156.09 133.65 157.70 130.63 157.88
  C 126.04 158.15 121.84 158.96 116.77 158.99
  Q 100.73 159.11 84.81 157.88
  Q 82.10 157.67 79.88 157.10
  Q 63.99 153.03 61.01 152.68
  Q 52.15 151.65 48.70 151.14
  C 42.51 150.22 37.68 150.14 31.71 150.11
  A 0.08 0.08 0.0 0 1 31.69 149.95
  Q 33.20 149.58 34.12 148.91
  A 2.56 2.56 0.0 0 1 35.50 148.44
  Q 39.35 148.30 43.84 147.46
  C 50.02 146.31 57.18 146.81 62.68 147.33
  Q 66.23 147.67 71.21 149.15
  C 90.62 154.91 110.36 156.14 128.33 146.61
  A 0.57 0.57 0.0 0 1 129.07 147.43
  L 126.99 150.60
  A 1.01 1.01 0.0 0 0 128.27 152.06
  L 131.17 150.67
  A 0.48 0.47 -84.9 0 1 131.76 151.38
  Q 129.84 154.06 127.47 155.01
  A 0.44 0.44 0.0 0 0 127.56 155.86
  C 130.71 156.35 133.40 155.09 136.51 153.69
  Q 145.46 149.68 151.01 141.55
  C 152.35 139.60 153.28 136.85 154.37 135.08
  A 0.31 0.31 0.0 0 1 154.91 135.11
  L 155.31 135.95
  A 0.13 0.13 0.0 0 0 155.56 135.93
  Z"
/>
<path fill="#1e181a" d="
  M 123.68 120.02
  A 0.21 0.21 0.0 0 1 123.78 120.41
  C 116.66 123.80 107.12 126.73 99.41 125.37
  A 0.58 0.55 -73.5 0 1 99.01 124.59
  C 99.12 124.35 106.08 123.66 107.43 123.33
  C 111.79 122.28 114.41 122.10 118.31 120.98
  Q 121.10 120.18 123.68 120.02
  Z"
/>
<path fill="#1e181a" d="
  M 105.79 138.87
  Q 105.49 139.07 105.38 139.07
  A 0.31 0.23 17.7 0 1 105.09 138.67
  Q 105.21 138.54 105.69 138.54
  A 0.18 0.18 0.0 0 1 105.79 138.87
  Z"
/>
<ellipse fill="#f92041" cx="0.00" cy="0.00" transform="translate(163.64,151.39) rotate(-32.2)" rx="3.00" ry="0.90"/>
<path fill="#050505" d="
  M 163.93 157.76
  L 169.41 160.86
  A 0.87 0.86 82.5 0 1 169.64 161.04
  C 170.84 162.34 172.43 162.61 173.76 163.72
  Q 175.74 165.37 177.32 166.12
  C 178.20 166.54 178.22 167.47 177.85 168.20
  A 0.41 0.40 -76.5 0 0 178.21 168.79
  L 206.63 168.79
  A 1.39 1.39 0.0 0 1 208.02 170.27
  L 207.85 173.00
  A 1.05 1.04 1.7 0 1 206.80 173.98
  L 178.97 173.98
  A 0.93 0.92 9.9 0 0 178.10 174.59
  L 177.21 177.07
  A 0.81 0.71 82.4 0 1 176.99 177.40
  L 173.31 180.64
  A 1.05 1.04 -60.2 0 1 172.41 180.89
  Q 169.83 180.39 165.49 181.47
  A 0.93 0.88 -75.8 0 0 164.99 181.79
  L 163.13 184.11
  A 2.27 2.25 -61.9 0 1 160.69 184.86
  C 157.32 183.82 155.30 183.32 152.72 181.61
  Q 148.20 178.61 147.08 177.73
  A 2.18 2.07 65.5 0 0 145.99 177.29
  C 143.75 177.04 140.05 177.77 137.01 177.81
  Q 118.08 178.06 95.77 178.00
  C 88.54 177.98 82.87 177.02 75.77 176.99
  Q 74.27 176.98 67.77 176.31
  Q 49.76 174.45 34.08 170.89
  Q 23.26 168.43 13.69 163.00
  A 0.51 0.51 0.0 0 1 13.47 162.34
  L 13.48 162.32
  A 0.54 0.53 -67.3 0 1 14.15 162.04
  Q 15.77 162.65 17.51 162.93
  Q 26.58 164.37 35.71 165.23
  Q 34.94 166.15 34.05 166.08
  L 20.45 164.78
  A 0.19 0.19 0.0 0 0 20.36 165.14
  Q 27.13 168.07 34.24 169.75
  Q 46.66 172.67 56.27 173.67
  C 64.86 174.55 73.14 175.87 81.71 175.90
  Q 113.88 176.05 146.49 175.88
  L 150.78 178.66
  A 4.76 4.73 -33.4 0 0 154.20 179.35
  Q 156.15 179.01 157.59 179.42
  A 0.55 0.55 0.0 0 0 158.30 178.87
  L 157.98 170.21
  A 0.51 0.44 -59.2 0 0 157.95 170.04
  L 156.85 167.39
  A 0.59 0.59 0.0 0 0 156.19 167.03
  Q 155.27 167.20 154.58 165.84
  Q 152.60 161.96 156.66 160.85
  Q 160.60 159.77 163.93 157.76
  Z
  M 170.63 165.84
  L 171.19 176.70
  A 0.47 0.47 0.0 0 0 172.01 176.98
  C 173.37 175.38 173.34 170.19 173.29 168.56
  A 0.52 0.52 0.0 0 1 174.29 168.36
  Q 175.77 172.10 173.93 175.70
  A 0.85 0.85 0.0 0 0 175.16 176.79
  C 177.76 175.01 177.19 170.76 176.55 167.29
  A 1.13 1.12 4.8 0 0 175.83 166.45
  Q 173.33 165.54 171.48 163.52
  Q 171.07 163.07 170.44 163.09
  Q 170.08 163.10 169.26 163.60
  A 0.35 0.34 -10.6 0 1 168.74 163.25
  Q 169.07 161.34 164.88 161.88
  C 162.17 162.23 161.51 159.75 158.40 162.28
  A 0.78 0.78 0.0 0 1 157.72 162.44
  Q 156.76 162.23 156.75 162.23
  A 1.91 1.85 -35.7 0 0 156.11 165.78
  Q 156.31 165.87 157.48 165.09
  A 0.81 0.81 0.0 0 1 158.74 165.72
  L 158.86 167.92
  A 0.95 0.95 0.0 0 0 159.34 168.71
  Q 159.98 169.08 160.14 169.41
  A 1.25 1.22 41.3 0 1 160.21 170.33
  Q 159.07 173.77 159.95 177.07
  A 1.36 1.36 0.0 0 0 162.40 177.46
  C 164.48 174.28 164.05 169.70 163.69 165.86
  A 0.37 0.36 -4.4 0 1 164.04 165.46
  L 164.40 165.44
  A 0.47 0.46 85.6 0 1 164.89 165.87
  L 165.67 176.32
  A 2.37 2.37 0.0 0 0 167.65 178.48
  L 167.77 178.50
  A 1.61 1.60 -83.5 0 0 169.66 176.99
  Q 169.70 176.12 169.46 171.05
  Q 169.37 169.22 170.25 165.80
  A 0.19 0.19 0.0 0 1 170.63 165.84
  Z
  M 178.35 170.85
  Q 178.35 171.48 179.75 171.50
  Q 190.50 171.68 203.38 171.54
  A 1.28 1.26 -63.2 0 0 204.09 171.30
  Q 204.18 171.24 204.25 171.18
  A 0.76 0.75 41.1 0 1 205.07 171.13
  Q 205.69 171.46 206.37 171.08
  A 0.17 0.02 -82.2 0 0 206.41 170.93
  Q 206.41 170.90 206.41 170.87
  Q 206.41 170.84 206.41 170.81
  A 0.17 0.02 82.3 0 0 206.37 170.66
  Q 205.69 170.28 205.07 170.61
  A 0.76 0.75 -41.0 0 1 204.25 170.56
  Q 204.18 170.50 204.09 170.44
  A 1.28 1.26 63.2 0 0 203.38 170.20
  Q 190.50 170.04 179.76 170.21
  Q 178.35 170.23 178.35 170.85
  Z
  M 160.2300 179.9060
  A 1.14 0.29 -179.8 0 0 161.3690 180.2000
  A 1.14 0.29 -179.8 0 0 162.5100 179.9140
  A 1.14 0.29 -179.8 0 0 161.3710 179.6200
  A 1.14 0.29 -179.8 0 0 160.2300 179.9060
  Z
  M 162.2793 182.7508
  A 0.27 0.27 0.0 0 0 162.0989 182.4143
  L 154.7084 180.1829
  A 0.27 0.27 0.0 0 0 154.3719 180.3634
  L 154.1407 181.1292
  A 0.27 0.27 0.0 0 0 154.3211 181.4657
  L 161.7116 183.6971
  A 0.27 0.27 0.0 0 0 162.0481 183.5166
  L 162.2793 182.7508
  Z"
/>
<path fill="#ffffff" d="
  M 170.25 165.80
  Q 169.37 169.22 169.46 171.05
  Q 169.70 176.12 169.66 176.99
  A 1.61 1.60 -83.5 0 1 167.77 178.50
  L 167.65 178.48
  A 2.37 2.37 0.0 0 1 165.67 176.32
  L 164.89 165.87
  A 0.47 0.46 85.6 0 0 164.40 165.44
  L 164.04 165.46
  A 0.37 0.36 -4.4 0 0 163.69 165.86
  C 164.05 169.70 164.48 174.28 162.40 177.46
  A 1.36 1.36 0.0 0 1 159.95 177.07
  Q 159.07 173.77 160.21 170.33
  A 1.25 1.22 41.3 0 0 160.14 169.41
  Q 159.98 169.08 159.34 168.71
  A 0.95 0.95 0.0 0 1 158.86 167.92
  L 158.74 165.72
  A 0.81 0.81 0.0 0 0 157.48 165.09
  Q 156.31 165.87 156.11 165.78
  A 1.91 1.85 -35.7 0 1 156.75 162.23
  Q 156.76 162.23 157.72 162.44
  A 0.78 0.78 0.0 0 0 158.40 162.28
  C 161.51 159.75 162.17 162.23 164.88 161.88
  Q 169.07 161.34 168.74 163.25
  A 0.35 0.34 -10.6 0 0 169.26 163.60
  Q 170.08 163.10 170.44 163.09
  Q 171.07 163.07 171.48 163.52
  Q 173.33 165.54 175.83 166.45
  A 1.13 1.12 4.8 0 1 176.55 167.29
  C 177.19 170.76 177.76 175.01 175.16 176.79
  A 0.85 0.85 0.0 0 1 173.93 175.70
  Q 175.77 172.10 174.29 168.36
  A 0.52 0.52 0.0 0 0 173.29 168.56
  C 173.34 170.19 173.37 175.38 172.01 176.98
  A 0.47 0.47 0.0 0 1 171.19 176.70
  L 170.63 165.84
  A 0.19 0.19 0.0 0 0 170.25 165.80
  Z"
/>
<path fill="#f92041" d="
  M 34.05 166.08
  C 40.01 166.90 46.49 168.19 52.23 168.15
  C 55.89 168.12 59.10 168.87 62.85 168.89
  C 70.68 168.92 81.95 169.67 92.06 169.70
  Q 120.69 169.79 145.20 169.41
  A 0.85 0.85 0.0 0 1 146.06 170.22
  L 146.06 170.26
  A 0.87 0.86 -4.6 0 1 145.29 171.16
  Q 142.74 171.43 141.25 171.40
  Q 116.52 170.99 93.00 171.05
  C 87.15 171.07 81.64 171.60 76.07 170.97
  Q 65.59 169.79 52.82 169.90
  A 3.59 3.38 50.6 0 1 51.81 169.77
  C 47.79 168.64 43.48 168.94 39.76 168.31
  Q 38.46 168.09 36.53 168.43
  A 0.23 0.23 0.0 0 0 36.54 168.89
  L 48.87 170.52
  A 1.79 1.70 63.7 0 1 49.58 170.78
  C 52.10 172.35 56.72 171.93 59.29 172.40
  C 63.19 173.11 67.51 173.49 70.32 173.60
  Q 98.68 174.68 143.20 173.80
  Q 144.78 173.77 146.09 174.25
  Q 146.32 174.33 146.49 175.88
  Q 113.88 176.05 81.71 175.90
  C 73.14 175.87 64.86 174.55 56.27 173.67
  Q 46.66 172.67 34.24 169.75
  Q 27.13 168.07 20.36 165.14
  A 0.19 0.19 0.0 0 1 20.45 164.78
  L 34.05 166.08
  Z"
/>
<path fill="#f92041" d="
  M 206.41 170.87
  Q 206.41 170.90 206.41 170.93
  A 0.17 0.02 -82.2 0 1 206.37 171.08
  Q 205.69 171.46 205.07 171.13
  A 0.76 0.75 41.1 0 0 204.25 171.18
  Q 204.18 171.24 204.09 171.30
  A 1.28 1.26 -63.2 0 1 203.38 171.54
  Q 190.50 171.68 179.75 171.50
  Q 178.35 171.48 178.35 170.85
  Q 178.35 170.23 179.76 170.21
  Q 190.50 170.04 203.38 170.20
  A 1.28 1.26 63.2 0 1 204.09 170.44
  Q 204.18 170.50 204.25 170.56
  A 0.76 0.75 -41.0 0 0 205.07 170.61
  Q 205.69 170.28 206.37 170.66
  A 0.17 0.02 82.3 0 1 206.41 170.81
  Q 206.41 170.84 206.41 170.87
  Z"
/>
<ellipse fill="#1e181a" cx="0.00" cy="0.00" transform="translate(161.37,179.91) rotate(-179.8)" rx="1.14" ry="0.29"/>
<rect fill="#ffffff" x="-4.13" y="-0.67" transform="translate(158.21,181.94) rotate(16.8)" width="8.26" height="1.34" rx="0.27"/>
</svg>
