<svg xmlns="http://www.w3.org/2000/svg" width="79.87" height="70.682" viewBox="0 0 79.87 70.682">
  <g id="immunity" transform="translate(0.004 -0.027)">
    <path id="Path_1285" data-name="Path 1285" d="M171.6,126.559l-.343.117c-.5.365-.854.912-1.507,1.047-3.077.752-3.2.7-5.474-2.405-1.569-2.533-1.186-3.792,1.8-5.931a1.438,1.438,0,0,1,1.661.858c0,.891-.73,1.46-.967,2.255-.449,1.2.365,1.029,1.036.912,2.555-.438,5.109-.8,7.664-1.219.65-.106,1.639-.65,1.923.223s-.861,1-1.427,1.35C174.475,124.665,172.767,125.19,171.6,126.559Z" transform="translate(-105.15 -82.637)" fill="#ff8282"/>
    <path id="Path_1286" data-name="Path 1286" d="M166.315,135.17a.7.7,0,0,1,.131.12c1.175,1.883,2.642,3.073,5.015,2.109.058,1-.9.774-1.376,1.124-.763.569-.281.8.215,1.062a8,8,0,0,0,2.555.73,32.923,32.923,0,0,0,5.474,1.46h0c.909.759.781,1.2-.409,1.266-2.774.153-5.4,1.2-8.175,1.339a3.906,3.906,0,0,0-1.157.5.905.905,0,0,1-1.077-.4,2.237,2.237,0,0,1,1-2.832c.595-.208,1,.182,1.482.427.631.321.865,0,.774-.639a3.218,3.218,0,0,0-2.7-1.117c-.73-.051-1.493-.062-1.489-1.095,1.011-.453,1.383-.956.193-1.69a1.876,1.876,0,0,1-.807-1.12,1.533,1.533,0,0,1,.018-.792A.934.934,0,0,1,166.315,135.17Z" transform="translate(-106.774 -92.672)" fill="#ff8282"/>
    <path id="Path_1287" data-name="Path 1287" d="M72.833,151.784a11.109,11.109,0,0,0-10.989,1.266,3.724,3.724,0,0,0-1.985,2.861c-.029.515-.164,1.047-.693,1.15-.69.135-.686-.5-.781-.96-.135-.639-.73-1.131-.573-1.869.04-.2.077-.577-.266-.562-2.8.135-2.376-2.19-2.92-3.77a8.9,8.9,0,0,1,.033-3.985h0a.562.562,0,0,1,.73-.128c.42,1.989,0,4.084.8,5.956.212-.518.489-1.139,1.325-.978.7.131.679.748.766,1.277a15.2,15.2,0,0,0,.755,2.489A7.328,7.328,0,0,1,63,151.174c1.511-.591,1.139-2.336,2.142-3.208a1.15,1.15,0,0,1,.766-.146,10.942,10.942,0,0,1,2.19.828.6.6,0,0,1,.142.449c-.128.277-.434.365-.584.584a21.6,21.6,0,0,1,2.8.23C71.417,150.353,72.877,150.09,72.833,151.784Z" transform="translate(-35.964 -99.362)" fill="#ff8282"/>
    <path id="Path_1288" data-name="Path 1288" d="M73.546,196.506c1.613-2.237,1.613-2.237-1.051-3.332-.307-.223-.847-.066-.963-.595,0-.416-.12-.869.453-1.029.785.544,1.872.343,2.588,1.047l.343.274c1.113.255,2.3.128,3.35.69l.675.058c1.4.182,2.814.252,4.223.336,1.226.073,1.35.325.92,1.416h0c-2.27.588-4.412-.109-6.569-.661-.234,0-.522-.1-.693,0-.471.285.026.438.157.6.818.956,2.168,1.095,3.055,1.949-.42,1.04-.42,1.04-1.825.365-.912,0-1.339-.894-2.106-1.161-.818-.551-1.095.584-1.755.558A.967.967,0,0,1,73.546,196.506Z" transform="translate(-46.827 -128.475)" fill="#ff8282"/>
    <path id="Path_1289" data-name="Path 1289" d="M8.942,82.935c-1.934-2.387-2.321-5.23-2.15-8.131.124-2.077.591-3.96-1.847-5.255-1.409-.741-1.117-2.533-.974-3.982a12.081,12.081,0,0,1,.365-1.573h0c.591-.73.609-2.332,1.938-1.92,1.113.365.467,1.679.584,2.577a1.551,1.551,0,0,1-.215,1.033c-.493.493-.847-.252-1.321-.15a3.645,3.645,0,0,0,1.493,4.128c1.493,1.058,1.467,2.73,1.175,4.3a11.923,11.923,0,0,0,.277,4.6c.788-.168,1.46-1.157,2.19-.438a2.617,2.617,0,0,1,.551,2.861c-.493.427-.73-.062-1.073-.3a5.113,5.113,0,0,1-.314,2.018C9.442,82.924,9.241,83.077,8.942,82.935Z" transform="translate(-3.85 -46.21)" fill="#ff8282"/>
    <path id="Path_1290" data-name="Path 1290" d="M100.435,152.786c-.365-1.314-1.763-.916-2.555-1.493a1.234,1.234,0,0,1,.788-.65,2.19,2.19,0,0,1,.529-.073c2.617.631,4.971-.664,7.449-1.04a4.651,4.651,0,0,1,.5-.164,4.8,4.8,0,0,0,2.405-1.434c.715-.631,1.5-1.022,2.321-.109a.828.828,0,0,1,.062.5,2.725,2.725,0,0,1-1.547,1.058c-.46.193-.832.423-.686,1.018-.365.493-1.095.27-1.46.748a6.7,6.7,0,0,0-3.084,1.657c-.609.6-1.5.65-2.088,1.518-.547.814-.967-.58-1.551-.792Z" transform="translate(-63.566 -100.364)" fill="#ff8282"/>
    <path id="Path_1291" data-name="Path 1291" d="M17.81,118.493,18.3,118c1.4.08,2.128,1.664,3.595,1.591.555.157.81.639,1.142,1.036.438.482.883.964,1.318,1.46a2.5,2.5,0,0,0,3.9.259c.318-.263.588-.73,1-.23.3.365-.091.679-.365.883a6.281,6.281,0,0,0-1.569,2.358,4,4,0,0,1-2.9-.675c-1.146-.668-1.591-1.854-2.168-2.942C20.569,120.942,18.792,120.259,17.81,118.493Z" transform="translate(-12.718 -81.768)" fill="#ff8282"/>
    <path id="Path_1292" data-name="Path 1292" d="M36.711,161.191a6.65,6.65,0,0,0,1.095,4.1c-.365.3-.529.832-1.015,1.026-.365-.172-.792-.555-1.095-.482-1.288.307-1.547-.427-1.427-1.38a2.57,2.57,0,0,0-1.175-2.42.949.949,0,0,1,.164-.365c0-.642-.631-1.058-.6-1.7a7.521,7.521,0,0,1-.036-.81c.117-1.237,0-2.606,1.6-3.058a3.285,3.285,0,0,1-.332,1.759,2.265,2.265,0,0,0,.916,3.376c.569-.332.314-1.131.792-1.54C36.313,159.947,35.886,161.042,36.711,161.191Z" transform="translate(-22.122 -105.963)" fill="#ff8282"/>
    <path id="Path_1293" data-name="Path 1293" d="M119.667,176.914a8.224,8.224,0,0,0,3.752-4.416c.515-1.5-.328-2.836-.226-4.263.069-.445,0-.942.5-1.215,1.569,3.39,1.715,6.606-1.182,9.438a2.3,2.3,0,0,1-1.927,1.675C119.608,178.3,119.2,177.9,119.667,176.914Z" transform="translate(-77.279 -112.898)" fill="#ff8282"/>
    <path id="Path_1294" data-name="Path 1294" d="M27,161.225l-.405.077c-2.19-.241-2.657.318-2.661,2.883,0,.661.77,1.861-.431,1.916-.836.04-.861-1.241-1.051-2.051-.248-1.051.526-1.843.606-2.8a4.181,4.181,0,0,0,2.65-4.2c-.029-.69.569-1.405.883-2.109.631.478.314,1.033.12,1.569-.255.7-.653,1.391-.135,2.139v.77C25.6,160.276,27.316,160.524,27,161.225Z" transform="translate(-15.637 -105.226)" fill="#ff8282"/>
    <path id="Path_1295" data-name="Path 1295" d="M143.988,192.124c1.12-.668,2.255-1.314,3.354-2.015a8.806,8.806,0,0,0,3.58-4.168.445.445,0,0,1,.533-.036c.467.365.394.832.255,1.314a12.3,12.3,0,0,1-6.73,5.609C144.225,193.194,143.929,192.9,143.988,192.124Z" transform="translate(-92.841 -124.845)" fill="#ff8282"/>
    <path id="Path_1296" data-name="Path 1296" d="M175.842,130.107c.135-.825.777-1.095,1.427-1.46a22.273,22.273,0,0,0,4.307-2.682c-3.438.566-6.664,1.095-9.9,1.62-.515.08-1.146.314-1.485-.288a1.006,1.006,0,0,1,.584-1.46,1.459,1.459,0,0,1,.427.642,1.007,1.007,0,0,0,1.015.226c2.818-.639,5.723-.777,8.511-1.558.931-.259,2.047-.412,2.336.62.365,1.277-1.011,1.161-1.781,1.46h0C179.269,127.8,177.7,129.2,175.842,130.107Z" transform="translate(-109.396 -86.186)" fill="#ff8282"/>
    <path id="Path_1297" data-name="Path 1297" d="M107.76,162.459c.73.285,1.46,1.241,2.066-.241.164-.405.876-.588,1.336-.869.2.522.672.423,1.095.449.628.292,1.777-.314,1.781,1.036-1.358-.584-2.668.752-4.336-.2.73,1.573,1.4,2.785,1.361,4.179-.018.595.033,1.372-.832,1.318-.766-.047-.65-.792-.584-1.3C109.884,164.985,108.432,163.9,107.76,162.459Z" transform="translate(-69.84 -109.297)" fill="#ff8282"/>
    <path id="Path_1298" data-name="Path 1298" d="M91.475,175.461c.956-.635,1.876-1.376,1.726-2.631a2.279,2.279,0,0,0-2.325-2.1c-.46-.029-.88-.321-.788-.8.109-.6.73-.595,1.179-.555a3.069,3.069,0,0,1,2.672,1.909c.438,1.237.73,2.726-.365,3.92a17.719,17.719,0,0,1-1.606,1.434c-.558.226-.942.12-1.026-.544A.81.81,0,0,1,91.475,175.461Z" transform="translate(-58.609 -114.382)" fill="#ff8282"/>
    <path id="Path_1299" data-name="Path 1299" d="M154.453,169.411a2.96,2.96,0,0,1-.365,0c.843-2.332,1.263-4.62-.464-6.8a5.179,5.179,0,0,0-2.81-1.825c-.821-.223-1.095.172-1.047.938-1.04.069-.73-.653-.7-1.2a.971.971,0,0,1,.365-.449,3.055,3.055,0,0,1,2.485.029,2.8,2.8,0,0,1,1.536.923,4.817,4.817,0,0,0,2.865,1.741.3.3,0,0,1-.055.438c-.686.328-1.3.573-.573,1.547.876,1.175.511,2.533.182,3.832C155.062,168.283,155.11,169.458,154.453,169.411Z" transform="translate(-96.029 -108.329)" fill="#ff8282"/>
    <path id="Path_1300" data-name="Path 1300" d="M89.91,207.585c.591-.175,1.391.69,1.825-.365a47.883,47.883,0,0,1,8.577.978,7.4,7.4,0,0,1-6.325.423,1.175,1.175,0,0,1,.555-.325,1.1,1.1,0,0,0-.558.321A6.477,6.477,0,0,1,89.91,207.585Z" transform="translate(-58.504 -138.426)" fill="#ff8282"/>
    <path id="Path_1301" data-name="Path 1301" d="M125.139,189.1c1.12-.73,1.715-1.942,2.584-2.92.248-.277.6-.73,1.062-.438s.12.672-.047,1.069c-1.018,2.463-3.285,3.4-5.405,4.522-1.431.168-1.015-.591-.555-1.215C123.332,189.366,124.325,189.428,125.139,189.1Z" transform="translate(-79.102 -124.729)" fill="#ff8282"/>
    <path id="Path_1302" data-name="Path 1302" d="M133.169,200.485a1.033,1.033,0,0,0,1,.73c-1.88,1.182-4.073.708-6.095,1.131-.365.219-.869.365-1.069-.069-.266-.555.365-.73.69-1.04l1.069-.365a1.051,1.051,0,0,0,.931.255c-.31-.036-.668.022-.927-.259a10.019,10.019,0,0,1,2.92-1.869.73.73,0,0,0,.5.872C131.859,201.047,132.979,200.04,133.169,200.485Z" transform="translate(-82.023 -133.206)" fill="#ff8282"/>
    <path id="Path_1303" data-name="Path 1303" d="M81.279,184.716l-.336.365c-.653,1.2-1.847.781-2.745.923.861.091,1.9-.285,2.737.507a3.339,3.339,0,0,1-3.693.365c-1.062-.511-2.15-.971-3.223-1.46.223-.464.066-1.029.4-1.46.865-.164,1.434.533,2.161.777A8.806,8.806,0,0,0,81.279,184.716Z" transform="translate(-48.413 -123.637)" fill="#ff8282"/>
    <path id="Path_1304" data-name="Path 1304" d="M173,156.117c.887-1.022,2.117-.529,3.19-.752a32.281,32.281,0,0,1,6.011-1.015c.912,0,.985-.467.624-1.161a8.218,8.218,0,0,1,1.245.142c.325.091.785.182.788.62,0,.569-.507.646-.916.653-3.358.051-6.536,1.2-9.854,1.584A1.118,1.118,0,0,1,173,156.117Z" transform="translate(-111.27 -104.115)" fill="#ff8282"/>
    <path id="Path_1305" data-name="Path 1305" d="M140.233,191.592c-.613-.033-.686-.365-.5-.872,1.095-1.274,2.522-2.285,2.92-4.055a.73.73,0,0,1,1.128-.544c.628.321.255.828.047,1.248A12.044,12.044,0,0,1,140.233,191.592Z" transform="translate(-90.087 -124.951)" fill="#ff8282"/>
    <path id="Path_1306" data-name="Path 1306" d="M55.066,133.5h-.73c.113-.245.223-.493.336-.73,1.46-1.215,1.551-1.92.365-2.945-.241-.5-.292-1.19-1.117-1.095.12-1.387,1.825-1.412,2.219-2.555,1.7.482,1.255,1.759.953,2.85a3.661,3.661,0,0,0-.325,2.051,2.7,2.7,0,0,1-.142,1.117C56.332,132.91,56.062,133.647,55.066,133.5Z" transform="translate(-35.649 -86.963)" fill="#ff8282"/>
    <path id="Path_1307" data-name="Path 1307" d="M56.895,177.935a14.168,14.168,0,0,1-3.095-4.745c.1-.4.018-.887.318-1.2,1.234,1.383,1.971,3.314,3.142,4.766l.3.7C57.57,178.165,57.245,178.085,56.895,177.935Z" transform="translate(-35.573 -116.054)" fill="#ff8282"/>
    <path id="Path_1308" data-name="Path 1308" d="M32.819,154.344c-.88-.164-.569-.73-.427-1.245a5.15,5.15,0,0,0,.442-2.464c.77-1.015,1.007-2.661,3.018-2.456-.675,1.044-1.281,1.971-1.887,2.9A4.759,4.759,0,0,0,32.819,154.344Z" transform="translate(-21.87 -100.922)" fill="#ff8282"/>
    <path id="Path_1309" data-name="Path 1309" d="M41.887,161.795c-.277.281-.172.963-.661.923s-.391-.617-.412-1c-.029-.464-.029-.931-.044-1.4a7.067,7.067,0,0,1,.785-3.266c.347.131.547.339.391.73C42.916,159.138,41.423,160.455,41.887,161.795Z" transform="translate(-27.298 -106.566)" fill="#ff8282"/>
    <path id="Path_1310" data-name="Path 1310" d="M123.3,193.694a8.221,8.221,0,0,1-1.945,1.215c-.8.252-.949.821.139,1.033-.1.5-.7.847-.825.526-.391-1.015-1.737-1.766-1-3.131,0,.77.241,1.215,1.058.748.62-.365,1.19-.8,1.785-1.2A.847.847,0,0,0,123.3,193.694Z" transform="translate(-77.264 -129.32)" fill="#ff8282"/>
    <path id="Path_1311" data-name="Path 1311" d="M125.91,154.113c.391-.533,1.139-.2,1.562-.646a2.186,2.186,0,0,1,3.266-.566c1.153.752,2.741,1.04,3.073,2.723a.573.573,0,0,1-.3.438c-1.825-2.277-4.23-2.434-6.832-1.887a.533.533,0,0,1-.77-.062Z" transform="translate(-81.366 -103.618)" fill="#ff8282"/>
    <path id="Path_1312" data-name="Path 1312" d="M61.73,187.467A1.1,1.1,0,0,0,62.6,187l1.029.431c.416.515,1.288.3,1.591.985-.255.343-.763.522-.7,1.077-.4.5-.653,1.3-1.558.766-.285-.489-1.139-.73-.562-1.591C62.832,188.015,62.095,187.8,61.73,187.467Z" transform="translate(-40.609 -125.586)" fill="#ff8282"/>
    <path id="Path_1313" data-name="Path 1313" d="M84.929,188.567c-1.54.1-3.091.281-4.639-.7,1.533-.788,3.244.077,4.646-.73.018.54.365.73.836.792Z" transform="translate(-52.395 -125.675)" fill="#ff8282"/>
    <path id="Path_1314" data-name="Path 1314" d="M120.125,157.08l.77.062c-.423.949-1.653.478-2.223,1.226.562.5,1.642-.215,1.891.861-.956.573-1.949.215-2.92.113-.825.365-.989.047-.73-.708A10.4,10.4,0,0,1,120.125,157.08Z" transform="translate(-75.581 -106.585)" fill="#ff8282"/>
    <path id="Path_1315" data-name="Path 1315" d="M70.324,181.677c.281.6,1.412,1.431-.4,1.46-.73-.04-1.095-.555-1.489-1.066-.288-.442-1.179-.642-.752-1.361.365-.639.971-.478,1.482-.044A2.35,2.35,0,0,0,70.324,181.677Z" transform="translate(-44.316 -121.321)" fill="#ff8282"/>
    <path id="Path_1316" data-name="Path 1316" d="M119.08,163.083l2.92-.113a3.325,3.325,0,0,1,1.431,1.471c-.033.46,0,.945-.5,1.215l-1.726-1.8C120.741,162.955,119.635,163.777,119.08,163.083Z" transform="translate(-77.028 -110.326)" fill="#ff8282"/>
    <path id="Path_1317" data-name="Path 1317" d="M69.9,208.484c-.836-.058-2.27.6-2.318-.515-.062-1.361,1.5-.646,2.339-.88.4.624,1.117-.223,1.529.336a.252.252,0,0,1-.131.365Z" transform="translate(-44.327 -138.344)" fill="#ff8282"/>
    <path id="Path_1318" data-name="Path 1318" d="M123.314,205.09c-.288.511-.978,1.161.365,1.095-.657.73-1.8.047-2.471.883a.653.653,0,0,1-1.073-.161.693.693,0,0,1,.639-1.033C121.766,205.959,122.416,205.185,123.314,205.09Z" transform="translate(-77.641 -137.073)" fill="#ff8282"/>
    <path id="Path_1319" data-name="Path 1319" d="M96.992,198.968c.453-1.022-.23-1.113-.949-1.124a14.7,14.7,0,0,1-4.193-.628c1.489,0,2.974-.036,4.46-.022a1.365,1.365,0,0,1,1.339,1C97.824,198.727,97.507,198.946,96.992,198.968Z" transform="translate(-59.736 -132.057)" fill="#ff8282"/>
    <path id="Path_1320" data-name="Path 1320" d="M147.908,160.976c.1.493-.175,1.095.427,1.431.317.646.8,1.515-.179,1.781-.927.248-.8-.785-.953-1.394-.117-.464-.307-.905-.464-1.354l.2-.208C147.2,160.965,147.5,160.739,147.908,160.976Z" transform="translate(-94.593 -108.996)" fill="#ff8282"/>
    <path id="Path_1321" data-name="Path 1321" d="M55.765,175.538A13.029,13.029,0,0,1,51.8,170.7a.365.365,0,0,1-.1-.569l.084-.066C53.042,171.947,54.714,173.523,55.765,175.538Z" transform="translate(-34.18 -114.828)" fill="#ff8282"/>
    <path id="Path_1322" data-name="Path 1322" d="M43.321,154.511l-.391-.73a7.908,7.908,0,0,1,.423-.967c.266-.438.482-1.128,1.153-.865s.219.934.237,1.427C44.164,153.621,44.222,154.668,43.321,154.511Z" transform="translate(-28.67 -103.29)" fill="#ff8282"/>
    <path id="Path_1323" data-name="Path 1323" d="M88,200.24a39.727,39.727,0,0,0,6.569.661A8.209,8.209,0,0,1,88,200.24Z" transform="translate(-57.291 -133.994)" fill="#ff8282"/>
    <path id="Path_1324" data-name="Path 1324" d="M68.456,189.225c-.4-.511-1.27-.336-1.526-1.055a11.892,11.892,0,0,1,4.726,2.3,7.935,7.935,0,0,1-2.876-.9A.518.518,0,0,1,68.456,189.225Z" transform="translate(-43.911 -126.329)" fill="#ff8282"/>
    <path id="Path_1325" data-name="Path 1325" d="M190.414,150.65a9.314,9.314,0,0,1-5.474-1.46A18.506,18.506,0,0,1,190.414,150.65Z" transform="translate(-118.852 -101.575)" fill="#ff8282"/>
    <path id="Path_1326" data-name="Path 1326" d="M163.94,183.282a10.585,10.585,0,0,1,.409-1.007c.529-1.007.821-.631,1.011.193q-.493,1.051-.993,2.106Z" transform="translate(-105.516 -122.2)" fill="#ff8282"/>
    <path id="Path_1327" data-name="Path 1327" d="M68.447,180.031c-.4-.084-.872-.336-1.182.047-.5.62.631.788.453,1.358-.7-.113-1.27-.431-1.277-1.2a1.038,1.038,0,0,1,.792-.869C67.856,179.14,68.243,179.443,68.447,180.031Z" transform="translate(-43.6 -120.689)" fill="#ff8282"/>
    <path id="Path_1328" data-name="Path 1328" d="M30,128.24l2.168,2.942C30.73,130.736,30.307,129.525,30,128.24Z" transform="translate(-20.459 -88.271)" fill="#ff8282"/>
    <path id="Path_1329" data-name="Path 1329" d="M77.83,205.78a1.791,1.791,0,0,1,.026-.365.584.584,0,0,1,.471-.606c.588-.215.88-1.515,1.825-.493C79.115,204.422,79.009,205.951,77.83,205.78Z" transform="translate(-50.833 -136.336)" fill="#ff8282"/>
    <path id="Path_1330" data-name="Path 1330" d="M61.14,206.828c.058-.489.281-.85.821-.653.628.23.682.785.58,1.365h-.653Z" transform="translate(-40.234 -137.727)" fill="#ff8282"/>
    <path id="Path_1331" data-name="Path 1331" d="M84.17,195.79a11.831,11.831,0,0,1-3.35-.69C81.981,195.071,83.214,194.772,84.17,195.79Z" transform="translate(-52.732 -130.689)" fill="#ff8282"/>
    <path id="Path_1332" data-name="Path 1332" d="M54.287,146.28l-.033,3.985A4.686,4.686,0,0,1,54.287,146.28Z" transform="translate(-35.589 -99.727)" fill="#ff8282"/>
    <path id="Path_1333" data-name="Path 1333" d="M162.727,35.566a1.209,1.209,0,0,0-.234,1.124c-.964,4.135-2.015,8.244-3.033,12.361a30.942,30.942,0,0,0-1.489,5.142,10.834,10.834,0,0,1-.515,2.088c-.42.85-.752,1.314-1.734.606-.693-.5-1.522-.617-1.774.544-.1.463.431,1.15-.4,1.339-.73.168-1.095-.383-1.4-.92-.518-1.19-.876-2.347.686-3.073.223-.15.62,0,.693-.365.018-.1-.288-.175-.453-.259a1.142,1.142,0,0,1-.606-1.566,22.993,22.993,0,0,1,3.248-6.515c.708-1.015.646-2.318,1.551-3.168,1.985-2.839,3.161-6.091,4.69-9.161h0c.365-.212.266-1.095.967-.781.588.252.427.821.215,1.234S163.052,35.176,162.727,35.566Z" transform="translate(-97.749 -27.724)" fill="#ff8282"/>
    <path id="Path_1334" data-name="Path 1334" d="M153.556,83.939c.314.241.365.821.967.73.577-.73-1.642-1.774.062-2.15.73-.164,2.38-1.985,2.766.821,1.577-1.96,1.288-4.23,1.938-6.2.215-.653-.066-1.485.781-1.872.569,1.058-.274,1.938-.365,2.92-.3,1.416-.613,2.828-.883,4.252-.091.482-.668,1.095-.029,1.46.412.237.872-.285,1.252-.558,3.463-2.515,6.934-5.044,10.383-7.555.777-.566,1.6-1.069,2.4-1.6a.281.281,0,0,1,.442,0c.077,1.124-.8,1.595-1.544,2.058-3.456,2.135-6.372,5.026-9.967,6.993-2.456,1.343-2.861,3.168-1.745,5.81.128.062.179.266.365.2a.894.894,0,0,1-.591-.606,3.645,3.645,0,0,1,.248-3.511c.759-.047.759.588.909,1.055.241.759.682,1.073,1.46.763.343-.536.172-.8-.438-.821-.807-.026-1.208-.624-1.65-1.161,1.252-2.471,2.92-2.949,5.172-1.5a8.362,8.362,0,0,1-.956,4.179,5.954,5.954,0,0,0-.781,1.588,2.988,2.988,0,0,1-1.661,2.022h-.12l-.1.066c-.186.234-.31.573-.73.409a2.007,2.007,0,0,0-1.46-.77c-.861-.7-.883.12-1.2.6-.682,1.047-1.157,2.529-2.949,1.825-.748-.953-2.409-1.8-.314-3.077.555-.339.029-.752-.131-1.095a30.573,30.573,0,0,1-1.861-4.85A.73.73,0,0,1,153.556,83.939Z" transform="translate(-98.709 -53.875)" fill="#ff8282"/>
    <path id="Path_1335" data-name="Path 1335" d="M21.54,39.479a5.133,5.133,0,0,1-.792-5.708c.318-.7.73-1.255,1.569-1.281-.73,2.942,1.46,4.744,2.723,6.89a1.752,1.752,0,0,0,1.934.562c1.036-.463-.226-1.361.113-2.051a.5.5,0,0,1,.474-.066c1.095,1.558.985,2.325-.522,3.285a2.394,2.394,0,0,0-.668.788c-.478.117-.883.365-.365.825s.755,1.536,1.854,1.328a4.745,4.745,0,0,1,5.109,2.65c.876,1.723.026,3.088-1.095,4.358a.81.81,0,0,1-.288-.431,1.566,1.566,0,0,1,0-.522c.828-2.555.73-3.135-.755-4.277-.73-.555-1.394-.792-1.887.263-.46.985-1.047.653-1.507.066-1.442-1.843-3.161-3.529-3.449-6.036A4.279,4.279,0,0,0,22.836,37.9a5.157,5.157,0,0,1-1.31-2.453c-.263,1.318.5,2.434.343,3.65A.73.73,0,0,1,21.54,39.479Z" transform="translate(-14.248 -27.466)" fill="#ff8282"/>
    <path id="Path_1336" data-name="Path 1336" d="M141.784,37.969c-.383-.617-.927-1.38,0-1.825s1.095.529,1.409,1.175a9.673,9.673,0,0,1,.365,7.2c-.62,1.245-2.394,1.033-2.964,2.343a6.718,6.718,0,0,1-2.828-.036.54.54,0,0,1,.259-.869c1.569-.445,1.9-2.12,3.029-3,1.668.044,1.682.036,1.029-1.723-.208-.558.095-.909.365-1.31.3-.471.365-.9-.288-1.135C141.835,38.593,141.981,38.21,141.784,37.969Z" transform="translate(-88.812 -29.715)" fill="#ff8282"/>
    <path id="Path_1337" data-name="Path 1337" d="M124,93.514a13.616,13.616,0,0,1,.982-1.288c1.372-1.416,2.113-2.8.989-4.869-.573-1.051-.493-2.449,1.434-2.788,1.193-.212,2.146-1.347,3.507-1.292a4.365,4.365,0,0,1,1.131,2.507.88.88,0,0,1,.08.73c-.8.31-.905-.4-1.095-.821-.5-1.135-1.245-1.146-2.19-.6a5.208,5.208,0,0,0-.92.544c-1.325,1.047-1.208,2.12.328,2.77.993.42,2.04.77,1.894,2.168l-1.46-.628c-.266.474.431.664.321,1.073-.573.423-1.252-.321-1.825.175a3.675,3.675,0,0,0-.81.8,5.985,5.985,0,0,1-1.46,1.6,1.164,1.164,0,0,1-.482.124A.821.821,0,0,1,124,93.514Z" transform="translate(-80.153 -59.716)" fill="#ff8282"/>
    <path id="Path_1338" data-name="Path 1338" d="M46.055,84.419c1.069,1.328,1.175,3.248,2.668,4.317a.452.452,0,0,1-.219.044c-1.515.387-1.73-.839-2.259-1.763-.139.818.588,1.142.945,1.661.7,1.007.818,1.785-.73,1.956a2.226,2.226,0,0,1-1.219-.434,12.811,12.811,0,0,1-1.3-1.255,5.073,5.073,0,0,1-.62-.85A2.884,2.884,0,0,1,46.055,84.419Z" transform="translate(-28.821 -60.443)" fill="#ff8282"/>
    <path id="Path_1339" data-name="Path 1339" d="M59.087,42.1a6.322,6.322,0,0,1-.117-4.529c.467-1.168.026-2.62.785-3.792.318-.5.595-1.245,1.281-1.029.555.172.482.891.434,1.46A19.583,19.583,0,0,0,62,39.9a.675.675,0,0,1-.533,0,2.009,2.009,0,0,1-1.029-1.788c-.047-.339,0-.69-.073-1.047-.208.234-.106.544-.219.792a7.259,7.259,0,0,0-.518,2.92A1.524,1.524,0,0,1,59.087,42.1Z" transform="translate(-38.619 -27.609)" fill="#ff8282"/>
    <path id="Path_1340" data-name="Path 1340" d="M170.918,58.616c-.241-1.018.529-1.909.365-2.92.865-3.613,1.759-7.215,2.555-10.839.142-.646.609-1.022.821-1.577a5.338,5.338,0,0,1-.453,3.6c-1.139,3-1.438,6.2-2.314,9.248A5.212,5.212,0,0,1,170.918,58.616Z" transform="translate(-109.918 -34.318)" fill="#ff8282"/>
    <path id="Path_1341" data-name="Path 1341" d="M124.25,72.46c-1.372.577-2.777,1.46-4.274.982-2.814-.861-3.307-4.1-1.095-6.39a2.163,2.163,0,0,1,2.3.215,1.544,1.544,0,0,0,1.956.077.314.314,0,0,1,.46.026.73.73,0,0,1-.018.515,2.43,2.43,0,0,1-2.631.646c-.774-.168-1.588-.427-2.073.474a2.1,2.1,0,0,0,.2,2.369,1.916,1.916,0,0,0,2.19.85A4.688,4.688,0,0,1,124.25,72a.314.314,0,0,1,.091.3A.979.979,0,0,1,124.25,72.46Z" transform="translate(-76.024 -49.268)" fill="#ff8282"/>
    <path id="Path_1342" data-name="Path 1342" d="M135.857,67.639l-.077-.427a1.231,1.231,0,0,1,.591-1.077c1.135-.8,1.8-2.073,2.92-2.89.693-.511.365-1.175.252-1.825.172-1.766,1.8-1.6,2.88-2.19.248.774-.569,1.347-.4,2.106a30.269,30.269,0,0,1-4.686,5.347C136.9,67.124,136.521,67.635,135.857,67.639Z" transform="translate(-87.63 -44.447)" fill="#ff8282"/>
    <path id="Path_1343" data-name="Path 1343" d="M133.342,51.2l-.412-.073a8.035,8.035,0,0,1,2.139-2.19,5.658,5.658,0,0,0,2.467-4.142,7.784,7.784,0,0,1,1.255-3.507c.365.128.318.46.391.73a11.924,11.924,0,0,1-1.062,4.354c.04.281.365.682.051.825-1.409.639-1.894,2.394-3.474,2.8C134.594,50.812,134.2,51.275,133.342,51.2Z" transform="translate(-85.824 -33.054)" fill="#ff8282"/>
    <path id="Path_1344" data-name="Path 1344" d="M35.975,50.058c0-.453-1.708-1.248.478-1.292,1.8-.037.912-1.613.566-2.639-.274-.6-.153-.96.555-.693.438.161.653.653.978.989.653.777.405,1.657.277,2.518C38.165,50.037,37.4,50.9,35.975,50.058Z" transform="translate(-23.85 -35.629)" fill="#ff8282"/>
    <path id="Path_1345" data-name="Path 1345" d="M66.714,52.33a2.153,2.153,0,0,0,.343,0,15.346,15.346,0,0,0,4.493,5.54c.73.5,1.328.774,2.117.3a.551.551,0,0,1,.752-.051c-.562,1.825-1.989,1.073-3.164,1.095a7.263,7.263,0,0,0-1.923-.248c-.584-2.285-2.474-4.015-2.781-6.409Z" transform="translate(-43.67 -40.065)" fill="#ff8282"/>
    <path id="Path_1346" data-name="Path 1346" d="M43.425,81.79c-1.292.343-1.661,1.708-2.657,2.409-.474.336.456.7.464,1.175-.42.624-.949,1.237-1.741.788-.672-.365-.456-1.146-.325-1.8a2.077,2.077,0,0,1,.73-1.391c.85-.259,1.482-.693,1.332-1.73.712-1.485,1.609-1.007,2.533-.245l.055.4Z" transform="translate(-26.191 -57.814)" fill="#ff8282"/>
    <path id="Path_1347" data-name="Path 1347" d="M171.64,35.23c-1.208,3.234-1.938,6.712-4.69,9.161C168.428,41.285,169.68,38.066,171.64,35.23Z" transform="translate(-107.428 -29.206)" fill="#ff8282"/>
    <path id="Path_1348" data-name="Path 1348" d="M150.455,90.7a4.008,4.008,0,0,1-.3-2.19c.73-.307.577-1.347,1.332-1.642.1.686.365,1.208,1.164,1.252.263.5-.047.8-.365,1.095-1.533.646-1.095,1.745-.668,2.847l-.124.109C150.4,92.2,150.838,91.158,150.455,90.7Z" transform="translate(-96.754 -61.999)" fill="#ff8282"/>
    <path id="Path_1349" data-name="Path 1349" d="M33.382,38.348a8.525,8.525,0,0,1-2.1-2.89.661.661,0,0,1,.033-.843.471.471,0,0,1,.774.088c.661,1.095,1.934,1.675,2.314,2.967C34.144,38.016,33.721,38.118,33.382,38.348Z" transform="translate(-21.187 -28.711)" fill="#ff8282"/>
    <path id="Path_1350" data-name="Path 1350" d="M207.285,68.4l-.365-.109c.828-1.285,2.434-1.653,3.336-2.847.405-.332.843-.894,1.361-.434.595.529-.055.945-.365,1.321a8.051,8.051,0,0,0-1.018,1.237l-.365.434c-.27.285-.4.73-.876.777a.485.485,0,0,1-.365-.226C208.245,67.774,207.679,68.836,207.285,68.4Z" transform="translate(-132.81 -48.006)" fill="#ff8282"/>
    <path id="Path_1351" data-name="Path 1351" d="M62.7,93.14l.405.084c.777,1.858.047,3.46-.847,5.036a7.036,7.036,0,0,0-1.018,1.066c-.15.365-.518.642-.825.464s-.186-.668.036-.938a6.96,6.96,0,0,0,1.569-3.836Z" transform="translate(-39.659 -65.981)" fill="#ff8282"/>
    <path id="Path_1352" data-name="Path 1352" d="M59.94,55.754l.109-1.5a.39.39,0,0,1,.464.091A43.33,43.33,0,0,0,64.2,61.557a.664.664,0,0,1-.277.42l-2.1-1.953Q60.878,57.889,59.94,55.754Z" transform="translate(-39.472 -41.259)" fill="#ff8282"/>
    <path id="Path_1353" data-name="Path 1353" d="M86.73,67.024H86c1.609-1.77,2.5,0,3.609.73.117.631.23,1.263.347,1.894.485.456.365.92.018,1.383-.219.365-.223.872-.73,1.011a1.2,1.2,0,0,1-.42-.7C88.9,69.531,88.591,67.9,86.73,67.024Z" transform="translate(-56.021 -48.912)" fill="#ff8282"/>
    <path id="Path_1354" data-name="Path 1354" d="M180.56,31.358c.058-.456.1-.912.175-1.365.058-.325.332-.73-.1-.887-.208-.069-.558.288-.843.449A6.986,6.986,0,0,1,181.3,26.27c1.175.865.124,1.8.08,2.7A3.272,3.272,0,0,1,180.56,31.358Z" transform="translate(-115.581 -23.516)" fill="#ff8282"/>
    <path id="Path_1355" data-name="Path 1355" d="M216,66.014c0-1,1.259-1.248,1.314-2.237-.467-.471-.843.2-1.277.113.255-.9,1.223-.956,1.777-1.5.807.3.73.832.365,1.434C217.412,64.518,216.92,65.489,216,66.014Z" transform="translate(-138.576 -46.453)" fill="#ff8282"/>
    <path id="Path_1356" data-name="Path 1356" d="M183.957,26.192c-.321-.891.471-1.825-.08-2.7-.117-.449.2-.73.409-1.051.679-.748.759-.748,1.095,0C185,23.75,184.854,25.108,183.957,26.192Z" transform="translate(-118.161 -20.73)" fill="#ff8282"/>
    <path id="Path_1357" data-name="Path 1357" d="M37.226,43.631c-.139-.949.31-1.011,1.022-.679.558.562,1.4.9,1.485,1.825-.595.343-.73-1.712-1.533-.3a.474.474,0,0,0-.328-.066Z" transform="translate(-25.032 -33.993)" fill="#ff8282"/>
    <path id="Path_1358" data-name="Path 1358" d="M37.08,56.317c1.248.387,2.073-.31,2.854-1.117C39.208,57.069,38.321,57.415,37.08,56.317Z" transform="translate(-24.955 -41.888)" fill="#ff8282"/>
    <path id="Path_1359" data-name="Path 1359" d="M186.095,20.495c-.365-.584-.73-.157-1.095,0a1.737,1.737,0,0,1,.077-.522c.237-.515.474-1.409,1.095-1.12C186.876,19.166,186.518,19.944,186.095,20.495Z" transform="translate(-118.89 -18.77)" fill="#ff8282"/>
    <path id="Path_1360" data-name="Path 1360" d="M204,75.183c-.4,1.135-1.515,1.741-2.055,2.774-.084.128-.168.255-.248.365-.785.73-.788,2.161-2.19,2.3a.865.865,0,0,1-.215-.467c1-2.153,2.19-4.15,4.485-5.164Z" transform="translate(-127.965 -54.455)" fill="#ff8282"/>
    <path id="Path_1361" data-name="Path 1361" d="M172.542,123.656l-.752.365c.033-.208.062-.42.091-.628l1.069-1.825.73-.409C173.691,122.2,172.666,122.726,172.542,123.656Z" transform="translate(-110.501 -83.775)" fill="#ff8282"/>
    <path id="Path_1362" data-name="Path 1362" d="M38.032,104.928l.365,1.365a4.084,4.084,0,0,1-2.321,1.584c.245.277.617.135.872.31a1.566,1.566,0,0,1,.365.31c.314.573,1.226.474,1.38,1.226-1.168.7-2.529.423-3.781.73-.858.223-1-.854-1.551-1.252-.792-.963-1.825-1.8-1.646-3.252.142-.828.318-1.617,1.42-.861,1.46,1.281,1.737,1.27,3.547-.113a1.562,1.562,0,0,1,.96-.365.6.6,0,0,1,.391.318Z" transform="translate(-21.535 -73.265)" fill="#ff8282"/>
    <path id="Path_1363" data-name="Path 1363" d="M61.083,108.236c-.223-.464-.2-.847.336-1.066a1.825,1.825,0,0,1,1.394,1.142A9,9,0,0,1,61.55,113.1c1.007-.106,1.628,0,1.58,1.5a5.671,5.671,0,0,1-1.781,3.825,1.825,1.825,0,0,1-.036.489c-.2.453-.482.693-.974.365a1.879,1.879,0,0,1-.033-2.15,2.138,2.138,0,0,0-.31-3c.2-1.62,1.526-2.781,1.8-4.38C61.926,109.006,62.313,108.261,61.083,108.236Z" transform="translate(-39.499 -74.89)" fill="#ff8282"/>
    <path id="Path_1364" data-name="Path 1364" d="M34.892,116.32a2.1,2.1,0,0,0,2.6.73,3.536,3.536,0,0,1,2.449.117c.307.536,2.19-.307,1.2,1.365a2.226,2.226,0,0,0-2.219,1.029c-1.7-.577-3.609.54-5.244-.631.066-.339.332-.536.54-.781C34.76,117.663,34.432,116.842,34.892,116.32Z" transform="translate(-22.796 -80.701)" fill="#ff8282"/>
    <path id="Path_1365" data-name="Path 1365" d="M48.253,94.521l-.427-.2c-.212-1.026.522-1.263,1.223-1.215s0-.46.288-.493c.675-.109,1.558-.124.555-1.095-.7-.668-1.46-1.292-1.372-2.405.029-.365.139-.8.511-.872.485-.1.547.394.58.73A2.634,2.634,0,0,0,51.435,91.2,1.835,1.835,0,0,1,50,93.755,15.191,15.191,0,0,0,48.253,94.521Z" transform="translate(-31.755 -62.858)" fill="#ff8282"/>
    <path id="Path_1366" data-name="Path 1366" d="M42.656,111.043l-.365-.018c-.58-.646-1.536-.073-2.131-.668.971-.6,2.46-.336,2.974-1.737l.65.219c.449.047,1.073-.077,1.164.518.08.533-.551.449-.876.646a16.6,16.6,0,0,0-1.416,1.04Z" transform="translate(-26.911 -75.811)" fill="#ff8282"/>
    <path id="Path_1367" data-name="Path 1367" d="M28.136,118.268l-.876.365c-.423,0-.493.328-.562.646l-1.131-.73c-.748-.755-2.27-.92-1.938-2.507.894-.365,1.88.872,2.737-.157a.515.515,0,0,1,.427.157c.248.394.157.9.434,1.285C27.432,117.75,27.954,117.845,28.136,118.268Z" transform="translate(-16.383 -80.423)" fill="#ff8282"/>
    <path id="Path_1368" data-name="Path 1368" d="M52.907,131.66l1.314-.88c.453.774-.168,1.336-.2,1.971-.365.533-.825,1.011-1.423.4C52.075,132.616,52.327,132.061,52.907,131.66Z" transform="translate(-34.629 -89.884)" fill="#ff8282"/>
    <path id="Path_1369" data-name="Path 1369" d="M47.782,122.022c-.533-1.285.777-1.237,1.307-1.661s.814.1.912.631A2.268,2.268,0,0,1,47.782,122.022Z" transform="translate(-31.672 -83.169)" fill="#ff8282"/>
    <path id="Path_1370" data-name="Path 1370" d="M54.329,193.878c.161.876-.109,1.3-1.062,1.018-.15-.522-.526-1.095-.409-1.551.449-1.755-.562-2.672-1.788-3.522,0-.858,0-.858,1.46-.339a7.782,7.782,0,0,0,1.241.7c.814.292,1.168.672.434,1.394C53.355,192.411,53.6,193.152,54.329,193.878Z" transform="translate(-33.839 -126.938)" fill="#ff8282"/>
    <path id="Path_1371" data-name="Path 1371" d="M47.978,184.425c-.434.318-1.175-.675-1.46.339a10.446,10.446,0,0,1-2.555-2.529c-.1-.774.131-1.223,1.015-1.026C45.463,182.775,46.916,183.425,47.978,184.425Z" transform="translate(-29.313 -121.879)" fill="#ff8282"/>
    <path id="Path_1372" data-name="Path 1372" d="M30.561,189.223c-.869-.2-1.9-.259-2.219-1.391a.4.4,0,0,1,.573-.449c.963.409,2.19.5,2.781,1.35C31.973,189.129,31.053,189.143,30.561,189.223Z" transform="translate(-19.399 -125.802)" fill="#ff8282"/>
    <path id="Path_1373" data-name="Path 1373" d="M160,120.578c1.62.208,2.106-1.015,2.453-2.153.15-.5-.073-1.095.708-1.095s.861.482.839,1.073c-.887.839-1.434,1.938-2.292,2.836s.617,1.7.869,2.62a4.105,4.105,0,0,1-.047.42A3.629,3.629,0,0,1,160,120.578Z" transform="translate(-103.014 -81.342)" fill="#ff8282"/>
    <path id="Path_1374" data-name="Path 1374" d="M48.708,166.061l.1.569c-.069.471-.026.985-.526,1.277-.909-.891-.923-2.15-1.321-3.252-.128-.347-.212-.909.383-.989.46-.066.73.3.887.73C48.416,164.937,48.216,165.608,48.708,166.061Z" transform="translate(-31.171 -110.763)" fill="#ff8282"/>
    <path id="Path_1375" data-name="Path 1375" d="M75.894,205.539l-.471.606c-.431-.3-1.285,1.131-1.423-.365l1.12-.73A.861.861,0,0,1,75.894,205.539Z" transform="translate(-48.401 -137.048)" fill="#ff8282"/>
    <path id="Path_1376" data-name="Path 1376" d="M163.354,149.079l-2.5-2.318a3.748,3.748,0,0,1-1.759-3.482.861.861,0,0,1,1.058-.73c.839.186,1.825.161,2.19,1.241.263.708.788.609,1.434.682,1.095.124,2.693-.307,2.92,1.566.051.945-.606.646-1.073.573-.365-.058-.668-.54-1.12-.2A3.186,3.186,0,0,0,163.354,149.079Z" transform="translate(-102.404 -97.343)" fill="#ff8282"/>
    <path id="Path_1377" data-name="Path 1377" d="M56.41,143.725a2.252,2.252,0,0,0,1.124-1.339c1.069-.467,1.325.657,1.982,1a12.1,12.1,0,0,0,1.131.934,1.416,1.416,0,0,1,.427.894c-.179,1.3-1.026,1.015-1.945.85.916.752,1.883-.164,2.745.139.73.146,1.46.3,1.653-.788a1.5,1.5,0,0,1,1.405-1.23c.777.281,1.6.526,1.383,1.639-.179,2.007-.964,3.5-3.062,4.164-1.522.485-2.405,1.752-3.062,3.438-1.153-1.058-.993-2.511-1.46-3.65-.1-.245.3-.693-.215-.869a.679.679,0,0,0-.507.08.606.606,0,0,0-.259.912c.23.391.755.887,0,1.139-.522.179-.533-.522-.7-.865A8.365,8.365,0,0,1,56.41,143.725Z" transform="translate(-36.994 -97.182)" fill="#ff8282"/>
    <path id="Path_1378" data-name="Path 1378" d="M65.533,143.959a1.825,1.825,0,0,1-1.095-.73c-.365-.807-.536-1.536.653-1.759.73,1.438,1.89.241,2.828.427a.558.558,0,0,1,.31.365,1.365,1.365,0,0,1-.237.672c.2,0,.31-.212.507-.241.628-.1,1.288-.5,1.825.2.307,1.036,1.825,1.219,1.785,2.5l-.631-.077c-.186-.81-.588-1.383-1.518-1.376C68.486,144.718,67.026,145.379,65.533,143.959Z" transform="translate(-42.157 -96.672)" fill="#ff8282"/>
    <path id="Path_1379" data-name="Path 1379" d="M91.744,156.171l-.73.339H88.175c-.54,0-1.095.036-1.095-.763C88.657,155.573,90.266,155.12,91.744,156.171Z" transform="translate(-56.707 -105.582)" fill="#ff8282"/>
    <path id="Path_1380" data-name="Path 1380" d="M91.725,155.762l-4.675-.42c.5-.642,1.215-.2,1.825-.365a3.843,3.843,0,0,1,2.89.4h0c.142.055.2.124.161.2s-.077.124-.12.124Z" transform="translate(-56.688 -105.173)" fill="#ff8282"/>
    <path id="Path_1381" data-name="Path 1381" d="M94.824,154.882l-2.894-.4a1.135,1.135,0,0,0-.04-.332C92.9,154.269,94.12,153.612,94.824,154.882Z" transform="translate(-59.762 -104.683)" fill="#ff8282"/>
    <path id="Path_1382" data-name="Path 1382" d="M81.4,199.261c-.365-.628-.533-1.241-.029-1.8.066-.069.427-.029.464.051C82.131,198.17,81.736,198.706,81.4,199.261Z" transform="translate(-52.882 -132.204)" fill="#ff8282"/>
    <path id="Path_1383" data-name="Path 1383" d="M69.817,192.235c-.365-.036-.781,0-1.047-.347-.259-.792.252-.832.81-.828l.325.343C69.974,191.691,70.237,192,69.817,192.235Z" transform="translate(-45.035 -128.164)" fill="#ff8282"/>
    <path id="Path_1384" data-name="Path 1384" d="M15.372,85.351c-.931,1.8-1.92,1.164-2.92.073-.624.077-.562-.27-.412-.668a2.87,2.87,0,0,0-.277-1.588c-.12-.434.146-1.095-.478-1.252-.712-.186-.894.416-1.095.945-.1.281-.266.6-.646.471a.993.993,0,0,1-.708-.971c.047-1.5-.551-2.92-.2-4.5.405-1.854.453-3.734-1.766-4.814-1-.493-1.442-4.146-.741-5.018.288-.365.62-.438.766.095s.172,1.095.843,1.266c.113.245.23.489.343.73A19.731,19.731,0,0,1,10.3,72.695a1.588,1.588,0,0,0,2.358.533,1.511,1.511,0,0,0,.365-2.234A7.114,7.114,0,0,0,11.664,68.7h0c.036-1.161.281-1.226,1.62-.445a2.555,2.555,0,0,1,.405.416,12.457,12.457,0,0,0,1.912,2.35c.967.785.547,2.011.613,3.066a10.669,10.669,0,0,1-.31,1.953,9.321,9.321,0,0,1-.124,1.686c-.942,1.522-.069,3.15-.259,4.715a3.073,3.073,0,0,0,.423,2.047C16.405,85.085,15.956,85.351,15.372,85.351Z" transform="translate(-5.08 -49.849)" fill="#ff8282"/>
    <path id="Path_1385" data-name="Path 1385" d="M139.034,145.014c.635.825.668,2.044,1.7,2.609.409,1.3,1.536,2.069,2.321,3.091.4.522.73.945.27,1.558-1.095.383-1.985.339-2.624-.891a2.847,2.847,0,0,0-1.661-1.3c-.788-.821-1.712-.5-2.624-.31h0l-.971.255a5.531,5.531,0,0,0-6.237-2.387c-.982-.19-.474-.679-.1-.894a20.868,20.868,0,0,1,2.241-.989c.456-.42,1-.223,1.526-.248a3.459,3.459,0,0,0,2.77-.989C137.195,142.686,137.808,142.785,139.034,145.014Z" transform="translate(-83.099 -97.793)" fill="#ff8282"/>
    <path id="Path_1386" data-name="Path 1386" d="M143.752,137.321a12.818,12.818,0,0,0-1.095-1.164c-.467-.365-1.128-.529-1.39.113-1.069,2.613-3.161,2.088-5.2,1.8V137.7c.894-.865,2.077-.332,3.08-.639.675-.343.682-.974.69-1.606a1.19,1.19,0,0,1,.179-.453c.7-.759,2.128-.916,2-2.376.347-.755,1.325-.584,1.759-1.2a.923.923,0,0,1,.325-.3l2.223,2.763c-.558.4-1.022-.23-1.529-.088-.325-.27-.653-.536-.982-.8a.642.642,0,0,0-1.047.73Q143.252,135.51,143.752,137.321Z" transform="translate(-87.818 -90.1)" fill="#ff8282"/>
    <path id="Path_1387" data-name="Path 1387" d="M131.451,142.575c-1.153.7-2.4.365-3.624.336-.912-.6-1.547-.186-2.15.536a3.054,3.054,0,0,1-2.588,1.358l3.577-2.686c.27-.2.1-.42.044-.635a.81.81,0,0,1,.788-.318c1.6.281-.259-.58.223-.661.237-.365.73-.489.836-.971a1.274,1.274,0,0,1,.708-.186c.938.139,2.135-.365,2.58,1.026l-.029.383C130.944,141.214,131.36,141.929,131.451,142.575Z" transform="translate(-79.575 -95.325)" fill="#ff8282"/>
    <path id="Path_1388" data-name="Path 1388" d="M99.911,155.262a.5.5,0,0,1-.04-.325c1.942.7,3.759-.055,5.591-.511a8.584,8.584,0,0,1,2.858-.212C105.553,154.795,102.918,156.484,99.911,155.262Z" transform="translate(-64.822 -104.742)" fill="#ff8282"/>
    <path id="Path_1389" data-name="Path 1389" d="M32.638,169.017c-1.734-1.011-1.737-1.036-.405-1.807.1.6.693.807.978,1.226C33.653,169.064,33.368,169.323,32.638,169.017Z" transform="translate(-21.273 -113.018)" fill="#ff8282"/>
    <path id="Path_1390" data-name="Path 1390" d="M150,159.748c.588-.759,1.555-.412,2.325-.73.883-.365.04.693.3,1.026a6.8,6.8,0,0,0-2.624-.3Z" transform="translate(-96.664 -107.768)" fill="#ff8282"/>
    <path id="Path_1391" data-name="Path 1391" d="M101,209.846c.821-.88.821-.88,2.555-.266a6.549,6.549,0,0,1-2.555.27Z" transform="translate(-65.547 -139.651)" fill="#ff8282"/>
    <path id="Path_1392" data-name="Path 1392" d="M131.914,203.094c.288-.073.569-.168.861-.219.383-.069.73-.558,1.135-.2a.73.73,0,0,1,.037.646c-.245.54-.755.507-1.241.445a1.135,1.135,0,0,1-.8-.668Z" transform="translate(-85.176 -135.457)" fill="#ff8282"/>
    <path id="Path_1393" data-name="Path 1393" d="M63.045,139.633c-1.164-.15-1.193.617-1.153,1.434-.7-.3-.934-1.2-1.752-1.354.1-.274.2-.551.3-.825a.942.942,0,0,0,.854-.682c1.642-.139,3.314-.442,4.744.73a.515.515,0,0,1-.234.471C64.884,139.5,64.02,140.268,63.045,139.633Z" transform="translate(-39.599 -94.51)" fill="#ff8282"/>
    <path id="Path_1394" data-name="Path 1394" d="M101.207,109.4v1.095a1.053,1.053,0,0,0,1.46.04.73.73,0,0,1,.978.12c.365.365.281.73.088,1.15a2.086,2.086,0,0,1-1.376,1.314c-.46.117-.956.142-1.27.58a1.855,1.855,0,0,1-2.748-.069,2.843,2.843,0,0,0-1.46-.635,1.5,1.5,0,0,1-1.285-1.7c.139-1.022.854-.682,1.518-.442s.872-.226.964-.73a6.662,6.662,0,0,0,.022-1.095c.022-2.383.438-2.712,2.814-2.219C101.864,107.575,101.441,108.5,101.207,109.4Z" transform="translate(-62.104 -74.536)" fill="#ff8282"/>
    <path id="Path_1395" data-name="Path 1395" d="M101.412,70.982c-.891.234-1.591.212-1.387-1.029A2.978,2.978,0,0,0,99.85,67.5c-.248-.489-.675-1.036-.234-1.489a1.455,1.455,0,0,1,1.8-.036h0a3.024,3.024,0,0,0,1.77-.062c1.46-.328,2.1.365,1.741,1.759-.029.117-.142.23-.131.336C105.018,70.54,103.65,71.27,101.412,70.982Z" transform="translate(-64.547 -48.542)" fill="#ff8282"/>
    <path id="Path_1396" data-name="Path 1396" d="M144.234,120.348l-.055.423a1.154,1.154,0,0,1-1.387-.832c-.365-.843-.949-.679-1.58-.588a2.53,2.53,0,0,0-3.788-.193c-.314.193-.631.387-.993.1a.949.949,0,0,1,.113-1.051c.128-.471.255-.945.387-1.42.54-.909,1.42-1.551,1.96-2.463,1.095-.438,1.792.2,2.423.963a37.091,37.091,0,0,0,2.92,5.062Z" transform="translate(-87.978 -79.342)" fill="#ff8282"/>
    <path id="Path_1397" data-name="Path 1397" d="M65.927,104.33c-1.394,3.091.328,5.109,2.431,6.985l.46,1a10.437,10.437,0,0,1,.5,3.89c-.124.912-.442,1.675-1.628,1.2-1.558-.1-3.168.186-4.628-.628l-.139-.117c.814-.923,1.869-1.551,2.332-2.887.248-.712,1.248-.142,1.606.628.252.54-.124,1.219.365,1.719a3.687,3.687,0,0,0-.471-4.817c-1.212-1.35-2.157-2.763-1.985-4.682C64.675,105.615,64.307,104.469,65.927,104.33Z" transform="translate(-41.365 -73.087)" fill="#ff8282"/>
    <path id="Path_1398" data-name="Path 1398" d="M110.86,116.283c.485-.682,1.5-.405,1.989-1.095.281-.4.631-.836.365-1.3-.365-.606-.69,0-1.022.139-.657.274-1.186.281-1.281-.613.292-.047.839-.084.843-.15.172-2.92,2.376-1.825,3.92-2.007h.365c.193.65-.536.836-.679,1.347.646.128,1.029-.54,1.624-.511a1.058,1.058,0,0,1,.974.748,1.568,1.568,0,0,0,.047.255.675.675,0,0,1-.212.445c-.464.153-1-.124-1.431.226-1.387,1.332-1.905-.106-2.664-1.011.175,2.631-.266,3.263-2.4,3.65a.277.277,0,0,1-.442-.12Z" transform="translate(-71.808 -77.448)" fill="#ff8282"/>
    <path id="Path_1399" data-name="Path 1399" d="M100.083,95.422c-.555-.595-.788-1.274-.113-1.876a4.573,4.573,0,0,0,1.095-2.066c.679.529.876,1.825,2.139.668.445-.405,1.095,1.2,1.708,1.825s.237,1.376-.431,1.865c-.544.4-1.347.526-1.588-.1-.555-1.46-.993-.066-1.46-.044C101.1,95,100.748,94.418,100.083,95.422Z" transform="translate(-64.63 -64.927)" fill="#ff8282"/>
    <path id="Path_1400" data-name="Path 1400" d="M100.768,112.873l.449.106c-1,1.285-2.131,1.515-3.394.405a3.162,3.162,0,0,0-1.5-.5,1.879,1.879,0,0,1-1.285-2.442c.212-1.066.891-.861,1.668-.456s.774-.3.8-.752c.036-.661-.084-1.332,0-1.985.15-1.263,1.223-1.693,2.945-1.252a.263.263,0,0,1-.036.456c-2.288-.226-2.438-.066-2.423,2.234,0,1.164.153,2.485-1.825,1.734-.909-.343-.781.471-.577.982C96.074,112.647,99.549,113.61,100.768,112.873Z" transform="translate(-61.716 -74.039)" fill="#ff8282"/>
    <path id="Path_1401" data-name="Path 1401" d="M134.478,93.016c-.591-.876-1.095-1.825-2.456-1.591-.69.113-.836-.562-1.007-1.058-.259-.73-.453-1.631.226-2.153.529-.409.953-1.128,1.785-1.095a1.025,1.025,0,0,1,.08,1.026c-.558,1.77-.146,2.383,1.781,2.423.847,0,1.46.1,1.332,1.153a3.821,3.821,0,0,0-.464,1.507.577.577,0,0,1-.5.42Z" transform="translate(-84.456 -62.156)" fill="#ff8282"/>
    <path id="Path_1402" data-name="Path 1402" d="M76.4,139.494a15.771,15.771,0,0,1-1.927.263c-1.423.026-.464-.584-.237-.993,1.047-1.259,2.872-1.095,4.015-2.212l.365-.332c.489,0,1.12-.412,1.347.365.164.562-.365.788-.7,1.124A19.9,19.9,0,0,1,76.4,139.494Z" transform="translate(-48.215 -93.269)" fill="#ff8282"/>
    <path id="Path_1403" data-name="Path 1403" d="M142.986,104.546l.365-.3c1.026.365,1.825,1.263,2.949,1.42l.606.438c-.022.467.365,1.241-.73.891-.4-.131-.759-.836-1.223-.288s0,.985.307,1.46a2.993,2.993,0,0,1,.277.828,4.315,4.315,0,0,0-2.555-.708,3.854,3.854,0,0,1,.365-1.825C143.673,105.728,142.932,105.217,142.986,104.546Z" transform="translate(-92.205 -73.036)" fill="#ff8282"/>
    <path id="Path_1404" data-name="Path 1404" d="M104.87,70.651c.084-.088.182-.255.248-.245,2.555.478,2.617-1.35,3.011-3.066.339-1.482-.285-1.734-1.46-1.533-.628.106-1.252.558-1.785-.172.88-.153,1.759-.336,2.646-.456,1.128-.15,1.595.438,1.365,1.485a9.794,9.794,0,0,0-.591,3.5c.077.584-.624.788-1.186.865H106.8C106.224,70.508,105.5,70.84,104.87,70.651Z" transform="translate(-68.004 -48.21)" fill="#ff8282"/>
    <path id="Path_1405" data-name="Path 1405" d="M132.145,131.3c.332.891-.365.752-.832.818-.766.431-1.336-.1-1.956-.4-.365-.285-.7-.569-.529-1.095l.4-.091c.664.288.923.23,1.146-.639.314-1.215-.117-2.672,1.033-3.65.478.967.051,1.978.161,2.96C131.324,130.024,132.24,130.538,132.145,131.3Z" transform="translate(-83.188 -87.007)" fill="#ff8282"/>
    <path id="Path_1406" data-name="Path 1406" d="M129.93,107.972l.051-.405a.931.931,0,0,1,.288-.2c2.445-1.073,2.555-2.321.365-4.186.807-1.328,1.46.135,2.19.128.226.471.456.942.686,1.412.807,1.588-.234,2.613-1.208,3.54A1.525,1.525,0,0,1,129.93,107.972Z" transform="translate(-83.918 -72.002)" fill="#ff8282"/>
    <path id="Path_1407" data-name="Path 1407" d="M80.26,106.36c.609.365.69,1.237,1.423,1.489.894,1.018,2.19.365,3.321.836-.555.281-1.033.595-1.117,1.23l-.675.46a2.671,2.671,0,0,0-3.172-1.336c-.453-.573-.963-.2-1.46-.088a.963.963,0,0,1-.442-1.139C78.533,106.9,79.482,106.765,80.26,106.36Z" transform="translate(-51.011 -74.376)" fill="#ff8282"/>
    <path id="Path_1408" data-name="Path 1408" d="M78.916,130.265a7.372,7.372,0,0,1-4.015,2.212l-.12-.157c-.091-.365.427-.365.391-.7a1.034,1.034,0,0,1,.033-.314,1.533,1.533,0,0,0,1.394-1.9c-.106-1.066-.175-2.131-.263-3.2a3.266,3.266,0,0,1,.679,2.723C76.84,130.655,77.438,131.027,78.916,130.265Z" transform="translate(-48.89 -86.982)" fill="#ff8282"/>
    <path id="Path_1409" data-name="Path 1409" d="M127.409,111.622c2.248.81,3.522-.365,3.566-3.252a2.094,2.094,0,0,1-.2,3.011c-.861.949-1.675,1.825-3.062.92a3.089,3.089,0,0,0-1.748-.336C126.34,111.4,126.916,111.691,127.409,111.622Z" transform="translate(-81.397 -75.653)" fill="#ff8282"/>
    <path id="Path_1410" data-name="Path 1410" d="M117.021,129.967c-.4.365-.8.7-1.2,1.055-.693.628-1.255.577-1.664-.31l2.106-1.861a.787.787,0,0,1,1.095.062C117.623,129.27,117.291,129.657,117.021,129.967Z" transform="translate(-73.904 -88.538)" fill="#ff8282"/>
    <path id="Path_1411" data-name="Path 1411" d="M101,99.089c0-.234.036-.471.036-.708,0-.584.124-1.164.825-1.124s.661.73.661,1.241a4.614,4.614,0,0,1-.161.876A1.164,1.164,0,0,1,101,99.089Z" transform="translate(-65.547 -68.594)" fill="#ff8282"/>
    <path id="Path_1412" data-name="Path 1412" d="M101,65.451c-1.4-.1-2.252.058-1.226,1.763a2.312,2.312,0,0,1-.168,2.219c-.241-.6.117-1.318-.365-1.869h0c-.069-.226-.128-.46-.215-.675-.255-.631-.482-1.376.128-1.8a1.321,1.321,0,0,1,1.847.361Z" transform="translate(-64.127 -48.021)" fill="#ff8282"/>
    <path id="Path_1413" data-name="Path 1413" d="M89.145,80.076c0,.215-.022.431-.036.65l-.73.73c-.865.109-1.7.916-2.6.113C86.674,80.562,87.576,79.576,89.145,80.076Z" transform="translate(-55.882 -57.6)" fill="#ff8282"/>
    <path id="Path_1414" data-name="Path 1414" d="M140.24,110.26c.314.693-.208,1.226-.365,1.825a4.1,4.1,0,0,1-1.825,2.19Q139.127,112.278,140.24,110.26Z" transform="translate(-89.075 -76.853)" fill="#ff8282"/>
    <path id="Path_1415" data-name="Path 1415" d="M93.565,104.947c0,.387-.084.8-.5.839s-.755-.365-.865-.777a.58.58,0,0,1,.54-.766.664.664,0,0,1,.828.7Z" transform="translate(-59.937 -73.018)" fill="#ff8282"/>
    <path id="Path_1416" data-name="Path 1416" d="M119.436,105.069a.65.65,0,0,1-.73.631c-.573,0-.7-.409-.639-.872s.4-.584.8-.529a.635.635,0,0,1,.569.77Z" transform="translate(-76.377 -73.059)" fill="#ff8282"/>
    <path id="Path_1417" data-name="Path 1417" d="M120.685,129.566c.288-.73.117-1.164-.755-1.117.12-.142.241-.281.365-.42.551.1,1.387-.19,1.544.515S121.31,129.479,120.685,129.566Z" transform="translate(-77.568 -88.137)" fill="#ff8282"/>
    <path id="Path_1418" data-name="Path 1418" d="M109.87,106.746c0-.153.026-.307.036-.456,1.526.788,1.117,1.825.365,2.92C110.049,108.392,110.578,107.469,109.87,106.746Z" transform="translate(-71.18 -74.332)" fill="#ff8282"/>
    <path id="Path_1419" data-name="Path 1419" d="M134.854,128.85c-.3-1.139.307-2.19.365-3.285l.365-.365.051,1.128a2.433,2.433,0,0,1-.263,2.485.365.365,0,0,1-.518.037Z" transform="translate(-86.992 -86.34)" fill="#ff8282"/>
    <path id="Path_1420" data-name="Path 1420" d="M156,91.395l.365-1.095c.489.044,1.055.193.905.755S156.522,91.65,156,91.395Z" transform="translate(-100.474 -64.177)" fill="#ff8282"/>
    <path id="Path_1421" data-name="Path 1421" d="M184.368,72.422a42.309,42.309,0,0,0-4.3,5.153c-.679,1.752-2.19,2.887-3.234,4.38-.442.635-1.055.179-1.46-.321-2.153-1.095-3.836-.533-5.109,1.46h0c-.73,1.3-.212,2.7-.307,4.051h0a3.263,3.263,0,0,1,.066-5.19c3.839-2.788,7.708-5.544,11.547-8.336a15.79,15.79,0,0,0,1.46-1.343l2.106-1.336Z" transform="translate(-108.547 -51.883)" fill="#ff8282"/>
    <path id="Path_1422" data-name="Path 1422" d="M183.154,93.218a1.431,1.431,0,0,0,1.916-.606c.836-1.212,1.847-2.307,2.781-3.453a3.263,3.263,0,0,0,.062.456c-.033.208-.062.416-.091.624a4.9,4.9,0,0,0-1.777,2.226c-2.128,1.726-3.332,4.2-5.062,6.248,0-.175-.088-.431,0-.522C182.329,96.806,181.96,94.675,183.154,93.218Z" transform="translate(-116.314 -63.453)" fill="#ff8282"/>
    <path id="Path_1423" data-name="Path 1423" d="M22.122,51.522a1.31,1.31,0,0,0,0-.266.945.945,0,0,0,.161-.215c1.693.6,2.292,1.387,2.164,3.022-.073.9-.172,1.8-.263,2.7-.19.642.051,1.7-1.237,1.292l-.044.033c-1.029-.679-.942-2.047-1.763-2.854a1.57,1.57,0,0,1,1.38-1.9c.434-.095.909-.139.412-.73C22.48,52.368,21.954,52.2,22.122,51.522Z" transform="translate(-14.822 -39.246)" fill="#ff8282"/>
    <path id="Path_1424" data-name="Path 1424" d="M12.767,72.143c.453.7.887,1.431,1.372,2.113s1.058,1.175,1.938.562c1.328-.536.759-1.438.544-2.372-.186-.788-.818-1.307-.978-2.066,1.376.668,1.628,2,1.825,3.285.164,1-.533,1.526-1.354,1.923a1.5,1.5,0,0,1-1.956-.489,11.325,11.325,0,0,1-2.128-3.307Z" transform="translate(-9.047 -51.527)" fill="#ff8282"/>
    <path id="Path_1425" data-name="Path 1425" d="M20.4,60.915c.6-.044.493-1.007,1.38-.916a3.646,3.646,0,0,0,.383,3.77c-.489.04-1-1.427-1.46.022C19.461,62.945,20.089,61.915,20.4,60.915Z" transform="translate(-14.085 -44.931)" fill="#ff8282"/>
    <path id="Path_1426" data-name="Path 1426" d="M22.791,52.36l.8,1.073a.942.942,0,0,1-1.35-.365C22.017,52.645,22.4,52.437,22.791,52.36Z" transform="translate(-15.491 -40.084)" fill="#ff8282"/>
    <path id="Path_1427" data-name="Path 1427" d="M24.294,47.646a4.265,4.265,0,0,1,.051-1.606c.8-1.825-.1-2.949-1.423-3.967a6.157,6.157,0,0,1-.339-5.153C25.2,40.836,26,45.741,29.476,49.172c.5-1.978,1.321-2.19,2.92-.785,1.985,1.77,2.018,1.985.712,4.843A.431.431,0,0,1,32.845,53c-.31-1.015-1.318-1.252-2.332-.547a2.225,2.225,0,0,1-2.215.08c-.445-.471-.931-.905-1.361-1.394a2.307,2.307,0,0,1-.467-1.953c-.117.066-.062.186-.117.263a.792.792,0,0,1-.963.635C24.181,49.635,24.8,48.4,24.294,47.646Z" transform="translate(-15.483 -30.279)" fill="#ff8282"/>
    <path id="Path_1428" data-name="Path 1428" d="M34.959,74.948c1.095-.113,2.489.241,2.42-1.628,0-.109.4-.365.536-.325.653.223.15,1.011.679,1.4.938-.19.558-1.3,1.164-1.923.956,1.19-.536,2.3.047,3.336a.23.23,0,0,1-.069.237c-.631.511-2.1-1.427-2.164.73a4.477,4.477,0,0,1-1.095,1.409c-1.4.551-.387,1.887-1.252,2.664,1.015.245,1.372-.515,1.993-.442l.365.708c.036.7.365,1.095,1.095,1.095l1.069.4c.226.157.642.31.646.478,0,.445-.416.164-.642.234-.613.179-1.255.285-1.515,1l-.679.5c-1.15.832-2.3,1.639-3.686.445-.423-.909-1.544-1.558-1.036-2.807.73-.836.613-1.887.73-2.88a5.893,5.893,0,0,1,.281-.77,6.146,6.146,0,0,0,.285-2.3C34.2,75.886,34.021,75.112,34.959,74.948Z" transform="translate(-22.177 -52.855)" fill="#ff8282"/>
    <path id="Path_1429" data-name="Path 1429" d="M81.731,72.659,78.377,74.17l-1.755-.427c-1.369-.679-1.409-2.339-2.427-3.285a1.179,1.179,0,0,1,.055-1.015.661.661,0,0,1,.438-.226c.365-.12.555.792.993.15A.6.6,0,0,1,75.863,69c1.073-.394,2.438.536,3.321-.73,1.715-.113,2.518.73,2.555,2.409C81.731,71.356,81.731,72.006,81.731,72.659Z" transform="translate(-48.468 -50.183)" fill="#ff8282"/>
    <path id="Path_1430" data-name="Path 1430" d="M66.55,92c-1.219.493-.686,1.624-.894,2.482-.365.193-.365-.307-.642-.292L63.9,93.032c1.46-1.39,1.018-3.358,1.526-5.036l.365-.394c.423-.434.241-1.036.431-1.536.416-1.095,1.036-1.606,2.109-.668h0c.193.226.6.365.307.781a2.868,2.868,0,0,0-.544.394,4.78,4.78,0,0,1,.785-.536c.493.044.861.42,1.361.478,1.168.135,1.6.642.646,1.606-.522.522-.168,1.153-.365,1.7A5.067,5.067,0,0,0,66.55,92Z" transform="translate(-41.987 -60.753)" fill="#ff8282"/>
    <path id="Path_1431" data-name="Path 1431" d="M72.358,73.9c.792.4,1.741.712,1.387,1.905-.234.792.978.664.8,1.376a9.086,9.086,0,0,1-3.708-2.843l.142-.157C71.38,73.8,71.789,73.432,72.358,73.9Z" transform="translate(-46.394 -53.623)" fill="#ff8282"/>
    <path id="Path_1432" data-name="Path 1432" d="M76.365,86.972c-.117-.248-.234-.5-.365-.752.792.3,1.566.668,2.376.891.931.255,1.128.8.861,1.631-1.2.179.047,1.675-1.036,1.916a2.332,2.332,0,0,1-.31-.818c.062-1.719-.033-1.931-1.533-2.865Z" transform="translate(-49.671 -61.586)" fill="#ff8282"/>
    <path id="Path_1433" data-name="Path 1433" d="M71.559,84.664c-1.124-.365-1.8-.08-1.825,1.2,0,.5-.08.945-.708,1a2.956,2.956,0,0,1,.507-2.3C70.4,83.39,70.924,83.543,71.559,84.664Z" transform="translate(-45.208 -60.019)" fill="#ff8282"/>
    <path id="Path_1434" data-name="Path 1434" d="M134,65.847l1.354-1.182c1.011-.135,2.022-.646,3.022.026.394.453,1.715.675.712,1.526-1.3,1.095-2.106,2.715-3.675,3.526a2,2,0,0,1-.657-2.507,1.332,1.332,0,0,1,.219-.259c.175-.168,0,.106.142-.095-.066,0-.095.044-.153.062a.982.982,0,0,1-1-.781A3.062,3.062,0,0,0,134,65.847Z" transform="translate(-86.478 -47.699)" fill="#ff8282"/>
    <path id="Path_1435" data-name="Path 1435" d="M146.995,47.1a5.879,5.879,0,0,1,1.062-4.354c.624-.7.854-.245,1.018.365a1.266,1.266,0,0,1-.883,1.693c.135.73,1.416.318,1.2,1.5C149.035,48.241,149.027,48.314,146.995,47.1Z" transform="translate(-94.698 -33.753)" fill="#ff8282"/>
    <path id="Path_1436" data-name="Path 1436" d="M136.332,90.732c-.029-.343-.066-1.029-.325-.88-2.066,1.164-2.752-1.219-4.657-1.5a3.4,3.4,0,0,0,2.058-2.4c1.964-1.139,1.964-1.139,3.263,1.942-.077.923.843,1.555.73,2.489C137.116,90.78,136.784,90.97,136.332,90.732Z" transform="translate(-84.82 -60.975)" fill="#ff8282"/>
    <path id="Path_1437" data-name="Path 1437" d="M130.09,104.15c.993.08,1.949.219,2.255,1.4.365,1.409-.909,2.142-1.409,3.179-.234.489-.96-.245-1.493-.193h0c-.668-1.212-.23-2.442-.077-3.668Z" transform="translate(-83.382 -72.973)" fill="#ff8282"/>
    <path id="Path_1438" data-name="Path 1438" d="M123.217,112.119c-.391.285-.777.577-1.172.858-.263.19-.442.73-.869.365-.365-.307-.77-.675-.7-1.2s.558-.339.891-.394a.927.927,0,0,0,.8-.646.434.434,0,0,1,.248-.088C123.557,110.733,123.619,111.254,123.217,112.119Z" transform="translate(-77.91 -77.281)" fill="#ff8282"/>
    <path id="Path_1439" data-name="Path 1439" d="M126.6,109.049c.051-.6-.109-1.055-.8-1.124l1.5-1.825c.73,1.208,0,2.445.077,3.668Z" transform="translate(-81.296 -74.211)" fill="#ff8282"/>
    <path id="Path_1440" data-name="Path 1440" d="M45.935,97.275a2.839,2.839,0,0,0-.5.193c-.343.208-.223,1.168-.953.693-.62-.4-.4-.891.1-1.325.157-.139.172-.434.248-.657Z" transform="translate(-29.416 -67.911)" fill="#ff8282"/>
    <path id="Path_1441" data-name="Path 1441" d="M60.472,49.27h-.263a3.8,3.8,0,0,1,.642-2.92,1.77,1.77,0,0,1,1.095.365c-.142.763.387,1.255.73,1.825h-.1C61.932,49.032,61.125,48.934,60.472,49.27Z" transform="translate(-39.617 -36.267)" fill="#ff8282"/>
    <path id="Path_1442" data-name="Path 1442" d="M62.914,43.548c-.478.219-.982.518-1.095-.365v-.894c0-.3-.4-.872.365-.923.522-.033.766.266.777.759S62.914,43.056,62.914,43.548Z" transform="translate(-40.6 -33.101)" fill="#ff8282"/>
    <path id="Path_1443" data-name="Path 1443" d="M125.466,69.862a7.146,7.146,0,0,0,.343,2.854l-.8.73c-1.051.624-2.31.4-3.449.916-.916.416-1.8-.628-2.281-1.427a2.945,2.945,0,0,1,.095-3.248,1.68,1.68,0,0,1,2.288-.365c1.033.606,1.825.131,2.7-.186.551-.036.73.5,1.095.73Z" transform="translate(-76.875 -50.673)" fill="#ff8282"/>
    <path id="Path_1444" data-name="Path 1444" d="M61,52.693c.215-1.642,1.347-.642,2.1-.73a8.65,8.65,0,0,0,1.69,2.949c1,1.015.752,2.467,1.292,3.65.1.047.142.106.128.175s-.044.113-.069.113v1.128l-1.376.281a22.387,22.387,0,0,1-3.347-5.507A5.708,5.708,0,0,1,61,52.693Z" transform="translate(-40.145 -39.691)" fill="#ff8282"/>
    <path id="Path_1445" data-name="Path 1445" d="M74.948,69.5a.73.73,0,0,0-.058-.288c.471-1.529.978-.036,1.46,0,.026.106.051.212.069.318.164.274.226.624-.084.73-.562.2-.755-.391-1.095-.664A1.767,1.767,0,0,0,74.948,69.5Z" transform="translate(-48.966 -50.35)" fill="#ff8282"/>
    <path id="Path_1446" data-name="Path 1446" d="M43,85.7c.135-.65.266-1.3,1.095-1.409C44.555,85.389,43.92,85.644,43,85.7Z" transform="translate(-28.715 -60.361)" fill="#ff8282"/>
    <path id="Path_1447" data-name="Path 1447" d="M143.5,99.625l1.069-.365h.036c.365,1.033.442,2.19,1.409,2.92a.416.416,0,0,1,.088.31c-1.515.631-2.343-.164-2.949-1.42C142.737,100.475,142.091,99.807,143.5,99.625Z" transform="translate(-91.988 -69.867)" fill="#ff8282"/>
    <path id="Path_1448" data-name="Path 1448" d="M149.342,102.21c-1.526-.467-1.478-1.693-1.409-2.92C148.762,100.086,148.832,101.253,149.342,102.21Z" transform="translate(-95.335 -69.886)" fill="#ff8282"/>
    <path id="Path_1449" data-name="Path 1449" d="M31.524,96.657c-.453,1.124.438,1.927.7,2.883-.135.164-.255.15-.365-.026-.164-.153-.365-.46-.489-.431-.493.106-.135.6-.318.88-.128.12-.226.091-.3-.066.055-.825-.474-1.46-.661-2.212a2.65,2.65,0,0,1,.675-2.518c.438-.15.708.073.916.423A1.3,1.3,0,0,1,31.524,96.657Z" transform="translate(-20.465 -67.238)" fill="#ff8282"/>
    <path id="Path_1450" data-name="Path 1450" d="M31.807,108.21q.15.029.3.066c-.288,1.372,1.095,1.887,1.5,2.894.168.785.788,1.635-.336,2.226-.328-.307-1.526.624-1.095-.766-.19-.438.1-1-.365-1.369v-.2C32.756,110.111,31.216,109.163,31.807,108.21Z" transform="translate(-21.518 -75.551)" fill="#ff8282"/>
    <path id="Path_1451" data-name="Path 1451" d="M35.07,106.614a1.358,1.358,0,0,0,.365.026c1.325,1.117,2.442,0,3.65-.339C37.482,108.041,36.5,108.118,35.07,106.614Z" transform="translate(-23.679 -74.338)" fill="#ff8282"/>
    <path id="Path_1452" data-name="Path 1452" d="M40.12,113.212c.73.15,1.755-.628,2.131.668C41.507,113.766,40.492,114.533,40.12,113.212Z" transform="translate(-26.886 -78.666)" fill="#ff8282"/>
    <path id="Path_1453" data-name="Path 1453" d="M63.406,110.129c.434-.365.405.248.642.292a6.143,6.143,0,0,0,2.015,3.934c1.825,1.46,1.431,3.449,1.343,5.354-.04.88-.77,1-1.46.923-.792-.084-.7-.73-.65-1.245.04-.416.23-.818.234-1.226a.686.686,0,0,0-.682-.7c-.365-.029-.668.2-.613.5.343,1.887-1.172,1.89-2.277,2.314-1.095-.343-.5-.664,0-1,.759-.507,2.467-.588.971-2.139-.073-.073,0-.347.069-.485.215-.409,1.193-.624.529-1.237s-1.245.12-1.883.522C62.282,113.969,63.209,112.158,63.406,110.129Z" transform="translate(-40.362 -76.696)" fill="#ff8282"/>
    <path id="Path_1454" data-name="Path 1454" d="M31.617,116.57c1.095.19.77.77.365,1.369C30.865,117.756,31.6,117.092,31.617,116.57Z" transform="translate(-21.325 -80.86)" fill="#ff8282"/>
    <path id="Path_1455" data-name="Path 1455" d="M100.732,140.761a2.7,2.7,0,0,0-2.026.635,4.442,4.442,0,0,1-3.854.449c-1.354-.442-2.555-1.376-4.1-1.095a.613.613,0,0,1-.646-.533c-.109-.555.234-.891.628-1.212,4.015-3.336,6.518-3.365,10.679-.1.456.365,1.15.7.909,1.412C102.057,141.107,101.3,140.728,100.732,140.761Z" transform="translate(-58.614 -93.503)" fill="#ff8282"/>
    <path id="Path_1456" data-name="Path 1456" d="M129.133,140.37l1.737.73c.332.679,1.825.091,1.54.96s-1.318.193-2.029.091a3.555,3.555,0,0,0-.522,0c-.5-.533-1.39-.423-1.8-1.095C128.275,140.6,128.746,140.556,129.133,140.37Z" transform="translate(-82.731 -95.974)" fill="#ff8282"/>
    <path id="Path_1457" data-name="Path 1457" d="M126.058,137.586c-.08.668-.573.675-1.073.664-.168-.051-.394-.047-.5-.157-.493-.518-1.686-.883-1.117-1.737.664-1,1.263.332,1.942.445Z" transform="translate(-79.656 -93.19)" fill="#ff8282"/>
    <path id="Path_1458" data-name="Path 1458" d="M90,129.266a2.959,2.959,0,0,1,2.967,1.266c.266.3.624.661.245,1.095s-.759.186-1.095-.109A8.427,8.427,0,0,1,90,129.266Z" transform="translate(-58.561 -88.888)" fill="#ff8282"/>
    <path id="Path_1459" data-name="Path 1459" d="M67.91,148.29a7.874,7.874,0,0,0,4.427,0c-.2.42-1,.365-.887,1,.456,2.4-.949,1.533-2.062,1.2-.814-.175-.953-.814-1.029-1.5Z" transform="translate(-44.533 -101.003)" fill="#ff8282"/>
    <path id="Path_1460" data-name="Path 1460" d="M64.194,149.774l1.029,1.5c-1.051-.2-2.19.759-3.2-.336-.31-.339-.942-.526-.551-1.095s.8-.2,1.153.182C63.259,150.708,63.825,150.806,64.194,149.774Z" transform="translate(-40.368 -101.801)" fill="#ff8282"/>
    <path id="Path_1461" data-name="Path 1461" d="M30.72,71.036c-.664.73-.208,1.591-.365,2.38-.113.646.405,1.427-.394,1.927-.77-.88-.339-1.96-.5-2.825-.365.8.73,2.369-1.2,2.584a10.361,10.361,0,0,0,.365-3.35c-.047-.77-.172-1.339-1.051-1.613-1.095-.365-.807-1.73-1.544-2.39,1.095-.062.526-.931.708-1.438l1.095,2.19c.712.193,1.5.27,1.8,1.12C30.088,70.036,31.059,70.051,30.72,71.036Z" transform="translate(-17.938 -48.943)" fill="#ff8282"/>
    <path id="Path_1462" data-name="Path 1462" d="M32.12,82.329c1.095-.431.606-1.42.763-2.19s-.274-1.547.938-2.449v4.88c-.12.12-.241.245-.365.365-.321.46-.139,1.168-.73,1.493L32.08,84.1C32.095,83.511,32.109,82.913,32.12,82.329Z" transform="translate(-21.78 -56.17)" fill="#ff8282"/>
    <path id="Path_1463" data-name="Path 1463" d="M134.871,128.43a1.635,1.635,0,0,0,.365-.026,4.71,4.71,0,0,1,3.5-1.358.949.949,0,0,0,1.055-.73.73.73,0,0,1,.6-.409l.613-1.369c1.073.73,1.044,2.288,2.245,2.818.026.31.81.963-.325.759a2.058,2.058,0,0,0-1.46.325,2.838,2.838,0,0,1-2.675.653,1.828,1.828,0,0,0-2.077,1.226l-.748-.1C135.4,129.748,134.539,129.452,134.871,128.43Z" transform="translate(-87.009 -85.921)" fill="#ff8282"/>
    <path id="Path_1464" data-name="Path 1464" d="M139.866,137.09c-.266-1.58.131-1.887,1.624-1.7a16.186,16.186,0,0,0,3.128-.179c.73,2.08-1,2.069-2.164,2.536C141.8,136.619,140.618,137.688,139.866,137.09Z" transform="translate(-90.179 -92.697)" fill="#ff8282"/>
    <path id="Path_1465" data-name="Path 1465" d="M144.565,144.625c-1.117-.292-.8-1.27-.73-1.92.04-.383.693.219,1.095.1C145.861,143.625,145.3,144.147,144.565,144.625Z" transform="translate(-92.689 -97.374)" fill="#ff8282"/>
    <path id="Path_1466" data-name="Path 1466" d="M78.517,104.414c.2,1.515-1.35.766-1.825,1.409a.865.865,0,0,1-1.095.135c-.7-1.073.365-1.566.752-2.277C77.444,102.8,77.977,103.592,78.517,104.414Z" transform="translate(-49.268 -72.43)" fill="#ff8282"/>
    <path id="Path_1467" data-name="Path 1467" d="M82.245,112.256c1.095-1.277,2.131-.036,3.15.12.818.124-.022.912.15,1.38-.682.854-1.062.091-1.515-.281-.365-.6-.905-.175-1.365-.248a1.237,1.237,0,0,1-.85-.555C81.793,112.358,81.88,112.165,82.245,112.256Z" transform="translate(-53.361 -77.757)" fill="#ff8282"/>
    <path id="Path_1468" data-name="Path 1468" d="M77.844,108.352c.515.026,1.12-.219,1.405.478a1.391,1.391,0,0,0-1.365.2c-.92.54-1.931,1.029-2.777,0a3.449,3.449,0,0,1-.566-3.566,1.562,1.562,0,0,1,1.095-1.095c-.08.774-.96,1.274-.73,2.15C75.545,107.677,76.06,109.023,77.844,108.352Z" transform="translate(-48.577 -73.112)" fill="#ff8282"/>
    <path id="Path_1469" data-name="Path 1469" d="M140.663,127.28c.518,1.026.365,1.7-.938,1.431a3.157,3.157,0,0,0-3.325,1.095c-.328.387-.434-.077-.507-.343a4.869,4.869,0,0,1,.431-2.5l.73-.427A2.894,2.894,0,0,1,140.663,127.28Z" transform="translate(-87.692 -86.986)" fill="#ff8282"/>
    <path id="Path_1470" data-name="Path 1470" d="M142.694,125.878a13.214,13.214,0,0,0-3.624-.73c.555-1.971,2.19-.73,3.259-.985.96-.245.672.821.752,1.405Z" transform="translate(-89.723 -85.583)" fill="#ff8282"/>
    <path id="Path_1471" data-name="Path 1471" d="M110.326,98.386c-.051.569-.336.964-.9.945s-.639-.474-.639-.923c0-.529.208-1,.781-1.018S110.326,97.882,110.326,98.386Z" transform="translate(-70.494 -68.679)" fill="#ff8282"/>
    <path id="Path_1472" data-name="Path 1472" d="M78.97,112.1c-1.978,1.255-2.755.77-2.92-1.825h1.073c0,.405-.04.832.365,1.12a.73.73,0,0,1,.73.321A.92.92,0,0,1,78.97,112.1Z" transform="translate(-49.703 -76.865)" fill="#ff8282"/>
    <path id="Path_1473" data-name="Path 1473" d="M80.62,111.725l-.73-.321c0-.682.2-1.27,1.033-1.029.668.19.212.657.095,1.015Z" transform="translate(-52.141 -76.89)" fill="#ff8282"/>
    <path id="Path_1474" data-name="Path 1474" d="M32.622,67.968c-.164-.365-.478-.73-.04-1.128a.529.529,0,0,1,.792,0c.431.4.109.759-.047,1.131a.438.438,0,0,1-.7,0Z" transform="translate(-21.957 -49.166)" fill="#ff8282"/>
    <path id="Path_1475" data-name="Path 1475" d="M47.389,69.828a.511.511,0,0,1-.547.555.584.584,0,0,1-.639-.526.493.493,0,0,1,.431-.653A.694.694,0,0,1,47.389,69.828Z" transform="translate(-30.731 -50.779)" fill="#ff8282"/>
    <path id="Path_1476" data-name="Path 1476" d="M31.791,70.24h.7c-.511.73.485,1.19.365,1.858l-1.81-1.106a.73.73,0,0,0,.741-.752Z" transform="translate(-21.126 -51.439)" fill="#ff8282"/>
    <path id="Path_1477" data-name="Path 1477" d="M33.86,93.563a1.865,1.865,0,0,1,.73-1.493c-.172.891,1.011,2.1-.624,2.65Z" transform="translate(-22.91 -65.301)" fill="#ff8282"/>
    <path id="Path_1478" data-name="Path 1478" d="M75.88,71.3c.387-.157.858,1.172,1.179-.069.285.266.872.628.365.938C76.621,72.646,76.092,72.131,75.88,71.3Z" transform="translate(-49.595 -52.067)" fill="#ff8282"/>
    <path id="Path_1479" data-name="Path 1479" d="M74.728,88.248a.6.6,0,0,1-.077.161c-.325.365-.135,1.131-.85,1.208a.365.365,0,0,1-.365-.463,1.095,1.095,0,0,1,1.292-.909Z" transform="translate(-48.034 -62.859)" fill="#ff8282"/>
    <path id="Path_1480" data-name="Path 1480" d="M136.992,69.555c-.022-.569,0-1.128.807-.978a.558.558,0,0,1,.5.766C138,70.1,137.474,69.76,136.992,69.555Z" transform="translate(-88.4 -50.367)" fill="#ff8282"/>
  </g>
</svg>
