<svg id="Component_205_1" data-name="Component 205 – 1" xmlns="http://www.w3.org/2000/svg" width="60" height="60" viewBox="0 0 60 60">
  <g id="Layer_2" data-name="Layer 2" transform="translate(5.943 6.002)">
    <g id="Layer_1" data-name="Layer 1" transform="translate(0.057 -0.002)">
      <path id="Path_1488" data-name="Path 1488" d="M116.63,12.465a22.646,22.646,0,0,0-4.342-4.809,3.9,3.9,0,0,0-1.043-.668.244.244,0,0,1-.205-.143,16.187,16.187,0,0,0-7.547-3.075c-.791.172-1.223.581-.908,1.438.921.71-.085,1.1-.263,1.637a8.5,8.5,0,0,0,.163,3.694,2.128,2.128,0,0,1,.176.873c-.064.281-.261.524-.232.83a2.447,2.447,0,0,1-.081.774c-.331,1.6-.331,1.6-2.68,1.432-.836-.387-.482-1.24-.639-1.869s-.337-.236-.551-.135-.505.194-.666-.1a.552.552,0,0,1,.143-.611c.294-.375.673-.675.938-1.074.505-1.246.193-2.533.193-3.8,0-.253-.255-.36-.447-.468-.23-.13-.5-.238-.431-.555s.451-.155.646-.306a.172.172,0,0,1,.132-.06A14.153,14.153,0,0,0,99.25,2.1c.029-.817.23-1.124,1.026-1.047.35.033.7,0,1.055.023.521.012.387.826.968.774a2.575,2.575,0,0,1,.662-.122,4.474,4.474,0,0,1,2.754-.194c.269.163.581.261.844.424.163.1.457.194.406.35-.366,1.161.733.861,1.173,1.2.074.025.134.1.226.074a.28.28,0,0,0-.143-.1c-.466-.164-1.1-.362-.89-.919.194-.526.811-.252,1.256-.093a1.982,1.982,0,0,1,.366.106,19.967,19.967,0,0,1,7.314,5.209,14.735,14.735,0,0,0,1.654,2.09c.441.542.457.94-.193,1.269a.486.486,0,0,0-.17.551.828.828,0,0,1-.041.267C117.3,12.29,117.106,12.623,116.63,12.465Z" transform="translate(-74.513 -0.839)" fill="#ff7474"/>
      <path id="Path_1489" data-name="Path 1489" d="M19.276,70.34c1.651.545,3.348.215,5.019.325a.571.571,0,0,1-.6.724,4.922,4.922,0,0,0-.834.056,6,6,0,0,1-1.1,0c-.559-.136-1.146-.034-1.7-.215a4.293,4.293,0,0,1-2.208-.3c-.683-.629-1.161-.3-1.563.407.288.836,1.033.862,1.6.888a20.708,20.708,0,0,0,3.692.375.655.655,0,0,1,.387.78c-3.7.39-7.014-.941-10.215-2.8-.362-1.137-1.548-.924-2.167-1.65-1.173-.978-2.129-2.217-3.29-3.231l-.194-.215A.981.981,0,0,1,6.47,63.89c.387-.034.468.308.581.6a4.569,4.569,0,0,0,.35.883c.207.33.457.728.848.4s0-.663-.176-.894c-.882-1.118-1.505-2.51-2.788-3.212a1.289,1.289,0,0,1-.652-1.432,2.666,2.666,0,0,0-.368-1.592A46.775,46.775,0,0,1,2.4,51.607a1.719,1.719,0,0,0-.5,1.859,35.545,35.545,0,0,1,.718,3.55,1.132,1.132,0,0,0,.087.418c1.086,1.779,1.531,4.026,3.171,5.4a.664.664,0,0,1,.286.737c-.493.713-.968.618-1.44-.032l-.546-.875c-.1-.967-.894-1.508-1.161-2.37a22.012,22.012,0,0,1-1.925-6.462,45.712,45.712,0,0,1,.041-5.87A8.043,8.043,0,0,0,1.089,46.3h0a5.609,5.609,0,0,1,.432-2.8,11.815,11.815,0,0,0,.613-2.818,24.033,24.033,0,0,1,2.647-5.213,26.916,26.916,0,0,1,2-2.738c.3-.291.581-.646.913-.047a12.8,12.8,0,0,0,.733,1.346.721.721,0,0,1-.211,1.148c-.774.286-.909.969-1.117,1.654A23.384,23.384,0,0,0,3.391,47.945,22.414,22.414,0,0,0,5.214,58.572c.232.528.611,1.036.335,1.7a.332.332,0,0,0,.075.287c1.693,1.064,2.322,3.248,3.835,4.5.128.106.24.235.36.353.553.543.989,1.247,1.72,1.538a19.514,19.514,0,0,0,7.175,3.33,4.868,4.868,0,0,0,.561.056Z" transform="translate(-0.833 -26.096)" fill="#ff7474"/>
      <path id="Path_1490" data-name="Path 1490" d="M107.727,87.734l-.387-.544c.774-.387,1.631.05,2.417-.317.387-.182.853-.205,1.2-.581-.476-.176-.886.014-1.293-.015s-.948.043-.967-.627c.461-.072,1.035.31,1.343-.346l.551-.068c.364-.164.762-.031,1.14-.135.633-.174.422.762.931.741-.437-.273-.58-.6-.114-1.006a19.057,19.057,0,0,0,9.193-5.3A19.476,19.476,0,0,0,126.1,72.5a3.607,3.607,0,0,1,1.138-1.062c-.536-.087-.834-.313-.557-.863a40.093,40.093,0,0,0,.623-4.927,7.646,7.646,0,0,0-.432-2.471,8.309,8.309,0,0,0-.95-3.274.889.889,0,0,1-.424-1.136c-.153-.938-.908-1.6-1.146-2.516l.784-.581a.368.368,0,0,1,.387-.095c.486.5.3,1.207.571,1.778.143.306.139.681.5.979a1.323,1.323,0,0,0-.308-1.889c-.6-.534-.581-.7.221-1.1.714.335.675,1.194,1.161,1.683a16.908,16.908,0,0,1,1.925,7.655c-.014,2.4.194,4.812-.53,7.16a2.361,2.361,0,0,1-.4,1.06c-.271.654-.424,1.354-.733,1.991-.139.282-.143.8-.7.67a1.783,1.783,0,0,1-.317-1.548c.064-.224.358-.344.288-.637.043-.221.261-.341.4-.635-.553.163-.991.323-1.006.857a1.989,1.989,0,0,1-.728,1.49c-.284.257-.534.613-.147.985.346.333.557-.021.8-.207s.449-.5.819-.224c.083.793-.546,1.287-.815,1.935a17.5,17.5,0,0,1-5,5.722c-.271.211-.559.4-.838.6s-.88-.275-.849.511c0,.193-.478.263-.681.474a19.9,19.9,0,0,1-7.483,2.784A16.041,16.041,0,0,1,107.727,87.734Z" transform="translate(-82.236 -40.452)" fill="#ff7474"/>
      <path id="Path_1491" data-name="Path 1491" d="M30.53,108.3a16.545,16.545,0,0,1-6.084-7.212,17.6,17.6,0,0,1-1.459-6.591,9.638,9.638,0,0,1,.623-4.615c.546.815.015,1.631-.014,2.444a4.328,4.328,0,0,0,.159,2.322,29.928,29.928,0,0,0,1.95,6.422,16.936,16.936,0,0,0,5.174,6.126,2.628,2.628,0,0,1,.745.745c.079.234.3.484.1.712-.23.265-.462-.019-.685-.1C30.864,108.479,30.711,108.361,30.53,108.3Z" transform="translate(-18.52 -69.497)" fill="#ff7474"/>
      <path id="Path_1492" data-name="Path 1492" d="M24.668,63.367c-.629.108-.356-.387-.375-.617a30.635,30.635,0,0,1,.366-4.245,13.079,13.079,0,0,1,2.483-5.6c.234-.337.505-.646.759-.967.3-.238.505-.569.8-.807.124-.1.261-.224.416-.1a.362.362,0,0,1,.087.437,10.066,10.066,0,0,0-.433,1.064,37.247,37.247,0,0,0-2.25,3.812,23.193,23.193,0,0,0-1.469,5.979C24.991,62.7,25.036,63.107,24.668,63.367Z" transform="translate(-19.568 -39.774)" fill="#ff7474"/>
      <path id="Path_1493" data-name="Path 1493" d="M69.146,24.18l-.571.414c1.144.05,1.206.753,1.161,1.571s-.015,1.6-.012,2.4a1.144,1.144,0,0,1-.356,1.041.534.534,0,0,1-.226-.193c-.387-.968,0-1.976-.128-2.966-.159-1.161-.114-1.161-1.306-.95a15.274,15.274,0,0,0-4.6,1.7,5.786,5.786,0,0,1-1.236.544c-.306.019-.683.213-.877-.135-.217-.387.194-.54.41-.747A14.681,14.681,0,0,1,69.146,24.18Z" transform="translate(-47.657 -19.501)" fill="#ff7474"/>
      <path id="Path_1494" data-name="Path 1494" d="M90.566,193.421a20.411,20.411,0,0,1-4.044-.259c-.428-.3-1.016-.147-1.422-.509.01-.358.079-.681.472-.822a20.653,20.653,0,0,1,5.19.9C90.984,193.039,90.82,193.242,90.566,193.421Z" transform="translate(-66.725 -150.53)" fill="#ff7474"/>
      <path id="Path_1495" data-name="Path 1495" d="M47.038,38c-.025.242-.445.387-.238.644.155.193.4-.1.617-.048.135.259-.023.443-.193.581-1.012.786-1.935,1.674-2.86,2.552a.51.51,0,0,1-.6.163c0-.451.372-.755.551-1.217-.565.141-.71.716-1.192.8.842-.967,1.509-2.1,2.891-2.465C46.46,38.884,46.369,38.015,47.038,38Z" transform="translate(-33.851 -29.864)" fill="#ff7474"/>
      <path id="Path_1496" data-name="Path 1496" d="M141.551,5.926c-.619-.128-1.238-.25-1.856-.387a.509.509,0,0,1-.294-.194.193.193,0,0,1,.149-.29c1.465-.387.211-.671-.046-.979a1.291,1.291,0,0,0-.313-.211c.06-.13.147-.151.259-.064a17.74,17.74,0,0,1,2.9.968c-.484.217-1.215-.581-1.411.083-.153.515.846.323,1.147.741C141.978,5.806,141.719,5.8,141.551,5.926Z" transform="translate(-109.333 -3.023)" fill="#ff7474"/>
      <path id="Path_1497" data-name="Path 1497" d="M194.906,39.99l-.387-.014c0-.074.01-.145.016-.219a.981.981,0,0,0-.019-.751c.774-.238.7-.648.25-1.161a4.37,4.37,0,0,1-1.4-1.966,16.277,16.277,0,0,1,3.677,5.447c-.641-.327-.559-1.206-1.178-1.548C195.485,39.557,195.32,40.354,194.906,39.99Z" transform="translate(-151.619 -28.168)" fill="#ff7474"/>
      <path id="Path_1498" data-name="Path 1498" d="M1.8,71c-.114.828.644,1.776-.447,2.5a.714.714,0,0,0,.182,1.316c.455.194-.068.751-.288.7-.608-.135-.372.319-.493.53a2.4,2.4,0,0,1,.07-1.759C1.09,73.183,1.463,72.1,1.8,71Z" transform="translate(-0.495 -55.755)" fill="#ff7474"/>
      <path id="Path_1499" data-name="Path 1499" d="M121.7,1.79l-.259.062c-1-.476-1.865.476-2.843.325-.331-.313-.459.027-.642.194-.8.157-.745-.412-.774-.915l.091-.077c.194.025.387.068.524-.118C119.1,1.426,120.473,1.078,121.7,1.79Z" transform="translate(-91.959 -1.016)" fill="#ff7474"/>
      <path id="Path_1500" data-name="Path 1500" d="M.309,97.08a2.544,2.544,0,0,1,.238,1.761,1.32,1.32,0,0,0-.194,1.281,26.319,26.319,0,0,1-.029,3.727,18.425,18.425,0,0,1-.211-4.87A4.4,4.4,0,0,1,.309,97.08Z" transform="translate(-0.057 -76.139)" fill="#ff7474"/>
      <path id="Path_1501" data-name="Path 1501" d="M62.12,183.864l1.087.3-.253-.532c.025-.017.058-.056.077-.05a5.947,5.947,0,0,1,2.676,1.314c-.017.145-.194.3.1.416.221.087.432.271.219.569l-.482-.12a5.642,5.642,0,0,1-2.394-1.161Z" transform="translate(-48.774 -143.874)" fill="#ff7474"/>
      <path id="Path_1502" data-name="Path 1502" d="M106.606.754a4.991,4.991,0,0,0-1.8.023c-.6.242-.1,1-.294,1.525a6.678,6.678,0,0,0-.157,1.7c-.029.331.122.724-.3.935.025-1.142.045-2.283.079-3.425,0-.329-.166-.706.193-.968a3.242,3.242,0,0,1,2.334.139Z" transform="translate(-81.772 -0.322)" fill="#ff7474"/>
      <path id="Path_1503" data-name="Path 1503" d="M32.443,37.607c-.015-.635.068-1.192.8-1.444.571-.193.581-.61.246-1.051a2.44,2.44,0,0,1-.447-1.233c.54.228.581.933,1.173,1.161.337.132.13.507-.1.71A7.246,7.246,0,0,0,32.443,37.607Z" transform="translate(-26.175 -26.629)" fill="#ff7474"/>
      <path id="Path_1504" data-name="Path 1504" d="M206.44,150.743c.035-.743.743-1.233.749-1.987h0c.619-.476.631-1.266.968-1.887.145-.267.1-.633.422-.809A10.836,10.836,0,0,1,206.44,150.743Z" transform="translate(-162.16 -114.729)" fill="#ff7474"/>
      <path id="Path_1505" data-name="Path 1505" d="M21.962,177.322c-.054.482-.687.8-.4,1.378l-1.385-1.741c.478.432.935-.01,1.4-.039a.387.387,0,0,1,.381.4Z" transform="translate(-16.286 -139.23)" fill="#ff7474"/>
      <path id="Path_1506" data-name="Path 1506" d="M168.35,200.944c.116-.387,1-.548.3-1.161-.164-.143-.019-.362.161-.474a.547.547,0,0,1,.542.041c.283.124.161.58.53.613A3.228,3.228,0,0,1,168.35,200.944Z" transform="translate(-132.375 -156.515)" fill="#ff7474"/>
      <path id="Path_1507" data-name="Path 1507" d="M28.38,186.766c.052-.029.139-.093.149-.081,1.018,1.022,2.21,1.861,3.135,2.98A11.8,11.8,0,0,1,28.38,186.766Z" transform="translate(-22.899 -146.379)" fill="#ff7474"/>
      <path id="Path_1508" data-name="Path 1508" d="M76.886,191.536c-.217-.538-.873-.47-1.3-.94l.991.046a.954.954,0,0,1,1.1.387c.139.294.194.557-.248.621C77.239,191.668,77.037,191.708,76.886,191.536Z" transform="translate(-59.419 -149.534)" fill="#ff7474"/>
      <path id="Path_1509" data-name="Path 1509" d="M107.834.364A6.753,6.753,0,0,0,105.5.225a4.674,4.674,0,0,1,2.883.01c-.023.271.068.557-.1.826C107.841,1.016,108.112.5,107.834.364Z" transform="translate(-82.888 0.002)" fill="#ff7474"/>
      <path id="Path_1510" data-name="Path 1510" d="M48.22,187.242c-1.221.346-1.209-.842-1.72-1.382C47.237,186.112,47.653,186.766,48.22,187.242Z" transform="translate(-36.568 -145.716)" fill="#ff7474"/>
      <path id="Path_1511" data-name="Path 1511" d="M11.34,162c.43.689,1.267,1.161,1.161,2.129C12.159,163.407,11.423,162.884,11.34,162Z" transform="translate(-9.157 -127.462)" fill="#ff7474"/>
      <path id="Path_1512" data-name="Path 1512" d="M113.35,181.638l.193-.58a2.771,2.771,0,0,1,1.759-.683,16.228,16.228,0,0,0,6.426-2.461,3.489,3.489,0,0,1,1.465-.693c.329.093.6.221.4.644a9.888,9.888,0,0,1-1.741,1.432,1.681,1.681,0,0,1-1.569.909,37.433,37.433,0,0,1-4.671,1.287C114.867,181.589,114.1,181.593,113.35,181.638Z" transform="translate(-88.516 -138.748)" fill="#ff7474"/>
      <path id="Path_1513" data-name="Path 1513" d="M189.871,99.991a16.819,16.819,0,0,1-1.117,7.943c-.3.4-.58.89-1.1.238a14.43,14.43,0,0,1,1.037-3.768,5.607,5.607,0,0,0,.346-2.726c.015-.67-.019-1.343.017-2.012.017-.283.035-.642.414-.637.327,0,.341.323.341.581A.905.905,0,0,0,189.871,99.991Z" transform="translate(-147.006 -77.492)" fill="#ff7474"/>
      <path id="Path_1514" data-name="Path 1514" d="M164.494,155.6a.607.607,0,0,0-.368-.5c-.207-.42.1-.681.341-.9a24.946,24.946,0,0,0,3.6-4.34c.23-.163.474-.375.757-.157a.457.457,0,0,1,.095.722,18.339,18.339,0,0,1-3.853,4.865C164.9,155.441,164.744,155.615,164.494,155.6Z" transform="translate(-127.979 -117.414)" fill="#ff7474"/>
      <path id="Path_1515" data-name="Path 1515" d="M135.408,27.794l1.06.387c.337-.193.6-.157.751.238a13.278,13.278,0,0,1,3.913,2.45c.194.257.476.41.671.66.13.164.4.3.244.55-.135.215-.387.157-.608.089s-.418-.149-.631-.213c-1.134-.72-2.208-1.531-3.4-2.167a6.782,6.782,0,0,0-1.651-.745c-.4-.093-.817-.228-.938-.716C134.87,27.991,134.971,27.707,135.408,27.794Z" transform="translate(-105.574 -22.403)" fill="#ff7474"/>
      <path id="Path_1516" data-name="Path 1516" d="M188.341,75.8l-.362-.9a3.26,3.26,0,0,0-.178,1.531c-.137,1.335.341,2.732-.387,4.009a.807.807,0,0,1-.273-.774,18.116,18.116,0,0,0-1.161-8.746,1.356,1.356,0,0,1-.068-.375,10.1,10.1,0,0,0-.153-1.1c-.058-.528.236-.476.559-.236.967,1.188,1.113,2.709,1.66,4.064a5.8,5.8,0,0,1,.194.629,1.161,1.161,0,0,1,.194,1.136Z" transform="translate(-145.475 -53.915)" fill="#ff7474"/>
      <path id="Path_1517" data-name="Path 1517" d="M175.526,55.066c-.193,0-.53-.112-.279.277a1.325,1.325,0,0,1,.182.968c-.066,0-.149,0-.182-.041a20.565,20.565,0,0,1-2.868-4.323c.1-.466.341-.58.724-.263a3.306,3.306,0,0,1,.625.7c.491.6,1.238,1.039,1.161,1.968C174.859,54.81,175.55,54.62,175.526,55.066Z" transform="translate(-135.402 -40.452)" fill="#ff7474"/>
      <path id="Path_1518" data-name="Path 1518" d="M123.069,24.578c-.257.11-.348.364-.486.581-.3.387-.7.213-1.049.139-.581-.124-1.194-.134-1.774-.3a.947.947,0,0,1-.24-.17c.12-.387.48-.426.865-.478-.184-.335-.689-.141-.671-.563a21.927,21.927,0,0,1,3.253.642A.484.484,0,0,0,123.069,24.578Z" transform="translate(-93.859 -19.186)" fill="#ff7474"/>
      <path id="Path_1519" data-name="Path 1519" d="M126.116,207.77c-.283.627.085.774.6.861.224.039.58.116.428.476-.116.281-.41.277-.662.161s-.581-.213-.629-.387c-.279-.989-1.1-.557-1.693-.708A6.892,6.892,0,0,1,126.116,207.77Z" transform="translate(-97.538 -163.386)" fill="#ff7474"/>
      <path id="Path_1520" data-name="Path 1520" d="M168.9,46.164c-.221-.18-.445-.358-.66-.544-.3-.263-.445-.128-.524.193-.6-.221-1.277-.366-1.324-1.2l1.086.379c-.362-.488-.627-.844-.89-1.2A8.514,8.514,0,0,1,168.9,46.164Z" transform="translate(-130.753 -34.448)" fill="#ff7474"/>
      <path id="Path_1521" data-name="Path 1521" d="M204.887,134c.137.174-.033.517.228.58.435.1.244-.542.6-.58.279.906.271.89-.581,1.322a6.193,6.193,0,0,0-.828.6A5.619,5.619,0,0,0,204.887,134Z" transform="translate(-160.442 -105.444)" fill="#ff7474"/>
      <path id="Path_1522" data-name="Path 1522" d="M185.63,146.749c.019-.679-.24-.784-.753-.364-.223-.592-.074-1,.581-1.161.414.42.681,0,.991-.174,0,.648-.791,1.014-.61,1.724l.012-.014Z" transform="translate(-144.691 -114.153)" fill="#ff7474"/>
      <path id="Path_1523" data-name="Path 1523" d="M83.578,50.77c.019.095.039.194.06.283-.327.348-.656.695-.979,1.049-.074.083-.217.205-.054.294.079.046.236-.046.36-.077a.24.24,0,0,1,.137.217,16.074,16.074,0,0,1-3.971,3.891c-.72-.182-.555-.594-.221-.983.544-.633,1.161-1.2,1.742-1.792a2.69,2.69,0,0,0,.745-.985C82.016,51.906,82.484,50.977,83.578,50.77Z" transform="translate(-61.684 -39.852)" fill="#ff7474"/>
      <path id="Path_1524" data-name="Path 1524" d="M119.9,58.477c.027-.259.056-.519.083-.774.242-.161.4-.019.58.128a25.4,25.4,0,0,1,2.252,2.194,7.158,7.158,0,0,0,.906.851c.238.642,1.161.865,1.055,1.724a.58.58,0,0,1-.387.139,4.985,4.985,0,0,1-2.061-1.645,17.423,17.423,0,0,0-1.7-1.7c-.356.048-.215.493-.48.621-.213.1-.283,0-.327-.178A5.728,5.728,0,0,1,119.9,58.477Z" transform="translate(-93.998 -45.256)" fill="#ff7474"/>
      <path id="Path_1525" data-name="Path 1525" d="M124.129,59.22c-.878-.443-1.322-1.343-2.047-1.952-.524-.441-.954-1-1.527-1.4,0-.228-.174-.58.315-.49.387.031.623.321.913.517.255.242.455.54.724.774.482.472.981.925,1.438,1.422.242.265.49.521.373.929A.412.412,0,0,1,124.129,59.22Z" transform="translate(-94.63 -43.512)" fill="#ff7474"/>
      <path id="Path_1526" data-name="Path 1526" d="M107.887,62v1.548a.387.387,0,0,1-.356.466A3.091,3.091,0,0,1,105,63.8a.453.453,0,0,1-.066-.343.194.194,0,0,1,.286-.106c.253.012.507.029.759.033C107.5,63.393,107.5,63.393,107.887,62Z" transform="translate(-82.428 -48.78)" fill="#ff7474"/>
      <path id="Path_1527" data-name="Path 1527" d="M119.373,29.14h.205a.5.5,0,0,1,.219.306,18.125,18.125,0,0,1,.193,3.87.228.228,0,0,1-.3.083,1.107,1.107,0,0,1-.352-1.033C119.352,31.3,119.364,30.218,119.373,29.14Z" transform="translate(-93.887 -23.501)" fill="#ff7474"/>
      <path id="Path_1528" data-name="Path 1528" d="M102.1,58.367h-.166c-.451-.267-.348-.88-.741-1.184-.132-.23.12-.5-.07-.722l-.076-.07c.18-.308.447-.65.788-.54.414.135.081.54.1.826C101.973,57.247,102.047,57.8,102.1,58.367Z" transform="translate(-79.485 -43.916)" fill="#ff7474"/>
      <path id="Path_1529" data-name="Path 1529" d="M121.2,51.1l.193-.025c.505.015.755.387,1.02.733.339.8.339.8-.265.834-.29-.193-.695-.273-.739-.722Z" transform="translate(-95.309 -40.195)" fill="#ff7474"/>
      <path id="Path_1530" data-name="Path 1530" d="M197.909,52c.255.07.646-.015.654.375s-.372.333-.635.375C197.385,52.521,197.549,52.267,197.909,52Z" transform="translate(-155.012 -40.947)" fill="#ff7474"/>
      <path id="Path_1531" data-name="Path 1531" d="M121.18,3.4a1.124,1.124,0,0,1,.035-.182c.089-.236-.124-.671.279-.681s.232.422.329.67Z" transform="translate(-95.34 -2.047)" fill="#ff7474"/>
      <path id="Path_1532" data-name="Path 1532" d="M151.3,13.423c-.122-.581.306-.312.538-.342.074.176.308.329.029.546C151.548,13.876,151.463,13.566,151.3,13.423Z" transform="translate(-119.012 -10.52)" fill="#ff7474"/>
      <path id="Path_1533" data-name="Path 1533" d="M8.385,129.5,8,129.1A4.687,4.687,0,0,1,5.8,126.694c-.551-1.242-1.548-2.281-1.709-3.733a17.246,17.246,0,0,0-.714-2.988,2.579,2.579,0,0,1,.925-2.3c.445-.193.4.182.4.412.046,2.152,1.039,4.064,1.5,6.113a1.1,1.1,0,0,0,.447.722.668.668,0,0,1,.224,1,.834.834,0,0,0,.509,1.31c1.355.482,1.776,1.86,2.725,2.725a1.412,1.412,0,0,1,.294.488c.114.257.968.232.3.789-.461.387-.894.751-1.482.163C8.7,130.854,8.707,130.109,8.385,129.5Z" transform="translate(-2.709 -90.683)" fill="#ff7474"/>
      <path id="Path_1534" data-name="Path 1534" d="M85.168,209.654c.41.455.886.308,1.409.242s1.372-.36,1.511.286c.118.555-.784.753-1.262.9a3.948,3.948,0,0,1-3.015.116,3.008,3.008,0,0,1-2.279,0,19.829,19.829,0,0,1-2.574-.375c-.617-.257-.913-.526-.755-.968.526-.592,1.1-1.018,1.935-.581a6.173,6.173,0,0,0,2.129.205,1.493,1.493,0,0,0,1.742.194Z" transform="translate(-61.064 -164.452)" fill="#ff7474"/>
      <path id="Path_1535" data-name="Path 1535" d="M48.465,197.071c-.321-.054-.739.157-.917-.3a.308.308,0,0,1,.159-.408c.4-.153.878-.733,1.2-.344.83,1.014,2.129,1.068,3.142,1.724.747.486.387,1.161.935,1.809-1.5-.284-2.657-.681-3.353-1.9A1.058,1.058,0,0,0,48.465,197.071Z" transform="translate(-37.274 -153.804)" fill="#ff7474"/>
      <path id="Path_1536" data-name="Path 1536" d="M8.712,78.659c.021.3-1.211,1.354-1.527,1.293-.24-.045-.348-.193-.184-.387.313-.4.648-.774.987-1.161a.387.387,0,0,1,.441-.087A.422.422,0,0,1,8.712,78.659Z" transform="translate(-5.594 -61.609)" fill="#ff7474"/>
      <path id="Path_1537" data-name="Path 1537" d="M7.174,91.42c.286.13.534.3.439.646-.1.387-.157.882-.683.913-.329.019-.416-.308-.3-.559C6.779,92.078,6.6,91.532,7.174,91.42Z" transform="translate(-5.318 -71.954)" fill="#ff7474"/>
      <path id="Path_1538" data-name="Path 1538" d="M40.294,191.952c-.319,0-.592-.076-.658-.422-.048-.252.128-.327.346-.327a.642.642,0,0,1,.658.451C40.735,191.937,40.457,191.914,40.294,191.952Z" transform="translate(-31.179 -150.024)" fill="#ff7474"/>
      <path id="Path_1539" data-name="Path 1539" d="M13.954,69.758c.023.279-.164.337-.362.337-.24,0-.581.106-.639-.232-.046-.232.172-.418.4-.455A.536.536,0,0,1,13.954,69.758Z" transform="translate(-10.453 -54.649)" fill="#ff7474"/>
      <path id="Path_1540" data-name="Path 1540" d="M80.3,208.66a2.612,2.612,0,0,0-1.935.581C78.879,208.292,79.587,208.08,80.3,208.66Z" transform="translate(-61.614 -163.845)" fill="#ff7474"/>
      <path id="Path_1541" data-name="Path 1541" d="M101.092,211.193c-.639.482-1.242.66-1.742-.193A5.321,5.321,0,0,0,101.092,211.193Z" transform="translate(-78.114 -165.991)" fill="#ff7474"/>
      <path id="Path_1542" data-name="Path 1542" d="M52.4,201.378c.656-.342,1-.074,1.161.58Z" transform="translate(-41.22 -158.11)" fill="#ff7474"/>
      <path id="Path_1543" data-name="Path 1543" d="M212.331,95.728c-.76,1.387.1,3.144-.356,4.81-.108.4.151.753.137,1.136a.645.645,0,0,1-.344.646c-.341.139-.387-.217-.557-.387-.7-.733-.1-1.656-.387-2.473a1.891,1.891,0,0,1,.641-2.337c.46-.356.041-1.529-.615-1.983-.213-.147-.5-.213-.406-.55s.356-.147.559-.134a.711.711,0,0,0,.194,0C212.277,94.226,212.335,94.286,212.331,95.728Z" transform="translate(-165.373 -73.928)" fill="#ff7474"/>
      <path id="Path_1544" data-name="Path 1544" d="M201.133,146.412a3.6,3.6,0,0,0-.493.443c-.23.3-.375.743-.846.654a1.075,1.075,0,0,1-.849-.7,1.188,1.188,0,0,1,.509-1.161c.526-.329.8-.619.6-1.3-.153-.507,1.147-1.38,1.664-1.161a.646.646,0,0,1,.312.325.369.369,0,0,1-.205.482c-.223.114-.462.194-.695.29.126.221-.029.306-.194.387a5.1,5.1,0,0,1,.194,1.742Z" transform="translate(-156.104 -112.469)" fill="#ff7474"/>
      <path id="Path_1545" data-name="Path 1545" d="M175.575,180.284c0,.323-.193.534-.472.507-.7-.068-.8.414-1,.9-.447,1.115-1.273,1.5-1.962,1-.282-.207-.416-.387-.122-.685.859-.849,1.714-1.7,2.579-2.55a.348.348,0,0,1,.515.015A1.414,1.414,0,0,1,175.575,180.284Z" transform="translate(-134.266 -140.467)" fill="#ff7474"/>
      <path id="Path_1546" data-name="Path 1546" d="M201.211,54.561a.732.732,0,0,0,.536-.352c.339-.555.346-.091.426.147-.178.194-.832.271-.081.668a1.565,1.565,0,0,1,.639,2.218c-.083.193-.12.47-.387.49a.557.557,0,0,1-.559-.428A5.967,5.967,0,0,1,201.211,54.561Z" transform="translate(-157.923 -42.4)" fill="#ff7474"/>
      <path id="Path_1547" data-name="Path 1547" d="M145.584,204.884c-.023.4-1.5,1.057-1.86.848-.466-.275-.871-.581-1.3.05-.13.194-.352.091-.476-.1s-.18-.412.122-.538a11.682,11.682,0,0,1,2.533-.9A.919.919,0,0,1,145.584,204.884Z" transform="translate(-111.374 -160.537)" fill="#ff7474"/>
      <path id="Path_1548" data-name="Path 1548" d="M192.686,169.37c.571.184.677.681.869,1.1.112.242-.023.532-.263.459-.387-.118-.909-.174-.967-.747A.863.863,0,0,1,192.686,169.37Z" transform="translate(-150.77 -133.305)" fill="#ff7474"/>
      <path id="Path_1549" data-name="Path 1549" d="M208.854,80.22a1.054,1.054,0,0,1,.84.811c.072.521-.492.333-.762.449-.31.133-.565-.039-.561-.416S208.438,80.371,208.854,80.22Z" transform="translate(-163.716 -63.148)" fill="#ff7474"/>
      <path id="Path_1550" data-name="Path 1550" d="M211.233,73.433c0,.207-.085.354-.273.317a.536.536,0,0,1-.47-.524c0-.193.068-.424.321-.356A.644.644,0,0,1,211.233,73.433Z" transform="translate(-165.426 -57.366)" fill="#ff7474"/>
      <path id="Path_1551" data-name="Path 1551" d="M209.31,149.387c.062-.13.126-.257.194-.387.232.033.615-.015.5.348C209.867,149.774,209.55,149.462,209.31,149.387Z" transform="translate(-164.474 -117.34)" fill="#ff7474"/>
      <path id="Path_1552" data-name="Path 1552" d="M199.512,167.045c-.193-.05-.226-.194-.213-.366.012-.128.066-.263.221-.259a.273.273,0,0,1,.275.312.286.286,0,0,1-.282.313Z" transform="translate(-156.398 -131.055)" fill="#ff7474"/>
      <path id="Path_1553" data-name="Path 1553" d="M80.524,58.246c.155-.05.306-.352.449-.134.194.288-.149.474-.279.7-.48,1.13-1.548,1.763-2.3,2.659A20.73,20.73,0,0,1,76.6,63.192c-.279.257-.553.58-.995.279a.666.666,0,0,1,.194-.9c.193-.29.58-.269.83-.478Z" transform="translate(-59.215 -45.557)" fill="#ff7474"/>
      <path id="Path_1554" data-name="Path 1554" d="M76.378,64.6l-.571.61c-.329.06-.759.267-.581-.4,1.233-1.213,2.347-2.546,3.677-3.661-.581,1.13-1.693,1.778-2.469,2.73C76.29,64.064,75.658,64.31,76.378,64.6Z" transform="translate(-59.04 -48.05)" fill="#ff7474"/>
      <path id="Path_1555" data-name="Path 1555" d="M139.15,74.021l.05-.279c.43-.122.637.217.879.449.67.635,1.32,1.291,1.989,1.935a13.413,13.413,0,0,0,1.416,1.416c.228.193.455.356.4.7a.561.561,0,0,1-.449.29A4.721,4.721,0,0,1,142,77.369a8.59,8.59,0,0,1-1.645-1.846C140.05,74.933,139.369,74.668,139.15,74.021Z" transform="translate(-109.18 -57.899)" fill="#ff7474"/>
      <path id="Path_1556" data-name="Path 1556" d="M143.668,83a9.222,9.222,0,0,1,1.741,1.742c.033.193-.025.277-.226.215a11.236,11.236,0,0,1-1.923-1.935Z" transform="translate(-112.604 -65.31)" fill="#ff7474"/>
      <path id="Path_1557" data-name="Path 1557" d="M134,65.595l-2.709-2.527c-.439-.9-1.337-1.387-1.935-2.146.151-.559.207-.581.691-.1,1.254,1.273,2.568,2.49,3.769,3.814l.333.228c.153.072.308.141.3.35A.536.536,0,0,1,134,65.595Z" transform="translate(-101.474 -47.493)" fill="#ff7474"/>
      <path id="Path_1558" data-name="Path 1558" d="M131.225,60.394c-1.314-1.01-2.372-2.287-3.58-3.408-.207-.193-.358-.894-.88-.308l-.635-.695c.675-.223-.137-.522.041-.774A50.948,50.948,0,0,1,131.225,60.394Z" transform="translate(-98.94 -43.351)" fill="#ff7474"/>
      <path id="Path_1559" data-name="Path 1559" d="M76.038,63.58c-.455-.224-.155-.71-.414-1.113-2.293,1.887-4.062,4.286-6.362,6.13A.333.333,0,0,1,69,68.331c.064-.581.67-.824.865-1.329a.728.728,0,0,1,.58-.325,13.479,13.479,0,0,0,2.74-2.446c.774-.718,1.509-1.459,2.262-2.19.745.194.447.886.64,1.343C76.072,63.451,76.055,63.518,76.038,63.58Z" transform="translate(-54.046 -48.665)" fill="#ff7474"/>
      <path id="Path_1560" data-name="Path 1560" d="M49.74,109.4c-.786-.774-1.579-1.527-2.357-2.3a3.631,3.631,0,0,1,.252-5.484c.89-.331.759.205.629.739-.387.581-.968.968-.968,1.861a2.814,2.814,0,0,0,1.24,2.587c.532.7,1.4,1.171,1.538,2.154A.528.528,0,0,1,49.74,109.4Z" transform="translate(-36.321 -79.545)" fill="#ff7474"/>
      <path id="Path_1561" data-name="Path 1561" d="M154.4,83.448c-.075-.12-.149-.242-.224-.364.433-.068.621.284.859.521,1.25,1.24,2.479,2.5,3.736,3.735a1.478,1.478,0,0,1,.509,1.182c-.031.8-.027,1.6-.031,2.4,0,.418-.093.774-.581.849-.132-.1-.155-.468-.451-.164-.215.219-.4.459-.611.685-.232.163-.418.406-.735.416a.5.5,0,0,1-.478-.292.722.722,0,0,1,.368-.88c.348-.209.478-.58.718-.859.861-.892.387-1.7-.155-2.516a.656.656,0,0,1,.054-.416.477.477,0,0,1,.213-.174c.923-.041,1.059.617,1.173,1.293,0,.143-.141.116-.012.11a.5.5,0,0,1,0-.087,1.233,1.233,0,0,0-.693-1.333,3.735,3.735,0,0,1-.942-.937,1.418,1.418,0,0,0-.625-.644c-.515-.606-1.161-1.068-1.7-1.654C154.575,84.081,154.213,83.888,154.4,83.448Z" transform="translate(-120.94 -64.998)" fill="#ff7474"/>
      <path id="Path_1562" data-name="Path 1562" d="M93.453,161.193c-.786.8-1.548,1.618-2.363,2.4-.511.5-2.846.472-3.464.062-1.488-.993-2.516-2.457-3.843-3.618-.54-.466-.521-.8.23-.954.774.257,1.161.967,1.73,1.463s1.037,1.041,1.579,1.538a1.7,1.7,0,0,0,1.883.968.976.976,0,0,1,.968.234c.083.375-.194.329-.406.331a11.187,11.187,0,0,1-1.385-.029c2.086.072,1.742.209,3.319-1.291.48-.457.774-1.219,1.623-1.18Z" transform="translate(-65.157 -124.939)" fill="#ff7474"/>
      <path id="Path_1563" data-name="Path 1563" d="M64.28,139.96a.6.6,0,0,1,.261-.466c.414-.242.648.068.9.3.387.372.774.774,1.18,1.122a15.763,15.763,0,0,0,1.084,1.161.993.993,0,0,1,.433.882c-.145.4-.418.4-.743.238Z" transform="translate(-50.474 -109.561)" fill="#ff7474"/>
      <path id="Path_1564" data-name="Path 1564" d="M141.166,130.085c.207-.124.205-.451.486-.505.234.085.253.3.29.5-2.274,2.57-4.758,4.936-7.214,7.322l-.083-.019c-.194-.455.153-.685.4-.952a5.338,5.338,0,0,0,.786-.919,1.018,1.018,0,0,1,.18-.207,40.515,40.515,0,0,0,4.874-4.954A.536.536,0,0,1,141.166,130.085Z" transform="translate(-105.385 -101.543)" fill="#ff7474"/>
      <path id="Path_1565" data-name="Path 1565" d="M57.2,88.584a29.457,29.457,0,0,0,2.129-2.129.739.739,0,0,1,.985.122A8.371,8.371,0,0,1,57.9,89.2C57.493,89.492,57,89.292,57.2,88.584Z" transform="translate(-44.899 -67.883)" fill="#ff7474"/>
      <path id="Path_1566" data-name="Path 1566" d="M54.172,89.776c.145.625.406.6.848.213a25,25,0,0,1,2.192-2.129.232.232,0,0,1,.281-.019c-.108.617-.76.838-.995,1.355a5.8,5.8,0,0,1-2.452,2.262.461.461,0,0,1-.238-.135c.041-.35.284-.809-.408-.774A2.162,2.162,0,0,1,54.172,89.776Z" transform="translate(-41.926 -69.016)" fill="#ff7474"/>
      <path id="Path_1567" data-name="Path 1567" d="M69.574,81.564l-.281.019c-.306-.066-.58-.271-.913-.209l1.355-1.355c.015.387.281.418.58.4-.248.194-.453.387-.387.745Z" transform="translate(-53.761 -62.981)" fill="#ff7474"/>
      <path id="Path_1568" data-name="Path 1568" d="M171.38,124.89a.753.753,0,0,1-.29-.5c.114-.358.435-.538.677-.784.209-.215.455-.631.762-.387.422.323-.164.581-.221.88Z" transform="translate(-134.524 -96.914)" fill="#ff7474"/>
      <path id="Path_1569" data-name="Path 1569" d="M80.38,157.163c.228-.077.561,0,.58-.387.43-.172.64.1.832.41a.228.228,0,0,1-.093.223c-.919-.155-.461.372-.356.722C80.732,158.094,80.788,157.4,80.38,157.163Z" transform="translate(-63.214 -123.363)" fill="#ff7474"/>
      <path id="Path_1570" data-name="Path 1570" d="M79.224,118.565a38.7,38.7,0,0,0,9.114.61c.942-.037,1.879-.238,2.817-.364a.275.275,0,0,1,.048.257.774.774,0,0,1-.4.387c-.474.224-1.039,0-1.5.314a6.4,6.4,0,0,1-2.09.193,6.984,6.984,0,0,0-2.465.232.82.82,0,0,1-.66.025c-1.56-.878-3.4-.408-5-1.047-.3-.12-.741-.077-.7-.6A1.3,1.3,0,0,1,79.224,118.565Z" transform="translate(-61.056 -93.256)" fill="#ff7474"/>
      <path id="Path_1571" data-name="Path 1571" d="M156.652,94.9v.375a2.154,2.154,0,0,1-.993,1.215c-.387.163-.774.358-1.134-.041,1.759-1,1.757-.993.253-2.516-.555-.565-1.093-1.147-1.639-1.722l.234-.215a6.4,6.4,0,0,1,1.354,1.161A4.362,4.362,0,0,1,156.652,94.9Z" transform="translate(-120.261 -72.265)" fill="#ff7474"/>
      <path id="Path_1572" data-name="Path 1572" d="M55.8,97.185c1.1-.4,1.587-1.548,2.552-2.115l.182.172c-.478.551-.938,1.118-1.44,1.649-.64.67-.509,1.223.4,1.455a2.354,2.354,0,0,1,1.082.333.4.4,0,0,1-.194.234,2.315,2.315,0,0,1-2.674-1.293A.548.548,0,0,1,55.8,97.185Z" transform="translate(-43.769 -74.715)" fill="#ff7474"/>
      <path id="Path_1573" data-name="Path 1573" d="M147.476,114.1a2.484,2.484,0,0,0,1.144-.217c.017.05.035.1.054.149a.505.505,0,0,1-.24.387,10.7,10.7,0,0,1-3.62,1.035.534.534,0,0,1-.424-.18,1.533,1.533,0,0,0,0-.193Z" transform="translate(-113.329 -89.631)" fill="#ff7474"/>
      <path id="Path_1574" data-name="Path 1574" d="M72.6,114.709l-.83.037c-.739.07-1.343-.1-1.589-.9l.079-.13Z" transform="translate(-55.159 -89.533)" fill="#ff7474"/>
      <path id="Path_1575" data-name="Path 1575" d="M153.8,85l2.322,2.322c.035.3-.176.337-.387.373-.228-.025-.412-.1-.43-.371-.526-.751-1.391-1.178-1.875-1.968A.387.387,0,0,1,153.8,85Z" transform="translate(-120.555 -66.854)" fill="#ff7474"/>
      <path id="Path_1576" data-name="Path 1576" d="M161.614,97.08a.418.418,0,0,0,.377.207,1.3,1.3,0,0,1,.861.642c.2.333.728.559.352,1.08h0a6.673,6.673,0,0,1-1.935-1.742Z" transform="translate(-126.766 -76.392)" fill="#ff7474"/>
      <path id="Path_1577" data-name="Path 1577" d="M51.533,106l.025.387a3.382,3.382,0,0,1-.174,1.039,2.469,2.469,0,0,0,.557,2.25c.519.753.482.931-.194,1-1.476-.757-1.343-2.156-1.331-3.468,0-.581.522-.9.987-1.186A.294.294,0,0,1,51.533,106Z" transform="translate(-39.636 -83.263)" fill="#ff7474"/>
      <path id="Path_1578" data-name="Path 1578" d="M56.661,125.923c.981-.464-.141-.548-.151-.832.455-.339.774-.112,1.022.273a6.618,6.618,0,0,0,.84,1.028,2.815,2.815,0,0,0,.619.7,10.921,10.921,0,0,0,1.31,1.43.809.809,0,0,1,.149.652.387.387,0,0,1-.308.244c-.695-.451-1.06-1.283-1.867-1.6Z" transform="translate(-44.371 -98.141)" fill="#ff7474"/>
      <path id="Path_1579" data-name="Path 1579" d="M165.033,109.888l.983-.968c.954,1,1.022,1.854.217,2.728a.315.315,0,0,1-.25.068c-.18-.06-.306-.205-.482-.281-.968-.426-.968-.435-.25-1.2.209-.223-.163-.163-.166-.29Z" transform="translate(-129.495 -85.662)" fill="#ff7474"/>
      <path id="Path_1580" data-name="Path 1580" d="M168.623,101.094c0-.435-.362-.675-.561-1-.193-.451.014-.5.387-.358a5.089,5.089,0,0,0,.882.863,1.946,1.946,0,0,1,.894,2.206c-.039.254.114.679-.3.67-.286,0-.248-.387-.263-.642a5.963,5.963,0,0,0-.045-.855A1.049,1.049,0,0,0,168.623,101.094Z" transform="translate(-132.028 -78.333)" fill="#ff7474"/>
      <path id="Path_1581" data-name="Path 1581" d="M151.8,130.949l-.072.331c-.946.85-1.817,1.776-2.725,2.665-.246.242-.457.548-.861.544a.476.476,0,0,1-.331-.234.556.556,0,0,1-.035-.269c.275-.633.907-.968,1.277-1.519a16.573,16.573,0,0,1,1.742-1.676.592.592,0,0,1,.522-.122Z" transform="translate(-116.003 -102.685)" fill="#ff7474"/>
      <path id="Path_1582" data-name="Path 1582" d="M158.607,124.474l-.343.244c-.49.4-.968.509-1.44-.031a.544.544,0,0,1,0-.279,16.222,16.222,0,0,1,2.786-1.438l.23.017C159.622,123.647,158.85,123.843,158.607,124.474Z" transform="translate(-123.18 -96.755)" fill="#ff7474"/>
      <path id="Path_1583" data-name="Path 1583" d="M166.033,97.637a.366.366,0,0,0-.387.358L165,97.279l.445-.209A.791.791,0,0,1,166.033,97.637Z" transform="translate(-129.781 -76.429)" fill="#ff7474"/>
      <path id="Path_1584" data-name="Path 1584" d="M105.207,169.193a7.766,7.766,0,0,0-1.062,0,1.81,1.81,0,0,1-2.069-1.122c-.066-.168.021-.269.155-.348.387-.124.675.1.989.25a1.907,1.907,0,0,0,2.709-.5c.488-.433.892-.991,1.6-1.113a.387.387,0,0,1,.3.282A4.136,4.136,0,0,1,105.207,169.193Z" transform="translate(-80.015 -130.833)" fill="#ff7474"/>
      <path id="Path_1585" data-name="Path 1585" d="M110.14,164.121a12.746,12.746,0,0,0,2.556-2.454c.18-.552.687-.84,1.022-1.267.313-.265.639-.478,1.051-.194-.337.7-1.111,1.043-1.428,1.759a3.944,3.944,0,0,0-1.548,1.411c-.933,1.287-2.177,1.213-3.622,1.055C108.878,164.137,109.571,164.539,110.14,164.121Z" transform="translate(-84.755 -125.756)" fill="#ff7474"/>
      <path id="Path_1586" data-name="Path 1586" d="M90.359,160.763l-.286.283-2.9-2.9c.019-.031.037-.064.054-.095.048-.157.021-.358.246-.408.729.257,1.029,1.018,1.647,1.409.457.457,1.064.774,1.273,1.453A.422.422,0,0,1,90.359,160.763Z" transform="translate(-68.473 -123.931)" fill="#ff7474"/>
      <path id="Path_1587" data-name="Path 1587" d="M77.821,148.878l-.193.362-.784-.536c-.4-.679-1.207-.991-1.564-1.713l.257-.257a.544.544,0,0,1,.484.095c.242.168.428.4.654.581.356.246.6.606.94.871C77.776,148.45,77.921,148.622,77.821,148.878Z" transform="translate(-59.161 -115.405)" fill="#ff7474"/>
      <path id="Path_1588" data-name="Path 1588" d="M143.609,137.025q1.37-1.329,2.744-2.655c.25-.24.455-.557.873-.5.157.168.037.288-.077.4q-2.175,2.177-4.35,4.35a.917.917,0,0,1-.58.294C142.069,138.087,142.541,137.445,143.609,137.025Z" transform="translate(-111.536 -105.122)" fill="#ff7474"/>
      <path id="Path_1589" data-name="Path 1589" d="M134.4,148.955c-.331.731-1.333.967-1.4,1.892a.141.141,0,0,0,0,.157c-.426-.1-.662.238-.968.418-.286.1-.478-.087-.689-.219-.774-.9-.762-1.354.025-1.9a.784.784,0,0,1,.284.021c.387.145.737.716,1.206.124.431-.242.581-.977,1.281-.749Z" transform="translate(-102.694 -116.914)" fill="#ff7474"/>
      <path id="Path_1590" data-name="Path 1590" d="M55.679,112.975c-.406-.3-.851-.548-.921-1.138-.056-.464-.416-.5-.8-.453a2.8,2.8,0,0,1-.031-3.454,3.9,3.9,0,0,0,2.676,1.25c.445.447,1.093.534,1.589.9,1.337.223,2.6.888,4.023.619a.967.967,0,0,1,.565.075c2.138,1.037,4.294,0,6.44.074a.581.581,0,0,1,.877.284c.166.348-.05.633-.333.817a3.609,3.609,0,0,0-.728.76,1.411,1.411,0,0,1-1.949.462c-.259-.147-.615-.306-.813-.1-.507.517-1.2.5-1.792.76a.917.917,0,0,1-.194.193c-.9.648-1.693.126-2.481-.248-.277-.132-.484-.42-.848-.3a4.411,4.411,0,0,1-1.608.091c-1.043-.193-2.041-.733-3.16-.387C56.037,113.232,55.836,113.089,55.679,112.975Z" transform="translate(-41.326 -84.673)" fill="#ff7474"/>
      <path id="Path_1591" data-name="Path 1591" d="M109.32,125.225c.211-.265.37-.677.824-.412.387.223.53-.041.683-.284a.917.917,0,0,1,1.484-.226c.662.542,1.068.284,1.558-.205.356-.354.7-.739,1.041-1.093.511-.538-.147-.6-.548-.673.4-.441.938.178,1.355-.17a.4.4,0,0,1,.122.352.668.668,0,0,0,.193.968c.194.569.557.608,1.062.4s1.008-.509,1.515-.012l.014.211c.193.581-.17,1-.41,1.451a6.319,6.319,0,0,1-1.42,1.548c-.786.193-.867-.59-1.256-.938-1.374,1.461-2.194,1.521-4.052.536A8.852,8.852,0,0,1,109.32,125.225Z" transform="translate(-85.449 -95.922)" fill="#ff7474"/>
      <path id="Path_1592" data-name="Path 1592" d="M142,115.235c0-.126.012-.252.019-.375l.387-.194c1.273-.331,2.548-.654,3.818-1a1.755,1.755,0,0,0,.464-.313c.335-.058.774-.524.968.064.124.4-.238.6-.687.5a.308.308,0,0,0-.387.315c0,.193.207.224.37.221.4,0,.714.081.666.58a4.414,4.414,0,0,1-2.709,1.548,3.556,3.556,0,0,0-1.742.472c-.788.315-1.088.027-.968-.859C142.028,115.889,141.819,115.6,142,115.235Z" transform="translate(-111.276 -88.893)" fill="#ff7474"/>
      <path id="Path_1593" data-name="Path 1593" d="M81.8,138a2.325,2.325,0,0,1,.989.4c1.206.567,2.249,1.7,3.785,1.322.42-.1.8-.263.838-.788.021-.288.031-.644.424-.633a.662.662,0,0,1,.72.639.756.756,0,0,0,.774.8c.07.037.1.079.079.126s-.039.072-.062.072a1.124,1.124,0,0,0-.027.18c-.548.136-.691.731-1.128.991-.513.373-.933.037-1.368-.176h0c-.437-.193-.807-.221-.894.387-.114.807-.544,1.02-1.279.646-.292-.149-.462-.443-.751-.58-1.022.906-1.178.925-2.465.3-.194-.091-.412-.331-.581-.064-.333.5-.857.476-1.393.521.232.488.853.807.491,1.387-.193.325-.443,0-.658-.091a7.956,7.956,0,0,1-1.534-1.567c-.126-.128-.25-.257-.375-.387-.339-.327-.372-.85-.745-1.161-.232-.211-.428-.5-.813-.412l-.35-.194-.279-.524a.936.936,0,0,1,1.225-.627,5.894,5.894,0,0,0,2.829-.037,1.762,1.762,0,0,0,2.5.747c.07-.035.025-.242-.093-.426a1.273,1.273,0,0,1,.149-.844Z" transform="translate(-58.467 -108.322)" fill="#ff7474"/>
      <path id="Path_1594" data-name="Path 1594" d="M73.564,135.085c-.849.861-1.707,1.295-2.8.3-.445-.406-.869.176-1.306.3a5.063,5.063,0,0,1-1.37-1.345c1.043-.861,1.043-.861,2.185-.193a2.336,2.336,0,0,0,2.709-.224c.372-.252.534.017.774.255a2.115,2.115,0,0,0,2.322.319v.968c-.488.774-1.039.615-1.614.11a2.3,2.3,0,0,1-.339-.194C73.961,135.234,73.734,135.213,73.564,135.085Z" transform="translate(-53.293 -105.155)" fill="#ff7474"/>
      <path id="Path_1595" data-name="Path 1595" d="M70.812,133.4c.25.728.205,1.084-.757.861a5.162,5.162,0,0,0-1.5-.056c-.789.066-.793-.863-1.324-.925-.459-.054-.635.9-1.312.536-.209-.172-.461-.31-.521-.61a6.4,6.4,0,0,1,3.814.277C69.773,133.647,70.272,133.281,70.812,133.4Z" transform="translate(-51.29 -104.707)" fill="#ff7474"/>
      <path id="Path_1596" data-name="Path 1596" d="M154.35,133.159c.232-.432.205-.968.581-1.343.449-.24.9.36,1.354,0-.451.71-1.235,1.084-1.742,1.73C154.375,133.459,154.455,133.264,154.35,133.159Z" transform="translate(-121.337 -103.688)" fill="#ff7474"/>
      <path id="Path_1597" data-name="Path 1597" d="M149.438,139l.194.387a5.3,5.3,0,0,1-1.355,1.355l-.017-.194Z" transform="translate(-116.591 -109.391)" fill="#ff7474"/>
      <path id="Path_1598" data-name="Path 1598" d="M94.33,154.372c.437.077.743.05.42-.507-.106-.184-.29-.232-.459-.325-.248-.137-.553-.292-.4-.652a.524.524,0,0,1,.67-.238c.581.161,1.033.277,1.1-.6.025-.323.387-.343.639-.014a1.953,1.953,0,0,0,1.225.7c.433.079.861,0,.935-.54.035-.252.087-.447.348-.493.315-.054.447.159.559.414a1.061,1.061,0,0,0,1.416.606c-.023-.387-.718-.671-.228-.995a1.117,1.117,0,0,1,1.316.139c-.855.3-.867.774-.043,1.548.139.741-.4.927-.921,1.13l-1.355,1.161c-.428.248-.666.141-.673-.368a1.3,1.3,0,0,1,.3-.886c.277-.325.091-.58-.089-.857a.5.5,0,0,0-.757-.112,4.53,4.53,0,0,1-1.987.569c-.784.093-.06.691-.194,1.033a.817.817,0,0,1-.029.29c-.081.194-.159.375-.422.319Z" transform="translate(-73.446 -119.101)" fill="#ff7474"/>
      <path id="Path_1599" data-name="Path 1599" d="M102.383,160.389l-.5-1.608a3.563,3.563,0,0,0,3.29-.642c.281-.219.6.021.639.341.05.443.871.714.23,1.32-.594.559-.553.853,0,1.142-1.1,1.378-2.128,1.418-3.812.157a.706.706,0,0,1-.037-.168c.068-.139.137-.277.207-.414a4.756,4.756,0,0,1,.861-.021,1.4,1.4,0,0,1,.648.147.746.746,0,0,0,1.026-.155.7.7,0,0,0,.025-1.026c-.132-.1-.265-.149-.406-.015-.054.06-.11.114-.168.168a3.484,3.484,0,0,1-.474.387,2.271,2.271,0,0,1-.822.275A1.027,1.027,0,0,1,102.383,160.389Z" transform="translate(-79.961 -124.212)" fill="#ff7474"/>
      <path id="Path_1600" data-name="Path 1600" d="M130.31,162.23c.261-.412.737-.652.921-1.13l.428.358a4.009,4.009,0,0,1-1.107,1.037C130.471,162.408,130.389,162.319,130.31,162.23Z" transform="translate(-102.478 -126.809)" fill="#ff7474"/>
      <path id="Path_1601" data-name="Path 1601" d="M78.42,146.28c.524-.762.718-.163.968.234-.014.25-.066.462-.387.4Z" transform="translate(-61.69 -114.881)" fill="#ff7474"/>
      <path id="Path_1602" data-name="Path 1602" d="M81.34,149.421l.387-.4c.718.211.238.968.6,1.331Z" transform="translate(-63.986 -117.305)" fill="#ff7474"/>
      <path id="Path_1603" data-name="Path 1603" d="M135.27,153.09l1.368.176C136.077,154.019,135.669,153.6,135.27,153.09Z" transform="translate(-106.377 -120.56)" fill="#ff7474"/>
      <path id="Path_1604" data-name="Path 1604" d="M140.543,124.05c.219.284.478.563.193.95C139.9,124.841,140.015,124.487,140.543,124.05Z" transform="translate(-110.238 -97.671)" fill="#ff7474"/>
      <path id="Path_1605" data-name="Path 1605" d="M135.971,131.195c-.451.252-.731.354-1.111.193C135.121,130.941,135.439,130.991,135.971,131.195Z" transform="translate(-106.071 -103.209)" fill="#ff7474"/>
      <path id="Path_1606" data-name="Path 1606" d="M96.291,140.568a1.11,1.11,0,0,0,1.548.193c.226-.041.372-.43.664-.176.085.074.182.228.159.317-.068.273-.317.343-.559.447a5.119,5.119,0,0,1-2.417.134c-1-.05-.509-.644-.358-1.1.253-.1.509-.3.76,0-.052.074-.106.162-.025.232S96.219,140.624,96.291,140.568Z" transform="translate(-74.661 -110.381)" fill="#ff7474"/>
      <path id="Path_1607" data-name="Path 1607" d="M98.232,141.242c-.039.3-.135.581-.462.633-.176.031-.275-.135-.288-.3-.029-.387.255-.455.546-.513Z" transform="translate(-76.69 -111.072)" fill="#ff7474"/>
      <path id="Path_1608" data-name="Path 1608" d="M104.48,168.36c.166-.17.263-.435.565-.422.24.217.751.371.193.774-.346.236-.522-.066-.743-.232A1.055,1.055,0,0,1,104.48,168.36Z" transform="translate(-82.184 -132.232)" fill="#ff7474"/>
      <path id="Path_1609" data-name="Path 1609" d="M107.554,165.548c.221-.327-.075-.532-.194-.774l.948-.193c.677.387.828-.306,1.18-.581.716.476.4,1.014.095,1.548a.764.764,0,0,1-1.322.228A1.1,1.1,0,0,0,107.554,165.548Z" transform="translate(-84.367 -129.04)" fill="#ff7474"/>
      <path id="Path_1610" data-name="Path 1610" d="M113.48,162.562c.023.464-.043.88-.561,1.053-.435.145-.55-.134-.619-.468l.387-.4c.046.037.095.076.143.11l-.139-.11C112.822,162.152,113.082,162.059,113.48,162.562Z" transform="translate(-88.325 -127.702)" fill="#ff7474"/>
      <path id="Path_1611" data-name="Path 1611" d="M114.254,164.395c.194-.031.431-.29.551.072a.317.317,0,0,1-.269.432c-.342.014-.23-.31-.286-.5Z" transform="translate(-89.892 -129.367)" fill="#ff7474"/>
    </g>
  </g>
  <rect id="Rectangle_3289" data-name="Rectangle 3289" width="60" height="60" fill="none"/>
</svg>
