<svg id="Component_201_1" data-name="Component 201 – 1" xmlns="http://www.w3.org/2000/svg" width="60" height="60" viewBox="0 0 60 60">
  <path id="Union_120" data-name="Union 120" d="M-3338.462-679.017a2.344,2.344,0,0,1-.757-.32,0,0,0,0,0,0,0c-.591-.315-.39-.889-.394-1.371-.027-3.644-.092-7.291,0-10.932.035-1.323-.254-1.794-1.649-1.756-3.524.094-7.056.049-10.585,0-.566,0-1.26.31-1.693-.381v-.007c0,.011-.009.022-.013.034a.337.337,0,0,1-.121-.3c0-.008,0-.015,0-.022a3.764,3.764,0,0,1-.3-2.138q-.031-6.483,0-12.956c-.027-.784-.134-1.623.667-2.159a4.379,4.379,0,0,1,2.348-.272c.324.021.647.042.967.034,3.447-.082,6.892-.092,10.338-.134-.433-4.327-.123-8.67-.155-13,0-.953.708-1.283,1.508-1.286,5.193-.02,10.384,0,15.581,0,1.182,0,1.521.687,1.511,1.8-.051,4.17-.054,8.34-.073,12.511a.06.06,0,0,1,.015.017c3.887.027,7.771.048,11.658.092.658,0,1.375-.206,1.96.328h0c.714.344.653,1.007.653,1.621v14.309a1.971,1.971,0,0,1-.683,1.821,60.285,60.285,0,0,1-7.369.187c-1.306-.019-2.612-.04-3.919-.015-2.406.045-2.36,0-2.347,2.432.021,3.375-.038,6.749,0,10.124,0,1.135-.4,1.76-1.547,1.764Q-3330.663-679-3338.462-679.017Zm10.747-27.73c.3-.719,1.066-.829,1.757-.913,1.283-.154,2.588-.131,3.881-.181v.015c.006,0,.01-.01.016-.015a5.967,5.967,0,0,0,.69-.036,2.159,2.159,0,0,1,1.766.349,2.261,2.261,0,0,1,.284-.005c.209,0,.419.009.512-.092,1.127-1.247,2.186-.794,3.254.055l.427.114c.806-.388,1.7-1.483,2.264.06a2.6,2.6,0,0,1,2.882-.813,1.524,1.524,0,0,0,1.081-.132c.121-.046.239-.091.359-.125a1.571,1.571,0,0,1,.118-1.946.79.79,0,0,1-.192.147,59.81,59.81,0,0,1-7.015.174c-1.359-.019-2.714-.04-4.071-.005-.686.02-1.373,0-2.059,0-1.207-.289-1.374-1.23-1.413-2.252-.1-2.97,0-5.946-.05-8.917-.032-2.52-.41-2.912-2.883-2.937q-4.37-.034-8.744,0c-2.38.02-2.822.458-2.856,2.795-.041,2.858.042,5.718-.041,8.6-.065,2.406-.566,2.95-2.932,3.007-3.258.083-6.529.049-9.776,0a3.591,3.591,0,0,1-1.713-.28,1.627,1.627,0,0,1-.363,2.178.9.9,0,0,1,.133.485.861.861,0,0,1,.147.675h.654a3.805,3.805,0,0,0,.042-.73,2.622,2.622,0,0,1,1.7-.308l.017-.008c.612.068.917.481.379.841a2.679,2.679,0,0,0-.269.2h.981c.426-.321,1.208-.433,1.606-.761.22.13.275.478.38.761h1.259c.493-.538.823-1.518,1.83-.452a.558.558,0,0,0,.266-.035.52.52,0,0,1,.5,0,.991.991,0,0,1,.132.129c1.1.146,1.882-.65,2.817-1,1.084.526,1.505.767,1.348,1.356h.448c-.229-.454.271-.661.952-.683.46.3.375-.143.469-.343a1.385,1.385,0,0,1,1.966.546c.533-.45.948-.027,1.4.179s.983.261,1.213-.224c.631-1.333,1.565-.984,2.547-.576h.01a2.651,2.651,0,0,1,.555.628c.194.109.4.233.633.37.037.033.074.067.11.1Z" transform="translate(3360.999 732.999)" fill="#ff8080"/>
  <rect id="Rectangle_3287" data-name="Rectangle 3287" width="60" height="60" fill="none"/>
</svg>
