<svg xmlns="http://www.w3.org/2000/svg" width="76.508" height="73.786" viewBox="0 0 76.508 73.786">
  <path id="Union_109" data-name="Union 109" d="M48.12,70.64c-.477-1.175-.927-2.287-2.026-2.548a1.084,1.084,0,0,0-.249-.03,1.739,1.739,0,0,0-1.235.739h0c-.09,0-.342-.014-.747-.014-.29,0-.6.005-.916.014l-.081-1.551H42.44V68.8l-.076,0c-1.309.039-3.289.1-5.012.1a24.264,24.264,0,0,1-2.869-.112,2.214,2.214,0,0,1-1.509-1.081c-.358-.477-.7-.928-1.41-.928a2.063,2.063,0,0,0-.352.032c-2.376,3.042-3.386,3.675-4.977,4.31-2.358.942-7.836,1.1-12.238,1.226h-.009c-1.99.058-3.708.107-4.748.221-.031,0-.058,0-.08,0a.5.5,0,0,1-.387-.162c-.4-.433-.3-1.66-.166-3.215v-.013a17.167,17.167,0,0,0-.064-5.026c-2.155.229-2.155,1.094-2.155,2.665a10.8,10.8,0,0,1-.427,3.427c-.476,1-.981,1.482-1.542,1.482a1.617,1.617,0,0,1-.274-.029h-.01l-.023,0-.035-.006H4.073c-.079-.012-.158-.135-.25-.278l0,0c-.128-.2-.272-.427-.474-.464V69.091H2.125v1.363C.914,70.222,0,70.019,0,70.018l.4-8.51H.409c.272.009.546.014.815.014a9.2,9.2,0,0,0,2.485-.248,1.02,1.02,0,0,0,.651-.51.669.669,0,0,0,0-.49l3.493-.727c.013-.024,1.289-2.473.949-2.9a7.527,7.527,0,0,1,3.925-2.121,17.87,17.87,0,0,1,4.141-.456c1.06,0,1.788.079,1.793.08V54.1c-.011-.58-.11-5.749-.257-8.48a6.5,6.5,0,0,1,1.645-3.52,38.893,38.893,0,0,1,3.775-4.139,8.589,8.589,0,0,1,2.153-1.286l.008,0c1.108-.533,2.254-1.084,2.58-1.866.107-.256-1.3-1.15-2.782-2.1l0,0c-1.528-.974-3.109-1.981-3-2.282l.052-.139.028-.076,0,0c.3-.819.565-1.525,1.283-1.525a2.76,2.76,0,0,1,1.334.5,81.359,81.359,0,0,1,6.646,5.269l2.957.105a2.319,2.319,0,0,0,.841,1.147,3.136,3.136,0,0,0,1.475.332h.078a.028.028,0,0,0,.024-.013c.086-.12-.225-1.022-.228-1.031h0c-.161-.033-.974-.212-1.117-.433a1.352,1.352,0,0,1-.233-1.271.548.548,0,0,1,.518-.272h.09a10.6,10.6,0,0,0,1.713-.164v.61H39.47v-.8a6.544,6.544,0,0,1,.871-.055c.178,0,.356.007.528.02.257.019.6.034.923.049,2.193.1,6.276.276,9.086,2.142a11.466,11.466,0,0,1,5.192,4.619,4.059,4.059,0,0,0,1.48,1.623c.4-.058.385-.333.318-1.244l-.008-.106c0-.056-.111-.164-.246-.3-.212-.214-.476-.481-.493-.692,0-.011,0-.022,0-.037l0-.021,0-.02a2.952,2.952,0,0,1,.009-.891,28.434,28.434,0,0,0,.429-2.828c0-.37-.016-.689-.032-.972a5.154,5.154,0,0,1,.165-1.983c.556-1.894,4.04-2.04,5.095-2.04a8.793,8.793,0,0,1,1.807.156c.075.2.145.386.21.564.464,1.266.8,2.181,1.777,2.492.769,4,3.65,6.53,5.755,8.375l0,0c.471.412.957.839,1.349,1.226a3.411,3.411,0,0,1,1.021-.174,1.733,1.733,0,0,1,1.382.582,2.275,2.275,0,0,1,.373,1.884c0,.209-.274.283-.619.374a1.752,1.752,0,0,0-1.418,1.027c-3.56,4.189-3.891,7.208-4.241,10.4-.071.654-.145,1.33-.249,2.041-.015.1-.227.112-.472.122-.354.015-.794.035-.853.337,0,.005-.379.529-.116.754a1.686,1.686,0,0,0,.905.174c.147,0,.263-.006.283-.008-.025.116.058.242.153.388a.971.971,0,0,1,.212.837,7.264,7.264,0,0,1-1.005.878l0,0-2.716-.4a2.987,2.987,0,0,1-1.508.493,1.708,1.708,0,0,1-1.408-.725,32.789,32.789,0,0,1-2.437-5.478l0-.009c-.862-2.225-1.676-4.326-2.005-4.326a.065.065,0,0,0-.03.006,1.148,1.148,0,0,0-.678.755C57.8,54.208,59.9,57.308,61.577,59.8c1.216,1.8,2.176,3.221,1.822,3.51a1.49,1.49,0,0,1-.264.133l0,0c-.3.13-.7.31-.77.573a.371.371,0,0,0,.075.318c.139.2.239.355.312.468l.015.024c.249.391.249.391.841.625l.014.005,0,0c.3.117.744.294,1.439.606h.03a4.667,4.667,0,0,1,2.382.647l.019.011a1.563,1.563,0,0,0,.176.088,2.488,2.488,0,0,1-.005,2.436,1.443,1.443,0,0,1-1.222.8,1.916,1.916,0,0,1-1.379-.764A.282.282,0,0,1,65,69.233.915.915,0,0,0,64.474,69c-.32,0-.56.324-.712.962l-.02,0-.024.006-.022.005-.022.005-.01,0h0a2.956,2.956,0,0,1-.677.106c-.554,0-1.025-.319-1.531-1.034a4.079,4.079,0,0,0-2.02-3,2.058,2.058,0,0,0-1.469-.481c-.225,0-.463.015-.726.033l-.043,0c-.291.02-.556.036-.851.036a5.106,5.106,0,0,1-2.189-.456,8.1,8.1,0,0,1-2.677-2.14,2.5,2.5,0,0,0-1.243,1.81c-.11,1.4,1.427,2.886,2.784,4.2l0,0,0,0c1.23,1.188,2.392,2.309,2.17,3.191-.131.52-.728.923-1.826,1.232a6.6,6.6,0,0,1-1.8.29C49.395,73.786,48.747,72.187,48.12,70.64ZM22.335,65.278a2.788,2.788,0,0,0-.323.721v0a1.7,1.7,0,0,1-.354.7,1.867,1.867,0,0,1-.751.386,1.317,1.317,0,0,0-.232.089,2.694,2.694,0,0,0-.813.711,3.565,3.565,0,0,0,1.308.287,1.8,1.8,0,0,0,.759-.151,2.412,2.412,0,0,0,1.457-1.762,3.415,3.415,0,0,0-.355-1.419A1.412,1.412,0,0,0,22.335,65.278ZM2.586,66.594H3.754V64.841H2.586Zm30.432-1.752a.876.876,0,1,0,.877-.877A.878.878,0,0,0,33.017,64.841Zm8.762-.584a.877.877,0,1,0,.877-.877A.878.878,0,0,0,41.78,64.257ZM20.75,63.089a.876.876,0,1,0,.876-.877A.876.876,0,0,0,20.75,63.089ZM41.78,59.841a.877.877,0,1,0,.877-.876A.878.878,0,0,0,41.78,59.841Zm-10.046-.806a3.444,3.444,0,0,1,.977.806l.013.014a2.38,2.38,0,0,0,.288.273,1.29,1.29,0,0,0,.658.162,2.261,2.261,0,0,0,.8-.161l-.006-.008c-.324-.372-3.18-3.629-3.774-3.629a.106.106,0,0,0-.05.01l-1.254.745-2.407,1.22.712.814,2.033-.678.712.949a.493.493,0,0,0,.074,0,1,1,0,0,0,.6-.27l.035-.027a.867.867,0,0,1,.479-.242A.354.354,0,0,1,31.734,59.035Zm5.019-3.722a2.838,2.838,0,0,0,.43.665,2.054,2.054,0,0,1,.37.584.378.378,0,0,0-.03.04,2.748,2.748,0,0,0-.324.724,1.709,1.709,0,0,1-.355.7,1.881,1.881,0,0,1-.748.384,1.365,1.365,0,0,0-.234.09,2.707,2.707,0,0,0-.814.711,3.586,3.586,0,0,0,1.309.287,1.8,1.8,0,0,0,.758-.151,2.636,2.636,0,0,0,1.364-1.382,1.857,1.857,0,0,0,.353-.815,2.412,2.412,0,0,0-.684-2.182,3.461,3.461,0,0,0-1.384-.476A1.419,1.419,0,0,0,36.753,55.313ZM53.833,56.75a.584.584,0,1,0,.584-.584A.585.585,0,0,0,53.833,56.75Zm10.148-2.858V54.9a3.433,3.433,0,0,1-.57.82l1.761-1.152.779-1.626.305-2.17-.814-1.592.169,1.321L65,50.3l.169,2.169-.644-.678v1.592l-.373-.711Zm-30.693.436a.584.584,0,1,0,.584-.584A.585.585,0,0,0,33.288,54.327Zm-5.584.584h1.169V53.159H27.7Zm15.854-1.945a2.143,2.143,0,0,1,.723.492l0,0a1.465,1.465,0,0,0,.2.167,2.775,2.775,0,0,0,1.012.392,3.565,3.565,0,0,0-1.065-1.939,2.8,2.8,0,0,0-1.607-.582,1.357,1.357,0,0,0-.584.116,2.76,2.76,0,0,0-.9,1.01,1.559,1.559,0,0,0,.733.418,1.407,1.407,0,0,0,.181.011,2.921,2.921,0,0,0,.54-.064l.023,0a2.632,2.632,0,0,1,.469-.059A.867.867,0,0,1,43.558,52.966Zm6.893-1.406a5.615,5.615,0,0,0,2.422.95c.072,0,.143,0,.212,0a2.266,2.266,0,0,0,1.982-.747,2.055,2.055,0,0,0-.051-1.224,2.961,2.961,0,0,0-.434-.033,1.328,1.328,0,0,0-.508.08A1.99,1.99,0,0,0,53.5,51l0,0a1.3,1.3,0,0,1-.6.387,1.742,1.742,0,0,1-.379.036,4.2,4.2,0,0,1-.524-.039l-.082-.01h0a2.62,2.62,0,0,0-.286-.029H51.6A3.253,3.253,0,0,0,50.451,51.56Zm3.827-5.593a2.8,2.8,0,0,0,.43.665,1.708,1.708,0,0,1,.394.679,1.881,1.881,0,0,1-.084.836,1.242,1.242,0,0,0-.053.247,2.679,2.679,0,0,0,.154,1.069,2.972,2.972,0,0,0,1.239-1.66,2.41,2.41,0,0,0-.684-2.182,3.446,3.446,0,0,0-1.384-.476A1.4,1.4,0,0,0,54.278,45.967Zm-18.34.766a.877.877,0,1,0,.877-.876A.878.878,0,0,0,35.938,46.733ZM66.1,45.857a.584.584,0,1,0,.584-.584A.585.585,0,0,0,66.1,45.857Zm3.315-1.848,1.743.184.122-1.162-1.743-.184ZM37.669,42.935a.585.585,0,1,0,.584-.584A.585.585,0,0,0,37.669,42.935Zm3.179-3.8a.877.877,0,1,0,.877-.877A.878.878,0,0,0,40.847,39.138Zm-6.391-.292a.584.584,0,1,0,.584-.585A.585.585,0,0,0,34.457,38.847ZM49.365,33.3v-5.3h-5.3v-5.3h5.3V16.941h5.306v5.747h5.746v5.3H54.671v5.3ZM58.08,21.614V14.6H51.07V7.594H58.08V0h7.011V7.594h7.593V14.6H65.091v7.009Z" fill="#ff8282"/>
</svg>
