<svg id="Component_195_1" data-name="Component 195 – 1" xmlns="http://www.w3.org/2000/svg" width="64.606" height="64.606" viewBox="0 0 64.606 64.606">
  <path id="Path_1010" data-name="Path 1010" d="M793.311,376.245a10.744,10.744,0,0,0,1.061,1.824c.428.485,1.119,1.237,1.574,1.16a2.3,2.3,0,0,0,1.528-1.413c.126-.472-.444-1.289-.919-1.711a7.135,7.135,0,0,0-2.008-.853l.25.952c-.982.033-.976-.044-.763-.976a44.053,44.053,0,0,0,.861-4.663c.247-2.043-.823-3.412-2.5-4.435-2.235-1.371-2.4-1.8-1.607-4.213,1.563-4.756,3.154-9.5,4.737-14.263.058-.176.123-.348.187-.524l.395.132a26.611,26.611,0,0,1,1.322,3.6c.842,3.911,2.469,7.551,3.716,11.322.656,1.989.436,2.617-1.341,3.741-3.143,1.988-3.859,7.2-1.371,10.017.631.719,1.344,1.437.771,2.534a2.988,2.988,0,0,1-2.852,1.964c-1.462-.038-2.822-.173-3.651-1.618C792.175,377.976,792.175,377.208,793.311,376.245Z" transform="translate(-752.213 -330.457)" fill="#ff8282"/>
  <path id="Path_1011" data-name="Path 1011" d="M735.768,362.733c-.414-1.232-1-2.4-1.4-3.64-1.193-3.782-2.331-7.581-3.6-11.723-.7,1.857-1.292,3.291-1.791,4.775a7.094,7.094,0,0,0-.1,1.7c-2.353.3-.365,1.731-.027,2.935l-1.344-.823c-.823,2.266-1.646,4.427-2.372,6.632-.617,1.92-.23,2.5,1.476,3.585a5.6,5.6,0,0,1,2.159,2.126,7.516,7.516,0,0,1-.987,8.078c-1.075,1.415-1.012,2.351.294,3.546a4.067,4.067,0,0,0,5.414-.549,1.974,1.974,0,0,0-.071-2.743,4.86,4.86,0,0,0-1.064-.62,3.545,3.545,0,0,0-.274,1.242c.189,1.487-.628,2.395-2.041,2.194a7.177,7.177,0,0,0-1.081,0c-.5-1.934-.195-3.354,2.194-3.505.291-.019.774-.735.763-1.114-.036-1.144-.335-2.277-.417-3.423a5.084,5.084,0,0,1,2.99-5.354C735.971,365.3,736.3,364.315,735.768,362.733Zm-4.218-4.218a4.775,4.775,0,0,1-1.476.074c-.244-.033-.45-.351-.675-.549a2.5,2.5,0,0,1,.823-.444,8.539,8.539,0,0,1,1.445.052l.324-.45.466.883A3.825,3.825,0,0,1,731.55,358.514Z" transform="translate(-709.28 -330.589)" fill="#ff8282"/>
  <path id="Subtraction_225" data-name="Subtraction 225" d="M25.67,51.339a25.55,25.55,0,0,1-14.352-4.384,25.744,25.744,0,0,1-9.3-11.294A25.636,25.636,0,0,1,4.384,11.317a25.744,25.744,0,0,1,11.294-9.3A25.636,25.636,0,0,1,40.022,4.384a25.744,25.744,0,0,1,9.3,11.294,25.636,25.636,0,0,1-2.367,24.344,25.744,25.744,0,0,1-11.294,9.3A25.509,25.509,0,0,1,25.67,51.339ZM25.525,1.154A24.372,24.372,0,1,0,49.9,25.525,24.4,24.4,0,0,0,25.525,1.154Z" transform="translate(6.634 6.634)" fill="#ff8282" opacity="0.5"/>
  <g id="Component_83_1" data-name="Component 83 – 1">
    <path id="Path_852" data-name="Path 852" d="M0,1.139H4.972V21.188H0Z" transform="translate(30.14 -0.81)" fill="#ff8282"/>
    <path id="Subtraction_227" data-name="Subtraction 227" d="M32.3,64.606a32.556,32.556,0,0,1-6.51-.656,32.125,32.125,0,0,1-11.551-4.861,32.4,32.4,0,0,1-11.7-14.212A32.139,32.139,0,0,1,.656,38.813a32.622,32.622,0,0,1,0-13.02A32.137,32.137,0,0,1,5.517,14.242,32.545,32.545,0,0,1,9.461,9.461c.14-.14.284-.281.428-.42l2.867,2.864A28.252,28.252,0,1,0,32.3,4.038c-.725,0-1.457.028-2.177.083V.073C30.849.024,31.582,0,32.3,0a32.553,32.553,0,0,1,6.51.656A32.132,32.132,0,0,1,50.364,5.517a32.392,32.392,0,0,1,11.7,14.212,32.129,32.129,0,0,1,1.882,6.063,32.622,32.622,0,0,1,0,13.02A32.132,32.132,0,0,1,59.09,50.364a32.4,32.4,0,0,1-14.212,11.7,32.157,32.157,0,0,1-6.064,1.882A32.552,32.552,0,0,1,32.3,64.606Z" transform="translate(0)" fill="#ff8282"/>
  </g>
</svg>
