<?xml version="1.0" encoding="UTF-8" standalone="no"?>
<!DOCTYPE svg PUBLIC "-//W3C//DTD SVG 1.1//EN" "http://www.w3.org/Graphics/SVG/1.1/DTD/svg11.dtd">
<svg xmlns="http://www.w3.org/2000/svg" version="1.1" viewBox="0.00 0.00 86.00 77.00">
<path fill="#000000" d="
  M 86.00 52.94
  Q 86.00 53.03 86.00 53.13
  L 82.33 56.75
  A 1.65 1.17 13.5 0 1 81.36 57.14
  Q 80.37 57.20 78.75 56.36
  Q 61.78 47.50 55.65 44.08
  Q 52.56 42.36 46.16 37.94
  A 1.13 1.12 -39.0 0 0 45.10 37.83
  Q 44.25 38.17 43.66 39.26
  A 0.76 0.76 0.0 0 1 42.29 39.19
  Q 41.79 38.01 40.84 37.76
  A 1.25 1.24 -53.9 0 0 39.90 37.91
  C 33.12 42.05 27.37 46.26 20.43 49.92
  Q 12.21 54.26 6.32 56.95
  A 2.71 2.71 0.0 0 1 3.00 56.07
  Q 1.98 54.66 0.41 53.96
  A 0.26 0.26 0.0 0 1 0.39 53.50
  Q 3.75 51.61 7.06 50.66
  A 0.61 0.56 20.8 0 0 7.21 50.60
  L 25.47 41.34
  A 1.20 1.15 -84.1 0 0 25.86 41.01
  C 28.11 38.01 33.98 35.10 37.60 31.56
  A 0.89 0.87 53.4 0 0 37.75 30.49
  L 35.78 27.09
  A 1.84 1.84 0.0 0 1 37.07 24.36
  L 39.79 23.91
  A 0.27 0.26 84.8 0 0 40.00 23.65
  L 40.00 21.17
  A 0.55 0.55 0.0 0 0 39.17 20.69
  L 34.43 23.43
  A 1.82 1.81 -30.0 0 0 33.76 25.91
  L 35.76 29.38
  A 0.24 0.23 -87.2 0 1 35.42 29.69
  Q 33.23 28.13 31.67 25.28
  Q 30.46 23.06 30.63 22.21
  A 0.51 0.51 0.0 0 1 31.23 21.81
  Q 32.94 22.16 34.39 20.92
  Q 39.05 16.94 37.99 11.10
  A 0.95 0.95 0.0 0 1 38.45 10.12
  L 39.54 9.49
  A 1.45 1.44 71.8 0 0 40.24 8.09
  C 40.07 6.55 40.50 4.59 40.51 2.41
  Q 40.53 0.96 41.55 0.33
  A 0.41 0.41 0.0 0 1 42.17 0.69
  Q 42.14 2.71 42.61 4.02
  A 0.25 0.25 0.0 0 0 43.07 4.02
  Q 43.71 2.29 43.62 0.82
  A 0.46 0.46 0.0 0 1 44.26 0.37
  L 44.62 0.53
  A 0.56 0.54 -83.0 0 1 44.96 0.98
  Q 45.68 5.94 46.07 8.98
  Q 46.34 11.09 49.31 13.80
  A 1.63 1.59 14.5 0 1 49.76 14.54
  Q 50.24 16.37 49.57 17.79
  A 0.93 0.93 0.0 0 0 50.41 19.12
  L 51.93 19.12
  A 2.01 2.00 -78.5 0 1 53.77 21.91
  L 49.84 31.17
  A 1.60 1.60 0.0 0 0 50.32 33.03
  Q 58.36 39.43 67.12 44.65
  Q 76.02 49.96 86.00 52.94
  Z
  M 43.04 6.99
  Q 42.71 7.21 42.57 7.84
  A 0.41 0.41 0.0 0 0 43.18 8.27
  Q 43.34 8.18 43.50 7.30
  A 0.30 0.30 0.0 0 0 43.04 6.99
  Z"
/>
<path fill="#000000" d="
  M 61.96 77.00
  L 60.42 77.00
  C 59.18 76.06 56.60 75.34 56.13 73.84
  A 2.05 1.86 -6.2 0 0 54.33 72.53
  Q 51.78 72.39 50.80 72.19
  Q 48.07 71.64 49.71 68.37
  Q 50.61 66.57 50.30 64.75
  C 49.55 60.24 49.49 55.22 43.63 54.66
  C 36.91 54.01 36.26 59.48 35.43 65.50
  A 3.14 3.06 -51.8 0 0 35.59 67.01
  L 36.57 69.65
  A 1.82 1.82 0.0 0 1 35.23 72.07
  C 33.08 72.51 30.48 71.62 29.33 74.21
  A 1.63 1.61 -89.4 0 1 28.48 75.05
  Q 26.66 75.80 25.28 77.00
  L 24.51 77.00
  L 9.98 62.16
  A 0.47 0.47 0.0 0 1 10.08 61.42
  L 42.10 42.93
  A 2.12 2.10 -44.8 0 1 44.21 42.93
  L 76.41 61.52
  A 0.47 0.47 0.0 0 1 76.51 62.26
  L 61.96 77.00
  Z
  M 27.97 55.99
  L 27.44 56.31
  A 0.23 0.10 -28.1 0 0 27.32 56.46
  Q 27.33 56.51 27.31 56.57
  A 0.20 0.10 -24.5 0 0 27.61 56.58
  Q 27.89 56.35 27.97 55.99
  Q 35.52 52.31 41.67 47.36
  A 1.87 1.86 -47.7 0 1 43.86 47.25
  L 63.81 60.34
  A 0.23 0.23 0.0 0 0 64.13 60.02
  L 64.01 59.84
  A 0.22 0.21 -77.7 0 0 63.84 59.57
  Q 61.96 59.26 61.25 58.27
  Q 60.61 57.38 59.58 57.18
  Q 58.81 57.02 57.73 55.75
  A 1.61 1.52 -1.7 0 0 57.38 55.44
  L 43.69 46.31
  A 1.27 1.26 -45.2 0 0 42.29 46.32
  L 27.97 55.99
  Z
  M 23.89 58.62
  Q 23.98 58.60 24.32 58.31
  A 0.29 0.28 16.3 0 0 24.05 57.82
  Q 23.76 57.91 23.60 58.27
  A 0.25 0.25 0.0 0 0 23.89 58.62
  Z
  M 66.66 61.52
  Q 66.67 61.46 66.52 61.26
  A 0.15 0.13 14.1 0 0 66.27 61.39
  Q 66.27 61.40 66.55 61.58
  A 0.07 0.07 0.0 0 0 66.66 61.52
  Z"
/>
</svg>
