<svg xmlns="http://www.w3.org/2000/svg" width="60.527" height="67.468" viewBox="0 0 60.527 67.468">
  <g id="Group_218" data-name="Group 218" transform="translate(-57.083 -51.69)">
    <path id="Path_3782" data-name="Path 3782" d="M106.106,83.405a4.414,4.414,0,0,0,.1-3.658,1.1,1.1,0,0,0-.04-.856c-.174-.29-.425-.238-.666-.513-.376-.428-.052-.874-.351-1.277-.345-.464-.92-.073-1.424-.489-.6-.486-.156-1.32-.773-2.4a3.145,3.145,0,0,0-.776-.9,1.344,1.344,0,0,0-.73.571,2.666,2.666,0,0,0,.083,1.913c.171.642.315.81.2,1.057-.186.413-.773.413-1.1.571-.614.3-1.033,1.506-.449,5.213.691.66,1.4,1.476,1.18,1.913-.177.351-.764.079-1.384.446-1,.593-.519,1.931-1.589,3.5-.251.37-1.045,1.54-1.833,1.424-.938-.138-1.47-2.05-1.589-3.3-.186-1.947.611-2.365.2-3.542-.6-1.717-2.713-1.668-2.851-2.989-.083-.8.678-.853,1.543-2.57.761-1.51.513-2.145,1.378-4.027a12.994,12.994,0,0,1,.987-1.775l.083-.935q.289-7.783.578-15.563a5.181,5.181,0,0,0-.657-1.25,5.419,5.419,0,0,0-2.362-1.836l-1.1,9.855a2.774,2.774,0,0,1-2.454-.394c-.669-.706-.339-1.947-.07-3.19a43.331,43.331,0,0,0,.9-6.72,7.374,7.374,0,0,0-1.833.978,8.1,8.1,0,0,0-2.24,2.646c-1.06,1.836-.9,2.481-2.157,5.864-.648,1.745-.706,1.61-1.3,3.3a20,20,0,0,0-1.3,4.519c-.159,1.6.1,2.466-.413,2.762-.584.336-1.6-.376-2.032-.767a3.983,3.983,0,0,1-1.18-4.275,7.084,7.084,0,0,1,2.808-2.442,5.685,5.685,0,0,0,2.157-2.24,9.234,9.234,0,0,0-1.183.15c-.458.089-4.22.828-5.332,3.352-.755,1.717.162,3.248-.529,3.584-.532.257-1.409-.492-2.118-1.1A7.027,7.027,0,0,1,73.272,66.8a20.832,20.832,0,0,1,1.968-1.879,20.3,20.3,0,0,1,7.477-3.982c1.1-.3,2.145-.455,2.139-.489a11.262,11.262,0,0,0-2.778.452c-1.925.529-3.4,1.461-6.35,3.325-.186.119-.486.309-.859.587a13.145,13.145,0,0,0-1.8,1.623,1.492,1.492,0,0,1-.128-.541c-.037-.993.966-1.739,1.913-2.442a26.252,26.252,0,0,1,5.293-2.524,11.514,11.514,0,0,0,2.035-1.018,10.559,10.559,0,0,0,1.873-1.546,17.892,17.892,0,0,0-6.882.733c-2,.626-4.513,1.415-5.864,3.664a7.7,7.7,0,0,0-.978,2.973,7.56,7.56,0,0,0,.2,2.289c.859,3.15,4.73,4.6,5.048,4.715a5.129,5.129,0,0,1-1.18-.083,6.265,6.265,0,0,1-3.178-1.818A4.293,4.293,0,0,1,69.84,69.08a3.656,3.656,0,0,1,.083-2.445,2.611,2.611,0,0,0-1.3.694c-1.2,1.228-.874,3.771.2,5.335.208.3.425.526,3.746,2.93.654.474,1.2.865,1.589,1.14a2.058,2.058,0,0,1-.9.367,3.033,3.033,0,0,1-2.24-.9c-3.569-2.967-6.368-3.734-6.148-5.458a3.236,3.236,0,0,1,.733-1.467c.654-.791,1.189-.718,1.782-1.5.437-.574.807-1.516.5-1.882-.345-.409-1.54-.095-2.943.688a7.438,7.438,0,0,0-2.879,2.365c-2.744,3.85-.358,9.027-.058,9.549.44.77,1.036,1.607,1.036,1.607h0a17.806,17.806,0,0,0,1.7,2,8.567,8.567,0,0,1-3.04-3.141,9.079,9.079,0,0,1-.856-2.322,9.866,9.866,0,0,1-.07-3.976,9.947,9.947,0,0,0-2.087,4.342,5.8,5.8,0,0,0,3.3,6.921,1.637,1.637,0,0,1-1.586,0,4.72,4.72,0,0,1-1.668-1.629,3.991,3.991,0,0,0,.284,1.751c.483,1.152,1.424,1.73,1.345,1.833-.067.086-.813-.217-1.424-.856-.681-.712-.776-1.393-1.1-1.384s-.565.746-.611.9c-.859,2.872,2.484,6.71,1.467,7.777-.235.248-.66.3-.856.773a1.582,1.582,0,0,0,.04,1.057c.48,1.329,20.641,20.672,25.164,25a19.032,19.032,0,0,1,3.5-2.686c1.231-.73,2.579-1.332,2.607-2.28.015-.477-.318-.617-.244-1.057.131-.788,1.293-.908,2.362-1.629a5.2,5.2,0,0,0,2.28-3.908,4.394,4.394,0,0,0-1.467-3.5c-.926-.736-1.736-.529-2.445-1.467-.5-.669-.269-1.008-.651-1.791-.767-1.568-2.665-2.16-3.829-2.524-2.194-.684-3.792-.409-3.829-.733-.028-.244.892-.391,2.445-1.057,2.533-1.091,2.79-1.867,3.991-1.791a4.579,4.579,0,0,1,2.769,1.546c.874.944.77,1.592,1.6,2.029.972.51,1.461-.2,2.307.333.593.37.5.807,1.711,2.445a3.7,3.7,0,0,0,.651.773c.947.648,2.536.168,3.419-.367,3.068-1.858,2.552-7.361,3.7-7.4.2-.006.471.15.81.84.052.831.1,1.671.138,2.527.1,2.182.134,4.3.125,6.353a1.2,1.2,0,0,0,.911-.3,1.233,1.233,0,0,0,.351-1.039c-.018-2.353-.07-4.336-.122-5.821,0,0-.144-4.159-.458-7.74-.089-1-.211-2.188-.44-3.621-.049-.306-.092-.559-.122-.733a3.77,3.77,0,0,0,1-1.146ZM87.242,73.386A3.1,3.1,0,0,1,85.5,71.705a2.33,2.33,0,0,1-.122-.51v-1.14a4.929,4.929,0,0,1,2.38,3.328h-.519Zm2.555-1.07a.631.631,0,0,1-.364,0,3.53,3.53,0,0,1-.1-2.218,3.438,3.438,0,0,1,.755-1.345c.131.409.263.816.394,1.225.107,1.231-.165,2.173-.681,2.338Zm1.473,2.353-.492-.165a4.081,4.081,0,0,1,1.464-1.516,3.993,3.993,0,0,1,1.546-.529c-.052.336-.1.669-.153,1.005-.095.073-.193.147-.3.217a7.256,7.256,0,0,1-2.072.987Z" transform="translate(0)" fill="#50c774"/>
    <path id="Path_3783" data-name="Path 3783" d="M208.618,91.17a25.661,25.661,0,0,0-17.1-7.8,6.7,6.7,0,0,1,3.96-.464,5.764,5.764,0,0,1,.773.22c1.2.428,3.254,1.1,6.976,2.215-2.182-2.39-3.759-4.192-4.8-5.4-1.345-1.558-2.3-2.713-3.581-2.8-.452-.031-2.417-.031-2.906-.027-.116,0-.318,0-.587.009-.617.015-1.134.052-1.5.083v.6a7.506,7.506,0,0,1,3.71.244,7.247,7.247,0,0,1,1.772.871,13.493,13.493,0,0,0-5.812-.406V82.94c.177.351.351.706.529,1.057a32.15,32.15,0,0,1,13.36,3.829,31.683,31.683,0,0,1,6.17,4.412c-.217-.257-.544-.633-.963-1.07Z" transform="translate(-91.967 -17.649)" fill="#50c774"/>
    <path id="Path_3784" data-name="Path 3784" d="M194.011,72.157a14.179,14.179,0,0,1,1.528.244,3.526,3.526,0,0,0-.9-.874,3.671,3.671,0,0,0-.856-.425,5.755,5.755,0,0,0-2.668-.186v.956l.083.284A13.621,13.621,0,0,1,194.011,72.157Z" transform="translate(-93.079 -13.298)" fill="#50c774"/>
  </g>
</svg>
