<svg xmlns="http://www.w3.org/2000/svg" width="86.026" height="77.429" viewBox="0 0 86.026 77.429">
  <g id="Group_217" data-name="Group 217" transform="translate(-35.82 -28.61)">
    <path id="Path_3659" data-name="Path 3659" d="M128.55,161.82c-5.313,5.384-10.539,10.678-15.4,15.608-1.583-.827-3.019-1.575-4.448-2.338-.213-.116-.513-.262-.572-.453-.887-3-3.24-2.275-5.406-2.278a2.908,2.908,0,0,1-1.964-1.156,1.948,1.948,0,0,1,.228-1.788,5.709,5.709,0,0,0,.834-5.283c-.434-1.672-.483-3.446-.928-5.118-.767-2.881-3.135-4.452-6.371-4.456-3.184,0-5.631,1.624-6.379,4.467a32.541,32.541,0,0,0-1.19,6.375c-.071,1.261.692,2.563,1.033,3.857.176.662.576,1.62.292,1.968a3.793,3.793,0,0,1-2.162,1.081c-1.351.243-2.742.232-4.115.37-.21.022-.569.266-.569.408,0,2.1-1.7,2.039-3.042,2.574a7.77,7.77,0,0,0-1.942,1.575L61.08,161.63c.557-.318,1.5-.868,2.454-1.407q13.474-7.638,26.941-15.279c1.1-.625,2.069-1.5,3.2-2.054a2.375,2.375,0,0,1,1.923-.022q15.988,9.08,31.917,18.268c.408.236.789.516,1.044.685Zm-20.783-6.491q1.543,1.094,3.042,2.192,4.186,2.419,8.377,4.841c-8.01-5.286-11.482-7.613-11.617-7.763,0,0-.056-.06-.127-.131a2.528,2.528,0,0,0-.363-.277c-3.891-2.638-7.786-5.271-11.706-7.864-.318-.213-.838-.12-1.736-.224,4.643,2.791,9.368,5.855,14.131,9.23Zm-25.425-1.167q-6.117,3.788-12.23,7.572l-2.2,1.2q8.827-4.815,17.831-10.341,1.583-.976,3.143-1.957,2.806-1.992,5.616-3.981c-.18-.116-.359-.236-.539-.352-2.675,1.96-5.5,3.925-8.493,5.863q-1.577,1.021-3.131,1.987Z" transform="translate(-15.81 -71.39)" fill="#50c774"/>
    <path id="Path_3660" data-name="Path 3660" d="M120.952,81.354A81.383,81.383,0,0,1,104.479,74.2C98.205,70.77,92.56,66.52,86.854,62.3c-1.485-1.1-1.508-2.118-.782-3.622,1.242-2.57,2.383-5.193,3.457-7.838.808-1.99-.52-3.5-2.664-3.154-1.216.195-1.942-.15-1.437-1.485a3.774,3.774,0,0,0-1.373-4.879,3.9,3.9,0,0,1-1.182-1.178A9.209,9.209,0,0,1,81.811,37.4c-.378-2.454-.531-4.938-.9-7.393-.075-.5-.688-.924-1.051-1.381l-.464.236a19.047,19.047,0,0,1-.03,2.533,7.711,7.711,0,0,1-.643,1.7,6.5,6.5,0,0,1-.711-1.624,19.1,19.1,0,0,1-.034-2.66c-.217-.067-.438-.131-.655-.2a5.392,5.392,0,0,0-.969,1.706A23.038,23.038,0,0,0,76,35.52c.135,1.459.2,2.522-1.467,3-.284.082-.569.681-.591,1.059a36.358,36.358,0,0,0-.067,4.422c.1,1.541-3.629,6.409-5.148,6.528-.18.011-.363-.09-.546-.086-.614.019-1.227.06-1.841.09a7.661,7.661,0,0,0,.513,2.57,50.329,50.329,0,0,0,3.3,4.489,7.112,7.112,0,0,0,1.07.928c.131-.112.262-.228.393-.344q-.937-1.639-1.878-3.277c-.651-1.134-.629-2.14.595-2.877,1.669-1,3.345-1.987,5.111-3.038.281,1.28.528,2.4.786,3.58h0a16.912,16.912,0,0,0-3.719.359c-.6.187-1.422,1.287-1.306,1.781a6.118,6.118,0,0,0,1.676,3.221c1.538,1.276,1.048,1.852-.18,2.922-3.764,3.281-8.459,5.421-11.605,9.454-.09.112-.352.082-.52.146a24.773,24.773,0,0,0-2.533,1.006C53.3,73.905,48.608,76.49,43.8,78.821c-2.48,1.2-5.17,1.983-7.976,3.03a41,41,0,0,0,3.472,3.434,2.8,2.8,0,0,0,2.267.423A48.229,48.229,0,0,0,47.22,83.3,199.855,199.855,0,0,0,75.152,66.838c1.01-.718,1.758-.9,2.432.273.894,1.568,1.706,1.332,2.533-.056.554-.928,1.152-1.044,2.129-.37,3.072,2.121,6.109,4.34,9.368,6.139,7.778,4.3,15.672,8.4,23.551,12.522.748.393,2.039.748,2.566.382a36.755,36.755,0,0,0,4.115-3.8,5.288,5.288,0,0,0-.894-.569ZM79.046,36.085l-1.28,1.066,1.246-1.942c.4.647.812,1.294,1.216,1.942C79.836,36.8,79.439,36.44,79.046,36.085Z" fill="#50c774"/>
  </g>
</svg>
