<?xml version="1.0" encoding="UTF-8" standalone="no"?>
<!DOCTYPE svg PUBLIC "-//W3C//DTD SVG 1.1//EN" "http://www.w3.org/Graphics/SVG/1.1/DTD/svg11.dtd">
<svg xmlns="http://www.w3.org/2000/svg" version="1.1" viewBox="0.00 0.00 61.00 67.00">
<path fill="#000000" d="
  M 33.90 0.00
  L 32.87 8.52
  A 1.42 1.42 0.0 0 0 33.71 9.98
  L 34.64 10.39
  A 0.80 0.80 0.0 0 0 35.75 9.74
  L 36.72 0.89
  A 0.32 0.32 0.0 0 1 37.26 0.70
  L 39.27 2.71
  A 1.79 1.78 -66.5 0 1 39.79 4.04
  L 39.24 19.22
  A 2.54 2.48 58.4 0 1 39.04 20.10
  L 35.47 28.33
  A 0.72 0.72 0.0 0 0 35.71 29.21
  L 37.84 30.73
  A 0.85 0.85 0.0 0 1 38.16 31.66
  Q 37.49 33.95 38.35 37.28
  A 1.20 1.20 0.0 0 0 39.84 38.13
  C 42.38 37.39 41.16 33.92 43.76 32.98
  A 0.49 0.49 0.0 0 0 44.00 32.24
  Q 42.46 30.01 43.00 26.54
  A 1.10 1.06 -10.8 0 1 43.54 25.77
  L 44.40 25.27
  A 0.66 0.66 0.0 0 0 44.66 24.41
  Q 43.90 22.85 44.90 22.02
  A 0.52 0.51 61.1 0 1 45.71 22.26
  C 46.17 23.64 46.09 24.52 47.54 25.28
  Q 48.25 25.65 48.74 26.78
  Q 50.13 30.03 48.43 32.32
  A 0.76 0.73 63.4 0 0 48.28 32.80
  L 49.36 51.04
  A 0.52 0.51 -16.7 0 1 49.10 51.52
  L 48.44 51.90
  A 0.27 0.27 0.0 0 1 48.04 51.69
  L 47.54 43.16
  A 0.60 0.59 -25.1 0 0 46.51 42.79
  Q 46.04 43.29 45.88 44.61
  C 45.53 47.55 43.54 51.16 40.02 50.14
  A 1.60 1.59 -6.7 0 1 39.08 49.40
  L 37.92 47.39
  A 1.19 1.19 0.0 0 0 36.68 46.82
  Q 35.12 47.10 34.10 45.49
  Q 33.03 43.78 31.08 43.10
  A 2.06 2.04 37.1 0 0 29.27 43.34
  Q 27.00 44.90 24.81 45.45
  A 0.28 0.28 0.0 0 0 24.85 46.00
  C 27.73 46.33 31.45 47.08 32.28 50.16
  A 1.93 1.85 17.2 0 0 32.74 50.99
  Q 32.89 51.16 34.67 52.33
  Q 36.56 53.57 36.29 56.25
  Q 36.04 58.78 32.40 60.88
  A 0.76 0.74 -16.6 0 0 32.02 61.56
  Q 32.10 63.48 29.99 64.48
  Q 28.47 65.21 26.80 67.00
  L 25.56 67.00
  Q 13.17 55.48 1.16 43.08
  A 1.41 1.41 0.0 0 1 1.18 41.10
  Q 2.09 40.21 1.44 38.57
  Q 0.63 36.55 0.00 34.51
  L 0.00 32.40
  Q 0.91 32.42 2.03 33.36
  A 0.30 0.29 -77.3 0 0 2.50 33.06
  Q 2.46 32.89 1.82 32.23
  A 0.52 0.52 0.0 0 1 1.84 31.49
  Q 2.03 31.31 2.49 31.48
  Q 2.57 31.51 3.99 32.49
  A 0.31 0.30 34.7 0 0 4.41 32.42
  L 4.42 32.41
  A 0.35 0.35 0.0 0 0 4.35 31.92
  Q -1.09 27.75 3.44 21.57
  A 2.14 2.14 0.0 0 0 3.84 20.61
  Q 4.62 15.51 10.07 14.14
  A 0.59 0.59 0.0 0 1 10.73 14.99
  Q 9.76 16.76 8.64 17.60
  A 1.93 1.93 0.0 0 0 8.68 20.71
  L 14.96 25.19
  A 1.25 1.25 0.0 0 0 16.32 25.25
  L 16.62 25.08
  A 0.23 0.23 0.0 0 0 16.63 24.69
  C 12.82 22.12 9.44 20.22 11.39 15.67
  A 0.68 0.68 0.0 0 1 12.69 15.92
  Q 12.76 19.52 16.88 20.75
  A 0.22 0.21 -68.7 0 0 17.14 20.63
  L 17.16 20.57
  A 0.18 0.17 -65.2 0 0 17.09 20.35
  Q 12.95 18.02 13.32 14.47
  Q 13.87 9.20 19.24 7.73
  Q 23.19 6.64 26.45 6.57
  A 0.36 0.35 29.1 0 1 26.64 7.23
  L 22.32 9.73
  A 0.07 0.06 70.2 0 0 22.29 9.81
  Q 22.37 9.99 22.37 10.05
  A 0.42 0.42 0.0 0 1 21.82 10.48
  Q 21.72 10.45 21.68 10.26
  Q 21.68 10.24 21.36 10.17
  Q 20.38 9.96 20.22 10.95
  Q 17.82 11.09 16.40 12.96
  A 1.27 1.27 0.0 0 0 16.14 13.84
  Q 16.35 16.44 19.02 17.38
  A 0.46 0.45 -76.5 0 0 19.63 17.00
  L 19.94 14.13
  A 1.11 1.06 70.2 0 1 20.20 13.54
  Q 22.35 11.10 25.26 10.52
  A 0.38 0.38 0.0 0 1 25.60 11.16
  L 21.85 14.91
  A 0.88 0.86 -17.7 0 0 21.61 15.36
  Q 21.02 18.18 23.66 19.95
  A 0.87 0.87 0.0 0 0 25.01 19.31
  C 25.25 16.86 26.22 13.33 27.46 10.37
  Q 28.49 7.91 29.34 4.85
  Q 29.90 2.81 33.42 0.00
  Q 33.66 0.00 33.90 0.00
  Z
  M 33.0643 17.6003
  A 1.48 0.55 -80.5 0 0 32.2775 18.9692
  A 1.48 0.55 -80.5 0 0 32.5757 20.5197
  A 1.48 0.55 -80.5 0 0 33.3625 19.1508
  A 1.48 0.55 -80.5 0 0 33.0643 17.6003
  Z
  M 28.2850 18.7471
  A 1.67 0.60 -125.3 0 0 28.7603 20.4567
  A 1.67 0.60 -125.3 0 0 30.2150 21.4729
  A 1.67 0.60 -125.3 0 0 29.7397 19.7633
  A 1.67 0.60 -125.3 0 0 28.2850 18.7471
  Z
  M 36.5895 21.0934
  A 1.59 0.50 -32.6 0 0 34.9806 21.5288
  A 1.59 0.50 -32.6 0 0 33.9105 22.8066
  A 1.59 0.50 -32.6 0 0 35.5194 22.3712
  A 1.59 0.50 -32.6 0 0 36.5895 21.0934
  Z
  M 4.21 24.78
  Q 4.13 24.54 3.79 24.35
  A 0.16 0.16 0.0 0 0 3.60 24.60
  L 3.95 24.95
  A 0.16 0.16 0.0 0 0 4.21 24.78
  Z
  M 5.32 28.31
  Q 6.28 29.54 6.97 29.64
  A 0.11 0.11 0.0 0 0 7.05 29.45
  Q 6.07 28.63 5.63 28.07
  Q 5.19 27.51 4.64 26.35
  A 0.11 0.11 0.0 0 0 4.43 26.39
  Q 4.36 27.08 5.32 28.31
  Z"
/>
<path fill="#000000" d="
  M 43.00 7.34
  Q 41.84 7.23 41.61 7.17
  Q 41.04 7.01 40.93 6.47
  A 0.34 0.34 0.0 0 1 41.28 6.06
  Q 42.57 6.12 42.82 6.14
  Q 43.98 6.25 44.21 6.31
  Q 44.78 6.47 44.89 7.01
  A 0.34 0.34 0.0 0 1 44.54 7.42
  Q 43.25 7.36 43.00 7.34
  Z"
/>
<path fill="#000000" d="
  M 59.30 21.60
  A 0.08 0.08 0.0 0 1 59.31 21.71
  L 59.30 21.72
  A 0.23 0.22 35.4 0 1 58.98 21.77
  L 54.61 18.59
  A 1.21 1.00 69.0 0 0 54.38 18.46
  L 47.68 15.84
  A 2.95 2.80 -28.1 0 0 47.10 15.68
  L 41.38 14.73
  A 1.08 1.08 0.0 0 1 40.48 13.63
  L 40.58 9.27
  A 0.83 0.83 0.0 0 1 41.32 8.47
  Q 41.75 8.43 42.46 8.67
  A 1.12 1.10 38.9 0 0 43.39 8.58
  Q 45.96 7.05 47.61 8.67
  Q 49.13 10.17 53.41 15.17
  A 0.29 0.29 0.0 0 1 53.13 15.64
  C 50.90 15.09 47.07 13.06 43.81 13.69
  A 0.21 0.21 0.0 0 0 43.83 14.11
  Q 52.61 15.21 59.30 21.60
  Z
  M 45.13 9.03
  Q 44.85 8.49 44.58 8.44
  A 0.39 0.38 -27.7 0 0 44.35 9.17
  L 44.81 9.37
  A 0.25 0.25 0.0 0 0 45.13 9.03
  Z"
/>
<path fill="#000000" d="
  M 26.06 10.26
  Q 25.68 10.19 25.56 10.07
  A 0.31 0.26 -12.4 0 1 25.89 9.64
  Q 26.12 9.68 26.26 10.02
  A 0.18 0.18 0.0 0 1 26.06 10.26
  Z"
/>
<path fill="#000000" d="
  M 20.22 10.95
  Q 20.80 11.46 20.48 11.61
  Q 20.23 11.48 20.22 10.95
  Z"
/>
<path fill="#000000" d="
  M 18.59 12.32
  Q 18.72 12.25 19.11 12.33
  A 0.09 0.09 0.0 0 1 19.16 12.47
  Q 18.94 12.82 18.71 12.81
  A 0.26 0.26 0.0 0 1 18.59 12.32
  Z"
/>
<path fill="#000000" d="
  M 17.83 13.55
  Q 17.55 13.86 17.47 13.87
  A 0.31 0.31 0.0 0 1 17.11 13.48
  Q 17.15 13.33 17.52 13.14
  A 0.26 0.26 0.0 0 1 17.83 13.55
  Z"
/>
</svg>
