<?xml version="1.0" encoding="UTF-8" standalone="no"?>
<!DOCTYPE svg PUBLIC "-//W3C//DTD SVG 1.1//EN" "http://www.w3.org/Graphics/SVG/1.1/DTD/svg11.dtd">
<svg xmlns="http://www.w3.org/2000/svg" version="1.1" viewBox="0.00 0.00 78.00 74.00">
<path fill="#000000" d="
  M 45.26 16.00
  L 45.74 16.74
  A 1.09 1.08 -48.4 0 1 45.80 17.82
  Q 44.22 20.91 42.06 20.44
  A 0.73 0.73 0.0 0 0 41.17 21.15
  L 41.17 21.45
  A 0.77 0.77 0.0 0 0 41.78 22.20
  L 43.60 22.59
  A 0.74 0.72 -8.0 0 1 44.09 22.95
  L 45.36 25.14
  A 0.57 0.56 55.1 0 0 46.21 25.30
  Q 47.22 24.46 47.11 22.92
  A 0.95 0.93 -17.6 0 1 47.58 22.03
  L 49.43 20.96
  A 0.21 0.21 0.0 0 1 49.73 21.22
  Q 48.77 23.60 48.22 25.47
  C 47.66 27.42 45.80 28.11 44.25 26.69
  Q 43.53 26.02 42.57 25.85
  A 0.53 0.53 0.0 0 0 41.94 26.37
  L 41.94 26.69
  A 0.49 0.48 -2.2 0 0 42.47 27.17
  Q 43.20 27.10 44.20 27.85
  A 0.27 0.27 0.0 0 1 44.09 28.34
  Q 42.97 28.54 42.70 29.48
  A 0.48 0.48 0.0 0 0 43.19 30.10
  Q 45.12 29.96 44.85 32.14
  A 1.16 1.16 0.0 0 0 45.05 32.96
  Q 45.95 34.24 47.01 34.75
  A 1.67 1.67 0.0 0 0 49.25 32.55
  L 47.35 28.47
  A 0.56 0.41 -69.6 0 1 47.30 28.29
  Q 47.03 25.40 47.94 26.19
  A 1.28 1.27 39.3 0 1 48.12 27.93
  Q 47.72 28.46 48.00 28.95
  A 1.44 1.34 51.5 0 0 50.22 29.28
  Q 50.26 29.23 50.43 28.90
  A 0.17 0.17 0.0 0 1 50.75 28.97
  Q 50.75 29.17 50.51 29.35
  Q 50.38 29.44 50.42 29.74
  Q 50.65 31.73 51.16 33.06
  A 0.68 0.66 -37.4 0 1 51.07 33.68
  L 48.88 36.65
  A 0.10 0.10 0.0 0 0 48.99 36.81
  Q 50.84 36.29 51.31 34.85
  A 0.26 0.25 -47.1 0 1 51.79 34.83
  Q 52.01 35.38 51.55 36.09
  Q 51.03 36.88 49.54 37.69
  A 1.02 1.01 81.7 0 0 49.06 38.34
  L 48.83 39.30
  A 1.18 1.18 0.0 0 0 50.93 40.27
  L 53.46 36.82
  A 0.88 0.88 0.0 0 0 53.52 35.84
  L 52.87 34.70
  A 0.70 0.70 0.0 0 1 53.17 33.71
  Q 54.45 33.10 54.17 31.20
  A 0.38 0.38 0.0 0 1 54.50 30.77
  L 54.62 30.76
  A 0.27 0.26 84.8 0 1 54.91 31.01
  Q 55.01 32.54 54.41 34.45
  A 1.19 1.18 -63.8 0 0 54.86 35.79
  L 54.93 35.83
  A 0.67 0.67 0.0 0 0 55.97 35.39
  L 56.59 31.94
  A 0.17 0.16 -55.5 0 1 56.89 31.88
  L 58.09 33.96
  A 0.47 0.46 -48.3 0 0 58.92 33.91
  Q 60.39 30.50 58.23 28.25
  A 1.21 1.21 0.0 0 0 57.52 27.88
  L 53.80 27.30
  A 0.29 0.29 0.0 0 1 53.62 26.85
  L 53.82 26.59
  A 0.24 0.24 0.0 0 1 54.06 26.50
  Q 55.99 26.95 56.40 25.60
  A 0.45 0.45 0.0 0 1 56.78 25.29
  L 57.27 25.23
  A 0.33 0.33 0.0 0 1 57.57 25.75
  L 57.29 26.14
  A 0.40 0.39 37.2 0 0 57.37 26.69
  L 59.56 28.30
  A 0.41 0.41 0.0 0 0 60.21 27.88
  L 59.43 24.57
  A 0.14 0.14 0.0 0 1 59.64 24.42
  C 61.61 25.74 60.29 29.00 62.58 29.83
  A 0.65 0.65 0.0 0 0 63.32 28.83
  Q 61.72 26.65 62.03 23.14
  A 0.18 0.18 0.0 0 1 62.36 23.07
  L 63.78 25.53
  A 0.34 0.34 0.0 0 1 63.80 25.84
  Q 63.22 27.20 64.67 28.66
  A 1.44 1.41 23.3 0 1 65.09 29.69
  Q 65.07 31.82 66.62 35.46
  A 0.26 0.26 0.0 0 0 67.07 35.52
  Q 68.07 34.21 67.62 32.99
  A 0.32 0.31 71.8 0 1 67.83 32.57
  L 67.84 32.57
  A 0.23 0.23 0.0 0 1 68.13 32.71
  Q 68.77 34.56 67.33 35.88
  A 1.33 1.32 70.7 0 0 66.92 36.74
  Q 66.72 40.03 65.40 42.22
  A 0.24 0.24 0.0 0 0 65.72 42.55
  C 68.22 41.07 67.54 40.09 67.71 38.06
  A 2.78 2.72 67.0 0 1 68.28 36.60
  Q 69.55 34.96 69.67 32.93
  A 1.35 1.33 20.4 0 0 69.12 31.76
  L 66.69 29.97
  A 0.24 0.24 0.0 0 1 66.71 29.57
  L 67.07 29.36
  A 0.30 0.30 0.0 0 1 67.42 29.40
  C 68.83 30.76 69.50 31.63 71.25 32.48
  Q 72.90 33.28 72.91 35.80
  A 0.28 0.27 0.0 0 0 73.19 36.07
  L 73.50 36.07
  A 0.06 0.06 0.0 0 0 73.56 36.01
  Q 73.77 32.61 70.84 30.86
  Q 69.52 30.07 67.60 27.91
  Q 66.61 26.79 67.63 25.76
  A 0.67 0.67 0.0 0 0 67.38 24.66
  Q 66.70 24.40 66.44 23.96
  A 0.25 0.25 0.0 0 1 66.80 23.64
  L 68.36 24.79
  A 1.82 1.80 11.3 0 1 69.03 25.78
  L 69.63 28.10
  A 2.79 2.75 10.1 0 0 70.76 29.70
  C 73.12 31.27 76.75 32.73 77.13 36.70
  A 1.69 1.68 -30.1 0 1 76.81 37.88
  L 74.21 41.41
  A 1.38 1.37 12.8 0 1 73.36 41.94
  L 72.68 42.07
  A 0.74 0.74 0.0 0 0 72.07 42.79
  Q 72.01 45.39 70.81 46.28
  Q 67.76 48.51 62.84 48.12
  C 61.95 48.04 60.78 47.04 60.30 47.07
  A 0.35 0.35 0.0 0 0 60.04 47.64
  C 62.95 51.22 69.76 48.88 72.81 46.50
  Q 74.60 45.10 73.25 43.43
  A 0.33 0.33 0.0 0 1 73.71 42.96
  Q 75.46 44.26 76.53 42.68
  A 1.83 1.78 -27.3 0 0 76.82 41.81
  C 76.86 40.97 76.85 40.27 77.07 39.73
  A 0.31 0.31 0.0 0 1 77.66 39.89
  Q 77.61 40.20 77.23 40.74
  Q 77.16 40.84 77.48 41.74
  Q 77.90 42.93 76.94 44.25
  A 1.61 1.59 10.9 0 1 76.04 44.85
  Q 74.52 45.22 74.26 46.93
  C 73.90 49.23 71.82 50.36 69.72 49.84
  A 0.77 0.75 24.7 0 0 68.91 50.13
  L 67.58 51.93
  A 0.43 0.43 0.0 0 0 68.14 52.56
  L 69.93 51.52
  A 0.41 0.41 0.0 0 1 70.43 51.59
  Q 70.83 51.99 71.29 51.99
  Q 75.03 52.01 74.63 48.36
  A 1.12 1.05 84.9 0 1 75.60 47.12
  Q 76.93 47.03 77.44 46.02
  A 0.19 0.19 0.0 0 1 77.80 46.09
  Q 77.90 47.32 77.10 47.59
  Q 76.26 47.87 75.57 48.26
  A 0.94 0.94 0.0 0 0 75.09 49.08
  L 75.09 52.14
  A 1.14 1.13 -17.3 0 1 74.59 53.08
  L 69.78 56.38
  A 1.06 1.06 0.0 0 1 68.95 56.54
  Q 66.77 56.04 66.07 55.08
  A 0.78 0.77 63.9 0 0 65.23 54.79
  Q 64.58 54.97 62.60 54.58
  A 1.97 1.95 1.7 0 1 61.03 52.93
  L 60.55 49.63
  A 0.78 0.78 0.0 0 0 60.24 49.12
  L 56.79 46.58
  A 1.07 1.05 19.0 0 1 56.37 45.74
  L 56.37 43.52
  A 0.17 0.16 -1.7 0 0 56.19 43.36
  Q 55.54 43.40 55.26 44.25
  Q 55.08 44.78 55.37 45.30
  Q 55.88 46.19 56.91 48.19
  A 1.34 1.32 82.4 0 0 57.83 48.90
  Q 58.80 49.10 59.40 49.66
  A 1.52 1.52 0.0 0 1 59.88 50.77
  Q 59.89 52.94 59.89 54.32
  Q 59.88 55.07 59.38 55.45
  Q 58.91 55.81 58.67 55.83
  A 0.41 0.41 0.0 0 1 58.26 55.25
  Q 59.76 51.88 56.25 50.56
  A 0.47 0.47 0.0 0 0 55.78 51.35
  C 57.48 52.86 58.69 55.55 56.52 57.12
  A 0.68 0.68 0.0 0 0 56.47 58.19
  Q 59.35 60.65 61.39 58.37
  A 0.95 0.95 0.0 0 0 61.50 57.28
  L 60.98 56.38
  A 0.40 0.40 0.0 0 1 61.60 55.89
  C 63.85 58.01 63.76 62.75 59.83 63.00
  C 57.96 63.12 55.59 60.43 55.69 58.77
  A 0.61 0.60 -88.7 0 0 55.07 58.12
  Q 54.74 58.13 54.49 58.00
  Q 54.18 57.83 54.37 57.46
  Q 54.92 56.34 55.86 54.93
  A 1.30 1.30 0.0 0 0 55.55 53.16
  L 51.38 50.08
  A 1.26 1.22 62.2 0 0 50.65 49.84
  Q 48.34 49.81 44.35 48.41
  Q 44.14 48.33 44.06 48.17
  Q 43.98 48.00 43.96 47.90
  A 0.09 0.09 0.0 0 0 43.80 47.87
  Q 43.41 48.45 43.45 48.78
  A 0.47 0.47 0.0 0 0 43.93 49.19
  Q 46.58 49.13 49.03 50.52
  A 0.88 0.87 -42.5 0 0 49.83 50.55
  Q 50.15 50.40 50.34 50.51
  Q 52.17 51.63 53.22 53.00
  Q 54.88 55.15 52.70 56.88
  A 0.58 0.58 0.0 0 0 52.65 57.75
  Q 55.53 60.65 56.00 61.04
  C 57.92 62.69 57.02 64.31 57.95 66.21
  A 2.13 2.12 -26.0 0 0 60.80 67.18
  Q 62.77 66.22 63.19 63.78
  A 0.40 0.40 0.0 0 1 63.89 63.58
  Q 64.17 63.89 63.81 64.94
  Q 63.63 65.45 62.32 67.00
  A 2.10 2.09 -20.7 0 0 61.85 68.03
  C 61.31 71.43 57.70 71.18 55.06 70.13
  A 1.18 1.18 0.0 0 0 53.75 70.44
  Q 51.78 72.61 49.24 74.00
  L 46.51 74.00
  Q 44.79 73.09 43.30 71.47
  A 2.16 2.14 68.0 0 0 41.67 70.77
  Q 40.34 70.81 39.80 68.88
  A 0.23 0.23 0.0 0 1 40.19 68.65
  Q 40.44 68.89 40.57 69.16
  A 1.33 1.33 0.0 0 0 41.79 69.89
  L 43.19 69.86
  A 0.95 0.95 0.0 0 1 44.03 70.34
  Q 44.33 70.86 44.95 71.51
  Q 45.47 72.06 45.97 71.86
  Q 46.54 71.64 46.86 71.14
  A 0.48 0.46 6.8 0 0 46.30 70.45
  Q 46.07 70.52 45.92 70.54
  A 0.82 0.81 -26.4 0 1 45.28 70.33
  C 43.83 68.93 41.28 67.22 42.25 64.83
  A 0.49 0.48 20.1 0 1 42.84 64.56
  L 42.87 64.57
  A 0.53 0.53 0.0 0 1 43.22 65.26
  Q 42.90 66.16 43.27 66.93
  A 1.16 1.10 4.7 0 0 43.70 67.41
  Q 46.14 68.96 48.94 68.85
  A 1.23 1.22 -81.2 0 0 50.05 68.03
  L 50.19 67.66
  A 0.23 0.22 -84.2 0 0 49.95 67.36
  Q 47.13 67.71 45.58 66.17
  A 0.18 0.18 0.0 0 1 45.70 65.86
  Q 45.71 65.86 45.95 65.96
  A 0.84 0.84 0.0 0 0 47.09 65.39
  Q 47.25 64.77 47.80 64.64
  A 0.22 0.21 -5.5 0 1 48.06 64.85
  L 48.06 65.84
  A 0.58 0.57 79.5 0 0 48.84 66.38
  L 50.68 65.67
  A 0.44 0.44 0.0 0 1 51.28 66.07
  Q 51.28 66.21 51.28 66.52
  Q 51.28 67.14 52.12 66.55
  Q 53.83 65.32 54.23 63.63
  A 0.40 0.39 84.6 0 0 53.69 63.18
  Q 52.93 63.50 52.25 64.33
  A 0.26 0.25 -61.0 0 1 51.98 64.41
  Q 51.60 64.28 51.58 64.04
  A 0.22 0.21 -13.6 0 1 51.71 63.83
  Q 52.19 63.61 52.58 62.96
  A 1.13 1.11 50.5 0 0 52.67 61.97
  Q 51.72 59.43 50.61 58.23
  A 1.05 1.04 29.8 0 1 50.36 57.33
  Q 50.66 55.66 49.64 54.40
  A 2.27 2.25 82.9 0 0 48.77 53.72
  L 46.13 52.56
  A 0.30 0.30 0.0 0 0 45.74 52.97
  Q 45.99 53.44 46.67 53.61
  C 48.41 54.03 49.81 55.02 49.43 57.09
  Q 49.21 58.31 50.11 59.12
  A 1.01 1.00 32.4 0 1 50.37 60.26
  Q 49.45 62.43 47.57 63.55
  A 2.08 2.00 27.7 0 1 46.61 63.83
  Q 41.21 64.01 41.22 58.86
  Q 41.23 58.22 41.61 57.87
  A 0.26 0.26 0.0 0 1 42.04 58.12
  C 41.79 59.34 42.36 62.07 44.32 61.78
  A 2.35 2.11 -9.3 0 0 46.33 59.28
  Q 45.87 56.79 45.83 56.24
  A 0.84 0.82 8.7 0 0 45.28 55.51
  L 42.35 54.45
  A 1.13 1.12 -51.1 0 0 41.36 54.56
  Q 39.10 56.00 36.96 54.62
  A 1.21 1.21 0.0 0 0 35.88 54.50
  L 32.70 55.64
  A 0.72 0.72 0.0 0 0 32.24 56.45
  Q 32.39 57.22 32.12 57.85
  C 31.44 59.38 31.88 60.53 32.76 61.50
  A 1.15 1.15 0.0 0 0 33.74 61.86
  Q 36.46 61.53 36.08 58.78
  A 0.41 0.41 0.0 0 1 36.43 58.32
  L 36.50 58.31
  A 0.37 0.36 -7.5 0 1 36.92 58.63
  C 37.24 61.39 35.76 63.50 32.99 63.68
  Q 31.40 63.79 31.37 63.80
  A 0.59 0.58 83.5 0 0 30.91 64.39
  Q 30.94 66.08 31.98 66.25
  A 0.24 0.24 0.0 0 1 32.06 66.69
  Q 30.28 67.69 28.99 67.25
  A 0.66 0.63 -7.6 0 0 28.22 68.21
  Q 28.76 68.93 30.00 68.86
  C 31.85 68.76 36.76 67.43 34.73 64.76
  A 0.28 0.27 -17.6 0 1 34.96 64.32
  Q 35.46 64.33 35.78 64.49
  A 0.81 0.81 0.0 0 1 36.22 65.40
  Q 35.40 69.31 31.55 70.88
  A 0.42 0.42 0.0 0 0 31.44 71.59
  Q 31.60 71.73 32.50 71.92
  Q 32.97 72.02 33.62 70.90
  Q 34.36 69.63 36.02 69.88
  A 1.32 1.31 22.4 0 0 37.28 69.36
  Q 37.89 68.54 38.09 68.48
  A 0.32 0.31 -89.5 0 1 38.48 68.88
  Q 37.82 70.84 36.27 70.72
  A 1.19 1.17 -63.8 0 0 35.38 71.03
  L 32.14 74.00
  L 29.46 74.00
  Q 26.38 73.12 24.64 70.61
  A 1.46 1.46 0.0 0 0 22.82 70.13
  Q 19.30 71.79 17.27 69.85
  A 2.06 1.97 -79.0 0 1 16.78 69.09
  Q 16.18 67.43 14.42 64.91
  Q 13.91 64.17 14.15 63.70
  A 0.36 0.36 0.0 0 1 14.82 63.76
  Q 15.60 66.32 17.68 67.28
  A 1.92 1.92 0.0 0 0 20.37 65.94
  L 21.10 62.55
  A 1.50 1.44 -17.4 0 1 21.50 61.82
  L 25.69 57.62
  A 0.43 0.42 -52.0 0 0 25.61 56.95
  C 22.71 55.26 25.71 51.90 27.37 50.70
  A 1.46 1.43 -61.4 0 1 28.28 50.42
  Q 29.56 50.48 31.31 49.39
  A 0.64 0.60 -59.1 0 1 31.63 49.30
  L 33.87 49.30
  A 0.73 0.71 -84.0 0 0 34.57 48.72
  Q 35.57 43.83 38.64 40.30
  A 0.75 0.74 50.6 0 1 39.84 40.42
  L 43.87 47.40
  A 0.12 0.11 -49.6 0 0 44.08 47.38
  L 44.21 47.02
  A 0.34 0.33 28.3 0 0 44.09 46.64
  L 43.24 46.01
  A 1.37 1.37 0.0 0 1 42.68 44.99
  Q 42.45 40.86 39.23 38.13
  A 0.36 0.35 -46.9 0 0 38.76 38.15
  Q 35.70 41.11 35.33 44.68
  A 2.44 2.44 0.0 0 1 34.77 45.99
  Q 34.15 46.74 33.70 48.00
  A 1.07 1.06 9.6 0 1 32.69 48.71
  Q 30.95 48.70 29.87 49.55
  A 1.55 1.50 25.3 0 1 28.93 49.87
  L 27.51 49.87
  A 1.85 1.83 -63.7 0 0 26.38 50.26
  L 22.52 53.27
  A 1.05 1.04 -26.2 0 0 22.15 54.34
  Q 22.50 55.75 23.83 57.24
  A 0.30 0.30 0.0 0 1 23.76 57.71
  Q 23.36 57.93 23.21 57.93
  A 0.73 0.73 0.0 0 0 22.51 58.63
  C 22.43 60.41 20.60 63.05 18.39 62.95
  Q 16.12 62.84 15.02 60.72
  A 1.66 1.62 33.9 0 1 14.83 59.81
  Q 14.99 57.49 16.36 55.91
  A 0.38 0.38 0.0 0 1 17.00 56.29
  L 16.60 57.40
  A 1.02 1.01 36.5 0 0 16.75 58.38
  Q 17.57 59.45 19.25 59.51
  A 0.77 0.75 31.4 0 0 19.59 59.43
  L 21.79 58.15
  A 0.38 0.37 49.8 0 0 21.84 57.53
  Q 18.55 54.84 22.23 51.44
  A 0.56 0.56 0.0 0 0 21.63 50.51
  Q 18.48 51.87 19.66 54.98
  A 0.47 0.47 0.0 0 1 19.19 55.62
  L 18.51 55.58
  A 0.48 0.48 0.0 0 1 18.07 55.01
  Q 18.12 54.81 18.18 50.47
  Q 18.19 49.28 20.15 48.84
  A 1.24 1.24 0.0 0 0 20.93 48.27
  Q 21.43 47.40 22.76 45.14
  Q 23.02 44.71 22.83 44.32
  Q 22.45 43.54 22.33 43.51
  A 0.48 0.48 0.0 0 0 21.72 44.05
  Q 22.12 46.43 18.39 48.68
  Q 17.33 49.32 17.33 50.80
  Q 17.35 55.25 12.76 54.83
  A 1.18 1.16 -64.9 0 0 11.79 55.19
  Q 10.30 56.74 8.46 56.44
  A 1.23 1.04 62.3 0 1 8.04 56.27
  L 4.21 53.65
  A 3.30 3.29 -72.9 0 1 2.78 50.93
  L 2.78 49.09
  A 1.04 1.00 21.2 0 0 2.42 48.32
  Q 1.43 47.47 0.00 47.28
  L 0.00 45.90
  L 2.47 47.11
  A 1.27 1.26 -84.0 0 1 3.14 47.95
  L 3.80 50.68
  A 1.28 1.26 -82.1 0 0 4.40 51.48
  Q 5.90 52.33 7.59 51.47
  A 0.78 0.78 0.0 0 1 8.59 51.74
  Q 9.01 52.40 9.92 52.67
  A 0.64 0.64 0.0 0 0 10.70 52.28
  L 10.76 52.13
  A 0.57 0.57 0.0 0 0 10.44 51.41
  Q 9.56 51.05 9.16 50.31
  A 0.91 0.91 0.0 0 0 8.15 49.85
  Q 4.58 50.69 3.55 46.05
  A 1.13 1.12 -85.5 0 0 2.87 45.25
  Q -0.30 44.01 0.69 41.24
  A 1.51 1.51 0.0 0 0 0.58 40.01
  Q 0.46 39.79 0.44 39.74
  A 0.20 0.19 9.5 0 1 0.74 39.53
  Q 1.19 39.83 1.23 40.56
  Q 1.34 42.29 1.37 42.51
  A 0.92 0.92 0.0 0 0 1.95 43.23
  Q 3.29 43.73 4.30 43.26
  A 0.39 0.39 0.0 0 1 4.78 43.84
  L 4.36 44.42
  A 0.82 0.82 0.0 0 0 4.37 45.41
  C 6.39 48.01 8.48 48.61 12.17 49.34
  Q 15.93 50.08 18.22 47.36
  A 0.27 0.27 0.0 0 0 17.89 46.95
  Q 12.64 49.60 7.53 46.53
  Q 6.31 45.80 6.13 43.44
  Q 6.04 42.33 5.61 42.18
  Q 5.38 42.10 4.66 41.91
  A 1.49 1.49 0.0 0 1 3.81 41.34
  L 1.40 38.04
  A 3.01 3.01 0.0 0 1 1.44 34.43
  Q 3.59 31.65 7.05 30.08
  A 1.99 1.91 8.1 0 0 7.72 29.60
  Q 8.76 28.45 8.61 26.91
  A 1.47 1.45 -31.1 0 1 8.86 25.92
  Q 9.60 24.81 11.35 23.54
  A 0.25 0.25 0.0 0 1 11.74 23.78
  Q 11.71 23.98 10.76 24.89
  A 0.58 0.58 0.0 0 0 10.70 25.65
  Q 11.51 26.77 10.84 27.64
  Q 9.67 29.15 6.39 31.63
  Q 4.27 33.23 4.38 35.72
  A 0.22 0.22 0.0 0 0 4.81 35.80
  L 5.72 33.68
  A 2.52 2.51 -0.4 0 1 7.02 32.37
  Q 9.40 31.32 10.88 29.06
  A 0.34 0.34 0.0 0 1 11.38 28.99
  L 11.43 29.02
  A 0.17 0.17 0.0 0 1 11.46 29.27
  L 8.39 32.98
  A 0.95 0.94 -37.1 0 0 8.25 33.96
  Q 9.06 35.81 9.78 36.75
  Q 10.73 37.99 10.28 39.89
  A 1.20 1.19 -55.3 0 0 10.45 40.85
  Q 11.41 42.27 12.14 42.51
  A 0.35 0.34 -6.0 0 0 12.55 42.01
  Q 9.81 37.30 12.69 32.45
  A 2.18 2.17 55.6 0 0 12.96 30.99
  Q 12.65 29.19 13.82 27.94
  Q 14.24 27.49 14.33 26.96
  Q 14.46 26.08 14.22 25.63
  A 0.39 0.39 0.0 0 1 14.26 25.23
  L 15.32 23.79
  A 0.26 0.26 0.0 0 1 15.79 23.89
  Q 16.44 26.75 14.92 28.07
  A 0.79 0.79 0.0 0 0 14.75 29.07
  L 15.06 29.59
  A 0.59 0.58 44.7 0 0 16.08 29.59
  Q 17.00 27.95 17.11 26.54
  Q 17.19 25.50 17.65 25.13
  Q 18.62 24.36 19.07 24.42
  A 0.12 0.12 0.0 0 1 19.08 24.66
  Q 18.04 24.92 18.12 26.78
  Q 18.18 28.06 17.98 28.21
  Q 17.40 28.64 17.29 28.86
  A 0.26 0.26 0.0 0 0 17.65 29.20
  Q 20.19 27.73 20.76 25.74
  A 0.43 0.43 0.0 0 1 21.17 25.43
  L 22.83 25.43
  A 0.18 0.18 0.0 0 1 22.92 25.77
  L 22.00 26.30
  A 0.04 0.04 0.0 0 0 21.97 26.34
  Q 21.78 27.15 23.39 27.06
  A 0.27 0.27 0.0 0 1 23.64 27.46
  Q 23.37 27.94 22.72 27.91
  Q 21.93 27.87 21.20 27.66
  A 1.04 1.03 29.7 0 0 20.17 27.94
  Q 17.64 30.60 18.87 33.89
  A 0.78 0.78 0.0 0 0 20.24 34.05
  Q 20.94 33.02 20.59 32.11
  A 0.20 0.20 0.0 0 1 20.89 31.88
  C 22.24 32.91 21.64 34.44 21.86 35.58
  A 0.75 0.75 0.0 0 0 22.97 36.09
  L 23.30 35.90
  A 0.77 0.77 0.0 0 0 23.64 34.97
  Q 22.93 33.07 23.33 31.03
  A 0.15 0.15 0.0 0 1 23.50 30.91
  L 23.51 30.91
  A 0.20 0.20 0.0 0 1 23.68 31.12
  Q 23.60 33.04 24.62 33.86
  A 0.79 0.78 -58.9 0 1 24.85 34.81
  C 23.88 36.95 26.03 39.22 26.89 40.41
  A 1.28 1.26 -13.6 0 0 27.72 40.91
  Q 28.46 41.02 28.48 41.01
  A 1.82 1.72 42.1 0 0 28.24 37.90
  Q 26.75 37.17 25.91 35.50
  A 0.32 0.31 -28.3 0 1 26.04 35.09
  L 26.29 34.94
  A 0.10 0.10 0.0 0 1 26.43 34.98
  Q 27.39 36.83 28.84 37.28
  A 0.33 0.33 0.0 0 0 29.17 36.74
  L 26.93 34.39
  A 0.93 0.92 29.9 0 1 26.70 33.55
  L 27.50 30.18
  A 0.71 0.69 -54.2 0 0 27.43 29.71
  L 26.49 28.09
  A 0.16 0.15 -0.4 0 1 26.70 27.88
  Q 27.52 28.30 27.93 29.56
  A 0.75 0.75 0.0 0 0 29.11 29.92
  Q 30.21 29.06 29.67 27.91
  A 0.16 0.16 0.0 0 1 29.92 27.72
  Q 30.83 28.49 30.47 29.30
  Q 29.98 30.40 28.61 32.52
  A 1.51 1.51 0.0 0 0 30.67 34.63
  Q 30.70 34.61 31.08 34.59
  A 1.75 1.73 25.5 0 0 31.97 34.28
  Q 33.34 33.32 33.12 31.44
  A 0.87 0.86 -10.2 0 1 33.78 30.50
  L 34.49 30.34
  A 0.81 0.79 13.1 0 0 34.92 30.08
  Q 35.34 29.58 35.06 29.11
  Q 34.73 28.56 34.37 28.70
  Q 34.06 28.82 33.81 28.66
  A 0.38 0.38 0.0 0 1 33.82 28.01
  L 35.21 27.20
  A 1.12 1.10 -52.3 0 1 36.03 27.09
  Q 37.59 27.49 37.68 27.37
  A 0.37 0.37 0.0 0 0 37.23 26.82
  Q 36.33 27.21 35.07 25.98
  A 0.60 0.59 41.4 0 0 34.18 26.03
  Q 33.43 26.97 32.89 27.13
  C 28.40 28.53 29.65 22.93 27.92 21.61
  A 0.31 0.30 62.6 0 1 28.09 21.06
  Q 29.07 21.05 30.03 21.93
  A 1.38 1.34 -70.2 0 1 30.46 22.88
  Q 30.49 23.85 30.95 24.96
  A 0.81 0.81 0.0 0 0 32.45 24.95
  L 33.08 23.39
  A 1.25 1.22 -82.6 0 1 34.04 22.63
  Q 35.74 22.39 36.79 21.39
  A 0.42 0.42 0.0 0 0 36.66 20.69
  Q 35.57 20.25 34.54 20.40
  A 1.02 1.02 0.0 0 1 33.67 20.10
  L 31.73 18.11
  A 0.41 0.41 0.0 0 1 31.68 17.59
  Q 32.40 16.52 31.64 15.67
  A 0.18 0.18 0.0 0 1 31.81 15.38
  Q 33.61 15.74 33.83 17.47
  A 0.59 0.58 -3.9 0 0 34.41 17.97
  L 34.68 17.97
  A 0.32 0.31 90.0 0 0 34.99 17.65
  Q 34.99 15.57 33.60 15.23
  A 0.41 0.41 0.0 0 1 33.48 14.49
  Q 35.20 13.38 36.51 10.91
  A 0.37 0.36 -1.4 0 0 36.00 10.43
  Q 34.99 11.03 34.00 11.00
  A 0.61 0.57 -13.1 0 1 33.50 10.71
  L 31.79 7.76
  A 0.29 0.29 0.0 0 1 32.04 7.33
  L 32.66 7.33
  A 0.24 0.23 60.6 0 1 32.79 7.37
  Q 33.43 7.80 33.83 9.64
  A 0.58 0.58 0.0 0 0 34.97 9.51
  L 34.97 8.88
  A 0.81 0.81 0.0 0 1 35.62 8.09
  Q 36.81 7.86 37.38 7.24
  A 0.28 0.27 17.8 0 0 37.14 6.78
  C 35.51 6.99 33.83 5.51 34.54 3.93
  A 0.17 0.17 0.0 0 1 34.87 3.99
  Q 34.90 4.75 35.81 5.33
  A 0.34 0.34 0.0 0 0 36.33 5.03
  Q 36.32 4.57 35.71 3.74
  A 0.58 0.57 45.6 0 1 35.71 3.05
  L 37.25 0.95
  A 1.97 1.96 43.5 0 1 40.34 0.87
  L 43.30 4.44
  A 0.61 0.60 40.3 0 1 43.36 5.14
  Q 42.38 6.89 40.59 6.85
  A 0.32 0.32 0.0 0 0 40.34 7.38
  Q 40.83 7.95 41.28 8.01
  Q 42.72 8.23 42.72 9.42
  A 0.57 0.57 0.0 0 0 43.85 9.54
  Q 44.08 8.38 44.94 7.30
  A 0.26 0.25 37.6 0 1 45.29 7.26
  L 45.52 7.43
  A 0.16 0.15 27.8 0 1 45.58 7.61
  L 44.70 10.40
  A 0.83 0.83 0.0 0 1 44.04 10.96
  Q 42.61 11.20 41.77 10.40
  A 0.38 0.38 0.0 0 0 41.20 10.46
  Q 41.13 10.54 41.12 10.77
  C 41.09 11.16 41.43 11.33 41.88 11.60
  A 2.01 2.01 0.0 0 1 42.79 12.86
  Q 43.06 13.98 44.16 14.34
  A 0.46 0.46 0.0 0 1 44.24 15.18
  Q 42.61 16.11 42.94 17.83
  A 0.45 0.45 0.0 0 0 43.81 17.86
  Q 44.32 15.93 45.26 16.00
  Z
  M 38.22 1.81
  Q 39.89 2.20 39.98 2.09
  A 0.47 0.46 29.3 0 0 39.77 1.36
  Q 38.51 0.92 38.11 1.20
  A 0.34 0.34 0.0 0 0 38.22 1.81
  Z
  M 38.67 3.68
  Q 37.63 2.71 37.47 2.64
  A 0.90 0.66 72.1 0 0 36.99 4.10
  Q 37.79 4.97 38.65 4.29
  A 0.40 0.40 0.0 0 0 38.67 3.68
  Z
  M 41.59 4.26
  L 41.52 4.75
  A 0.40 0.40 0.0 0 0 42.04 5.18
  Q 42.37 5.08 42.73 4.78
  A 0.31 0.31 0.0 0 0 42.63 4.25
  Q 42.05 4.05 41.59 4.26
  Q 41.34 2.78 39.97 3.05
  A 0.76 0.75 -36.6 0 0 39.76 4.46
  Q 40.32 4.76 41.59 4.26
  Z
  M 38.86 5.65
  Q 38.35 5.81 38.10 6.68
  A 0.34 0.33 -86.0 0 0 38.47 7.11
  Q 39.53 6.95 39.50 6.14
  A 0.53 0.49 80.6 0 0 38.86 5.65
  Z
  M 39.6689 8.1485
  A 1.10 0.94 -40.3 0 0 38.2220 8.1431
  A 1.10 0.94 -40.3 0 0 37.9911 9.5715
  A 1.10 0.94 -40.3 0 0 39.4380 9.5769
  A 1.10 0.94 -40.3 0 0 39.6689 8.1485
  Z
  M 41.37 12.93
  Q 41.33 11.76 39.80 11.47
  Q 37.52 11.04 36.24 12.94
  A 0.37 0.37 0.0 0 0 36.75 13.45
  Q 39.32 11.70 40.86 13.16
  A 0.30 0.30 0.0 0 0 41.37 12.93
  Z
  M 37.90 14.59
  L 35.60 14.63
  A 0.26 0.26 0.0 0 0 35.35 14.89
  L 35.35 15.04
  A 1.95 1.29 89.1 0 0 36.67 16.97
  L 36.91 16.97
  A 1.95 1.29 89.1 0 0 38.17 15.00
  L 38.17 14.85
  A 0.26 0.26 0.0 0 0 37.90 14.59
  Z
  M 42.38 14.58
  L 40.08 14.54
  A 0.25 0.25 0.0 0 0 39.82 14.79
  L 39.82 14.93
  A 1.95 1.27 -89.2 0 0 41.06 16.90
  L 41.32 16.90
  A 1.95 1.27 -89.2 0 0 42.62 14.97
  L 42.62 14.83
  A 0.25 0.25 0.0 0 0 42.38 14.58
  Z
  M 38.33 17.37
  Q 38.51 17.94 38.97 18.28
  A 0.57 0.46 -81.7 0 0 39.68 17.63
  Q 39.45 16.46 38.80 16.72
  Q 38.21 16.95 38.33 17.37
  Z
  M 38.96 19.76
  Q 38.52 19.81 38.04 19.76
  A 0.28 0.28 0.0 0 0 37.76 20.16
  Q 38.48 21.65 39.17 21.57
  Q 39.86 21.49 40.21 19.87
  A 0.28 0.28 0.0 0 0 39.84 19.55
  Q 39.39 19.71 38.96 19.76
  Z
  M 38.26 25.44
  Q 38.15 25.77 38.16 25.80
  A 0.80 0.68 -45.6 0 0 39.52 25.67
  Q 39.66 25.37 39.57 25.06
  A 0.45 0.45 0.0 0 1 39.95 24.49
  Q 40.58 24.43 40.68 23.94
  Q 40.79 23.44 40.48 23.12
  Q 39.64 22.26 39.03 22.12
  A 1.48 1.43 -11.2 0 0 37.47 24.36
  Q 37.56 24.49 38.03 24.78
  A 0.56 0.56 0.0 0 1 38.26 25.44
  Z
  M 40.53 27.03
  Q 40.59 26.94 40.58 26.69
  A 0.18 0.17 84.2 0 0 40.38 26.52
  Q 40.19 26.56 40.10 26.81
  A 0.24 0.24 0.0 0 0 40.53 27.03
  Z
  M 61.48 31.72
  C 62.65 35.39 58.43 37.31 55.44 37.57
  A 1.80 1.74 -60.0 0 0 54.81 37.75
  C 52.71 38.81 52.00 41.67 52.43 43.91
  A 2.76 2.56 -7.8 0 1 49.92 46.97
  Q 48.34 47.10 46.95 45.51
  C 45.41 43.77 47.01 39.82 45.30 37.58
  Q 44.71 36.82 45.43 36.20
  A 0.59 0.59 0.0 0 0 45.40 35.29
  Q 43.68 33.97 43.84 31.95
  Q 43.87 31.58 43.76 31.41
  Q 43.52 31.04 43.35 30.92
  A 0.37 0.37 0.0 0 0 42.80 31.34
  Q 43.24 32.69 43.15 33.53
  A 1.19 1.04 36.2 0 1 41.03 33.72
  Q 40.31 32.44 40.82 31.38
  A 1.15 1.15 0.0 0 0 40.48 29.96
  Q 39.67 29.35 39.50 27.97
  A 0.37 0.36 -2.5 0 0 39.13 27.64
  L 38.82 27.64
  A 0.45 0.44 86.6 0 0 38.38 28.14
  Q 38.58 29.56 37.62 30.09
  A 0.88 0.87 75.6 0 0 37.17 30.86
  L 37.17 33.39
  A 0.49 0.49 0.0 0 0 37.94 33.79
  Q 38.78 33.22 38.59 31.70
  A 0.27 0.26 -11.1 0 1 38.79 31.41
  L 38.86 31.39
  A 0.34 0.34 0.0 0 1 39.27 31.61
  C 39.61 32.56 39.33 32.98 40.51 34.04
  Q 41.25 34.71 41.13 36.09
  A 0.24 0.24 0.0 0 0 41.49 36.31
  L 42.88 35.51
  A 0.33 0.32 69.9 0 1 43.36 35.74
  Q 43.70 37.82 45.53 39.72
  Q 45.61 39.80 45.46 43.05
  A 4.75 4.75 0.0 0 0 48.85 47.83
  L 49.49 48.02
  A 3.17 3.17 0.0 0 0 53.55 45.31
  Q 54.05 40.46 56.11 39.39
  A 0.30 0.30 0.0 0 0 56.12 38.87
  Q 55.94 38.76 55.94 38.75
  A 0.44 0.44 0.0 0 1 56.31 38.08
  C 59.24 37.99 65.39 35.40 61.77 31.55
  A 0.17 0.17 0.0 0 0 61.48 31.72
  Z
  M 60.18 28.65
  Q 60.06 29.03 60.13 29.25
  A 0.14 0.14 0.0 0 0 60.31 29.35
  Q 60.57 29.25 60.60 28.74
  A 0.22 0.21 56.7 0 0 60.18 28.65
  Z
  M 35.31 35.25
  Q 35.39 36.12 36.16 36.42
  A 0.56 0.55 19.2 0 0 36.90 36.07
  Q 37.19 35.15 36.73 34.61
  Q 36.50 34.35 36.26 34.39
  Q 35.76 34.47 35.72 34.48
  A 0.59 0.57 73.7 0 1 34.99 34.07
  Q 34.61 32.59 35.37 31.64
  A 0.31 0.31 0.0 0 0 34.98 31.17
  Q 34.27 31.53 34.26 32.08
  Q 34.22 34.92 31.55 36.19
  A 0.26 0.25 52.0 0 0 31.50 36.62
  Q 31.59 36.69 31.90 36.53
  A 0.81 0.80 -86.3 0 1 32.92 37.71
  Q 32.66 38.09 32.51 38.28
  A 2.01 1.99 66.4 0 0 32.11 39.32
  L 31.68 43.98
  A 3.37 3.37 0.0 0 1 28.47 47.05
  L 28.33 47.06
  A 2.57 2.56 2.2 0 1 25.63 44.15
  Q 26.07 40.95 24.68 39.22
  Q 23.68 37.99 22.42 38.11
  A 0.34 0.33 6.5 0 0 22.13 38.33
  Q 22.12 38.35 22.06 38.55
  A 0.74 0.73 5.3 0 1 21.43 39.07
  C 18.49 39.41 16.74 37.05 14.47 35.90
  A 0.42 0.42 0.0 0 0 14.00 36.59
  Q 14.64 37.16 16.73 38.89
  C 18.39 40.26 19.95 40.11 21.76 39.48
  A 0.75 0.75 0.0 0 1 22.52 39.64
  Q 24.53 41.55 24.48 45.24
  Q 24.46 46.46 25.84 47.78
  A 1.33 1.33 0.0 0 0 26.78 48.17
  Q 31.03 48.19 32.61 44.27
  Q 32.88 43.60 32.42 40.85
  A 1.65 1.61 -38.3 0 1 32.54 39.92
  Q 33.17 38.57 34.23 37.48
  C 34.87 36.82 34.47 35.70 34.89 35.13
  A 0.24 0.23 60.6 0 1 35.31 35.25
  Z
  M 15.97 31.64
  Q 15.45 32.43 15.23 34.17
  A 1.03 1.01 -63.9 0 0 15.50 34.98
  Q 17.92 37.55 21.32 37.95
  A 0.27 0.27 0.0 0 0 21.63 37.71
  L 21.63 37.70
  A 0.23 0.23 0.0 0 0 21.43 37.44
  Q 15.97 36.79 16.44 31.81
  A 0.26 0.26 0.0 0 0 15.97 31.64
  Z
  M 58.69 40.13
  A 0.60 0.58 38.7 0 0 59.11 40.09
  Q 62.02 38.73 64.17 36.52
  A 0.53 0.53 0.0 0 0 64.16 35.77
  L 64.15 35.75
  A 0.48 0.48 0.0 0 0 63.50 35.73
  Q 60.34 38.51 57.12 39.27
  A 0.24 0.24 0.0 0 0 57.12 39.73
  L 58.69 40.13
  Z
  M 65.57 40.36
  L 66.24 37.15
  A 0.24 0.24 0.0 0 0 65.83 36.94
  Q 64.04 38.96 62.99 39.14
  A 1.02 1.01 55.7 0 0 62.63 41.00
  Q 64.08 41.90 64.85 41.42
  A 1.65 1.65 0.0 0 0 65.57 40.36
  Z
  M 12.48 40.42
  A 1.60 1.60 0.0 0 0 13.19 41.44
  Q 13.94 41.89 15.33 41.01
  A 0.98 0.98 0.0 0 0 14.97 39.21
  Q 13.95 39.05 12.20 37.12
  A 0.23 0.23 0.0 0 0 11.80 37.33
  L 12.48 40.42
  Z
  M 32.35 52.19
  L 28.64 54.31
  A 1.53 1.52 73.4 0 0 27.88 55.73
  Q 28.07 58.74 25.66 61.41
  A 1.27 1.27 0.0 0 0 27.11 63.42
  Q 27.12 63.42 27.86 62.76
  A 0.16 0.15 -36.0 0 1 28.09 62.79
  L 28.22 63.03
  A 0.23 0.22 -31.6 0 1 28.14 63.34
  L 26.81 64.11
  A 0.74 0.74 0.0 0 1 25.92 63.99
  Q 25.23 63.30 24.48 63.25
  A 0.51 0.51 0.0 0 0 23.95 63.88
  Q 24.33 65.44 26.31 66.62
  A 0.56 0.55 -64.0 0 0 27.11 66.34
  Q 27.61 65.07 28.85 66.22
  A 0.58 0.57 -50.7 0 0 29.70 66.13
  L 30.75 64.71
  A 0.80 0.79 40.9 0 0 30.67 63.67
  L 28.01 61.01
  A 1.01 0.99 32.5 0 1 27.77 59.97
  C 28.23 58.61 28.81 57.92 28.79 56.39
  C 28.75 54.05 30.39 54.39 31.87 53.30
  Q 32.70 52.69 32.75 52.52
  A 0.28 0.28 0.0 0 0 32.35 52.19
  Z"
/>
<path fill="#000000" d="
  M 45.26 16.00
  Q 45.26 15.72 45.34 15.51
  Q 45.41 15.32 45.69 15.21
  Q 45.95 15.10 46.06 15.14
  A 0.30 0.30 0.0 0 1 46.15 15.65
  Q 45.84 15.91 45.26 16.00
  Z"
/>
<path fill="#000000" d="
  M 55.00 24.62
  Q 55.16 24.63 55.31 24.82
  A 0.16 0.16 0.0 0 1 55.24 25.06
  Q 54.96 25.17 54.89 25.13
  A 0.28 0.26 59.2 0 1 55.00 24.62
  Z"
/>
<path fill="#000000" d="
  M 51.77 27.25
  Q 51.76 27.33 51.62 27.64
  A 0.17 0.17 0.0 0 1 51.29 27.56
  Q 51.30 27.42 51.56 27.16
  A 0.12 0.12 0.0 0 1 51.77 27.25
  Z"
/>
<path fill="#000000" d="
  M 30.18 32.22
  A 0.55 0.51 -65.9 0 0 30.52 33.22
  Q 30.63 33.20 30.93 32.82
  A 0.41 0.41 0.0 0 1 31.50 32.75
  L 31.53 32.77
  A 0.43 0.42 41.0 0 1 31.58 33.39
  Q 30.87 34.16 29.51 33.86
  A 0.78 0.77 -64.9 0 1 29.08 32.63
  Q 30.45 30.82 31.06 30.47
  A 0.19 0.19 0.0 0 1 31.33 30.72
  Q 30.75 31.88 30.18 32.22
  Z"
/>
<path fill="#000000" d="
  M 46.51 30.62
  A 0.40 0.39 -78.8 0 1 47.11 30.21
  Q 48.05 30.82 47.94 31.61
  A 0.31 0.31 0.0 0 1 47.39 31.76
  Q 46.51 30.64 46.51 30.62
  Z"
/>
<path fill="#000000" d="
  M 47.58 32.85
  Q 47.76 32.86 48.22 32.53
  A 0.39 0.39 0.0 0 1 48.75 33.10
  Q 47.96 34.06 47.55 34.05
  Q 47.14 34.04 46.40 33.06
  A 0.39 0.39 0.0 0 1 46.94 32.51
  Q 47.39 32.85 47.58 32.85
  Z"
/>
<path fill="#000000" d="
  M 52.76 32.61
  Q 52.85 32.72 52.70 32.85
  A 0.50 0.48 -30.6 0 1 51.92 32.66
  Q 51.87 32.52 52.13 32.40
  A 0.57 0.47 57.8 0 1 52.76 32.61
  Z"
/>
<path fill="#000000" d="
  M 9.65 33.27
  Q 9.97 32.75 10.19 32.68
  A 0.27 0.27 0.0 0 1 10.51 33.07
  Q 9.95 34.05 10.68 35.21
  A 0.27 0.27 0.0 0 1 10.58 35.59
  L 10.26 35.78
  A 0.11 0.11 0.0 0 1 10.10 35.72
  L 9.55 34.14
  A 1.01 1.00 51.7 0 1 9.65 33.27
  Z"
/>
<path fill="#000000" d="
  M 25.14 33.02
  Q 25.09 32.94 25.19 32.73
  C 25.41 32.20 26.04 32.70 25.92 32.94
  A 0.47 0.42 -47.9 0 1 25.14 33.02
  Z"
/>
<path fill="#000000" d="
  M 51.19 63.64
  A 0.51 0.32 23.9 0 1 50.38 63.76
  Q 49.97 63.37 50.10 62.86
  A 0.35 0.35 0.0 0 1 50.71 62.73
  Q 51.02 63.13 51.19 63.64
  Z"
/>
</svg>
