<svg xmlns="http://www.w3.org/2000/svg" width="78.01" height="74.21" viewBox="0 0 78.01 74.21">
  <g id="Group_214" data-name="Group 214" transform="translate(-33.004 -35.7)">
    <path id="Path_4106" data-name="Path 4106" d="M161.8,99.028a1.687,1.687,0,0,0,.1-.67c-.024-.24.006-.252-.087-.361a.321.321,0,0,0-.276-.078c-.117-.021-.273.138-.276.189v.081a.047.047,0,0,0-.021,0,.113.113,0,0,0-.045,0v-.078c0-.048-.159-.21-.276-.189a.332.332,0,0,0-.276.078c-.09.111-.063.123-.087.361a1.631,1.631,0,0,0,.1.67c0,.048.177.222.228.219a.28.28,0,0,0,.309-.282c.006,0,.015-.006.024-.006a.1.1,0,0,1,.051.015.279.279,0,0,0,.309.276c.048,0,.222-.171.228-.219Zm-.562-.114h.021v.045l-.024-.045Z" transform="translate(-89.232 -43.523)" fill="#50c774"/>
    <path id="Path_4107" data-name="Path 4107" d="M165.376,99.848c.048.006.228-.162.234-.21a1.643,1.643,0,0,0,.123-.664c-.015-.24.015-.252-.072-.364a.32.32,0,0,0-.273-.087c-.117-.027-.279.129-.282.177l-.024.7c-.006.156-.039.433.3.454Z" transform="translate(-92.393 -43.946)" fill="#50c774"/>
    <path id="Path_4108" data-name="Path 4108" d="M158.925,98.687c-.006-.048-.171-.2-.285-.174a.33.33,0,0,0-.273.093c-.084.114-.057.126-.066.367a1.723,1.723,0,0,0,.135.664c.006.048.189.213.237.207.337-.027.3-.3.288-.46l-.036-.694Z" transform="translate(-87.651 -43.939)" fill="#50c774"/>
    <path id="Path_4109" data-name="Path 4109" d="M162.162,54.478a.207.207,0,0,0-.174.117v.051h-.045V54.6c0-.03-.1-.132-.174-.117a.2.2,0,0,0-.174.048c-.057.069-.039.078-.054.225a1.075,1.075,0,0,0,.063.418.314.314,0,0,0,.141.138.173.173,0,0,0,.192-.177.027.027,0,0,0,.015,0,.061.061,0,0,1,.033.009.173.173,0,0,0,.192.171.314.314,0,0,0,.141-.138,1.075,1.075,0,0,0,.063-.418c-.015-.15,0-.156-.054-.225a.2.2,0,0,0-.174-.048Zm-.186.622h.012v.03l-.015-.027Z" transform="translate(-89.918 -13.135)" fill="#50c774"/>
    <path id="Path_4110" data-name="Path 4110" d="M160.544,54.953a.2.2,0,0,0-.18-.108.2.2,0,0,0-.171.057c-.054.072-.036.078-.042.228a1.1,1.1,0,0,0,.084.415.3.3,0,0,0,.15.129c.21-.018.186-.189.18-.288l-.024-.436Z" transform="translate(-88.945 -13.391)" fill="#50c774"/>
    <path id="Path_4111" data-name="Path 4111" d="M128.827,193.058c-.222.358-1.631,2.521-3.434,2.337a2.214,2.214,0,0,1-1.457-.739,2.88,2.88,0,0,1-.451-1.5c-.135-.949.006-1.175-.15-1.848a4.34,4.34,0,0,0-.6-1.349,12.047,12.047,0,0,0-2.9-3c-1.145-.976-1.667-1.523-1.547-1.947.132-.463.85-.3,1.3-.9.586-.778.234-2.217-.349-3.095-.607-.913-1.091-.748-1.9-1.9-.276-.394-.4-.679-.748-.8-.5-.171-.745.225-1.349.2-.742-.03-.808-.646-1.8-1.049a5.644,5.644,0,0,0-1.947-.249c-1.3-.048-1.932.114-2.1-.2-.1-.2.105-.324.2-.9a2.1,2.1,0,0,0-.15-1.448c-.37-.574-1.04-.445-1.2-.949-.087-.282.093-.409.15-.8s-.054-.79-.9-2.046c-.484-.721-.844-1.178-1.349-1.848-.484-.643-.862-1.169-1.1-1.5-.234.327-.616.856-1.1,1.5-.5.667-.862,1.127-1.349,1.848-.844,1.256-.955,1.655-.9,2.046s.237.517.15.8c-.156.5-.829.376-1.2.949a2.118,2.118,0,0,0-.15,1.448c.1.574.3.7.2.9-.165.315-.8.15-2.1.2a5.644,5.644,0,0,0-1.947.249c-.988.4-1.055,1.019-1.8,1.049-.6.024-.853-.37-1.349-.2-.352.12-.472.4-.748.8-.805,1.151-1.289.982-1.9,1.9-.583.877-.934,2.316-.349,3.095.448.6,1.166.436,1.3.9.12.424-.4.97-1.547,1.947a12.171,12.171,0,0,0-2.9,3,4.271,4.271,0,0,0-.6,1.349c-.156.673-.015.9-.15,1.848a2.815,2.815,0,0,1-.451,1.5,2.226,2.226,0,0,1-1.457.739c-1.8.183-3.209-1.98-3.434-2.337a5.809,5.809,0,0,1-.847-2.545,2.7,2.7,0,0,0-.249,2.1,6.452,6.452,0,0,0,1.2,1.848,9.589,9.589,0,0,1,.7.847,6.7,6.7,0,0,1,.6,1.8c.547,1.292,2.89,2.082,4.591,1.6,1.064-.3,1.34-.961,2.2-.847.781.1,1.211.712,1.746,1.3.394.43,2.749,3,5.093,3a5.461,5.461,0,0,0,3.744-1.848c.559-.643.844-1.322,1.7-1.6.8-.258,1.124.153,1.7-.2.943-.583.949-2.241.949-2.346a3.111,3.111,0,0,0-.051-.55c-.433,1.517-1.049,2.025-1.547,2.2-.889.306-1.475-.43-2.3-.051-.955.442-.736,1.7-1.7,2a1.308,1.308,0,0,1-1.349-.349c-.294-.364-.315-.964-.1-1.1s.541.343,1.049.3c.445-.039.694-.454,1.046-.9.94-1.2,1.283-.922,1.9-1.8.871-1.229,1.067-3,.5-3.4a1.13,1.13,0,0,0-.7-.1,1.79,1.79,0,0,0-1,.4,1.309,1.309,0,0,1,.8.349,1.381,1.381,0,0,1,.349,1.049c-.123,1.6-3.885,2.4-4.555,2.542-1.124.24-1.755.2-2.235-.147-.436-.318-.769-.913-.6-1.2.156-.258.619-.069,1.646-.1.409-.012,2.428-.075,2.845-1.049a.968.968,0,0,0,.057-.18,2.194,2.194,0,0,0,.042-.919c-.147.7-.562,1.169-.9,1.148-.46-.027-.85-.97-.6-1.5.168-.355.574-.421.55-.5-.048-.138-1.376-.045-1.547.5-.117.373.394.676.249,1.1a.88.88,0,0,1-.7.5c-.6.087-.883-.511-1.7-.7a2.27,2.27,0,0,0-1.148.051c.327.087.553.276.55.451-.006.222-.388.4-.7.4-.355,0-.532-.243-1.1-.7-.8-.646-.874-.5-1.1-.8-.64-.841-.282-2.313,0-2.346.168-.021.144.547.649,1a2.351,2.351,0,0,0,2.6.15,1.221,1.221,0,0,0,.649-.7,1.235,1.235,0,0,0-.3-1.049,1.636,1.636,0,0,1-.55,1.247,1.505,1.505,0,0,1-2-.1c-.291-.4-.1-.952.15-1.7a10.58,10.58,0,0,1,1.3-2.395c.892-1.412.964-1.631,1-1.9.105-.811-.264-1.061-.1-1.8a2.859,2.859,0,0,1,1.1-1.547c.811-.667,1.37-.58,2.845-1.3a12.576,12.576,0,0,0,1.247-.7c-.234.367-.466.733-.7,1.1a4.039,4.039,0,0,1-.8.5c-.766.361-1.052.21-1.6.5a2.626,2.626,0,0,0-1.178,1.439,2.871,2.871,0,0,0-.021,1.457c.126.475.312.6.249.9-.087.412-.5.415-.847.847a2.113,2.113,0,0,0-.051,2.346c.213.3.342.213.8.649a6.97,6.97,0,0,1,.9,1.247c.8.97,2.53.808,3.146.748a4.412,4.412,0,0,0,2.6-.949,4.119,4.119,0,0,0,1.247-4.393,3.508,3.508,0,0,0-.748-1.2,5.385,5.385,0,0,1,.15,1.148c.015.709.057,2.656-1.2,3.3a2.313,2.313,0,0,1-2.545-.451,2.453,2.453,0,0,1-.679-1.935c.048-.514.234-.541.43-1.211.391-1.346-.183-1.851.249-2.395.373-.472.841-.1,2.247-.7.841-.361.883-.547,1.4-.6.676-.066.973.349,2,.7,0,0,.006,0,1.049.3a5.265,5.265,0,0,0,1.049-.3c.838-.336,1.295-.769,2-.7.514.051.556.24,1.4.6,1.4.6,1.872.228,2.247.7.433.544-.141,1.049.249,2.395.2.67.382.7.43,1.211a2.458,2.458,0,0,1-.679,1.935,2.319,2.319,0,0,1-2.545.451c-1.256-.637-1.214-2.587-1.2-3.3a5.2,5.2,0,0,1,.15-1.148,3.478,3.478,0,0,0-.748,1.2,4.119,4.119,0,0,0,1.247,4.393,4.412,4.412,0,0,0,2.6.949c.616.057,2.343.222,3.146-.748a6.971,6.971,0,0,1,.9-1.247c.454-.436.586-.349.8-.649a2.113,2.113,0,0,0-.051-2.346c-.349-.436-.763-.436-.847-.847-.06-.294.123-.427.249-.9a2.831,2.831,0,0,0-.021-1.457,2.626,2.626,0,0,0-1.178-1.439c-.547-.288-.832-.138-1.6-.5a4.039,4.039,0,0,1-.8-.5c-.234-.367-.466-.733-.7-1.1a12.577,12.577,0,0,0,1.247.7c1.475.718,2.034.631,2.845,1.3a2.875,2.875,0,0,1,1.1,1.547c.165.736-.2.985-.1,1.8.033.267.105.484,1,1.9a10.644,10.644,0,0,1,1.3,2.395c.252.742.442,1.3.15,1.7a1.5,1.5,0,0,1-2,.1,1.643,1.643,0,0,1-.55-1.247,1.245,1.245,0,0,0-.3,1.049,1.221,1.221,0,0,0,.649.7,2.351,2.351,0,0,0,2.6-.15c.5-.451.478-1.018.649-1,.282.033.64,1.505,0,2.346-.222.291-.294.153-1.1.8-.565.454-.742.694-1.1.7-.312,0-.694-.177-.7-.4,0-.171.222-.364.55-.451a2.273,2.273,0,0,0-1.148-.051c-.811.186-1.094.787-1.7.7a.891.891,0,0,1-.7-.5c-.144-.421.367-.727.249-1.1-.171-.544-1.5-.637-1.547-.5-.027.078.382.144.55.5.249.529-.138,1.469-.6,1.5-.337.021-.751-.448-.9-1.148a2.194,2.194,0,0,0,.042.919,1.125,1.125,0,0,0,.057.18c.418.973,2.437,1.037,2.845,1.049,1.028.033,1.49-.159,1.646.1.171.282-.162.88-.6,1.2-.478.349-1.109.388-2.235.147-.67-.144-4.432-.946-4.555-2.542a1.394,1.394,0,0,1,.349-1.049,1.285,1.285,0,0,1,.8-.349,1.79,1.79,0,0,0-1-.4,1.13,1.13,0,0,0-.7.1c-.568.394-.37,2.163.5,3.4.619.874.958.6,1.9,1.8.349.445.6.859,1.046.9.508.045.82-.442,1.049-.3s.2.736-.1,1.1a1.308,1.308,0,0,1-1.349.349c-.961-.3-.742-1.553-1.7-2-.823-.382-1.406.355-2.3.051-.5-.171-1.115-.679-1.547-2.2a3.356,3.356,0,0,0-.051.55c0,.1,0,1.764.949,2.346.574.355.9-.057,1.7.2.853.276,1.139.952,1.7,1.6a5.461,5.461,0,0,0,3.744,1.848c2.34.012,4.7-2.566,5.093-3,.535-.586.967-1.2,1.746-1.3.856-.111,1.133.544,2.2.847,1.7.487,4.047-.306,4.591-1.6a6.7,6.7,0,0,1,.6-1.8,8.324,8.324,0,0,1,.7-.847,6.412,6.412,0,0,0,1.2-1.848,2.7,2.7,0,0,0-.249-2.1,5.888,5.888,0,0,1-.847,2.545Z" transform="translate(-32.937 -92.236)" fill="#50c774"/>
    <path id="Path_4112" data-name="Path 4112" d="M238.142,109.906a6.57,6.57,0,0,0-.312-.676C237.932,109.479,238.037,109.7,238.142,109.906Z" transform="translate(-143.287 -51.438)" fill="#50c774"/>
    <path id="Path_4113" data-name="Path 4113" d="M110.914,81.154c-.105-.024-.1.643-.649,1.1-.667.553-1.3.123-1.947.6-.391.288-.493.79-.7,1.8-.273,1.346.012,1.559-.3,2.046a2.969,2.969,0,0,1-2.746.949c-1.046-.138-1.713-.769-2.1-.451-.231.192-.078.493-.4.847a1.245,1.245,0,0,1-.949.4c-.49-.018-1.049-.333-1.049-.649,0-.361.727-.412,1.4-1.1.562-.574.336-1.121.748-1.3.433-.186.742.306,1.5.4a3.057,3.057,0,0,0,2.145-.8,3.539,3.539,0,0,0,1.547-2.3c.066-.694-.219-1.166.1-1.5.207-.213.43-.126.949-.249a3.111,3.111,0,0,0,1.7-1,2.686,2.686,0,0,0,.55-1.8c-.057-.64-.343-.781-.451-1.349a2.884,2.884,0,0,1,.649-2.2,2.043,2.043,0,0,0-1.1,1.049c-.279.751.288,1.2.051,2.1a2.052,2.052,0,0,1-1.448,1.5,1.753,1.753,0,0,1-.949-.1,1.818,1.818,0,0,1-.847-.7,1.688,1.688,0,0,0-.249.9c.018.6.4.766.451,1.247.063.637-.523,1.178-1.2,1.8a6.889,6.889,0,0,1-1.746,1.148,14,14,0,0,1-1.4.55c-.541.192-1.316.46-1.8.6a9.382,9.382,0,0,1-4.591.4,4.278,4.278,0,0,1-3.044-1.7,3,3,0,0,1-.4-1.2,4.37,4.37,0,0,0,.9.847,5.166,5.166,0,0,0,2.695.847,10.62,10.62,0,0,0,5.291-.7c1.088-.448,2.989-1.235,3.245-2.5.051-.252.144-1.055.2-1.8.027-.358.042-.655.051-.847a3.561,3.561,0,0,0,1.547-.4c.79-.421,1.025-.97,2.247-2.746,1.106-1.607,1.19-1.553,1.3-1.947.138-.5.337-1.755-1.049-3.644a13.213,13.213,0,0,0-4.044-3.044,4.159,4.159,0,0,1-2.346-1.9,2.755,2.755,0,0,1-.2-1.3,4.527,4.527,0,0,0-3.446-3.945,15.277,15.277,0,0,1,1.349,1.2c.739.742.808.967.748,1.1-.12.267-.736.024-1,.349-.334.412.21,1.364.4,1.7a6.887,6.887,0,0,0,1.646,1.9c1.562,1.322,1.965,1.169,2.944,2.2a4.616,4.616,0,0,1,1.349,2.046,5.165,5.165,0,0,1-.358,3.143c-.114-.024.075-.466.057-.349a8.424,8.424,0,0,0-.15-1.349,4.329,4.329,0,0,0-.847-2.247c-.469-.511-.745-.346-1.8-.949a9.511,9.511,0,0,1-1.848-1.448,14.781,14.781,0,0,1-2.046-2.346,5.755,5.755,0,0,0,1,2.2c1.009,1.337,2.07,1.427,2.3,2.446.117.526-.171,1.133-.748,2.346-.886,1.866-1.334,1.9-1.448,2.845-.135,1.142.472,1.448.15,2.446a3.327,3.327,0,0,1-1.2,1.547,4.469,4.469,0,0,1-1.947.9,5.618,5.618,0,0,0,1.5-1.947,7.244,7.244,0,0,0,.55-2.1c.18-1.3-.075-1.358.15-2.046.339-1.037.94-.964,1.4-2.145a2.274,2.274,0,0,0,.051-2.046,1.524,1.524,0,0,0-.847-.55,2.43,2.43,0,0,1,.5,1.7,2.926,2.926,0,0,1-.55,1.148,15.839,15.839,0,0,0-1.3,2.1,15.565,15.565,0,0,0-.249,2.2c-.171,1.277-.291,1.469-.4,1.6a1.89,1.89,0,0,1-2.395.349,1.664,1.664,0,0,1-.7-1.947c.343-.541,1.211-.15,2.2-.9a4.329,4.329,0,0,0,.748-.847c.871-1.133,1.31-1.7,1.349-2.395.027-.49-.165-.46-.949-2.395a7.83,7.83,0,0,1-.6-1.746c-.117-1.1.337-1.5,0-2.145-.261-.5-.58-.355-1.049-1.049a2.116,2.116,0,0,1-.451-1.448c.075-.481.4-.562.4-.949,0-.469-.466-.8-.739-1.028a5.507,5.507,0,0,1-1.343-1.74,4.922,4.922,0,0,1,.336,1.52c.069,1.346-.5,1.968-.051,2.746.352.613.883.529,1.148,1.247.159.433.225,1.136-.15,1.4s-.994-.069-1.049-.1c-.409-.231-.667-.64-.949-1.547C93.6,62,93.906,61.451,93.423,60.8a2.6,2.6,0,0,0-1.932-.913c1.009.565,1.31,1.133,1.4,1.547.123.583-.177.841-.051,1.6.09.544.318.616.748,1.547a11.09,11.09,0,0,1,.487,1.208,5.693,5.693,0,0,0-2.983-2.905,4.31,4.31,0,0,0-1.6-.249c.724-.168,1.274-.547,1.3-.949.039-.664-1.37-1.109-1.5-1.148a3.853,3.853,0,0,0-2.446.1q2.893.234,2.944.748c.018.189-.246.406-.8.649a1.416,1.416,0,0,1-.649.4,1.731,1.731,0,0,1-1.722-.655,1.482,1.482,0,0,0,.324,1.006c.376.421.928.376,2.2.55a7.618,7.618,0,0,1,1.646.3c1.271.622,1.869,2.4,1.746,3.843-.1,1.133-.634,2.527-1.247,2.545-.267.009-.478-.249-.6-.4-.8-.988-.174-2.569-.1-2.746a1.9,1.9,0,0,0-.949.649c-.4.541-.213,1.034-.4,2.3-.138.937-.249,1.688-.7,1.848a1.08,1.08,0,0,1-1.148-.6c-.3-.61.234-1.217.451-2.1a4.505,4.505,0,0,0-.649-3.3,3.876,3.876,0,0,1,0,2.346c-.364,1.04-1.022,1.187-1.148,2.1-.156,1.121.757,1.472.5,2.395-.225.808-.967.7-1.6,1.848-.436.793-.216,1.094-.649,1.547a1.884,1.884,0,0,1-2.3.4c-.613-.526-.37-1.818.15-2.6.625-.937,1.625-.622,2.395-1.7a3.589,3.589,0,0,0,.55-1.286c.222-.937-.057-1.292.2-2.259.2-.739.5-1.067.4-1.148-.138-.108-.886.34-1.049,1-.09.37.075.52.1,1.1a3.764,3.764,0,0,1-.2,1.3A3.38,3.38,0,0,1,82.6,72.36c-.652.3-1.436.523-1.5.4-.042-.087.285-.3.847-.748a9.957,9.957,0,0,0,1.6-1.4c.865-1.226.285-3.266.15-3.744a3.759,3.759,0,0,1-.3-1.646c.024-.2.138-1.151.8-1.4a1.1,1.1,0,0,1,.7,0c-.4-.523-.649-.577-.8-.55-.5.1-.436,1.247-1.4,2.046a2.655,2.655,0,0,1-.451.3,1.58,1.58,0,0,1-1.19-1.457A1.552,1.552,0,0,1,82,62.779a1.844,1.844,0,0,0-1.448.649c-.454.694.024,1.682.249,2.145.4.835.745.829,1.3,1.848a2.568,2.568,0,0,1,.5,1.547,1.893,1.893,0,0,1-1.3,1.6,2.028,2.028,0,0,1-1.3-.2,3.46,3.46,0,0,1-2.145-1.947c-.285-1,.4-1.52,0-2.1-.49-.712-1.755-.255-2.046-.9a.974.974,0,0,1,.5-1.2,1.007,1.007,0,0,1,1.148.4,2.447,2.447,0,0,0-1.2-1.8,1.691,1.691,0,0,0-1.019-.105.864.864,0,0,1-.225-.67c.078-.264.448-.4.727-.469.838-.207,1.34,1.184,2.653,1.508a2.6,2.6,0,0,0,2.133-.418,1.614,1.614,0,0,0,.147-.132c.841-.829.9-2.371,1.031-3.194A6.623,6.623,0,0,1,83,56.425c-2.025.637-2.656,1.418-2.809,2.067-.165.691.213,1.217-.2,1.875-.346.556-1.112.973-1.6.748a1.078,1.078,0,0,1-.469-.625c-.285-.688.012-1.028-.207-1.508a1.994,1.994,0,0,0-1.352-.883c-.88-.243-1.343.1-1.872-.312a1.126,1.126,0,0,1-.418-.625,1.145,1.145,0,0,1,.727-1.3c.382-.063.52.364,1.04.418.4.039.694-.168,1.2-.52A5.763,5.763,0,0,0,78.6,54.039c.4-.595.544-.925.469-1.25-.117-.5-.661-.613-.616-.877.069-.406,1.4-.43,1.4-.532a2.053,2.053,0,0,0-1.962.066c-1.04.685-.916,2.461-1.628,2.542a.5.5,0,0,1-.276-.051,1.189,1.189,0,0,0-.066-.1c-.09-.108-.165-.192-.108-.3,0,0,.036-.006.078-.12A2.952,2.952,0,0,0,76,52.627c.012-.027-.018-.051-.018-.054a.051.051,0,0,0-.045-.021.565.565,0,0,0-.225.1c.051-.1.105-.2.162-.309a2.837,2.837,0,0,1,.754-1.016c.6-.466,1.148-.343,1.2-.574.063-.3-.865-.523-1.719-1.3-.039-.036-.066-.069-.1-.105a5.209,5.209,0,0,0-.517-1.28c-.057-.066-.12-.135-.12-.135-.036-.036-.06-.063-.06-.063a4.46,4.46,0,0,0-.55-.484l-.015-.009-.042-.06a3.878,3.878,0,0,0-.706-.694.5.5,0,0,1-.12-.4c.048-.168.285-.255.466-.3.535-.132.856.757,1.7.964a1.665,1.665,0,0,0,1.364-.267.746.746,0,0,0,.093-.084,3.641,3.641,0,0,0,.661-2.043,4.261,4.261,0,0,1,.823-1.872c-1.295.406-1.7.907-1.8,1.322-.105.442.135.778-.126,1.2-.222.355-.709.622-1.022.481a.672.672,0,0,1-.3-.4c-.183-.442.006-.655-.132-.964a1.282,1.282,0,0,0-.865-.565c-.565-.156-.859.06-1.2-.2a.7.7,0,0,1,.2-1.232c.243-.039.333.231.667.267.252.027.445-.108.766-.333a3.659,3.659,0,0,0,1-1.1c.385-.577.34-.733.3-.8-.075-.123-.234-.084-.333-.234-.153-.228.051-.577,0-.6s-.237.306-.433.6c-.382.568-.667.994-1.031,1a.479.479,0,0,1-.129-.018.6.6,0,0,0-.048-.072c-.057-.066-.1-.12-.066-.189,0,0,.024,0,.048-.075a1.849,1.849,0,0,0,.069-.49c.009-.015-.012-.033-.012-.033a.026.026,0,0,0-.027-.012.513.513,0,0,0-.183.087l-.042.024c.039-.084.087-.171.141-.273a1.822,1.822,0,0,1,.484-.649c.388-.3.733-.219.766-.367.042-.192-.553-.333-1.1-.832a.479.479,0,0,1-.039-.039,3.179,3.179,0,0,0-.309-.757c-.036-.042-.075-.084-.075-.084-.021-.024-.036-.039-.036-.039a3,3,0,0,0-.327-.288,1.6,1.6,0,0,0-.114-.159,3.161,3.161,0,0,0-1.749-1.058V35.7c-.027.006-.048.015-.075.021s-.048-.015-.075-.021v.042A3.161,3.161,0,0,0,70.021,36.8c-.4.508-.361.871-.9,1.364s-1.139.64-1.1.832c.03.147.379.069.766.367a1.8,1.8,0,0,1,.484.649c.189.352.312.583.216.781a.532.532,0,0,1-.466.267c-.367,0-.652-.43-1.031-1-.2-.291-.385-.622-.433-.6s.153.37,0,.6c-.1.15-.258.108-.333.234-.039.066-.084.222.3.8a3.694,3.694,0,0,0,1,1.1c.321.225.511.358.766.333.333-.033.421-.306.667-.267a.732.732,0,0,1,.466.832.713.713,0,0,1-.267.4c-.34.261-.634.045-1.2.2a1.282,1.282,0,0,0-.865.565c-.141.309.048.526-.132.964a.672.672,0,0,1-.3.4c-.309.144-.8-.123-1.022-.481-.261-.421-.021-.757-.126-1.2-.1-.418-.5-.916-1.8-1.322a4.261,4.261,0,0,1,.823,1.872,3.625,3.625,0,0,0,.661,2.043,1.068,1.068,0,0,0,.093.084,1.676,1.676,0,0,0,1.364.267c.841-.207,1.163-1.1,1.7-.964.18.045.418.129.466.3a.508.508,0,0,1-.12.4,3.978,3.978,0,0,0-.706.694,4.845,4.845,0,0,0-.556.949,4.713,4.713,0,0,0-.538.862,3.848,3.848,0,0,1-.312.324c-.85.778-1.782,1-1.716,1.3.048.231.592.108,1.2.574a2.785,2.785,0,0,1,.754,1.016c.063.12.123.228.174.333a5.091,5.091,0,0,0,.063.76.221.221,0,0,1,.084.15c-.165.186-.439.445-.715.4-.595-.1-.421-1.487-1.334-2.274a2.716,2.716,0,0,0-2.362-.433c-.009.063,1.391.141,1.463.6.045.285-.472.4-.577.91-.069.33.075.658.469,1.25a5.759,5.759,0,0,0,1.562,1.719c.5.352.8.559,1.2.52.52-.051.658-.478,1.04-.418a1.142,1.142,0,0,1,.727,1.3,1.111,1.111,0,0,1-.418.625c-.529.409-.991.069-1.872.312a2,2,0,0,0-1.352.883c-.219.484.078.82-.207,1.508a1.078,1.078,0,0,1-.469.625c-.484.225-1.25-.192-1.6-.748-.409-.658-.03-1.181-.2-1.875-.156-.652-.787-1.433-2.809-2.067a6.623,6.623,0,0,1,1.289,2.926c.129.823.189,2.365,1.031,3.194a1.615,1.615,0,0,0,.147.132,2.614,2.614,0,0,0,2.133.418c1.313-.324,1.818-1.716,2.653-1.508.279.069.652.2.727.469.093.321-.258.7-.379.889a1.427,1.427,0,0,0-.571.135,2.462,2.462,0,0,0-1.2,1.8,1.011,1.011,0,0,1,1.148-.4.974.974,0,0,1,.5,1.2c-.291.643-1.556.186-2.046.9-.4.577.285,1.094,0,2.1a3.46,3.46,0,0,1-2.145,1.947,1.989,1.989,0,0,1-1.3.2,1.89,1.89,0,0,1-1.3-1.6,2.568,2.568,0,0,1,.5-1.547c.553-1.019.9-1.013,1.3-1.848.225-.463.7-1.451.249-2.145a1.841,1.841,0,0,0-1.448-.649,1.552,1.552,0,0,1,.94,1.388,1.591,1.591,0,0,1-.577,1.148,1.613,1.613,0,0,1-.613.309,2.48,2.48,0,0,1-.451-.3c-.961-.8-.9-1.95-1.4-2.046-.147-.03-.4.027-.8.55a1.1,1.1,0,0,1,.7,0c.658.249.775,1.2.8,1.4a3.709,3.709,0,0,1-.3,1.646c-.135.478-.718,2.518.15,3.744a9.526,9.526,0,0,0,1.6,1.4c.562.448.892.661.847.748-.06.126-.847-.1-1.5-.4a3.38,3.38,0,0,1-1.947-1.646,3.687,3.687,0,0,1-.2-1.3c.027-.58.189-.73.1-1.1-.162-.658-.91-1.106-1.049-1-.1.081.2.409.4,1.148.255.967-.024,1.319.2,2.259a3.588,3.588,0,0,0,.55,1.286c.769,1.076,1.773.757,2.395,1.7.52.778.76,2.07.15,2.6a1.883,1.883,0,0,1-2.3-.4c-.433-.454-.213-.754-.649-1.547-.631-1.151-1.373-1.04-1.6-1.848-.255-.922.658-1.277.5-2.395-.129-.91-.784-1.055-1.148-2.1a3.876,3.876,0,0,1,0-2.346,4.5,4.5,0,0,0-.649,3.3c.213.88.751,1.484.451,2.1a1.078,1.078,0,0,1-1.148.6c-.448-.156-.559-.91-.7-1.848-.186-1.262,0-1.755-.4-2.3a1.886,1.886,0,0,0-.949-.649c.075.177.7,1.758-.1,2.746-.123.15-.33.409-.6.4-.616-.018-1.151-1.412-1.247-2.545-.123-1.442.475-3.224,1.746-3.843a7.619,7.619,0,0,1,1.646-.3c1.268-.174,1.821-.129,2.2-.55a1.477,1.477,0,0,0,.324-1.006,1.731,1.731,0,0,1-1.722.655,1.416,1.416,0,0,1-.649-.4c-.55-.243-.817-.46-.8-.649q.05-.514,2.944-.748a3.832,3.832,0,0,0-2.446-.1c-.129.042-1.538.484-1.5,1.148.024.4.574.778,1.3.949a4.382,4.382,0,0,0-1.6.249,5.767,5.767,0,0,0-3.086,3.113,17.1,17.1,0,0,1,.652-1.664c.43-.931.658-1,.748-1.547.126-.754-.174-1.016-.051-1.6.087-.415.388-.982,1.4-1.547a2.6,2.6,0,0,0-1.932.913c-.484.655-.177,1.2-.712,2.929-.282.907-.541,1.316-.949,1.547-.051.03-.667.367-1.049.1s-.309-.964-.15-1.4c.264-.718.8-.634,1.148-1.247.445-.778-.117-1.4-.051-2.746a4.819,4.819,0,0,1,.336-1.52,5.507,5.507,0,0,1-1.343,1.74c-.273.228-.736.559-.739,1.028,0,.388.324.466.4.949a2.091,2.091,0,0,1-.451,1.448c-.466.694-.787.544-1.049,1.049-.337.649.117,1.046,0,2.145a7.946,7.946,0,0,1-.6,1.746c-.784,1.935-.976,1.9-.949,2.395.039.694.475,1.262,1.349,2.395a4.329,4.329,0,0,0,.748.847c.985.748,1.854.358,2.2.9a1.656,1.656,0,0,1-.7,1.947,1.894,1.894,0,0,1-2.395-.349c-.108-.129-.228-.318-.4-1.6a15.56,15.56,0,0,0-.249-2.2,16.088,16.088,0,0,0-1.3-2.1,2.945,2.945,0,0,1-.55-1.148,2.43,2.43,0,0,1,.5-1.7,1.515,1.515,0,0,0-.847.55,2.264,2.264,0,0,0,.051,2.046c.457,1.184,1.058,1.109,1.4,2.145.225.688-.03.745.15,2.046a7.149,7.149,0,0,0,.55,2.1,5.618,5.618,0,0,0,1.5,1.947,4.468,4.468,0,0,1-1.947-.9,3.327,3.327,0,0,1-1.2-1.547c-.324-1,.285-1.3.15-2.446-.111-.946-.559-.979-1.448-2.845-.577-1.214-.865-1.821-.748-2.346.228-1.019,1.289-1.109,2.3-2.446a5.755,5.755,0,0,0,1-2.2,14.782,14.782,0,0,1-2.046,2.346,9.421,9.421,0,0,1-1.848,1.448c-1.055.6-1.328.439-1.8.949a4.329,4.329,0,0,0-.847,2.247,8.751,8.751,0,0,0-.15,1.349c-.018-.117.171.324.057.349a5.2,5.2,0,0,1-.358-3.143,4.591,4.591,0,0,1,1.349-2.046,22.373,22.373,0,0,1,2.944-2.2,5.679,5.679,0,0,0,1.947-1.947c.153-.3.568-1.088.249-1.6-.267-.427-.865-.37-.9-.649s.52-.433,1.1-1a3.746,3.746,0,0,0,.748-1.049,4.527,4.527,0,0,0-3.446,3.945,2.794,2.794,0,0,1-.2,1.3,4.146,4.146,0,0,1-2.346,1.9A13.263,13.263,0,0,0,34.986,69.3c-1.385,1.887-1.187,3.149-1.049,3.644.108.394.192.34,1.3,1.947,1.223,1.776,1.457,2.325,2.247,2.746a3.561,3.561,0,0,0,1.547.4c.009.2.024.49.051.847.057.742.15,1.544.2,1.8.255,1.262,2.157,2.046,3.245,2.5a10.656,10.656,0,0,0,5.291.7,5.222,5.222,0,0,0,2.695-.847,4.452,4.452,0,0,0,.9-.847,3.018,3.018,0,0,1-.4,1.2,4.288,4.288,0,0,1-3.044,1.7,9.391,9.391,0,0,1-4.594-.4c-.481-.141-1.256-.406-1.8-.6a13.7,13.7,0,0,1-1.4-.55,6.921,6.921,0,0,1-1.746-1.148c-.676-.622-1.262-1.16-1.2-1.8.048-.481.433-.646.451-1.247a1.688,1.688,0,0,0-.249-.9,1.818,1.818,0,0,1-.847.7,1.718,1.718,0,0,1-.949.1,2.057,2.057,0,0,1-1.448-1.5c-.237-.9.33-1.343.051-2.1a2.028,2.028,0,0,0-1.1-1.049,2.884,2.884,0,0,1,.649,2.2c-.105.568-.394.709-.451,1.349a2.686,2.686,0,0,0,.55,1.8,3.1,3.1,0,0,0,1.7,1c.52.123.742.036.949.249.318.333.036.805.1,1.5a3.539,3.539,0,0,0,1.547,2.3,3.07,3.07,0,0,0,2.145.8c.757-.093,1.064-.586,1.5-.4.412.177.186.724.748,1.3.67.685,1.4.739,1.4,1.1,0,.315-.559.631-1.049.649a1.245,1.245,0,0,1-.949-.4c-.321-.358-.168-.655-.4-.847-.385-.321-1.049.312-2.1.451a2.972,2.972,0,0,1-2.746-.949c-.312-.49-.024-.7-.3-2.046-.2-1.006-.306-1.508-.7-1.8-.646-.475-1.28-.045-1.947-.6-.547-.454-.544-1.121-.649-1.1a2.062,2.062,0,0,0,.451,2.145c.6.457,1.256-.057,1.8.4.315.267.285.631.4,2.046a11.1,11.1,0,0,0,.3,2.395c.255.607.6.781,2.346,2,2.557,1.779,2.644,1.986,3.3,2.046.874.081,2.4-.141,2.944-1.049.135-.225.207-.493.5-.649.436-.234.853.165,1.4.15a4.065,4.065,0,0,0,3-1.148,4.061,4.061,0,0,0,.7-2.046c.291-1.6-.084-2.082.4-2.647.421-.493.805-.243,1.746-.949a10.348,10.348,0,0,0,1.049-1.049c1.289-1.376,1.364-1.634,1.4-1.8a4.2,4.2,0,0,0-.15-1.547,9.13,9.13,0,0,0-.249-1c1.337,1.058,1.529,1.752,1.448,2.2-.063.352-.258.321-1.049,1.6a4.11,4.11,0,0,0-.649,1.3c-.06.321-.03.529-.2.7-.249.249-.631.117-1,.15-1.079.093-1.776,1.592-1.848,1.746a10.265,10.265,0,0,0-.1,3.245c.045,1.274.09,1.719.451,2a1.622,1.622,0,0,0,1.349.15l-.2-.847a2.839,2.839,0,0,1-.4-1,3.031,3.031,0,0,1,.949-2.746,2.687,2.687,0,0,1,1.448-.7,2.447,2.447,0,0,1,.6,0l-.051.949a4.166,4.166,0,0,0-1.9,2.944c-.015.2-.138,2.019,1,2.647a1.754,1.754,0,0,0,.949.2,4.955,4.955,0,0,1-1.3,1.4,3.439,3.439,0,0,1-2.346.847c-.976-.09-2.22-.79-2.247-1.746a1.627,1.627,0,0,1,.55-1.148c.084-.433.165-.865.249-1.3a4.918,4.918,0,0,0-2.247,4.891,3.716,3.716,0,0,0,1.547,2.247,3.64,3.64,0,0,0,3.3.3c.514-.21,1.058-.871,2.145-2.2.361-.439.727-.925.6-1.4-.084-.315-.33-.394-.3-.6.069-.487,1.547-.373,1.646-.949.06-.349-.343-.523-.8-1.3-1.127-1.917-1.1-2.283-1.049-2.5.12-.46.454-.442,1.6-1.3,1.13-.847,1.166-1.133,2.395-2,1.064-.745,1.442-.814,1.749-.8.574.027.769.343,1.3.249s.559-.448,1.2-.8a6.3,6.3,0,0,1,1.9-.4c1.334-.183,1.643-.141,1.8-.4.273-.46-.439-1.007-.15-1.6.207-.421.649-.312,1.1-.9a2.554,2.554,0,0,0,.4-.9,7.309,7.309,0,0,0,.249-1.8,5.554,5.554,0,0,1,.949-2.395,10.22,10.22,0,0,1,2.1-2.5,3.189,3.189,0,0,0,.436-.562,3.052,3.052,0,0,0,.436.562,10.158,10.158,0,0,1,2.1,2.5,5.569,5.569,0,0,1,.949,2.395,7.309,7.309,0,0,0,.249,1.8,2.5,2.5,0,0,0,.4.9c.448.586.892.478,1.1.9.288.592-.424,1.139-.15,1.6.153.258.463.216,1.8.4a6.3,6.3,0,0,1,1.9.4c.64.352.67.706,1.2.8s.724-.222,1.3-.249c.306-.015.685.054,1.746.8,1.232.862,1.265,1.151,2.395,2s1.478.838,1.6,1.3c.057.213.078.577-1.049,2.5-.457.775-.859.949-.8,1.3.1.577,1.577.463,1.646.949.03.207-.213.282-.3.6-.129.472.24.958.6,1.4,1.088,1.325,1.631,1.986,2.145,2.2a3.642,3.642,0,0,0,3.3-.3A3.709,3.709,0,0,0,96.1,95.921a4.91,4.91,0,0,0-2.247-4.891c.084.433.165.865.249,1.3a1.645,1.645,0,0,1,.55,1.148c-.027.958-1.271,1.655-2.247,1.746a3.454,3.454,0,0,1-2.346-.847,5,5,0,0,1-1.3-1.4,1.787,1.787,0,0,0,.949-.2c1.136-.628,1.013-2.449,1-2.647a4.175,4.175,0,0,0-1.9-2.944c-.018-.315-.033-.631-.051-.949a2.451,2.451,0,0,1,.6,0,2.656,2.656,0,0,1,1.448.7,3.039,3.039,0,0,1,.949,2.746,2.815,2.815,0,0,1-.4,1l-.2.847a1.622,1.622,0,0,0,1.349-.15c.358-.279.406-.721.451-2a10.265,10.265,0,0,0-.1-3.245c-.072-.156-.769-1.652-1.848-1.746-.367-.033-.748.1-1-.15-.168-.171-.138-.379-.2-.7a4.11,4.11,0,0,0-.649-1.3c-.79-1.277-.982-1.247-1.049-1.6-.081-.445.111-1.139,1.448-2.2a9.314,9.314,0,0,0-.249,1,4.2,4.2,0,0,0-.15,1.547c.033.162.108.421,1.4,1.8a10.349,10.349,0,0,0,1.049,1.049c.94.706,1.325.457,1.746.949.481.565.108,1.043.4,2.647a3.994,3.994,0,0,0,.7,2.046,4.061,4.061,0,0,0,3,1.148c.544.015.961-.385,1.4-.15.291.156.367.424.5.649.541.907,2.07,1.13,2.944,1.049.649-.06.739-.267,3.3-2.046,1.746-1.214,2.091-1.388,2.346-2a11.346,11.346,0,0,0,.3-2.395c.114-1.415.081-1.779.4-2.046.541-.457,1.193.057,1.8-.4a2.068,2.068,0,0,0,.451-2.145ZM74.113,62.56c.294.084.589.2.715.246a2.68,2.68,0,0,1-1.649-.069,2.612,2.612,0,0,1-.628-.376A8.314,8.314,0,0,1,74.113,62.56ZM68.507,51.524a1.072,1.072,0,0,1,.337-.952,10.762,10.762,0,0,1,1.364-.4h0l.174-.042a1.536,1.536,0,0,1,.168-.009,1.006,1.006,0,0,1,.832.406,1.282,1.282,0,0,1,.2.406h-.069a1.074,1.074,0,0,0-.276.036.356.356,0,0,0-.243.186c-.057.183-.105.346-.15.493h0a2.441,2.441,0,0,1-.406.973c-.156.147-.379.171-.853.171-.529-.144-1.145-.781-1.079-1.262ZM71.926,56.6h-.12c-.093-.006-.18-.018-.249-.027v.018a1.4,1.4,0,0,1-.679-.243.491.491,0,0,1-.162-.138c-.036-.051-.069-.1-.1-.153h.024c.258-.246.075-.379.006-.634-.054-.2-.048-.18-.033-.291-.009-.048-.168-.216-.282-.177,0,0-.048-.018-.123.105l-.024.042c-.012-.048-.018-.1-.027-.147a.226.226,0,0,1,.069-.111.1.1,0,0,1,.069-.021.694.694,0,0,1,.3.129.837.837,0,0,1,.018-.174.34.34,0,0,1,.324-.279.57.57,0,0,1,.355.183.649.649,0,0,1,.048-.147.291.291,0,0,1,.174-.177.776.776,0,0,1,.12-.012.344.344,0,0,1,.364.264.742.742,0,0,1,.087-.141.352.352,0,0,1,.255-.141h.015a.311.311,0,0,1,.279.153c.018.03.036.06.051.09s.03.063.045.063h0a.333.333,0,0,0,.087-.042.579.579,0,0,1,.267-.1.132.132,0,0,1,.048.006.513.513,0,0,1,.246.46c0,.036,0,.057.012.057s.012-.006.024-.021a.275.275,0,0,1,.177-.111l-.018.09a.393.393,0,0,0-.177.162c.015.111.021.09-.033.291-.045.174-.141.291-.12.427-.072.123-.147.243-.231.361a.524.524,0,0,1-.162.138,1.4,1.4,0,0,1-.679.243v-.018a2.439,2.439,0,0,1-.249.027Zm-.808-9.551c.2-.072.228-.006.9.033.73.045.847-.027,1.166.1a1.8,1.8,0,0,1,.565.367,2.075,2.075,0,0,1,.6.931c.066.219.186.619.033.733-.2.144-.853-.177-1.133-.7-.144-.273-.105-.451-.267-.532-.231-.117-.415.207-.9.267-.544.066-.826-.279-1.064-.1-.2.15-.018.409-.234.631-.24.246-.565.03-1.133.3-.234.111-.294.2-.367.165-.186-.093-.15-.862.267-1.232.246-.216.388-.087.8-.333.445-.267.412-.5.766-.631Zm.865,4.84s.183.291.364.607a2.906,2.906,0,0,1,.364.808.787.787,0,0,1-.123.385c-.069.114-.147.192-.192.192a.027.027,0,0,1-.015,0,3.612,3.612,0,0,1-.379-.4,1.954,1.954,0,0,1-.147.2c-.078.093-.189.2-.282.2a.115.115,0,0,1-.09-.045,1.206,1.206,0,0,1-.192-.538,3.131,3.131,0,0,1,.379-.913c.159-.282.312-.5.312-.5Zm3.428-.12a4.014,4.014,0,0,1-.222.523,1.7,1.7,0,0,1-.757.5c-.475,0-.7-.024-.853-.171a2.443,2.443,0,0,1-.406-.97c-.042-.144-.093-.309-.15-.493a.363.363,0,0,0-.243-.186.958.958,0,0,0-.276-.036h-.066a1.194,1.194,0,0,1,.2-.406,1,1,0,0,1,.832-.406,1.578,1.578,0,0,1,.168.009l.177.042a10.763,10.763,0,0,1,1.364.406,1.064,1.064,0,0,1,.336.952.553.553,0,0,1-.024.24.676.676,0,0,1-.078,0Zm.514-.5A2.378,2.378,0,0,0,75.8,50.9a.836.836,0,0,0-.153-.252c-.189-.054-.168-.646-.126-.922.018-.126.039-.2.057-.2a.01.01,0,0,1,.009.009c.027.048.4,1.022.5,1.283a1.824,1.824,0,0,1-.138.532c-.006-.024-.009-.048-.015-.075ZM69.642,53.9a.565.565,0,0,1,.291.37.272.272,0,0,1-.021.2c-.12-.2-.237-.4-.352-.6C69.588,53.883,69.618,53.889,69.642,53.9Zm.424,4.5H71.2V57.1h1.328V58.4h1.133c.006.559.012,1.118.018,1.679l-1.034.018-.018,1.559c-.2-.009-.394-.015-.589-.024v-.012c-.057,0-.117,0-.174.006s-.117-.006-.174-.006v.012c-.2.009-.394.015-.589.024L71.081,60.1l-1.034-.018C70.054,59.525,70.06,58.967,70.066,58.4Zm2.776-16.894a.2.2,0,0,0-.171-.054.206.206,0,0,0-.177.111L72.478,42c0,.1-.024.27.186.285a.336.336,0,0,0,.141-.123,2.951,2.951,0,0,1-.2.337.284.284,0,0,1-.105.087.9.9,0,0,1-.433.156v-.012c-.042.006-.1.015-.159.018h-.078c-.06,0-.114-.012-.159-.018v.012a.873.873,0,0,1-.433-.156.31.31,0,0,1-.105-.087,2.426,2.426,0,0,1-.249-.448c.153.327.288.333.318.327.159-.153.048-.237.006-.4-.033-.126-.03-.114-.021-.183-.006-.03-.105-.135-.177-.111,0,0-.03-.012-.078.066a.382.382,0,0,0-.063.258,1.511,1.511,0,0,1-.063-.162l.045-.027.027-.015v-.018a.231.231,0,0,1,.06-.171.057.057,0,0,1,.045-.012.475.475,0,0,1,.189.081.442.442,0,0,1,.012-.108c.012-.051.036-.12.093-.141a.232.232,0,0,1,.108-.036.363.363,0,0,1,.222.114.482.482,0,0,1,.03-.093.188.188,0,0,1,.108-.111.586.586,0,0,1,.075-.006.233.233,0,0,1,.189.084.216.216,0,0,1,.039.084.425.425,0,0,1,.054-.087.229.229,0,0,1,.159-.09h.009a.2.2,0,0,1,.174.1.342.342,0,0,1,.03.057c.012.021.018.039.027.039h0a.182.182,0,0,0,.054-.027.357.357,0,0,1,.168-.063.1.1,0,0,1,.03,0,.321.321,0,0,1,.153.288c0,.021,0,.036.006.036s.009,0,.015-.012a.068.068,0,0,1,.027-.024c-.006.027-.009.054-.015.078a.077.077,0,0,0-.021.036.112.112,0,0,0,.006.036,1.713,1.713,0,0,1-.09.234,2,2,0,0,0,.048-.333c-.009-.15.009-.156-.045-.228Zm-2.977-1.962a.665.665,0,0,1,.21-.595,7.177,7.177,0,0,1,.853-.252h0c.033-.009.069-.015.111-.027s.069-.006.105-.006a.622.622,0,0,1,.52.255.781.781,0,0,1,.126.255h-.042a.549.549,0,0,0-.171.024.235.235,0,0,0-.153.117c-.036.114-.066.216-.093.306h0a1.522,1.522,0,0,1-.252.607c-.1.093-.237.108-.535.108-.33-.09-.715-.487-.673-.787Zm4.266.111a2.8,2.8,0,0,1-.159.379,1.284,1.284,0,0,1-.09.132.927.927,0,0,1-.312.165c-.3,0-.436-.015-.535-.108a1.522,1.522,0,0,1-.252-.607c-.027-.09-.057-.192-.093-.306a.227.227,0,0,0-.153-.117.673.673,0,0,0-.171-.024h-.042a.811.811,0,0,1,.126-.255.63.63,0,0,1,.52-.255.617.617,0,0,1,.105.006c.042.009.078.018.111.027a7.178,7.178,0,0,1,.853.252.671.671,0,0,1,.21.595c0,.03,0,.063,0,.1a.277.277,0,0,1-.111.015Zm-1.637,1a.5.5,0,0,1-.078.24c-.042.072-.093.12-.12.12h-.009a2.434,2.434,0,0,1-.237-.249.76.76,0,0,1-.093.126c-.048.057-.117.126-.177.126a.077.077,0,0,1-.057-.03.763.763,0,0,1-.12-.337,1.919,1.919,0,0,1,.237-.571c.1-.177.2-.312.2-.312s.114.183.228.379a1.775,1.775,0,0,1,.228.5Zm2-1.31a1.491,1.491,0,0,0-.066-.2.522.522,0,0,0-.1-.156c-.117-.033-.105-.4-.078-.577.012-.078.024-.126.036-.126s.006,0,.006.006c.015.027.186.475.273.706a1.262,1.262,0,0,1-.072.343Zm-1.349-2.289a1.312,1.312,0,0,1,.376.583c.042.135.117.388.021.457-.123.09-.535-.111-.706-.436-.09-.171-.066-.282-.165-.333-.144-.072-.261.129-.562.165-.34.042-.517-.174-.667-.063-.126.093-.012.255-.144.4-.15.153-.355.018-.706.186-.147.069-.183.126-.228.105-.117-.06-.093-.538.165-.769.153-.135.243-.054.5-.207.279-.168.255-.315.478-.4.123-.045.144,0,.562.021.457.027.529-.015.727.063a1.178,1.178,0,0,1,.355.228Zm-1.325-.739h.015v.012c.009,0,.021,0,.03-.006a.054.054,0,0,1,.03.006v-.012c.006,0,.009,0,.015,0a1.7,1.7,0,0,1,.246.048h-.027q-.095-.009-.189-.009a2.084,2.084,0,0,0-.742.138c-.075.027-.144.063-.216.1a1.921,1.921,0,0,1,.835-.273ZM69.333,39.54a1.062,1.062,0,0,1,.117-1.328,2.455,2.455,0,0,0-.1.33,2.62,2.62,0,0,0-.048.376,1.662,1.662,0,0,0,.009.346s.018.036.042.036.033-.018.045-.054a6.387,6.387,0,0,1,.409-.94h.006a.025.025,0,0,1,.018.012.832.832,0,0,1,.042.463.705.705,0,0,1-.117.234,1.4,1.4,0,0,0-.189.379.671.671,0,0,0-.015.267.26.26,0,0,1-.225-.114ZM70.39,41a.106.106,0,0,1,.006-.036.648.648,0,0,1,.183.072.357.357,0,0,1,.183.231.162.162,0,0,1-.054.177.518.518,0,0,0-.033.042s-.009-.006-.012-.012c-.093-.156-.186-.312-.273-.472Zm.976,3.993-.661-.012c0-.358.009-.715.012-1.073h.724v-.835H72.3v.835h.724c0,.358.009.715.012,1.073l-.661.012c0,.27-.006.538-.009.808-.123-.039-.243-.081-.379-.117a.448.448,0,0,1,.006-.063c-.042.009-.078.021-.117.033-.039-.009-.075-.024-.117-.033a.448.448,0,0,0,.006.063c-.132.036-.255.078-.379.117,0-.27-.006-.538-.009-.808Zm-3.458,6.586a1.619,1.619,0,0,1-.2-.46c.021-.009.039-.03.054-.075a9.647,9.647,0,0,1,.655-1.505h.012a.033.033,0,0,1,.03.018,1.311,1.311,0,0,1,.066.739,1.155,1.155,0,0,1-.186.373,2.2,2.2,0,0,0-.3.607,1.074,1.074,0,0,0-.03.415.44.44,0,0,1-.1-.108Zm1.436,2.265a.338.338,0,0,1,.009-.054.911.911,0,0,1,.126.048A.41.41,0,0,1,69.345,53.844Zm-.5,8.992h0a7.974,7.974,0,0,1,.778-.273,9.124,9.124,0,0,1,2.052-.213h.111a3.037,3.037,0,0,1-.934.64,4.07,4.07,0,0,1-2.262-.027c.072-.039.153-.081.249-.126Zm.823,9.488c-.424.153-1.1-.784-1.148-.847-.448-.628-.466-1.154-.6-1.148-.216.009.027,1.385-.6,2.746-.673,1.457-1.631,1.343-1.9,2.545-.189.85.255,1.067.3,2.746a6.583,6.583,0,0,1-.15,1.947,5.014,5.014,0,0,1-3.593,3.4c-.12.03-2.758.622-3.942-.847a4.016,4.016,0,0,1-.7-2.1,7.452,7.452,0,0,1,.1-1.448,4.379,4.379,0,0,0-1.448-3.4c-1.607-1.28-3.182.658-5.441-.6-1.289-.718-1.8-1.917-3.044-2.5a1.274,1.274,0,0,1-.7-.649,1.2,1.2,0,0,1,.1-.9c.138.081.349.2.6.349,3.122,1.845,3.536,2.5,5.041,3.044,1.385.5,3.028.682,3.194.3.1-.225-.33-.61-.55-.8-.61-.532-1.322-.267-2.2-.55A10.731,10.731,0,0,1,50.2,72.375c-.973-.637-1.676-1.1-1.947-2a3.1,3.1,0,0,1,.15-2c.309-.766.628-.7,1.2-1.646a3.487,3.487,0,0,0,.228-.436,5.181,5.181,0,0,0-.189,4.179,5.348,5.348,0,0,0,2.794,2.247c2.241,1.1,3.338.454,4.693,1.646a5.3,5.3,0,0,1,1.547,2.794c.442,2.013-.6,2.887.1,4.242a3.052,3.052,0,0,0,2.346,1.6c1.628.141,3.068-1.367,3.545-2.695a9.857,9.857,0,0,0,.2-3.644,4.574,4.574,0,0,1,.2-2.2,3.514,3.514,0,0,1,1.2-1.448c-.051-.282-.1-.565-.15-.847-.88.153-1.842.279-1.9.1-.039-.129.424-.3,1.049-.748a4.427,4.427,0,0,0,2.046-2.446c.147-.8-.279-1.13.051-1.746.3-.571.988-.886,1.148-.748.2.171-.631.91-.6,2.046.024.838.511,1.815,1.124,1.872a1.082,1.082,0,0,0,.832-.412.406.406,0,0,0-.048.087c-.078.225.1.364.18.772.108.535-.012,1.259-.33,1.376ZM88.1,75.918a4.379,4.379,0,0,0-1.448,3.4,7.451,7.451,0,0,1,.1,1.448,3.968,3.968,0,0,1-.7,2.1c-1.187,1.472-3.822.877-3.945.847a5.008,5.008,0,0,1-3.593-3.4,6.584,6.584,0,0,1-.15-1.947c.042-1.679.49-1.9.3-2.746-.267-1.2-1.226-1.088-1.9-2.545-.628-1.361-.382-2.734-.6-2.746-.132-.006-.15.52-.6,1.148-.045.063-.727,1-1.148.847-.318-.117-.439-.838-.33-1.376.081-.406.261-.547.183-.772-.123-.355-.7-.388-1-.5a1.263,1.263,0,0,1-.658-.712,23.231,23.231,0,0,0-.469-2.6c-.012-.243-.018-.5-.021-.778-.03.12-.057.231-.084.349-.03-.117-.054-.228-.084-.349,0,.279-.009.535-.021.778a23.227,23.227,0,0,0-.469,2.6,1.263,1.263,0,0,1-.658.712,2.791,2.791,0,0,0-.874.327,1.62,1.62,0,0,0,.165-.228c.82-1.343-.511-3.206.27-3.87.252-.216.511-.147.778-.472s.18-.67.2-1.1a4.076,4.076,0,0,1,.724-1.986h.027a3.692,3.692,0,0,1,.577,1.737c.018.427-.057.787.2,1.1s.526.258.778.472c.781.664-.55,2.527.27,3.87A1.322,1.322,0,0,0,75,70.248c.613-.06,1.1-1.034,1.124-1.872.03-1.136-.8-1.878-.6-2.046.159-.138.844.177,1.148.748.327.616-.1.949.051,1.746a4.427,4.427,0,0,0,2.046,2.446c.625.445,1.088.619,1.049.748-.054.18-1.016.051-1.9-.1-.051.282-.1.565-.15.847a3.537,3.537,0,0,1,1.2,1.448,4.574,4.574,0,0,1,.2,2.2,9.991,9.991,0,0,0,.2,3.644c.478,1.328,1.917,2.836,3.545,2.695a3.052,3.052,0,0,0,2.346-1.6c.7-1.355-.343-2.229.1-4.242a5.29,5.29,0,0,1,1.547-2.794c1.355-1.193,2.449-.553,4.693-1.646A5.308,5.308,0,0,0,94.4,70.221a4.932,4.932,0,0,0,.03-3.617c.021.039.045.078.072.123.571.949.889.88,1.2,1.646a3.1,3.1,0,0,1,.15,2c-.27.9-.973,1.358-1.947,2a10.674,10.674,0,0,1-2.794,1.247c-.874.282-1.586.018-2.2.55-.216.189-.646.574-.55.8.165.385,1.809.2,3.194-.3,1.508-.55,1.92-1.2,5.041-3.044.252-.147.46-.27.6-.349a1.2,1.2,0,0,1,.1.9,1.256,1.256,0,0,1-.7.649c-1.244.58-1.758,1.779-3.044,2.5-2.259,1.256-3.834-.682-5.441.6Z" fill="#50c774"/>
    <path id="Path_4114" data-name="Path 4114" d="M87.02,109.906a7.153,7.153,0,0,0,.312-.676A5.506,5.506,0,0,0,87.02,109.906Z" transform="translate(-37.787 -51.438)" fill="#50c774"/>
    <path id="Path_4115" data-name="Path 4115" d="M132.539,136.99a2.847,2.847,0,0,0-1.55.619,2.542,2.542,0,0,0-.838,2.92,1.343,1.343,0,0,0,.763.6,1.551,1.551,0,0,0,1.622-.8,1.728,1.728,0,0,0,.126-1.322c-.433.865-1.007,1.316-1.373,1.2a.662.662,0,0,1-.349-.4c-.18-.472.12-.976.424-1.472a5.413,5.413,0,0,1,1.178-1.343Z" transform="translate(-67.818 -70.858)" fill="#50c774"/>
    <path id="Path_4116" data-name="Path 4116" d="M187.3,138.868c-.367.117-.94-.333-1.373-1.2a1.714,1.714,0,0,0,.126,1.322,1.551,1.551,0,0,0,1.622.8,1.331,1.331,0,0,0,.763-.6,2.544,2.544,0,0,0-.838-2.92,2.824,2.824,0,0,0-1.55-.619,5.478,5.478,0,0,1,1.178,1.343c.306.5.607,1,.424,1.472a.662.662,0,0,1-.349.4Z" transform="translate(-106.924 -69.92)" fill="#50c774"/>
  </g>
</svg>
