<svg xmlns="http://www.w3.org/2000/svg" width="64.681" height="59.346" viewBox="0 0 64.681 59.346">
  <path id="Exclusion_9" data-name="Exclusion 9" d="M-13038.41-2615.943h0a16.943,16.943,0,0,1-6.9-1.469l.007-.013a16.683,16.683,0,0,1-8.834-9.281,16.658,16.658,0,0,1-.875-8.875,16.814,16.814,0,0,1,3.653-7.858,3.465,3.465,0,0,1-.243-.506,2.955,2.955,0,0,1,.061-2.281,2.975,2.975,0,0,1,1.67-1.584l9.836-3.757a2.994,2.994,0,0,1,1.068-.2,3.035,3.035,0,0,1,2.82,1.921,3.222,3.222,0,0,1,.158.539,16.94,16.94,0,0,1,4.4,1.258l0-.01a16.69,16.69,0,0,1,8.96,9.426,16.573,16.573,0,0,1-.384,12.762,16.706,16.706,0,0,1-9.314,8.792l-.03.01-.067.025-.034.012-.033.012A16.764,16.764,0,0,1-13038.41-2615.943Zm-47.629-10.968a.182.182,0,0,1-.09-.026.168.168,0,0,1-.078-.1.148.148,0,0,1,0-.092l6.824-23.324a.175.175,0,0,1,.053-.082l10.582-9.032,5.583-9.242a4.248,4.248,0,0,1,0-4.4,4.328,4.328,0,0,1,3.687-2.072,4.3,4.3,0,0,1,2.206.61,4.24,4.24,0,0,1,1.955,2.632,4.224,4.224,0,0,1-.487,3.227,4.263,4.263,0,0,1-3.681,2.069c-.079,0-.156,0-.23-.006l-1.9,3.146-.814,1.347-1.244,2.063-.824,1.36-.8,1.327-3.058,13.531a.158.158,0,0,1-.046.085l-8.539,8.26-5.81,5.623-1.911,1.846-.828.8-.4.388-.03.026a.143.143,0,0,1-.075.04A.15.15,0,0,1-13086.039-2626.91Zm26.556-46.146a2.062,2.062,0,0,0-.5.063,2.027,2.027,0,0,0-1.258.926,2.009,2.009,0,0,0-.233,1.54,2.022,2.022,0,0,0,.933,1.255,2.063,2.063,0,0,0,1.057.292,2.039,2.039,0,0,0,1.758-.989,2.015,2.015,0,0,0,.231-1.543,2.02,2.02,0,0,0-.934-1.252A2.045,2.045,0,0,0-13059.483-2673.056Zm4.151,29.635a.269.269,0,0,1-.108-.022c-.2-.088-.368-.345-.286-.532l1.09-3.862a.528.528,0,0,1,.425-.306.265.265,0,0,1,.111.023.569.569,0,0,1,.282.3.308.308,0,0,1,0,.236l-1.087,3.859a.575.575,0,0,1-.3.282A.38.38,0,0,1-13055.332-2643.42Zm-4.725-3.745a.381.381,0,0,1-.373-.224.421.421,0,0,1,.19-.552l3.509-1.98a.359.359,0,0,1,.229-.084.314.314,0,0,1,.3.2.421.421,0,0,1-.187.555l-3.481,2.049A.54.54,0,0,1-13060.057-2647.166Zm6.479-2.524a1.941,1.941,0,0,1-.793-.173l.013-.03a1.864,1.864,0,0,1-.991-1.038,1.873,1.873,0,0,1,.171-1.675,4.781,4.781,0,0,1,.128-3.62,4.625,4.625,0,0,1,2.574-2.295,4.964,4.964,0,0,1,1.775-.334,4.466,4.466,0,0,1,4.229,2.932l2.023,5.241-.072.026-2.108.8-1.994-5.169a2.277,2.277,0,0,0-2.153-1.5,2.422,2.422,0,0,0-.861.16,2.3,2.3,0,0,0-1.337,2.985,1.886,1.886,0,0,1,1.14,1.1,1.87,1.87,0,0,1-.315,1.875A1.789,1.789,0,0,1-13053.577-2649.69Zm-3.432-2.476a.5.5,0,0,1-.11-.013l-3.859-1.011a.45.45,0,0,1-.282-.532.358.358,0,0,1,.381-.3.727.727,0,0,1,.154.018l3.883,1.084a.329.329,0,0,1,.229.174.313.313,0,0,1,.029.286.484.484,0,0,1-.27.269A.426.426,0,0,1-13057.009-2652.166Z" transform="translate(13086.215 2675.289)" fill="#50c774"/>
</svg>
