<?xml version="1.0" encoding="UTF-8" standalone="no"?>
<!DOCTYPE svg PUBLIC "-//W3C//DTD SVG 1.1//EN" "http://www.w3.org/Graphics/SVG/1.1/DTD/svg11.dtd">
<svg xmlns="http://www.w3.org/2000/svg" version="1.1" viewBox="0.00 0.00 87.00 87.00">
<path fill="#000000" d="
  M 87.00 43.26
  Q 87.00 43.41 87.00 43.56
  L 80.21 47.36
  A 3.22 2.70 5.0 0 0 79.68 47.73
  Q 76.41 50.55 74.82 55.20
  Q 70.62 67.50 58.59 73.59
  C 55.34 75.24 50.25 75.67 47.46 80.03
  Q 44.89 84.06 43.89 86.36
  A 0.46 0.46 0.0 0 1 43.15 86.51
  Q 43.12 86.48 40.42 81.55
  Q 39.06 79.06 36.65 77.04
  A 2.72 2.57 -13.8 0 0 35.84 76.58
  Q 31.86 75.14 29.00 73.74
  Q 16.58 67.63 12.21 55.43
  Q 10.36 50.26 9.51 49.33
  A 3.55 3.54 85.4 0 0 8.68 48.62
  L 0.47 43.53
  A 0.21 0.21 0.0 0 1 0.49 43.16
  C 4.62 41.24 7.92 39.68 10.36 35.86
  C 11.91 33.42 13.01 29.39 14.46 26.81
  Q 20.53 16.00 32.31 12.11
  Q 35.93 10.91 36.76 10.29
  C 39.84 8.01 41.88 4.01 43.25 0.77
  A 0.56 0.56 0.0 0 1 44.29 0.79
  C 46.43 6.72 49.17 9.63 55.10 12.23
  Q 59.15 14.00 62.17 15.63
  A 3.04 3.00 -9.8 0 1 62.76 16.04
  L 68.27 20.70
  A 1.07 0.80 10.2 0 1 68.41 20.85
  L 72.81 27.05
  A 1.25 1.11 -75.1 0 1 72.94 27.31
  L 76.37 36.08
  A 2.34 2.28 15.1 0 0 76.72 36.67
  Q 80.79 41.34 87.00 43.26
  Z
  M 22.54 64.48
  Q 27.41 69.37 35.50 72.11
  A 2.45 2.44 24.3 0 0 38.40 71.02
  L 43.38 62.40
  A 0.23 0.22 44.6 0 1 43.77 62.40
  L 48.76 71.05
  A 2.41 2.41 0.0 0 0 51.59 72.13
  Q 67.22 67.00 72.05 51.75
  A 2.83 2.83 0.0 0 0 70.76 48.45
  L 62.57 43.72
  A 0.23 0.22 45.4 0 1 62.57 43.33
  L 71.16 38.37
  A 2.18 2.18 0.0 0 0 72.24 36.28
  Q 72.06 34.41 70.89 31.93
  Q 68.08 26.01 64.62 22.54
  Q 61.16 19.07 55.25 16.24
  Q 52.78 15.06 50.91 14.88
  A 2.18 2.18 0.0 0 0 48.82 15.95
  L 43.83 24.52
  A 0.23 0.22 44.8 0 1 43.44 24.52
  L 38.73 16.31
  A 2.83 2.83 0.0 0 0 35.44 15.01
  Q 20.17 19.79 14.99 35.40
  A 2.41 2.41 0.0 0 0 16.06 38.24
  L 24.69 43.26
  A 0.23 0.22 45.6 0 1 24.69 43.65
  L 16.05 48.60
  A 2.45 2.44 65.9 0 0 14.95 51.50
  Q 17.67 59.59 22.54 64.48
  Z"
/>
<path fill="#000000" d="
  M 32.78 38.67
  L 31.35 41.14
  A 0.39 0.39 0.0 0 1 30.64 40.86
  C 31.50 37.01 32.66 34.23 35.92 31.86
  Q 44.60 25.54 52.72 33.08
  C 55.10 35.28 56.36 38.02 56.35 41.06
  A 0.34 0.34 0.0 0 1 55.68 41.17
  Q 55.23 39.89 54.53 39.11
  A 0.38 0.38 0.0 0 0 53.87 39.36
  L 53.87 40.30
  A 1.73 1.71 28.1 0 0 54.17 41.27
  Q 55.18 42.80 55.42 44.46
  A 2.24 2.24 0.0 0 1 55.33 45.46
  C 54.44 48.27 55.15 51.13 55.54 52.84
  A 0.94 0.93 -28.4 0 1 55.27 53.73
  Q 54.23 54.73 52.76 54.37
  A 1.01 1.00 86.1 0 1 52.04 53.74
  L 51.34 51.96
  A 0.73 0.72 44.1 0 0 49.98 51.98
  Q 49.56 53.17 50.23 54.72
  A 0.79 0.78 -29.4 0 1 49.96 55.67
  L 48.11 56.99
  A 0.97 0.97 0.0 0 1 47.08 57.04
  Q 44.03 55.31 40.54 56.85
  A 2.14 2.10 37.3 0 1 39.35 57.00
  Q 38.39 56.85 36.59 55.41
  A 0.56 0.56 0.0 0 1 36.50 54.62
  Q 37.61 53.24 37.03 51.82
  A 0.60 0.60 0.0 0 0 35.96 51.75
  L 34.78 53.79
  A 1.57 1.56 -30.2 0 1 31.86 53.02
  Q 31.85 50.03 32.53 48.58
  A 1.86 1.85 -46.2 0 0 32.50 46.92
  Q 31.08 44.15 33.20 40.50
  Q 33.52 39.93 33.22 38.73
  A 0.24 0.24 0.0 0 0 32.78 38.67
  Z
  M 42.51 39.12
  Q 42.14 39.23 36.65 40.51
  C 31.96 41.61 32.65 46.52 36.41 47.84
  A 2.05 2.03 36.7 0 0 38.25 47.58
  L 38.50 47.40
  A 0.58 0.57 37.3 0 0 38.36 46.39
  Q 36.55 45.71 35.11 44.15
  A 1.19 1.19 0.0 0 1 35.46 42.28
  Q 38.33 40.89 40.21 43.18
  A 1.04 1.04 0.0 0 0 42.02 42.78
  L 42.91 39.51
  A 0.32 0.32 0.0 0 0 42.51 39.12
  Z
  M 48.30 47.55
  Q 51.92 48.57 53.44 44.69
  A 2.76 2.68 22.4 0 0 51.94 41.23
  Q 49.68 40.25 44.94 39.20
  A 0.54 0.53 5.6 0 0 44.29 39.73
  Q 44.33 41.52 45.09 42.98
  A 0.87 0.87 0.0 0 0 46.49 43.18
  Q 48.59 41.00 51.24 42.26
  A 0.86 0.86 0.0 0 1 51.73 42.93
  Q 52.00 45.04 48.24 46.62
  A 0.49 0.49 0.0 0 0 48.30 47.55
  Z
  M 39.0040 43.5856
  A 1.19 0.93 -9.4 0 0 37.6781 42.8625
  A 1.19 0.93 -9.4 0 0 36.6560 43.9744
  A 1.19 0.93 -9.4 0 0 37.9819 44.6975
  A 1.19 0.93 -9.4 0 0 39.0040 43.5856
  Z
  M 50.1211 43.2559
  A 1.11 0.85 -52.8 0 0 48.7729 43.6261
  A 1.11 0.85 -52.8 0 0 48.7789 45.0241
  A 1.11 0.85 -52.8 0 0 50.1271 44.6539
  A 1.11 0.85 -52.8 0 0 50.1211 43.2559
  Z
  M 43.52 45.80
  L 41.46 49.36
  A 0.93 0.93 0.0 0 0 42.23 50.75
  Q 45.91 50.87 45.41 48.87
  A 1.19 1.08 -68.7 0 0 45.33 48.66
  L 43.90 45.81
  A 0.22 0.22 0.0 0 0 43.52 45.80
  Z"
/>
</svg>
