<svg xmlns="http://www.w3.org/2000/svg" width="87.159" height="86.958" viewBox="0 0 87.159 86.958">
  <g id="Group_215" data-name="Group 215" transform="translate(-46.48 -49.4)">
    <path id="Path_3149" data-name="Path 3149" d="M133.639,93.028c-2.009,1.036-3.614,1.817-5.172,2.678a13.787,13.787,0,0,0-6.922,8.314c-3.572,10.933-11.38,17.893-22.326,21.218a8.458,8.458,0,0,0-5.068,3.676c-1.437,2.327-2.715,4.754-4.232,7.445-.38-.677-.656-1.174-.94-1.671-1.136-1.984-2.193-4.023-3.43-5.941a8.931,8.931,0,0,0-5.118-3.584c-11.781-3.885-19.6-11.718-22.969-23.83A6.052,6.052,0,0,0,55.5,98.262c-2.089-1.567-4.412-2.828-6.655-4.19-.614-.372-1.291-.652-2.365-1.186,1.521-.8,2.582-1.408,3.685-1.926a14.93,14.93,0,0,0,8.443-9.32c3.664-11.008,11.6-17.893,22.685-21.022,2.916-.823,4.27-2.975,5.673-5.168,1.145-1.788,1.989-3.772,3.163-6.049.748,1.475,1.4,2.7,2,3.944a14.953,14.953,0,0,0,9.132,8.071c10.687,3.752,17.814,11.33,20.955,22.338.823,2.887,2.761,4.591,5.126,5.982,1.892,1.115,3.894,2.043,6.3,3.284Zm-25.267-.046c1.061-.51,1.688-.752,2.252-1.09,2.49-1.5,5.009-2.962,7.407-4.6a2.363,2.363,0,0,0,.794-2.043c-3.259-10.277-9.805-17.4-20.2-20.78a2.492,2.492,0,0,0-3.254.994c-1.3,2.047-2.557,4.119-3.81,6.2-.472.781-.894,1.6-1.575,2.816-.5-1.115-.727-1.75-1.053-2.335-1.141-2.051-2.285-4.1-3.476-6.116-1.166-1.968-2.774-2.1-4.825-1.337C70.915,68.279,64.448,74.938,61.4,84.844a2.428,2.428,0,0,0,.572,2.118,56.015,56.015,0,0,0,5.473,3.772c1.2.744,2.515,1.3,4.169,2.131-.936.476-1.471.735-1.989,1.019-2,1.107-4.077,2.11-5.978,3.367-2.812,1.863-2.87,1.98-1.784,5.2,3.292,9.726,10.152,15.863,19.727,19.088a2.984,2.984,0,0,0,2.64-.735,58.4,58.4,0,0,0,4.023-6.028c.622-1.011,1.078-2.126,1.776-3.534.38.773.531,1.132.727,1.466,1.6,2.741,3.142,5.523,4.892,8.167a2.586,2.586,0,0,0,2.277.739,29.325,29.325,0,0,0,18.967-16.038c2.812-5.891,2.486-6.889-3.25-9.926-1.608-.852-3.246-1.646-5.272-2.665Z" transform="translate(0)" fill="#50c774"/>
    <path id="Path_3150" data-name="Path 3150" d="M145.013,131.083c-.5-.873-.99-1.75-1.487-2.624l-.6.088c.079.765-.1,1.721.288,2.26,1.5,2.064,1.767,4.04.572,6.108.113.869.2,1.738.347,2.6a19.867,19.867,0,0,0,.422,1.968c.334,1.237.209,2.268-1.237,2.594-1.333.3-2.348.05-2.448-1.646a1.977,1.977,0,0,0-.706-1.333c-.188-.138-1.028.209-1.174.522-.184.393.033.978.092,1.479.075.677.163,1.349.246,2.026-1.291.1-1.4,2.665-3.351,1.5a5.976,5.976,0,0,0-6.028-.1c-2.235,1.191-2.853-1.149-4.554-1.516a8.924,8.924,0,0,0,1.057-2.369c.063-.505-.51-1.09-.8-1.638a10.882,10.882,0,0,0-1.044,1.157c-.418.627-.622,1.675-1.157,1.867a2.447,2.447,0,0,1-2.227-.505c-.414-.514-.209-1.562-.2-2.377a10.512,10.512,0,0,1,.2-1.608,7.517,7.517,0,0,1,.714-2.473c-1.466-2.168-1.191-4.245.238-6.392a6.213,6.213,0,0,0,.43-2.281c-.255-.063-.51-.13-.76-.192-.514,1.049-1.024,2.093-1.537,3.142-.2-.1-.405-.209-.61-.309.568-3.91,1.968-7.445,5.5-9.738,6.179-4.015,9.542-3.213,14.568-.251a11.814,11.814,0,0,1,5.84,9.759l-.593.28Zm-11.681-2.294a11.645,11.645,0,0,0,.318,2.657c.727,2.177,1.107,2.218,2.849.706.414-.359.978-.886,1.4-.819a22.451,22.451,0,0,1,3.217.952c-.376.94-.531,2.106-1.191,2.766a9.175,9.175,0,0,1-2.837,1.337c-.046.192-.092.38-.138.572.957.2,2.189.882,2.812.518a7.116,7.116,0,0,0,2.983-3.112,3.512,3.512,0,0,0-1.011-3.192c-1.145-.852-2.8-1.04-4.257-1.441-1.216-.334-2.465-.568-4.14-.944Zm-1.22.013c-2.181.451-3.94.773-5.677,1.186a10.485,10.485,0,0,0-2.523.894c-1.546.827-1.909,2.461-1.078,4.316.756,1.688,2.77,2.891,4.157,2.36a3.845,3.845,0,0,0,1.132-.944,20.559,20.559,0,0,1-3.7-2.373c-1.186-1.2-.752-2.231.894-2.741a3.235,3.235,0,0,1,3.589.927c.622.66,1.567,1.42,2.164.159a20.2,20.2,0,0,0,1.04-3.785Zm.468,6a47.583,47.583,0,0,0-1.855,4.466c-.263.873.142,1.4,1.274,1.22,3.3-.535,3.342-.572,1.659-3.793-.217-.418-.464-.819-1.074-1.893Zm-3.889-1.27c-.978-.489-1.491-.965-1.938-.907s-.819.652-1.228,1.011c.447.343.869.915,1.345.965.418.042.9-.5,1.817-1.069Zm9.767,1.6c.526-.652,1.061-1.053,1.161-1.546.058-.276-.765-1.061-.915-.994a3.329,3.329,0,0,0-1.37,1.186c-.079.121.593.727,1.124,1.349Z" transform="translate(-42.631 -40.266)" fill="#50c774"/>
  </g>
</svg>
