<svg id="expad-arrows-svgrepo-com" xmlns="http://www.w3.org/2000/svg" width="53.719" height="56.921" viewBox="0 0 53.719 56.921">
  <path id="Path_465" data-name="Path 465" d="M199.565,23.738H213.1a1.425,1.425,0,0,0,1.426-1.425v-3.8a1.425,1.425,0,0,0-1.426-1.425h-3.606L220.352,6.228a1.425,1.425,0,0,0,0-2.016l-2.688-2.688a1.426,1.426,0,0,0-2.016,0L204.791,12.382V8.776a1.425,1.425,0,0,0-1.425-1.425h-3.8a1.425,1.425,0,0,0-1.425,1.425V22.312A1.426,1.426,0,0,0,199.565,23.738Z" transform="translate(-167.051 -1.107)" fill="#50c774"/>
  <path id="Path_466" data-name="Path 466" d="M11.274,17.086H7.669a1.425,1.425,0,0,0-1.425,1.425v3.8a1.425,1.425,0,0,0,1.425,1.425H21.2a1.425,1.425,0,0,0,1.425-1.425V8.776A1.425,1.425,0,0,0,21.2,7.35H17.4a1.425,1.425,0,0,0-1.425,1.425v3.606L5.121,1.525a1.426,1.426,0,0,0-2.016,0L.417,4.213a1.426,1.426,0,0,0,0,2.016Z" transform="translate(0 -1.107)" fill="#50c774"/>
  <path id="Path_467" data-name="Path 467" d="M3.105,219.249a1.426,1.426,0,0,0,2.016,0l10.857-10.857V212a1.425,1.425,0,0,0,1.425,1.426h3.8A1.425,1.425,0,0,0,22.63,212V198.462a1.425,1.425,0,0,0-1.425-1.425H7.668a1.425,1.425,0,0,0-1.425,1.425v3.8a1.425,1.425,0,0,0,1.425,1.426h3.606L.417,214.545a1.426,1.426,0,0,0,0,2.016Z" transform="translate(0 -162.745)" fill="#50c774"/>
  <path id="Path_468" data-name="Path 468" d="M199.564,213.425h3.8A1.425,1.425,0,0,0,204.791,212v-3.607l10.858,10.857a1.425,1.425,0,0,0,2.016,0l2.688-2.688a1.425,1.425,0,0,0,0-2.016l-10.857-10.857H213.1a1.425,1.425,0,0,0,1.425-1.425v-3.8a1.425,1.425,0,0,0-1.425-1.425H199.564a1.425,1.425,0,0,0-1.425,1.425V212A1.426,1.426,0,0,0,199.564,213.425Z" transform="translate(-167.051 -162.746)" fill="#50c774"/>
</svg>
