<?xml version="1.0" encoding="UTF-8" standalone="no"?>
<!DOCTYPE svg PUBLIC "-//W3C//DTD SVG 1.1//EN" "http://www.w3.org/Graphics/SVG/1.1/DTD/svg11.dtd">
<svg xmlns="http://www.w3.org/2000/svg" version="1.1" viewBox="0.00 0.00 54.00 57.00">
<path fill="#000000" d="
  M 4.58 0.00
  L 15.36 10.77
  A 0.38 0.38 0.0 0 0 16.01 10.50
  L 16.01 7.91
  A 1.65 1.65 0.0 0 1 17.66 6.26
  L 20.90 6.26
  A 1.73 1.73 0.0 0 1 22.63 7.99
  L 22.63 20.90
  A 1.72 1.71 0.0 0 1 20.91 22.61
  L 7.94 22.61
  A 1.68 1.67 -0.0 0 1 6.26 20.94
  L 6.26 17.59
  A 1.62 1.62 0.0 0 1 8.04 15.98
  Q 9.68 16.14 10.62 15.89
  A 0.35 0.34 -30.0 0 0 10.78 15.32
  L 0.00 4.45
  L 0.00 3.85
  L 3.89 0.00
  L 4.58 0.00
  Z"
/>
<path fill="#000000" d="
  M 49.84 0.00
  Q 52.15 1.64 53.42 3.52
  A 1.23 1.23 0.0 0 1 53.27 5.08
  L 42.86 15.50
  A 0.30 0.30 0.0 0 0 43.07 16.01
  L 45.83 16.01
  A 1.69 1.68 0.0 0 1 47.52 17.69
  L 47.52 20.81
  A 1.83 1.82 -0.0 0 1 45.69 22.63
  L 32.74 22.63
  A 1.61 1.61 0.0 0 1 31.13 21.02
  L 31.13 7.79
  A 1.51 1.51 0.0 0 1 32.64 6.28
  L 36.31 6.28
  A 1.43 1.42 -0.0 0 1 37.74 7.70
  L 37.74 10.83
  A 0.24 0.24 0.0 0 0 38.16 11.00
  L 49.22 0.00
  L 49.84 0.00
  Z"
/>
<path fill="#000000" d="
  M 0.00 53.24
  L 0.00 52.43
  L 10.59 41.63
  A 0.38 0.37 -67.6 0 0 10.33 40.99
  L 8.19 40.99
  A 2.00 1.99 0.0 0 1 6.19 39.00
  L 6.19 36.34
  A 2.06 2.06 0.0 0 1 8.25 34.28
  L 21.15 34.28
  A 1.49 1.49 0.0 0 1 22.64 35.77
  L 22.64 48.99
  A 1.64 1.64 0.0 0 1 21.00 50.63
  L 17.65 50.63
  A 1.65 1.65 0.0 0 1 16.00 48.98
  L 16.00 46.40
  A 0.28 0.28 0.0 0 0 15.52 46.20
  L 5.20 56.52
  A 1.41 1.41 0.0 0 1 3.40 56.68
  Q 1.53 55.37 0.00 53.24
  Z"
/>
<path fill="#000000" d="
  M 51.94 55.24
  C 50.74 56.42 49.55 57.45 48.04 56.00
  Q 47.46 55.46 38.36 46.36
  A 0.38 0.37 -67.7 0 0 37.72 46.63
  L 37.72 49.30
  A 1.30 1.30 0.0 0 1 36.42 50.60
  L 32.70 50.60
  A 1.54 1.54 0.0 0 1 31.16 49.17
  Q 30.98 46.69 31.14 35.99
  Q 31.15 35.32 31.68 34.79
  Q 32.21 34.27 32.88 34.26
  Q 43.58 34.20 46.06 34.41
  A 1.54 1.54 0.0 0 1 47.48 35.96
  L 47.44 39.68
  A 1.30 1.30 0.0 0 1 46.13 40.97
  L 43.46 40.94
  A 0.38 0.37 -21.8 0 0 43.18 41.58
  Q 52.20 50.77 52.74 51.35
  C 54.17 52.87 53.13 54.06 51.94 55.24
  Z"
/>
</svg>
