<?xml version="1.0" encoding="UTF-8" standalone="no"?>
<!DOCTYPE svg PUBLIC "-//W3C//DTD SVG 1.1//EN" "http://www.w3.org/Graphics/SVG/1.1/DTD/svg11.dtd">
<svg xmlns="http://www.w3.org/2000/svg" version="1.1" viewBox="0.00 0.00 54.00 57.00">
<path fill="#000000" d="
  M 15.68 0.00
  Q 16.97 2.71 16.05 5.89
  A 0.98 0.97 7.8 0 1 15.11 6.60
  L 11.77 6.60
  A 0.21 0.21 0.0 0 0 11.62 6.96
  L 21.99 17.33
  A 1.74 1.74 0.0 0 1 21.99 19.79
  L 19.90 21.88
  A 1.85 1.85 0.0 0 1 17.28 21.88
  L 7.02 11.62
  A 0.23 0.23 0.0 0 0 6.62 11.78
  L 6.62 15.13
  A 1.15 1.14 85.3 0 1 5.67 16.26
  Q 1.73 16.95 0.00 15.48
  L 0.00 1.10
  L 1.03 0.00
  L 15.68 0.00
  Z"
/>
<path fill="#000000" d="
  M 52.47 0.00
  Q 52.94 0.23 53.28 0.61
  A 1.42 1.41 24.5 0 1 53.63 1.54
  L 53.63 14.58
  A 1.80 1.80 0.0 0 1 51.83 16.38
  L 48.89 16.38
  A 1.88 1.88 0.0 0 1 47.01 14.50
  L 47.01 12.05
  A 0.31 0.30 -22.7 0 0 46.49 11.84
  L 36.33 22.00
  A 1.64 1.64 0.0 0 1 34.01 22.00
  L 31.72 19.72
  A 1.65 1.65 0.0 0 1 31.72 17.38
  L 41.96 7.14
  A 0.29 0.29 0.0 0 0 41.76 6.65
  L 38.47 6.65
  A 0.91 0.89 82.3 0 1 37.61 5.98
  Q 36.78 2.81 37.91 0.00
  L 52.47 0.00
  Z"
/>
<path fill="#000000" d="
  M 15.56 57.00
  Q 15.37 57.00 15.17 57.00
  Q 8.46 56.79 1.75 56.89
  Q 0.65 56.91 0.00 56.24
  L 0.00 41.86
  C 0.53 39.82 3.90 40.44 5.35 40.60
  A 1.46 1.46 0.0 0 1 6.65 42.05
  L 6.65 44.95
  A 0.27 0.26 -23.0 0 0 7.11 45.13
  L 17.33 34.91
  A 1.78 1.78 0.0 0 1 19.85 34.91
  L 22.07 37.13
  A 1.73 1.72 45.1 0 1 22.07 39.56
  L 11.80 49.83
  A 0.16 0.16 0.0 0 0 11.91 50.10
  Q 15.63 50.21 15.93 51.18
  Q 16.97 54.59 15.56 57.00
  Z"
/>
<path fill="#000000" d="
  M 53.23 56.47
  Q 52.95 56.75 52.49 56.76
  Q 46.65 56.86 38.55 56.77
  A 1.24 1.23 -89.5 0 1 37.34 55.53
  L 37.34 51.57
  A 0.99 0.99 0.0 0 1 37.90 50.68
  Q 39.14 50.08 41.64 50.24
  A 0.25 0.25 0.0 0 0 41.83 49.82
  L 31.59 39.57
  A 1.56 1.56 0.0 0 1 31.41 37.57
  Q 31.71 37.14 32.80 36.05
  Q 33.89 34.95 34.33 34.65
  A 1.56 1.56 0.0 0 1 36.32 34.83
  L 46.58 45.07
  A 0.25 0.25 0.0 0 0 47.00 44.88
  Q 46.84 42.38 47.44 41.14
  A 0.99 0.99 0.0 0 1 48.33 40.57
  L 52.29 40.57
  A 1.24 1.23 -0.5 0 1 53.53 41.78
  Q 53.62 49.88 53.53 55.72
  Q 53.52 56.18 53.23 56.47
  Z"
/>
</svg>
