<svg id="expad-arrows-svgrepo-com" xmlns="http://www.w3.org/2000/svg" width="53.719" height="56.921" viewBox="0 0 53.719 56.921">
  <path id="Path_465" data-name="Path 465" d="M219.344,1.107H205.808a1.425,1.425,0,0,0-1.426,1.425v3.8a1.425,1.425,0,0,0,1.426,1.425h3.606L198.557,18.616a1.425,1.425,0,0,0,0,2.016l2.688,2.688a1.426,1.426,0,0,0,2.016,0l10.857-10.857v3.606a1.425,1.425,0,0,0,1.425,1.425h3.8a1.425,1.425,0,0,0,1.425-1.425V2.532A1.426,1.426,0,0,0,219.344,1.107Z" transform="translate(-167.051 -1.107)" fill="#50c774"/>
  <path id="Path_466" data-name="Path 466" d="M11.355,7.759h3.606a1.425,1.425,0,0,0,1.425-1.425v-3.8a1.425,1.425,0,0,0-1.425-1.425H1.425A1.425,1.425,0,0,0,0,2.532V16.069a1.425,1.425,0,0,0,1.425,1.425h3.8a1.425,1.425,0,0,0,1.425-1.425V12.463L17.508,23.32a1.426,1.426,0,0,0,2.016,0l2.688-2.688a1.426,1.426,0,0,0,0-2.016Z" transform="translate(0 -1.107)" fill="#50c774"/>
  <path id="Path_467" data-name="Path 467" d="M19.525,197.454a1.426,1.426,0,0,0-2.016,0L6.652,208.311V204.7a1.425,1.425,0,0,0-1.425-1.426h-3.8A1.425,1.425,0,0,0,0,204.7v13.536a1.425,1.425,0,0,0,1.425,1.425H14.961a1.425,1.425,0,0,0,1.425-1.425v-3.8a1.425,1.425,0,0,0-1.425-1.426H11.355l10.857-10.857a1.426,1.426,0,0,0,0-2.016Z" transform="translate(0 -162.745)" fill="#50c774"/>
  <path id="Path_468" data-name="Path 468" d="M219.344,203.28h-3.8a1.425,1.425,0,0,0-1.425,1.425v3.607L203.26,197.455a1.425,1.425,0,0,0-2.016,0l-2.688,2.688a1.425,1.425,0,0,0,0,2.016l10.857,10.857h-3.606a1.425,1.425,0,0,0-1.425,1.425v3.8a1.425,1.425,0,0,0,1.425,1.425h13.536a1.425,1.425,0,0,0,1.425-1.425V204.706A1.426,1.426,0,0,0,219.344,203.28Z" transform="translate(-167.051 -162.746)" fill="#50c774"/>
</svg>
