<?xml version="1.0" encoding="UTF-8" standalone="no"?>
<!DOCTYPE svg PUBLIC "-//W3C//DTD SVG 1.1//EN" "http://www.w3.org/Graphics/SVG/1.1/DTD/svg11.dtd">
<svg xmlns="http://www.w3.org/2000/svg" version="1.1" viewBox="0.00 0.00 51.00 65.00">
<path fill="#000000" d="
  M 35.26 0.00
  L 32.78 26.19
  A 0.52 0.52 0.0 0 0 33.45 26.74
  L 51.00 21.47
  L 51.00 23.83
  Q 43.09 28.05 34.00 30.50
  Q 25.35 32.84 15.64 35.09
  A 1.37 1.35 -81.1 0 0 14.76 35.74
  Q 14.47 36.25 14.46 37.16
  A 0.37 0.37 0.0 0 1 13.84 37.43
  C 13.04 36.71 13.07 33.92 12.93 31.12
  A 0.53 0.53 0.0 0 1 13.58 30.58
  Q 14.01 30.68 14.23 31.29
  A 0.79 0.79 0.0 0 0 15.17 31.79
  L 28.75 28.25
  A 1.27 1.27 0.0 0 0 29.70 27.15
  L 32.56 0.00
  L 35.26 0.00
  Z"
/>
<path fill="#000000" d="
  M 31.29 43.54
  Q 33.42 43.46 35.95 44.28
  A 0.37 0.37 0.0 0 1 35.94 44.98
  Q 28.76 47.09 22.22 43.67
  A 0.39 0.39 0.0 0 1 22.44 42.94
  L 27.05 43.47
  A 0.74 0.74 0.0 0 0 27.87 42.81
  L 28.90 33.79
  A 0.34 0.32 83.2 0 1 29.11 33.51
  L 31.74 32.51
  A 0.15 0.15 0.0 0 1 31.94 32.67
  L 30.77 42.99
  A 0.50 0.50 0.0 0 0 31.29 43.54
  Z"
/>
<path fill="#000000" d="
  M 9.87 34.01
  L 9.70 35.50
  A 0.42 0.42 0.0 0 0 10.51 35.68
  Q 10.72 35.02 10.61 33.87
  A 1.06 1.05 80.4 0 1 11.40 32.75
  L 11.81 32.64
  A 0.55 0.55 0.0 0 1 12.49 33.23
  L 12.26 35.34
  A 0.84 0.83 86.5 0 1 11.64 36.05
  L 9.10 36.71
  A 1.01 1.01 0.0 0 1 7.87 35.99
  L 7.61 34.99
  A 0.98 0.98 0.0 0 1 8.31 33.80
  L 9.33 33.54
  A 0.44 0.43 85.9 0 1 9.87 34.01
  Z"
/>
<path fill="#000000" d="
  M 0.00 37.00
  L 0.00 35.07
  L 6.55 34.20
  A 0.63 0.63 0.0 0 1 7.26 34.90
  L 7.12 36.18
  A 0.54 0.53 -80.6 0 1 6.48 36.64
  Q 5.84 36.50 4.35 36.67
  Q 3.98 36.71 3.67 36.41
  Q 3.40 36.14 3.39 35.56
  A 0.30 0.29 5.3 0 0 3.16 35.29
  Q 2.96 35.24 2.78 35.47
  A 0.15 0.14 50.1 0 0 2.77 35.62
  Q 3.41 36.85 2.58 37.27
  A 0.56 0.55 35.7 0 1 2.24 37.32
  L 0.00 37.00
  Z"
/>
<path fill="#000000" d="
  M 25.58 47.57
  Q 27.74 46.31 29.54 46.39
  A 1.54 1.52 -18.3 0 1 30.65 46.94
  Q 31.02 47.40 32.20 47.27
  A 0.56 0.55 -77.8 0 1 32.73 48.10
  L 30.97 51.15
  A 2.22 2.22 0.0 0 1 27.13 51.15
  L 25.42 48.18
  A 0.44 0.44 0.0 0 1 25.58 47.57
  Z"
/>
<path fill="#000000" d="
  M 30.02 52.84
  A 0.72 0.72 0.0 0 1 30.69 53.61
  L 30.68 53.74
  A 4.97 2.03 -85.5 0 1 28.26 58.54
  L 28.14 58.53
  A 4.97 2.03 -85.5 0 1 26.51 53.41
  L 26.52 53.28
  A 0.72 0.72 0.0 0 1 27.29 52.62
  L 30.02 52.84
  Z"
/>
<path fill="#000000" d="
  M 27.24 64.31
  L 26.29 60.66
  A 1.01 1.00 -29.3 0 1 26.57 59.68
  Q 27.56 58.71 29.11 59.21
  A 0.94 0.93 -75.1 0 1 29.73 60.29
  Q 29.15 63.05 27.74 64.45
  A 0.30 0.30 0.0 0 1 27.24 64.31
  Z"
/>
</svg>
