<svg xmlns="http://www.w3.org/2000/svg" width="51.415" height="64.855" viewBox="0 0 51.415 64.855">
  <g id="Group_216" data-name="Group 216" transform="translate(-34.25 -44.07)">
    <path id="Path_3991" data-name="Path 3991" d="M120.156,168.83l1.294-11q-1.552.547-3.1,1.1-.526,4.884-1.055,9.765l.622.051-.536-.02c-2.475-.091-5.226-.194-5.865-.22-.017.217-.037.43-.054.647q2.421.89,4.844,1.776c.9.071,1.793.143,2.691.217l3.661-.108c.659-.143,1.314-.288,1.973-.431l1.095-.456v-.51l-4.091-.753c-.123-.006-.684-.026-1.474-.054Z" transform="translate(-55.196 -81.325)" fill="#50c774"/>
    <path id="Path_3992" data-name="Path 3992" d="M115.979,68.864a7.876,7.876,0,0,0,1.292-1l.573-2.583-4.878,1.793L99.138,71.1q.5-6.09,1-12.177.774-7.429,1.545-14.855l-2.76.023Q97.465,58.052,96.01,72.011l-2.492.727L81.965,75.752l-1.434-.071v-1l-1.183.071a17.84,17.84,0,0,0,.268,5.275q.15.727.342,1.38l1.146.522-.217-.647V80.2c.1-.257.191-.513.288-.773,10.256-2.338,18.131-4.5,22.461-5.831,6.888-2.11,8.237-3.139,10.629-3.937a7.919,7.919,0,0,0,1.714-.8Z" transform="translate(-32.179 0)" fill="#50c774"/>
    <path id="Path_3993" data-name="Path 3993" d="M72.213,158.195l-.593.271v3.014h1.671v-3.735l-.485-.034Z" transform="translate(-26.715 -81.239)" fill="#50c774"/>
    <path id="Path_3994" data-name="Path 3994" d="M62.735,161.578l-.419-.237.046-.915-.955-.316-.037.753-.539-.029-.61.4.268,1.092.205,1.249,2.421.12.037-.753-.468-.345Z" transform="translate(-18.566 -82.955)" fill="#50c774"/>
    <path id="Path_3995" data-name="Path 3995" d="M53.607,163.1l-.647-.485-.969.485.271.915-.271.376.325,1.024h1.722l.268-.756-.268-.376Z" transform="translate(-12.682 -84.749)" fill="#50c774"/>
    <path id="Path_3996" data-name="Path 3996" d="M45.53,164.219l.348,1.85.131.687,1.217-.5L46.8,163.98Z" transform="translate(-8.064 -85.722)" fill="#50c774"/>
    <path id="Path_3997" data-name="Path 3997" d="M36.448,165.07l-1.822.411-.376.408v1.631l1.255.314h1.759l-.251-1.944Z" transform="translate(0 -86.501)" fill="#50c774"/>
    <path id="Path_3998" data-name="Path 3998" d="M127.6,207.17h-3.875l.108.7-1.99.271.807,1.183,1.451,2.96.217.753h2.851l.81-1.183,1.015-2.124.545-1.751-1.939-.163Z" transform="translate(-62.617 -116.598)" fill="#50c774"/>
    <path id="Path_3999" data-name="Path 3999" d="M129.65,229.25h-1.7l-1.024.539V231.1l.485,2.672.935,1.237h.975l.325-.431,1.049-1.614.59-2.583-.431-.861Z" transform="translate(-66.255 -132.382)" fill="#50c774"/>
    <path id="Path_4000" data-name="Path 4000" d="M127.814,251.34h-.961l-.673,1.292.7,2.315.647,2.153h.288l.975-1.83.781-1.614V251.34h-1.756Z" transform="translate(-65.719 -148.174)" fill="#50c774"/>
  </g>
</svg>
