<?xml version="1.0" encoding="UTF-8" standalone="no"?>
<!DOCTYPE svg PUBLIC "-//W3C//DTD SVG 1.1//EN" "http://www.w3.org/Graphics/SVG/1.1/DTD/svg11.dtd">
<svg xmlns="http://www.w3.org/2000/svg" version="1.1" viewBox="0.00 0.00 97.00 84.00">
<path fill="#000000" d="
  M 33.71 49.43
  A 0.27 0.27 0.0 0 0 34.15 49.73
  L 74.73 13.13
  A 0.55 0.55 0.0 0 0 74.12 12.23
  L 71.11 13.71
  A 1.10 1.10 0.0 0 1 69.52 12.67
  L 69.55 12.17
  A 1.41 1.40 -12.2 0 1 70.32 10.99
  L 77.33 7.54
  A 2.21 2.16 -88.7 0 0 78.28 6.61
  L 79.61 4.06
  A 1.49 1.49 0.0 0 1 82.40 4.49
  Q 82.81 6.74 81.63 9.33
  Q 80.92 10.88 78.29 13.15
  Q 69.27 20.88 60.89 28.76
  A 0.39 0.39 0.0 0 0 61.13 29.43
  L 83.86 30.66
  A 0.67 0.66 12.1 0 1 84.45 31.56
  L 84.11 32.45
  A 0.96 0.96 0.0 0 1 83.16 33.07
  L 59.72 31.81
  A 4.99 4.95 28.1 0 0 56.48 32.78
  Q 55.55 33.47 51.85 36.84
  Q 47.21 41.07 33.82 53.16
  Q 30.86 55.84 29.28 56.20
  Q 26.00 56.95 23.77 55.38
  A 0.98 0.98 0.0 0 1 24.17 53.61
  L 25.83 53.32
  A 2.22 2.22 0.0 0 0 26.91 52.82
  Q 31.84 48.66 33.29 41.78
  A 1.15 1.15 0.0 0 1 34.92 40.98
  L 34.95 40.99
  A 2.11 2.10 -65.6 0 1 35.93 43.61
  L 33.71 49.43
  Z"
/>
<rect fill="#000000" x="-2.76" y="-1.54" transform="translate(62.46,12.40) rotate(-1.4)" width="5.52" height="3.08" rx="1.41"/>
<path fill="#000000" d="
  M 54.98 11.46
  Q 56.29 12.41 55.89 13.98
  A 2.44 2.34 16.4 0 1 52.78 15.59
  Q 52.10 15.37 51.27 13.64
  A 0.88 0.87 -33.4 0 1 51.49 12.60
  Q 52.51 11.71 54.12 11.29
  A 1.02 1.02 0.0 0 1 54.98 11.46
  Z"
/>
<rect fill="#000000" x="-4.48" y="-2.37" transform="translate(46.60,17.65) rotate(-37.7)" width="8.96" height="4.74" rx="2.02"/>
<path fill="#000000" d="
  M 40.36 21.38
  A 0.75 0.75 0.0 0 1 41.42 21.33
  L 41.79 21.68
  A 2.30 1.86 42.7 0 1 42.22 24.61
  L 40.63 26.33
  A 2.30 1.86 42.7 0 1 37.68 26.13
  L 37.31 25.79
  A 0.75 0.75 0.0 0 1 37.27 24.73
  L 40.36 21.38
  Z"
/>
<path fill="#000000" d="
  M 49.30 30.28
  Q 45.76 31.81 40.37 31.00
  A 2.36 2.36 0.0 0 0 37.82 32.48
  L 36.73 35.35
  A 1.36 1.36 0.0 0 1 34.10 34.79
  L 34.24 32.13
  A 1.04 1.03 -87.0 0 0 33.26 31.03
  L 27.85 30.74
  A 0.93 0.90 -61.0 0 0 27.25 30.92
  L 25.16 32.50
  A 1.43 1.43 0.0 0 1 23.29 32.38
  L 19.91 29.00
  A 0.85 0.85 0.0 0 1 20.09 27.66
  L 24.26 25.25
  A 1.31 1.31 0.0 0 1 25.65 25.30
  L 28.19 27.01
  A 1.35 1.27 63.2 0 0 28.82 27.24
  L 49.06 28.88
  A 0.73 0.73 0.0 0 1 49.30 30.28
  Z"
/>
<path fill="#000000" d="
  M 97.00 34.20
  L 97.00 35.95
  L 84.47 61.55
  A 2.73 2.73 0.0 0 1 82.17 63.08
  L 73.54 63.61
  A 5.72 5.69 19.9 0 0 69.76 65.37
  L 63.41 72.04
  A 1.55 1.53 76.4 0 0 63.06 72.62
  C 61.80 76.42 63.43 79.59 58.64 81.50
  C 55.48 82.76 52.20 80.13 51.10 77.45
  Q 50.25 75.39 51.66 72.85
  C 53.94 68.76 57.98 71.45 60.97 68.59
  Q 62.58 67.05 67.03 62.54
  C 69.28 60.26 68.76 55.95 68.97 50.12
  A 2.65 2.63 -12.7 0 1 70.40 47.88
  L 97.00 34.20
  Z
  M 59.96 75.56
  A 3.06 3.06 0.0 0 0 56.90 72.50
  A 3.06 3.06 0.0 0 0 53.84 75.56
  A 3.06 3.06 0.0 0 0 56.90 78.62
  A 3.06 3.06 0.0 0 0 59.96 75.56
  Z"
/>
<rect fill="#000000" x="-1.49" y="-16.46" transform="translate(12.71,51.36) rotate(-44.7)" width="2.98" height="32.92" rx="0.76"/>
<path fill="#000000" d="
  M 20.93 66.74
  Q 20.32 67.86 18.38 69.51
  A 1.00 1.00 0.0 0 1 16.77 69.01
  Q 15.36 63.93 11.54 60.65
  A 0.51 0.51 0.0 0 1 11.50 59.91
  L 11.52 59.89
  A 0.47 0.47 0.0 0 1 12.21 59.89
  Q 15.73 63.65 20.59 65.75
  A 0.71 0.71 0.0 0 1 20.93 66.74
  Z"
/>
<path fill="#000000" d="
  M 25.91 64.31
  Q 25.37 64.90 24.73 64.93
  A 0.37 0.36 21.6 0 1 24.46 64.30
  Q 25.13 63.65 25.16 63.62
  Q 25.19 63.59 25.78 62.86
  A 0.37 0.36 63.4 0 1 26.43 63.08
  Q 26.45 63.72 25.91 64.31
  Z"
/>
<rect fill="#000000" x="-2.12" y="-3.39" transform="translate(28.61,67.59) rotate(-44.3)" width="4.24" height="6.78" rx="1.21"/>
<path fill="#000000" d="
  M 41.31 84.00
  L 40.84 84.00
  C 38.08 79.15 33.91 75.72 31.07 72.11
  A 0.80 0.79 49.1 0 1 31.14 71.06
  L 32.42 69.77
  A 0.68 0.67 -43.0 0 1 33.40 69.80
  Q 38.07 75.01 44.25 79.55
  A 0.81 0.81 0.0 0 1 44.36 80.75
  L 41.31 84.00
  Z"
/>
<path fill="#000000" d="
  M 22.39 72.61
  A 0.73 0.72 5.9 0 1 23.06 73.44
  Q 22.87 74.72 21.60 76.99
  A 1.02 1.02 0.0 0 1 19.88 77.08
  Q 16.74 72.71 11.92 70.91
  A 0.52 0.52 0.0 0 1 11.62 70.22
  L 11.63 70.19
  A 0.48 0.48 0.0 0 1 12.30 69.95
  Q 16.99 72.31 22.39 72.61
  Z"
/>
</svg>
