<svg id="Component_197_1" data-name="Component 197 – 1" xmlns="http://www.w3.org/2000/svg" width="97.457" height="83.969" viewBox="0 0 97.457 83.969">
  <g id="Layer_1-2" transform="translate(82.981 59.417) rotate(-177)">
    <g id="Group_61" data-name="Group 61" transform="translate(0 0)">
      <path id="Path_2798" data-name="Path 2798" d="M23.881,28.9c-.776-.057-1.152-.109-1.53-.109q-10.443,0-20.883.013C.581,28.805,0,28.73,0,27.576.005,26.465.527,26.3,1.442,26.3c7.955.031,15.911.021,23.866.067a3.939,3.939,0,0,0,2.921-1.427q9.567-9.6,19.137-19.195C48.71,4.4,49.991,2.988,51.387,1.7,53.008.2,57.228-.7,59.28.7A1.9,1.9,0,0,1,60,1.917c.029.233-.542.776-.838.77-3.113-.034-4.327,2.441-5.758,4.456a13.147,13.147,0,0,0-2.773,7.67c0,.913-.451,1.318-1.385,1.281-.965-.036-1.447-.475-1.411-1.442a12.923,12.923,0,0,1,1.6-6.334,6.719,6.719,0,0,0,.425-1.146L49.5,6.908q-19.679,19.7-39.356,39.4l.233.374c.449-.143.91-.262,1.346-.436.8-.322,1.574-.7,2.376-1.017.7-.272,1.484-.594,1.831.431a1.712,1.712,0,0,1-.892,2.3c-.734.358-1.543.571-2.257.962-1.359.744-2.708,1.523-4,2.381a3.846,3.846,0,0,0-2.135,3.175A1.553,1.553,0,0,1,4.962,56.1a1.773,1.773,0,0,1-1.629-1.875c-.169-2.56.166-4.76,2.3-6.77,5.909-5.574,11.558-11.423,17.3-17.177a10.766,10.766,0,0,0,.947-1.38Z" fill="#50c774"/>
      <path id="Path_2799" data-name="Path 2799" d="M7.792,5.759a20.635,20.635,0,0,0,2.973-.047,1.605,1.605,0,0,0,1.03-.986c.371-1.315.493-2.7.9-4A1.661,1.661,0,0,1,14.053,0c.856.039,1.816.316,1.759,1.473a14.334,14.334,0,0,1-.457,2.4c-.3,1.362-.091,1.652,1.274,1.626.993-.018,1.995-.153,2.978-.073a5.219,5.219,0,0,0,4.661-1.709c.783-.887,1.673-.319,2.353.091A22.791,22.791,0,0,1,29.6,6.086,1.243,1.243,0,0,1,29.6,8.195c-1.178.921-2.436,1.738-3.678,2.573a1.291,1.291,0,0,1-1.831-.355,5.225,5.225,0,0,0-4.083-1.546c-6.334-.1-12.668-.3-19-.493A3.3,3.3,0,0,1,0,7.974c.15-.335.21-.807.469-.98a5.3,5.3,0,0,1,2.036-.988c1.746-.246,3.517-.293,5.281-.42,0,.057.005.114.008.174Z" transform="translate(34.607 20.392)" fill="#50c774"/>
      <path id="Path_2800" data-name="Path 2800" d="M3.054,7.971C1.368,7.953.735,6.918.167,5.907-.321,5.035.361,4.454.934,3.92Q2.642,2.329,4.376.771C5.575-.306,6.363-.256,7.458.929,8.817,2.4,8.892,3.23,7.7,4.335,6.654,5.3,5.6,6.262,4.493,7.16a8.14,8.14,0,0,1-1.44.809Z" transform="translate(34.202 35.704)" fill="#50c774"/>
      <path id="Path_2801" data-name="Path 2801" d="M5.826,1.339a14.771,14.771,0,0,1-1,1.743A15.772,15.772,0,0,1,2.841,5.289c-.363.311-1.222.576-1.481.376C.626,5.1-.417,4.449.174,3.248A13.589,13.589,0,0,1,1.977.425,1.783,1.783,0,0,1,3.533.049,12.6,12.6,0,0,1,5.826,1.339Z" transform="translate(42.051 30.11)" fill="#50c774"/>
      <path id="Path_2802" data-name="Path 2802" d="M2.553,0c.776.01,2.353,1.735,2.366,2.586C4.929,3.4,2.657,4.76,1.391,4.7.444,4.651-.061,3.632.006,1.9A2.462,2.462,0,0,1,2.553,0Z" transform="translate(29.341 41.982)" fill="#50c774"/>
      <path id="Path_2803" data-name="Path 2803" d="M2.69,3.235c-.506,0-.895.005-1.281,0C.662,3.225.005,3.093,0,2.133-.005,1.3.158.564,1.165.418,2.143.276,3.123.136,4.1.016,5.037-.1,5.442.392,5.509,1.277c.065.848.171,1.715-1.006,1.857-.638.078-1.289.073-1.816.1Z" transform="translate(20.074 44.147)" fill="#50c774"/>
    </g>
  </g>
  <g id="Layer_1-2-2" data-name="Layer_1-2" transform="translate(50.619 34.144)">
    <path id="Path_2877" data-name="Path 2877" d="M46.84,0a4.8,4.8,0,0,1-.146,1.307c-1.467,2.913-3,5.8-4.45,8.716-2.214,4.448-4.389,8.916-6.567,13.384-.657,1.349-1.279,2.716-1.9,4.083a2.249,2.249,0,0,1-2.094,1.537c-2.741.111-5.48.36-8.222.395a5.686,5.686,0,0,0-4.2,1.625c-2.344,2.4-4.652,4.844-6.85,7.379a3.64,3.64,0,0,0-.566,2.347c.174,4.132-.708,5.176-4.09,6.783-1.244.59-2.676.121-3.986-.527C1.711,46.005-.174,43.322.016,41.151c.156-1.766,2.11-4.777,4.355-4.974.959-.084,1.936-.009,2.885-.146a4.262,4.262,0,0,0,2.224-.7q3.945-3.733,7.665-7.7a4.174,4.174,0,0,0,.889-2.423c.209-3.162.3-6.33.374-9.5a2.046,2.046,0,0,1,1.24-2.01q9.788-4.9,19.547-9.856c2.168-1.1,4.311-2.254,6.469-3.373.288-.149.6-.244,1.175-.469ZM9.419,41.411a3.186,3.186,0,0,0-3.085-3.124,3.25,3.25,0,0,0-3.162,3.066,3.315,3.315,0,0,0,3.173,3.189,3.187,3.187,0,0,0,3.076-3.131Z" transform="translate(-0.003 0)" fill="#50c774"/>
  </g>
  <g id="Layer_1-2-3" data-name="Layer_1-2" transform="translate(0 38.867)">
    <g id="Group_52" data-name="Group 52" transform="translate(0 0)">
      <path id="Path_2678" data-name="Path 2678" d="M109.172,1.683c1.982,2,3.937,3.944,5.869,5.916q8.232,8.406,16.446,16.831c.938.96,1.092.949,1.885-.143a4.286,4.286,0,0,1,.4-.482,1.027,1.027,0,0,0-.054-1.681Q124.256,12.8,114.827,3.436,113.272,1.894,111.768.3c-.367-.39-.645-.432-1.033-.045-.521.517-1.083.994-1.563,1.429Z" transform="translate(-109.172 0.017)" fill="#50c774"/>
      <path id="Path_2679" data-name="Path 2679" d="M10.152,185.855c.349-.14.585-.163.713-.3a34.608,34.608,0,0,0,2.523-2.759,1.019,1.019,0,0,0-.165-1.563c-2.859-1.588-5.047-3.961-7.357-6.192-1.028-.994-2.018-2.025-3.026-3.038-.766-.772-.985-.713-1.71.057-1.5,1.594-1.563,1.488.2,3.305q3.379,3.494,6.589,7.149a19.072,19.072,0,0,1,1.6,2.673,4.164,4.164,0,0,0,.641.664Z" transform="translate(30.882 -140.754)" fill="#50c774"/>
      <path id="Path_2680" data-name="Path 2680" d="M119.431,173.335a5.8,5.8,0,0,0,.745.677,7.17,7.17,0,0,0,1.282.621c3.038,1.012,4.985,3.359,6.963,5.665.68.793,1.047.763,1.452-.168.451-1.035.915-2.064,1.363-3.1.4-.931.218-1.216-.813-1.311a22.779,22.779,0,0,1-3.9-.408c-1.789-.489-3.5-1.259-5.244-1.919a4.442,4.442,0,0,0-.881-.4c-.243-.029-.516.174-.97.347Z" transform="translate(-108.259 -142.009)" fill="#50c774"/>
      <path id="Path_2681" data-name="Path 2681" d="M69.45,143.534a5.167,5.167,0,0,0,.537.868c.985,1.033,1.975,2.061,3,3.053.752.729,1.239.67,1.939-.132.039-.045.073-.095.115-.136,2.021-2.052,1.608-2.036-.129-3.787-.65-.654-1.273-1.336-1.95-1.961a1.193,1.193,0,0,0-1.937.072,14.388,14.388,0,0,0-1.047,1.1,6.347,6.347,0,0,0-.53.929Z" transform="translate(-44.27 -115.731)" fill="#50c774"/>
      <path id="Path_2682" data-name="Path 2682" d="M130.235,116.112c.258.338.383.539.544.705.616.646,1.214,1.312,1.869,1.914,1.937,1.778,2.48,4.283,3.477,6.551.158.36.367.867.654.947.252.072.693-.308.97-.573.752-.72,1.456-1.488,2.188-2.229s.693-1.028-.242-1.5c-.768-.389-1.54-.782-2.338-1.1-2.317-.927-3.971-2.677-5.636-4.424a2.2,2.2,0,0,0-.754-.586c-.161-.059-.424.161-.731.3Z" transform="translate(-119.204 -95.067)" fill="#50c774"/>
      <path id="Path_2683" data-name="Path 2683" d="M100.834,135.746a3.5,3.5,0,0,0,2.12-2.005.583.583,0,0,0-.936-.507,9.17,9.17,0,0,0-1.427,1.782C100.494,135.166,100.763,135.549,100.834,135.746Z" transform="translate(-76.403 -109.262)" fill="#50c774"/>
    </g>
  </g>
</svg>
