<?xml version="1.0" encoding="UTF-8" standalone="no"?>
<!DOCTYPE svg PUBLIC "-//W3C//DTD SVG 1.1//EN" "http://www.w3.org/Graphics/SVG/1.1/DTD/svg11.dtd">
<svg xmlns="http://www.w3.org/2000/svg" version="1.1" viewBox="0.00 0.00 65.00 59.00">
<path fill="#000000" d="
  M 27.43 0.00
  C 32.53 1.64 31.80 7.44 26.92 8.58
  A 1.23 1.19 8.0 0 0 26.15 9.14
  L 21.00 17.65
  A 1.61 1.23 74.3 0 0 20.86 18.00
  L 18.12 30.19
  A 4.10 4.05 74.8 0 1 16.96 32.25
  L 0.44 48.20
  A 0.26 0.24 17.0 0 1 0.29 48.27
  Q 0.14 48.30 0.00 48.32
  L 0.00 47.66
  L 6.36 26.16
  A 4.55 4.54 -12.1 0 1 7.77 23.98
  L 17.32 15.85
  A 1.07 1.07 0.0 0 0 17.58 15.54
  L 22.71 7.07
  A 1.20 1.18 53.7 0 0 22.84 6.17
  Q 21.65 1.33 26.45 0.00
  L 27.43 0.00
  Z
  M 27.2769 2.3712
  A 2.02 1.91 -73.7 0 0 24.8768 3.7739
  A 2.02 1.91 -73.7 0 0 26.1431 6.2488
  A 2.02 1.91 -73.7 0 0 28.5432 4.8461
  A 2.02 1.91 -73.7 0 0 27.2769 2.3712
  Z"
/>
<path fill="#000000" d="
  M 39.47 25.15
  L 37.60 20.25
  A 1.63 1.53 -81.4 0 0 37.18 19.64
  Q 35.98 18.54 34.84 18.79
  A 2.12 2.02 -21.3 0 0 33.41 21.83
  Q 33.45 21.90 34.18 23.00
  A 1.60 1.60 0.0 0 1 31.88 25.17
  Q 30.93 24.45 30.87 23.99
  Q 30.65 22.50 30.97 20.51
  Q 31.70 15.86 36.64 16.67
  C 39.77 17.18 40.76 21.71 41.57 24.50
  A 0.20 0.20 0.0 0 1 41.44 24.74
  L 39.89 25.34
  A 0.33 0.33 0.0 0 1 39.47 25.15
  Z"
/>
<path fill="#000000" d="
  M 29.36 22.79
  Q 29.27 23.11 28.77 22.99
  Q 24.98 22.13 25.12 21.63
  Q 25.28 21.04 28.97 22.27
  Q 29.46 22.43 29.36 22.79
  Z"
/>
<path fill="#000000" d="
  M 51.50 59.00
  L 44.04 59.00
  Q 36.20 56.83 32.86 50.17
  Q 28.40 41.27 34.56 32.45
  A 1.22 1.20 54.9 0 0 34.73 31.42
  C 34.06 29.04 35.39 27.71 37.72 26.95
  Q 40.37 26.08 45.76 23.86
  Q 48.39 22.77 50.07 25.47
  A 1.49 1.49 0.0 0 0 50.93 26.10
  Q 63.66 29.37 64.53 42.06
  C 65.08 50.12 59.02 56.90 51.50 59.00
  Z"
/>
<path fill="#000000" d="
  M 26.11 27.87
  Q 25.80 27.36 29.17 25.52
  Q 29.61 25.28 29.80 25.59
  Q 29.97 25.87 29.56 26.16
  Q 26.38 28.31 26.11 27.87
  Z"
/>
<path fill="#000000" d="
  M 32.11 27.32
  Q 32.71 27.51 31.29 31.28
  Q 31.11 31.77 30.74 31.66
  Q 30.41 31.55 30.55 31.04
  Q 31.60 27.16 32.11 27.32
  Z"
/>
</svg>
