<?xml version="1.0" encoding="UTF-8" standalone="no"?>
<!DOCTYPE svg PUBLIC "-//W3C//DTD SVG 1.1//EN" "http://www.w3.org/Graphics/SVG/1.1/DTD/svg11.dtd">
<svg xmlns="http://www.w3.org/2000/svg" version="1.1" viewBox="0.00 0.00 96.00 75.00">
<g stroke-width="2.00" fill="none" stroke-linecap="butt">
<path stroke="#80110e" vector-effect="non-scaling-stroke" d="
  M 54.59 6.17
  Q 49.86 1.66 45.04 3.53
  Q 44.17 3.87 42.39 6.16
  A 1.44 1.40 -25.0 0 0 42.10 6.92
  Q 41.92 9.31 39.45 9.05
  A 0.85 0.85 0.0 0 0 38.82 10.56
  Q 39.50 11.11 40.32 11.35
  A 0.76 0.75 -81.2 0 1 40.86 12.10
  L 40.82 13.09"
/>
<path stroke="#af6f6c" vector-effect="non-scaling-stroke" d="
  M 40.82 13.09
  L 37.70 19.79"
/>
<path stroke="#89302d" vector-effect="non-scaling-stroke" d="
  M 37.70 19.79
  Q 34.35 19.98 34.72 23.48
  A 0.44 0.44 0.0 0 1 33.88 23.69
  L 32.97 21.45
  A 3.11 3.04 13.4 0 0 32.42 20.58
  Q 28.69 16.46 23.83 19.46
  A 1.23 1.23 0.0 0 1 22.57 19.49
  L 17.75 16.75"
/>
<path stroke="#6f0907" vector-effect="non-scaling-stroke" d="
  M 17.75 16.75
  Q 15.78 15.77 13.95 16.72
  A 1.50 1.50 0.0 0 0 13.30 17.37
  Q 11.77 20.25 9.05 22.07"
/>
<path stroke="#973632" vector-effect="non-scaling-stroke" d="
  M 17.75 16.75
  Q 16.20 16.02 15.14 16.63
  A 0.58 0.58 0.0 0 0 15.42 17.71
  Q 18.31 17.77 20.02 19.74
  A 0.77 0.77 0.0 0 1 19.22 20.98
  Q 18.24 20.69 15.88 21.15
  A 1.15 1.13 -80.4 0 0 15.11 21.71
  L 13.97 23.67
  A 0.51 0.51 0.0 0 1 13.37 23.90
  Q 12.81 23.71 12.50 22.86
  A 0.74 0.74 0.0 0 0 11.06 23.11
  Q 11.04 24.18 9.91 26.35
  A 3.21 3.02 63.8 0 0 9.61 27.33
  Q 9.13 31.40 12.89 31.58
  A 0.38 0.38 0.0 0 0 13.26 31.03
  Q 13.03 30.57 11.83 28.04
  Q 11.67 27.70 12.07 27.29
  A 0.37 0.36 -52.2 0 1 12.51 27.23
  L 13.38 27.73
  A 0.44 0.43 23.7 0 0 14.01 27.49
  L 15.12 23.90
  A 2.40 2.39 -83.8 0 1 17.19 22.23
  L 19.26 22.05
  A 1.14 1.14 0.0 0 1 20.41 23.63
  Q 18.92 27.13 19.84 31.44"
/>
<path stroke="#b25f5b" vector-effect="non-scaling-stroke" d="
  M 19.84 31.44
  L 19.66 33.50"
/>
<path stroke="#a64a47" vector-effect="non-scaling-stroke" d="
  M 19.66 33.50
  L 19.92 38.75
  A 0.64 0.64 0.0 0 1 18.92 39.31
  C 14.32 36.20 10.91 37.34 5.91 38.03
  A 2.67 2.58 -60.0 0 0 5.14 38.25
  Q 1.77 39.74 2.64 42.19"
/>
<path stroke="#520e0a" vector-effect="non-scaling-stroke" d="
  M 5.14 37.04
  Q 5.51 36.76 5.34 36.39
  Q 5.07 35.80 4.51 35.55"
/>
<path stroke="#520e0a" vector-effect="non-scaling-stroke" d="
  M 7.47 30.65
  Q 8.44 30.85 8.49 30.28"
/>
<path stroke="#bc7571" vector-effect="non-scaling-stroke" d="
  M 46.80 18.80
  L 49.93 18.80"
/>
<path stroke="#d79c97" vector-effect="non-scaling-stroke" d="
  M 58.95 21.26
  Q 59.47 21.92 58.44 22.23"
/>
<path stroke="#92746f" vector-effect="non-scaling-stroke" d="
  M 58.44 22.23
  Q 55.21 21.74 51.91 20.99
  C 49.75 20.49 48.04 20.56 46.00 20.62
  A 1.17 0.80 29.0 0 0 45.79 20.64
  L 37.45 22.27"
/>
<path stroke="#d79c97" vector-effect="non-scaling-stroke" d="
  M 37.45 22.27
  Q 36.82 22.19 36.86 21.58
  A 0.30 0.30 0.0 0 1 36.90 21.43
  L 37.70 19.79"
/>
<path stroke="#6d352f" vector-effect="non-scaling-stroke" d="
  M 37.45 22.27
  Q 34.70 24.14 39.66 27.68"
/>
<path stroke="#cd8681" vector-effect="non-scaling-stroke" d="
  M 39.66 27.68
  L 38.74 27.50
  A 0.54 0.53 83.5 0 0 38.15 28.25
  C 39.06 30.31 41.35 31.90 41.65 33.73
  A 0.55 0.54 83.1 0 1 41.16 34.36
  C 38.21 34.64 35.00 35.00 32.59 33.43
  A 1.07 1.05 17.9 0 1 32.11 32.51
  Q 32.15 30.39 31.32 29.02
  C 30.12 27.07 30.06 25.56 29.16 23.22
  A 1.94 1.94 0.0 0 0 27.58 21.99
  C 21.38 21.21 20.71 26.65 19.84 31.44"
/>
<path stroke="#80110e" vector-effect="non-scaling-stroke" d="
  M 67.96 13.33
  Q 70.71 15.45 74.83 13.73
  A 1.95 1.93 11.7 0 0 75.37 13.38
  L 81.95 7.29
  A 0.29 0.29 0.0 0 1 82.35 7.29
  L 82.55 7.49
  A 0.41 0.41 0.0 0 1 82.53 8.09
  Q 79.90 10.36 78.17 13.74
  A 0.41 0.41 0.0 0 0 78.45 14.33
  C 83.25 15.36 82.57 18.30 84.86 21.34
  Q 87.35 24.64 87.09 29.85
  A 0.96 0.95 -13.9 0 1 86.63 30.61
  L 84.03 32.10
  A 1.00 1.00 0.0 0 1 82.63 30.79
  L 84.23 27.57
  A 0.28 0.28 0.0 0 0 83.86 27.19
  Q 83.44 27.40 81.68 29.38
  A 0.36 0.36 0.0 0 1 81.06 29.10
  Q 81.43 26.01 80.67 23.26
  A 1.30 1.29 82.4 0 0 79.42 22.30
  L 76.56 22.30
  A 0.76 0.76 0.0 0 0 75.84 23.29
  Q 77.74 29.15 76.81 32.27
  A 0.54 0.54 0.0 0 0 77.75 32.75
  Q 78.35 31.96 79.29 31.51
  A 0.48 0.48 0.0 0 1 79.90 32.19
  Q 78.74 34.09 76.97 35.30"
/>
<path stroke="#c46762" vector-effect="non-scaling-stroke" d="
  M 76.97 35.30
  L 76.40 33.19"
/>
<path stroke="#a83e39" vector-effect="non-scaling-stroke" d="
  M 76.40 33.19
  Q 76.91 29.52 75.32 24.44
  Q 73.78 19.48 79.06 17.92
  A 0.64 0.54 31.3 0 1 79.25 17.89
  L 81.58 17.89
  A 0.30 0.29 65.2 0 0 81.77 17.37
  C 80.22 16.05 79.29 15.56 77.69 16.94
  Q 77.65 16.97 75.94 18.01
  A 1.86 1.85 -1.4 0 0 75.27 18.71
  Q 73.82 21.43 70.74 19.22
  Q 67.77 17.08 64.17 19.78
  A 1.36 1.30 -10.0 0 0 63.73 20.38
  L 62.13 24.69
  A 0.56 0.56 0.0 0 1 61.05 24.50
  L 61.05 23.12
  A 1.32 1.30 -70.5 0 0 60.58 22.11
  Q 59.92 21.55 58.95 21.26"
/>
<path stroke="#ce7d78" vector-effect="non-scaling-stroke" d="
  M 58.95 21.26
  L 54.11 11.41
  A 0.19 0.19 0.0 0 0 53.75 11.54
  C 54.31 13.78 55.58 15.64 55.50 18.49
  A 0.92 0.91 4.3 0 1 54.47 19.37
  L 49.93 18.80"
/>
<path stroke="#8e1713" vector-effect="non-scaling-stroke" d="
  M 49.93 18.80
  L 52.69 18.57
  A 0.38 0.38 0.0 0 0 53.01 18.04
  Q 52.14 16.14 50.40 16.00
  Q 47.55 15.75 46.03 15.83
  A 2.39 2.36 20.7 0 0 44.48 16.52
  L 43.35 17.65
  A 0.58 0.58 0.0 0 0 43.73 18.64
  L 46.80 18.80"
/>
<path stroke="#ce7d78" vector-effect="non-scaling-stroke" d="
  M 46.80 18.80
  L 41.64 19.48
  A 1.32 1.32 0.0 0 1 40.21 17.78
  L 42.03 11.93
  A 0.16 0.16 0.0 0 0 41.77 11.76
  Q 41.26 12.21 40.82 13.09"
/>
<path stroke="#f3cec9" vector-effect="non-scaling-stroke" d="
  M 46.77 33.12
  L 38.27 37.01
  A 0.38 0.38 0.0 0 0 38.06 37.45
  Q 38.24 38.15 39.79 38.08"
/>
<path stroke="#a76a5e" vector-effect="non-scaling-stroke" d="
  M 39.79 38.08
  Q 34.49 39.35 30.20 35.39"
/>
<path stroke="#cd8681" vector-effect="non-scaling-stroke" d="
  M 30.20 35.39
  Q 29.64 34.27 28.83 33.90"
/>
<path stroke="#cd8681" vector-effect="non-scaling-stroke" d="
  M 28.54 33.04
  Q 28.81 32.14 28.26 32.02"
/>
<path stroke="#cd8681" vector-effect="non-scaling-stroke" d="
  M 28.26 32.02
  Q 28.65 30.20 28.04 28.91"
/>
<path stroke="#a55956" vector-effect="non-scaling-stroke" d="
  M 27.99 27.80
  Q 28.01 25.96 27.34 25.33
  A 2.24 2.24 0.0 0 0 24.10 25.50
  Q 21.04 29.08 20.72 33.67"
/>
<path stroke="#dc9a96" vector-effect="non-scaling-stroke" d="
  M 20.72 33.67
  Q 20.23 34.13 19.66 33.50"
/>
<path stroke="#e6afac" vector-effect="non-scaling-stroke" d="
  M 23.90 45.73
  Q 23.21 45.59 23.16 46.12
  A 0.98 0.91 -1.0 0 0 24.25 47.10
  Q 26.61 46.82 26.88 46.81
  A 2.89 2.88 -16.6 0 1 29.40 48.17
  L 33.17 54.23
  A 1.42 1.39 32.9 0 1 33.37 55.11
  C 32.91 59.47 38.50 58.48 40.86 57.73
  Q 46.58 55.89 52.74 57.05
  A 4.50 4.00 57.8 0 1 53.43 57.25
  C 55.97 58.26 59.25 59.36 61.29 57.61
  A 0.38 0.26 -16.1 0 0 61.38 57.50
  L 66.29 48.34
  A 2.39 2.38 -74.9 0 1 68.45 47.09
  L 72.21 47.19"
/>
<path stroke="#e6afac" vector-effect="non-scaling-stroke" d="
  M 72.85 48.31
  Q 69.48 50.21 68.88 51.15
  Q 65.77 56.02 61.60 59.93
  A 1.88 1.88 0.0 0 1 60.74 60.38
  Q 58.20 60.94 57.22 60.48
  Q 48.91 56.57 40.73 59.74
  C 38.06 60.78 35.75 61.19 33.70 59.35
  Q 31.42 57.29 28.57 52.52
  Q 26.91 49.75 24.17 48.90
  A 2.03 1.99 -9.8 0 1 23.16 48.20
  Q 20.86 45.21 16.13 42.45
  A 2.80 2.80 0.0 0 0 13.31 42.45
  L 9.69 44.54
  A 3.48 3.45 86.2 0 0 8.19 46.27
  L 6.83 49.63"
/>
<path stroke="#c0716d" vector-effect="non-scaling-stroke" d="
  M 6.83 49.63
  Q 7.20 46.49 6.38 44.83"
/>
<path stroke="#e6afac" vector-effect="non-scaling-stroke" d="
  M 6.38 44.83
  L 12.27 42.05
  A 0.84 0.84 0.0 0 0 11.83 40.45
  L 5.71 40.99
  A 0.91 0.91 0.0 0 0 5.32 41.12
  Q 4.13 41.89 4.54 43.57"
/>
<path stroke="#c0716d" vector-effect="non-scaling-stroke" d="
  M 4.54 43.57
  Q 4.17 43.45 3.75 43.49"
/>
<path stroke="#cd8681" vector-effect="non-scaling-stroke" d="
  M 76.40 33.19
  Q 76.02 30.48 75.49 27.67
  Q 74.42 22.06 68.71 22.30
  A 1.83 1.82 8.5 0 0 67.06 23.52
  Q 65.47 28.16 64.70 32.02
  Q 64.26 34.26 62.07 34.68
  Q 58.02 35.46 54.81 34.66
  A 0.87 0.87 0.0 0 1 54.23 33.46
  Q 55.93 29.71 58.79 27.59
  A 2.36 2.35 86.2 0 0 59.46 26.82
  Q 60.39 25.15 59.22 25.30"
/>
<path stroke="#6d352f" vector-effect="non-scaling-stroke" d="
  M 59.22 25.30
  Q 60.65 23.37 58.44 22.23"
/>
<path stroke="#885e59" vector-effect="non-scaling-stroke" d="
  M 59.22 25.30
  Q 57.55 27.26 55.11 28.68
  A 3.69 3.67 -85.3 0 0 54.09 29.55
  Q 52.19 31.84 49.72 33.14"
/>
<path stroke="#937d78" vector-effect="non-scaling-stroke" d="
  M 49.72 33.14
  L 46.77 33.12"
/>
<path stroke="#885e59" vector-effect="non-scaling-stroke" d="
  M 46.77 33.12
  C 43.52 32.17 42.46 29.02 39.66 27.68"
/>
<path stroke="#cd8681" vector-effect="non-scaling-stroke" d="
  M 89.12 47.29
  Q 89.11 47.76 89.32 48.31"
/>
<path stroke="#f2c5c0" vector-effect="non-scaling-stroke" d="
  M 89.32 48.31
  Q 88.49 47.40 88.17 46.22
  A 1.09 1.06 8.4 0 0 87.66 45.55
  L 83.56 43.18
  A 3.86 3.84 -40.3 0 0 80.29 42.92
  C 78.00 43.79 76.84 44.25 75.04 46.36
  Q 74.10 47.47 72.85 48.31"
/>
<path stroke="#dc9a96" vector-effect="non-scaling-stroke" d="
  M 72.85 48.31
  Q 73.10 47.34 72.21 47.19"
/>
<path stroke="#f2c5c0" vector-effect="non-scaling-stroke" d="
  M 72.21 47.19
  Q 72.45 46.72 72.35 46.25
  Q 72.27 45.89 71.70 45.94"
/>
<path stroke="#a55956" vector-effect="non-scaling-stroke" d="
  M 71.70 45.94
  Q 72.79 45.37 73.51 43.60
  C 76.02 37.45 76.44 30.09 71.80 25.45
  A 2.23 2.20 44.2 0 0 68.63 25.47
  Q 67.99 26.15 68.27 27.53"
/>
<path stroke="#885e59" vector-effect="non-scaling-stroke" d="
  M 68.10 28.46
  L 67.95 29.45"
/>
<path stroke="#cd8681" vector-effect="non-scaling-stroke" d="
  M 67.95 29.45
  Q 67.46 30.74 67.79 32.03"
/>
<path stroke="#cd8681" vector-effect="non-scaling-stroke" d="
  M 67.68 32.46
  Q 67.39 32.76 67.52 33.22"
/>
<path stroke="#a76a5e" vector-effect="non-scaling-stroke" d="
  M 66.00 35.42
  Q 62.23 38.78 57.53 38.18
  Q 54.66 37.81 51.79 37.52"
/>
<path stroke="#f3cec9" vector-effect="non-scaling-stroke" d="
  M 51.79 37.52
  L 54.88 37.05
  A 0.29 0.29 0.0 0 0 54.99 36.52
  L 49.72 33.14"
/>
<path stroke="#450805" vector-effect="non-scaling-stroke" d="
  M 87.59 29.78
  Q 87.55 30.42 87.70 30.77
  Q 87.80 31.02 88.19 30.63"
/>
<path stroke="#450805" vector-effect="non-scaling-stroke" d="
  M 91.25 44.51
  Q 90.57 44.25 90.31 45.00"
/>
<path stroke="#89302d" vector-effect="non-scaling-stroke" d="
  M 90.02 45.21
  Q 89.59 45.02 89.34 45.21
  Q 89.13 45.36 89.13 45.86
  Q 89.13 46.58 89.12 47.29"
/>
<path stroke="#a55956" vector-effect="non-scaling-stroke" d="
  M 89.12 47.29
  L 89.03 45.77
  A 0.86 0.85 75.2 0 1 89.50 44.96
  Q 91.62 43.92 93.11 42.10
  A 1.68 1.50 32.9 0 0 92.45 39.72
  Q 91.61 39.28 91.00 38.54
  A 1.62 1.60 76.2 0 0 90.12 38.00
  Q 84.41 36.69 79.06 37.84
  A 1.98 1.92 17.2 0 0 78.23 38.26
  Q 77.52 38.91 77.01 38.98
  A 0.63 0.63 0.0 0 1 76.29 38.45
  Q 76.06 36.74 76.97 35.30"
/>
<path stroke="#af6f6c" vector-effect="non-scaling-stroke" d="
  M 27.54 44.38
  Q 26.38 45.87 23.90 45.73"
/>
<path stroke="#984442" vector-effect="non-scaling-stroke" d="
  M 23.90 45.73
  Q 20.58 40.46 20.72 33.67"
/>
<path stroke="#8c4135" vector-effect="non-scaling-stroke" d="
  M 30.20 35.39
  Q 30.15 35.48 30.10 35.56"
/>
<path stroke="#b2897d" vector-effect="non-scaling-stroke" d="
  M 51.79 37.52
  L 39.79 38.08"
/>
<path stroke="#b17f74" vector-effect="non-scaling-stroke" d="
  M 67.54 43.92
  C 63.51 46.41 64.53 54.84 58.05 54.15
  Q 54.13 53.74 51.99 53.03
  A 2.42 2.16 -33.0 0 0 51.28 52.92
  L 44.79 52.92
  A 3.19 2.94 34.3 0 0 43.90 53.05
  Q 41.22 53.87 37.99 54.08
  C 30.97 54.54 32.95 46.52 28.49 43.88"
/>
<path stroke="#89302d" vector-effect="non-scaling-stroke" d="
  M 6.57 49.80
  L 6.40 47.79"
/>
<path stroke="#d79c97" vector-effect="non-scaling-stroke" d="
  M 6.38 44.83
  Q 5.15 44.24 4.54 43.57"
/>
<path stroke="#92746f" vector-effect="non-scaling-stroke" d="
  M 89.32 48.31
  L 89.47 49.04"
/>
<path stroke="#b17f74" vector-effect="non-scaling-stroke" d="
  M 89.47 49.04
  L 89.60 50.17
  A 0.66 0.65 -24.4 0 1 89.38 50.74
  Q 88.83 51.21 88.04 50.96"
/>
<path stroke="#efbcb8" vector-effect="non-scaling-stroke" d="
  M 88.04 50.96
  Q 81.27 47.41 73.80 49.75
  A 3.42 3.27 18.0 0 0 72.91 50.18
  Q 70.63 51.75 69.15 54.71
  Q 67.57 57.86 65.76 60.82
  Q 63.13 65.11 58.30 63.46
  C 56.23 62.76 54.53 61.37 52.55 61.01
  C 47.23 60.06 43.43 60.61 38.93 63.15
  Q 34.58 65.61 30.48 61.49
  A 3.00 2.84 -81.6 0 1 29.90 60.66
  Q 27.95 56.66 27.08 54.98
  Q 25.20 51.31 21.85 49.84
  A 1.34 1.33 57.7 0 0 21.37 49.73
  L 14.32 49.37
  A 1.11 1.11 0.0 0 0 13.60 49.59
  C 11.93 50.85 9.83 49.25 8.01 51.07"
/>
<path stroke="#af6f6c" vector-effect="non-scaling-stroke" d="
  M 8.01 51.07
  L 7.10 50.88
  A 0.62 0.61 4.4 0 1 6.61 50.32
  L 6.57 49.80"
/>
<path stroke="#d79c97" vector-effect="non-scaling-stroke" d="
  M 6.57 49.80
  Q 6.74 49.62 6.83 49.63"
/>
<path stroke="#6d352f" vector-effect="non-scaling-stroke" d="
  M 68.07 30.21
  L 67.95 29.45"
/>
<path stroke="#47180c" vector-effect="non-scaling-stroke" d="
  M 89.70 49.01
  Q 89.59 49.02 89.47 49.04"
/>
<path stroke="#6d352f" vector-effect="non-scaling-stroke" d="
  M 89.61 46.03
  Q 89.75 47.39 89.32 48.31"
/>
<path stroke="#af6f6c" vector-effect="non-scaling-stroke" d="
  M 71.70 45.94
  Q 69.48 45.48 68.53 44.40"
/>
<path stroke="#a2514e" vector-effect="non-scaling-stroke" d="
  M 8.01 51.07
  L 13.60 50.68
  A 2.50 2.50 0.0 0 1 16.26 52.95
  L 16.42 54.72
  A 0.71 0.71 0.0 0 0 16.92 55.34
  L 21.49 56.76
  A 0.92 0.75 69.1 0 1 21.77 56.92
  Q 29.72 63.48 38.04 68.38"
/>
<path stroke="#b07875" vector-effect="non-scaling-stroke" d="
  M 38.04 68.38
  Q 50.52 73.95 61.54 66.21"
/>
<path stroke="#a2514e" vector-effect="non-scaling-stroke" d="
  M 61.54 66.21
  Q 63.50 66.01 66.65 63.19"
/>
<path stroke="#450805" vector-effect="non-scaling-stroke" d="
  M 66.65 63.19
  L 66.20 64.22"
/>
<path stroke="#450805" vector-effect="non-scaling-stroke" d="
  M 66.20 64.22
  Q 65.51 64.53 65.21 65.22"
/>
<path stroke="#450805" vector-effect="non-scaling-stroke" d="
  M 31.54 65.78
  Q 31.56 64.31 29.68 64.02"
/>
<path stroke="#47180c" vector-effect="non-scaling-stroke" d="
  M 80.23 54.22
  L 79.69 54.71"
/>
<path stroke="#a46156" vector-effect="non-scaling-stroke" d="
  M 88.04 50.96
  L 82.55 50.56
  A 2.18 2.18 0.0 0 0 80.26 52.25
  L 79.69 54.71"
/>
<path stroke="#855651" vector-effect="non-scaling-stroke" d="
  M 79.69 54.71
  Q 79.09 55.39 78.74 55.51
  Q 71.78 57.89 66.65 63.19"
/>
<path stroke="#f0c6c1" vector-effect="non-scaling-stroke" d="
  M 61.54 66.21
  Q 56.65 65.65 54.52 63.53
  A 2.14 2.12 -12.9 0 0 53.70 63.02
  Q 47.91 61.08 41.83 63.14
  A 3.41 3.24 -71.2 0 0 40.97 63.59
  L 37.79 65.90
  A 1.00 1.00 0.0 0 0 37.39 66.84
  Q 37.48 67.60 38.04 68.38"
/>
<path stroke="#89302d" vector-effect="non-scaling-stroke" d="
  M 19.97 14.38
  L 20.52 13.83
  A 0.15 0.15 0.0 0 0 20.52 13.62
  L 20.38 13.47
  A 7.17 0.45 45.1 0 0 15.00 8.71
  L 14.87 8.84
  A 7.17 0.45 45.1 0 0 19.61 14.24
  L 19.76 14.38
  A 0.15 0.15 0.0 0 0 19.97 14.38"
/>
<path stroke="#89302d" vector-effect="non-scaling-stroke" d="
  M 31.15 15.63
  C 32.18 16.22 35.15 15.48 36.12 17.13
  A 0.53 0.52 -51.4 0 0 37.07 17.02
  Q 37.27 16.42 37.08 15.80
  Q 36.89 15.17 36.19 15.08
  Q 33.60 14.77 31.26 15.09
  A 0.29 0.29 0.0 0 0 31.15 15.63"
/>
<path stroke="#a83e39" vector-effect="non-scaling-stroke" d="
  M 59.73 17.47
  L 59.98 16.65
  A 0.79 0.78 -82.0 0 1 60.70 16.10
  Q 64.09 15.97 64.40 15.77
  A 0.20 0.20 0.0 0 0 64.31 15.40
  C 62.30 15.15 58.81 14.30 59.37 17.44
  A 0.19 0.18 49.3 0 0 59.73 17.47"
/>
<path stroke="#a55956" vector-effect="non-scaling-stroke" d="
  M 90.47 36.22
  L 90.75 35.37
  A 0.66 0.66 0.0 0 0 90.10 34.51
  C 87.83 34.59 85.18 34.47 84.82 35.18
  A 0.42 0.41 22.9 0 0 85.06 35.75
  L 88.85 37.02
  A 1.27 1.27 0.0 0 0 90.47 36.22"
/>
<path stroke="#b25f5b" vector-effect="non-scaling-stroke" d="
  M 5.76 36.39
  A 1.32 1.32 0.0 0 0 7.45 37.19
  L 11.37 35.80
  A 0.43 0.42 -23.9 0 0 11.61 35.20
  C 11.22 34.47 8.47 34.64 6.11 34.60
  A 0.68 0.68 0.0 0 0 5.45 35.51
  L 5.76 36.39"
/>
<path stroke="#47180c" vector-effect="non-scaling-stroke" d="
  M 33.95 45.67
  Q 33.91 45.74 33.51 46.07
  Q 33.23 46.31 33.22 46.54
  Q 33.21 46.93 33.75 47.17"
/>
<path stroke="#9b544a" vector-effect="non-scaling-stroke" d="
  M 35.05 48.54
  L 35.55 52.62
  A 0.44 0.43 86.2 0 0 35.98 53.00
  L 36.48 53.00
  A 0.56 0.55 -86.5 0 0 37.03 52.51
  Q 37.36 49.70 35.71 47.37"
/>
<path stroke="#47180c" vector-effect="non-scaling-stroke" d="
  M 35.71 47.37
  L 36.25 47.24"
/>
<path stroke="#aa6c4e" stroke-opacity="0.996" vector-effect="non-scaling-stroke" d="
  M 41.26 50.76
  Q 39.13 50.55 38.29 51.18
  A 0.83 0.82 29.6 0 0 38.70 52.66
  Q 39.79 52.77 40.98 52.67
  Q 41.74 52.60 41.99 52.16
  Q 42.26 51.69 41.84 51.02"
/>
<path stroke="#9b544a" vector-effect="non-scaling-stroke" d="
  M 43.46 51.10
  Q 43.16 51.11 43.11 51.44
  A 0.40 0.40 0.0 0 0 43.37 51.88
  Q 46.05 52.82 47.18 51.38"
/>
<path stroke="#aa6c4e" stroke-opacity="0.996" vector-effect="non-scaling-stroke" d="
  M 54.08 51.11
  Q 53.00 53.67 57.22 52.70
  A 0.92 0.92 0.0 0 0 57.10 50.88
  L 55.02 50.70"
/>
<path stroke="#aa6c4e" stroke-opacity="0.996" vector-effect="non-scaling-stroke" d="
  M 59.69 47.44
  Q 58.66 49.83 59.19 52.31
  A 0.58 0.58 0.0 0 0 60.33 52.27
  L 60.87 48.24"
/>
<path stroke="#47180c" vector-effect="non-scaling-stroke" d="
  M 62.52 46.15
  L 61.29 45.49"
/>
<path stroke="#aa6c4e" stroke-opacity="0.996" vector-effect="non-scaling-stroke" d="
  M 59.28 41.15
  L 59.03 39.76
  A 0.78 0.77 84.6 0 0 58.27 39.13
  L 55.40 39.13
  A 0.68 0.66 87.2 0 0 54.74 39.87
  L 54.77 40.31
  A 0.97 0.96 87.7 0 0 55.72 41.19
  L 59.02 41.24"
/>
<path stroke="#47180c" vector-effect="non-scaling-stroke" d="
  M 52.81 41.85
  L 50.02 41.49"
/>
<path stroke="#aa6c4e" stroke-opacity="0.996" vector-effect="non-scaling-stroke" d="
  M 50.02 41.49
  Q 52.02 41.65 53.63 40.66
  A 0.80 0.79 29.1 0 0 53.21 39.19
  L 49.28 39.19
  A 0.66 0.66 0.0 0 0 48.63 39.98
  Q 48.85 41.17 49.78 41.38"
/>
<path stroke="#47180c" vector-effect="non-scaling-stroke" d="
  M 49.78 41.38
  L 43.01 41.80"
/>
<path stroke="#47180c" vector-effect="non-scaling-stroke" d="
  M 43.01 41.80
  Q 42.58 41.43 41.78 41.57"
/>
<path stroke="#47180c" vector-effect="non-scaling-stroke" d="
  M 40.79 41.60
  L 38.21 41.56"
/>
<path stroke="#aa6c4e" stroke-opacity="0.996" vector-effect="non-scaling-stroke" d="
  M 37.10 41.26
  L 40.66 40.93
  A 0.45 0.44 -5.9 0 0 41.06 40.45
  L 41.03 40.13
  A 0.69 0.69 0.0 0 0 40.28 39.50
  L 37.65 39.74
  A 0.98 0.98 0.0 0 0 36.79 40.46
  Q 36.74 40.64 36.70 40.87"
/>
<path stroke="#47180c" vector-effect="non-scaling-stroke" d="
  M 34.71 41.22
  Q 34.27 40.98 34.07 41.29
  Q 33.83 41.68 33.86 42.21"
/>
<path stroke="#aa6c4e" stroke-opacity="0.996" vector-effect="non-scaling-stroke" d="
  M 33.86 42.21
  L 33.88 39.87
  A 1.31 1.31 0.0 0 0 33.23 38.74
  L 32.76 38.47
  A 0.53 0.53 0.0 0 0 31.97 38.88
  Q 31.65 42.42 33.95 45.67"
/>
<path stroke="#8b6048" vector-effect="non-scaling-stroke" d="
  M 33.86 42.21
  Q 34.33 43.92 33.95 45.67"
/>
<path stroke="#7c4945" vector-effect="non-scaling-stroke" d="
  M 35.71 47.37
  Q 35.39 47.24 35.05 47.29"
/>
<path stroke="#8b6048" vector-effect="non-scaling-stroke" d="
  M 61.05 47.78
  Q 60.98 47.06 60.43 46.74"
/>
<path stroke="#8b6048" vector-effect="non-scaling-stroke" d="
  M 50.02 41.49
  Q 49.90 41.44 49.78 41.38"
/>
<path stroke="#aa6c4e" stroke-opacity="0.996" vector-effect="non-scaling-stroke" d="
  M 62.63 45.01
  C 64.32 43.83 64.83 41.00 64.60 39.08
  A 0.81 0.81 0.0 0 0 63.28 38.56
  Q 62.65 39.09 62.60 39.58
  Q 62.05 44.74 62.05 44.75
  A 0.37 0.37 0.0 0 0 62.63 45.01"
/>
<path stroke="#aa6c4e" stroke-opacity="0.996" vector-effect="non-scaling-stroke" d="
  M 42.1607 40.0760
  A 2.82 1.09 -178.7 0 0 44.9553 41.2297
  A 2.82 1.09 -178.7 0 0 47.7993 40.2040
  A 2.82 1.09 -178.7 0 0 45.0047 39.0503
  A 2.82 1.09 -178.7 0 0 42.1607 40.0760"
/>
</g>
<path fill="#610302" d="
  M 54.59 6.17
  Q 49.86 1.66 45.04 3.53
  Q 44.17 3.87 42.39 6.16
  A 1.44 1.40 -25.0 0 0 42.10 6.92
  Q 41.92 9.31 39.45 9.05
  A 0.85 0.85 0.0 0 0 38.82 10.56
  Q 39.50 11.11 40.32 11.35
  A 0.76 0.75 -81.2 0 1 40.86 12.10
  L 40.82 13.09
  L 37.70 19.79
  Q 34.35 19.98 34.72 23.48
  A 0.44 0.44 0.0 0 1 33.88 23.69
  L 32.97 21.45
  A 3.11 3.04 13.4 0 0 32.42 20.58
  Q 28.69 16.46 23.83 19.46
  A 1.23 1.23 0.0 0 1 22.57 19.49
  L 17.75 16.75
  Q 15.78 15.77 13.95 16.72
  A 1.50 1.50 0.0 0 0 13.30 17.37
  Q 11.77 20.25 9.05 22.07
  C 10.57 16.80 9.54 10.44 9.37 6.43
  A 0.69 0.68 83.6 0 1 9.92 5.73
  Q 13.52 5.00 16.44 6.73
  A 2.89 2.73 -4.9 0 1 17.08 7.24
  Q 20.70 11.16 24.86 13.33
  A 3.19 3.18 40.1 0 0 28.25 13.05
  Q 31.28 10.78 35.61 10.79
  A 1.03 1.03 0.0 0 0 36.61 10.05
  L 36.72 9.68
  A 1.38 1.35 88.9 0 1 37.57 8.78
  L 40.29 7.82
  A 1.14 1.13 89.0 0 0 40.97 7.11
  Q 42.23 3.22 46.92 1.21
  Q 47.85 0.81 49.00 1.17
  Q 52.79 2.34 54.59 6.17
  Z
  M 19.97 14.38
  L 20.52 13.83
  A 0.15 0.15 0.0 0 0 20.52 13.62
  L 20.38 13.47
  A 7.17 0.45 45.1 0 0 15.00 8.71
  L 14.87 8.84
  A 7.17 0.45 45.1 0 0 19.61 14.24
  L 19.76 14.38
  A 0.15 0.15 0.0 0 0 19.97 14.38
  Z
  M 31.15 15.63
  C 32.18 16.22 35.15 15.48 36.12 17.13
  A 0.53 0.52 -51.4 0 0 37.07 17.02
  Q 37.27 16.42 37.08 15.80
  Q 36.89 15.17 36.19 15.08
  Q 33.60 14.77 31.26 15.09
  A 0.29 0.29 0.0 0 0 31.15 15.63
  Z"
/>
<path fill="#9f1f1a" d="
  M 54.59 6.17
  Q 54.83 6.96 55.52 7.57
  C 56.81 8.73 58.66 8.07 59.43 10.03
  A 1.25 1.24 79.4 0 0 60.57 10.82
  Q 64.92 10.85 67.96 13.33
  Q 70.71 15.45 74.83 13.73
  A 1.95 1.93 11.7 0 0 75.37 13.38
  L 81.95 7.29
  A 0.29 0.29 0.0 0 1 82.35 7.29
  L 82.55 7.49
  A 0.41 0.41 0.0 0 1 82.53 8.09
  Q 79.90 10.36 78.17 13.74
  A 0.41 0.41 0.0 0 0 78.45 14.33
  C 83.25 15.36 82.57 18.30 84.86 21.34
  Q 87.35 24.64 87.09 29.85
  A 0.96 0.95 -13.9 0 1 86.63 30.61
  L 84.03 32.10
  A 1.00 1.00 0.0 0 1 82.63 30.79
  L 84.23 27.57
  A 0.28 0.28 0.0 0 0 83.86 27.19
  Q 83.44 27.40 81.68 29.38
  A 0.36 0.36 0.0 0 1 81.06 29.10
  Q 81.43 26.01 80.67 23.26
  A 1.30 1.29 82.4 0 0 79.42 22.30
  L 76.56 22.30
  A 0.76 0.76 0.0 0 0 75.84 23.29
  Q 77.74 29.15 76.81 32.27
  A 0.54 0.54 0.0 0 0 77.75 32.75
  Q 78.35 31.96 79.29 31.51
  A 0.48 0.48 0.0 0 1 79.90 32.19
  Q 78.74 34.09 76.97 35.30
  L 76.40 33.19
  Q 76.91 29.52 75.32 24.44
  Q 73.78 19.48 79.06 17.92
  A 0.64 0.54 31.3 0 1 79.25 17.89
  L 81.58 17.89
  A 0.30 0.29 65.2 0 0 81.77 17.37
  C 80.22 16.05 79.29 15.56 77.69 16.94
  Q 77.65 16.97 75.94 18.01
  A 1.86 1.85 -1.4 0 0 75.27 18.71
  Q 73.82 21.43 70.74 19.22
  Q 67.77 17.08 64.17 19.78
  A 1.36 1.30 -10.0 0 0 63.73 20.38
  L 62.13 24.69
  A 0.56 0.56 0.0 0 1 61.05 24.50
  L 61.05 23.12
  A 1.32 1.30 -70.5 0 0 60.58 22.11
  Q 59.92 21.55 58.95 21.26
  L 54.11 11.41
  A 0.19 0.19 0.0 0 0 53.75 11.54
  C 54.31 13.78 55.58 15.64 55.50 18.49
  A 0.92 0.91 4.3 0 1 54.47 19.37
  L 49.93 18.80
  L 52.69 18.57
  A 0.38 0.38 0.0 0 0 53.01 18.04
  Q 52.14 16.14 50.40 16.00
  Q 47.55 15.75 46.03 15.83
  A 2.39 2.36 20.7 0 0 44.48 16.52
  L 43.35 17.65
  A 0.58 0.58 0.0 0 0 43.73 18.64
  L 46.80 18.80
  L 41.64 19.48
  A 1.32 1.32 0.0 0 1 40.21 17.78
  L 42.03 11.93
  A 0.16 0.16 0.0 0 0 41.77 11.76
  Q 41.26 12.21 40.82 13.09
  L 40.86 12.10
  A 0.76 0.75 -81.2 0 0 40.32 11.35
  Q 39.50 11.11 38.82 10.56
  A 0.85 0.85 0.0 0 1 39.45 9.05
  Q 41.92 9.31 42.10 6.92
  A 1.44 1.40 -25.0 0 1 42.39 6.16
  Q 44.17 3.87 45.04 3.53
  Q 49.86 1.66 54.59 6.17
  Z
  M 59.73 17.47
  L 59.98 16.65
  A 0.79 0.78 -82.0 0 1 60.70 16.10
  Q 64.09 15.97 64.40 15.77
  A 0.20 0.20 0.0 0 0 64.31 15.40
  C 62.30 15.15 58.81 14.30 59.37 17.44
  A 0.19 0.18 49.3 0 0 59.73 17.47
  Z"
/>
<path fill="#610302" d="
  M 87.59 29.78
  Q 87.55 30.42 87.70 30.77
  Q 87.80 31.02 88.19 30.63
  Q 91.22 30.66 93.59 31.87
  A 0.61 0.61 0.0 0 1 93.80 32.78
  L 91.12 36.25
  A 0.63 0.63 0.0 0 0 91.23 37.13
  L 94.45 39.60
  A 1.07 1.07 0.0 0 1 94.55 41.21
  L 91.25 44.51
  Q 90.57 44.25 90.31 45.00
  L 90.02 45.21
  Q 89.59 45.02 89.34 45.21
  Q 89.13 45.36 89.13 45.86
  Q 89.13 46.58 89.12 47.29
  L 89.03 45.77
  A 0.86 0.85 75.2 0 1 89.50 44.96
  Q 91.62 43.92 93.11 42.10
  A 1.68 1.50 32.9 0 0 92.45 39.72
  Q 91.61 39.28 91.00 38.54
  A 1.62 1.60 76.2 0 0 90.12 38.00
  Q 84.41 36.69 79.06 37.84
  A 1.98 1.92 17.2 0 0 78.23 38.26
  Q 77.52 38.91 77.01 38.98
  A 0.63 0.63 0.0 0 1 76.29 38.45
  Q 76.06 36.74 76.97 35.30
  Q 78.74 34.09 79.90 32.19
  A 0.48 0.48 0.0 0 0 79.29 31.51
  Q 78.35 31.96 77.75 32.75
  A 0.54 0.54 0.0 0 1 76.81 32.27
  Q 77.74 29.15 75.84 23.29
  A 0.76 0.76 0.0 0 1 76.56 22.30
  L 79.42 22.30
  A 1.30 1.29 82.4 0 1 80.67 23.26
  Q 81.43 26.01 81.06 29.10
  A 0.36 0.36 0.0 0 0 81.68 29.38
  Q 83.44 27.40 83.86 27.19
  A 0.28 0.28 0.0 0 1 84.23 27.57
  L 82.63 30.79
  A 1.00 1.00 0.0 0 0 84.03 32.10
  L 86.63 30.61
  A 0.96 0.95 -13.9 0 0 87.09 29.85
  Q 87.35 24.64 84.86 21.34
  C 82.57 18.30 83.25 15.36 78.45 14.33
  A 0.41 0.41 0.0 0 1 78.17 13.74
  Q 79.90 10.36 82.53 8.09
  A 0.41 0.41 0.0 0 0 82.55 7.49
  L 82.35 7.29
  A 0.29 0.29 0.0 0 0 81.95 7.29
  L 75.37 13.38
  A 1.95 1.93 11.7 0 1 74.83 13.73
  Q 70.71 15.45 67.96 13.33
  Q 70.74 13.74 73.10 11.59
  C 77.22 7.83 79.74 4.41 85.94 5.69
  A 0.76 0.75 6.5 0 1 86.54 6.44
  L 86.26 18.92
  A 2.46 2.39 -54.9 0 0 86.40 19.79
  Q 88.09 24.64 87.59 29.78
  Z
  M 90.47 36.22
  L 90.75 35.37
  A 0.66 0.66 0.0 0 0 90.10 34.51
  C 87.83 34.59 85.18 34.47 84.82 35.18
  A 0.42 0.41 22.9 0 0 85.06 35.75
  L 88.85 37.02
  A 1.27 1.27 0.0 0 0 90.47 36.22
  Z"
/>
<path fill="#b15d57" d="
  M 19.97 14.38
  A 0.15 0.15 0.0 0 1 19.76 14.38
  L 19.61 14.24
  A 7.17 0.45 45.1 0 1 14.87 8.84
  L 15.00 8.71
  A 7.17 0.45 45.1 0 1 20.38 13.47
  L 20.52 13.62
  A 0.15 0.15 0.0 0 1 20.52 13.83
  L 19.97 14.38
  Z"
/>
<path fill="#fcdad6" d="
  M 46.80 18.80
  L 49.93 18.80
  L 54.47 19.37
  A 0.92 0.91 4.3 0 0 55.50 18.49
  C 55.58 15.64 54.31 13.78 53.75 11.54
  A 0.19 0.19 0.0 0 1 54.11 11.41
  L 58.95 21.26
  Q 59.47 21.92 58.44 22.23
  Q 55.21 21.74 51.91 20.99
  C 49.75 20.49 48.04 20.56 46.00 20.62
  A 1.17 0.80 29.0 0 0 45.79 20.64
  L 37.45 22.27
  Q 36.82 22.19 36.86 21.58
  A 0.30 0.30 0.0 0 1 36.90 21.43
  L 37.70 19.79
  L 40.82 13.09
  Q 41.26 12.21 41.77 11.76
  A 0.16 0.16 0.0 0 1 42.03 11.93
  L 40.21 17.78
  A 1.32 1.32 0.0 0 0 41.64 19.48
  L 46.80 18.80
  Z"
/>
<path fill="#b15d57" d="
  M 31.26 15.09
  Q 33.60 14.77 36.19 15.08
  Q 36.89 15.17 37.08 15.80
  Q 37.27 16.42 37.07 17.02
  A 0.53 0.52 -51.4 0 1 36.12 17.13
  C 35.15 15.48 32.18 16.22 31.15 15.63
  A 0.29 0.29 0.0 0 1 31.26 15.09
  Z"
/>
<path fill="#b15d57" d="
  M 59.37 17.44
  C 58.81 14.30 62.30 15.15 64.31 15.40
  A 0.20 0.20 0.0 0 1 64.40 15.77
  Q 64.09 15.97 60.70 16.10
  A 0.79 0.78 -82.0 0 0 59.98 16.65
  L 59.73 17.47
  A 0.19 0.18 49.3 0 1 59.37 17.44
  Z"
/>
<path fill="#7c0f0c" d="
  M 49.93 18.80
  L 46.80 18.80
  L 43.73 18.64
  A 0.58 0.58 0.0 0 1 43.35 17.65
  L 44.48 16.52
  A 2.39 2.36 20.7 0 1 46.03 15.83
  Q 47.55 15.75 50.40 16.00
  Q 52.14 16.14 53.01 18.04
  A 0.38 0.38 0.0 0 1 52.69 18.57
  L 49.93 18.80
  Z"
/>
<path fill="#7c0f0c" d="
  M 17.75 16.75
  Q 16.20 16.02 15.14 16.63
  A 0.58 0.58 0.0 0 0 15.42 17.71
  Q 18.31 17.77 20.02 19.74
  A 0.77 0.77 0.0 0 1 19.22 20.98
  Q 18.24 20.69 15.88 21.15
  A 1.15 1.13 -80.4 0 0 15.11 21.71
  L 13.97 23.67
  A 0.51 0.51 0.0 0 1 13.37 23.90
  Q 12.81 23.71 12.50 22.86
  A 0.74 0.74 0.0 0 0 11.06 23.11
  Q 11.04 24.18 9.91 26.35
  A 3.21 3.02 63.8 0 0 9.61 27.33
  Q 9.13 31.40 12.89 31.58
  A 0.38 0.38 0.0 0 0 13.26 31.03
  Q 13.03 30.57 11.83 28.04
  Q 11.67 27.70 12.07 27.29
  A 0.37 0.36 -52.2 0 1 12.51 27.23
  L 13.38 27.73
  A 0.44 0.43 23.7 0 0 14.01 27.49
  L 15.12 23.90
  A 2.40 2.39 -83.8 0 1 17.19 22.23
  L 19.26 22.05
  A 1.14 1.14 0.0 0 1 20.41 23.63
  Q 18.92 27.13 19.84 31.44
  L 19.66 33.50
  L 19.92 38.75
  A 0.64 0.64 0.0 0 1 18.92 39.31
  C 14.32 36.20 10.91 37.34 5.91 38.03
  A 2.67 2.58 -60.0 0 0 5.14 38.25
  Q 1.77 39.74 2.64 42.19
  Q 1.81 41.77 1.50 41.23
  Q 1.16 40.64 1.74 39.88
  Q 3.06 38.15 5.14 37.04
  Q 5.51 36.76 5.34 36.39
  Q 5.07 35.80 4.51 35.55
  L 2.31 32.72
  A 0.57 0.57 0.0 0 1 2.52 31.86
  Q 4.77 30.80 7.47 30.65
  Q 8.44 30.85 8.49 30.28
  Q 8.11 25.95 9.05 22.07
  Q 11.77 20.25 13.30 17.37
  A 1.50 1.50 0.0 0 1 13.95 16.72
  Q 15.78 15.77 17.75 16.75
  Z
  M 5.76 36.39
  A 1.32 1.32 0.0 0 0 7.45 37.19
  L 11.37 35.80
  A 0.43 0.42 -23.9 0 0 11.61 35.20
  C 11.22 34.47 8.47 34.64 6.11 34.60
  A 0.68 0.68 0.0 0 0 5.45 35.51
  L 5.76 36.39
  Z"
/>
<path fill="#b15d57" d="
  M 76.40 33.19
  Q 76.02 30.48 75.49 27.67
  Q 74.42 22.06 68.71 22.30
  A 1.83 1.82 8.5 0 0 67.06 23.52
  Q 65.47 28.16 64.70 32.02
  Q 64.26 34.26 62.07 34.68
  Q 58.02 35.46 54.81 34.66
  A 0.87 0.87 0.0 0 1 54.23 33.46
  Q 55.93 29.71 58.79 27.59
  A 2.36 2.35 86.2 0 0 59.46 26.82
  Q 60.39 25.15 59.22 25.30
  Q 60.65 23.37 58.44 22.23
  Q 59.47 21.92 58.95 21.26
  Q 59.92 21.55 60.58 22.11
  A 1.32 1.30 -70.5 0 1 61.05 23.12
  L 61.05 24.50
  A 0.56 0.56 0.0 0 0 62.13 24.69
  L 63.73 20.38
  A 1.36 1.30 -10.0 0 1 64.17 19.78
  Q 67.77 17.08 70.74 19.22
  Q 73.82 21.43 75.27 18.71
  A 1.86 1.85 -1.4 0 1 75.94 18.01
  Q 77.65 16.97 77.69 16.94
  C 79.29 15.56 80.22 16.05 81.77 17.37
  A 0.30 0.29 65.2 0 1 81.58 17.89
  L 79.25 17.89
  A 0.64 0.54 31.3 0 0 79.06 17.92
  Q 73.78 19.48 75.32 24.44
  Q 76.91 29.52 76.40 33.19
  Z"
/>
<path fill="#b15d57" d="
  M 17.75 16.75
  L 22.57 19.49
  A 1.23 1.23 0.0 0 0 23.83 19.46
  Q 28.69 16.46 32.42 20.58
  A 3.11 3.04 13.4 0 1 32.97 21.45
  L 33.88 23.69
  A 0.44 0.44 0.0 0 0 34.72 23.48
  Q 34.35 19.98 37.70 19.79
  L 36.90 21.43
  A 0.30 0.30 0.0 0 0 36.86 21.58
  Q 36.82 22.19 37.45 22.27
  Q 34.70 24.14 39.66 27.68
  L 38.74 27.50
  A 0.54 0.53 83.5 0 0 38.15 28.25
  C 39.06 30.31 41.35 31.90 41.65 33.73
  A 0.55 0.54 83.1 0 1 41.16 34.36
  C 38.21 34.64 35.00 35.00 32.59 33.43
  A 1.07 1.05 17.9 0 1 32.11 32.51
  Q 32.15 30.39 31.32 29.02
  C 30.12 27.07 30.06 25.56 29.16 23.22
  A 1.94 1.94 0.0 0 0 27.58 21.99
  C 21.38 21.21 20.71 26.65 19.84 31.44
  Q 18.92 27.13 20.41 23.63
  A 1.14 1.14 0.0 0 0 19.26 22.05
  L 17.19 22.23
  A 2.40 2.39 -83.8 0 0 15.12 23.90
  L 14.01 27.49
  A 0.44 0.43 23.7 0 1 13.38 27.73
  L 12.51 27.23
  A 0.37 0.36 -52.2 0 0 12.07 27.29
  Q 11.67 27.70 11.83 28.04
  Q 13.03 30.57 13.26 31.03
  A 0.38 0.38 0.0 0 1 12.89 31.58
  Q 9.13 31.40 9.61 27.33
  A 3.21 3.02 63.8 0 1 9.91 26.35
  Q 11.04 24.18 11.06 23.11
  A 0.74 0.74 0.0 0 1 12.50 22.86
  Q 12.81 23.71 13.37 23.90
  A 0.51 0.51 0.0 0 0 13.97 23.67
  L 15.11 21.71
  A 1.15 1.13 -80.4 0 1 15.88 21.15
  Q 18.24 20.69 19.22 20.98
  A 0.77 0.77 0.0 0 0 20.02 19.74
  Q 18.31 17.77 15.42 17.71
  A 0.58 0.58 0.0 0 1 15.14 16.63
  Q 16.20 16.02 17.75 16.75
  Z"
/>
<path fill="#280d07" d="
  M 58.44 22.23
  Q 60.65 23.37 59.22 25.30
  Q 57.55 27.26 55.11 28.68
  A 3.69 3.67 -85.3 0 0 54.09 29.55
  Q 52.19 31.84 49.72 33.14
  L 46.77 33.12
  C 43.52 32.17 42.46 29.02 39.66 27.68
  Q 34.70 24.14 37.45 22.27
  L 45.79 20.64
  A 1.17 0.80 29.0 0 1 46.00 20.62
  C 48.04 20.56 49.75 20.49 51.91 20.99
  Q 55.21 21.74 58.44 22.23
  Z"
/>
<path fill="#e8afaa" d="
  M 39.66 27.68
  C 42.46 29.02 43.52 32.17 46.77 33.12
  L 38.27 37.01
  A 0.38 0.38 0.0 0 0 38.06 37.45
  Q 38.24 38.15 39.79 38.08
  Q 34.49 39.35 30.20 35.39
  Q 29.64 34.27 28.83 33.90
  Q 28.60 33.56 28.54 33.04
  Q 28.81 32.14 28.26 32.02
  Q 28.65 30.20 28.04 28.91
  L 27.99 27.80
  Q 28.01 25.96 27.34 25.33
  A 2.24 2.24 0.0 0 0 24.10 25.50
  Q 21.04 29.08 20.72 33.67
  Q 20.23 34.13 19.66 33.50
  L 19.84 31.44
  C 20.71 26.65 21.38 21.21 27.58 21.99
  A 1.94 1.94 0.0 0 1 29.16 23.22
  C 30.06 25.56 30.12 27.07 31.32 29.02
  Q 32.15 30.39 32.11 32.51
  A 1.07 1.05 17.9 0 0 32.59 33.43
  C 35.00 35.00 38.21 34.64 41.16 34.36
  A 0.55 0.54 83.1 0 0 41.65 33.73
  C 41.35 31.90 39.06 30.31 38.15 28.25
  A 0.54 0.53 83.5 0 1 38.74 27.50
  L 39.66 27.68
  Z"
/>
<path fill="#e8afaa" d="
  M 76.40 33.19
  L 76.97 35.30
  Q 76.06 36.74 76.29 38.45
  A 0.63 0.63 0.0 0 0 77.01 38.98
  Q 77.52 38.91 78.23 38.26
  A 1.98 1.92 17.2 0 1 79.06 37.84
  Q 84.41 36.69 90.12 38.00
  A 1.62 1.60 76.2 0 1 91.00 38.54
  Q 91.61 39.28 92.45 39.72
  A 1.68 1.50 32.9 0 1 93.11 42.10
  Q 91.62 43.92 89.50 44.96
  A 0.86 0.85 75.2 0 0 89.03 45.77
  L 89.12 47.29
  Q 89.11 47.76 89.32 48.31
  Q 88.49 47.40 88.17 46.22
  A 1.09 1.06 8.4 0 0 87.66 45.55
  L 83.56 43.18
  A 3.86 3.84 -40.3 0 0 80.29 42.92
  C 78.00 43.79 76.84 44.25 75.04 46.36
  Q 74.10 47.47 72.85 48.31
  Q 73.10 47.34 72.21 47.19
  Q 72.45 46.72 72.35 46.25
  Q 72.27 45.89 71.70 45.94
  Q 72.79 45.37 73.51 43.60
  C 76.02 37.45 76.44 30.09 71.80 25.45
  A 2.23 2.20 44.2 0 0 68.63 25.47
  Q 67.99 26.15 68.27 27.53
  L 68.10 28.46
  L 67.95 29.45
  Q 67.46 30.74 67.79 32.03
  L 67.68 32.46
  Q 67.39 32.76 67.52 33.22
  Q 66.98 34.75 66.00 35.42
  Q 62.23 38.78 57.53 38.18
  Q 54.66 37.81 51.79 37.52
  L 54.88 37.05
  A 0.29 0.29 0.0 0 0 54.99 36.52
  L 49.72 33.14
  Q 52.19 31.84 54.09 29.55
  A 3.69 3.67 -85.3 0 1 55.11 28.68
  Q 57.55 27.26 59.22 25.30
  Q 60.39 25.15 59.46 26.82
  A 2.36 2.35 86.2 0 1 58.79 27.59
  Q 55.93 29.71 54.23 33.46
  A 0.87 0.87 0.0 0 0 54.81 34.66
  Q 58.02 35.46 62.07 34.68
  Q 64.26 34.26 64.70 32.02
  Q 65.47 28.16 67.06 23.52
  A 1.83 1.82 8.5 0 1 68.71 22.30
  Q 74.42 22.06 75.49 27.67
  Q 76.02 30.48 76.40 33.19
  Z"
/>
<path fill="#610302" d="
  M 27.99 27.80
  Q 27.30 26.97 26.44 27.47
  A 0.95 0.94 -6.5 0 0 26.03 27.98
  Q 23.13 36.79 27.54 44.38
  Q 26.38 45.87 23.90 45.73
  Q 20.58 40.46 20.72 33.67
  Q 21.04 29.08 24.10 25.50
  A 2.24 2.24 0.0 0 1 27.34 25.33
  Q 28.01 25.96 27.99 27.80
  Z"
/>
<path fill="#610302" d="
  M 71.70 45.94
  Q 69.48 45.48 68.53 44.40
  Q 73.17 36.43 70.00 27.75
  Q 69.53 26.45 68.27 27.53
  Q 67.99 26.15 68.63 25.47
  A 2.23 2.20 44.2 0 1 71.80 25.45
  C 76.44 30.09 76.02 37.45 73.51 43.60
  Q 72.79 45.37 71.70 45.94
  Z"
/>
<path fill="#280d07" d="
  M 68.07 30.21
  L 67.95 29.45
  L 68.10 28.46
  L 68.07 30.21
  Z"
/>
<path fill="#b15d57" d="
  M 28.26 32.02
  Q 27.75 30.60 28.04 28.91
  Q 28.65 30.20 28.26 32.02
  Z"
/>
<path fill="#b15d57" d="
  M 67.95 29.45
  L 68.07 30.21
  Q 68.08 31.16 67.79 32.03
  Q 67.46 30.74 67.95 29.45
  Z"
/>
<path fill="#280d07" d="
  M 88.19 30.63
  Q 87.80 31.02 87.70 30.77
  Q 87.55 30.42 87.59 29.78
  Q 87.64 30.65 88.19 30.63
  Z"
/>
<path fill="#280d07" d="
  M 8.49 30.28
  Q 8.44 30.85 7.47 30.65
  Q 8.04 30.71 8.49 30.28
  Z"
/>
<path fill="#b15d57" d="
  M 28.54 33.04
  Q 28.18 32.67 28.26 32.02
  Q 28.81 32.14 28.54 33.04
  Z"
/>
<path fill="#b15d57" d="
  M 67.68 32.46
  Q 67.73 32.92 67.52 33.22
  Q 67.39 32.76 67.68 32.46
  Z"
/>
<path fill="#feede8" d="
  M 46.77 33.12
  L 49.72 33.14
  L 54.99 36.52
  A 0.29 0.29 0.0 0 1 54.88 37.05
  L 51.79 37.52
  L 39.79 38.08
  Q 38.24 38.15 38.06 37.45
  A 0.38 0.38 0.0 0 1 38.27 37.01
  L 46.77 33.12
  Z"
/>
<path fill="#cf8482" d="
  M 20.72 33.67
  Q 20.58 40.46 23.90 45.73
  Q 23.21 45.59 23.16 46.12
  A 0.98 0.91 -1.0 0 0 24.25 47.10
  Q 26.61 46.82 26.88 46.81
  A 2.89 2.88 -16.6 0 1 29.40 48.17
  L 33.17 54.23
  A 1.42 1.39 32.9 0 1 33.37 55.11
  C 32.91 59.47 38.50 58.48 40.86 57.73
  Q 46.58 55.89 52.74 57.05
  A 4.50 4.00 57.8 0 1 53.43 57.25
  C 55.97 58.26 59.25 59.36 61.29 57.61
  A 0.38 0.26 -16.1 0 0 61.38 57.50
  L 66.29 48.34
  A 2.39 2.38 -74.9 0 1 68.45 47.09
  L 72.21 47.19
  Q 73.10 47.34 72.85 48.31
  Q 69.48 50.21 68.88 51.15
  Q 65.77 56.02 61.60 59.93
  A 1.88 1.88 0.0 0 1 60.74 60.38
  Q 58.20 60.94 57.22 60.48
  Q 48.91 56.57 40.73 59.74
  C 38.06 60.78 35.75 61.19 33.70 59.35
  Q 31.42 57.29 28.57 52.52
  Q 26.91 49.75 24.17 48.90
  A 2.03 1.99 -9.8 0 1 23.16 48.20
  Q 20.86 45.21 16.13 42.45
  A 2.80 2.80 0.0 0 0 13.31 42.45
  L 9.69 44.54
  A 3.48 3.45 86.2 0 0 8.19 46.27
  L 6.83 49.63
  Q 7.20 46.49 6.38 44.83
  L 12.27 42.05
  A 0.84 0.84 0.0 0 0 11.83 40.45
  L 5.71 40.99
  A 0.91 0.91 0.0 0 0 5.32 41.12
  Q 4.13 41.89 4.54 43.57
  Q 4.17 43.45 3.75 43.49
  L 2.64 42.19
  Q 1.77 39.74 5.14 38.25
  A 2.67 2.58 -60.0 0 1 5.91 38.03
  C 10.91 37.34 14.32 36.20 18.92 39.31
  A 0.64 0.64 0.0 0 0 19.92 38.75
  L 19.66 33.50
  Q 20.23 34.13 20.72 33.67
  Z"
/>
<path fill="#b15d57" d="
  M 30.20 35.39
  Q 30.15 35.48 30.10 35.56
  Q 29.20 34.90 28.83 33.90
  Q 29.64 34.27 30.20 35.39
  Z"
/>
<path fill="#e8afaa" d="
  M 90.47 36.22
  A 1.27 1.27 0.0 0 1 88.85 37.02
  L 85.06 35.75
  A 0.42 0.41 22.9 0 1 84.82 35.18
  C 85.18 34.47 87.83 34.59 90.10 34.51
  A 0.66 0.66 0.0 0 1 90.75 35.37
  L 90.47 36.22
  Z"
/>
<path fill="#e8afaa" d="
  M 6.11 34.60
  C 8.47 34.64 11.22 34.47 11.61 35.20
  A 0.43 0.42 -23.9 0 1 11.37 35.80
  L 7.45 37.19
  A 1.32 1.32 0.0 0 1 5.76 36.39
  L 5.45 35.51
  A 0.68 0.68 0.0 0 1 6.11 34.60
  Z"
/>
<path fill="#280d07" d="
  M 5.14 37.04
  Q 5.09 36.27 4.51 35.55
  Q 5.07 35.80 5.34 36.39
  Q 5.51 36.76 5.14 37.04
  Z"
/>
<path fill="#662412" fill-opacity="0.996" d="
  M 30.20 35.39
  Q 34.49 39.35 39.79 38.08
  L 51.79 37.52
  Q 54.66 37.81 57.53 38.18
  Q 62.23 38.78 66.00 35.42
  Q 65.73 38.17 65.32 40.64
  C 65.19 41.39 64.41 42.54 64.52 43.05
  A 0.57 0.55 88.3 0 0 64.97 43.49
  L 67.54 43.92
  C 63.51 46.41 64.53 54.84 58.05 54.15
  Q 54.13 53.74 51.99 53.03
  A 2.42 2.16 -33.0 0 0 51.28 52.92
  L 44.79 52.92
  A 3.19 2.94 34.3 0 0 43.90 53.05
  Q 41.22 53.87 37.99 54.08
  C 30.97 54.54 32.95 46.52 28.49 43.88
  Q 29.60 43.41 30.88 43.56
  A 0.55 0.55 0.0 0 0 31.48 42.92
  L 30.10 35.56
  Q 30.15 35.48 30.20 35.39
  Z
  M 33.95 45.67
  Q 33.91 45.74 33.51 46.07
  Q 33.23 46.31 33.22 46.54
  Q 33.21 46.93 33.75 47.17
  Q 34.49 48.92 35.05 48.54
  L 35.55 52.62
  A 0.44 0.43 86.2 0 0 35.98 53.00
  L 36.48 53.00
  A 0.56 0.55 -86.5 0 0 37.03 52.51
  Q 37.36 49.70 35.71 47.37
  L 36.25 47.24
  L 38.23 49.76
  A 1.15 1.09 76.4 0 0 38.83 50.15
  L 41.26 50.76
  Q 39.13 50.55 38.29 51.18
  A 0.83 0.82 29.6 0 0 38.70 52.66
  Q 39.79 52.77 40.98 52.67
  Q 41.74 52.60 41.99 52.16
  Q 42.26 51.69 41.84 51.02
  L 43.46 51.10
  Q 43.16 51.11 43.11 51.44
  A 0.40 0.40 0.0 0 0 43.37 51.88
  Q 46.05 52.82 47.18 51.38
  L 54.08 51.11
  Q 53.00 53.67 57.22 52.70
  A 0.92 0.92 0.0 0 0 57.10 50.88
  L 55.02 50.70
  L 57.23 50.19
  A 1.11 1.11 0.0 0 0 57.81 49.82
  L 59.69 47.44
  Q 58.66 49.83 59.19 52.31
  A 0.58 0.58 0.0 0 0 60.33 52.27
  L 60.87 48.24
  Q 61.95 49.19 62.52 46.15
  L 61.29 45.49
  L 61.17 39.34
  A 0.50 0.50 0.0 0 0 60.22 39.14
  L 59.28 41.15
  L 59.03 39.76
  A 0.78 0.77 84.6 0 0 58.27 39.13
  L 55.40 39.13
  A 0.68 0.66 87.2 0 0 54.74 39.87
  L 54.77 40.31
  A 0.97 0.96 87.7 0 0 55.72 41.19
  L 59.02 41.24
  L 52.81 41.85
  L 50.02 41.49
  Q 52.02 41.65 53.63 40.66
  A 0.80 0.79 29.1 0 0 53.21 39.19
  L 49.28 39.19
  A 0.66 0.66 0.0 0 0 48.63 39.98
  Q 48.85 41.17 49.78 41.38
  L 43.01 41.80
  Q 42.58 41.43 41.78 41.57
  L 40.79 41.60
  L 38.21 41.56
  Q 37.34 41.52 37.10 41.26
  L 40.66 40.93
  A 0.45 0.44 -5.9 0 0 41.06 40.45
  L 41.03 40.13
  A 0.69 0.69 0.0 0 0 40.28 39.50
  L 37.65 39.74
  A 0.98 0.98 0.0 0 0 36.79 40.46
  Q 36.74 40.64 36.70 40.87
  L 35.86 39.04
  A 0.42 0.42 0.0 0 0 35.10 39.04
  Q 34.63 40.04 34.71 41.22
  Q 34.27 40.98 34.07 41.29
  Q 33.83 41.68 33.86 42.21
  L 33.88 39.87
  A 1.31 1.31 0.0 0 0 33.23 38.74
  L 32.76 38.47
  A 0.53 0.53 0.0 0 0 31.97 38.88
  Q 31.65 42.42 33.95 45.67
  Z
  M 62.63 45.01
  C 64.32 43.83 64.83 41.00 64.60 39.08
  A 0.81 0.81 0.0 0 0 63.28 38.56
  Q 62.65 39.09 62.60 39.58
  Q 62.05 44.74 62.05 44.75
  A 0.37 0.37 0.0 0 0 62.63 45.01
  Z
  M 42.1607 40.0760
  A 2.82 1.09 -178.7 0 0 44.9553 41.2297
  A 2.82 1.09 -178.7 0 0 47.7993 40.2040
  A 2.82 1.09 -178.7 0 0 45.0047 39.0503
  A 2.82 1.09 -178.7 0 0 42.1607 40.0760
  Z"
/>
<path fill="#eeb389" fill-opacity="0.996" d="
  M 33.86 42.21
  Q 34.33 43.92 33.95 45.67
  Q 31.65 42.42 31.97 38.88
  A 0.53 0.53 0.0 0 1 32.76 38.47
  L 33.23 38.74
  A 1.31 1.31 0.0 0 1 33.88 39.87
  L 33.86 42.21
  Z"
/>
<path fill="#eeb389" fill-opacity="0.996" d="
  M 64.60 39.08
  C 64.83 41.00 64.32 43.83 62.63 45.01
  A 0.37 0.37 0.0 0 1 62.05 44.75
  Q 62.05 44.74 62.60 39.58
  Q 62.65 39.09 63.28 38.56
  A 0.81 0.81 0.0 0 1 64.60 39.08
  Z"
/>
<path fill="#eeb389" fill-opacity="0.996" d="
  M 50.02 41.49
  Q 49.90 41.44 49.78 41.38
  Q 48.85 41.17 48.63 39.98
  A 0.66 0.66 0.0 0 1 49.28 39.19
  L 53.21 39.19
  A 0.80 0.79 29.1 0 1 53.63 40.66
  Q 52.02 41.65 50.02 41.49
  Z"
/>
<path fill="#eeb389" fill-opacity="0.996" d="
  M 59.28 41.15
  Q 59.32 40.87 59.02 41.24
  L 55.72 41.19
  A 0.97 0.96 87.7 0 1 54.77 40.31
  L 54.74 39.87
  A 0.68 0.66 87.2 0 1 55.40 39.13
  L 58.27 39.13
  A 0.78 0.77 84.6 0 1 59.03 39.76
  L 59.28 41.15
  Z"
/>
<ellipse fill="#eeb389" fill-opacity="0.996" cx="0.00" cy="0.00" transform="translate(44.98,40.14) rotate(-178.7)" rx="2.82" ry="1.09"/>
<path fill="#eeb389" fill-opacity="0.996" d="
  M 37.10 41.26
  Q 36.71 40.50 36.70 40.87
  Q 36.74 40.64 36.79 40.46
  A 0.98 0.98 0.0 0 1 37.65 39.74
  L 40.28 39.50
  A 0.69 0.69 0.0 0 1 41.03 40.13
  L 41.06 40.45
  A 0.45 0.44 -5.9 0 1 40.66 40.93
  L 37.10 41.26
  Z"
/>
<path fill="#fcdad6" d="
  M 6.38 44.83
  Q 5.15 44.24 4.54 43.57
  Q 4.13 41.89 5.32 41.12
  A 0.91 0.91 0.0 0 1 5.71 40.99
  L 11.83 40.45
  A 0.84 0.84 0.0 0 1 12.27 42.05
  L 6.38 44.83
  Z"
/>
<path fill="#280d07" d="
  M 34.71 41.22
  C 34.44 43.52 34.30 45.84 36.25 47.24
  L 35.71 47.37
  Q 35.39 47.24 35.05 47.29
  Q 33.49 46.38 33.75 47.17
  Q 33.21 46.93 33.22 46.54
  Q 33.23 46.31 33.51 46.07
  Q 33.91 45.74 33.95 45.67
  Q 34.33 43.92 33.86 42.21
  Q 33.83 41.68 34.07 41.29
  Q 34.27 40.98 34.71 41.22
  Z"
/>
<path fill="#280d07" d="
  M 40.79 41.60
  L 38.21 41.56
  L 40.79 41.60
  Z"
/>
<path fill="#280d07" d="
  M 43.01 41.80
  L 41.78 41.57
  Q 42.58 41.43 43.01 41.80
  Z"
/>
<path fill="#280d07" d="
  M 49.78 41.38
  Q 49.90 41.44 50.02 41.49
  L 52.81 41.85
  L 43.01 41.80
  L 49.78 41.38
  Z"
/>
<path fill="#fcdad6" d="
  M 72.85 48.31
  Q 74.10 47.47 75.04 46.36
  C 76.84 44.25 78.00 43.79 80.29 42.92
  A 3.86 3.84 -40.3 0 1 83.56 43.18
  L 87.66 45.55
  A 1.09 1.06 8.4 0 1 88.17 46.22
  Q 88.49 47.40 89.32 48.31
  L 89.47 49.04
  L 89.60 50.17
  A 0.66 0.65 -24.4 0 1 89.38 50.74
  Q 88.83 51.21 88.04 50.96
  Q 81.27 47.41 73.80 49.75
  A 3.42 3.27 18.0 0 0 72.91 50.18
  Q 70.63 51.75 69.15 54.71
  Q 67.57 57.86 65.76 60.82
  Q 63.13 65.11 58.30 63.46
  C 56.23 62.76 54.53 61.37 52.55 61.01
  C 47.23 60.06 43.43 60.61 38.93 63.15
  Q 34.58 65.61 30.48 61.49
  A 3.00 2.84 -81.6 0 1 29.90 60.66
  Q 27.95 56.66 27.08 54.98
  Q 25.20 51.31 21.85 49.84
  A 1.34 1.33 57.7 0 0 21.37 49.73
  L 14.32 49.37
  A 1.11 1.11 0.0 0 0 13.60 49.59
  C 11.93 50.85 9.83 49.25 8.01 51.07
  L 7.10 50.88
  A 0.62 0.61 4.4 0 1 6.61 50.32
  L 6.57 49.80
  Q 6.74 49.62 6.83 49.63
  L 8.19 46.27
  A 3.48 3.45 86.2 0 1 9.69 44.54
  L 13.31 42.45
  A 2.80 2.80 0.0 0 1 16.13 42.45
  Q 20.86 45.21 23.16 48.20
  A 2.03 1.99 -9.8 0 0 24.17 48.90
  Q 26.91 49.75 28.57 52.52
  Q 31.42 57.29 33.70 59.35
  C 35.75 61.19 38.06 60.78 40.73 59.74
  Q 48.91 56.57 57.22 60.48
  Q 58.20 60.94 60.74 60.38
  A 1.88 1.88 0.0 0 0 61.60 59.93
  Q 65.77 56.02 68.88 51.15
  Q 69.48 50.21 72.85 48.31
  Z"
/>
<path fill="#b15d57" d="
  M 4.54 43.57
  Q 5.15 44.24 6.38 44.83
  Q 7.20 46.49 6.83 49.63
  Q 6.74 49.62 6.57 49.80
  L 6.40 47.79
  Q 6.54 46.87 6.38 46.09
  A 1.29 1.26 -76.3 0 0 5.96 45.38
  L 3.75 43.49
  Q 4.17 43.45 4.54 43.57
  Z"
/>
<path fill="#fcdad6" d="
  M 28.49 43.88
  C 32.95 46.52 30.97 54.54 37.99 54.08
  Q 41.22 53.87 43.90 53.05
  A 3.19 2.94 34.3 0 1 44.79 52.92
  L 51.28 52.92
  A 2.42 2.16 -33.0 0 1 51.99 53.03
  Q 54.13 53.74 58.05 54.15
  C 64.53 54.84 63.51 46.41 67.54 43.92
  L 68.53 44.40
  Q 69.48 45.48 71.70 45.94
  Q 72.27 45.89 72.35 46.25
  Q 72.45 46.72 72.21 47.19
  L 68.45 47.09
  A 2.39 2.38 -74.9 0 0 66.29 48.34
  L 61.38 57.50
  A 0.38 0.26 -16.1 0 1 61.29 57.61
  C 59.25 59.36 55.97 58.26 53.43 57.25
  A 4.50 4.00 57.8 0 0 52.74 57.05
  Q 46.58 55.89 40.86 57.73
  C 38.50 58.48 32.91 59.47 33.37 55.11
  A 1.42 1.39 32.9 0 0 33.17 54.23
  L 29.40 48.17
  A 2.89 2.88 -16.6 0 0 26.88 46.81
  Q 26.61 46.82 24.25 47.10
  A 0.98 0.91 -1.0 0 1 23.16 46.12
  Q 23.21 45.59 23.90 45.73
  Q 26.38 45.87 27.54 44.38
  L 28.49 43.88
  Z"
/>
<path fill="#280d07" d="
  M 91.25 44.51
  Q 90.80 44.90 90.31 45.00
  Q 90.57 44.25 91.25 44.51
  Z"
/>
<path fill="#b15d57" d="
  M 90.02 45.21
  L 89.61 46.03
  Q 89.75 47.39 89.32 48.31
  Q 89.11 47.76 89.12 47.29
  Q 89.13 46.58 89.13 45.86
  Q 89.13 45.36 89.34 45.21
  Q 89.59 45.02 90.02 45.21
  Z"
/>
<path fill="#280d07" d="
  M 61.29 45.49
  L 62.52 46.15
  Q 61.26 46.90 61.05 47.78
  Q 60.98 47.06 60.43 46.74
  Q 61.02 46.20 61.29 45.49
  Z"
/>
<path fill="#280d07" d="
  M 89.61 46.03
  L 89.70 49.01
  Q 89.59 49.02 89.47 49.04
  L 89.32 48.31
  Q 89.75 47.39 89.61 46.03
  Z"
/>
<path fill="#eeb389" fill-opacity="0.996" d="
  M 60.43 46.74
  Q 60.98 47.06 61.05 47.78
  Q 61.05 48.15 60.87 48.24
  L 60.33 52.27
  A 0.58 0.58 0.0 0 1 59.19 52.31
  Q 58.66 49.83 59.69 47.44
  L 60.43 46.74
  Z"
/>
<path fill="#cf8482" d="
  M 35.71 47.37
  Q 37.36 49.70 37.03 52.51
  A 0.56 0.55 -86.5 0 1 36.48 53.00
  L 35.98 53.00
  A 0.44 0.43 86.2 0 1 35.55 52.62
  L 35.05 48.54
  L 35.05 47.29
  Q 35.39 47.24 35.71 47.37
  Z"
/>
<path fill="#610302" d="
  M 6.40 47.79
  L 6.57 49.80
  L 6.61 50.32
  A 0.62 0.61 4.4 0 0 7.10 50.88
  L 8.01 51.07
  L 13.60 50.68
  A 2.50 2.50 0.0 0 1 16.26 52.95
  L 16.42 54.72
  A 0.71 0.71 0.0 0 0 16.92 55.34
  L 21.49 56.76
  A 0.92 0.75 69.1 0 1 21.77 56.92
  Q 29.72 63.48 38.04 68.38
  Q 50.52 73.95 61.54 66.21
  Q 63.50 66.01 66.65 63.19
  L 66.20 64.22
  Q 65.51 64.53 65.21 65.22
  C 57.79 72.74 50.27 76.98 39.69 72.34
  Q 36.64 70.99 31.54 65.78
  Q 31.56 64.31 29.68 64.02
  C 25.94 60.95 23.24 57.85 18.47 56.68
  C 16.29 56.15 15.73 55.07 15.68 53.04
  A 1.21 1.20 -0.7 0 0 14.47 51.87
  L 7.18 51.87
  A 0.79 0.79 0.0 0 1 6.39 51.08
  L 6.40 47.79
  Z"
/>
<path fill="#e29e9a" d="
  M 88.04 50.96
  L 82.55 50.56
  A 2.18 2.18 0.0 0 0 80.26 52.25
  L 79.69 54.71
  Q 79.09 55.39 78.74 55.51
  Q 71.78 57.89 66.65 63.19
  Q 63.50 66.01 61.54 66.21
  Q 56.65 65.65 54.52 63.53
  A 2.14 2.12 -12.9 0 0 53.70 63.02
  Q 47.91 61.08 41.83 63.14
  A 3.41 3.24 -71.2 0 0 40.97 63.59
  L 37.79 65.90
  A 1.00 1.00 0.0 0 0 37.39 66.84
  Q 37.48 67.60 38.04 68.38
  Q 29.72 63.48 21.77 56.92
  A 0.92 0.75 69.1 0 0 21.49 56.76
  L 16.92 55.34
  A 0.71 0.71 0.0 0 1 16.42 54.72
  L 16.26 52.95
  A 2.50 2.50 0.0 0 0 13.60 50.68
  L 8.01 51.07
  C 9.83 49.25 11.93 50.85 13.60 49.59
  A 1.11 1.11 0.0 0 1 14.32 49.37
  L 21.37 49.73
  A 1.34 1.33 57.7 0 1 21.85 49.84
  Q 25.20 51.31 27.08 54.98
  Q 27.95 56.66 29.90 60.66
  A 3.00 2.84 -81.6 0 0 30.48 61.49
  Q 34.58 65.61 38.93 63.15
  C 43.43 60.61 47.23 60.06 52.55 61.01
  C 54.53 61.37 56.23 62.76 58.30 63.46
  Q 63.13 65.11 65.76 60.82
  Q 67.57 57.86 69.15 54.71
  Q 70.63 51.75 72.91 50.18
  A 3.42 3.27 18.0 0 1 73.80 49.75
  Q 81.27 47.41 88.04 50.96
  Z"
/>
<path fill="#662412" fill-opacity="0.996" d="
  M 89.70 49.01
  L 89.71 50.86
  A 1.38 1.37 2.3 0 1 88.22 52.23
  Q 84.85 51.95 81.93 51.65
  Q 80.26 51.48 80.23 54.22
  L 79.69 54.71
  L 80.26 52.25
  A 2.18 2.18 0.0 0 1 82.55 50.56
  L 88.04 50.96
  Q 88.83 51.21 89.38 50.74
  A 0.66 0.65 -24.4 0 0 89.60 50.17
  L 89.47 49.04
  Q 89.59 49.02 89.70 49.01
  Z"
/>
<path fill="#eeb389" fill-opacity="0.996" d="
  M 41.26 50.76
  Q 41.52 50.81 41.84 51.02
  Q 42.26 51.69 41.99 52.16
  Q 41.74 52.60 40.98 52.67
  Q 39.79 52.77 38.70 52.66
  A 0.83 0.82 29.6 0 1 38.29 51.18
  Q 39.13 50.55 41.26 50.76
  Z"
/>
<path fill="#eeb389" fill-opacity="0.996" d="
  M 55.02 50.70
  L 57.10 50.88
  A 0.92 0.92 0.0 0 1 57.22 52.70
  Q 53.00 53.67 54.08 51.11
  Q 54.62 50.76 55.02 50.70
  Z"
/>
<path fill="#cf8482" d="
  M 47.18 51.38
  Q 46.05 52.82 43.37 51.88
  A 0.40 0.40 0.0 0 1 43.11 51.44
  Q 43.16 51.11 43.46 51.10
  Q 45.39 50.68 47.18 51.38
  Z"
/>
<path fill="#280d07" d="
  M 80.23 54.22
  Q 79.92 56.52 78.01 57.02
  Q 72.16 58.55 70.01 60.77
  Q 68.22 62.62 66.20 64.22
  L 66.65 63.19
  Q 71.78 57.89 78.74 55.51
  Q 79.09 55.39 79.69 54.71
  L 80.23 54.22
  Z"
/>
<path fill="#feede8" d="
  M 61.54 66.21
  Q 50.52 73.95 38.04 68.38
  Q 37.48 67.60 37.39 66.84
  A 1.00 1.00 0.0 0 1 37.79 65.90
  L 40.97 63.59
  A 3.41 3.24 -71.2 0 1 41.83 63.14
  Q 47.91 61.08 53.70 63.02
  A 2.14 2.12 -12.9 0 1 54.52 63.53
  Q 56.65 65.65 61.54 66.21
  Z"
/>
<path fill="#280d07" d="
  M 31.54 65.78
  Q 30.44 65.13 29.68 64.02
  Q 31.56 64.31 31.54 65.78
  Z"
/>
<path fill="#280d07" d="
  M 66.20 64.22
  Q 65.83 64.81 65.21 65.22
  Q 65.51 64.53 66.20 64.22
  Z"
/>
</svg>
