<?xml version="1.0" encoding="UTF-8" standalone="no"?>
<!DOCTYPE svg PUBLIC "-//W3C//DTD SVG 1.1//EN" "http://www.w3.org/Graphics/SVG/1.1/DTD/svg11.dtd">
<svg xmlns="http://www.w3.org/2000/svg" version="1.1" viewBox="0.00 0.00 96.00 96.00">
<g stroke-width="2.00" fill="none" stroke-linecap="butt">
<path stroke="#7e7870" vector-effect="non-scaling-stroke" d="
  M 2.01 46.71
  L 2.09 45.80"
/>
<path stroke="#c68175" vector-effect="non-scaling-stroke" d="
  M 21.19 37.81
  C 16.29 33.59 14.22 26.73 13.00 20.64
  A 0.39 0.38 -32.5 0 0 12.31 20.49
  Q 2.35 33.75 2.88 50.51
  Q 3.19 60.29 9.44 71.87"
/>
<path stroke="#7e7870" vector-effect="non-scaling-stroke" d="
  M 9.44 71.87
  L 6.28 78.85
  A 1.77 1.77 0.0 0 0 6.28 80.31
  Q 8.46 85.10 12.88 88.49
  A 1.13 1.13 0.0 0 0 14.62 88.00
  L 16.63 82.81
  A 0.51 0.51 0.0 0 1 17.44 82.61
  Q 23.83 88.13 32.72 90.45
  A 3.52 3.52 0.0 0 1 34.17 91.24
  C 37.25 94.04 39.25 95.81 43.59 95.05
  Q 48.19 94.24 51.90 95.04
  Q 55.15 95.73 58.67 93.71
  C 59.89 93.01 60.96 90.90 62.49 90.52
  Q 71.28 88.31 77.99 82.69
  A 0.38 0.37 58.4 0 1 78.57 82.83
  L 81.02 88.44
  A 0.61 0.61 0.0 0 0 81.91 88.71
  Q 86.13 86.00 88.67 81.46
  C 89.62 79.77 89.13 78.57 88.28 76.97
  Q 86.53 73.71 85.82 72.74"
/>
<path stroke="#c68175" vector-effect="non-scaling-stroke" d="
  M 85.82 72.74
  C 87.50 69.21 89.45 65.52 90.46 62.04
  Q 96.98 39.66 83.52 20.51
  A 0.52 0.52 0.0 0 0 82.59 20.68
  Q 81.55 24.77 79.82 29.85
  Q 78.29 34.31 74.81 37.70"
/>
<path stroke="#7e7870" vector-effect="non-scaling-stroke" d="
  M 74.81 37.70
  Q 75.51 35.89 76.50 34.35
  C 78.93 30.58 80.54 25.48 81.07 21.98
  C 82.32 13.72 85.46 5.97 93.02 2.24
  A 0.37 0.37 0.0 0 0 92.92 1.54
  C 85.17 0.08 78.06 4.28 74.01 10.64
  A 0.92 0.92 0.0 0 1 72.73 10.92
  L 66.51 6.90"
/>
<path stroke="#c68175" vector-effect="non-scaling-stroke" d="
  M 66.51 6.90
  Q 51.70 -0.05 35.45 4.47
  Q 31.25 5.63 28.26 7.43"
/>
<path stroke="#7e7870" vector-effect="non-scaling-stroke" d="
  M 28.26 7.43
  L 22.68 11.05
  A 0.64 0.63 -32.6 0 1 21.80 10.86
  C 17.67 4.31 10.88 0.36 3.10 1.31
  A 0.47 0.47 0.0 0 0 2.94 2.20
  C 10.83 6.24 13.56 15.09 14.95 23.62
  C 15.47 26.84 17.21 31.68 19.75 34.97
  Q 20.80 36.33 21.19 37.81"
/>
<path stroke="#5b1b11" vector-effect="non-scaling-stroke" d="
  M 28.26 7.43
  L 31.53 7.91
  A 0.43 0.43 0.0 0 1 31.81 8.60
  L 27.11 14.66
  A 2.81 2.71 72.6 0 0 26.59 15.70
  Q 25.18 21.19 26.19 25.94
  A 0.64 0.64 0.0 0 0 27.35 26.17
  Q 32.65 18.40 41.25 15.73
  C 42.85 15.23 43.68 14.14 44.44 12.72
  C 46.04 9.72 49.33 9.82 50.98 12.50
  Q 52.06 14.24 52.42 14.59
  A 5.27 5.20 -12.7 0 0 54.27 15.74
  Q 59.31 17.53 62.39 19.93
  Q 63.78 21.01 68.28 26.02
  A 0.39 0.39 0.0 0 0 68.94 25.87
  Q 71.84 15.27 63.65 9.08
  A 0.49 0.49 0.0 0 1 63.95 8.20
  Q 65.46 8.22 66.51 6.90"
/>
<path stroke="#5b1b11" vector-effect="non-scaling-stroke" d="
  M 74.81 37.70
  L 75.17 40.99
  A 0.45 0.44 -17.6 0 0 75.83 41.33
  L 81.27 38.18
  A 1.35 1.34 -29.9 0 1 83.11 38.67
  L 88.02 47.17
  A 2.45 2.44 -32.2 0 1 87.28 50.41
  L 80.78 54.85
  A 2.75 2.75 0.0 0 0 79.79 58.17
  L 85.82 72.74"
/>
<path stroke="#5b1b11" vector-effect="non-scaling-stroke" d="
  M 9.44 71.87
  Q 12.80 65.34 15.49 58.88
  Q 16.49 56.49 14.42 54.62
  Q 11.59 52.06 8.08 50.46
  A 1.62 1.62 0.0 0 1 7.20 48.49
  Q 8.84 43.27 12.33 38.64
  A 1.51 1.50 33.6 0 1 14.28 38.25
  L 19.42 41.21
  A 0.63 0.63 0.0 0 0 20.34 40.84
  L 21.19 37.81"
/>
<path stroke="#7f7e74" vector-effect="non-scaling-stroke" d="
  M 33.44 42.24
  L 43.08 44.89
  A 0.42 0.39 -51.2 0 0 43.41 44.84
  L 43.76 44.60
  A 0.34 0.34 0.0 0 0 43.63 43.99
  Q 29.27 41.13 24.79 27.00
  Q 21.73 17.33 28.29 10.45
  A 0.32 0.32 0.0 0 0 27.95 9.92
  Q 24.38 11.15 22.58 14.42
  A 0.49 0.49 0.0 0 1 21.71 14.40
  Q 17.16 4.78 6.90 2.57
  A 0.26 0.26 0.0 0 0 6.68 3.03
  Q 13.05 8.20 14.96 16.25
  Q 17.02 24.93 17.53 26.72
  Q 20.40 36.91 29.94 42.09
  Q 36.57 45.69 41.77 46.81
  A 0.06 0.05 -69.2 0 0 41.83 46.78
  L 42.12 46.36
  A 0.14 0.13 -65.5 0 0 42.05 46.16
  Q 37.82 44.85 33.37 42.41
  A 0.09 0.09 0.0 0 1 33.44 42.24"
/>
<path stroke="#7f7e74" vector-effect="non-scaling-stroke" d="
  M 62.68 42.23
  L 53.79 46.12
  A 0.16 0.14 53.8 0 1 53.64 46.09
  L 53.61 46.06
  A 0.26 0.26 0.0 0 0 53.91 46.29
  C 62.76 44.88 72.63 39.49 76.42 31.08
  C 80.62 21.76 79.60 9.77 88.08 3.46
  A 0.33 0.33 0.0 0 0 87.81 2.88
  C 84.24 3.74 79.82 6.03 77.21 9.35
  Q 74.73 12.49 73.66 14.49
  A 0.50 0.50 0.0 0 1 72.77 14.47
  Q 71.11 11.00 66.89 9.52
  A 0.25 0.24 -14.3 0 0 66.64 9.93
  C 69.47 12.33 71.17 14.87 71.49 18.51
  C 72.37 28.30 67.80 36.66 59.24 41.48
  C 56.90 42.79 53.91 43.06 52.00 44.23
  A 0.27 0.25 -24.9 0 0 51.88 44.53
  L 52.00 44.92
  A 0.11 0.10 69.2 0 0 52.14 44.99
  L 62.85 41.68
  A 0.06 0.05 84.3 0 0 62.89 41.62
  L 62.88 41.56
  A 0.46 0.45 -28.7 0 1 62.68 42.23"
/>
<path stroke="#7f7e74" vector-effect="non-scaling-stroke" d="
  M 47.00 13.98
  Q 48.09 14.19 48.18 14.11
  Q 48.86 13.52 48.25 12.98
  Q 47.71 12.49 46.81 13.22
  A 0.43 0.43 0.0 0 0 47.00 13.98"
/>
<path stroke="#7f7e74" vector-effect="non-scaling-stroke" d="
  M 50.7490 16.4418
  A 3.20 0.46 -1.4 0 0 47.5388 16.0601
  A 3.20 0.46 -1.4 0 0 44.3510 16.5982
  A 3.20 0.46 -1.4 0 0 47.5612 16.9799
  A 3.20 0.46 -1.4 0 0 50.7490 16.4418"
/>
<path stroke="#7e7870" vector-effect="non-scaling-stroke" d="
  M 60.24 37.44
  A 0.16 0.16 0.0 0 0 60.55 37.45
  Q 60.83 36.37 60.73 35.37
  C 60.08 28.70 58.62 22.83 52.78 19.37
  A 0.22 0.21 -58.1 0 0 52.50 19.44
  A 0.22 0.21 -55.5 0 0 52.54 19.73
  C 58.20 24.19 58.79 29.19 60.24 37.44"
/>
<path stroke="#7e7870" vector-effect="non-scaling-stroke" d="
  M 35.23 38.05
  C 36.53 29.70 37.03 24.64 42.66 20.03
  A 0.22 0.21 54.4 0 0 42.70 19.74
  A 0.23 0.21 57.0 0 0 42.41 19.67
  C 36.58 23.28 35.22 29.23 34.69 35.97
  Q 34.61 36.99 34.92 38.07
  A 0.16 0.16 0.0 0 0 35.23 38.05"
/>
<path stroke="#7f7e74" vector-effect="non-scaling-stroke" d="
  M 48.7131 23.4947
  A 9.05 8.88 -83.7 0 0 38.8936 31.5156
  A 9.05 8.88 -83.7 0 0 46.7269 41.4853
  A 9.05 8.88 -83.7 0 0 56.5464 33.4644
  A 9.05 8.88 -83.7 0 0 48.7131 23.4947"
/>
<path stroke="#7e7870" vector-effect="non-scaling-stroke" d="
  M 22.41 49.14
  A 0.24 0.24 0.0 0 0 22.83 48.92
  Q 20.38 42.84 13.67 39.79
  A 0.62 0.61 -65.7 0 0 12.85 40.11
  L 9.14 48.28
  A 0.70 0.70 0.0 0 0 9.42 49.17
  Q 15.91 52.93 20.59 59.02
  A 0.32 0.32 0.0 0 0 21.13 58.68
  C 19.02 54.32 15.41 51.84 11.33 48.80
  A 1.35 1.34 30.8 0 1 10.91 47.17
  L 13.18 42.15
  A 1.02 1.02 0.0 0 1 14.63 41.68
  Q 18.97 44.16 22.41 49.14"
/>
<path stroke="#7f7e74" vector-effect="non-scaling-stroke" d="
  M 72.77 49.11
  Q 76.33 44.10 80.77 41.64
  A 1.04 1.04 0.0 0 1 82.23 42.13
  L 84.47 47.26
  A 1.37 1.36 -30.0 0 1 84.02 48.91
  C 79.84 51.94 76.14 54.41 73.94 58.81
  A 0.33 0.33 0.0 0 0 74.49 59.16
  Q 79.32 53.04 85.96 49.31
  A 0.71 0.71 0.0 0 0 86.25 48.41
  L 82.60 40.06
  A 0.63 0.62 66.5 0 0 81.77 39.73
  Q 74.91 42.74 72.35 48.88
  A 0.24 0.24 0.0 0 0 72.77 49.11"
/>
<path stroke="#3c1a1a" vector-effect="non-scaling-stroke" d="
  M 72.1025 42.9643
  A 1.59 0.29 -46.1 0 0 70.7910 43.9089
  A 1.59 0.29 -46.1 0 0 69.8975 45.2557
  A 1.59 0.29 -46.1 0 0 71.2090 44.3111
  A 1.59 0.29 -46.1 0 0 72.1025 42.9643"
/>
<path stroke="#3c1a1a" vector-effect="non-scaling-stroke" d="
  M 26.45 45.77
  Q 26.80 45.35 25.81 44.65
  Q 23.80 43.22 23.61 43.44
  Q 23.43 43.67 25.22 45.36
  Q 26.11 46.19 26.45 45.77"
/>
<path stroke="#5b1b11" vector-effect="non-scaling-stroke" d="
  M 49.7758 45.2169
  A 1.81 1.56 -3.9 0 0 47.8639 43.7836
  A 1.81 1.56 -3.9 0 0 46.1642 45.4631
  A 1.81 1.56 -3.9 0 0 48.0761 46.8964
  A 1.81 1.56 -3.9 0 0 49.7758 45.2169"
/>
<path stroke="#7f7e74" vector-effect="non-scaling-stroke" d="
  M 47.71 48.58
  Q 46.02 48.58 46.00 48.58
  Q 37.99 47.51 29.93 47.13
  A 0.44 0.44 0.0 0 0 29.70 47.95
  C 35.41 51.10 41.13 51.81 47.70 51.81
  C 54.28 51.81 60.00 51.11 65.71 47.97
  A 0.44 0.44 0.0 0 0 65.48 47.14
  Q 57.42 47.52 49.42 48.58
  Q 49.39 48.58 47.71 48.58"
/>
<path stroke="#7e7870" vector-effect="non-scaling-stroke" d="
  M 47.91 54.06
  C 55.58 54.05 61.30 52.79 68.37 49.26
  A 0.48 0.48 0.0 0 0 68.60 48.62
  L 68.59 48.59
  A 0.48 0.48 0.0 0 0 67.93 48.37
  C 61.43 51.76 55.21 52.82 47.90 52.83
  C 40.60 52.84 34.37 51.80 27.86 48.43
  A 0.48 0.48 0.0 0 0 27.21 48.65
  L 27.20 48.68
  A 0.48 0.48 0.0 0 0 27.43 49.32
  C 34.51 52.83 40.23 54.07 47.91 54.06"
/>
<path stroke="#3c1a1a" vector-effect="non-scaling-stroke" d="
  M 20.07 51.32
  Q 20.75 52.08 21.28 53.01
  A 0.08 0.07 -42.5 0 0 21.41 53.01
  Q 21.49 52.90 21.63 52.90
  A 0.03 0.03 0.0 0 0 21.67 52.86
  Q 21.38 52.04 20.44 50.99
  Q 19.50 49.93 18.72 49.55
  A 0.03 0.03 0.0 0 0 18.68 49.58
  Q 18.66 49.72 18.54 49.79
  A 0.08 0.07 -40.9 0 0 18.53 49.92
  Q 19.39 50.56 20.07 51.32"
/>
<path stroke="#7f7e74" vector-effect="non-scaling-stroke" d="
  M 45.09 62.68
  Q 44.68 61.99 44.25 62.11
  Q 43.93 62.19 43.92 62.44
  Q 43.86 63.20 43.16 63.00
  A 0.82 0.53 -12.0 0 1 43.03 62.95
  L 41.41 62.08
  A 1.51 1.48 50.7 0 0 40.31 61.96
  C 37.28 62.81 34.10 63.87 31.99 61.60
  A 0.26 0.26 0.0 0 1 32.26 61.18
  Q 35.05 62.04 37.08 61.39
  A 0.30 0.30 0.0 0 0 36.99 60.80
  C 33.19 60.73 29.62 58.44 30.25 54.31
  A 0.43 0.42 -82.2 0 0 29.88 53.82
  L 29.13 53.72
  A 1.33 1.33 0.0 0 0 27.64 55.01
  Q 27.61 56.47 28.26 58.48
  A 0.32 0.31 -16.8 0 1 28.04 58.88
  L 28.03 58.89
  A 0.32 0.31 75.3 0 1 27.65 58.66
  Q 27.38 57.56 26.59 56.51
  A 0.46 0.46 0.0 0 0 25.77 56.70
  Q 24.35 64.33 31.68 67.13
  A 0.78 0.68 -34.6 0 0 32.02 67.17
  L 33.74 66.96
  A 0.45 0.45 0.0 0 1 34.15 67.68
  Q 33.56 68.47 32.44 69.20
  A 1.29 1.27 -13.8 0 0 31.88 70.11
  L 31.28 74.96
  A 0.19 0.19 0.0 0 1 30.91 74.99
  L 28.88 68.41
  A 0.58 0.53 12.5 0 0 28.71 68.17
  L 28.04 67.65
  A 0.36 0.36 0.0 0 0 27.47 68.00
  C 28.50 73.13 29.12 79.18 32.30 83.85
  A 0.34 0.33 19.9 0 0 32.90 83.57
  Q 32.40 81.88 32.37 81.08
  A 0.42 0.42 0.0 0 1 33.20 80.96
  Q 34.10 84.47 35.69 88.94
  Q 36.98 92.53 40.27 93.72
  A 0.79 0.71 48.4 0 0 40.61 93.76
  L 47.29 92.97
  A 5.90 5.54 -43.2 0 1 48.64 92.97
  L 55.00 93.75
  A 1.99 1.93 -57.4 0 0 56.32 93.44
  C 61.23 90.17 60.81 84.48 62.37 81.27
  A 0.29 0.29 0.0 0 1 62.93 81.41
  Q 62.88 82.43 62.42 83.39
  A 0.31 0.31 0.0 0 0 62.94 83.73
  C 66.11 80.11 67.20 72.58 67.83 68.01
  A 0.35 0.34 -16.9 0 0 67.26 67.71
  C 65.91 68.87 65.56 71.51 64.65 74.97
  A 0.29 0.29 0.0 0 1 64.08 74.92
  C 63.79 72.32 64.03 69.20 61.62 68.20
  A 0.38 0.38 0.0 0 1 61.39 67.81
  L 61.43 67.49
  A 0.61 0.61 0.0 0 1 62.22 66.99
  Q 64.17 67.60 66.15 66.24
  Q 70.68 63.14 69.63 56.88
  A 0.44 0.44 0.0 0 0 68.85 56.69
  L 67.23 58.77
  A 0.07 0.07 0.0 0 1 67.10 58.72
  C 67.56 56.80 67.99 55.83 67.53 53.70
  A 0.21 0.21 0.0 0 0 67.13 53.67
  Q 66.88 54.36 66.86 54.59
  Q 66.81 55.47 66.03 54.26
  Q 65.71 53.77 65.64 53.74
  A 0.41 0.41 0.0 0 0 65.08 54.19
  C 65.86 59.19 62.47 59.72 58.71 60.98
  A 0.23 0.22 43.1 0 0 58.73 61.41
  Q 60.88 61.98 62.98 61.27
  A 0.40 0.40 0.0 0 1 63.33 61.99
  C 60.26 63.98 57.93 62.22 55.13 61.97
  A 2.32 2.31 -54.2 0 0 53.96 62.16
  L 52.19 62.95
  A 0.43 0.43 0.0 0 1 51.61 62.44
  Q 51.65 62.30 51.51 61.98
  A 0.21 0.21 0.0 0 0 51.11 62.04
  L 51.05 62.53
  A 0.36 0.36 0.0 0 1 50.74 62.85
  Q 50.36 62.92 50.12 62.58
  A 0.41 0.41 0.0 0 1 50.05 62.23
  L 50.35 61.13
  A 0.47 0.46 -85.4 0 0 49.85 60.54
  L 45.39 61.07
  A 0.26 0.26 0.0 0 0 45.18 61.43
  Q 45.61 62.43 45.55 62.62
  A 0.25 0.25 0.0 0 1 45.09 62.68"
/>
<path stroke="#7e7870" vector-effect="non-scaling-stroke" d="
  M 43.75 56.97
  L 38.39 55.16
  A 0.10 0.10 0.0 0 0 38.26 55.23
  L 38.24 55.29
  A 2.75 1.27 18.6 0 0 40.44 57.37
  L 40.78 57.49
  A 2.75 1.27 18.6 0 0 43.79 57.16
  L 43.81 57.10
  A 0.10 0.10 0.0 0 0 43.75 56.97"
/>
<path stroke="#7e7870" vector-effect="non-scaling-stroke" d="
  M 57.43 55.22
  L 51.63 56.97
  A 0.11 0.11 0.0 0 0 51.55 57.10
  L 51.57 57.16
  A 3.00 1.31 -16.8 0 0 54.82 57.55
  L 55.09 57.47
  A 3.00 1.31 -16.8 0 0 57.58 55.35
  L 57.56 55.29
  A 0.11 0.11 0.0 0 0 57.43 55.22"
/>
<path stroke="#7f7e74" vector-effect="non-scaling-stroke" d="
  M 46.42 59.23
  L 48.91 59.33
  A 0.45 0.45 0.0 0 0 49.38 58.90
  L 49.39 58.78
  A 2.13 1.54 -87.7 0 0 47.93 56.59
  L 47.61 56.57
  A 2.13 1.54 -87.7 0 0 45.99 58.64
  L 45.99 58.76
  A 0.45 0.45 0.0 0 0 46.42 59.23"
/>
<path stroke="#7e7870" vector-effect="non-scaling-stroke" d="
  M 15.37 64.20
  A 0.11 0.11 0.0 0 0 15.32 64.32
  Q 15.87 66.84 18.31 68.81
  A 0.49 0.49 0.0 0 0 19.09 68.56
  L 20.58 63.18
  A 0.50 0.50 0.0 0 0 19.64 62.87
  L 18.29 66.38
  A 0.59 0.58 40.4 0 1 17.24 66.46
  L 15.82 64.00
  A 0.06 0.06 0.0 0 0 15.74 63.98
  L 15.37 64.20"
/>
<path stroke="#7e7870" vector-effect="non-scaling-stroke" d="
  M 80.28 64.39
  L 79.92 64.16
  A 0.06 0.06 0.0 0 0 79.84 64.18
  L 78.34 66.62
  A 0.59 0.59 0.0 0 1 77.28 66.52
  L 76.01 62.94
  A 0.50 0.50 0.0 0 0 75.05 63.23
  L 76.42 68.69
  A 0.49 0.49 0.0 0 0 77.20 68.97
  Q 79.71 67.04 80.33 64.51
  A 0.11 0.11 0.0 0 0 80.28 64.39"
/>
<path stroke="#7e7870" vector-effect="non-scaling-stroke" d="
  M 18.0082 71.6925
  A 0.57 0.57 0.0 0 0 17.6448 70.9730
  L 17.5878 70.9542
  A 0.57 0.57 0.0 0 0 16.8683 71.3177
  L 14.9318 77.2075
  A 0.57 0.57 0.0 0 0 15.2952 77.9270
  L 15.3522 77.9458
  A 0.57 0.57 0.0 0 0 16.0717 77.5823
  L 18.0082 71.6925"
/>
<path stroke="#3c1a1a" vector-effect="non-scaling-stroke" d="
  M 74.4784 70.8871
  A 1.94 0.44 -30.1 0 0 72.5793 71.4793
  A 1.94 0.44 -30.1 0 0 71.1216 72.8329
  A 1.94 0.44 -30.1 0 0 73.0207 72.2407
  A 1.94 0.44 -30.1 0 0 74.4784 70.8871"
/>
<path stroke="#7e7870" vector-effect="non-scaling-stroke" d="
  M 78.6797 71.3967
  A 0.56 0.56 0.0 0 0 77.9804 71.0249
  L 77.9422 71.0366
  A 0.56 0.56 0.0 0 0 77.5704 71.7359
  L 79.2603 77.2633
  A 0.56 0.56 0.0 0 0 79.9596 77.6351
  L 79.9978 77.6234
  A 0.56 0.56 0.0 0 0 80.3696 76.9241
  L 78.6797 71.3967"
/>
<path stroke="#3c1a1a" vector-effect="non-scaling-stroke" d="
  M 22.2489 71.0318
  A 2.39 0.50 -143.9 0 0 23.8854 72.8440
  A 2.39 0.50 -143.9 0 0 26.1111 73.8482
  A 2.39 0.50 -143.9 0 0 24.4746 72.0360
  A 2.39 0.50 -143.9 0 0 22.2489 71.0318"
/>
<path stroke="#3c1a1a" vector-effect="non-scaling-stroke" d="
  M 76.5502 79.4848
  A 4.74 0.41 -23.7 0 0 72.0452 81.0146
  A 4.74 0.41 -23.7 0 0 67.8698 83.2952
  A 4.74 0.41 -23.7 0 0 72.3748 81.7654
  A 4.74 0.41 -23.7 0 0 76.5502 79.4848"
/>
<path stroke="#3c1a1a" vector-effect="non-scaling-stroke" d="
  M 20.3086 79.6349
  A 4.61 0.42 -156.0 0 0 24.3492 81.8937
  A 4.61 0.42 -156.0 0 0 28.7314 83.3851
  A 4.61 0.42 -156.0 0 0 24.6908 81.1263
  A 4.61 0.42 -156.0 0 0 20.3086 79.6349"
/>
<path stroke="#7e7870" vector-effect="non-scaling-stroke" d="
  M 14.6820 79.6904
  A 3.54 0.83 -74.4 0 0 12.9306 82.8768
  A 3.54 0.83 -74.4 0 0 12.7780 86.5096
  A 3.54 0.83 -74.4 0 0 14.5294 83.3232
  A 3.54 0.83 -74.4 0 0 14.6820 79.6904"
/>
<path stroke="#7e7870" vector-effect="non-scaling-stroke" d="
  M 81.7932 80.4093
  A 0.63 0.63 0.0 0 0 81.0043 79.9952
  L 80.7179 80.0844
  A 0.63 0.63 0.0 0 0 80.3037 80.8732
  L 81.7668 85.5707
  A 0.63 0.63 0.0 0 0 82.5557 85.9848
  L 82.8421 85.8956
  A 0.63 0.63 0.0 0 0 83.2563 85.1068
  L 81.7932 80.4093"
/>
<path stroke="#7f7e74" vector-effect="non-scaling-stroke" d="
  M 22.85 34.17
  A 0.16 0.16 0.0 0 0 23.12 33.99
  Q 19.38 25.98 17.08 16.49
  C 16.75 15.10 15.58 12.19 14.74 11.29
  A 0.14 0.14 0.0 0 0 14.51 11.46
  Q 15.49 13.13 16.02 15.69
  C 17.52 22.85 18.48 29.10 22.85 34.17"
/>
<path stroke="#7f7e74" vector-effect="non-scaling-stroke" d="
  M 72.53 34.72
  C 76.82 29.80 77.80 23.70 79.31 16.72
  Q 79.84 14.23 80.81 12.60
  A 0.14 0.14 0.0 0 0 80.58 12.43
  C 79.76 13.31 78.60 16.14 78.27 17.50
  Q 75.96 26.75 72.27 34.54
  A 0.16 0.16 0.0 0 0 72.53 34.72"
/>
<path stroke="#7f7e74" vector-effect="non-scaling-stroke" d="
  M 48.6209 24.6006
  A 7.87 7.58 -83.5 0 0 40.1987 31.5619
  A 7.87 7.58 -83.5 0 0 46.8391 40.2394
  A 7.87 7.58 -83.5 0 0 55.2613 33.2781
  A 7.87 7.58 -83.5 0 0 48.6209 24.6006"
/>
<path stroke="#5b1b11" vector-effect="non-scaling-stroke" d="
  M 47.91 31.87
  Q 49.77 31.82 51.80 32.22
  A 0.46 0.46 0.0 0 0 52.31 31.57
  Q 51.43 29.69 49.46 28.07
  Q 48.36 27.17 47.78 27.19
  Q 47.20 27.20 46.16 28.16
  Q 44.28 29.89 43.50 31.82
  A 0.46 0.46 0.0 0 0 44.05 32.44
  Q 46.05 31.93 47.91 31.87"
/>
<path stroke="#5b1b11" vector-effect="non-scaling-stroke" d="
  M 47.90 36.42
  Q 50.31 36.42 51.08 36.34
  A 0.65 0.65 0.0 0 0 51.45 35.21
  Q 49.97 33.83 48.23 32.95
  Q 48.21 32.93 47.90 32.93
  Q 47.59 32.93 47.57 32.95
  Q 45.83 33.83 44.35 35.21
  A 0.65 0.65 0.0 0 0 44.72 36.33
  Q 45.49 36.42 47.90 36.42"
/>
<path stroke="#a88583" vector-effect="non-scaling-stroke" d="
  M 28.24 55.21
  Q 28.47 55.09 28.54 54.46
  A 0.30 0.30 0.0 0 0 28.18 54.14
  Q 28.00 54.18 27.91 54.44
  A 0.56 0.33 -82.7 0 0 28.24 55.21"
/>
<path stroke="#7f7e74" vector-effect="non-scaling-stroke" d="
  M 43.20 65.71
  Q 41.59 63.49 39.24 64.13
  A 2.29 2.27 -78.6 0 0 38.03 64.94
  L 33.91 70.23
  A 2.43 2.29 72.3 0 0 33.49 71.11
  Q 32.54 74.86 33.81 78.48
  A 0.33 0.33 0.0 0 0 34.45 78.36
  Q 34.28 74.15 37.35 71.24
  A 1.23 1.21 -62.6 0 1 38.36 70.91
  L 39.01 70.99
  A 0.46 0.46 0.0 0 0 39.45 70.28
  C 38.14 68.37 38.89 64.10 42.81 66.15
  A 0.30 0.30 0.0 0 0 43.20 65.71"
/>
<path stroke="#7f7e74" vector-effect="non-scaling-stroke" d="
  M 52.07 65.85
  A 0.30 0.30 0.0 0 0 52.47 66.27
  C 56.29 64.16 57.13 68.36 55.88 70.27
  A 0.46 0.45 12.3 0 0 56.33 70.96
  L 56.97 70.87
  A 1.22 1.20 61.2 0 1 57.97 71.17
  Q 61.07 73.97 61.00 78.13
  A 0.33 0.32 -35.6 0 0 61.63 78.23
  Q 62.80 74.63 61.78 70.95
  A 2.40 2.26 -73.6 0 0 61.35 70.09
  L 57.16 64.97
  A 2.26 2.24 77.3 0 0 55.95 64.20
  Q 53.61 63.62 52.07 65.85"
/>
<path stroke="#7f7e74" vector-effect="non-scaling-stroke" d="
  M 55.10 70.70
  A 0.74 0.74 0.0 0 0 54.60 69.33
  Q 51.53 69.88 49.02 72.32
  A 1.72 1.71 -49.3 0 1 46.83 72.49
  Q 44.34 70.72 42.60 69.81
  Q 41.39 69.18 40.49 69.58
  A 0.43 0.42 52.5 0 0 40.40 70.30
  Q 44.81 73.93 46.70 74.63
  C 49.51 75.66 53.13 71.82 55.10 70.70"
/>
<path stroke="#7f7e74" vector-effect="non-scaling-stroke" d="
  M 47.72 84.45
  Q 50.89 84.45 55.02 86.29
  Q 57.97 87.61 58.90 84.18
  C 59.79 80.91 60.94 75.69 58.27 73.73
  A 2.72 2.51 -42.5 0 0 55.32 73.72
  Q 51.32 76.28 47.71 76.28
  Q 44.09 76.29 40.08 73.75
  A 2.72 2.51 42.2 0 0 37.13 73.78
  C 34.47 75.75 35.64 80.96 36.55 84.23
  Q 37.49 87.65 40.43 86.32
  Q 44.56 84.46 47.72 84.45"
/>
<path stroke="#7f7e74" vector-effect="non-scaling-stroke" d="
  M 56.99 88.47
  Q 56.28 88.77 55.61 88.74
  A 2.22 2.11 -26.6 0 1 54.60 88.43
  Q 47.69 84.13 40.73 88.50
  Q 40.34 88.75 38.67 88.77
  A 0.41 0.41 0.0 0 0 38.31 89.37
  C 38.81 90.32 40.07 90.63 40.96 90.00
  C 44.99 87.18 50.77 87.49 54.36 90.24
  A 1.15 1.13 -30.6 0 0 55.24 90.46
  Q 56.99 90.15 57.47 88.94
  A 0.37 0.36 -0.4 0 0 56.99 88.47"
/>
<path stroke="#7e7870" vector-effect="non-scaling-stroke" d="
  M 61.11 72.16
  Q 60.83 71.60 60.15 71.20
  A 0.19 0.19 0.0 0 0 59.88 71.44
  Q 60.38 72.52 60.63 72.64
  A 0.36 0.36 0.0 0 0 61.11 72.16"
/>
<path stroke="#7e7870" vector-effect="non-scaling-stroke" d="
  M 54.89 77.60
  L 55.58 78.14
  A 0.45 0.45 0.0 0 0 56.30 77.84
  L 56.60 75.45
  A 0.40 0.40 0.0 0 0 56.07 75.03
  Q 54.96 75.42 54.51 75.96
  A 1.47 1.43 7.7 0 1 53.94 76.38
  Q 47.87 78.94 42.41 76.61
  A 0.50 0.50 0.0 0 0 41.76 77.28
  Q 41.96 77.71 42.24 77.97
  Q 42.60 78.29 42.99 78.33
  Q 44.55 78.48 46.25 78.79
  Q 47.90 79.09 49.22 78.74
  Q 49.43 78.69 52.99 78.10
  Q 53.30 78.05 53.48 77.88
  Q 53.60 77.76 53.70 77.66
  A 0.92 0.91 -47.8 0 1 54.89 77.60"
/>
<path stroke="#7e7870" vector-effect="non-scaling-stroke" d="
  M 39.09 76.95
  Q 39.38 77.82 39.77 78.03
  A 0.69 0.69 0.0 0 0 40.64 77.85
  Q 41.41 76.87 41.21 76.26
  Q 41.01 75.65 39.81 75.31
  A 0.69 0.69 0.0 0 0 39.00 75.68
  Q 38.81 76.08 39.09 76.95"
/>
<path stroke="#7e7870" vector-effect="non-scaling-stroke" d="
  M 42.53 83.62
  Q 48.03 82.72 52.55 83.75
  A 0.32 0.32 0.0 0 0 52.94 83.48
  L 52.98 83.16
  A 0.63 0.63 0.0 0 0 52.55 82.49
  Q 47.37 80.84 42.66 82.69
  A 1.56 1.54 -47.1 0 1 41.69 82.73
  Q 41.40 82.65 40.87 82.32
  Q 40.40 82.02 40.07 82.24
  Q 39.69 82.49 39.73 83.23
  A 0.41 0.41 0.0 0 1 38.98 83.48
  L 38.05 82.12
  A 0.29 0.28 -60.0 0 0 37.53 82.26
  C 37.27 85.47 40.18 86.15 41.92 83.98
  A 1.00 0.97 -74.5 0 1 42.53 83.62"
/>
<path stroke="#7e7870" vector-effect="non-scaling-stroke" d="
  M 53.61 84.21
  Q 54.87 85.39 56.48 85.34
  A 0.90 0.89 -75.9 0 0 57.24 84.88
  Q 57.97 83.58 57.99 82.43
  A 0.40 0.40 0.0 0 0 57.40 82.08
  Q 57.19 82.20 56.90 82.92
  Q 56.60 83.66 55.93 83.44
  Q 55.59 83.32 55.45 82.30
  A 0.48 0.48 0.0 0 0 54.72 81.95
  Q 53.91 82.45 53.46 83.39
  A 0.71 0.69 35.2 0 0 53.61 84.21"
/>
</g>
<path fill="#eadfd5" fill-opacity="0.996" d="
  M 7.99 0.00
  Q 16.80 2.19 21.91 9.45
  A 0.77 0.77 0.0 0 0 22.99 9.63
  C 26.44 7.11 30.74 4.79 34.88 3.60
  Q 55.38 -2.28 72.78 9.59
  A 0.72 0.72 0.0 0 0 73.77 9.42
  Q 78.92 2.19 87.67 0.00
  L 92.15 0.00
  L 94.92 1.02
  A 0.90 0.90 0.0 0 1 94.87 2.72
  C 88.38 4.69 83.51 12.03 83.28 18.45
  A 1.25 1.22 -63.8 0 0 83.55 19.28
  C 95.49 34.66 96.74 54.49 87.47 71.44
  A 1.93 1.91 -45.8 0 0 87.49 73.34
  L 90.10 77.86
  A 3.34 3.34 0.0 0 1 90.21 80.98
  Q 87.69 86.21 82.49 89.84
  A 1.54 1.54 0.0 0 1 80.20 89.19
  L 78.29 84.82
  A 0.57 0.57 0.0 0 0 77.43 84.59
  Q 70.55 89.65 63.48 91.39
  A 4.50 4.45 14.8 0 0 61.34 92.62
  Q 58.92 95.15 57.17 96.00
  L 48.87 96.00
  Q 47.72 95.57 46.50 96.00
  L 38.43 96.00
  L 33.24 91.80
  A 1.11 0.98 -14.9 0 0 32.82 91.59
  Q 24.68 89.57 18.09 84.50
  A 0.57 0.56 29.3 0 0 17.22 84.74
  L 15.51 89.17
  A 1.55 1.54 27.3 0 1 13.21 89.90
  Q 8.25 86.58 5.39 81.06
  A 3.34 3.31 -43.8 0 1 5.47 77.89
  L 8.10 73.34
  A 1.95 1.94 -44.9 0 0 8.11 71.42
  Q 1.78 60.05 2.01 46.71
  L 2.09 45.80
  Q 2.84 30.88 12.07 19.27
  A 1.34 1.32 -29.3 0 0 12.35 18.30
  C 11.59 11.65 7.50 4.76 0.79 2.72
  A 0.94 0.94 0.0 0 1 0.73 0.95
  L 3.19 0.00
  L 7.99 0.00
  Z
  M 21.19 37.81
  C 16.29 33.59 14.22 26.73 13.00 20.64
  A 0.39 0.38 -32.5 0 0 12.31 20.49
  Q 2.35 33.75 2.88 50.51
  Q 3.19 60.29 9.44 71.87
  L 6.28 78.85
  A 1.77 1.77 0.0 0 0 6.28 80.31
  Q 8.46 85.10 12.88 88.49
  A 1.13 1.13 0.0 0 0 14.62 88.00
  L 16.63 82.81
  A 0.51 0.51 0.0 0 1 17.44 82.61
  Q 23.83 88.13 32.72 90.45
  A 3.52 3.52 0.0 0 1 34.17 91.24
  C 37.25 94.04 39.25 95.81 43.59 95.05
  Q 48.19 94.24 51.90 95.04
  Q 55.15 95.73 58.67 93.71
  C 59.89 93.01 60.96 90.90 62.49 90.52
  Q 71.28 88.31 77.99 82.69
  A 0.38 0.37 58.4 0 1 78.57 82.83
  L 81.02 88.44
  A 0.61 0.61 0.0 0 0 81.91 88.71
  Q 86.13 86.00 88.67 81.46
  C 89.62 79.77 89.13 78.57 88.28 76.97
  Q 86.53 73.71 85.82 72.74
  C 87.50 69.21 89.45 65.52 90.46 62.04
  Q 96.98 39.66 83.52 20.51
  A 0.52 0.52 0.0 0 0 82.59 20.68
  Q 81.55 24.77 79.82 29.85
  Q 78.29 34.31 74.81 37.70
  Q 75.51 35.89 76.50 34.35
  C 78.93 30.58 80.54 25.48 81.07 21.98
  C 82.32 13.72 85.46 5.97 93.02 2.24
  A 0.37 0.37 0.0 0 0 92.92 1.54
  C 85.17 0.08 78.06 4.28 74.01 10.64
  A 0.92 0.92 0.0 0 1 72.73 10.92
  L 66.51 6.90
  Q 51.70 -0.05 35.45 4.47
  Q 31.25 5.63 28.26 7.43
  L 22.68 11.05
  A 0.64 0.63 -32.6 0 1 21.80 10.86
  C 17.67 4.31 10.88 0.36 3.10 1.31
  A 0.47 0.47 0.0 0 0 2.94 2.20
  C 10.83 6.24 13.56 15.09 14.95 23.62
  C 15.47 26.84 17.21 31.68 19.75 34.97
  Q 20.80 36.33 21.19 37.81
  Z"
/>
<path fill="#13120b" d="
  M 28.26 7.43
  L 31.53 7.91
  A 0.43 0.43 0.0 0 1 31.81 8.60
  L 27.11 14.66
  A 2.81 2.71 72.6 0 0 26.59 15.70
  Q 25.18 21.19 26.19 25.94
  A 0.64 0.64 0.0 0 0 27.35 26.17
  Q 32.65 18.40 41.25 15.73
  C 42.85 15.23 43.68 14.14 44.44 12.72
  C 46.04 9.72 49.33 9.82 50.98 12.50
  Q 52.06 14.24 52.42 14.59
  A 5.27 5.20 -12.7 0 0 54.27 15.74
  Q 59.31 17.53 62.39 19.93
  Q 63.78 21.01 68.28 26.02
  A 0.39 0.39 0.0 0 0 68.94 25.87
  Q 71.84 15.27 63.65 9.08
  A 0.49 0.49 0.0 0 1 63.95 8.20
  Q 65.46 8.22 66.51 6.90
  L 72.73 10.92
  A 0.92 0.92 0.0 0 0 74.01 10.64
  C 78.06 4.28 85.17 0.08 92.92 1.54
  A 0.37 0.37 0.0 0 1 93.02 2.24
  C 85.46 5.97 82.32 13.72 81.07 21.98
  C 80.54 25.48 78.93 30.58 76.50 34.35
  Q 75.51 35.89 74.81 37.70
  L 75.17 40.99
  A 0.45 0.44 -17.6 0 0 75.83 41.33
  L 81.27 38.18
  A 1.35 1.34 -29.9 0 1 83.11 38.67
  L 88.02 47.17
  A 2.45 2.44 -32.2 0 1 87.28 50.41
  L 80.78 54.85
  A 2.75 2.75 0.0 0 0 79.79 58.17
  L 85.82 72.74
  Q 86.53 73.71 88.28 76.97
  C 89.13 78.57 89.62 79.77 88.67 81.46
  Q 86.13 86.00 81.91 88.71
  A 0.61 0.61 0.0 0 1 81.02 88.44
  L 78.57 82.83
  A 0.38 0.37 58.4 0 0 77.99 82.69
  Q 71.28 88.31 62.49 90.52
  C 60.96 90.90 59.89 93.01 58.67 93.71
  Q 55.15 95.73 51.90 95.04
  Q 48.19 94.24 43.59 95.05
  C 39.25 95.81 37.25 94.04 34.17 91.24
  A 3.52 3.52 0.0 0 0 32.72 90.45
  Q 23.83 88.13 17.44 82.61
  A 0.51 0.51 0.0 0 0 16.63 82.81
  L 14.62 88.00
  A 1.13 1.13 0.0 0 1 12.88 88.49
  Q 8.46 85.10 6.28 80.31
  A 1.77 1.77 0.0 0 1 6.28 78.85
  L 9.44 71.87
  Q 12.80 65.34 15.49 58.88
  Q 16.49 56.49 14.42 54.62
  Q 11.59 52.06 8.08 50.46
  A 1.62 1.62 0.0 0 1 7.20 48.49
  Q 8.84 43.27 12.33 38.64
  A 1.51 1.50 33.6 0 1 14.28 38.25
  L 19.42 41.21
  A 0.63 0.63 0.0 0 0 20.34 40.84
  L 21.19 37.81
  Q 20.80 36.33 19.75 34.97
  C 17.21 31.68 15.47 26.84 14.95 23.62
  C 13.56 15.09 10.83 6.24 2.94 2.20
  A 0.47 0.47 0.0 0 1 3.10 1.31
  C 10.88 0.36 17.67 4.31 21.80 10.86
  A 0.64 0.63 -32.6 0 0 22.68 11.05
  L 28.26 7.43
  Z
  M 33.44 42.24
  L 43.08 44.89
  A 0.42 0.39 -51.2 0 0 43.41 44.84
  L 43.76 44.60
  A 0.34 0.34 0.0 0 0 43.63 43.99
  Q 29.27 41.13 24.79 27.00
  Q 21.73 17.33 28.29 10.45
  A 0.32 0.32 0.0 0 0 27.95 9.92
  Q 24.38 11.15 22.58 14.42
  A 0.49 0.49 0.0 0 1 21.71 14.40
  Q 17.16 4.78 6.90 2.57
  A 0.26 0.26 0.0 0 0 6.68 3.03
  Q 13.05 8.20 14.96 16.25
  Q 17.02 24.93 17.53 26.72
  Q 20.40 36.91 29.94 42.09
  Q 36.57 45.69 41.77 46.81
  A 0.06 0.05 -69.2 0 0 41.83 46.78
  L 42.12 46.36
  A 0.14 0.13 -65.5 0 0 42.05 46.16
  Q 37.82 44.85 33.37 42.41
  A 0.09 0.09 0.0 0 1 33.44 42.24
  Z
  M 62.68 42.23
  L 53.79 46.12
  A 0.16 0.14 53.8 0 1 53.64 46.09
  L 53.61 46.06
  A 0.26 0.26 0.0 0 0 53.91 46.29
  C 62.76 44.88 72.63 39.49 76.42 31.08
  C 80.62 21.76 79.60 9.77 88.08 3.46
  A 0.33 0.33 0.0 0 0 87.81 2.88
  C 84.24 3.74 79.82 6.03 77.21 9.35
  Q 74.73 12.49 73.66 14.49
  A 0.50 0.50 0.0 0 1 72.77 14.47
  Q 71.11 11.00 66.89 9.52
  A 0.25 0.24 -14.3 0 0 66.64 9.93
  C 69.47 12.33 71.17 14.87 71.49 18.51
  C 72.37 28.30 67.80 36.66 59.24 41.48
  C 56.90 42.79 53.91 43.06 52.00 44.23
  A 0.27 0.25 -24.9 0 0 51.88 44.53
  L 52.00 44.92
  A 0.11 0.10 69.2 0 0 52.14 44.99
  L 62.85 41.68
  A 0.06 0.05 84.3 0 0 62.89 41.62
  L 62.88 41.56
  A 0.46 0.45 -28.7 0 1 62.68 42.23
  Z
  M 47.00 13.98
  Q 48.09 14.19 48.18 14.11
  Q 48.86 13.52 48.25 12.98
  Q 47.71 12.49 46.81 13.22
  A 0.43 0.43 0.0 0 0 47.00 13.98
  Z
  M 50.7490 16.4418
  A 3.20 0.46 -1.4 0 0 47.5388 16.0601
  A 3.20 0.46 -1.4 0 0 44.3510 16.5982
  A 3.20 0.46 -1.4 0 0 47.5612 16.9799
  A 3.20 0.46 -1.4 0 0 50.7490 16.4418
  Z
  M 60.24 37.44
  A 0.16 0.16 0.0 0 0 60.55 37.45
  Q 60.83 36.37 60.73 35.37
  C 60.08 28.70 58.62 22.83 52.78 19.37
  A 0.22 0.21 -58.1 0 0 52.50 19.44
  A 0.22 0.21 -55.5 0 0 52.54 19.73
  C 58.20 24.19 58.79 29.19 60.24 37.44
  Z
  M 35.23 38.05
  C 36.53 29.70 37.03 24.64 42.66 20.03
  A 0.22 0.21 54.4 0 0 42.70 19.74
  A 0.23 0.21 57.0 0 0 42.41 19.67
  C 36.58 23.28 35.22 29.23 34.69 35.97
  Q 34.61 36.99 34.92 38.07
  A 0.16 0.16 0.0 0 0 35.23 38.05
  Z
  M 48.7131 23.4947
  A 9.05 8.88 -83.7 0 0 38.8936 31.5156
  A 9.05 8.88 -83.7 0 0 46.7269 41.4853
  A 9.05 8.88 -83.7 0 0 56.5464 33.4644
  A 9.05 8.88 -83.7 0 0 48.7131 23.4947
  Z
  M 22.41 49.14
  A 0.24 0.24 0.0 0 0 22.83 48.92
  Q 20.38 42.84 13.67 39.79
  A 0.62 0.61 -65.7 0 0 12.85 40.11
  L 9.14 48.28
  A 0.70 0.70 0.0 0 0 9.42 49.17
  Q 15.91 52.93 20.59 59.02
  A 0.32 0.32 0.0 0 0 21.13 58.68
  C 19.02 54.32 15.41 51.84 11.33 48.80
  A 1.35 1.34 30.8 0 1 10.91 47.17
  L 13.18 42.15
  A 1.02 1.02 0.0 0 1 14.63 41.68
  Q 18.97 44.16 22.41 49.14
  Z
  M 72.77 49.11
  Q 76.33 44.10 80.77 41.64
  A 1.04 1.04 0.0 0 1 82.23 42.13
  L 84.47 47.26
  A 1.37 1.36 -30.0 0 1 84.02 48.91
  C 79.84 51.94 76.14 54.41 73.94 58.81
  A 0.33 0.33 0.0 0 0 74.49 59.16
  Q 79.32 53.04 85.96 49.31
  A 0.71 0.71 0.0 0 0 86.25 48.41
  L 82.60 40.06
  A 0.63 0.62 66.5 0 0 81.77 39.73
  Q 74.91 42.74 72.35 48.88
  A 0.24 0.24 0.0 0 0 72.77 49.11
  Z
  M 72.1025 42.9643
  A 1.59 0.29 -46.1 0 0 70.7910 43.9089
  A 1.59 0.29 -46.1 0 0 69.8975 45.2557
  A 1.59 0.29 -46.1 0 0 71.2090 44.3111
  A 1.59 0.29 -46.1 0 0 72.1025 42.9643
  Z
  M 26.45 45.77
  Q 26.80 45.35 25.81 44.65
  Q 23.80 43.22 23.61 43.44
  Q 23.43 43.67 25.22 45.36
  Q 26.11 46.19 26.45 45.77
  Z
  M 49.7758 45.2169
  A 1.81 1.56 -3.9 0 0 47.8639 43.7836
  A 1.81 1.56 -3.9 0 0 46.1642 45.4631
  A 1.81 1.56 -3.9 0 0 48.0761 46.8964
  A 1.81 1.56 -3.9 0 0 49.7758 45.2169
  Z
  M 47.71 48.58
  Q 46.02 48.58 46.00 48.58
  Q 37.99 47.51 29.93 47.13
  A 0.44 0.44 0.0 0 0 29.70 47.95
  C 35.41 51.10 41.13 51.81 47.70 51.81
  C 54.28 51.81 60.00 51.11 65.71 47.97
  A 0.44 0.44 0.0 0 0 65.48 47.14
  Q 57.42 47.52 49.42 48.58
  Q 49.39 48.58 47.71 48.58
  Z
  M 47.91 54.06
  C 55.58 54.05 61.30 52.79 68.37 49.26
  A 0.48 0.48 0.0 0 0 68.60 48.62
  L 68.59 48.59
  A 0.48 0.48 0.0 0 0 67.93 48.37
  C 61.43 51.76 55.21 52.82 47.90 52.83
  C 40.60 52.84 34.37 51.80 27.86 48.43
  A 0.48 0.48 0.0 0 0 27.21 48.65
  L 27.20 48.68
  A 0.48 0.48 0.0 0 0 27.43 49.32
  C 34.51 52.83 40.23 54.07 47.91 54.06
  Z
  M 20.07 51.32
  Q 20.75 52.08 21.28 53.01
  A 0.08 0.07 -42.5 0 0 21.41 53.01
  Q 21.49 52.90 21.63 52.90
  A 0.03 0.03 0.0 0 0 21.67 52.86
  Q 21.38 52.04 20.44 50.99
  Q 19.50 49.93 18.72 49.55
  A 0.03 0.03 0.0 0 0 18.68 49.58
  Q 18.66 49.72 18.54 49.79
  A 0.08 0.07 -40.9 0 0 18.53 49.92
  Q 19.39 50.56 20.07 51.32
  Z
  M 45.09 62.68
  Q 44.68 61.99 44.25 62.11
  Q 43.93 62.19 43.92 62.44
  Q 43.86 63.20 43.16 63.00
  A 0.82 0.53 -12.0 0 1 43.03 62.95
  L 41.41 62.08
  A 1.51 1.48 50.7 0 0 40.31 61.96
  C 37.28 62.81 34.10 63.87 31.99 61.60
  A 0.26 0.26 0.0 0 1 32.26 61.18
  Q 35.05 62.04 37.08 61.39
  A 0.30 0.30 0.0 0 0 36.99 60.80
  C 33.19 60.73 29.62 58.44 30.25 54.31
  A 0.43 0.42 -82.2 0 0 29.88 53.82
  L 29.13 53.72
  A 1.33 1.33 0.0 0 0 27.64 55.01
  Q 27.61 56.47 28.26 58.48
  A 0.32 0.31 -16.8 0 1 28.04 58.88
  L 28.03 58.89
  A 0.32 0.31 75.3 0 1 27.65 58.66
  Q 27.38 57.56 26.59 56.51
  A 0.46 0.46 0.0 0 0 25.77 56.70
  Q 24.35 64.33 31.68 67.13
  A 0.78 0.68 -34.6 0 0 32.02 67.17
  L 33.74 66.96
  A 0.45 0.45 0.0 0 1 34.15 67.68
  Q 33.56 68.47 32.44 69.20
  A 1.29 1.27 -13.8 0 0 31.88 70.11
  L 31.28 74.96
  A 0.19 0.19 0.0 0 1 30.91 74.99
  L 28.88 68.41
  A 0.58 0.53 12.5 0 0 28.71 68.17
  L 28.04 67.65
  A 0.36 0.36 0.0 0 0 27.47 68.00
  C 28.50 73.13 29.12 79.18 32.30 83.85
  A 0.34 0.33 19.9 0 0 32.90 83.57
  Q 32.40 81.88 32.37 81.08
  A 0.42 0.42 0.0 0 1 33.20 80.96
  Q 34.10 84.47 35.69 88.94
  Q 36.98 92.53 40.27 93.72
  A 0.79 0.71 48.4 0 0 40.61 93.76
  L 47.29 92.97
  A 5.90 5.54 -43.2 0 1 48.64 92.97
  L 55.00 93.75
  A 1.99 1.93 -57.4 0 0 56.32 93.44
  C 61.23 90.17 60.81 84.48 62.37 81.27
  A 0.29 0.29 0.0 0 1 62.93 81.41
  Q 62.88 82.43 62.42 83.39
  A 0.31 0.31 0.0 0 0 62.94 83.73
  C 66.11 80.11 67.20 72.58 67.83 68.01
  A 0.35 0.34 -16.9 0 0 67.26 67.71
  C 65.91 68.87 65.56 71.51 64.65 74.97
  A 0.29 0.29 0.0 0 1 64.08 74.92
  C 63.79 72.32 64.03 69.20 61.62 68.20
  A 0.38 0.38 0.0 0 1 61.39 67.81
  L 61.43 67.49
  A 0.61 0.61 0.0 0 1 62.22 66.99
  Q 64.17 67.60 66.15 66.24
  Q 70.68 63.14 69.63 56.88
  A 0.44 0.44 0.0 0 0 68.85 56.69
  L 67.23 58.77
  A 0.07 0.07 0.0 0 1 67.10 58.72
  C 67.56 56.80 67.99 55.83 67.53 53.70
  A 0.21 0.21 0.0 0 0 67.13 53.67
  Q 66.88 54.36 66.86 54.59
  Q 66.81 55.47 66.03 54.26
  Q 65.71 53.77 65.64 53.74
  A 0.41 0.41 0.0 0 0 65.08 54.19
  C 65.86 59.19 62.47 59.72 58.71 60.98
  A 0.23 0.22 43.1 0 0 58.73 61.41
  Q 60.88 61.98 62.98 61.27
  A 0.40 0.40 0.0 0 1 63.33 61.99
  C 60.26 63.98 57.93 62.22 55.13 61.97
  A 2.32 2.31 -54.2 0 0 53.96 62.16
  L 52.19 62.95
  A 0.43 0.43 0.0 0 1 51.61 62.44
  Q 51.65 62.30 51.51 61.98
  A 0.21 0.21 0.0 0 0 51.11 62.04
  L 51.05 62.53
  A 0.36 0.36 0.0 0 1 50.74 62.85
  Q 50.36 62.92 50.12 62.58
  A 0.41 0.41 0.0 0 1 50.05 62.23
  L 50.35 61.13
  A 0.47 0.46 -85.4 0 0 49.85 60.54
  L 45.39 61.07
  A 0.26 0.26 0.0 0 0 45.18 61.43
  Q 45.61 62.43 45.55 62.62
  A 0.25 0.25 0.0 0 1 45.09 62.68
  Z
  M 43.75 56.97
  L 38.39 55.16
  A 0.10 0.10 0.0 0 0 38.26 55.23
  L 38.24 55.29
  A 2.75 1.27 18.6 0 0 40.44 57.37
  L 40.78 57.49
  A 2.75 1.27 18.6 0 0 43.79 57.16
  L 43.81 57.10
  A 0.10 0.10 0.0 0 0 43.75 56.97
  Z
  M 57.43 55.22
  L 51.63 56.97
  A 0.11 0.11 0.0 0 0 51.55 57.10
  L 51.57 57.16
  A 3.00 1.31 -16.8 0 0 54.82 57.55
  L 55.09 57.47
  A 3.00 1.31 -16.8 0 0 57.58 55.35
  L 57.56 55.29
  A 0.11 0.11 0.0 0 0 57.43 55.22
  Z
  M 46.42 59.23
  L 48.91 59.33
  A 0.45 0.45 0.0 0 0 49.38 58.90
  L 49.39 58.78
  A 2.13 1.54 -87.7 0 0 47.93 56.59
  L 47.61 56.57
  A 2.13 1.54 -87.7 0 0 45.99 58.64
  L 45.99 58.76
  A 0.45 0.45 0.0 0 0 46.42 59.23
  Z
  M 15.37 64.20
  A 0.11 0.11 0.0 0 0 15.32 64.32
  Q 15.87 66.84 18.31 68.81
  A 0.49 0.49 0.0 0 0 19.09 68.56
  L 20.58 63.18
  A 0.50 0.50 0.0 0 0 19.64 62.87
  L 18.29 66.38
  A 0.59 0.58 40.4 0 1 17.24 66.46
  L 15.82 64.00
  A 0.06 0.06 0.0 0 0 15.74 63.98
  L 15.37 64.20
  Z
  M 80.28 64.39
  L 79.92 64.16
  A 0.06 0.06 0.0 0 0 79.84 64.18
  L 78.34 66.62
  A 0.59 0.59 0.0 0 1 77.28 66.52
  L 76.01 62.94
  A 0.50 0.50 0.0 0 0 75.05 63.23
  L 76.42 68.69
  A 0.49 0.49 0.0 0 0 77.20 68.97
  Q 79.71 67.04 80.33 64.51
  A 0.11 0.11 0.0 0 0 80.28 64.39
  Z
  M 18.0082 71.6925
  A 0.57 0.57 0.0 0 0 17.6448 70.9730
  L 17.5878 70.9542
  A 0.57 0.57 0.0 0 0 16.8683 71.3177
  L 14.9318 77.2075
  A 0.57 0.57 0.0 0 0 15.2952 77.9270
  L 15.3522 77.9458
  A 0.57 0.57 0.0 0 0 16.0717 77.5823
  L 18.0082 71.6925
  Z
  M 74.4784 70.8871
  A 1.94 0.44 -30.1 0 0 72.5793 71.4793
  A 1.94 0.44 -30.1 0 0 71.1216 72.8329
  A 1.94 0.44 -30.1 0 0 73.0207 72.2407
  A 1.94 0.44 -30.1 0 0 74.4784 70.8871
  Z
  M 78.6797 71.3967
  A 0.56 0.56 0.0 0 0 77.9804 71.0249
  L 77.9422 71.0366
  A 0.56 0.56 0.0 0 0 77.5704 71.7359
  L 79.2603 77.2633
  A 0.56 0.56 0.0 0 0 79.9596 77.6351
  L 79.9978 77.6234
  A 0.56 0.56 0.0 0 0 80.3696 76.9241
  L 78.6797 71.3967
  Z
  M 22.2489 71.0318
  A 2.39 0.50 -143.9 0 0 23.8854 72.8440
  A 2.39 0.50 -143.9 0 0 26.1111 73.8482
  A 2.39 0.50 -143.9 0 0 24.4746 72.0360
  A 2.39 0.50 -143.9 0 0 22.2489 71.0318
  Z
  M 76.5502 79.4848
  A 4.74 0.41 -23.7 0 0 72.0452 81.0146
  A 4.74 0.41 -23.7 0 0 67.8698 83.2952
  A 4.74 0.41 -23.7 0 0 72.3748 81.7654
  A 4.74 0.41 -23.7 0 0 76.5502 79.4848
  Z
  M 20.3086 79.6349
  A 4.61 0.42 -156.0 0 0 24.3492 81.8937
  A 4.61 0.42 -156.0 0 0 28.7314 83.3851
  A 4.61 0.42 -156.0 0 0 24.6908 81.1263
  A 4.61 0.42 -156.0 0 0 20.3086 79.6349
  Z
  M 14.6820 79.6904
  A 3.54 0.83 -74.4 0 0 12.9306 82.8768
  A 3.54 0.83 -74.4 0 0 12.7780 86.5096
  A 3.54 0.83 -74.4 0 0 14.5294 83.3232
  A 3.54 0.83 -74.4 0 0 14.6820 79.6904
  Z
  M 81.7932 80.4093
  A 0.63 0.63 0.0 0 0 81.0043 79.9952
  L 80.7179 80.0844
  A 0.63 0.63 0.0 0 0 80.3037 80.8732
  L 81.7668 85.5707
  A 0.63 0.63 0.0 0 0 82.5557 85.9848
  L 82.8421 85.8956
  A 0.63 0.63 0.0 0 0 83.2563 85.1068
  L 81.7932 80.4093
  Z"
/>
<path fill="#eae9dd" d="
  M 33.37 42.41
  Q 37.82 44.85 42.05 46.16
  A 0.14 0.13 -65.5 0 1 42.12 46.36
  L 41.83 46.78
  A 0.06 0.05 -69.2 0 1 41.77 46.81
  Q 36.57 45.69 29.94 42.09
  Q 20.40 36.91 17.53 26.72
  Q 17.02 24.93 14.96 16.25
  Q 13.05 8.20 6.68 3.03
  A 0.26 0.26 0.0 0 1 6.90 2.57
  Q 17.16 4.78 21.71 14.40
  A 0.49 0.49 0.0 0 0 22.58 14.42
  Q 24.38 11.15 27.95 9.92
  A 0.32 0.32 0.0 0 1 28.29 10.45
  Q 21.73 17.33 24.79 27.00
  Q 29.27 41.13 43.63 43.99
  A 0.34 0.34 0.0 0 1 43.76 44.60
  L 43.41 44.84
  A 0.42 0.39 -51.2 0 1 43.08 44.89
  L 33.44 42.24
  A 0.09 0.09 0.0 0 0 33.37 42.41
  Z
  M 22.85 34.17
  A 0.16 0.16 0.0 0 0 23.12 33.99
  Q 19.38 25.98 17.08 16.49
  C 16.75 15.10 15.58 12.19 14.74 11.29
  A 0.14 0.14 0.0 0 0 14.51 11.46
  Q 15.49 13.13 16.02 15.69
  C 17.52 22.85 18.48 29.10 22.85 34.17
  Z"
/>
<path fill="#a22316" d="
  M 66.51 6.90
  Q 65.46 8.22 63.95 8.20
  A 0.49 0.49 0.0 0 0 63.65 9.08
  Q 71.84 15.27 68.94 25.87
  A 0.39 0.39 0.0 0 1 68.28 26.02
  Q 63.78 21.01 62.39 19.93
  Q 59.31 17.53 54.27 15.74
  A 5.27 5.20 -12.7 0 1 52.42 14.59
  Q 52.06 14.24 50.98 12.50
  C 49.33 9.82 46.04 9.72 44.44 12.72
  C 43.68 14.14 42.85 15.23 41.25 15.73
  Q 32.65 18.40 27.35 26.17
  A 0.64 0.64 0.0 0 1 26.19 25.94
  Q 25.18 21.19 26.59 15.70
  A 2.81 2.71 72.6 0 1 27.11 14.66
  L 31.81 8.60
  A 0.43 0.43 0.0 0 0 31.53 7.91
  L 28.26 7.43
  Q 31.25 5.63 35.45 4.47
  Q 51.70 -0.05 66.51 6.90
  Z"
/>
<path fill="#eae9dd" d="
  M 62.68 42.23
  A 0.46 0.45 -28.7 0 0 62.88 41.56
  L 62.89 41.62
  A 0.06 0.05 84.3 0 1 62.85 41.68
  L 52.14 44.99
  A 0.11 0.10 69.2 0 1 52.00 44.92
  L 51.88 44.53
  A 0.27 0.25 -24.9 0 1 52.00 44.23
  C 53.91 43.06 56.90 42.79 59.24 41.48
  C 67.80 36.66 72.37 28.30 71.49 18.51
  C 71.17 14.87 69.47 12.33 66.64 9.93
  A 0.25 0.24 -14.3 0 1 66.89 9.52
  Q 71.11 11.00 72.77 14.47
  A 0.50 0.50 0.0 0 0 73.66 14.49
  Q 74.73 12.49 77.21 9.35
  C 79.82 6.03 84.24 3.74 87.81 2.88
  A 0.33 0.33 0.0 0 1 88.08 3.46
  C 79.60 9.77 80.62 21.76 76.42 31.08
  C 72.63 39.49 62.76 44.88 53.91 46.29
  A 0.26 0.26 0.0 0 1 53.61 46.06
  L 53.64 46.09
  A 0.16 0.14 53.8 0 0 53.79 46.12
  L 62.68 42.23
  Z
  M 72.53 34.72
  C 76.82 29.80 77.80 23.70 79.31 16.72
  Q 79.84 14.23 80.81 12.60
  A 0.14 0.14 0.0 0 0 80.58 12.43
  C 79.76 13.31 78.60 16.14 78.27 17.50
  Q 75.96 26.75 72.27 34.54
  A 0.16 0.16 0.0 0 0 72.53 34.72
  Z"
/>
<path fill="#13120b" d="
  M 22.85 34.17
  C 18.48 29.10 17.52 22.85 16.02 15.69
  Q 15.49 13.13 14.51 11.46
  A 0.14 0.14 0.0 0 1 14.74 11.29
  C 15.58 12.19 16.75 15.10 17.08 16.49
  Q 19.38 25.98 23.12 33.99
  A 0.16 0.16 0.0 0 1 22.85 34.17
  Z"
/>
<path fill="#13120b" d="
  M 72.53 34.72
  A 0.16 0.16 0.0 0 1 72.27 34.54
  Q 75.96 26.75 78.27 17.50
  C 78.60 16.14 79.76 13.31 80.58 12.43
  A 0.14 0.14 0.0 0 1 80.81 12.60
  Q 79.84 14.23 79.31 16.72
  C 77.80 23.70 76.82 29.80 72.53 34.72
  Z"
/>
<path fill="#eae9dd" d="
  M 47.00 13.98
  A 0.43 0.43 0.0 0 1 46.81 13.22
  Q 47.71 12.49 48.25 12.98
  Q 48.86 13.52 48.18 14.11
  Q 48.09 14.19 47.00 13.98
  Z"
/>
<ellipse fill="#eae9dd" cx="0.00" cy="0.00" transform="translate(47.55,16.52) rotate(-1.4)" rx="3.20" ry="0.46"/>
<path fill="#eadfd5" fill-opacity="0.996" d="
  M 60.24 37.44
  C 58.79 29.19 58.20 24.19 52.54 19.73
  A 0.22 0.21 -55.5 0 1 52.50 19.44
  A 0.22 0.21 -58.1 0 1 52.78 19.37
  C 58.62 22.83 60.08 28.70 60.73 35.37
  Q 60.83 36.37 60.55 37.45
  A 0.16 0.16 0.0 0 1 60.24 37.44
  Z"
/>
<path fill="#eadfd5" fill-opacity="0.996" d="
  M 34.92 38.07
  Q 34.61 36.99 34.69 35.97
  C 35.22 29.23 36.58 23.28 42.41 19.67
  A 0.23 0.21 57.0 0 1 42.70 19.74
  A 0.22 0.21 54.4 0 1 42.66 20.03
  C 37.03 24.64 36.53 29.70 35.23 38.05
  A 0.16 0.16 0.0 0 1 34.92 38.07
  Z"
/>
<path fill="#a22316" d="
  M 21.19 37.81
  L 20.34 40.84
  A 0.63 0.63 0.0 0 1 19.42 41.21
  L 14.28 38.25
  A 1.51 1.50 33.6 0 0 12.33 38.64
  Q 8.84 43.27 7.20 48.49
  A 1.62 1.62 0.0 0 0 8.08 50.46
  Q 11.59 52.06 14.42 54.62
  Q 16.49 56.49 15.49 58.88
  Q 12.80 65.34 9.44 71.87
  Q 3.19 60.29 2.88 50.51
  Q 2.35 33.75 12.31 20.49
  A 0.39 0.38 -32.5 0 1 13.00 20.64
  C 14.22 26.73 16.29 33.59 21.19 37.81
  Z"
/>
<path fill="#a22316" d="
  M 85.82 72.74
  L 79.79 58.17
  A 2.75 2.75 0.0 0 1 80.78 54.85
  L 87.28 50.41
  A 2.45 2.44 -32.2 0 0 88.02 47.17
  L 83.11 38.67
  A 1.35 1.34 -29.9 0 0 81.27 38.18
  L 75.83 41.33
  A 0.45 0.44 -17.6 0 1 75.17 40.99
  L 74.81 37.70
  Q 78.29 34.31 79.82 29.85
  Q 81.55 24.77 82.59 20.68
  A 0.52 0.52 0.0 0 1 83.52 20.51
  Q 96.98 39.66 90.46 62.04
  C 89.45 65.52 87.50 69.21 85.82 72.74
  Z"
/>
<path fill="#eae9dd" d="
  M 48.7131 23.4947
  A 9.05 8.88 -83.7 0 1 56.5464 33.4644
  A 9.05 8.88 -83.7 0 1 46.7269 41.4853
  A 9.05 8.88 -83.7 0 1 38.8936 31.5156
  A 9.05 8.88 -83.7 0 1 48.7131 23.4947
  Z
  M 48.6209 24.6006
  A 7.87 7.58 -83.5 0 0 40.1987 31.5619
  A 7.87 7.58 -83.5 0 0 46.8391 40.2394
  A 7.87 7.58 -83.5 0 0 55.2613 33.2781
  A 7.87 7.58 -83.5 0 0 48.6209 24.6006
  Z"
/>
<path fill="#13120b" d="
  M 48.6209 24.6006
  A 7.87 7.58 -83.5 0 1 55.2613 33.2781
  A 7.87 7.58 -83.5 0 1 46.8391 40.2394
  A 7.87 7.58 -83.5 0 1 40.1987 31.5619
  A 7.87 7.58 -83.5 0 1 48.6209 24.6006
  Z
  M 47.91 31.87
  Q 49.77 31.82 51.80 32.22
  A 0.46 0.46 0.0 0 0 52.31 31.57
  Q 51.43 29.69 49.46 28.07
  Q 48.36 27.17 47.78 27.19
  Q 47.20 27.20 46.16 28.16
  Q 44.28 29.89 43.50 31.82
  A 0.46 0.46 0.0 0 0 44.05 32.44
  Q 46.05 31.93 47.91 31.87
  Z
  M 47.90 36.42
  Q 50.31 36.42 51.08 36.34
  A 0.65 0.65 0.0 0 0 51.45 35.21
  Q 49.97 33.83 48.23 32.95
  Q 48.21 32.93 47.90 32.93
  Q 47.59 32.93 47.57 32.95
  Q 45.83 33.83 44.35 35.21
  A 0.65 0.65 0.0 0 0 44.72 36.33
  Q 45.49 36.42 47.90 36.42
  Z"
/>
<path fill="#a22316" d="
  M 47.78 27.19
  Q 48.36 27.17 49.46 28.07
  Q 51.43 29.69 52.31 31.57
  A 0.46 0.46 0.0 0 1 51.80 32.22
  Q 49.77 31.82 47.91 31.87
  Q 46.05 31.93 44.05 32.44
  A 0.46 0.46 0.0 0 1 43.50 31.82
  Q 44.28 29.89 46.16 28.16
  Q 47.20 27.20 47.78 27.19
  Z"
/>
<path fill="#a22316" d="
  M 47.90 32.93
  Q 48.21 32.93 48.23 32.95
  Q 49.97 33.83 51.45 35.21
  A 0.65 0.65 0.0 0 1 51.08 36.34
  Q 50.31 36.42 47.90 36.42
  Q 45.49 36.42 44.72 36.33
  A 0.65 0.65 0.0 0 1 44.35 35.21
  Q 45.83 33.83 47.57 32.95
  Q 47.59 32.93 47.90 32.93
  Z"
/>
<path fill="#eadfd5" fill-opacity="0.996" d="
  M 22.41 49.14
  Q 18.97 44.16 14.63 41.68
  A 1.02 1.02 0.0 0 0 13.18 42.15
  L 10.91 47.17
  A 1.35 1.34 30.8 0 0 11.33 48.80
  C 15.41 51.84 19.02 54.32 21.13 58.68
  A 0.32 0.32 0.0 0 1 20.59 59.02
  Q 15.91 52.93 9.42 49.17
  A 0.70 0.70 0.0 0 1 9.14 48.28
  L 12.85 40.11
  A 0.62 0.61 -65.7 0 1 13.67 39.79
  Q 20.38 42.84 22.83 48.92
  A 0.24 0.24 0.0 0 1 22.41 49.14
  Z"
/>
<path fill="#eae9dd" d="
  M 72.35 48.88
  Q 74.91 42.74 81.77 39.73
  A 0.63 0.62 66.5 0 1 82.60 40.06
  L 86.25 48.41
  A 0.71 0.71 0.0 0 1 85.96 49.31
  Q 79.32 53.04 74.49 59.16
  A 0.33 0.33 0.0 0 1 73.94 58.81
  C 76.14 54.41 79.84 51.94 84.02 48.91
  A 1.37 1.36 -30.0 0 0 84.47 47.26
  L 82.23 42.13
  A 1.04 1.04 0.0 0 0 80.77 41.64
  Q 76.33 44.10 72.77 49.11
  A 0.24 0.24 0.0 0 1 72.35 48.88
  Z"
/>
<ellipse fill="#652129" cx="0.00" cy="0.00" transform="translate(71.00,44.11) rotate(-46.1)" rx="1.59" ry="0.29"/>
<path fill="#652129" d="
  M 26.45 45.77
  Q 26.11 46.19 25.22 45.36
  Q 23.43 43.67 23.61 43.44
  Q 23.80 43.22 25.81 44.65
  Q 26.80 45.35 26.45 45.77
  Z"
/>
<ellipse fill="#a22316" cx="0.00" cy="0.00" transform="translate(47.97,45.34) rotate(-3.9)" rx="1.81" ry="1.56"/>
<path fill="#13120b" d="
  M 2.09 45.80
  L 2.01 46.71
  Q 1.62 46.00 2.09 45.80
  Z"
/>
<path fill="#eae9dd" d="
  M 47.70 51.81
  C 41.13 51.81 35.41 51.10 29.70 47.95
  A 0.44 0.44 0.0 0 1 29.93 47.13
  Q 37.99 47.51 46.00 48.58
  Q 46.02 48.58 47.71 48.58
  Q 49.39 48.58 49.42 48.58
  Q 57.42 47.52 65.48 47.14
  A 0.44 0.44 0.0 0 1 65.71 47.97
  C 60.00 51.11 54.28 51.81 47.70 51.81
  Z"
/>
<path fill="#eadfd5" fill-opacity="0.996" d="
  M 47.90 52.83
  C 55.21 52.82 61.43 51.76 67.93 48.37
  A 0.48 0.48 0.0 0 1 68.59 48.59
  L 68.60 48.62
  A 0.48 0.48 0.0 0 1 68.37 49.26
  C 61.30 52.79 55.58 54.05 47.91 54.06
  C 40.23 54.07 34.51 52.83 27.43 49.32
  A 0.48 0.48 0.0 0 1 27.20 48.68
  L 27.21 48.65
  A 0.48 0.48 0.0 0 1 27.86 48.43
  C 34.37 51.80 40.60 52.84 47.90 52.83
  Z"
/>
<path fill="#652129" d="
  M 20.44 50.99
  Q 21.38 52.04 21.67 52.86
  A 0.03 0.03 0.0 0 1 21.63 52.90
  Q 21.49 52.90 21.41 53.01
  A 0.08 0.07 -42.5 0 1 21.28 53.01
  Q 20.75 52.08 20.07 51.32
  Q 19.39 50.56 18.53 49.92
  A 0.08 0.07 -40.9 0 1 18.54 49.79
  Q 18.66 49.72 18.68 49.58
  A 0.03 0.03 0.0 0 1 18.72 49.55
  Q 19.50 49.93 20.44 50.99
  Z"
/>
<path fill="#eae9dd" d="
  M 45.55 62.62
  Q 45.61 62.43 45.18 61.43
  A 0.26 0.26 0.0 0 1 45.39 61.07
  L 49.85 60.54
  A 0.47 0.46 -85.4 0 1 50.35 61.13
  L 50.05 62.23
  A 0.41 0.41 0.0 0 0 50.12 62.58
  Q 50.36 62.92 50.74 62.85
  A 0.36 0.36 0.0 0 0 51.05 62.53
  L 51.11 62.04
  A 0.21 0.21 0.0 0 1 51.51 61.98
  Q 51.65 62.30 51.61 62.44
  A 0.43 0.43 0.0 0 0 52.19 62.95
  L 53.96 62.16
  A 2.32 2.31 -54.2 0 1 55.13 61.97
  C 57.93 62.22 60.26 63.98 63.33 61.99
  A 0.40 0.40 0.0 0 0 62.98 61.27
  Q 60.88 61.98 58.73 61.41
  A 0.23 0.22 43.1 0 1 58.71 60.98
  C 62.47 59.72 65.86 59.19 65.08 54.19
  A 0.41 0.41 0.0 0 1 65.64 53.74
  Q 65.71 53.77 66.03 54.26
  Q 66.81 55.47 66.86 54.59
  Q 66.88 54.36 67.13 53.67
  A 0.21 0.21 0.0 0 1 67.53 53.70
  C 67.99 55.83 67.56 56.80 67.10 58.72
  A 0.07 0.07 0.0 0 0 67.23 58.77
  L 68.85 56.69
  A 0.44 0.44 0.0 0 1 69.63 56.88
  Q 70.68 63.14 66.15 66.24
  Q 64.17 67.60 62.22 66.99
  A 0.61 0.61 0.0 0 0 61.43 67.49
  L 61.39 67.81
  A 0.38 0.38 0.0 0 0 61.62 68.20
  C 64.03 69.20 63.79 72.32 64.08 74.92
  A 0.29 0.29 0.0 0 0 64.65 74.97
  C 65.56 71.51 65.91 68.87 67.26 67.71
  A 0.35 0.34 -16.9 0 1 67.83 68.01
  C 67.20 72.58 66.11 80.11 62.94 83.73
  A 0.31 0.31 0.0 0 1 62.42 83.39
  Q 62.88 82.43 62.93 81.41
  A 0.29 0.29 0.0 0 0 62.37 81.27
  C 60.81 84.48 61.23 90.17 56.32 93.44
  A 1.99 1.93 -57.4 0 1 55.00 93.75
  L 48.64 92.97
  A 5.90 5.54 -43.2 0 0 47.29 92.97
  L 40.61 93.76
  A 0.79 0.71 48.4 0 1 40.27 93.72
  Q 36.98 92.53 35.69 88.94
  Q 34.10 84.47 33.20 80.96
  A 0.42 0.42 0.0 0 0 32.37 81.08
  Q 32.40 81.88 32.90 83.57
  A 0.34 0.33 19.9 0 1 32.30 83.85
  C 29.12 79.18 28.50 73.13 27.47 68.00
  A 0.36 0.36 0.0 0 1 28.04 67.65
  L 28.71 68.17
  A 0.58 0.53 12.5 0 1 28.88 68.41
  L 30.91 74.99
  A 0.19 0.19 0.0 0 0 31.28 74.96
  L 31.88 70.11
  A 1.29 1.27 -13.8 0 1 32.44 69.20
  Q 33.56 68.47 34.15 67.68
  A 0.45 0.45 0.0 0 0 33.74 66.96
  L 32.02 67.17
  A 0.78 0.68 -34.6 0 1 31.68 67.13
  Q 24.35 64.33 25.77 56.70
  A 0.46 0.46 0.0 0 1 26.59 56.51
  Q 27.38 57.56 27.65 58.66
  A 0.32 0.31 75.3 0 0 28.03 58.89
  L 28.04 58.88
  A 0.32 0.31 -16.8 0 0 28.26 58.48
  Q 27.61 56.47 27.64 55.01
  A 1.33 1.33 0.0 0 1 29.13 53.72
  L 29.88 53.82
  A 0.43 0.42 -82.2 0 1 30.25 54.31
  C 29.62 58.44 33.19 60.73 36.99 60.80
  A 0.30 0.30 0.0 0 1 37.08 61.39
  Q 35.05 62.04 32.26 61.18
  A 0.26 0.26 0.0 0 0 31.99 61.60
  C 34.10 63.87 37.28 62.81 40.31 61.96
  A 1.51 1.48 50.7 0 1 41.41 62.08
  L 43.03 62.95
  A 0.82 0.53 -12.0 0 0 43.16 63.00
  Q 43.86 63.20 43.92 62.44
  Q 43.93 62.19 44.25 62.11
  Q 44.68 61.99 45.09 62.68
  A 0.25 0.25 0.0 0 0 45.55 62.62
  Z
  M 28.24 55.21
  Q 28.47 55.09 28.54 54.46
  A 0.30 0.30 0.0 0 0 28.18 54.14
  Q 28.00 54.18 27.91 54.44
  A 0.56 0.33 -82.7 0 0 28.24 55.21
  Z
  M 43.20 65.71
  Q 41.59 63.49 39.24 64.13
  A 2.29 2.27 -78.6 0 0 38.03 64.94
  L 33.91 70.23
  A 2.43 2.29 72.3 0 0 33.49 71.11
  Q 32.54 74.86 33.81 78.48
  A 0.33 0.33 0.0 0 0 34.45 78.36
  Q 34.28 74.15 37.35 71.24
  A 1.23 1.21 -62.6 0 1 38.36 70.91
  L 39.01 70.99
  A 0.46 0.46 0.0 0 0 39.45 70.28
  C 38.14 68.37 38.89 64.10 42.81 66.15
  A 0.30 0.30 0.0 0 0 43.20 65.71
  Z
  M 52.07 65.85
  A 0.30 0.30 0.0 0 0 52.47 66.27
  C 56.29 64.16 57.13 68.36 55.88 70.27
  A 0.46 0.45 12.3 0 0 56.33 70.96
  L 56.97 70.87
  A 1.22 1.20 61.2 0 1 57.97 71.17
  Q 61.07 73.97 61.00 78.13
  A 0.33 0.32 -35.6 0 0 61.63 78.23
  Q 62.80 74.63 61.78 70.95
  A 2.40 2.26 -73.6 0 0 61.35 70.09
  L 57.16 64.97
  A 2.26 2.24 77.3 0 0 55.95 64.20
  Q 53.61 63.62 52.07 65.85
  Z
  M 55.10 70.70
  A 0.74 0.74 0.0 0 0 54.60 69.33
  Q 51.53 69.88 49.02 72.32
  A 1.72 1.71 -49.3 0 1 46.83 72.49
  Q 44.34 70.72 42.60 69.81
  Q 41.39 69.18 40.49 69.58
  A 0.43 0.42 52.5 0 0 40.40 70.30
  Q 44.81 73.93 46.70 74.63
  C 49.51 75.66 53.13 71.82 55.10 70.70
  Z
  M 47.72 84.45
  Q 50.89 84.45 55.02 86.29
  Q 57.97 87.61 58.90 84.18
  C 59.79 80.91 60.94 75.69 58.27 73.73
  A 2.72 2.51 -42.5 0 0 55.32 73.72
  Q 51.32 76.28 47.71 76.28
  Q 44.09 76.29 40.08 73.75
  A 2.72 2.51 42.2 0 0 37.13 73.78
  C 34.47 75.75 35.64 80.96 36.55 84.23
  Q 37.49 87.65 40.43 86.32
  Q 44.56 84.46 47.72 84.45
  Z
  M 56.99 88.47
  Q 56.28 88.77 55.61 88.74
  A 2.22 2.11 -26.6 0 1 54.60 88.43
  Q 47.69 84.13 40.73 88.50
  Q 40.34 88.75 38.67 88.77
  A 0.41 0.41 0.0 0 0 38.31 89.37
  C 38.81 90.32 40.07 90.63 40.96 90.00
  C 44.99 87.18 50.77 87.49 54.36 90.24
  A 1.15 1.13 -30.6 0 0 55.24 90.46
  Q 56.99 90.15 57.47 88.94
  A 0.37 0.36 -0.4 0 0 56.99 88.47
  Z"
/>
<path fill="#652129" d="
  M 28.24 55.21
  A 0.56 0.33 -82.7 0 1 27.91 54.44
  Q 28.00 54.18 28.18 54.14
  A 0.30 0.30 0.0 0 1 28.54 54.46
  Q 28.47 55.09 28.24 55.21
  Z"
/>
<path fill="#eadfd5" fill-opacity="0.996" d="
  M 43.75 56.97
  A 0.10 0.10 0.0 0 1 43.81 57.10
  L 43.79 57.16
  A 2.75 1.27 18.6 0 1 40.78 57.49
  L 40.44 57.37
  A 2.75 1.27 18.6 0 1 38.24 55.29
  L 38.26 55.23
  A 0.10 0.10 0.0 0 1 38.39 55.16
  L 43.75 56.97
  Z"
/>
<path fill="#eadfd5" fill-opacity="0.996" d="
  M 57.43 55.22
  A 0.11 0.11 0.0 0 1 57.56 55.29
  L 57.58 55.35
  A 3.00 1.31 -16.8 0 1 55.09 57.47
  L 54.82 57.55
  A 3.00 1.31 -16.8 0 1 51.57 57.16
  L 51.55 57.10
  A 0.11 0.11 0.0 0 1 51.63 56.97
  L 57.43 55.22
  Z"
/>
<path fill="#eae9dd" d="
  M 46.42 59.23
  A 0.45 0.45 0.0 0 1 45.99 58.76
  L 45.99 58.64
  A 2.13 1.54 -87.7 0 1 47.61 56.57
  L 47.93 56.59
  A 2.13 1.54 -87.7 0 1 49.39 58.78
  L 49.38 58.90
  A 0.45 0.45 0.0 0 1 48.91 59.33
  L 46.42 59.23
  Z"
/>
<path fill="#eadfd5" fill-opacity="0.996" d="
  M 15.82 64.00
  L 17.24 66.46
  A 0.59 0.58 40.4 0 0 18.29 66.38
  L 19.64 62.87
  A 0.50 0.50 0.0 0 1 20.58 63.18
  L 19.09 68.56
  A 0.49 0.49 0.0 0 1 18.31 68.81
  Q 15.87 66.84 15.32 64.32
  A 0.11 0.11 0.0 0 1 15.37 64.20
  L 15.74 63.98
  A 0.06 0.06 0.0 0 1 15.82 64.00
  Z"
/>
<path fill="#eadfd5" fill-opacity="0.996" d="
  M 80.28 64.39
  A 0.11 0.11 0.0 0 1 80.33 64.51
  Q 79.71 67.04 77.20 68.97
  A 0.49 0.49 0.0 0 1 76.42 68.69
  L 75.05 63.23
  A 0.50 0.50 0.0 0 1 76.01 62.94
  L 77.28 66.52
  A 0.59 0.59 0.0 0 0 78.34 66.62
  L 79.84 64.18
  A 0.06 0.06 0.0 0 1 79.92 64.16
  L 80.28 64.39
  Z"
/>
<path fill="#13120b" d="
  M 43.20 65.71
  A 0.30 0.30 0.0 0 1 42.81 66.15
  C 38.89 64.10 38.14 68.37 39.45 70.28
  A 0.46 0.46 0.0 0 1 39.01 70.99
  L 38.36 70.91
  A 1.23 1.21 -62.6 0 0 37.35 71.24
  Q 34.28 74.15 34.45 78.36
  A 0.33 0.33 0.0 0 1 33.81 78.48
  Q 32.54 74.86 33.49 71.11
  A 2.43 2.29 72.3 0 1 33.91 70.23
  L 38.03 64.94
  A 2.29 2.27 -78.6 0 1 39.24 64.13
  Q 41.59 63.49 43.20 65.71
  Z"
/>
<path fill="#13120b" d="
  M 52.07 65.85
  Q 53.61 63.62 55.95 64.20
  A 2.26 2.24 77.3 0 1 57.16 64.97
  L 61.35 70.09
  A 2.40 2.26 -73.6 0 1 61.78 70.95
  Q 62.80 74.63 61.63 78.23
  A 0.33 0.32 -35.6 0 1 61.00 78.13
  Q 61.07 73.97 57.97 71.17
  A 1.22 1.20 61.2 0 0 56.97 70.87
  L 56.33 70.96
  A 0.46 0.45 12.3 0 1 55.88 70.27
  C 57.13 68.36 56.29 64.16 52.47 66.27
  A 0.30 0.30 0.0 0 1 52.07 65.85
  Z
  M 61.11 72.16
  Q 60.83 71.60 60.15 71.20
  A 0.19 0.19 0.0 0 0 59.88 71.44
  Q 60.38 72.52 60.63 72.64
  A 0.36 0.36 0.0 0 0 61.11 72.16
  Z"
/>
<path fill="#13120b" d="
  M 55.10 70.70
  C 53.13 71.82 49.51 75.66 46.70 74.63
  Q 44.81 73.93 40.40 70.30
  A 0.43 0.42 52.5 0 1 40.49 69.58
  Q 41.39 69.18 42.60 69.81
  Q 44.34 70.72 46.83 72.49
  A 1.72 1.71 -49.3 0 0 49.02 72.32
  Q 51.53 69.88 54.60 69.33
  A 0.74 0.74 0.0 0 1 55.10 70.70
  Z"
/>
<rect fill="#eadfd5" fill-opacity="0.996" x="-0.60" y="-3.67" transform="translate(16.47,74.45) rotate(18.2)" width="1.20" height="7.34" rx="0.57"/>
<ellipse fill="#652129" cx="0.00" cy="0.00" transform="translate(72.80,71.86) rotate(-30.1)" rx="1.94" ry="0.44"/>
<rect fill="#eadfd5" fill-opacity="0.996" x="-0.58" y="-3.45" transform="translate(78.97,74.33) rotate(-17.0)" width="1.16" height="6.90" rx="0.56"/>
<ellipse fill="#652129" cx="0.00" cy="0.00" transform="translate(24.18,72.44) rotate(-143.9)" rx="2.39" ry="0.50"/>
<path fill="#eadfd5" fill-opacity="0.996" d="
  M 60.63 72.64
  Q 60.38 72.52 59.88 71.44
  A 0.19 0.19 0.0 0 1 60.15 71.20
  Q 60.83 71.60 61.11 72.16
  A 0.36 0.36 0.0 0 1 60.63 72.64
  Z"
/>
<path fill="#13120b" d="
  M 47.71 76.28
  Q 51.32 76.28 55.32 73.72
  A 2.72 2.51 -42.5 0 1 58.27 73.73
  C 60.94 75.69 59.79 80.91 58.90 84.18
  Q 57.97 87.61 55.02 86.29
  Q 50.89 84.45 47.72 84.45
  Q 44.56 84.46 40.43 86.32
  Q 37.49 87.65 36.55 84.23
  C 35.64 80.96 34.47 75.75 37.13 73.78
  A 2.72 2.51 42.2 0 1 40.08 73.75
  Q 44.09 76.29 47.71 76.28
  Z
  M 54.89 77.60
  L 55.58 78.14
  A 0.45 0.45 0.0 0 0 56.30 77.84
  L 56.60 75.45
  A 0.40 0.40 0.0 0 0 56.07 75.03
  Q 54.96 75.42 54.51 75.96
  A 1.47 1.43 7.7 0 1 53.94 76.38
  Q 47.87 78.94 42.41 76.61
  A 0.50 0.50 0.0 0 0 41.76 77.28
  Q 41.96 77.71 42.24 77.97
  Q 42.60 78.29 42.99 78.33
  Q 44.55 78.48 46.25 78.79
  Q 47.90 79.09 49.22 78.74
  Q 49.43 78.69 52.99 78.10
  Q 53.30 78.05 53.48 77.88
  Q 53.60 77.76 53.70 77.66
  A 0.92 0.91 -47.8 0 1 54.89 77.60
  Z
  M 39.09 76.95
  Q 39.38 77.82 39.77 78.03
  A 0.69 0.69 0.0 0 0 40.64 77.85
  Q 41.41 76.87 41.21 76.26
  Q 41.01 75.65 39.81 75.31
  A 0.69 0.69 0.0 0 0 39.00 75.68
  Q 38.81 76.08 39.09 76.95
  Z
  M 42.53 83.62
  Q 48.03 82.72 52.55 83.75
  A 0.32 0.32 0.0 0 0 52.94 83.48
  L 52.98 83.16
  A 0.63 0.63 0.0 0 0 52.55 82.49
  Q 47.37 80.84 42.66 82.69
  A 1.56 1.54 -47.1 0 1 41.69 82.73
  Q 41.40 82.65 40.87 82.32
  Q 40.40 82.02 40.07 82.24
  Q 39.69 82.49 39.73 83.23
  A 0.41 0.41 0.0 0 1 38.98 83.48
  L 38.05 82.12
  A 0.29 0.28 -60.0 0 0 37.53 82.26
  C 37.27 85.47 40.18 86.15 41.92 83.98
  A 1.00 0.97 -74.5 0 1 42.53 83.62
  Z
  M 53.61 84.21
  Q 54.87 85.39 56.48 85.34
  A 0.90 0.89 -75.9 0 0 57.24 84.88
  Q 57.97 83.58 57.99 82.43
  A 0.40 0.40 0.0 0 0 57.40 82.08
  Q 57.19 82.20 56.90 82.92
  Q 56.60 83.66 55.93 83.44
  Q 55.59 83.32 55.45 82.30
  A 0.48 0.48 0.0 0 0 54.72 81.95
  Q 53.91 82.45 53.46 83.39
  A 0.71 0.69 35.2 0 0 53.61 84.21
  Z"
/>
<path fill="#eadfd5" fill-opacity="0.996" d="
  M 53.70 77.66
  Q 53.60 77.76 53.48 77.88
  Q 53.30 78.05 52.99 78.10
  Q 49.43 78.69 49.22 78.74
  Q 47.90 79.09 46.25 78.79
  Q 44.55 78.48 42.99 78.33
  Q 42.60 78.29 42.24 77.97
  Q 41.96 77.71 41.76 77.28
  A 0.50 0.50 0.0 0 1 42.41 76.61
  Q 47.87 78.94 53.94 76.38
  A 1.47 1.43 7.7 0 0 54.51 75.96
  Q 54.96 75.42 56.07 75.03
  A 0.40 0.40 0.0 0 1 56.60 75.45
  L 56.30 77.84
  A 0.45 0.45 0.0 0 1 55.58 78.14
  L 54.89 77.60
  A 0.92 0.91 -47.8 0 0 53.70 77.66
  Z"
/>
<path fill="#eadfd5" fill-opacity="0.996" d="
  M 41.21 76.26
  Q 41.41 76.87 40.64 77.85
  A 0.69 0.69 0.0 0 1 39.77 78.03
  Q 39.38 77.82 39.09 76.95
  Q 38.81 76.08 39.00 75.68
  A 0.69 0.69 0.0 0 1 39.81 75.31
  Q 41.01 75.65 41.21 76.26
  Z"
/>
<ellipse fill="#652129" cx="0.00" cy="0.00" transform="translate(72.21,81.39) rotate(-23.7)" rx="4.74" ry="0.41"/>
<ellipse fill="#652129" cx="0.00" cy="0.00" transform="translate(24.52,81.51) rotate(-156.0)" rx="4.61" ry="0.42"/>
<ellipse fill="#eadfd5" fill-opacity="0.996" cx="0.00" cy="0.00" transform="translate(13.73,83.10) rotate(-74.4)" rx="3.54" ry="0.83"/>
<rect fill="#eadfd5" fill-opacity="0.996" x="-0.78" y="-3.09" transform="translate(81.78,82.99) rotate(-17.3)" width="1.56" height="6.18" rx="0.63"/>
<path fill="#eadfd5" fill-opacity="0.996" d="
  M 41.92 83.98
  C 40.18 86.15 37.27 85.47 37.53 82.26
  A 0.29 0.28 -60.0 0 1 38.05 82.12
  L 38.98 83.48
  A 0.41 0.41 0.0 0 0 39.73 83.23
  Q 39.69 82.49 40.07 82.24
  Q 40.40 82.02 40.87 82.32
  Q 41.40 82.65 41.69 82.73
  A 1.56 1.54 -47.1 0 0 42.66 82.69
  Q 47.37 80.84 52.55 82.49
  A 0.63 0.63 0.0 0 1 52.98 83.16
  L 52.94 83.48
  A 0.32 0.32 0.0 0 1 52.55 83.75
  Q 48.03 82.72 42.53 83.62
  A 1.00 0.97 -74.5 0 0 41.92 83.98
  Z"
/>
<path fill="#eadfd5" fill-opacity="0.996" d="
  M 53.46 83.39
  Q 53.91 82.45 54.72 81.95
  A 0.48 0.48 0.0 0 1 55.45 82.30
  Q 55.59 83.32 55.93 83.44
  Q 56.60 83.66 56.90 82.92
  Q 57.19 82.20 57.40 82.08
  A 0.40 0.40 0.0 0 1 57.99 82.43
  Q 57.97 83.58 57.24 84.88
  A 0.90 0.89 -75.9 0 1 56.48 85.34
  Q 54.87 85.39 53.61 84.21
  A 0.71 0.69 35.2 0 1 53.46 83.39
  Z"
/>
<path fill="#13120b" d="
  M 57.47 88.94
  Q 56.99 90.15 55.24 90.46
  A 1.15 1.13 -30.6 0 1 54.36 90.24
  C 50.77 87.49 44.99 87.18 40.96 90.00
  C 40.07 90.63 38.81 90.32 38.31 89.37
  A 0.41 0.41 0.0 0 1 38.67 88.77
  Q 40.34 88.75 40.73 88.50
  Q 47.69 84.13 54.60 88.43
  A 2.22 2.11 -26.6 0 0 55.61 88.74
  Q 56.28 88.77 56.99 88.47
  A 0.37 0.36 -0.4 0 1 57.47 88.94
  Z"
/>
</svg>
