<?xml version="1.0" encoding="UTF-8" standalone="no"?>
<!DOCTYPE svg PUBLIC "-//W3C//DTD SVG 1.1//EN" "http://www.w3.org/Graphics/SVG/1.1/DTD/svg11.dtd">
<svg xmlns="http://www.w3.org/2000/svg" version="1.1" viewBox="0.00 0.00 125.00 125.00">
<g stroke-width="2.00" fill="none" stroke-linecap="butt">
<path stroke="#686768" vector-effect="non-scaling-stroke" d="
  M 62.31 3.69
  Q 69.35 3.73 74.78 4.95
  Q 80.81 6.30 91.06 11.06
  A 0.68 0.67 -67.8 0 0 91.98 10.67
  L 91.99 10.65
  A 0.95 0.94 -65.3 0 0 91.58 9.53
  Q 81.14 3.41 70.71 2.23
  Q 68.58 1.99 62.32 1.96
  Q 56.06 1.92 53.92 2.14
  Q 43.48 3.21 32.98 9.22
  A 0.95 0.94 65.9 0 0 32.56 10.34
  L 32.57 10.36
  A 0.68 0.67 68.4 0 0 33.48 10.76
  Q 43.78 6.11 49.83 4.82
  Q 55.27 3.66 62.31 3.69"
/>
<path stroke="#797979" vector-effect="non-scaling-stroke" d="
  M 60.10 13.74
  Q 58.44 26.18 53.84 37.91
  A 2.71 2.66 58.4 0 0 53.66 38.70
  C 53.38 42.73 57.35 45.95 60.63 47.54
  A 0.53 0.53 0.0 0 0 61.38 47.07
  L 61.54 14.01"
/>
<path stroke="#686768" vector-effect="non-scaling-stroke" d="
  M 61.54 14.01
  Q 61.26 12.75 62.30 12.59
  A 1.07 1.07 0.0 0 1 63.50 13.93
  Q 63.04 15.59 63.10 17.75
  Q 63.26 23.52 63.35 29.30"
/>
<path stroke="#797979" vector-effect="non-scaling-stroke" d="
  M 63.35 29.30
  L 63.31 46.86
  A 0.54 0.53 -12.9 0 0 64.08 47.34
  Q 67.76 45.58 69.59 42.87
  Q 71.44 40.13 70.95 38.74
  Q 67.31 28.52 64.96 17.95"
/>
<path stroke="#686768" vector-effect="non-scaling-stroke" d="
  M 64.96 17.95
  L 64.11 12.53"
/>
<path stroke="#272727" vector-effect="non-scaling-stroke" d="
  M 64.11 12.53
  C 70.80 13.05 78.59 14.06 84.09 17.44
  Q 88.77 20.32 90.55 21.37
  A 1.20 1.20 0.0 0 0 92.36 20.34
  L 92.36 17.73
  A 2.39 2.38 16.8 0 0 91.29 15.74
  Q 80.79 8.84 68.00 7.28
  Q 61.70 6.51 56.54 7.41
  Q 49.50 8.63 45.26 9.77
  Q 40.93 10.95 33.86 14.96
  A 3.14 3.13 75.3 0 0 32.27 17.69
  L 32.27 20.35
  A 1.18 1.18 0.0 0 0 34.16 21.30
  Q 44.67 13.46 58.95 12.72
  Q 59.74 12.68 60.10 13.74"
/>
<path stroke="#8a8989" vector-effect="non-scaling-stroke" d="
  M 64.11 12.53
  Q 65.02 11.23 63.66 10.18
  A 1.33 1.31 -28.0 0 0 62.75 9.91
  Q 60.11 10.15 60.26 13.84"
/>
<path stroke="#9a9b9a" vector-effect="non-scaling-stroke" d="
  M 60.26 13.84
  Q 60.18 13.79 60.10 13.74"
/>
<path stroke="#dcdadb" vector-effect="non-scaling-stroke" d="
  M 64.96 17.95
  L 63.87 18.41
  A 0.80 0.80 0.0 0 0 63.38 19.13
  L 63.35 29.30"
/>
<path stroke="#dcdadb" vector-effect="non-scaling-stroke" d="
  M 61.54 14.01
  Q 60.77 13.79 60.26 13.84"
/>
<path stroke="#686768" vector-effect="non-scaling-stroke" d="
  M 61.43 122.15
  Q 66.63 122.20 67.51 122.11
  Q 85.17 120.35 99.37 109.35
  C 112.24 99.38 122.58 81.36 122.06 64.84
  C 121.92 60.37 122.36 55.89 121.55 51.54
  C 118.69 36.34 110.07 21.78 97.07 13.10
  A 0.27 0.26 -77.1 0 0 96.66 13.36
  Q 96.80 14.42 97.71 15.34
  C 100.32 18.00 104.23 21.33 106.82 24.50
  C 128.70 51.29 123.73 90.02 95.30 110.07
  Q 87.88 115.31 80.06 117.66
  C 74.24 119.41 67.50 120.77 61.45 120.71
  C 55.39 120.65 48.69 119.17 42.90 117.30
  Q 35.12 114.80 27.81 109.42
  C -0.24 88.83 -4.46 50.01 17.93 23.65
  C 20.58 20.53 24.55 17.27 27.21 14.66
  Q 28.14 13.76 28.30 12.71
  A 0.27 0.26 78.2 0 0 27.89 12.44
  C 14.73 20.87 5.83 35.26 2.68 50.40
  C 1.79 54.73 2.14 59.22 1.92 63.69
  C 1.08 80.20 11.07 98.41 23.75 108.63
  Q 37.74 119.90 55.36 122.00
  Q 56.23 122.10 61.43 122.15"
/>
<path stroke="#797979" vector-effect="non-scaling-stroke" d="
  M 29.77 16.25
  A 0.28 0.28 0.0 0 0 29.24 16.17
  C 22.19 29.55 30.13 44.11 41.97 51.29
  C 45.44 53.40 51.14 55.14 53.72 50.67
  A 2.21 2.19 63.2 0 0 54.00 49.81
  Q 54.34 46.45 53.81 45.19
  C 52.61 42.31 49.92 41.60 47.52 43.40
  Q 46.41 44.24 45.78 44.51
  A 1.11 1.10 50.7 0 1 44.70 44.40
  C 36.88 38.70 30.54 31.85 30.25 22.75
  Q 30.10 18.12 29.77 16.25"
/>
<path stroke="#797979" vector-effect="non-scaling-stroke" d="
  M 94.95 16.82
  Q 94.59 18.67 94.38 23.25
  C 93.97 32.26 87.60 38.95 79.78 44.48
  A 1.09 1.09 0.0 0 1 78.71 44.58
  Q 78.09 44.30 77.00 43.45
  C 74.65 41.64 71.97 42.30 70.75 45.14
  Q 70.20 46.38 70.49 49.71
  A 2.19 2.17 -62.4 0 0 70.76 50.56
  C 73.25 55.03 78.92 53.38 82.38 51.34
  C 94.20 44.40 102.27 30.10 95.47 16.75
  A 0.28 0.28 0.0 0 0 94.95 16.82"
/>
<path stroke="#797979" vector-effect="non-scaling-stroke" d="
  M 99.09 95.60
  L 88.83 89.07
  A 0.37 0.37 0.0 0 1 89.03 88.38
  L 97.94 88.38
  A 0.18 0.17 -35.4 0 0 98.00 88.04
  L 84.59 83.56
  A 0.96 0.93 -1.0 0 1 84.00 83.01
  L 83.61 82.01
  A 0.73 0.72 -13.5 0 0 82.87 81.56
  L 67.71 82.92
  A 1.57 1.57 0.0 0 0 66.58 85.40
  L 68.61 88.22
  A 0.94 0.89 -4.8 0 0 68.97 88.51
  Q 73.68 90.53 78.17 92.67
  Q 78.86 93.00 82.26 93.09
  Q 86.06 93.20 97.64 97.03"
/>
<path stroke="#272727" vector-effect="non-scaling-stroke" d="
  M 97.64 97.03
  Q 88.48 105.63 78.75 108.81
  Q 51.41 117.73 29.55 99.19
  Q 29.01 98.74 28.05 98.29
  Q 27.08 97.84 26.64 97.24"
/>
<path stroke="#797979" vector-effect="non-scaling-stroke" d="
  M 26.64 97.24
  Q 35.96 93.85 45.43 92.84
  A 4.63 4.57 29.4 0 0 46.79 92.47
  L 55.45 88.56
  A 0.63 0.46 -72.3 0 0 55.60 88.45
  Q 57.78 86.11 58.16 84.96
  A 1.56 1.56 0.0 0 0 56.82 82.90
  L 41.68 81.55
  A 0.82 0.81 -81.0 0 0 40.82 82.18
  Q 40.56 83.34 39.03 83.88
  Q 33.19 85.93 27.58 87.67
  A 0.30 0.29 -51.2 0 0 27.64 88.25
  Q 31.11 88.49 35.30 88.14
  Q 35.84 88.10 35.95 88.65
  Q 35.97 88.73 35.84 88.98
  A 0.41 0.41 0.0 0 1 35.71 89.11
  L 25.29 95.79"
/>
<path stroke="#272727" vector-effect="non-scaling-stroke" d="
  M 25.29 95.79
  Q 24.64 94.52 22.13 91.11
  Q 12.19 77.62 12.86 59.68
  Q 13.51 42.22 24.03 30.89
  A 0.91 0.86 -24.9 0 0 24.27 30.29
  L 24.27 23.05
  A 0.39 0.39 0.0 0 0 23.60 22.78
  Q 11.88 34.82 8.57 51.23
  Q 4.31 72.40 16.01 91.55
  Q 19.82 97.79 25.06 102.44
  Q 38.54 114.42 56.27 116.43
  Q 74.72 118.53 91.06 108.59
  Q 97.51 104.68 98.94 103.20
  Q 111.07 90.76 114.69 78.03
  Q 119.06 62.64 114.74 46.03
  Q 112.18 36.18 102.33 24.01
  A 1.32 1.31 25.6 0 0 99.99 24.83
  L 99.99 27.78
  A 7.29 7.28 25.8 0 0 101.57 32.31
  Q 105.36 37.10 108.66 44.38
  Q 111.29 50.17 111.72 55.73
  Q 112.17 61.43 111.32 67.57
  Q 110.85 70.91 110.83 72.22
  A 2.60 2.30 -41.6 0 1 110.76 72.80
  Q 107.58 85.41 99.09 95.60"
/>
<path stroke="#9a9b9a" vector-effect="non-scaling-stroke" d="
  M 25.29 95.79
  Q 24.71 96.04 23.89 96.89
  A 0.46 0.46 0.0 0 0 24.23 97.67
  Q 25.53 97.65 26.64 97.24"
/>
<path stroke="#9a9b9a" vector-effect="non-scaling-stroke" d="
  M 97.64 97.03
  Q 98.49 97.50 99.65 97.40
  A 0.53 0.53 0.0 0 0 100.12 97.00
  Q 100.32 96.12 99.09 95.60"
/>
<path stroke="#797979" vector-effect="non-scaling-stroke" d="
  M 57.71 51.41
  L 56.37 54.75
  A 0.58 0.57 33.6 0 0 56.50 55.37
  L 58.85 57.72
  A 1.22 1.21 -51.6 0 0 60.74 57.50
  C 62.58 54.55 62.30 51.87 58.46 51.01
  A 0.66 0.64 -72.3 0 0 57.71 51.41"
/>
<path stroke="#797979" vector-effect="non-scaling-stroke" d="
  M 67.04 51.42
  A 0.65 0.63 73.9 0 0 66.31 51.01
  C 62.48 51.75 62.13 54.40 63.87 57.38
  A 1.21 1.20 53.1 0 0 65.74 57.65
  L 68.13 55.38
  A 0.57 0.57 0.0 0 0 68.28 54.77
  L 67.04 51.42"
/>
<path stroke="#272727" vector-effect="non-scaling-stroke" d="
  M 33.57 68.65
  Q 28.46 71.62 31.40 74.53"
/>
<path stroke="#797979" vector-effect="non-scaling-stroke" d="
  M 31.40 74.53
  L 22.37 85.10
  A 0.47 0.46 -80.3 0 0 22.89 85.84
  L 36.90 80.33
  A 2.40 2.39 -13.4 0 0 38.41 77.89
  L 37.81 71.15
  A 4.31 4.30 -19.9 0 1 39.66 67.21
  Q 42.65 65.14 44.28 62.30
  A 1.25 1.20 -30.7 0 0 44.45 61.68
  L 44.45 56.63
  A 0.77 0.76 18.1 0 0 44.13 56.01
  Q 42.55 54.91 41.22 55.20
  A 0.95 0.94 1.5 0 0 40.50 55.88
  Q 38.51 63.21 33.57 68.65"
/>
<path stroke="#9a9b9a" vector-effect="non-scaling-stroke" d="
  M 31.40 74.53
  Q 33.06 71.78 33.57 68.65"
/>
<path stroke="#272727" vector-effect="non-scaling-stroke" d="
  M 93.67 75.18
  Q 95.29 71.05 91.14 69.01"
/>
<path stroke="#797979" vector-effect="non-scaling-stroke" d="
  M 91.14 69.01
  Q 86.32 63.21 83.98 55.66
  A 0.72 0.70 84.2 0 0 83.38 55.16
  C 77.98 54.60 80.24 61.53 81.50 64.06
  A 4.00 3.91 6.4 0 0 82.62 65.43
  L 85.60 67.74
  A 2.01 1.93 9.6 0 1 86.20 68.55
  C 87.35 71.53 86.64 74.40 86.10 78.12
  A 1.84 1.84 0.0 0 0 87.23 80.09
  L 101.65 85.83
  A 0.48 0.48 0.0 0 0 102.20 85.07
  L 93.67 75.18"
/>
<path stroke="#9a9b9a" vector-effect="non-scaling-stroke" d="
  M 91.14 69.01
  Q 91.59 72.59 93.67 75.18"
/>
<path stroke="#797979" vector-effect="non-scaling-stroke" d="
  M 45.41 61.46
  A 0.41 0.41 0.0 0 0 45.99 61.90
  Q 50.82 59.65 56.07 63.90
  A 1.01 1.01 0.0 0 0 57.64 63.49
  L 57.76 63.22
  A 1.53 1.52 -57.5 0 0 57.39 61.54
  Q 53.46 57.80 49.80 56.62
  A 2.11 2.11 0.0 0 0 47.54 57.27
  Q 45.75 59.38 45.41 61.46"
/>
<path stroke="#797979" vector-effect="non-scaling-stroke" d="
  M 79.37 61.63
  Q 79.04 59.51 77.23 57.34
  A 2.15 2.15 0.0 0 0 74.94 56.67
  Q 71.20 57.84 67.17 61.62
  A 1.55 1.55 0.0 0 0 66.78 63.33
  L 66.90 63.61
  A 1.03 1.02 59.9 0 0 68.50 64.04
  Q 73.88 59.75 78.78 62.07
  A 0.42 0.42 0.0 0 0 79.37 61.63"
/>
<path stroke="#797979" vector-effect="non-scaling-stroke" d="
  M 61.28 67.67
  L 61.18 63.94
  A 0.17 0.17 0.0 0 0 61.00 63.77
  L 60.81 63.78
  A 2.84 1.95 -1.6 0 0 58.03 65.80
  L 58.03 65.98
  A 2.84 1.95 -1.6 0 0 60.93 67.85
  L 61.12 67.85
  A 0.17 0.17 0.0 0 0 61.28 67.67"
/>
<path stroke="#797979" vector-effect="non-scaling-stroke" d="
  M 65.6041 64.2234
  A 1.93 1.42 -67.0 0 0 63.5429 65.4452
  A 1.93 1.42 -67.0 0 0 64.0959 67.7766
  A 1.93 1.42 -67.0 0 0 66.1571 66.5548
  A 1.93 1.42 -67.0 0 0 65.6041 64.2234"
/>
<path stroke="#797979" vector-effect="non-scaling-stroke" d="
  M 57.68 68.85
  A 3.59 3.59 0.0 0 0 54.09 65.26
  A 3.59 3.59 0.0 0 0 50.50 68.85
  A 3.59 3.59 0.0 0 0 54.09 72.44
  A 3.59 3.59 0.0 0 0 57.68 68.85"
/>
<path stroke="#797979" vector-effect="non-scaling-stroke" d="
  M 74.15 68.87
  A 3.58 3.58 0.0 0 0 70.57 65.29
  A 3.58 3.58 0.0 0 0 66.99 68.87
  A 3.58 3.58 0.0 0 0 70.57 72.45
  A 3.58 3.58 0.0 0 0 74.15 68.87"
/>
<path stroke="#797979" vector-effect="non-scaling-stroke" d="
  M 54.39 74.99
  A 0.45 0.45 0.0 0 0 54.03 74.25
  C 49.15 74.43 48.87 71.94 46.69 68.86
  A 2.32 2.31 56.4 0 0 43.59 68.23
  Q 39.68 70.62 41.20 75.09
  Q 42.37 78.55 45.40 78.07
  C 46.50 77.90 47.66 76.77 48.40 76.36
  A 0.94 0.93 50.6 0 1 49.47 76.47
  L 51.31 78.05
  A 0.88 0.88 0.0 0 0 52.72 77.65
  Q 53.08 76.53 54.39 74.99"
/>
<path stroke="#797979" vector-effect="non-scaling-stroke" d="
  M 70.11 75.06
  Q 71.43 76.58 71.80 77.70
  A 0.88 0.88 0.0 0 0 73.21 78.08
  L 75.03 76.49
  A 0.94 0.93 -51.1 0 1 76.10 76.37
  C 76.84 76.78 78.01 77.89 79.11 78.05
  Q 82.13 78.51 83.27 75.05
  Q 84.75 70.57 80.83 68.22
  A 2.31 2.30 -56.9 0 0 77.74 68.88
  C 75.59 71.97 75.34 74.45 70.47 74.32
  A 0.45 0.45 0.0 0 0 70.11 75.06"
/>
<path stroke="#797979" vector-effect="non-scaling-stroke" d="
  M 62.32 83.99
  Q 62.50 83.99 62.68 83.93
  Q 62.96 83.84 63.02 83.78
  Q 63.74 82.83 64.22 82.37
  A 1.67 1.65 21.6 0 1 65.33 81.90
  Q 66.99 81.83 68.56 81.47
  A 1.99 1.95 -5.8 0 0 70.09 79.63
  Q 70.13 78.25 69.11 76.87
  A 0.38 0.38 0.0 0 0 68.53 76.82
  L 66.71 78.64
  A 1.12 1.11 54.4 0 1 64.92 78.34
  Q 63.63 75.68 64.61 72.16
  A 1.04 1.04 0.0 0 0 63.89 70.88
  Q 63.31 70.71 62.28 70.72
  Q 61.26 70.72 60.68 70.89
  A 1.04 1.04 0.0 0 0 59.97 72.17
  Q 60.96 75.69 59.69 78.35
  A 1.12 1.11 -54.7 0 1 57.90 78.66
  L 56.07 76.85
  A 0.38 0.38 0.0 0 0 55.49 76.90
  Q 54.48 78.29 54.52 79.67
  A 1.99 1.95 5.6 0 0 56.06 81.50
  Q 57.63 81.85 59.29 81.91
  A 1.67 1.65 -21.9 0 1 60.41 82.38
  Q 60.89 82.84 61.61 83.78
  Q 61.67 83.84 61.95 83.94
  Q 62.13 83.99 62.32 83.99"
/>
<path stroke="#272727" vector-effect="non-scaling-stroke" d="
  M 56.60 74.76
  A 0.37 0.37 0.0 0 0 56.23 74.39
  A 0.37 0.37 0.0 0 0 55.86 74.76
  A 0.37 0.37 0.0 0 0 56.23 75.13
  A 0.37 0.37 0.0 0 0 56.60 74.76"
/>
<path stroke="#797979" vector-effect="non-scaling-stroke" d="
  M 62.26 88.83
  Q 64.55 88.81 66.76 88.19
  A 0.19 0.19 0.0 0 0 66.75 87.83
  Q 64.50 87.33 62.25 87.35
  Q 60.00 87.37 57.76 87.91
  A 0.19 0.19 0.0 0 0 57.76 88.27
  Q 59.98 88.85 62.26 88.83"
/>
<path stroke="#797979" vector-effect="non-scaling-stroke" d="
  M 62.30 100.20
  C 64.54 100.20 65.73 99.34 68.10 98.01
  A 2.34 2.30 32.4 0 1 69.43 97.73
  L 72.34 97.99
  A 1.13 1.13 0.0 0 0 73.18 96.02
  C 70.67 93.84 65.44 90.18 62.30 90.17
  C 59.17 90.17 53.93 93.83 51.42 96.01
  A 1.13 1.13 0.0 0 0 52.26 97.98
  L 55.17 97.72
  A 2.34 2.30 -32.3 0 1 56.49 98.01
  C 58.86 99.34 60.06 100.19 62.30 100.20"
/>
<path stroke="#797979" vector-effect="non-scaling-stroke" d="
  M 53.8998 68.7433
  A 1.00 0.76 -110.5 0 0 53.5381 69.9462
  A 1.00 0.76 -110.5 0 0 54.6002 70.6167
  A 1.00 0.76 -110.5 0 0 54.9619 69.4138
  A 1.00 0.76 -110.5 0 0 53.8998 68.7433"
/>
<path stroke="#797979" vector-effect="non-scaling-stroke" d="
  M 70.4484 68.9905
  A 0.74 0.61 -87.8 0 0 69.8104 69.7066
  A 0.74 0.61 -87.8 0 0 70.3916 70.4695
  A 0.74 0.61 -87.8 0 0 71.0296 69.7534
  A 0.74 0.61 -87.8 0 0 70.4484 68.9905"
/>
</g>
<path fill="none" d="
  M 125.00 0.00
  L 125.00 125.00
  L 0.00 125.00
  L 0.00 0.00
  L 125.00 0.00
  Z
  M 62.31 3.69
  Q 69.35 3.73 74.78 4.95
  Q 80.81 6.30 91.06 11.06
  A 0.68 0.67 -67.8 0 0 91.98 10.67
  L 91.99 10.65
  A 0.95 0.94 -65.3 0 0 91.58 9.53
  Q 81.14 3.41 70.71 2.23
  Q 68.58 1.99 62.32 1.96
  Q 56.06 1.92 53.92 2.14
  Q 43.48 3.21 32.98 9.22
  A 0.95 0.94 65.9 0 0 32.56 10.34
  L 32.57 10.36
  A 0.68 0.67 68.4 0 0 33.48 10.76
  Q 43.78 6.11 49.83 4.82
  Q 55.27 3.66 62.31 3.69
  Z
  M 60.10 13.74
  Q 58.44 26.18 53.84 37.91
  A 2.71 2.66 58.4 0 0 53.66 38.70
  C 53.38 42.73 57.35 45.95 60.63 47.54
  A 0.53 0.53 0.0 0 0 61.38 47.07
  L 61.54 14.01
  Q 61.26 12.75 62.30 12.59
  A 1.07 1.07 0.0 0 1 63.50 13.93
  Q 63.04 15.59 63.10 17.75
  Q 63.26 23.52 63.35 29.30
  L 63.31 46.86
  A 0.54 0.53 -12.9 0 0 64.08 47.34
  Q 67.76 45.58 69.59 42.87
  Q 71.44 40.13 70.95 38.74
  Q 67.31 28.52 64.96 17.95
  L 64.11 12.53
  C 70.80 13.05 78.59 14.06 84.09 17.44
  Q 88.77 20.32 90.55 21.37
  A 1.20 1.20 0.0 0 0 92.36 20.34
  L 92.36 17.73
  A 2.39 2.38 16.8 0 0 91.29 15.74
  Q 80.79 8.84 68.00 7.28
  Q 61.70 6.51 56.54 7.41
  Q 49.50 8.63 45.26 9.77
  Q 40.93 10.95 33.86 14.96
  A 3.14 3.13 75.3 0 0 32.27 17.69
  L 32.27 20.35
  A 1.18 1.18 0.0 0 0 34.16 21.30
  Q 44.67 13.46 58.95 12.72
  Q 59.74 12.68 60.10 13.74
  Z
  M 61.43 122.15
  Q 66.63 122.20 67.51 122.11
  Q 85.17 120.35 99.37 109.35
  C 112.24 99.38 122.58 81.36 122.06 64.84
  C 121.92 60.37 122.36 55.89 121.55 51.54
  C 118.69 36.34 110.07 21.78 97.07 13.10
  A 0.27 0.26 -77.1 0 0 96.66 13.36
  Q 96.80 14.42 97.71 15.34
  C 100.32 18.00 104.23 21.33 106.82 24.50
  C 128.70 51.29 123.73 90.02 95.30 110.07
  Q 87.88 115.31 80.06 117.66
  C 74.24 119.41 67.50 120.77 61.45 120.71
  C 55.39 120.65 48.69 119.17 42.90 117.30
  Q 35.12 114.80 27.81 109.42
  C -0.24 88.83 -4.46 50.01 17.93 23.65
  C 20.58 20.53 24.55 17.27 27.21 14.66
  Q 28.14 13.76 28.30 12.71
  A 0.27 0.26 78.2 0 0 27.89 12.44
  C 14.73 20.87 5.83 35.26 2.68 50.40
  C 1.79 54.73 2.14 59.22 1.92 63.69
  C 1.08 80.20 11.07 98.41 23.75 108.63
  Q 37.74 119.90 55.36 122.00
  Q 56.23 122.10 61.43 122.15
  Z
  M 29.77 16.25
  A 0.28 0.28 0.0 0 0 29.24 16.17
  C 22.19 29.55 30.13 44.11 41.97 51.29
  C 45.44 53.40 51.14 55.14 53.72 50.67
  A 2.21 2.19 63.2 0 0 54.00 49.81
  Q 54.34 46.45 53.81 45.19
  C 52.61 42.31 49.92 41.60 47.52 43.40
  Q 46.41 44.24 45.78 44.51
  A 1.11 1.10 50.7 0 1 44.70 44.40
  C 36.88 38.70 30.54 31.85 30.25 22.75
  Q 30.10 18.12 29.77 16.25
  Z
  M 94.95 16.82
  Q 94.59 18.67 94.38 23.25
  C 93.97 32.26 87.60 38.95 79.78 44.48
  A 1.09 1.09 0.0 0 1 78.71 44.58
  Q 78.09 44.30 77.00 43.45
  C 74.65 41.64 71.97 42.30 70.75 45.14
  Q 70.20 46.38 70.49 49.71
  A 2.19 2.17 -62.4 0 0 70.76 50.56
  C 73.25 55.03 78.92 53.38 82.38 51.34
  C 94.20 44.40 102.27 30.10 95.47 16.75
  A 0.28 0.28 0.0 0 0 94.95 16.82
  Z
  M 99.09 95.60
  L 88.83 89.07
  A 0.37 0.37 0.0 0 1 89.03 88.38
  L 97.94 88.38
  A 0.18 0.17 -35.4 0 0 98.00 88.04
  L 84.59 83.56
  A 0.96 0.93 -1.0 0 1 84.00 83.01
  L 83.61 82.01
  A 0.73 0.72 -13.5 0 0 82.87 81.56
  L 67.71 82.92
  A 1.57 1.57 0.0 0 0 66.58 85.40
  L 68.61 88.22
  A 0.94 0.89 -4.8 0 0 68.97 88.51
  Q 73.68 90.53 78.17 92.67
  Q 78.86 93.00 82.26 93.09
  Q 86.06 93.20 97.64 97.03
  Q 88.48 105.63 78.75 108.81
  Q 51.41 117.73 29.55 99.19
  Q 29.01 98.74 28.05 98.29
  Q 27.08 97.84 26.64 97.24
  Q 35.96 93.85 45.43 92.84
  A 4.63 4.57 29.4 0 0 46.79 92.47
  L 55.45 88.56
  A 0.63 0.46 -72.3 0 0 55.60 88.45
  Q 57.78 86.11 58.16 84.96
  A 1.56 1.56 0.0 0 0 56.82 82.90
  L 41.68 81.55
  A 0.82 0.81 -81.0 0 0 40.82 82.18
  Q 40.56 83.34 39.03 83.88
  Q 33.19 85.93 27.58 87.67
  A 0.30 0.29 -51.2 0 0 27.64 88.25
  Q 31.11 88.49 35.30 88.14
  Q 35.84 88.10 35.95 88.65
  Q 35.97 88.73 35.84 88.98
  A 0.41 0.41 0.0 0 1 35.71 89.11
  L 25.29 95.79
  Q 24.64 94.52 22.13 91.11
  Q 12.19 77.62 12.86 59.68
  Q 13.51 42.22 24.03 30.89
  A 0.91 0.86 -24.9 0 0 24.27 30.29
  L 24.27 23.05
  A 0.39 0.39 0.0 0 0 23.60 22.78
  Q 11.88 34.82 8.57 51.23
  Q 4.31 72.40 16.01 91.55
  Q 19.82 97.79 25.06 102.44
  Q 38.54 114.42 56.27 116.43
  Q 74.72 118.53 91.06 108.59
  Q 97.51 104.68 98.94 103.20
  Q 111.07 90.76 114.69 78.03
  Q 119.06 62.64 114.74 46.03
  Q 112.18 36.18 102.33 24.01
  A 1.32 1.31 25.6 0 0 99.99 24.83
  L 99.99 27.78
  A 7.29 7.28 25.8 0 0 101.57 32.31
  Q 105.36 37.10 108.66 44.38
  Q 111.29 50.17 111.72 55.73
  Q 112.17 61.43 111.32 67.57
  Q 110.85 70.91 110.83 72.22
  A 2.60 2.30 -41.6 0 1 110.76 72.80
  Q 107.58 85.41 99.09 95.60
  Z
  M 57.71 51.41
  L 56.37 54.75
  A 0.58 0.57 33.6 0 0 56.50 55.37
  L 58.85 57.72
  A 1.22 1.21 -51.6 0 0 60.74 57.50
  C 62.58 54.55 62.30 51.87 58.46 51.01
  A 0.66 0.64 -72.3 0 0 57.71 51.41
  Z
  M 67.04 51.42
  A 0.65 0.63 73.9 0 0 66.31 51.01
  C 62.48 51.75 62.13 54.40 63.87 57.38
  A 1.21 1.20 53.1 0 0 65.74 57.65
  L 68.13 55.38
  A 0.57 0.57 0.0 0 0 68.28 54.77
  L 67.04 51.42
  Z
  M 33.57 68.65
  Q 28.46 71.62 31.40 74.53
  L 22.37 85.10
  A 0.47 0.46 -80.3 0 0 22.89 85.84
  L 36.90 80.33
  A 2.40 2.39 -13.4 0 0 38.41 77.89
  L 37.81 71.15
  A 4.31 4.30 -19.9 0 1 39.66 67.21
  Q 42.65 65.14 44.28 62.30
  A 1.25 1.20 -30.7 0 0 44.45 61.68
  L 44.45 56.63
  A 0.77 0.76 18.1 0 0 44.13 56.01
  Q 42.55 54.91 41.22 55.20
  A 0.95 0.94 1.5 0 0 40.50 55.88
  Q 38.51 63.21 33.57 68.65
  Z
  M 93.67 75.18
  Q 95.29 71.05 91.14 69.01
  Q 86.32 63.21 83.98 55.66
  A 0.72 0.70 84.2 0 0 83.38 55.16
  C 77.98 54.60 80.24 61.53 81.50 64.06
  A 4.00 3.91 6.4 0 0 82.62 65.43
  L 85.60 67.74
  A 2.01 1.93 9.6 0 1 86.20 68.55
  C 87.35 71.53 86.64 74.40 86.10 78.12
  A 1.84 1.84 0.0 0 0 87.23 80.09
  L 101.65 85.83
  A 0.48 0.48 0.0 0 0 102.20 85.07
  L 93.67 75.18
  Z
  M 45.41 61.46
  A 0.41 0.41 0.0 0 0 45.99 61.90
  Q 50.82 59.65 56.07 63.90
  A 1.01 1.01 0.0 0 0 57.64 63.49
  L 57.76 63.22
  A 1.53 1.52 -57.5 0 0 57.39 61.54
  Q 53.46 57.80 49.80 56.62
  A 2.11 2.11 0.0 0 0 47.54 57.27
  Q 45.75 59.38 45.41 61.46
  Z
  M 79.37 61.63
  Q 79.04 59.51 77.23 57.34
  A 2.15 2.15 0.0 0 0 74.94 56.67
  Q 71.20 57.84 67.17 61.62
  A 1.55 1.55 0.0 0 0 66.78 63.33
  L 66.90 63.61
  A 1.03 1.02 59.9 0 0 68.50 64.04
  Q 73.88 59.75 78.78 62.07
  A 0.42 0.42 0.0 0 0 79.37 61.63
  Z
  M 61.28 67.67
  L 61.18 63.94
  A 0.17 0.17 0.0 0 0 61.00 63.77
  L 60.81 63.78
  A 2.84 1.95 -1.6 0 0 58.03 65.80
  L 58.03 65.98
  A 2.84 1.95 -1.6 0 0 60.93 67.85
  L 61.12 67.85
  A 0.17 0.17 0.0 0 0 61.28 67.67
  Z
  M 65.6041 64.2234
  A 1.93 1.42 -67.0 0 0 63.5429 65.4452
  A 1.93 1.42 -67.0 0 0 64.0959 67.7766
  A 1.93 1.42 -67.0 0 0 66.1571 66.5548
  A 1.93 1.42 -67.0 0 0 65.6041 64.2234
  Z
  M 57.68 68.85
  A 3.59 3.59 0.0 0 0 54.09 65.26
  A 3.59 3.59 0.0 0 0 50.50 68.85
  A 3.59 3.59 0.0 0 0 54.09 72.44
  A 3.59 3.59 0.0 0 0 57.68 68.85
  Z
  M 74.15 68.87
  A 3.58 3.58 0.0 0 0 70.57 65.29
  A 3.58 3.58 0.0 0 0 66.99 68.87
  A 3.58 3.58 0.0 0 0 70.57 72.45
  A 3.58 3.58 0.0 0 0 74.15 68.87
  Z
  M 54.39 74.99
  A 0.45 0.45 0.0 0 0 54.03 74.25
  C 49.15 74.43 48.87 71.94 46.69 68.86
  A 2.32 2.31 56.4 0 0 43.59 68.23
  Q 39.68 70.62 41.20 75.09
  Q 42.37 78.55 45.40 78.07
  C 46.50 77.90 47.66 76.77 48.40 76.36
  A 0.94 0.93 50.6 0 1 49.47 76.47
  L 51.31 78.05
  A 0.88 0.88 0.0 0 0 52.72 77.65
  Q 53.08 76.53 54.39 74.99
  Z
  M 70.11 75.06
  Q 71.43 76.58 71.80 77.70
  A 0.88 0.88 0.0 0 0 73.21 78.08
  L 75.03 76.49
  A 0.94 0.93 -51.1 0 1 76.10 76.37
  C 76.84 76.78 78.01 77.89 79.11 78.05
  Q 82.13 78.51 83.27 75.05
  Q 84.75 70.57 80.83 68.22
  A 2.31 2.30 -56.9 0 0 77.74 68.88
  C 75.59 71.97 75.34 74.45 70.47 74.32
  A 0.45 0.45 0.0 0 0 70.11 75.06
  Z
  M 62.32 83.99
  Q 62.50 83.99 62.68 83.93
  Q 62.96 83.84 63.02 83.78
  Q 63.74 82.83 64.22 82.37
  A 1.67 1.65 21.6 0 1 65.33 81.90
  Q 66.99 81.83 68.56 81.47
  A 1.99 1.95 -5.8 0 0 70.09 79.63
  Q 70.13 78.25 69.11 76.87
  A 0.38 0.38 0.0 0 0 68.53 76.82
  L 66.71 78.64
  A 1.12 1.11 54.4 0 1 64.92 78.34
  Q 63.63 75.68 64.61 72.16
  A 1.04 1.04 0.0 0 0 63.89 70.88
  Q 63.31 70.71 62.28 70.72
  Q 61.26 70.72 60.68 70.89
  A 1.04 1.04 0.0 0 0 59.97 72.17
  Q 60.96 75.69 59.69 78.35
  A 1.12 1.11 -54.7 0 1 57.90 78.66
  L 56.07 76.85
  A 0.38 0.38 0.0 0 0 55.49 76.90
  Q 54.48 78.29 54.52 79.67
  A 1.99 1.95 5.6 0 0 56.06 81.50
  Q 57.63 81.85 59.29 81.91
  A 1.67 1.65 -21.9 0 1 60.41 82.38
  Q 60.89 82.84 61.61 83.78
  Q 61.67 83.84 61.95 83.94
  Q 62.13 83.99 62.32 83.99
  Z
  M 56.60 74.76
  A 0.37 0.37 0.0 0 0 56.23 74.39
  A 0.37 0.37 0.0 0 0 55.86 74.76
  A 0.37 0.37 0.0 0 0 56.23 75.13
  A 0.37 0.37 0.0 0 0 56.60 74.76
  Z
  M 62.26 88.83
  Q 64.55 88.81 66.76 88.19
  A 0.19 0.19 0.0 0 0 66.75 87.83
  Q 64.50 87.33 62.25 87.35
  Q 60.00 87.37 57.76 87.91
  A 0.19 0.19 0.0 0 0 57.76 88.27
  Q 59.98 88.85 62.26 88.83
  Z
  M 62.30 100.20
  C 64.54 100.20 65.73 99.34 68.10 98.01
  A 2.34 2.30 32.4 0 1 69.43 97.73
  L 72.34 97.99
  A 1.13 1.13 0.0 0 0 73.18 96.02
  C 70.67 93.84 65.44 90.18 62.30 90.17
  C 59.17 90.17 53.93 93.83 51.42 96.01
  A 1.13 1.13 0.0 0 0 52.26 97.98
  L 55.17 97.72
  A 2.34 2.30 -32.3 0 1 56.49 98.01
  C 58.86 99.34 60.06 100.19 62.30 100.20
  Z"
/>
<path fill="#cbc8ca" d="
  M 62.32 1.96
  Q 68.58 1.99 70.71 2.23
  Q 81.14 3.41 91.58 9.53
  A 0.95 0.94 -65.3 0 1 91.99 10.65
  L 91.98 10.67
  A 0.68 0.67 -67.8 0 1 91.06 11.06
  Q 80.81 6.30 74.78 4.95
  Q 69.35 3.73 62.31 3.69
  Q 55.27 3.66 49.83 4.82
  Q 43.78 6.11 33.48 10.76
  A 0.68 0.67 68.4 0 1 32.57 10.36
  L 32.56 10.34
  A 0.95 0.94 65.9 0 1 32.98 9.22
  Q 43.48 3.21 53.92 2.14
  Q 56.06 1.92 62.32 1.96
  Z"
/>
<path fill="#484948" d="
  M 64.11 12.53
  Q 65.02 11.23 63.66 10.18
  A 1.33 1.31 -28.0 0 0 62.75 9.91
  Q 60.11 10.15 60.26 13.84
  Q 60.18 13.79 60.10 13.74
  Q 59.74 12.68 58.95 12.72
  Q 44.67 13.46 34.16 21.30
  A 1.18 1.18 0.0 0 1 32.27 20.35
  L 32.27 17.69
  A 3.14 3.13 75.3 0 1 33.86 14.96
  Q 40.93 10.95 45.26 9.77
  Q 49.50 8.63 56.54 7.41
  Q 61.70 6.51 68.00 7.28
  Q 80.79 8.84 91.29 15.74
  A 2.39 2.38 16.8 0 1 92.36 17.73
  L 92.36 20.34
  A 1.20 1.20 0.0 0 1 90.55 21.37
  Q 88.77 20.32 84.09 17.44
  C 78.59 14.06 70.80 13.05 64.11 12.53
  Z"
/>
<path fill="#cbc8ca" d="
  M 64.11 12.53
  L 64.96 17.95
  L 63.87 18.41
  A 0.80 0.80 0.0 0 0 63.38 19.13
  L 63.35 29.30
  Q 63.26 23.52 63.10 17.75
  Q 63.04 15.59 63.50 13.93
  A 1.07 1.07 0.0 0 0 62.30 12.59
  Q 61.26 12.75 61.54 14.01
  Q 60.77 13.79 60.26 13.84
  Q 60.11 10.15 62.75 9.91
  A 1.33 1.31 -28.0 0 1 63.66 10.18
  Q 65.02 11.23 64.11 12.53
  Z"
/>
<path fill="#cbc8ca" d="
  M 61.45 120.71
  C 67.50 120.77 74.24 119.41 80.06 117.66
  Q 87.88 115.31 95.30 110.07
  C 123.73 90.02 128.70 51.29 106.82 24.50
  C 104.23 21.33 100.32 18.00 97.71 15.34
  Q 96.80 14.42 96.66 13.36
  A 0.27 0.26 -77.1 0 1 97.07 13.10
  C 110.07 21.78 118.69 36.34 121.55 51.54
  C 122.36 55.89 121.92 60.37 122.06 64.84
  C 122.58 81.36 112.24 99.38 99.37 109.35
  Q 85.17 120.35 67.51 122.11
  Q 66.63 122.20 61.43 122.15
  Q 56.23 122.10 55.36 122.00
  Q 37.74 119.90 23.75 108.63
  C 11.07 98.41 1.08 80.20 1.92 63.69
  C 2.14 59.22 1.79 54.73 2.68 50.40
  C 5.83 35.26 14.73 20.87 27.89 12.44
  A 0.27 0.26 78.2 0 1 28.30 12.71
  Q 28.14 13.76 27.21 14.66
  C 24.55 17.27 20.58 20.53 17.93 23.65
  C -4.46 50.01 -0.24 88.83 27.81 109.42
  Q 35.12 114.80 42.90 117.30
  C 48.69 119.17 55.39 120.65 61.45 120.71
  Z"
/>
<path fill="#ececec" d="
  M 60.26 13.84
  Q 60.77 13.79 61.54 14.01
  L 61.38 47.07
  A 0.53 0.53 0.0 0 1 60.63 47.54
  C 57.35 45.95 53.38 42.73 53.66 38.70
  A 2.71 2.66 58.4 0 1 53.84 37.91
  Q 58.44 26.18 60.10 13.74
  Q 60.18 13.79 60.26 13.84
  Z"
/>
<path fill="#ececec" d="
  M 29.77 16.25
  Q 30.10 18.12 30.25 22.75
  C 30.54 31.85 36.88 38.70 44.70 44.40
  A 1.11 1.10 50.7 0 0 45.78 44.51
  Q 46.41 44.24 47.52 43.40
  C 49.92 41.60 52.61 42.31 53.81 45.19
  Q 54.34 46.45 54.00 49.81
  A 2.21 2.19 63.2 0 1 53.72 50.67
  C 51.14 55.14 45.44 53.40 41.97 51.29
  C 30.13 44.11 22.19 29.55 29.24 16.17
  A 0.28 0.28 0.0 0 1 29.77 16.25
  Z"
/>
<path fill="#ececec" d="
  M 94.95 16.82
  A 0.28 0.28 0.0 0 1 95.47 16.75
  C 102.27 30.10 94.20 44.40 82.38 51.34
  C 78.92 53.38 73.25 55.03 70.76 50.56
  A 2.19 2.17 -62.4 0 1 70.49 49.71
  Q 70.20 46.38 70.75 45.14
  C 71.97 42.30 74.65 41.64 77.00 43.45
  Q 78.09 44.30 78.71 44.58
  A 1.09 1.09 0.0 0 0 79.78 44.48
  C 87.60 38.95 93.97 32.26 94.38 23.25
  Q 94.59 18.67 94.95 16.82
  Z"
/>
<path fill="#ececec" d="
  M 64.96 17.95
  Q 67.31 28.52 70.95 38.74
  Q 71.44 40.13 69.59 42.87
  Q 67.76 45.58 64.08 47.34
  A 0.54 0.53 -12.9 0 1 63.31 46.86
  L 63.35 29.30
  L 63.38 19.13
  A 0.80 0.80 0.0 0 1 63.87 18.41
  L 64.96 17.95
  Z"
/>
<path fill="#484948" d="
  M 25.29 95.79
  Q 24.71 96.04 23.89 96.89
  A 0.46 0.46 0.0 0 0 24.23 97.67
  Q 25.53 97.65 26.64 97.24
  Q 27.08 97.84 28.05 98.29
  Q 29.01 98.74 29.55 99.19
  Q 51.41 117.73 78.75 108.81
  Q 88.48 105.63 97.64 97.03
  Q 98.49 97.50 99.65 97.40
  A 0.53 0.53 0.0 0 0 100.12 97.00
  Q 100.32 96.12 99.09 95.60
  Q 107.58 85.41 110.76 72.80
  A 2.60 2.30 -41.6 0 0 110.83 72.22
  Q 110.85 70.91 111.32 67.57
  Q 112.17 61.43 111.72 55.73
  Q 111.29 50.17 108.66 44.38
  Q 105.36 37.10 101.57 32.31
  A 7.29 7.28 25.8 0 1 99.99 27.78
  L 99.99 24.83
  A 1.32 1.31 25.6 0 1 102.33 24.01
  Q 112.18 36.18 114.74 46.03
  Q 119.06 62.64 114.69 78.03
  Q 111.07 90.76 98.94 103.20
  Q 97.51 104.68 91.06 108.59
  Q 74.72 118.53 56.27 116.43
  Q 38.54 114.42 25.06 102.44
  Q 19.82 97.79 16.01 91.55
  Q 4.31 72.40 8.57 51.23
  Q 11.88 34.82 23.60 22.78
  A 0.39 0.39 0.0 0 1 24.27 23.05
  L 24.27 30.29
  A 0.91 0.86 -24.9 0 1 24.03 30.89
  Q 13.51 42.22 12.86 59.68
  Q 12.19 77.62 22.13 91.11
  Q 24.64 94.52 25.29 95.79
  Z"
/>
<path fill="#ececec" d="
  M 58.46 51.01
  C 62.30 51.87 62.58 54.55 60.74 57.50
  A 1.22 1.21 -51.6 0 1 58.85 57.72
  L 56.50 55.37
  A 0.58 0.57 33.6 0 1 56.37 54.75
  L 57.71 51.41
  A 0.66 0.64 -72.3 0 1 58.46 51.01
  Z"
/>
<path fill="#ececec" d="
  M 67.04 51.42
  L 68.28 54.77
  A 0.57 0.57 0.0 0 1 68.13 55.38
  L 65.74 57.65
  A 1.21 1.20 53.1 0 1 63.87 57.38
  C 62.13 54.40 62.48 51.75 66.31 51.01
  A 0.65 0.63 73.9 0 1 67.04 51.42
  Z"
/>
<path fill="#ececec" d="
  M 31.40 74.53
  Q 33.06 71.78 33.57 68.65
  Q 38.51 63.21 40.50 55.88
  A 0.95 0.94 1.5 0 1 41.22 55.20
  Q 42.55 54.91 44.13 56.01
  A 0.77 0.76 18.1 0 1 44.45 56.63
  L 44.45 61.68
  A 1.25 1.20 -30.7 0 1 44.28 62.30
  Q 42.65 65.14 39.66 67.21
  A 4.31 4.30 -19.9 0 0 37.81 71.15
  L 38.41 77.89
  A 2.40 2.39 -13.4 0 1 36.90 80.33
  L 22.89 85.84
  A 0.47 0.46 -80.3 0 1 22.37 85.10
  L 31.40 74.53
  Z"
/>
<path fill="#ececec" d="
  M 91.14 69.01
  Q 91.59 72.59 93.67 75.18
  L 102.20 85.07
  A 0.48 0.48 0.0 0 1 101.65 85.83
  L 87.23 80.09
  A 1.84 1.84 0.0 0 1 86.10 78.12
  C 86.64 74.40 87.35 71.53 86.20 68.55
  A 2.01 1.93 9.6 0 0 85.60 67.74
  L 82.62 65.43
  A 4.00 3.91 6.4 0 1 81.50 64.06
  C 80.24 61.53 77.98 54.60 83.38 55.16
  A 0.72 0.70 84.2 0 1 83.98 55.66
  Q 86.32 63.21 91.14 69.01
  Z"
/>
<path fill="#ececec" d="
  M 45.41 61.46
  Q 45.75 59.38 47.54 57.27
  A 2.11 2.11 0.0 0 1 49.80 56.62
  Q 53.46 57.80 57.39 61.54
  A 1.53 1.52 -57.5 0 1 57.76 63.22
  L 57.64 63.49
  A 1.01 1.01 0.0 0 1 56.07 63.90
  Q 50.82 59.65 45.99 61.90
  A 0.41 0.41 0.0 0 1 45.41 61.46
  Z"
/>
<path fill="#ececec" d="
  M 78.78 62.07
  Q 73.88 59.75 68.50 64.04
  A 1.03 1.02 59.9 0 1 66.90 63.61
  L 66.78 63.33
  A 1.55 1.55 0.0 0 1 67.17 61.62
  Q 71.20 57.84 74.94 56.67
  A 2.15 2.15 0.0 0 1 77.23 57.34
  Q 79.04 59.51 79.37 61.63
  A 0.42 0.42 0.0 0 1 78.78 62.07
  Z"
/>
<path fill="#ececec" d="
  M 61.28 67.67
  A 0.17 0.17 0.0 0 1 61.12 67.85
  L 60.93 67.85
  A 2.84 1.95 -1.6 0 1 58.03 65.98
  L 58.03 65.80
  A 2.84 1.95 -1.6 0 1 60.81 63.78
  L 61.00 63.77
  A 0.17 0.17 0.0 0 1 61.18 63.94
  L 61.28 67.67
  Z"
/>
<ellipse fill="#ececec" cx="0.00" cy="0.00" transform="translate(64.85,66.00) rotate(-67.0)" rx="1.93" ry="1.42"/>
<path fill="#ececec" d="
  M 57.68 68.85
  A 3.59 3.59 0.0 0 1 54.09 72.44
  A 3.59 3.59 0.0 0 1 50.50 68.85
  A 3.59 3.59 0.0 0 1 54.09 65.26
  A 3.59 3.59 0.0 0 1 57.68 68.85
  Z
  M 53.8998 68.7433
  A 1.00 0.76 -110.5 0 0 53.5381 69.9462
  A 1.00 0.76 -110.5 0 0 54.6002 70.6167
  A 1.00 0.76 -110.5 0 0 54.9619 69.4138
  A 1.00 0.76 -110.5 0 0 53.8998 68.7433
  Z"
/>
<path fill="#ececec" d="
  M 74.15 68.87
  A 3.58 3.58 0.0 0 1 70.57 72.45
  A 3.58 3.58 0.0 0 1 66.99 68.87
  A 3.58 3.58 0.0 0 1 70.57 65.29
  A 3.58 3.58 0.0 0 1 74.15 68.87
  Z
  M 70.4484 68.9905
  A 0.74 0.61 -87.8 0 0 69.8104 69.7066
  A 0.74 0.61 -87.8 0 0 70.3916 70.4695
  A 0.74 0.61 -87.8 0 0 71.0296 69.7534
  A 0.74 0.61 -87.8 0 0 70.4484 68.9905
  Z"
/>
<path fill="#ececec" d="
  M 54.39 74.99
  Q 53.08 76.53 52.72 77.65
  A 0.88 0.88 0.0 0 1 51.31 78.05
  L 49.47 76.47
  A 0.94 0.93 50.6 0 0 48.40 76.36
  C 47.66 76.77 46.50 77.90 45.40 78.07
  Q 42.37 78.55 41.20 75.09
  Q 39.68 70.62 43.59 68.23
  A 2.32 2.31 56.4 0 1 46.69 68.86
  C 48.87 71.94 49.15 74.43 54.03 74.25
  A 0.45 0.45 0.0 0 1 54.39 74.99
  Z"
/>
<path fill="#ececec" d="
  M 70.11 75.06
  A 0.45 0.45 0.0 0 1 70.47 74.32
  C 75.34 74.45 75.59 71.97 77.74 68.88
  A 2.31 2.30 -56.9 0 1 80.83 68.22
  Q 84.75 70.57 83.27 75.05
  Q 82.13 78.51 79.11 78.05
  C 78.01 77.89 76.84 76.78 76.10 76.37
  A 0.94 0.93 -51.1 0 0 75.03 76.49
  L 73.21 78.08
  A 0.88 0.88 0.0 0 1 71.80 77.70
  Q 71.43 76.58 70.11 75.06
  Z"
/>
<path fill="#484948" d="
  M 33.57 68.65
  Q 33.06 71.78 31.40 74.53
  Q 28.46 71.62 33.57 68.65
  Z"
/>
<ellipse fill="none" cx="0.00" cy="0.00" transform="translate(54.25,69.68) rotate(-110.5)" rx="1.00" ry="0.76"/>
<ellipse fill="none" cx="0.00" cy="0.00" transform="translate(70.42,69.73) rotate(-87.8)" rx="0.74" ry="0.61"/>
<path fill="#484948" d="
  M 93.67 75.18
  Q 91.59 72.59 91.14 69.01
  Q 95.29 71.05 93.67 75.18
  Z"
/>
<path fill="#ececec" d="
  M 62.28 70.72
  Q 63.31 70.71 63.89 70.88
  A 1.04 1.04 0.0 0 1 64.61 72.16
  Q 63.63 75.68 64.92 78.34
  A 1.12 1.11 54.4 0 0 66.71 78.64
  L 68.53 76.82
  A 0.38 0.38 0.0 0 1 69.11 76.87
  Q 70.13 78.25 70.09 79.63
  A 1.99 1.95 -5.8 0 1 68.56 81.47
  Q 66.99 81.83 65.33 81.90
  A 1.67 1.65 21.6 0 0 64.22 82.37
  Q 63.74 82.83 63.02 83.78
  Q 62.96 83.84 62.68 83.93
  Q 62.50 83.99 62.32 83.99
  Q 62.13 83.99 61.95 83.94
  Q 61.67 83.84 61.61 83.78
  Q 60.89 82.84 60.41 82.38
  A 1.67 1.65 -21.9 0 0 59.29 81.91
  Q 57.63 81.85 56.06 81.50
  A 1.99 1.95 5.6 0 1 54.52 79.67
  Q 54.48 78.29 55.49 76.90
  A 0.38 0.38 0.0 0 1 56.07 76.85
  L 57.90 78.66
  A 1.12 1.11 -54.7 0 0 59.69 78.35
  Q 60.96 75.69 59.97 72.17
  A 1.04 1.04 0.0 0 1 60.68 70.89
  Q 61.26 70.72 62.28 70.72
  Z"
/>
<circle fill="#484948" cx="56.23" cy="74.76" r="0.37"/>
<path fill="#ececec" d="
  M 99.09 95.60
  Q 100.32 96.12 100.12 97.00
  A 0.53 0.53 0.0 0 1 99.65 97.40
  Q 98.49 97.50 97.64 97.03
  Q 86.06 93.20 82.26 93.09
  Q 78.86 93.00 78.17 92.67
  Q 73.68 90.53 68.97 88.51
  A 0.94 0.89 -4.8 0 1 68.61 88.22
  L 66.58 85.40
  A 1.57 1.57 0.0 0 1 67.71 82.92
  L 82.87 81.56
  A 0.73 0.72 -13.5 0 1 83.61 82.01
  L 84.00 83.01
  A 0.96 0.93 -1.0 0 0 84.59 83.56
  L 98.00 88.04
  A 0.18 0.17 -35.4 0 1 97.94 88.38
  L 89.03 88.38
  A 0.37 0.37 0.0 0 0 88.83 89.07
  L 99.09 95.60
  Z"
/>
<path fill="#ececec" d="
  M 26.64 97.24
  Q 25.53 97.65 24.23 97.67
  A 0.46 0.46 0.0 0 1 23.89 96.89
  Q 24.71 96.04 25.29 95.79
  L 35.71 89.11
  A 0.41 0.41 0.0 0 0 35.84 88.98
  Q 35.97 88.73 35.95 88.65
  Q 35.84 88.10 35.30 88.14
  Q 31.11 88.49 27.64 88.25
  A 0.30 0.29 -51.2 0 1 27.58 87.67
  Q 33.19 85.93 39.03 83.88
  Q 40.56 83.34 40.82 82.18
  A 0.82 0.81 -81.0 0 1 41.68 81.55
  L 56.82 82.90
  A 1.56 1.56 0.0 0 1 58.16 84.96
  Q 57.78 86.11 55.60 88.45
  A 0.63 0.46 -72.3 0 1 55.45 88.56
  L 46.79 92.47
  A 4.63 4.57 29.4 0 1 45.43 92.84
  Q 35.96 93.85 26.64 97.24
  Z"
/>
<path fill="#ececec" d="
  M 62.25 87.35
  Q 64.50 87.33 66.75 87.83
  A 0.19 0.19 0.0 0 1 66.76 88.19
  Q 64.55 88.81 62.26 88.83
  Q 59.98 88.85 57.76 88.27
  A 0.19 0.19 0.0 0 1 57.76 87.91
  Q 60.00 87.37 62.25 87.35
  Z"
/>
<path fill="#ececec" d="
  M 62.30 90.17
  C 65.44 90.18 70.67 93.84 73.18 96.02
  A 1.13 1.13 0.0 0 1 72.34 97.99
  L 69.43 97.73
  A 2.34 2.30 32.4 0 0 68.10 98.01
  C 65.73 99.34 64.54 100.20 62.30 100.20
  C 60.06 100.19 58.86 99.34 56.49 98.01
  A 2.34 2.30 -32.3 0 0 55.17 97.72
  L 52.26 97.98
  A 1.13 1.13 0.0 0 1 51.42 96.01
  C 53.93 93.83 59.17 90.17 62.30 90.17
  Z"
/>
</svg>
