<?xml version="1.0" encoding="UTF-8" standalone="no"?>
<!DOCTYPE svg PUBLIC "-//W3C//DTD SVG 1.1//EN" "http://www.w3.org/Graphics/SVG/1.1/DTD/svg11.dtd">
<svg xmlns="http://www.w3.org/2000/svg" version="1.1" viewBox="0.00 0.00 125.00 125.00">
<g stroke-width="2.00" fill="none" stroke-linecap="butt">
<path stroke="#737273" vector-effect="non-scaling-stroke" d="
  M 122.50 62.00
  A 60.49 60.49 0.0 0 0 62.01 1.51
  A 60.49 60.49 0.0 0 0 1.52 62.00
  A 60.49 60.49 0.0 0 0 62.01 122.49
  A 60.49 60.49 0.0 0 0 122.50 62.00"
/>
<path stroke="#737273" vector-effect="non-scaling-stroke" d="
  M 120.24 62.01
  A 58.25 58.25 0.0 0 0 61.99 3.76
  A 58.25 58.25 0.0 0 0 3.74 62.01
  A 58.25 58.25 0.0 0 0 61.99 120.26
  A 58.25 58.25 0.0 0 0 120.24 62.01"
/>
<path stroke="#363636" vector-effect="non-scaling-stroke" d="
  M 117.10 62.01
  A 54.84 54.84 0.0 0 0 62.26 7.17
  A 54.84 54.84 0.0 0 0 7.42 62.01
  A 54.84 54.84 0.0 0 0 62.26 116.85
  A 54.84 54.84 0.0 0 0 117.10 62.01"
/>
<path stroke="#363636" vector-effect="non-scaling-stroke" d="
  M 111.78 62.00
  A 49.55 49.55 0.0 0 0 62.23 12.45
  A 49.55 49.55 0.0 0 0 12.68 62.00
  A 49.55 49.55 0.0 0 0 62.23 111.55
  A 49.55 49.55 0.0 0 0 111.78 62.00"
/>
<path stroke="#7e7e7e" vector-effect="non-scaling-stroke" d="
  M 61.82 52.16
  Q 66.30 52.16 66.62 52.17
  A 3.07 3.05 75.6 0 1 69.19 53.70
  Q 72.68 59.78 68.57 63.02
  C 67.35 63.98 66.11 64.17 64.65 64.53
  A 1.30 1.29 -42.3 0 0 64.53 67.01
  Q 71.30 69.37 74.09 74.77
  C 77.10 80.60 76.16 85.55 73.93 91.50
  Q 71.70 97.47 71.20 102.28
  A 1.03 1.03 0.0 0 0 72.57 103.36
  C 77.79 101.52 83.23 98.86 87.42 94.80
  Q 94.49 87.95 99.77 80.27
  C 101.10 78.33 102.44 72.98 103.99 67.61
  C 105.00 64.07 101.16 61.52 100.75 58.01
  Q 100.33 54.26 101.55 50.74
  A 1.11 1.09 84.2 0 1 102.04 50.13
  L 103.79 49.12
  A 0.77 0.77 0.0 0 0 104.16 48.29
  Q 101.64 36.98 93.68 29.05
  A 1.98 1.95 -11.8 0 0 92.98 28.60
  Q 91.23 27.93 89.07 28.87
  Q 83.49 31.31 81.68 32.05
  A 1.83 1.80 -44.5 0 1 80.33 32.05
  C 76.12 30.37 73.54 29.22 70.19 28.71
  C 67.37 28.29 64.82 29.67 61.82 29.67
  C 58.82 29.67 56.26 28.29 53.44 28.71
  C 50.10 29.22 47.52 30.37 43.31 32.05
  A 1.83 1.80 44.5 0 1 41.96 32.05
  Q 40.15 31.31 34.57 28.87
  Q 32.41 27.93 30.66 28.60
  A 1.98 1.95 11.8 0 0 29.96 29.05
  Q 22.00 36.98 19.47 48.28
  A 0.77 0.77 0.0 0 0 19.84 49.11
  L 21.59 50.13
  A 1.11 1.09 -84.2 0 1 22.08 50.74
  Q 23.30 54.26 22.88 58.01
  C 22.47 61.52 18.63 64.06 19.64 67.60
  C 21.19 72.98 22.53 78.33 23.86 80.27
  Q 29.14 87.95 36.21 94.80
  C 40.40 98.86 45.84 101.52 51.06 103.36
  A 1.03 1.03 0.0 0 0 52.43 102.28
  Q 51.93 97.47 49.70 91.50
  C 47.47 85.55 46.53 80.60 49.54 74.77
  Q 52.33 69.37 59.10 67.01
  A 1.30 1.29 42.3 0 0 58.98 64.53
  C 57.52 64.17 56.28 63.98 55.06 63.02
  Q 50.95 59.78 54.44 53.70
  A 3.07 3.05 -75.6 0 1 57.02 52.17
  Q 57.34 52.16 61.82 52.16"
/>
<path stroke="#7e7e7e" vector-effect="non-scaling-stroke" d="
  M 61.93 72.39
  C 63.80 72.38 65.03 72.25 66.19 72.89
  Q 67.09 73.39 67.97 72.89
  A 1.19 1.09 80.3 0 1 69.58 74.14
  Q 69.22 76.97 69.56 80.45
  A 0.25 0.24 -36.3 0 0 70.03 80.52
  Q 71.26 77.71 71.21 73.09
  A 1.46 1.45 19.5 0 0 70.68 71.99
  Q 68.90 70.52 67.46 70.70
  Q 64.65 71.07 61.92 71.08
  Q 59.20 71.09 56.38 70.75
  Q 54.94 70.58 53.17 72.07
  A 1.46 1.45 -20.0 0 0 52.65 73.17
  Q 52.64 77.79 53.90 80.59
  A 0.25 0.24 35.8 0 0 54.37 80.52
  Q 54.68 77.03 54.29 74.21
  A 1.19 1.09 -80.8 0 1 55.89 72.94
  Q 56.78 73.43 57.67 72.93
  C 58.83 72.28 60.06 72.40 61.93 72.39"
/>
<path stroke="#7e7e7e" vector-effect="non-scaling-stroke" d="
  M 53.60 98.89
  Q 53.16 101.72 54.00 104.52
  A 1.52 1.52 0.0 0 0 55.46 105.61
  L 68.21 105.61
  A 1.66 1.65 -73.5 0 0 69.60 104.85
  Q 71.53 101.87 70.11 99.14
  A 0.45 0.45 0.0 0 0 69.29 99.20
  Q 68.33 101.80 66.58 103.70
  A 1.86 1.84 14.4 0 1 65.62 104.26
  Q 62.18 105.08 58.71 104.40
  A 2.42 2.38 -15.6 0 1 57.41 103.68
  Q 55.66 101.83 54.35 98.79
  A 0.39 0.39 0.0 0 0 53.60 98.89"
/>
<path stroke="#363636" vector-effect="non-scaling-stroke" d="
  M 61.99 110.55
  C 63.89 110.57 66.44 110.58 67.95 108.99
  A 0.26 0.26 0.0 0 0 67.74 108.56
  C 64.82 108.87 63.51 109.16 62.00 109.14
  C 60.49 109.13 59.19 108.82 56.28 108.47
  A 0.26 0.26 0.0 0 0 56.06 108.90
  C 57.54 110.51 60.10 110.54 61.99 110.55"
/>
<path stroke="#7e7e7e" vector-effect="non-scaling-stroke" d="
  M 37.46 36.25
  C 33.78 33.91 31.00 34.40 28.02 37.50
  Q 22.75 42.97 27.89 50.03
  A 0.32 0.31 -74.5 0 0 28.43 49.72
  Q 26.16 44.19 29.98 39.17
  C 31.13 37.65 33.51 36.47 35.47 36.75
  Q 37.32 37.01 37.43 36.95
  A 0.41 0.40 -42.8 0 0 37.46 36.25"
/>
<path stroke="#7e7e7e" vector-effect="non-scaling-stroke" d="
  M 86.27 36.29
  A 0.40 0.40 0.0 0 0 86.30 36.98
  Q 86.41 37.04 88.24 36.77
  C 90.17 36.48 92.53 37.64 93.67 39.13
  Q 97.47 44.08 95.25 49.55
  A 0.31 0.31 0.0 0 0 95.79 49.85
  Q 100.83 42.85 95.60 37.48
  C 92.64 34.43 89.89 33.96 86.27 36.29"
/>
<path stroke="#7e7e7e" vector-effect="non-scaling-stroke" d="
  M 46.50 61.15
  A 0.67 0.67 0.0 0 0 47.47 61.12
  Q 50.34 57.90 51.30 53.82
  A 0.37 0.37 0.0 0 0 50.68 53.48
  L 44.82 59.34
  A 0.10 0.10 0.0 0 0 44.82 59.48
  L 46.50 61.15"
/>
<path stroke="#7e7e7e" vector-effect="non-scaling-stroke" d="
  M 77.08 61.10
  L 78.76 59.48
  A 0.10 0.10 0.0 0 0 78.76 59.34
  L 73.07 53.50
  A 0.36 0.36 0.0 0 0 72.46 53.83
  Q 73.35 57.85 76.13 61.06
  A 0.66 0.65 47.5 0 0 77.08 61.10"
/>
</g>
<path fill="none" d="
  M 125.00 0.00
  L 125.00 125.00
  L 0.00 125.00
  L 0.00 0.00
  L 125.00 0.00
  Z
  M 122.50 62.00
  A 60.49 60.49 0.0 0 0 62.01 1.51
  A 60.49 60.49 0.0 0 0 1.52 62.00
  A 60.49 60.49 0.0 0 0 62.01 122.49
  A 60.49 60.49 0.0 0 0 122.50 62.00
  Z"
/>
<path fill="#e0dee0" d="
  M 122.50 62.00
  A 60.49 60.49 0.0 0 1 62.01 122.49
  A 60.49 60.49 0.0 0 1 1.52 62.00
  A 60.49 60.49 0.0 0 1 62.01 1.51
  A 60.49 60.49 0.0 0 1 122.50 62.00
  Z
  M 120.24 62.01
  A 58.25 58.25 0.0 0 0 61.99 3.76
  A 58.25 58.25 0.0 0 0 3.74 62.01
  A 58.25 58.25 0.0 0 0 61.99 120.26
  A 58.25 58.25 0.0 0 0 120.24 62.01
  Z"
/>
<path fill="none" d="
  M 120.24 62.01
  A 58.25 58.25 0.0 0 1 61.99 120.26
  A 58.25 58.25 0.0 0 1 3.74 62.01
  A 58.25 58.25 0.0 0 1 61.99 3.76
  A 58.25 58.25 0.0 0 1 120.24 62.01
  Z
  M 117.10 62.01
  A 54.84 54.84 0.0 0 0 62.26 7.17
  A 54.84 54.84 0.0 0 0 7.42 62.01
  A 54.84 54.84 0.0 0 0 62.26 116.85
  A 54.84 54.84 0.0 0 0 117.10 62.01
  Z"
/>
<path fill="#666666" d="
  M 117.10 62.01
  A 54.84 54.84 0.0 0 1 62.26 116.85
  A 54.84 54.84 0.0 0 1 7.42 62.01
  A 54.84 54.84 0.0 0 1 62.26 7.17
  A 54.84 54.84 0.0 0 1 117.10 62.01
  Z
  M 111.78 62.00
  A 49.55 49.55 0.0 0 0 62.23 12.45
  A 49.55 49.55 0.0 0 0 12.68 62.00
  A 49.55 49.55 0.0 0 0 62.23 111.55
  A 49.55 49.55 0.0 0 0 111.78 62.00
  Z"
/>
<path fill="none" d="
  M 111.78 62.00
  A 49.55 49.55 0.0 0 1 62.23 111.55
  A 49.55 49.55 0.0 0 1 12.68 62.00
  A 49.55 49.55 0.0 0 1 62.23 12.45
  A 49.55 49.55 0.0 0 1 111.78 62.00
  Z
  M 61.82 52.16
  Q 66.30 52.16 66.62 52.17
  A 3.07 3.05 75.6 0 1 69.19 53.70
  Q 72.68 59.78 68.57 63.02
  C 67.35 63.98 66.11 64.17 64.65 64.53
  A 1.30 1.29 -42.3 0 0 64.53 67.01
  Q 71.30 69.37 74.09 74.77
  C 77.10 80.60 76.16 85.55 73.93 91.50
  Q 71.70 97.47 71.20 102.28
  A 1.03 1.03 0.0 0 0 72.57 103.36
  C 77.79 101.52 83.23 98.86 87.42 94.80
  Q 94.49 87.95 99.77 80.27
  C 101.10 78.33 102.44 72.98 103.99 67.61
  C 105.00 64.07 101.16 61.52 100.75 58.01
  Q 100.33 54.26 101.55 50.74
  A 1.11 1.09 84.2 0 1 102.04 50.13
  L 103.79 49.12
  A 0.77 0.77 0.0 0 0 104.16 48.29
  Q 101.64 36.98 93.68 29.05
  A 1.98 1.95 -11.8 0 0 92.98 28.60
  Q 91.23 27.93 89.07 28.87
  Q 83.49 31.31 81.68 32.05
  A 1.83 1.80 -44.5 0 1 80.33 32.05
  C 76.12 30.37 73.54 29.22 70.19 28.71
  C 67.37 28.29 64.82 29.67 61.82 29.67
  C 58.82 29.67 56.26 28.29 53.44 28.71
  C 50.10 29.22 47.52 30.37 43.31 32.05
  A 1.83 1.80 44.5 0 1 41.96 32.05
  Q 40.15 31.31 34.57 28.87
  Q 32.41 27.93 30.66 28.60
  A 1.98 1.95 11.8 0 0 29.96 29.05
  Q 22.00 36.98 19.47 48.28
  A 0.77 0.77 0.0 0 0 19.84 49.11
  L 21.59 50.13
  A 1.11 1.09 -84.2 0 1 22.08 50.74
  Q 23.30 54.26 22.88 58.01
  C 22.47 61.52 18.63 64.06 19.64 67.60
  C 21.19 72.98 22.53 78.33 23.86 80.27
  Q 29.14 87.95 36.21 94.80
  C 40.40 98.86 45.84 101.52 51.06 103.36
  A 1.03 1.03 0.0 0 0 52.43 102.28
  Q 51.93 97.47 49.70 91.50
  C 47.47 85.55 46.53 80.60 49.54 74.77
  Q 52.33 69.37 59.10 67.01
  A 1.30 1.29 42.3 0 0 58.98 64.53
  C 57.52 64.17 56.28 63.98 55.06 63.02
  Q 50.95 59.78 54.44 53.70
  A 3.07 3.05 -75.6 0 1 57.02 52.17
  Q 57.34 52.16 61.82 52.16
  Z
  M 61.93 72.39
  C 63.80 72.38 65.03 72.25 66.19 72.89
  Q 67.09 73.39 67.97 72.89
  A 1.19 1.09 80.3 0 1 69.58 74.14
  Q 69.22 76.97 69.56 80.45
  A 0.25 0.24 -36.3 0 0 70.03 80.52
  Q 71.26 77.71 71.21 73.09
  A 1.46 1.45 19.5 0 0 70.68 71.99
  Q 68.90 70.52 67.46 70.70
  Q 64.65 71.07 61.92 71.08
  Q 59.20 71.09 56.38 70.75
  Q 54.94 70.58 53.17 72.07
  A 1.46 1.45 -20.0 0 0 52.65 73.17
  Q 52.64 77.79 53.90 80.59
  A 0.25 0.24 35.8 0 0 54.37 80.52
  Q 54.68 77.03 54.29 74.21
  A 1.19 1.09 -80.8 0 1 55.89 72.94
  Q 56.78 73.43 57.67 72.93
  C 58.83 72.28 60.06 72.40 61.93 72.39
  Z
  M 53.60 98.89
  Q 53.16 101.72 54.00 104.52
  A 1.52 1.52 0.0 0 0 55.46 105.61
  L 68.21 105.61
  A 1.66 1.65 -73.5 0 0 69.60 104.85
  Q 71.53 101.87 70.11 99.14
  A 0.45 0.45 0.0 0 0 69.29 99.20
  Q 68.33 101.80 66.58 103.70
  A 1.86 1.84 14.4 0 1 65.62 104.26
  Q 62.18 105.08 58.71 104.40
  A 2.42 2.38 -15.6 0 1 57.41 103.68
  Q 55.66 101.83 54.35 98.79
  A 0.39 0.39 0.0 0 0 53.60 98.89
  Z
  M 61.99 110.55
  C 63.89 110.57 66.44 110.58 67.95 108.99
  A 0.26 0.26 0.0 0 0 67.74 108.56
  C 64.82 108.87 63.51 109.16 62.00 109.14
  C 60.49 109.13 59.19 108.82 56.28 108.47
  A 0.26 0.26 0.0 0 0 56.06 108.90
  C 57.54 110.51 60.10 110.54 61.99 110.55
  Z"
/>
<path fill="#f6f6f6" d="
  M 61.82 29.67
  C 64.82 29.67 67.37 28.29 70.19 28.71
  C 73.54 29.22 76.12 30.37 80.33 32.05
  A 1.83 1.80 -44.5 0 0 81.68 32.05
  Q 83.49 31.31 89.07 28.87
  Q 91.23 27.93 92.98 28.60
  A 1.98 1.95 -11.8 0 1 93.68 29.05
  Q 101.64 36.98 104.16 48.29
  A 0.77 0.77 0.0 0 1 103.79 49.12
  L 102.04 50.13
  A 1.11 1.09 84.2 0 0 101.55 50.74
  Q 100.33 54.26 100.75 58.01
  C 101.16 61.52 105.00 64.07 103.99 67.61
  C 102.44 72.98 101.10 78.33 99.77 80.27
  Q 94.49 87.95 87.42 94.80
  C 83.23 98.86 77.79 101.52 72.57 103.36
  A 1.03 1.03 0.0 0 1 71.20 102.28
  Q 71.70 97.47 73.93 91.50
  C 76.16 85.55 77.10 80.60 74.09 74.77
  Q 71.30 69.37 64.53 67.01
  A 1.30 1.29 -42.3 0 1 64.65 64.53
  C 66.11 64.17 67.35 63.98 68.57 63.02
  Q 72.68 59.78 69.19 53.70
  A 3.07 3.05 75.6 0 0 66.62 52.17
  Q 66.30 52.16 61.82 52.16
  Q 57.34 52.16 57.02 52.17
  A 3.07 3.05 -75.6 0 0 54.44 53.70
  Q 50.95 59.78 55.06 63.02
  C 56.28 63.98 57.52 64.17 58.98 64.53
  A 1.30 1.29 42.3 0 1 59.10 67.01
  Q 52.33 69.37 49.54 74.77
  C 46.53 80.60 47.47 85.55 49.70 91.50
  Q 51.93 97.47 52.43 102.28
  A 1.03 1.03 0.0 0 1 51.06 103.36
  C 45.84 101.52 40.40 98.86 36.21 94.80
  Q 29.14 87.95 23.86 80.27
  C 22.53 78.33 21.19 72.98 19.64 67.60
  C 18.63 64.06 22.47 61.52 22.88 58.01
  Q 23.30 54.26 22.08 50.74
  A 1.11 1.09 -84.2 0 0 21.59 50.13
  L 19.84 49.11
  A 0.77 0.77 0.0 0 1 19.47 48.28
  Q 22.00 36.98 29.96 29.05
  A 1.98 1.95 11.8 0 1 30.66 28.60
  Q 32.41 27.93 34.57 28.87
  Q 40.15 31.31 41.96 32.05
  A 1.83 1.80 44.5 0 0 43.31 32.05
  C 47.52 30.37 50.10 29.22 53.44 28.71
  C 56.26 28.29 58.82 29.67 61.82 29.67
  Z
  M 37.46 36.25
  C 33.78 33.91 31.00 34.40 28.02 37.50
  Q 22.75 42.97 27.89 50.03
  A 0.32 0.31 -74.5 0 0 28.43 49.72
  Q 26.16 44.19 29.98 39.17
  C 31.13 37.65 33.51 36.47 35.47 36.75
  Q 37.32 37.01 37.43 36.95
  A 0.41 0.40 -42.8 0 0 37.46 36.25
  Z
  M 86.27 36.29
  A 0.40 0.40 0.0 0 0 86.30 36.98
  Q 86.41 37.04 88.24 36.77
  C 90.17 36.48 92.53 37.64 93.67 39.13
  Q 97.47 44.08 95.25 49.55
  A 0.31 0.31 0.0 0 0 95.79 49.85
  Q 100.83 42.85 95.60 37.48
  C 92.64 34.43 89.89 33.96 86.27 36.29
  Z
  M 46.50 61.15
  A 0.67 0.67 0.0 0 0 47.47 61.12
  Q 50.34 57.90 51.30 53.82
  A 0.37 0.37 0.0 0 0 50.68 53.48
  L 44.82 59.34
  A 0.10 0.10 0.0 0 0 44.82 59.48
  L 46.50 61.15
  Z
  M 77.08 61.10
  L 78.76 59.48
  A 0.10 0.10 0.0 0 0 78.76 59.34
  L 73.07 53.50
  A 0.36 0.36 0.0 0 0 72.46 53.83
  Q 73.35 57.85 76.13 61.06
  A 0.66 0.65 47.5 0 0 77.08 61.10
  Z"
/>
<path fill="none" d="
  M 37.43 36.95
  Q 37.32 37.01 35.47 36.75
  C 33.51 36.47 31.13 37.65 29.98 39.17
  Q 26.16 44.19 28.43 49.72
  A 0.32 0.31 -74.5 0 1 27.89 50.03
  Q 22.75 42.97 28.02 37.50
  C 31.00 34.40 33.78 33.91 37.46 36.25
  A 0.41 0.40 -42.8 0 1 37.43 36.95
  Z"
/>
<path fill="none" d="
  M 86.27 36.29
  C 89.89 33.96 92.64 34.43 95.60 37.48
  Q 100.83 42.85 95.79 49.85
  A 0.31 0.31 0.0 0 1 95.25 49.55
  Q 97.47 44.08 93.67 39.13
  C 92.53 37.64 90.17 36.48 88.24 36.77
  Q 86.41 37.04 86.30 36.98
  A 0.40 0.40 0.0 0 1 86.27 36.29
  Z"
/>
<path fill="none" d="
  M 44.82 59.34
  L 50.68 53.48
  A 0.37 0.37 0.0 0 1 51.30 53.82
  Q 50.34 57.90 47.47 61.12
  A 0.67 0.67 0.0 0 1 46.50 61.15
  L 44.82 59.48
  A 0.10 0.10 0.0 0 1 44.82 59.34
  Z"
/>
<path fill="none" d="
  M 77.08 61.10
  A 0.66 0.65 47.5 0 1 76.13 61.06
  Q 73.35 57.85 72.46 53.83
  A 0.36 0.36 0.0 0 1 73.07 53.50
  L 78.76 59.34
  A 0.10 0.10 0.0 0 1 78.76 59.48
  L 77.08 61.10
  Z"
/>
<path fill="#f6f6f6" d="
  M 61.92 71.08
  Q 64.65 71.07 67.46 70.70
  Q 68.90 70.52 70.68 71.99
  A 1.46 1.45 19.5 0 1 71.21 73.09
  Q 71.26 77.71 70.03 80.52
  A 0.25 0.24 -36.3 0 1 69.56 80.45
  Q 69.22 76.97 69.58 74.14
  A 1.19 1.09 80.3 0 0 67.97 72.89
  Q 67.09 73.39 66.19 72.89
  C 65.03 72.25 63.80 72.38 61.93 72.39
  C 60.06 72.40 58.83 72.28 57.67 72.93
  Q 56.78 73.43 55.89 72.94
  A 1.19 1.09 -80.8 0 0 54.29 74.21
  Q 54.68 77.03 54.37 80.52
  A 0.25 0.24 35.8 0 1 53.90 80.59
  Q 52.64 77.79 52.65 73.17
  A 1.46 1.45 -20.0 0 1 53.17 72.07
  Q 54.94 70.58 56.38 70.75
  Q 59.20 71.09 61.92 71.08
  Z"
/>
<path fill="#f6f6f6" d="
  M 53.60 98.89
  A 0.39 0.39 0.0 0 1 54.35 98.79
  Q 55.66 101.83 57.41 103.68
  A 2.42 2.38 -15.6 0 0 58.71 104.40
  Q 62.18 105.08 65.62 104.26
  A 1.86 1.84 14.4 0 0 66.58 103.70
  Q 68.33 101.80 69.29 99.20
  A 0.45 0.45 0.0 0 1 70.11 99.14
  Q 71.53 101.87 69.60 104.85
  A 1.66 1.65 -73.5 0 1 68.21 105.61
  L 55.46 105.61
  A 1.52 1.52 0.0 0 1 54.00 104.52
  Q 53.16 101.72 53.60 98.89
  Z"
/>
<path fill="#666666" d="
  M 62.00 109.14
  C 63.51 109.16 64.82 108.87 67.74 108.56
  A 0.26 0.26 0.0 0 1 67.95 108.99
  C 66.44 110.58 63.89 110.57 61.99 110.55
  C 60.10 110.54 57.54 110.51 56.06 108.90
  A 0.26 0.26 0.0 0 1 56.28 108.47
  C 59.19 108.82 60.49 109.13 62.00 109.14
  Z"
/>
</svg>
