<?xml version="1.0" encoding="UTF-8" standalone="no"?>
<!DOCTYPE svg PUBLIC "-//W3C//DTD SVG 1.1//EN" "http://www.w3.org/Graphics/SVG/1.1/DTD/svg11.dtd">
<svg xmlns="http://www.w3.org/2000/svg" version="1.1" viewBox="0.00 0.00 125.00 125.00">
<g stroke-width="2.00" fill="none" stroke-linecap="butt">
<path stroke="#757476" vector-effect="non-scaling-stroke" d="
  M 62.33 3.71
  C 72.95 3.76 82.38 6.56 91.85 11.80
  A 0.65 0.64 15.5 0 0 92.81 11.26
  L 92.82 11.15
  A 1.71 1.68 16.8 0 0 91.99 9.63
  Q 81.51 3.34 69.75 2.05
  Q 68.93 1.96 62.34 1.92
  Q 55.76 1.89 54.94 1.97
  Q 43.16 3.14 32.62 9.32
  A 1.71 1.68 -16.2 0 0 31.77 10.83
  L 31.78 10.94
  A 0.65 0.64 -14.9 0 0 32.73 11.49
  C 42.26 6.35 51.72 3.65 62.33 3.71"
/>
<path stroke="#7f7f7f" vector-effect="non-scaling-stroke" d="
  M 95.57 3.72
  A 0.42 0.41 -3.2 0 0 95.16 4.17
  C 95.59 9.83 95.92 15.35 94.14 20.24
  Q 91.01 28.80 82.46 34.52
  A 2.08 2.07 -45.9 0 1 80.22 34.56
  C 73.29 30.25 69.96 37.36 71.68 42.91
  C 73.60 49.14 81.37 47.28 85.56 44.75
  C 91.93 40.90 97.15 35.22 99.70 28.33
  Q 104.00 16.72 96.90 4.63
  Q 96.35 3.71 95.57 3.72"
/>
<path stroke="#7f7f7f" vector-effect="non-scaling-stroke" d="
  M 28.88 3.63
  Q 28.10 3.62 27.55 4.54
  Q 20.44 16.65 24.76 28.28
  C 27.31 35.18 32.54 40.86 38.93 44.71
  C 43.12 47.24 50.90 49.10 52.82 42.86
  C 54.54 37.30 51.20 30.19 44.27 34.51
  A 2.08 2.07 45.9 0 1 42.02 34.47
  Q 33.46 28.74 30.32 20.17
  C 28.53 15.28 28.86 9.75 29.29 4.08
  A 0.42 0.41 3.2 0 0 28.88 3.63"
/>
<path stroke="#3a3b3b" vector-effect="non-scaling-stroke" d="
  M 62.29 12.19
  C 71.65 12.21 82.05 14.85 89.43 20.60
  A 1.49 1.49 0.0 0 0 91.83 19.42
  L 91.83 16.49
  A 1.76 1.74 15.8 0 0 90.99 15.00
  C 81.78 9.46 72.78 7.08 62.30 7.05
  C 51.83 7.02 42.81 9.34 33.57 14.82
  A 1.76 1.74 -15.4 0 0 32.72 16.31
  L 32.70 19.24
  A 1.49 1.49 0.0 0 0 35.09 20.43
  C 42.51 14.73 52.93 12.16 62.29 12.19"
/>
<path stroke="#757476" vector-effect="non-scaling-stroke" d="
  M 61.47 122.40
  C 68.74 122.46 73.89 121.84 81.27 119.35
  C 99.59 113.18 113.26 99.17 119.52 81.05
  Q 121.68 74.81 122.04 69.76
  C 122.39 64.96 122.67 57.01 121.66 51.46
  Q 118.42 33.49 105.48 19.98
  A 0.60 0.60 0.0 0 0 104.53 20.09
  L 104.38 20.35
  A 1.53 1.53 0.0 0 0 104.55 22.11
  C 119.97 39.55 124.69 62.40 115.88 84.01
  Q 109.19 100.41 94.27 110.42
  C 84.70 116.84 72.84 120.48 61.49 120.38
  C 50.15 120.28 38.34 116.43 28.89 109.84
  Q 14.15 99.57 7.75 83.05
  C -0.67 61.29 4.45 38.53 20.18 21.36
  A 1.53 1.53 0.0 0 0 20.38 19.61
  L 20.23 19.34
  A 0.60 0.60 0.0 0 0 19.28 19.22
  Q 6.11 32.50 2.55 50.41
  C 1.44 55.94 1.58 63.89 1.85 68.70
  Q 2.12 73.75 4.17 80.03
  C 10.10 98.26 23.52 112.51 41.74 119.00
  C 49.07 121.62 54.20 122.33 61.47 122.40"
/>
<path stroke="#3a3b3b" vector-effect="non-scaling-stroke" d="
  M 62.36 111.07
  C 48.38 111.09 36.19 105.96 26.53 95.92
  C 10.34 79.09 7.88 52.32 21.89 33.18
  A 3.24 3.21 -35.5 0 0 22.38 30.35
  L 21.50 27.45
  A 1.12 1.12 0.0 0 0 19.53 27.10
  Q 7.44 43.10 7.51 61.38
  Q 7.56 76.68 14.63 88.86
  C 23.78 104.62 39.89 115.01 58.25 116.36
  Q 58.59 116.38 62.37 116.37
  Q 66.14 116.37 66.48 116.34
  C 84.84 114.92 100.91 104.47 109.99 88.67
  Q 117.02 76.47 117.01 61.17
  Q 117.01 42.89 104.85 26.93
  A 1.12 1.12 0.0 0 0 102.89 27.29
  L 102.02 30.19
  A 3.24 3.21 35.2 0 0 102.52 33.02
  C 116.60 52.11 114.25 78.89 98.12 95.78
  C 88.50 105.86 76.33 111.04 62.36 111.07"
/>
<path stroke="#7f7f7f" vector-effect="non-scaling-stroke" d="
  M 60.58 54.00
  Q 60.08 54.76 59.89 57.31
  A 0.49 0.49 0.0 0 1 59.28 57.74
  Q 57.42 57.28 57.01 57.84
  A 0.96 0.95 -25.1 0 0 56.83 58.33
  Q 56.64 61.84 59.10 62.33
  A 1.87 1.86 -84.3 0 0 61.33 60.50
  L 61.33 54.23
  A 0.41 0.41 0.0 0 0 60.58 54.00"
/>
<path stroke="#7f7f7f" vector-effect="non-scaling-stroke" d="
  M 66.90 57.46
  L 64.41 57.21
  A 0.89 0.89 0.0 0 0 63.44 58.01
  L 63.28 59.58
  A 2.67 2.03 -84.3 0 0 65.04 62.44
  L 65.25 62.46
  A 2.67 2.03 -84.3 0 0 67.54 60.00
  L 67.70 58.43
  A 0.89 0.89 0.0 0 0 66.90 57.46"
/>
<path stroke="#7f7f7f" vector-effect="non-scaling-stroke" d="
  M 52.07 69.54
  C 46.01 69.71 45.61 67.35 43.09 62.94
  A 2.12 2.11 -15.3 0 0 41.22 61.88
  C 33.31 61.99 33.90 75.59 41.21 74.90
  A 1.68 1.66 28.2 0 0 41.85 74.71
  L 44.77 73.13
  A 1.72 1.70 -40.0 0 1 46.62 73.28
  L 49.30 75.33
  A 0.31 0.31 0.0 0 0 49.76 75.24
  L 52.57 70.38
  A 0.56 0.56 0.0 0 0 52.07 69.54"
/>
<path stroke="#7f7f7f" vector-effect="non-scaling-stroke" d="
  M 75.69 75.06
  L 78.23 72.91
  A 0.87 0.87 0.0 0 1 79.20 72.81
  C 82.12 74.35 84.48 76.37 87.46 73.35
  A 2.43 2.35 80.8 0 0 87.94 72.66
  C 89.85 68.51 89.29 62.57 83.68 61.87
  A 2.15 2.15 0.0 0 0 81.56 62.93
  Q 79.58 66.39 79.30 66.81
  C 77.15 70.10 73.33 69.79 69.46 69.39
  Q 69.34 69.38 69.08 69.46
  Q 68.87 69.53 68.79 69.70
  A 0.69 0.67 -88.3 0 0 69.63 70.62
  Q 73.25 69.25 73.98 74.41
  A 1.04 1.04 0.0 0 0 75.69 75.06"
/>
<path stroke="#757476" vector-effect="non-scaling-stroke" d="
  M 53.0136 63.3971
  A 0.98 0.83 -121.8 0 0 52.8246 64.6674
  A 0.98 0.83 -121.8 0 0 54.0464 65.0629
  A 0.98 0.83 -121.8 0 0 54.2354 63.7926
  A 0.98 0.83 -121.8 0 0 53.0136 63.3971"
/>
<path stroke="#757476" vector-effect="non-scaling-stroke" d="
  M 71.53 64.37
  A 0.82 0.82 0.0 0 0 70.71 63.55
  A 0.82 0.82 0.0 0 0 69.89 64.37
  A 0.82 0.82 0.0 0 0 70.71 65.19
  A 0.82 0.82 0.0 0 0 71.53 64.37"
/>
<path stroke="#7f7f7f" vector-effect="non-scaling-stroke" d="
  M 62.25 81.98
  C 64.85 81.97 64.60 79.37 67.72 79.48
  C 71.00 79.59 71.34 75.97 70.75 73.36
  A 0.53 0.53 0.0 0 0 69.98 73.01
  Q 68.82 73.64 68.19 74.88
  A 1.05 1.04 -49.4 0 1 66.40 75.02
  C 64.39 72.17 65.29 70.15 65.94 67.05
  A 0.82 0.82 0.0 0 0 65.47 66.14
  Q 64.14 65.57 62.90 65.11
  Q 62.54 64.97 62.19 64.97
  Q 61.84 64.97 61.48 65.11
  Q 60.25 65.58 58.92 66.16
  A 0.82 0.82 0.0 0 0 58.46 67.07
  C 59.13 70.17 60.04 72.18 58.05 75.05
  A 1.05 1.04 49.1 0 1 56.26 74.92
  Q 55.62 73.68 54.45 73.06
  A 0.53 0.53 0.0 0 0 53.69 73.41
  C 53.11 76.03 53.48 79.65 56.76 79.51
  C 59.88 79.38 59.64 81.99 62.25 81.98"
/>
<path stroke="#7f7f7f" vector-effect="non-scaling-stroke" d="
  M 53.5991 69.7162
  A 1.03 0.79 -160.5 0 0 54.3063 70.8047
  A 1.03 0.79 -160.5 0 0 55.5409 70.4038
  A 1.03 0.79 -160.5 0 0 54.8337 69.3153
  A 1.03 0.79 -160.5 0 0 53.5991 69.7162"
/>
<path stroke="#7f7f7f" vector-effect="non-scaling-stroke" d="
  M 52.8947 80.2795
  A 1.16 0.96 -106.8 0 0 52.3110 81.6675
  A 1.16 0.96 -106.8 0 0 53.5653 82.5005
  A 1.16 0.96 -106.8 0 0 54.1490 81.1125
  A 1.16 0.96 -106.8 0 0 52.8947 80.2795"
/>
<path stroke="#7f7f7f" vector-effect="non-scaling-stroke" d="
  M 71.0902 80.1594
  A 1.37 0.98 -96.7 0 0 70.2767 81.6343
  A 1.37 0.98 -96.7 0 0 71.4098 82.8806
  A 1.37 0.98 -96.7 0 0 72.2233 81.4057
  A 1.37 0.98 -96.7 0 0 71.0902 80.1594"
/>
<path stroke="#7f7f7f" vector-effect="non-scaling-stroke" d="
  M 65.0700 83.2662
  A 1.19 0.93 -180.3 0 0 66.2649 84.1900
  A 1.19 0.93 -180.3 0 0 67.4500 83.2538
  A 1.19 0.93 -180.3 0 0 66.2551 82.3300
  A 1.19 0.93 -180.3 0 0 65.0700 83.2662"
/>
<path stroke="#7f7f7f" vector-effect="non-scaling-stroke" d="
  M 57.1710 83.1084
  A 1.05 0.82 -171.7 0 0 58.0916 84.0714
  A 1.05 0.82 -171.7 0 0 59.2490 83.4116
  A 1.05 0.82 -171.7 0 0 58.3284 82.4486
  A 1.05 0.82 -171.7 0 0 57.1710 83.1084"
/>
<path stroke="#7f7f7f" vector-effect="non-scaling-stroke" d="
  M 59.00 87.07
  A 0.20 0.19 -50.8 0 0 58.97 86.72
  Q 58.23 86.47 57.42 87.37
  A 0.74 0.74 0.0 0 1 56.37 87.42
  Q 52.18 83.62 47.87 82.56
  A 0.53 0.53 0.0 0 0 47.42 83.49
  L 54.38 88.84
  A 1.26 1.25 48.4 0 0 55.77 88.93
  L 59.00 87.07"
/>
<path stroke="#7f7f7f" vector-effect="non-scaling-stroke" d="
  M 77.00 83.32
  A 0.36 0.35 -70.2 0 0 76.71 82.70
  Q 72.06 83.55 68.40 87.32
  A 0.96 0.96 0.0 0 0 68.70 88.87
  L 68.75 88.89
  A 2.22 2.21 34.4 0 0 70.90 88.49
  L 77.00 83.32"
/>
<path stroke="#7f7f7f" vector-effect="non-scaling-stroke" d="
  M 65.5604 86.9392
  A 0.81 0.64 -167.1 0 0 66.2071 87.7438
  A 0.81 0.64 -167.1 0 0 67.1396 87.3008
  A 0.81 0.64 -167.1 0 0 66.4929 86.4962
  A 0.81 0.64 -167.1 0 0 65.5604 86.9392"
/>
<path stroke="#7f7f7f" vector-effect="non-scaling-stroke" d="
  M 31.06 96.31
  A 0.51 0.51 0.0 0 0 31.26 97.06
  C 36.62 99.51 44.83 94.79 48.99 91.12
  A 1.26 1.26 0.0 0 0 49.04 89.26
  L 48.99 89.22
  A 1.52 1.52 0.0 0 0 46.94 89.18
  Q 40.86 94.52 31.50 96.04
  Q 31.20 96.09 31.06 96.31"
/>
<path stroke="#7f7f7f" vector-effect="non-scaling-stroke" d="
  M 93.60 96.32
  Q 93.45 96.10 93.15 96.05
  Q 83.69 94.52 77.54 89.12
  A 1.54 1.53 43.6 0 0 75.47 89.17
  L 75.42 89.21
  A 1.28 1.27 -46.6 0 0 75.47 91.09
  C 79.68 94.79 87.98 99.56 93.39 97.08
  A 0.52 0.51 60.7 0 0 93.60 96.32"
/>
<path stroke="#7f7f7f" vector-effect="non-scaling-stroke" d="
  M 62.24 101.87
  C 65.57 101.86 67.88 100.07 70.42 98.89
  A 2.21 2.14 -51.9 0 1 71.70 98.71
  L 74.31 99.14
  A 1.79 1.79 0.0 0 0 75.84 96.09
  C 72.74 93.11 66.57 89.08 62.21 89.09
  C 57.86 89.10 51.70 93.15 48.61 96.15
  A 1.79 1.79 0.0 0 0 50.16 99.19
  L 52.77 98.75
  A 2.21 2.14 51.7 0 1 54.05 98.92
  C 56.59 100.09 58.91 101.87 62.24 101.87"
/>
</g>
<path fill="#070707" d="
  M 125.00 0.00
  L 125.00 125.00
  L 0.00 125.00
  L 0.00 0.00
  L 125.00 0.00
  Z
  M 62.33 3.71
  C 72.95 3.76 82.38 6.56 91.85 11.80
  A 0.65 0.64 15.5 0 0 92.81 11.26
  L 92.82 11.15
  A 1.71 1.68 16.8 0 0 91.99 9.63
  Q 81.51 3.34 69.75 2.05
  Q 68.93 1.96 62.34 1.92
  Q 55.76 1.89 54.94 1.97
  Q 43.16 3.14 32.62 9.32
  A 1.71 1.68 -16.2 0 0 31.77 10.83
  L 31.78 10.94
  A 0.65 0.64 -14.9 0 0 32.73 11.49
  C 42.26 6.35 51.72 3.65 62.33 3.71
  Z
  M 95.57 3.72
  A 0.42 0.41 -3.2 0 0 95.16 4.17
  C 95.59 9.83 95.92 15.35 94.14 20.24
  Q 91.01 28.80 82.46 34.52
  A 2.08 2.07 -45.9 0 1 80.22 34.56
  C 73.29 30.25 69.96 37.36 71.68 42.91
  C 73.60 49.14 81.37 47.28 85.56 44.75
  C 91.93 40.90 97.15 35.22 99.70 28.33
  Q 104.00 16.72 96.90 4.63
  Q 96.35 3.71 95.57 3.72
  Z
  M 28.88 3.63
  Q 28.10 3.62 27.55 4.54
  Q 20.44 16.65 24.76 28.28
  C 27.31 35.18 32.54 40.86 38.93 44.71
  C 43.12 47.24 50.90 49.10 52.82 42.86
  C 54.54 37.30 51.20 30.19 44.27 34.51
  A 2.08 2.07 45.9 0 1 42.02 34.47
  Q 33.46 28.74 30.32 20.17
  C 28.53 15.28 28.86 9.75 29.29 4.08
  A 0.42 0.41 3.2 0 0 28.88 3.63
  Z
  M 62.29 12.19
  C 71.65 12.21 82.05 14.85 89.43 20.60
  A 1.49 1.49 0.0 0 0 91.83 19.42
  L 91.83 16.49
  A 1.76 1.74 15.8 0 0 90.99 15.00
  C 81.78 9.46 72.78 7.08 62.30 7.05
  C 51.83 7.02 42.81 9.34 33.57 14.82
  A 1.76 1.74 -15.4 0 0 32.72 16.31
  L 32.70 19.24
  A 1.49 1.49 0.0 0 0 35.09 20.43
  C 42.51 14.73 52.93 12.16 62.29 12.19
  Z
  M 61.47 122.40
  C 68.74 122.46 73.89 121.84 81.27 119.35
  C 99.59 113.18 113.26 99.17 119.52 81.05
  Q 121.68 74.81 122.04 69.76
  C 122.39 64.96 122.67 57.01 121.66 51.46
  Q 118.42 33.49 105.48 19.98
  A 0.60 0.60 0.0 0 0 104.53 20.09
  L 104.38 20.35
  A 1.53 1.53 0.0 0 0 104.55 22.11
  C 119.97 39.55 124.69 62.40 115.88 84.01
  Q 109.19 100.41 94.27 110.42
  C 84.70 116.84 72.84 120.48 61.49 120.38
  C 50.15 120.28 38.34 116.43 28.89 109.84
  Q 14.15 99.57 7.75 83.05
  C -0.67 61.29 4.45 38.53 20.18 21.36
  A 1.53 1.53 0.0 0 0 20.38 19.61
  L 20.23 19.34
  A 0.60 0.60 0.0 0 0 19.28 19.22
  Q 6.11 32.50 2.55 50.41
  C 1.44 55.94 1.58 63.89 1.85 68.70
  Q 2.12 73.75 4.17 80.03
  C 10.10 98.26 23.52 112.51 41.74 119.00
  C 49.07 121.62 54.20 122.33 61.47 122.40
  Z
  M 62.36 111.07
  C 48.38 111.09 36.19 105.96 26.53 95.92
  C 10.34 79.09 7.88 52.32 21.89 33.18
  A 3.24 3.21 -35.5 0 0 22.38 30.35
  L 21.50 27.45
  A 1.12 1.12 0.0 0 0 19.53 27.10
  Q 7.44 43.10 7.51 61.38
  Q 7.56 76.68 14.63 88.86
  C 23.78 104.62 39.89 115.01 58.25 116.36
  Q 58.59 116.38 62.37 116.37
  Q 66.14 116.37 66.48 116.34
  C 84.84 114.92 100.91 104.47 109.99 88.67
  Q 117.02 76.47 117.01 61.17
  Q 117.01 42.89 104.85 26.93
  A 1.12 1.12 0.0 0 0 102.89 27.29
  L 102.02 30.19
  A 3.24 3.21 35.2 0 0 102.52 33.02
  C 116.60 52.11 114.25 78.89 98.12 95.78
  C 88.50 105.86 76.33 111.04 62.36 111.07
  Z
  M 60.58 54.00
  Q 60.08 54.76 59.89 57.31
  A 0.49 0.49 0.0 0 1 59.28 57.74
  Q 57.42 57.28 57.01 57.84
  A 0.96 0.95 -25.1 0 0 56.83 58.33
  Q 56.64 61.84 59.10 62.33
  A 1.87 1.86 -84.3 0 0 61.33 60.50
  L 61.33 54.23
  A 0.41 0.41 0.0 0 0 60.58 54.00
  Z
  M 66.90 57.46
  L 64.41 57.21
  A 0.89 0.89 0.0 0 0 63.44 58.01
  L 63.28 59.58
  A 2.67 2.03 -84.3 0 0 65.04 62.44
  L 65.25 62.46
  A 2.67 2.03 -84.3 0 0 67.54 60.00
  L 67.70 58.43
  A 0.89 0.89 0.0 0 0 66.90 57.46
  Z
  M 52.07 69.54
  C 46.01 69.71 45.61 67.35 43.09 62.94
  A 2.12 2.11 -15.3 0 0 41.22 61.88
  C 33.31 61.99 33.90 75.59 41.21 74.90
  A 1.68 1.66 28.2 0 0 41.85 74.71
  L 44.77 73.13
  A 1.72 1.70 -40.0 0 1 46.62 73.28
  L 49.30 75.33
  A 0.31 0.31 0.0 0 0 49.76 75.24
  L 52.57 70.38
  A 0.56 0.56 0.0 0 0 52.07 69.54
  Z
  M 75.69 75.06
  L 78.23 72.91
  A 0.87 0.87 0.0 0 1 79.20 72.81
  C 82.12 74.35 84.48 76.37 87.46 73.35
  A 2.43 2.35 80.8 0 0 87.94 72.66
  C 89.85 68.51 89.29 62.57 83.68 61.87
  A 2.15 2.15 0.0 0 0 81.56 62.93
  Q 79.58 66.39 79.30 66.81
  C 77.15 70.10 73.33 69.79 69.46 69.39
  Q 69.34 69.38 69.08 69.46
  Q 68.87 69.53 68.79 69.70
  A 0.69 0.67 -88.3 0 0 69.63 70.62
  Q 73.25 69.25 73.98 74.41
  A 1.04 1.04 0.0 0 0 75.69 75.06
  Z
  M 53.0136 63.3971
  A 0.98 0.83 -121.8 0 0 52.8246 64.6674
  A 0.98 0.83 -121.8 0 0 54.0464 65.0629
  A 0.98 0.83 -121.8 0 0 54.2354 63.7926
  A 0.98 0.83 -121.8 0 0 53.0136 63.3971
  Z
  M 71.53 64.37
  A 0.82 0.82 0.0 0 0 70.71 63.55
  A 0.82 0.82 0.0 0 0 69.89 64.37
  A 0.82 0.82 0.0 0 0 70.71 65.19
  A 0.82 0.82 0.0 0 0 71.53 64.37
  Z
  M 62.25 81.98
  C 64.85 81.97 64.60 79.37 67.72 79.48
  C 71.00 79.59 71.34 75.97 70.75 73.36
  A 0.53 0.53 0.0 0 0 69.98 73.01
  Q 68.82 73.64 68.19 74.88
  A 1.05 1.04 -49.4 0 1 66.40 75.02
  C 64.39 72.17 65.29 70.15 65.94 67.05
  A 0.82 0.82 0.0 0 0 65.47 66.14
  Q 64.14 65.57 62.90 65.11
  Q 62.54 64.97 62.19 64.97
  Q 61.84 64.97 61.48 65.11
  Q 60.25 65.58 58.92 66.16
  A 0.82 0.82 0.0 0 0 58.46 67.07
  C 59.13 70.17 60.04 72.18 58.05 75.05
  A 1.05 1.04 49.1 0 1 56.26 74.92
  Q 55.62 73.68 54.45 73.06
  A 0.53 0.53 0.0 0 0 53.69 73.41
  C 53.11 76.03 53.48 79.65 56.76 79.51
  C 59.88 79.38 59.64 81.99 62.25 81.98
  Z
  M 53.5991 69.7162
  A 1.03 0.79 -160.5 0 0 54.3063 70.8047
  A 1.03 0.79 -160.5 0 0 55.5409 70.4038
  A 1.03 0.79 -160.5 0 0 54.8337 69.3153
  A 1.03 0.79 -160.5 0 0 53.5991 69.7162
  Z
  M 52.8947 80.2795
  A 1.16 0.96 -106.8 0 0 52.3110 81.6675
  A 1.16 0.96 -106.8 0 0 53.5653 82.5005
  A 1.16 0.96 -106.8 0 0 54.1490 81.1125
  A 1.16 0.96 -106.8 0 0 52.8947 80.2795
  Z
  M 71.0902 80.1594
  A 1.37 0.98 -96.7 0 0 70.2767 81.6343
  A 1.37 0.98 -96.7 0 0 71.4098 82.8806
  A 1.37 0.98 -96.7 0 0 72.2233 81.4057
  A 1.37 0.98 -96.7 0 0 71.0902 80.1594
  Z
  M 65.0700 83.2662
  A 1.19 0.93 -180.3 0 0 66.2649 84.1900
  A 1.19 0.93 -180.3 0 0 67.4500 83.2538
  A 1.19 0.93 -180.3 0 0 66.2551 82.3300
  A 1.19 0.93 -180.3 0 0 65.0700 83.2662
  Z
  M 57.1710 83.1084
  A 1.05 0.82 -171.7 0 0 58.0916 84.0714
  A 1.05 0.82 -171.7 0 0 59.2490 83.4116
  A 1.05 0.82 -171.7 0 0 58.3284 82.4486
  A 1.05 0.82 -171.7 0 0 57.1710 83.1084
  Z
  M 59.00 87.07
  A 0.20 0.19 -50.8 0 0 58.97 86.72
  Q 58.23 86.47 57.42 87.37
  A 0.74 0.74 0.0 0 1 56.37 87.42
  Q 52.18 83.62 47.87 82.56
  A 0.53 0.53 0.0 0 0 47.42 83.49
  L 54.38 88.84
  A 1.26 1.25 48.4 0 0 55.77 88.93
  L 59.00 87.07
  Z
  M 77.00 83.32
  A 0.36 0.35 -70.2 0 0 76.71 82.70
  Q 72.06 83.55 68.40 87.32
  A 0.96 0.96 0.0 0 0 68.70 88.87
  L 68.75 88.89
  A 2.22 2.21 34.4 0 0 70.90 88.49
  L 77.00 83.32
  Z
  M 65.5604 86.9392
  A 0.81 0.64 -167.1 0 0 66.2071 87.7438
  A 0.81 0.64 -167.1 0 0 67.1396 87.3008
  A 0.81 0.64 -167.1 0 0 66.4929 86.4962
  A 0.81 0.64 -167.1 0 0 65.5604 86.9392
  Z
  M 31.06 96.31
  A 0.51 0.51 0.0 0 0 31.26 97.06
  C 36.62 99.51 44.83 94.79 48.99 91.12
  A 1.26 1.26 0.0 0 0 49.04 89.26
  L 48.99 89.22
  A 1.52 1.52 0.0 0 0 46.94 89.18
  Q 40.86 94.52 31.50 96.04
  Q 31.20 96.09 31.06 96.31
  Z
  M 93.60 96.32
  Q 93.45 96.10 93.15 96.05
  Q 83.69 94.52 77.54 89.12
  A 1.54 1.53 43.6 0 0 75.47 89.17
  L 75.42 89.21
  A 1.28 1.27 -46.6 0 0 75.47 91.09
  C 79.68 94.79 87.98 99.56 93.39 97.08
  A 0.52 0.51 60.7 0 0 93.60 96.32
  Z
  M 62.24 101.87
  C 65.57 101.86 67.88 100.07 70.42 98.89
  A 2.21 2.14 -51.9 0 1 71.70 98.71
  L 74.31 99.14
  A 1.79 1.79 0.0 0 0 75.84 96.09
  C 72.74 93.11 66.57 89.08 62.21 89.09
  C 57.86 89.10 51.70 93.15 48.61 96.15
  A 1.79 1.79 0.0 0 0 50.16 99.19
  L 52.77 98.75
  A 2.21 2.14 51.7 0 1 54.05 98.92
  C 56.59 100.09 58.91 101.87 62.24 101.87
  Z"
/>
<path fill="#e3e1e4" d="
  M 62.34 1.92
  Q 68.93 1.96 69.75 2.05
  Q 81.51 3.34 91.99 9.63
  A 1.71 1.68 16.8 0 1 92.82 11.15
  L 92.81 11.26
  A 0.65 0.64 15.5 0 1 91.85 11.80
  C 82.38 6.56 72.95 3.76 62.33 3.71
  C 51.72 3.65 42.26 6.35 32.73 11.49
  A 0.65 0.64 -14.9 0 1 31.78 10.94
  L 31.77 10.83
  A 1.71 1.68 -16.2 0 1 32.62 9.32
  Q 43.16 3.14 54.94 1.97
  Q 55.76 1.89 62.34 1.92
  Z"
/>
<path fill="#f6f6f6" d="
  M 95.57 3.72
  Q 96.35 3.71 96.90 4.63
  Q 104.00 16.72 99.70 28.33
  C 97.15 35.22 91.93 40.90 85.56 44.75
  C 81.37 47.28 73.60 49.14 71.68 42.91
  C 69.96 37.36 73.29 30.25 80.22 34.56
  A 2.08 2.07 -45.9 0 0 82.46 34.52
  Q 91.01 28.80 94.14 20.24
  C 95.92 15.35 95.59 9.83 95.16 4.17
  A 0.42 0.41 -3.2 0 1 95.57 3.72
  Z"
/>
<path fill="#f6f6f6" d="
  M 28.88 3.63
  A 0.42 0.41 3.2 0 1 29.29 4.08
  C 28.86 9.75 28.53 15.28 30.32 20.17
  Q 33.46 28.74 42.02 34.47
  A 2.08 2.07 45.9 0 0 44.27 34.51
  C 51.20 30.19 54.54 37.30 52.82 42.86
  C 50.90 49.10 43.12 47.24 38.93 44.71
  C 32.54 40.86 27.31 35.18 24.76 28.28
  Q 20.44 16.65 27.55 4.54
  Q 28.10 3.62 28.88 3.63
  Z"
/>
<path fill="#6d6e6e" d="
  M 62.30 7.05
  C 72.78 7.08 81.78 9.46 90.99 15.00
  A 1.76 1.74 15.8 0 1 91.83 16.49
  L 91.83 19.42
  A 1.49 1.49 0.0 0 1 89.43 20.60
  C 82.05 14.85 71.65 12.21 62.29 12.19
  C 52.93 12.16 42.51 14.73 35.09 20.43
  A 1.49 1.49 0.0 0 1 32.70 19.24
  L 32.72 16.31
  A 1.76 1.74 -15.4 0 1 33.57 14.82
  C 42.81 9.34 51.83 7.02 62.30 7.05
  Z"
/>
<path fill="#e3e1e4" d="
  M 61.49 120.38
  C 72.84 120.48 84.70 116.84 94.27 110.42
  Q 109.19 100.41 115.88 84.01
  C 124.69 62.40 119.97 39.55 104.55 22.11
  A 1.53 1.53 0.0 0 1 104.38 20.35
  L 104.53 20.09
  A 0.60 0.60 0.0 0 1 105.48 19.98
  Q 118.42 33.49 121.66 51.46
  C 122.67 57.01 122.39 64.96 122.04 69.76
  Q 121.68 74.81 119.52 81.05
  C 113.26 99.17 99.59 113.18 81.27 119.35
  C 73.89 121.84 68.74 122.46 61.47 122.40
  C 54.20 122.33 49.07 121.62 41.74 119.00
  C 23.52 112.51 10.10 98.26 4.17 80.03
  Q 2.12 73.75 1.85 68.70
  C 1.58 63.89 1.44 55.94 2.55 50.41
  Q 6.11 32.50 19.28 19.22
  A 0.60 0.60 0.0 0 1 20.23 19.34
  L 20.38 19.61
  A 1.53 1.53 0.0 0 1 20.18 21.36
  C 4.45 38.53 -0.67 61.29 7.75 83.05
  Q 14.15 99.57 28.89 109.84
  C 38.34 116.43 50.15 120.28 61.49 120.38
  Z"
/>
<path fill="#6d6e6e" d="
  M 62.37 116.37
  Q 58.59 116.38 58.25 116.36
  C 39.89 115.01 23.78 104.62 14.63 88.86
  Q 7.56 76.68 7.51 61.38
  Q 7.44 43.10 19.53 27.10
  A 1.12 1.12 0.0 0 1 21.50 27.45
  L 22.38 30.35
  A 3.24 3.21 -35.5 0 1 21.89 33.18
  C 7.88 52.32 10.34 79.09 26.53 95.92
  C 36.19 105.96 48.38 111.09 62.36 111.07
  C 76.33 111.04 88.50 105.86 98.12 95.78
  C 114.25 78.89 116.60 52.11 102.52 33.02
  A 3.24 3.21 35.2 0 1 102.02 30.19
  L 102.89 27.29
  A 1.12 1.12 0.0 0 1 104.85 26.93
  Q 117.01 42.89 117.01 61.17
  Q 117.02 76.47 109.99 88.67
  C 100.91 104.47 84.84 114.92 66.48 116.34
  Q 66.14 116.37 62.37 116.37
  Z"
/>
<path fill="#f6f6f6" d="
  M 61.33 54.23
  L 61.33 60.50
  A 1.87 1.86 -84.3 0 1 59.10 62.33
  Q 56.64 61.84 56.83 58.33
  A 0.96 0.95 -25.1 0 1 57.01 57.84
  Q 57.42 57.28 59.28 57.74
  A 0.49 0.49 0.0 0 0 59.89 57.31
  Q 60.08 54.76 60.58 54.00
  A 0.41 0.41 0.0 0 1 61.33 54.23
  Z"
/>
<path fill="#f6f6f6" d="
  M 66.90 57.46
  A 0.89 0.89 0.0 0 1 67.70 58.43
  L 67.54 60.00
  A 2.67 2.03 -84.3 0 1 65.25 62.46
  L 65.04 62.44
  A 2.67 2.03 -84.3 0 1 63.28 59.58
  L 63.44 58.01
  A 0.89 0.89 0.0 0 1 64.41 57.21
  L 66.90 57.46
  Z"
/>
<path fill="#f6f6f6" d="
  M 52.57 70.38
  L 49.76 75.24
  A 0.31 0.31 0.0 0 1 49.30 75.33
  L 46.62 73.28
  A 1.72 1.70 -40.0 0 0 44.77 73.13
  L 41.85 74.71
  A 1.68 1.66 28.2 0 1 41.21 74.90
  C 33.90 75.59 33.31 61.99 41.22 61.88
  A 2.12 2.11 -15.3 0 1 43.09 62.94
  C 45.61 67.35 46.01 69.71 52.07 69.54
  A 0.56 0.56 0.0 0 1 52.57 70.38
  Z"
/>
<path fill="#f6f6f6" d="
  M 75.69 75.06
  A 1.04 1.04 0.0 0 1 73.98 74.41
  Q 73.25 69.25 69.63 70.62
  A 0.69 0.67 -88.3 0 1 68.79 69.70
  Q 68.87 69.53 69.08 69.46
  Q 69.34 69.38 69.46 69.39
  C 73.33 69.79 77.15 70.10 79.30 66.81
  Q 79.58 66.39 81.56 62.93
  A 2.15 2.15 0.0 0 1 83.68 61.87
  C 89.29 62.57 89.85 68.51 87.94 72.66
  A 2.43 2.35 80.8 0 1 87.46 73.35
  C 84.48 76.37 82.12 74.35 79.20 72.81
  A 0.87 0.87 0.0 0 0 78.23 72.91
  L 75.69 75.06
  Z"
/>
<ellipse fill="#e3e1e4" cx="0.00" cy="0.00" transform="translate(53.53,64.23) rotate(-121.8)" rx="0.98" ry="0.83"/>
<circle fill="#e3e1e4" cx="70.71" cy="64.37" r="0.82"/>
<path fill="#f6f6f6" d="
  M 62.19 64.97
  Q 62.54 64.97 62.90 65.11
  Q 64.14 65.57 65.47 66.14
  A 0.82 0.82 0.0 0 1 65.94 67.05
  C 65.29 70.15 64.39 72.17 66.40 75.02
  A 1.05 1.04 -49.4 0 0 68.19 74.88
  Q 68.82 73.64 69.98 73.01
  A 0.53 0.53 0.0 0 1 70.75 73.36
  C 71.34 75.97 71.00 79.59 67.72 79.48
  C 64.60 79.37 64.85 81.97 62.25 81.98
  C 59.64 81.99 59.88 79.38 56.76 79.51
  C 53.48 79.65 53.11 76.03 53.69 73.41
  A 0.53 0.53 0.0 0 1 54.45 73.06
  Q 55.62 73.68 56.26 74.92
  A 1.05 1.04 49.1 0 0 58.05 75.05
  C 60.04 72.18 59.13 70.17 58.46 67.07
  A 0.82 0.82 0.0 0 1 58.92 66.16
  Q 60.25 65.58 61.48 65.11
  Q 61.84 64.97 62.19 64.97
  Z"
/>
<ellipse fill="#f6f6f6" cx="0.00" cy="0.00" transform="translate(54.57,70.06) rotate(-160.5)" rx="1.03" ry="0.79"/>
<ellipse fill="#f6f6f6" cx="0.00" cy="0.00" transform="translate(53.23,81.39) rotate(-106.8)" rx="1.16" ry="0.96"/>
<ellipse fill="#f6f6f6" cx="0.00" cy="0.00" transform="translate(71.25,81.52) rotate(-96.7)" rx="1.37" ry="0.98"/>
<ellipse fill="#f6f6f6" cx="0.00" cy="0.00" transform="translate(66.26,83.26) rotate(-180.3)" rx="1.19" ry="0.93"/>
<ellipse fill="#f6f6f6" cx="0.00" cy="0.00" transform="translate(58.21,83.26) rotate(-171.7)" rx="1.05" ry="0.82"/>
<path fill="#f6f6f6" d="
  M 59.00 87.07
  L 55.77 88.93
  A 1.26 1.25 48.4 0 1 54.38 88.84
  L 47.42 83.49
  A 0.53 0.53 0.0 0 1 47.87 82.56
  Q 52.18 83.62 56.37 87.42
  A 0.74 0.74 0.0 0 0 57.42 87.37
  Q 58.23 86.47 58.97 86.72
  A 0.20 0.19 -50.8 0 1 59.00 87.07
  Z"
/>
<path fill="#f6f6f6" d="
  M 77.00 83.32
  L 70.90 88.49
  A 2.22 2.21 34.4 0 1 68.75 88.89
  L 68.70 88.87
  A 0.96 0.96 0.0 0 1 68.40 87.32
  Q 72.06 83.55 76.71 82.70
  A 0.36 0.35 -70.2 0 1 77.00 83.32
  Z"
/>
<ellipse fill="#f6f6f6" cx="0.00" cy="0.00" transform="translate(66.35,87.12) rotate(-167.1)" rx="0.81" ry="0.64"/>
<path fill="#f6f6f6" d="
  M 31.06 96.31
  Q 31.20 96.09 31.50 96.04
  Q 40.86 94.52 46.94 89.18
  A 1.52 1.52 0.0 0 1 48.99 89.22
  L 49.04 89.26
  A 1.26 1.26 0.0 0 1 48.99 91.12
  C 44.83 94.79 36.62 99.51 31.26 97.06
  A 0.51 0.51 0.0 0 1 31.06 96.31
  Z"
/>
<path fill="#f6f6f6" d="
  M 93.60 96.32
  A 0.52 0.51 60.7 0 1 93.39 97.08
  C 87.98 99.56 79.68 94.79 75.47 91.09
  A 1.28 1.27 -46.6 0 1 75.42 89.21
  L 75.47 89.17
  A 1.54 1.53 43.6 0 1 77.54 89.12
  Q 83.69 94.52 93.15 96.05
  Q 93.45 96.10 93.60 96.32
  Z"
/>
<path fill="#f6f6f6" d="
  M 62.21 89.09
  C 66.57 89.08 72.74 93.11 75.84 96.09
  A 1.79 1.79 0.0 0 1 74.31 99.14
  L 71.70 98.71
  A 2.21 2.14 -51.9 0 0 70.42 98.89
  C 67.88 100.07 65.57 101.86 62.24 101.87
  C 58.91 101.87 56.59 100.09 54.05 98.92
  A 2.21 2.14 51.7 0 0 52.77 98.75
  L 50.16 99.19
  A 1.79 1.79 0.0 0 1 48.61 96.15
  C 51.70 93.15 57.86 89.10 62.21 89.09
  Z"
/>
</svg>
