<?xml version="1.0" encoding="UTF-8" standalone="no"?>
<!DOCTYPE svg PUBLIC "-//W3C//DTD SVG 1.1//EN" "http://www.w3.org/Graphics/SVG/1.1/DTD/svg11.dtd">
<svg xmlns="http://www.w3.org/2000/svg" version="1.1" viewBox="0.00 0.00 125.00 125.00">
<g stroke-width="2.00" fill="none" stroke-linecap="butt">
<path stroke="#706f6f" vector-effect="non-scaling-stroke" d="
  M 122.29 61.98
  A 60.29 60.29 0.0 0 0 62.00 1.69
  A 60.29 60.29 0.0 0 0 1.71 61.98
  A 60.29 60.29 0.0 0 0 62.00 122.27
  A 60.29 60.29 0.0 0 0 122.29 61.98"
/>
<path stroke="#706f6f" vector-effect="non-scaling-stroke" d="
  M 120.41 62.03
  A 58.42 58.42 0.0 0 0 61.99 3.61
  A 58.42 58.42 0.0 0 0 3.57 62.03
  A 58.42 58.42 0.0 0 0 61.99 120.45
  A 58.42 58.42 0.0 0 0 120.41 62.03"
/>
<path stroke="#313231" vector-effect="non-scaling-stroke" d="
  M 117.10 62.19
  A 54.82 54.82 0.0 0 0 62.28 7.37
  A 54.82 54.82 0.0 0 0 7.46 62.19
  A 54.82 54.82 0.0 0 0 62.28 117.01
  A 54.82 54.82 0.0 0 0 117.10 62.19"
/>
<path stroke="#313231" vector-effect="non-scaling-stroke" d="
  M 74.55 111.02
  L 86.46 106.04
  A 3.76 3.55 -73.2 0 0 87.16 105.64
  C 91.19 102.63 93.68 101.21 96.58 98.04
  C 101.80 92.33 106.60 85.76 108.93 78.58
  Q 110.62 73.34 110.84 72.38
  Q 113.49 60.62 110.17 49.07
  C 108.19 42.19 103.73 33.07 97.70 28.05
  Q 97.21 27.63 92.20 23.07
  C 83.43 15.08 72.47 12.63 60.82 12.43
  C 55.19 12.33 48.09 13.87 42.73 16.64
  Q 38.62 18.76 36.75 19.37
  A 7.04 7.00 -72.4 0 0 34.74 20.42
  Q 27.57 25.77 25.13 29.17
  C 21.58 34.11 18.56 37.68 16.70 42.19
  C 9.83 58.84 11.81 76.94 22.46 91.59
  C 26.06 96.55 30.82 100.61 35.84 104.41
  C 40.00 107.56 44.77 109.03 50.37 110.72
  Q 55.41 112.24 59.82 112.16
  Q 66.13 112.05 73.57 111.27
  A 3.35 3.32 30.4 0 0 74.55 111.02"
/>
<path stroke="#7d7d7d" vector-effect="non-scaling-stroke" d="
  M 61.32 60.02
  Q 55.11 62.99 51.39 63.61
  Q 46.50 64.41 44.28 63.62
  C 40.76 62.35 36.95 58.99 42.00 56.21
  A 0.91 0.91 0.0 0 1 43.24 57.45
  L 42.77 58.30
  A 1.61 1.61 0.0 0 0 44.25 60.69
  C 53.04 60.29 48.72 47.43 43.30 45.35
  Q 39.44 43.87 36.48 44.98
  Q 32.14 46.61 30.92 49.93
  C 29.43 53.97 28.31 58.35 26.46 59.39
  A 1.65 1.56 71.9 0 1 24.13 58.12
  C 23.33 52.44 26.42 46.88 28.94 40.93
  A 0.40 0.40 0.0 0 0 28.49 40.38
  Q 28.29 40.41 28.07 40.71
  Q 15.75 56.92 22.63 76.04
  Q 24.95 82.49 29.88 87.03
  A 1.12 1.11 -45.2 0 0 31.40 87.02
  Q 43.33 75.91 56.61 67.61
  Q 60.20 65.36 63.20 63.93
  Q 69.42 60.96 73.13 60.35
  Q 78.03 59.54 80.25 60.33
  C 83.77 61.60 87.58 64.96 82.53 67.74
  A 0.91 0.91 0.0 0 1 81.29 66.50
  L 81.76 65.65
  A 1.61 1.61 0.0 0 0 80.28 63.26
  C 71.49 63.66 75.81 76.52 81.23 78.60
  Q 85.09 80.08 88.05 78.97
  Q 92.39 77.34 93.61 74.02
  C 95.10 69.98 96.22 65.60 98.07 64.56
  A 1.65 1.56 71.9 0 1 100.40 65.83
  C 101.20 71.51 98.11 77.07 95.59 83.02
  A 0.40 0.40 0.0 0 0 96.04 83.57
  Q 96.24 83.54 96.46 83.24
  Q 108.78 67.03 101.90 47.91
  Q 99.58 41.46 94.65 36.92
  A 1.12 1.11 -45.2 0 0 93.13 36.93
  Q 81.20 48.04 67.92 56.35
  Q 64.33 58.59 61.32 60.02"
/>
</g>
<path fill="#0c0c0c" d="
  M 125.00 0.00
  L 125.00 125.00
  L 0.00 125.00
  L 0.00 0.00
  L 125.00 0.00
  Z
  M 122.29 61.98
  A 60.29 60.29 0.0 0 0 62.00 1.69
  A 60.29 60.29 0.0 0 0 1.71 61.98
  A 60.29 60.29 0.0 0 0 62.00 122.27
  A 60.29 60.29 0.0 0 0 122.29 61.98
  Z"
/>
<path fill="#d4d1d2" d="
  M 122.29 61.98
  A 60.29 60.29 0.0 0 1 62.00 122.27
  A 60.29 60.29 0.0 0 1 1.71 61.98
  A 60.29 60.29 0.0 0 1 62.00 1.69
  A 60.29 60.29 0.0 0 1 122.29 61.98
  Z
  M 120.41 62.03
  A 58.42 58.42 0.0 0 0 61.99 3.61
  A 58.42 58.42 0.0 0 0 3.57 62.03
  A 58.42 58.42 0.0 0 0 61.99 120.45
  A 58.42 58.42 0.0 0 0 120.41 62.03
  Z"
/>
<path fill="#0c0c0c" d="
  M 120.41 62.03
  A 58.42 58.42 0.0 0 1 61.99 120.45
  A 58.42 58.42 0.0 0 1 3.57 62.03
  A 58.42 58.42 0.0 0 1 61.99 3.61
  A 58.42 58.42 0.0 0 1 120.41 62.03
  Z
  M 117.10 62.19
  A 54.82 54.82 0.0 0 0 62.28 7.37
  A 54.82 54.82 0.0 0 0 7.46 62.19
  A 54.82 54.82 0.0 0 0 62.28 117.01
  A 54.82 54.82 0.0 0 0 117.10 62.19
  Z"
/>
<path fill="#565756" d="
  M 117.10 62.19
  A 54.82 54.82 0.0 0 1 62.28 117.01
  A 54.82 54.82 0.0 0 1 7.46 62.19
  A 54.82 54.82 0.0 0 1 62.28 7.37
  A 54.82 54.82 0.0 0 1 117.10 62.19
  Z
  M 74.55 111.02
  L 86.46 106.04
  A 3.76 3.55 -73.2 0 0 87.16 105.64
  C 91.19 102.63 93.68 101.21 96.58 98.04
  C 101.80 92.33 106.60 85.76 108.93 78.58
  Q 110.62 73.34 110.84 72.38
  Q 113.49 60.62 110.17 49.07
  C 108.19 42.19 103.73 33.07 97.70 28.05
  Q 97.21 27.63 92.20 23.07
  C 83.43 15.08 72.47 12.63 60.82 12.43
  C 55.19 12.33 48.09 13.87 42.73 16.64
  Q 38.62 18.76 36.75 19.37
  A 7.04 7.00 -72.4 0 0 34.74 20.42
  Q 27.57 25.77 25.13 29.17
  C 21.58 34.11 18.56 37.68 16.70 42.19
  C 9.83 58.84 11.81 76.94 22.46 91.59
  C 26.06 96.55 30.82 100.61 35.84 104.41
  C 40.00 107.56 44.77 109.03 50.37 110.72
  Q 55.41 112.24 59.82 112.16
  Q 66.13 112.05 73.57 111.27
  A 3.35 3.32 30.4 0 0 74.55 111.02
  Z"
/>
<path fill="#0c0c0c" d="
  M 73.57 111.27
  Q 66.13 112.05 59.82 112.16
  Q 55.41 112.24 50.37 110.72
  C 44.77 109.03 40.00 107.56 35.84 104.41
  C 30.82 100.61 26.06 96.55 22.46 91.59
  C 11.81 76.94 9.83 58.84 16.70 42.19
  C 18.56 37.68 21.58 34.11 25.13 29.17
  Q 27.57 25.77 34.74 20.42
  A 7.04 7.00 -72.4 0 1 36.75 19.37
  Q 38.62 18.76 42.73 16.64
  C 48.09 13.87 55.19 12.33 60.82 12.43
  C 72.47 12.63 83.43 15.08 92.20 23.07
  Q 97.21 27.63 97.70 28.05
  C 103.73 33.07 108.19 42.19 110.17 49.07
  Q 113.49 60.62 110.84 72.38
  Q 110.62 73.34 108.93 78.58
  C 106.60 85.76 101.80 92.33 96.58 98.04
  C 93.68 101.21 91.19 102.63 87.16 105.64
  A 3.76 3.55 -73.2 0 1 86.46 106.04
  L 74.55 111.02
  A 3.35 3.32 30.4 0 1 73.57 111.27
  Z
  M 61.32 60.02
  Q 55.11 62.99 51.39 63.61
  Q 46.50 64.41 44.28 63.62
  C 40.76 62.35 36.95 58.99 42.00 56.21
  A 0.91 0.91 0.0 0 1 43.24 57.45
  L 42.77 58.30
  A 1.61 1.61 0.0 0 0 44.25 60.69
  C 53.04 60.29 48.72 47.43 43.30 45.35
  Q 39.44 43.87 36.48 44.98
  Q 32.14 46.61 30.92 49.93
  C 29.43 53.97 28.31 58.35 26.46 59.39
  A 1.65 1.56 71.9 0 1 24.13 58.12
  C 23.33 52.44 26.42 46.88 28.94 40.93
  A 0.40 0.40 0.0 0 0 28.49 40.38
  Q 28.29 40.41 28.07 40.71
  Q 15.75 56.92 22.63 76.04
  Q 24.95 82.49 29.88 87.03
  A 1.12 1.11 -45.2 0 0 31.40 87.02
  Q 43.33 75.91 56.61 67.61
  Q 60.20 65.36 63.20 63.93
  Q 69.42 60.96 73.13 60.35
  Q 78.03 59.54 80.25 60.33
  C 83.77 61.60 87.58 64.96 82.53 67.74
  A 0.91 0.91 0.0 0 1 81.29 66.50
  L 81.76 65.65
  A 1.61 1.61 0.0 0 0 80.28 63.26
  C 71.49 63.66 75.81 76.52 81.23 78.60
  Q 85.09 80.08 88.05 78.97
  Q 92.39 77.34 93.61 74.02
  C 95.10 69.98 96.22 65.60 98.07 64.56
  A 1.65 1.56 71.9 0 1 100.40 65.83
  C 101.20 71.51 98.11 77.07 95.59 83.02
  A 0.40 0.40 0.0 0 0 96.04 83.57
  Q 96.24 83.54 96.46 83.24
  Q 108.78 67.03 101.90 47.91
  Q 99.58 41.46 94.65 36.92
  A 1.12 1.11 -45.2 0 0 93.13 36.93
  Q 81.20 48.04 67.92 56.35
  Q 64.33 58.59 61.32 60.02
  Z"
/>
<path fill="#eeeeee" d="
  M 63.20 63.93
  Q 60.20 65.36 56.61 67.61
  Q 43.33 75.91 31.40 87.02
  A 1.12 1.11 -45.2 0 1 29.88 87.03
  Q 24.95 82.49 22.63 76.04
  Q 15.75 56.92 28.07 40.71
  Q 28.29 40.41 28.49 40.38
  A 0.40 0.40 0.0 0 1 28.94 40.93
  C 26.42 46.88 23.33 52.44 24.13 58.12
  A 1.65 1.56 71.9 0 0 26.46 59.39
  C 28.31 58.35 29.43 53.97 30.92 49.93
  Q 32.14 46.61 36.48 44.98
  Q 39.44 43.87 43.30 45.35
  C 48.72 47.43 53.04 60.29 44.25 60.69
  A 1.61 1.61 0.0 0 1 42.77 58.30
  L 43.24 57.45
  A 0.91 0.91 0.0 0 0 42.00 56.21
  C 36.95 58.99 40.76 62.35 44.28 63.62
  Q 46.50 64.41 51.39 63.61
  Q 55.11 62.99 61.32 60.02
  Q 64.33 58.59 67.92 56.35
  Q 81.20 48.04 93.13 36.93
  A 1.12 1.11 -45.2 0 1 94.65 36.92
  Q 99.58 41.46 101.90 47.91
  Q 108.78 67.03 96.46 83.24
  Q 96.24 83.54 96.04 83.57
  A 0.40 0.40 0.0 0 1 95.59 83.02
  C 98.11 77.07 101.20 71.51 100.40 65.83
  A 1.65 1.56 71.9 0 0 98.07 64.56
  C 96.22 65.60 95.10 69.98 93.61 74.02
  Q 92.39 77.34 88.05 78.97
  Q 85.09 80.08 81.23 78.60
  C 75.81 76.52 71.49 63.66 80.28 63.26
  A 1.61 1.61 0.0 0 1 81.76 65.65
  L 81.29 66.50
  A 0.91 0.91 0.0 0 0 82.53 67.74
  C 87.58 64.96 83.77 61.60 80.25 60.33
  Q 78.03 59.54 73.13 60.35
  Q 69.42 60.96 63.20 63.93
  Z"
/>
</svg>
