<?xml version="1.0" encoding="UTF-8" standalone="no"?>
<!DOCTYPE svg PUBLIC "-//W3C//DTD SVG 1.1//EN" "http://www.w3.org/Graphics/SVG/1.1/DTD/svg11.dtd">
<svg xmlns="http://www.w3.org/2000/svg" version="1.1" viewBox="0.00 0.00 125.00 125.00">
<g stroke-width="2.00" fill="none" stroke-linecap="butt">
<path stroke="#717071" vector-effect="non-scaling-stroke" d="
  M 122.40 62.03
  A 60.37 60.37 0.0 0 0 62.03 1.66
  A 60.37 60.37 0.0 0 0 1.66 62.03
  A 60.37 60.37 0.0 0 0 62.03 122.40
  A 60.37 60.37 0.0 0 0 122.40 62.03"
/>
<path stroke="#717071" vector-effect="non-scaling-stroke" d="
  M 120.37 62.00
  A 58.36 58.36 0.0 0 0 62.01 3.64
  A 58.36 58.36 0.0 0 0 3.65 62.00
  A 58.36 58.36 0.0 0 0 62.01 120.36
  A 58.36 58.36 0.0 0 0 120.37 62.00"
/>
<path stroke="#323232" vector-effect="non-scaling-stroke" d="
  M 68.93 116.59
  C 72.08 115.98 74.61 115.85 77.84 114.71
  Q 89.89 110.47 99.00 102.41
  Q 107.73 94.69 111.75 85.96
  Q 116.64 75.35 117.00 65.76
  Q 117.98 39.49 98.76 20.74
  C 94.43 16.52 90.88 15.40 84.26 11.84
  C 81.31 10.26 78.41 9.71 75.59 8.69
  Q 71.35 7.16 65.74 6.99
  Q 48.94 6.51 34.63 14.36
  Q 22.97 20.77 16.15 32.11
  C 12.03 38.97 7.77 47.28 7.88 55.35
  Q 7.93 59.16 7.85 62.70
  Q 7.59 74.03 11.38 82.72
  Q 21.34 105.57 45.18 114.07
  C 50.78 116.07 55.28 116.33 61.13 116.73
  Q 66.41 117.08 68.93 116.59"
/>
<path stroke="#323232" vector-effect="non-scaling-stroke" d="
  M 111.85 61.87
  A 49.57 49.57 0.0 0 0 62.28 12.30
  A 49.57 49.57 0.0 0 0 12.71 61.87
  A 49.57 49.57 0.0 0 0 62.28 111.44
  A 49.57 49.57 0.0 0 0 111.85 61.87"
/>
<path stroke="#7e7e7e" vector-effect="non-scaling-stroke" d="
  M 42.29 44.57
  L 56.83 43.70
  A 0.57 0.57 0.0 0 1 57.43 44.30
  L 56.52 58.90
  A 0.41 0.41 0.0 0 0 56.91 59.33
  L 67.00 59.96
  A 1.01 1.00 -89.5 0 0 68.07 58.90
  L 67.21 44.63
  A 0.69 0.68 -89.0 0 1 67.96 43.90
  Q 71.45 44.24 76.25 44.16
  C 81.36 44.07 83.21 38.09 82.77 33.96
  A 0.80 0.80 0.0 0 0 81.93 33.25
  L 68.13 34.08
  A 0.78 0.78 0.0 0 1 67.31 33.27
  L 67.79 21.38
  A 1.59 1.58 31.4 0 0 67.58 20.52
  C 66.00 17.76 60.31 18.29 56.94 18.37
  A 0.22 0.22 0.0 0 0 56.72 18.60
  L 57.59 33.05
  A 0.77 0.76 89.0 0 1 56.81 33.87
  L 45.27 33.60
  A 1.73 1.72 -65.7 0 0 44.04 34.07
  C 41.37 36.61 41.62 40.12 41.78 44.11
  A 0.48 0.48 0.0 0 0 42.29 44.57"
/>
<path stroke="#7e7e7e" vector-effect="non-scaling-stroke" d="
  M 50.40 76.71
  Q 50.67 74.74 52.17 73.30
  A 1.42 1.39 29.2 0 1 53.48 72.94
  Q 55.64 73.44 55.51 72.47
  A 0.84 0.63 81.6 0 0 54.76 71.72
  Q 52.41 72.09 49.09 71.79
  C 45.73 71.48 44.12 67.11 42.42 64.81
  A 2.03 2.02 61.2 0 0 40.06 64.12
  Q 35.42 65.94 35.68 71.21
  Q 35.94 76.66 40.82 77.04
  A 1.65 1.65 0.0 0 0 41.81 76.82
  L 45.06 74.94
  A 0.68 0.66 -44.2 0 1 45.71 74.94
  L 49.52 77.14
  A 0.59 0.59 0.0 0 0 50.40 76.71"
/>
<path stroke="#7e7e7e" vector-effect="non-scaling-stroke" d="
  M 74.21 76.66
  A 0.59 0.59 0.0 0 0 75.09 77.09
  L 78.86 74.90
  A 0.67 0.66 44.1 0 1 79.51 74.90
  L 82.74 76.75
  A 1.64 1.63 57.3 0 0 83.72 76.97
  Q 88.56 76.58 88.81 71.18
  Q 89.06 65.95 84.45 64.15
  A 2.01 2.00 -61.3 0 0 82.11 64.84
  C 80.42 67.12 78.84 71.46 75.50 71.78
  Q 72.21 72.08 69.88 71.72
  A 0.84 0.62 -81.7 0 0 69.13 72.46
  Q 69.01 73.43 71.15 72.93
  A 1.41 1.38 -29.3 0 1 72.45 73.28
  Q 73.94 74.71 74.21 76.66"
/>
<path stroke="#7e7e7e" vector-effect="non-scaling-stroke" d="
  M 54.2690 66.1239
  A 0.96 0.82 -41.5 0 0 53.0067 66.1459
  A 0.96 0.82 -41.5 0 0 52.8310 67.3961
  A 0.96 0.82 -41.5 0 0 54.0933 67.3741
  A 0.96 0.82 -41.5 0 0 54.2690 66.1239"
/>
<path stroke="#7e7e7e" vector-effect="non-scaling-stroke" d="
  M 71.6175 66.5481
  A 0.93 0.66 -9.4 0 0 70.5922 66.0489
  A 0.93 0.66 -9.4 0 0 69.7825 66.8519
  A 0.93 0.66 -9.4 0 0 70.8078 67.3511
  A 0.93 0.66 -9.4 0 0 71.6175 66.5481"
/>
<path stroke="#7e7e7e" vector-effect="non-scaling-stroke" d="
  M 62.28 84.22
  Q 62.63 84.22 63.17 84.05
  Q 63.74 83.87 63.97 83.49
  Q 65.25 81.38 67.77 81.41
  C 70.79 81.45 71.20 78.56 70.77 76.06
  A 0.82 0.82 0.0 0 0 69.20 75.90
  Q 68.29 78.19 66.91 77.71
  A 1.55 1.50 -2.7 0 1 66.06 76.96
  C 64.56 73.95 65.06 72.46 65.74 69.24
  A 0.75 0.73 -72.9 0 0 65.31 68.40
  Q 63.60 67.68 62.21 67.69
  Q 60.82 67.69 59.12 68.42
  A 0.75 0.73 72.4 0 0 58.69 69.27
  C 59.39 72.48 59.91 73.97 58.43 76.99
  A 1.55 1.50 2.2 0 1 57.59 77.75
  Q 56.21 78.24 55.28 75.96
  A 0.82 0.82 0.0 0 0 53.71 76.13
  C 53.31 78.63 53.74 81.52 56.76 81.45
  Q 59.28 81.40 60.58 83.50
  Q 60.81 83.88 61.38 84.06
  Q 61.92 84.22 62.28 84.22"
/>
<path stroke="#7e7e7e" vector-effect="non-scaling-stroke" d="
  M 54.40 83.66
  A 1.08 1.08 0.0 0 0 53.32 82.58
  A 1.08 1.08 0.0 0 0 52.24 83.66
  A 1.08 1.08 0.0 0 0 53.32 84.74
  A 1.08 1.08 0.0 0 0 54.40 83.66"
/>
<path stroke="#7e7e7e" vector-effect="non-scaling-stroke" d="
  M 70.7687 82.4755
  A 1.27 1.01 -107.0 0 0 70.1741 83.9853
  A 1.27 1.01 -107.0 0 0 71.5113 84.9045
  A 1.27 1.01 -107.0 0 0 72.1059 83.3947
  A 1.27 1.01 -107.0 0 0 70.7687 82.4755"
/>
<path stroke="#7e7e7e" vector-effect="non-scaling-stroke" d="
  M 57.1997 85.3014
  A 0.99 0.70 -160.0 0 0 57.8906 86.2978
  A 0.99 0.70 -160.0 0 0 59.0603 85.9786
  A 0.99 0.70 -160.0 0 0 58.3694 84.9822
  A 0.99 0.70 -160.0 0 0 57.1997 85.3014"
/>
<path stroke="#7e7e7e" vector-effect="non-scaling-stroke" d="
  M 65.23 86.04
  Q 65.41 86.55 66.53 86.42
  A 0.70 0.69 15.0 0 0 66.97 86.17
  Q 67.57 85.41 67.01 84.98
  A 1.13 1.03 11.6 0 0 65.23 86.04"
/>
<path stroke="#7e7e7e" vector-effect="non-scaling-stroke" d="
  M 47.73 85.97
  Q 50.88 87.64 53.58 90.77
  A 1.84 1.84 0.0 0 0 55.69 91.27
  L 55.87 91.20
  A 0.92 0.91 56.9 0 0 56.18 89.72
  C 54.24 87.70 50.48 84.88 47.78 85.54
  A 0.23 0.23 0.0 0 0 47.73 85.97"
/>
<path stroke="#7e7e7e" vector-effect="non-scaling-stroke" d="
  M 76.55 86.00
  A 0.23 0.22 -52.7 0 0 76.50 85.59
  C 73.87 84.98 70.26 87.76 68.40 89.74
  A 0.89 0.89 0.0 0 0 68.72 91.17
  L 68.89 91.24
  A 1.79 1.78 30.9 0 0 70.93 90.73
  Q 73.51 87.66 76.55 86.00"
/>
<path stroke="#7e7e7e" vector-effect="non-scaling-stroke" d="
  M 59.3512 89.0512
  A 1.23 0.44 -21.9 0 0 58.0459 89.1018
  A 1.23 0.44 -21.9 0 0 57.0688 89.9688
  A 1.23 0.44 -21.9 0 0 58.3741 89.9182
  A 1.23 0.44 -21.9 0 0 59.3512 89.0512"
/>
<path stroke="#7e7e7e" vector-effect="non-scaling-stroke" d="
  M 65.3324 89.1094
  A 1.07 0.66 -162.0 0 0 66.1460 90.0677
  A 1.07 0.66 -162.0 0 0 67.3676 89.7706
  A 1.07 0.66 -162.0 0 0 66.5540 88.8123
  A 1.07 0.66 -162.0 0 0 65.3324 89.1094"
/>
<path stroke="#7e7e7e" vector-effect="non-scaling-stroke" d="
  M 62.28 104.16
  C 65.37 104.16 66.76 103.13 69.58 101.22
  A 2.30 2.26 -59.7 0 1 71.00 100.84
  L 74.62 101.06
  A 1.52 1.52 0.0 0 0 75.73 98.41
  C 72.17 95.21 67.15 91.59 62.30 91.59
  C 57.45 91.58 52.42 95.18 48.85 98.37
  A 1.52 1.52 0.0 0 0 49.95 101.02
  L 53.57 100.81
  A 2.30 2.26 59.9 0 1 54.98 101.20
  C 57.80 103.12 59.19 104.15 62.28 104.16"
/>
</g>
<path fill="#0a0a0a" d="
  M 125.00 0.00
  L 125.00 125.00
  L 0.00 125.00
  L 0.00 0.00
  L 125.00 0.00
  Z
  M 122.40 62.03
  A 60.37 60.37 0.0 0 0 62.03 1.66
  A 60.37 60.37 0.0 0 0 1.66 62.03
  A 60.37 60.37 0.0 0 0 62.03 122.40
  A 60.37 60.37 0.0 0 0 122.40 62.03
  Z"
/>
<path fill="#d8d5d8" d="
  M 122.40 62.03
  A 60.37 60.37 0.0 0 1 62.03 122.40
  A 60.37 60.37 0.0 0 1 1.66 62.03
  A 60.37 60.37 0.0 0 1 62.03 1.66
  A 60.37 60.37 0.0 0 1 122.40 62.03
  Z
  M 120.37 62.00
  A 58.36 58.36 0.0 0 0 62.01 3.64
  A 58.36 58.36 0.0 0 0 3.65 62.00
  A 58.36 58.36 0.0 0 0 62.01 120.36
  A 58.36 58.36 0.0 0 0 120.37 62.00
  Z"
/>
<path fill="#0a0a0a" d="
  M 120.37 62.00
  A 58.36 58.36 0.0 0 1 62.01 120.36
  A 58.36 58.36 0.0 0 1 3.65 62.00
  A 58.36 58.36 0.0 0 1 62.01 3.64
  A 58.36 58.36 0.0 0 1 120.37 62.00
  Z
  M 68.93 116.59
  C 72.08 115.98 74.61 115.85 77.84 114.71
  Q 89.89 110.47 99.00 102.41
  Q 107.73 94.69 111.75 85.96
  Q 116.64 75.35 117.00 65.76
  Q 117.98 39.49 98.76 20.74
  C 94.43 16.52 90.88 15.40 84.26 11.84
  C 81.31 10.26 78.41 9.71 75.59 8.69
  Q 71.35 7.16 65.74 6.99
  Q 48.94 6.51 34.63 14.36
  Q 22.97 20.77 16.15 32.11
  C 12.03 38.97 7.77 47.28 7.88 55.35
  Q 7.93 59.16 7.85 62.70
  Q 7.59 74.03 11.38 82.72
  Q 21.34 105.57 45.18 114.07
  C 50.78 116.07 55.28 116.33 61.13 116.73
  Q 66.41 117.08 68.93 116.59
  Z"
/>
<path fill="#595a59" d="
  M 68.93 116.59
  Q 66.41 117.08 61.13 116.73
  C 55.28 116.33 50.78 116.07 45.18 114.07
  Q 21.34 105.57 11.38 82.72
  Q 7.59 74.03 7.85 62.70
  Q 7.93 59.16 7.88 55.35
  C 7.77 47.28 12.03 38.97 16.15 32.11
  Q 22.97 20.77 34.63 14.36
  Q 48.94 6.51 65.74 6.99
  Q 71.35 7.16 75.59 8.69
  C 78.41 9.71 81.31 10.26 84.26 11.84
  C 90.88 15.40 94.43 16.52 98.76 20.74
  Q 117.98 39.49 117.00 65.76
  Q 116.64 75.35 111.75 85.96
  Q 107.73 94.69 99.00 102.41
  Q 89.89 110.47 77.84 114.71
  C 74.61 115.85 72.08 115.98 68.93 116.59
  Z
  M 111.85 61.87
  A 49.57 49.57 0.0 0 0 62.28 12.30
  A 49.57 49.57 0.0 0 0 12.71 61.87
  A 49.57 49.57 0.0 0 0 62.28 111.44
  A 49.57 49.57 0.0 0 0 111.85 61.87
  Z"
/>
<path fill="#0a0a0a" d="
  M 111.85 61.87
  A 49.57 49.57 0.0 0 1 62.28 111.44
  A 49.57 49.57 0.0 0 1 12.71 61.87
  A 49.57 49.57 0.0 0 1 62.28 12.30
  A 49.57 49.57 0.0 0 1 111.85 61.87
  Z
  M 42.29 44.57
  L 56.83 43.70
  A 0.57 0.57 0.0 0 1 57.43 44.30
  L 56.52 58.90
  A 0.41 0.41 0.0 0 0 56.91 59.33
  L 67.00 59.96
  A 1.01 1.00 -89.5 0 0 68.07 58.90
  L 67.21 44.63
  A 0.69 0.68 -89.0 0 1 67.96 43.90
  Q 71.45 44.24 76.25 44.16
  C 81.36 44.07 83.21 38.09 82.77 33.96
  A 0.80 0.80 0.0 0 0 81.93 33.25
  L 68.13 34.08
  A 0.78 0.78 0.0 0 1 67.31 33.27
  L 67.79 21.38
  A 1.59 1.58 31.4 0 0 67.58 20.52
  C 66.00 17.76 60.31 18.29 56.94 18.37
  A 0.22 0.22 0.0 0 0 56.72 18.60
  L 57.59 33.05
  A 0.77 0.76 89.0 0 1 56.81 33.87
  L 45.27 33.60
  A 1.73 1.72 -65.7 0 0 44.04 34.07
  C 41.37 36.61 41.62 40.12 41.78 44.11
  A 0.48 0.48 0.0 0 0 42.29 44.57
  Z
  M 50.40 76.71
  Q 50.67 74.74 52.17 73.30
  A 1.42 1.39 29.2 0 1 53.48 72.94
  Q 55.64 73.44 55.51 72.47
  A 0.84 0.63 81.6 0 0 54.76 71.72
  Q 52.41 72.09 49.09 71.79
  C 45.73 71.48 44.12 67.11 42.42 64.81
  A 2.03 2.02 61.2 0 0 40.06 64.12
  Q 35.42 65.94 35.68 71.21
  Q 35.94 76.66 40.82 77.04
  A 1.65 1.65 0.0 0 0 41.81 76.82
  L 45.06 74.94
  A 0.68 0.66 -44.2 0 1 45.71 74.94
  L 49.52 77.14
  A 0.59 0.59 0.0 0 0 50.40 76.71
  Z
  M 74.21 76.66
  A 0.59 0.59 0.0 0 0 75.09 77.09
  L 78.86 74.90
  A 0.67 0.66 44.1 0 1 79.51 74.90
  L 82.74 76.75
  A 1.64 1.63 57.3 0 0 83.72 76.97
  Q 88.56 76.58 88.81 71.18
  Q 89.06 65.95 84.45 64.15
  A 2.01 2.00 -61.3 0 0 82.11 64.84
  C 80.42 67.12 78.84 71.46 75.50 71.78
  Q 72.21 72.08 69.88 71.72
  A 0.84 0.62 -81.7 0 0 69.13 72.46
  Q 69.01 73.43 71.15 72.93
  A 1.41 1.38 -29.3 0 1 72.45 73.28
  Q 73.94 74.71 74.21 76.66
  Z
  M 54.2690 66.1239
  A 0.96 0.82 -41.5 0 0 53.0067 66.1459
  A 0.96 0.82 -41.5 0 0 52.8310 67.3961
  A 0.96 0.82 -41.5 0 0 54.0933 67.3741
  A 0.96 0.82 -41.5 0 0 54.2690 66.1239
  Z
  M 71.6175 66.5481
  A 0.93 0.66 -9.4 0 0 70.5922 66.0489
  A 0.93 0.66 -9.4 0 0 69.7825 66.8519
  A 0.93 0.66 -9.4 0 0 70.8078 67.3511
  A 0.93 0.66 -9.4 0 0 71.6175 66.5481
  Z
  M 62.28 84.22
  Q 62.63 84.22 63.17 84.05
  Q 63.74 83.87 63.97 83.49
  Q 65.25 81.38 67.77 81.41
  C 70.79 81.45 71.20 78.56 70.77 76.06
  A 0.82 0.82 0.0 0 0 69.20 75.90
  Q 68.29 78.19 66.91 77.71
  A 1.55 1.50 -2.7 0 1 66.06 76.96
  C 64.56 73.95 65.06 72.46 65.74 69.24
  A 0.75 0.73 -72.9 0 0 65.31 68.40
  Q 63.60 67.68 62.21 67.69
  Q 60.82 67.69 59.12 68.42
  A 0.75 0.73 72.4 0 0 58.69 69.27
  C 59.39 72.48 59.91 73.97 58.43 76.99
  A 1.55 1.50 2.2 0 1 57.59 77.75
  Q 56.21 78.24 55.28 75.96
  A 0.82 0.82 0.0 0 0 53.71 76.13
  C 53.31 78.63 53.74 81.52 56.76 81.45
  Q 59.28 81.40 60.58 83.50
  Q 60.81 83.88 61.38 84.06
  Q 61.92 84.22 62.28 84.22
  Z
  M 54.40 83.66
  A 1.08 1.08 0.0 0 0 53.32 82.58
  A 1.08 1.08 0.0 0 0 52.24 83.66
  A 1.08 1.08 0.0 0 0 53.32 84.74
  A 1.08 1.08 0.0 0 0 54.40 83.66
  Z
  M 70.7687 82.4755
  A 1.27 1.01 -107.0 0 0 70.1741 83.9853
  A 1.27 1.01 -107.0 0 0 71.5113 84.9045
  A 1.27 1.01 -107.0 0 0 72.1059 83.3947
  A 1.27 1.01 -107.0 0 0 70.7687 82.4755
  Z
  M 57.1997 85.3014
  A 0.99 0.70 -160.0 0 0 57.8906 86.2978
  A 0.99 0.70 -160.0 0 0 59.0603 85.9786
  A 0.99 0.70 -160.0 0 0 58.3694 84.9822
  A 0.99 0.70 -160.0 0 0 57.1997 85.3014
  Z
  M 65.23 86.04
  Q 65.41 86.55 66.53 86.42
  A 0.70 0.69 15.0 0 0 66.97 86.17
  Q 67.57 85.41 67.01 84.98
  A 1.13 1.03 11.6 0 0 65.23 86.04
  Z
  M 47.73 85.97
  Q 50.88 87.64 53.58 90.77
  A 1.84 1.84 0.0 0 0 55.69 91.27
  L 55.87 91.20
  A 0.92 0.91 56.9 0 0 56.18 89.72
  C 54.24 87.70 50.48 84.88 47.78 85.54
  A 0.23 0.23 0.0 0 0 47.73 85.97
  Z
  M 76.55 86.00
  A 0.23 0.22 -52.7 0 0 76.50 85.59
  C 73.87 84.98 70.26 87.76 68.40 89.74
  A 0.89 0.89 0.0 0 0 68.72 91.17
  L 68.89 91.24
  A 1.79 1.78 30.9 0 0 70.93 90.73
  Q 73.51 87.66 76.55 86.00
  Z
  M 59.3512 89.0512
  A 1.23 0.44 -21.9 0 0 58.0459 89.1018
  A 1.23 0.44 -21.9 0 0 57.0688 89.9688
  A 1.23 0.44 -21.9 0 0 58.3741 89.9182
  A 1.23 0.44 -21.9 0 0 59.3512 89.0512
  Z
  M 65.3324 89.1094
  A 1.07 0.66 -162.0 0 0 66.1460 90.0677
  A 1.07 0.66 -162.0 0 0 67.3676 89.7706
  A 1.07 0.66 -162.0 0 0 66.5540 88.8123
  A 1.07 0.66 -162.0 0 0 65.3324 89.1094
  Z
  M 62.28 104.16
  C 65.37 104.16 66.76 103.13 69.58 101.22
  A 2.30 2.26 -59.7 0 1 71.00 100.84
  L 74.62 101.06
  A 1.52 1.52 0.0 0 0 75.73 98.41
  C 72.17 95.21 67.15 91.59 62.30 91.59
  C 57.45 91.58 52.42 95.18 48.85 98.37
  A 1.52 1.52 0.0 0 0 49.95 101.02
  L 53.57 100.81
  A 2.30 2.26 59.9 0 1 54.98 101.20
  C 57.80 103.12 59.19 104.15 62.28 104.16
  Z"
/>
<path fill="#f1f1f1" d="
  M 41.78 44.11
  C 41.62 40.12 41.37 36.61 44.04 34.07
  A 1.73 1.72 -65.7 0 1 45.27 33.60
  L 56.81 33.87
  A 0.77 0.76 89.0 0 0 57.59 33.05
  L 56.72 18.60
  A 0.22 0.22 0.0 0 1 56.94 18.37
  C 60.31 18.29 66.00 17.76 67.58 20.52
  A 1.59 1.58 31.4 0 1 67.79 21.38
  L 67.31 33.27
  A 0.78 0.78 0.0 0 0 68.13 34.08
  L 81.93 33.25
  A 0.80 0.80 0.0 0 1 82.77 33.96
  C 83.21 38.09 81.36 44.07 76.25 44.16
  Q 71.45 44.24 67.96 43.90
  A 0.69 0.68 -89.0 0 0 67.21 44.63
  L 68.07 58.90
  A 1.01 1.00 -89.5 0 1 67.00 59.96
  L 56.91 59.33
  A 0.41 0.41 0.0 0 1 56.52 58.90
  L 57.43 44.30
  A 0.57 0.57 0.0 0 0 56.83 43.70
  L 42.29 44.57
  A 0.48 0.48 0.0 0 1 41.78 44.11
  Z"
/>
<path fill="#f1f1f1" d="
  M 50.40 76.71
  A 0.59 0.59 0.0 0 1 49.52 77.14
  L 45.71 74.94
  A 0.68 0.66 -44.2 0 0 45.06 74.94
  L 41.81 76.82
  A 1.65 1.65 0.0 0 1 40.82 77.04
  Q 35.94 76.66 35.68 71.21
  Q 35.42 65.94 40.06 64.12
  A 2.03 2.02 61.2 0 1 42.42 64.81
  C 44.12 67.11 45.73 71.48 49.09 71.79
  Q 52.41 72.09 54.76 71.72
  A 0.84 0.63 81.6 0 1 55.51 72.47
  Q 55.64 73.44 53.48 72.94
  A 1.42 1.39 29.2 0 0 52.17 73.30
  Q 50.67 74.74 50.40 76.71
  Z"
/>
<path fill="#f1f1f1" d="
  M 74.21 76.66
  Q 73.94 74.71 72.45 73.28
  A 1.41 1.38 -29.3 0 0 71.15 72.93
  Q 69.01 73.43 69.13 72.46
  A 0.84 0.62 -81.7 0 1 69.88 71.72
  Q 72.21 72.08 75.50 71.78
  C 78.84 71.46 80.42 67.12 82.11 64.84
  A 2.01 2.00 -61.3 0 1 84.45 64.15
  Q 89.06 65.95 88.81 71.18
  Q 88.56 76.58 83.72 76.97
  A 1.64 1.63 57.3 0 1 82.74 76.75
  L 79.51 74.90
  A 0.67 0.66 44.1 0 0 78.86 74.90
  L 75.09 77.09
  A 0.59 0.59 0.0 0 1 74.21 76.66
  Z"
/>
<ellipse fill="#f1f1f1" cx="0.00" cy="0.00" transform="translate(53.55,66.76) rotate(-41.5)" rx="0.96" ry="0.82"/>
<ellipse fill="#f1f1f1" cx="0.00" cy="0.00" transform="translate(70.70,66.70) rotate(-9.4)" rx="0.93" ry="0.66"/>
<path fill="#f1f1f1" d="
  M 62.21 67.69
  Q 63.60 67.68 65.31 68.40
  A 0.75 0.73 -72.9 0 1 65.74 69.24
  C 65.06 72.46 64.56 73.95 66.06 76.96
  A 1.55 1.50 -2.7 0 0 66.91 77.71
  Q 68.29 78.19 69.20 75.90
  A 0.82 0.82 0.0 0 1 70.77 76.06
  C 71.20 78.56 70.79 81.45 67.77 81.41
  Q 65.25 81.38 63.97 83.49
  Q 63.74 83.87 63.17 84.05
  Q 62.63 84.22 62.28 84.22
  Q 61.92 84.22 61.38 84.06
  Q 60.81 83.88 60.58 83.50
  Q 59.28 81.40 56.76 81.45
  C 53.74 81.52 53.31 78.63 53.71 76.13
  A 0.82 0.82 0.0 0 1 55.28 75.96
  Q 56.21 78.24 57.59 77.75
  A 1.55 1.50 2.2 0 0 58.43 76.99
  C 59.91 73.97 59.39 72.48 58.69 69.27
  A 0.75 0.73 72.4 0 1 59.12 68.42
  Q 60.82 67.69 62.21 67.69
  Z"
/>
<circle fill="#f1f1f1" cx="53.32" cy="83.66" r="1.08"/>
<ellipse fill="#f1f1f1" cx="0.00" cy="0.00" transform="translate(71.14,83.69) rotate(-107.0)" rx="1.27" ry="1.01"/>
<ellipse fill="#f1f1f1" cx="0.00" cy="0.00" transform="translate(58.13,85.64) rotate(-160.0)" rx="0.99" ry="0.70"/>
<path fill="#f1f1f1" d="
  M 65.23 86.04
  A 1.13 1.03 11.6 0 1 67.01 84.98
  Q 67.57 85.41 66.97 86.17
  A 0.70 0.69 15.0 0 1 66.53 86.42
  Q 65.41 86.55 65.23 86.04
  Z"
/>
<path fill="#f1f1f1" d="
  M 47.78 85.54
  C 50.48 84.88 54.24 87.70 56.18 89.72
  A 0.92 0.91 56.9 0 1 55.87 91.20
  L 55.69 91.27
  A 1.84 1.84 0.0 0 1 53.58 90.77
  Q 50.88 87.64 47.73 85.97
  A 0.23 0.23 0.0 0 1 47.78 85.54
  Z"
/>
<path fill="#f1f1f1" d="
  M 76.55 86.00
  Q 73.51 87.66 70.93 90.73
  A 1.79 1.78 30.9 0 1 68.89 91.24
  L 68.72 91.17
  A 0.89 0.89 0.0 0 1 68.40 89.74
  C 70.26 87.76 73.87 84.98 76.50 85.59
  A 0.23 0.22 -52.7 0 1 76.55 86.00
  Z"
/>
<ellipse fill="#f1f1f1" cx="0.00" cy="0.00" transform="translate(58.21,89.51) rotate(-21.9)" rx="1.23" ry="0.44"/>
<ellipse fill="#f1f1f1" cx="0.00" cy="0.00" transform="translate(66.35,89.44) rotate(-162.0)" rx="1.07" ry="0.66"/>
<path fill="#f1f1f1" d="
  M 62.30 91.59
  C 67.15 91.59 72.17 95.21 75.73 98.41
  A 1.52 1.52 0.0 0 1 74.62 101.06
  L 71.00 100.84
  A 2.30 2.26 -59.7 0 0 69.58 101.22
  C 66.76 103.13 65.37 104.16 62.28 104.16
  C 59.19 104.15 57.80 103.12 54.98 101.20
  A 2.30 2.26 59.9 0 0 53.57 100.81
  L 49.95 101.02
  A 1.52 1.52 0.0 0 1 48.85 98.37
  C 52.42 95.18 57.45 91.58 62.30 91.59
  Z"
/>
</svg>
