<?xml version="1.0" encoding="UTF-8" standalone="no"?>
<!DOCTYPE svg PUBLIC "-//W3C//DTD SVG 1.1//EN" "http://www.w3.org/Graphics/SVG/1.1/DTD/svg11.dtd">
<svg xmlns="http://www.w3.org/2000/svg" version="1.1" viewBox="0.00 0.00 125.00 125.00">
<g stroke-width="2.00" fill="none" stroke-linecap="butt">
<path stroke="#808080" vector-effect="non-scaling-stroke" d="
  M 123.59 62.52
  A 60.59 60.59 0.0 0 0 63.00 1.93
  A 60.59 60.59 0.0 0 0 2.41 62.52
  A 60.59 60.59 0.0 0 0 63.00 123.11
  A 60.59 60.59 0.0 0 0 123.59 62.52"
/>
<path stroke="#bbbbbb" vector-effect="non-scaling-stroke" d="
  M 10.06 47.96
  Q 11.63 52.30 14.73 51.79"
/>
<path stroke="#808080" vector-effect="non-scaling-stroke" d="
  M 14.73 51.79
  L 23.91 52.13
  A 1.06 1.03 26.6 0 0 24.57 51.92
  C 27.98 49.33 27.48 46.71 27.74 43.76
  A 0.45 0.45 0.0 0 1 28.51 43.48
  C 31.07 46.01 31.32 49.75 28.99 52.57
  Q 27.45 54.43 27.32 54.61
  A 1.20 1.20 0.0 0 0 27.13 55.80
  L 29.60 62.22
  A 0.74 0.73 39.8 0 1 29.64 62.63
  L 29.38 64.15
  A 1.13 1.12 -55.2 0 0 29.51 64.90
  L 31.91 69.06
  A 0.34 0.33 70.8 0 1 31.67 69.56
  Q 30.19 69.77 30.81 71.44
  Q 31.66 73.76 33.52 75.53
  A 0.95 0.95 0.0 0 1 33.73 76.60
  Q 31.09 82.62 25.75 84.50
  A 0.63 0.63 0.0 0 0 25.34 85.20
  L 26.41 91.47
  A 0.55 0.55 0.0 0 1 25.49 91.95
  L 21.55 88.09"
/>
<path stroke="#bbbbbb" vector-effect="non-scaling-stroke" d="
  M 21.55 88.09
  L 10.46 75.35"
/>
<path stroke="#808080" vector-effect="non-scaling-stroke" d="
  M 10.46 75.35
  L 8.29 70.80
  A 0.75 0.73 -89.0 0 0 8.00 70.49
  L 6.46 69.60
  A 0.93 0.92 -60.1 0 1 6.12 68.33
  L 7.68 65.63
  A 1.33 1.24 59.8 0 0 7.84 64.93
  Q 7.66 61.68 9.15 57.30
  A 4.20 4.18 43.8 0 0 9.08 54.40
  L 7.33 49.99
  A 0.66 0.65 40.3 0 0 6.08 50.09
  C -0.28 79.29 16.72 109.16 45.55 118.02
  C 54.05 120.63 61.83 121.61 69.74 120.49
  Q 90.01 117.61 104.18 103.54
  Q 109.70 98.05 113.34 91.65
  Q 117.53 84.29 119.29 77.81
  Q 121.91 68.23 121.04 56.98
  Q 120.48 49.79 118.47 44.70
  C 116.86 40.60 115.61 37.07 113.55 33.57
  Q 102.55 14.88 81.78 7.37
  Q 62.01 0.23 41.83 8.37
  Q 20.28 17.06 10.22 37.74
  Q 8.90 40.46 8.45 42.56
  A 2.78 2.78 0.0 0 0 8.58 44.14
  L 10.06 47.96"
/>
<path stroke="#404141" vector-effect="non-scaling-stroke" d="
  M 10.46 75.35
  Q 10.73 78.93 11.36 80.57
  Q 20.69 104.66 43.91 113.89
  Q 51.23 116.80 58.48 117.10
  C 66.65 117.43 74.90 117.05 82.77 113.83
  Q 108.11 103.45 116.15 77.28
  Q 116.59 75.84 116.57 73.04"
/>
<path stroke="#808080" vector-effect="non-scaling-stroke" d="
  M 116.57 73.04
  L 117.75 70.77
  A 1.76 1.73 -81.5 0 1 118.96 69.86
  Q 119.24 69.81 119.74 69.63
  A 0.57 0.57 0.0 0 0 120.04 68.81
  L 118.17 65.57
  A 0.94 0.91 32.1 0 1 118.05 65.08
  Q 118.26 60.34 116.74 56.35
  A 2.41 2.40 45.7 0 1 116.76 54.58
  L 118.82 49.53
  A 3.32 3.30 45.4 0 0 118.83 47.04
  L 117.66 44.08
  A 0.59 0.58 67.9 0 0 116.89 43.75
  Q 116.57 43.88 116.27 44.14"
/>
<path stroke="#404141" vector-effect="non-scaling-stroke" d="
  M 116.27 44.14
  Q 115.14 45.06 114.25 42.63
  Q 113.39 40.28 113.16 39.80
  C 106.06 24.58 93.11 13.55 76.75 9.30
  C 71.12 7.83 63.81 7.75 58.74 7.98
  Q 46.64 8.52 35.52 15.13
  Q 17.61 25.76 10.99 45.99
  A 2.70 2.66 -33.3 0 0 10.88 46.50
  Q 10.69 48.60 10.06 47.96"
/>
<path stroke="#bbbbbb" vector-effect="non-scaling-stroke" d="
  M 116.27 44.14
  Q 117.18 48.80 113.00 51.73
  Q 112.38 52.16 110.45 51.85"
/>
<path stroke="#404141" vector-effect="non-scaling-stroke" d="
  M 110.45 51.85
  L 111.06 51.63
  A 0.77 0.77 0.0 0 0 111.53 50.70
  Q 105.14 28.07 85.16 18.05
  Q 74.08 12.50 62.23 13.03
  Q 34.36 14.27 20.00 38.03
  Q 16.69 43.50 14.73 51.79"
/>
<path stroke="#bbbbbb" vector-effect="non-scaling-stroke" d="
  M 116.57 73.04
  L 105.98 86.29"
/>
<path stroke="#808080" vector-effect="non-scaling-stroke" d="
  M 110.45 51.85
  L 102.06 52.07
  A 1.80 1.79 59.6 0 1 101.11 51.82
  C 98.68 50.39 98.19 47.39 98.13 44.62
  A 0.71 0.71 0.0 0 0 96.98 44.08
  Q 96.15 44.74 96.05 45.95
  C 95.76 49.48 95.83 51.90 98.29 54.38
  A 1.61 1.60 -54.2 0 1 98.58 56.22
  Q 96.47 60.49 96.48 64.08
  C 96.48 66.00 95.22 67.72 94.10 68.60
  Q 93.33 69.20 93.66 69.64
  Q 93.78 69.81 94.93 69.72
  A 0.69 0.68 -81.8 0 1 95.62 70.65
  Q 94.68 73.13 92.37 75.57
  A 1.02 1.02 0.0 0 0 92.19 76.71
  Q 94.84 82.45 100.26 84.59
  A 0.96 0.95 -70.8 0 1 100.82 85.77
  C 100.29 87.42 98.96 90.20 99.61 91.89
  A 0.63 0.62 -34.4 0 0 100.65 92.08
  L 105.98 86.29"
/>
<path stroke="#404141" vector-effect="non-scaling-stroke" d="
  M 105.98 86.29
  Q 106.98 86.76 105.60 88.84
  C 96.72 102.21 82.24 111.48 65.94 112.01
  Q 59.47 112.22 57.27 111.92
  Q 36.67 109.13 23.04 91.74
  Q 21.20 89.40 21.55 88.09"
/>
<path stroke="#bbbbbb" vector-effect="non-scaling-stroke" d="
  M 14.99 61.62
  A 0.97 0.97 0.0 0 0 14.02 60.65
  A 0.97 0.97 0.0 0 0 13.05 61.62
  A 0.97 0.97 0.0 0 0 14.02 62.59
  A 0.97 0.97 0.0 0 0 14.99 61.62"
/>
<path stroke="#bbbbbb" vector-effect="non-scaling-stroke" d="
  M 22.45 62.42
  A 1.07 1.07 0.0 0 0 21.38 61.35
  A 1.07 1.07 0.0 0 0 20.31 62.42
  A 1.07 1.07 0.0 0 0 21.38 63.49
  A 1.07 1.07 0.0 0 0 22.45 62.42"
/>
<path stroke="#808080" vector-effect="non-scaling-stroke" d="
  M 41.33 23.57
  A 0.65 0.65 0.0 0 0 40.13 23.29
  Q 34.27 32.98 39.80 42.56
  C 42.01 46.37 49.91 54.37 55.38 51.23
  C 57.33 50.11 57.31 47.57 57.20 45.75
  Q 57.02 42.74 54.09 42.05
  A 1.40 1.39 40.5 0 0 53.29 42.11
  L 50.56 43.19
  A 1.04 1.02 -37.5 0 1 49.56 43.07
  C 44.35 39.31 41.29 34.18 41.35 27.87
  Q 41.39 24.20 41.33 23.57"
/>
<path stroke="#808080" vector-effect="non-scaling-stroke" d="
  M 84.77 23.95
  Q 84.70 24.57 84.69 28.21
  C 84.66 34.46 81.55 39.50 76.33 43.15
  A 1.03 1.01 38.4 0 1 75.34 43.25
  L 72.65 42.14
  A 1.39 1.38 -39.6 0 0 71.86 42.07
  Q 68.95 42.71 68.73 45.69
  C 68.59 47.49 68.53 50.01 70.45 51.15
  C 75.82 54.34 83.77 46.53 86.01 42.78
  Q 91.63 33.37 85.96 23.69
  A 0.64 0.64 0.0 0 0 84.77 23.95"
/>
<path stroke="#808080" vector-effect="non-scaling-stroke" d="
  M 60.46 49.79
  Q 63.87 48.59 65.12 49.26
  A 0.88 0.88 0.0 0 0 66.40 48.63
  L 67.42 42.77
  A 1.12 1.11 87.7 0 0 66.05 41.50
  Q 62.78 42.33 59.34 41.36
  A 0.45 0.45 0.0 0 0 58.81 41.98
  Q 60.39 45.44 59.77 49.21
  A 0.53 0.52 -4.7 0 0 60.46 49.79"
/>
<path stroke="#808080" vector-effect="non-scaling-stroke" d="
  M 85.40 65.11
  L 88.15 66.70
  A 0.13 0.13 0.0 0 0 88.33 66.54
  L 82.64 52.17
  A 1.24 1.24 0.0 0 0 81.03 51.48
  L 75.86 53.52
  A 1.46 1.46 0.0 0 0 74.97 55.11
  L 75.61 58.82
  A 0.55 0.54 -5.5 0 0 76.16 59.27
  C 80.57 59.15 84.99 63.90 81.65 68.23
  Q 77.74 73.31 77.52 79.44
  A 2.25 2.24 5.9 0 0 79.39 81.73
  L 84.32 82.58
  A 1.15 1.15 0.0 0 1 84.80 84.64
  C 83.30 85.74 81.15 86.04 79.37 85.61
  Q 77.04 85.06 76.56 85.12
  A 1.10 1.09 12.6 0 0 75.75 85.63
  Q 74.42 87.72 72.69 88.22
  Q 70.04 88.97 63.05 90.65
  A 3.64 3.63 49.0 0 1 60.82 90.49
  Q 57.44 89.15 53.01 88.03
  Q 51.91 87.75 50.42 85.70
  A 1.27 1.25 76.3 0 0 49.59 85.19
  Q 48.73 85.06 46.60 85.57
  C 44.75 86.02 42.67 85.61 41.32 84.75
  A 1.20 1.20 0.0 0 1 41.77 82.56
  L 46.69 81.72
  A 2.73 2.73 0.0 0 0 48.94 78.76
  L 48.58 74.98
  A 4.26 4.21 27.1 0 0 47.99 73.19
  Q 47.13 71.73 45.79 70.38
  C 42.63 67.19 42.42 62.99 46.32 60.20
  C 47.52 59.35 48.98 59.46 50.27 59.23
  A 0.82 0.82 0.0 0 0 50.94 58.44
  Q 51.00 55.98 51.58 55.28
  A 0.81 0.81 0.0 0 0 51.31 54.04
  L 44.96 50.86
  A 1.02 1.02 0.0 0 0 43.52 51.47
  Q 41.20 59.18 37.58 65.90
  A 0.43 0.43 0.0 0 0 38.18 66.47
  L 40.16 65.33
  A 0.48 0.48 0.0 0 1 40.85 65.91
  Q 38.24 73.20 33.12 79.35
  Q 32.39 80.22 32.97 80.78
  A 0.59 0.58 -38.1 0 0 33.68 80.86
  L 37.08 78.90
  A 0.42 0.41 77.5 0 1 37.70 79.30
  C 37.21 85.00 33.34 90.34 29.32 94.36
  A 1.02 1.02 0.0 0 0 29.27 95.75
  Q 30.97 97.73 35.49 101.44
  C 44.11 108.54 58.83 112.32 69.48 110.17
  C 80.91 107.87 89.16 104.04 96.95 95.57
  A 0.81 0.81 0.0 0 0 96.89 94.41
  Q 90.15 88.43 88.10 79.23
  A 0.40 0.40 0.0 0 1 88.69 78.79
  L 92.57 81.03
  A 0.41 0.41 0.0 0 0 93.15 80.51
  Q 92.07 78.07 90.29 75.80
  C 87.68 72.46 86.07 68.69 85.03 65.40
  A 0.25 0.25 0.0 0 1 85.40 65.11"
/>
<path stroke="#808080" vector-effect="non-scaling-stroke" d="
  M 65.0666 57.6705
  A 2.07 1.56 -91.2 0 0 63.5503 59.7727
  A 2.07 1.56 -91.2 0 0 65.1534 61.8095
  A 2.07 1.56 -91.2 0 0 66.6697 59.7073
  A 2.07 1.56 -91.2 0 0 65.0666 57.6705"
/>
<path stroke="#808080" vector-effect="non-scaling-stroke" d="
  M 61.2520 57.6883
  A 2.03 1.40 -82.3 0 0 59.5926 59.5124
  A 2.03 1.40 -82.3 0 0 60.7080 61.7117
  A 2.03 1.40 -82.3 0 0 62.3674 59.8876
  A 2.03 1.40 -82.3 0 0 61.2520 57.6883"
/>
<path stroke="#808080" vector-effect="non-scaling-stroke" d="
  M 58.19 66.15
  A 0.16 0.15 -18.0 0 0 58.04 66.08
  Q 54.95 66.50 52.83 65.55
  A 1.12 1.10 -2.3 0 1 52.31 65.08
  L 50.60 62.12
  A 1.45 1.37 82.4 0 0 49.81 61.48
  Q 47.33 60.68 46.12 62.68
  C 43.65 66.78 46.95 72.58 51.48 68.72
  A 0.64 0.63 -49.9 0 1 52.22 68.65
  L 54.34 69.87
  A 0.85 0.85 0.0 0 0 55.61 69.18
  Q 55.72 67.01 58.06 67.44
  A 0.46 0.46 0.0 0 0 58.54 66.76
  L 58.19 66.15"
/>
<path stroke="#808080" vector-effect="non-scaling-stroke" d="
  M 68.28 68.40
  A 0.83 0.82 11.2 0 1 69.63 67.50
  Q 70.33 68.22 70.70 69.20
  A 1.00 1.00 0.0 0 0 72.14 69.71
  L 73.79 68.75
  A 0.64 0.64 0.0 0 1 74.47 68.78
  C 79.58 72.20 82.22 66.39 79.95 62.74
  Q 78.87 61.00 76.40 61.25
  A 1.13 1.13 0.0 0 0 75.57 61.77
  L 73.42 65.18
  A 1.02 0.99 0.8 0 1 73.04 65.54
  Q 71.33 66.55 68.70 66.10
  A 0.89 0.89 0.0 0 0 67.66 67.01
  Q 67.75 69.24 66.34 69.64
  A 1.16 0.89 86.5 0 1 65.24 68.37
  Q 65.41 65.42 65.31 64.60
  A 1.43 1.43 0.0 0 0 64.20 63.37
  Q 62.89 63.08 61.65 63.45
  A 1.27 1.27 0.0 0 0 60.74 64.73
  L 60.90 68.44
  A 1.18 1.17 0.9 0 1 59.63 69.66
  Q 59.53 69.65 58.99 69.32
  A 1.45 1.38 -75.2 0 0 56.88 70.62
  Q 56.89 71.13 57.53 71.92
  Q 57.94 72.42 58.73 72.63
  Q 60.85 73.22 62.48 74.55
  A 0.86 0.85 -44.7 0 0 63.55 74.55
  Q 65.35 73.13 68.16 72.22
  A 1.01 1.00 84.2 0 0 68.85 71.37
  Q 68.98 70.04 68.28 68.40"
/>
<path stroke="#808080" vector-effect="non-scaling-stroke" d="
  M 55.86 62.45
  Q 55.55 63.05 55.56 63.41
  A 0.49 0.41 -11.3 0 0 56.18 63.75
  Q 56.90 63.52 56.30 62.44
  A 0.25 0.25 0.0 0 0 55.86 62.45"
/>
<path stroke="#808080" vector-effect="non-scaling-stroke" d="
  M 70.44 63.02
  A 0.64 0.64 0.0 0 0 69.80 62.38
  A 0.64 0.64 0.0 0 0 69.16 63.02
  A 0.64 0.64 0.0 0 0 69.80 63.66
  A 0.64 0.64 0.0 0 0 70.44 63.02"
/>
<path stroke="#808080" vector-effect="non-scaling-stroke" d="
  M 54.2091 75.2136
  A 3.20 0.91 -141.4 0 0 56.1423 77.9212
  A 3.20 0.91 -141.4 0 0 59.2109 79.2064
  A 3.20 0.91 -141.4 0 0 57.2777 76.4988
  A 3.20 0.91 -141.4 0 0 54.2091 75.2136"
/>
<path stroke="#808080" vector-effect="non-scaling-stroke" d="
  M 67.42 79.79
  L 72.12 75.62
  A 0.10 0.10 0.0 0 0 72.13 75.48
  A 2.78 1.68 -41.6 0 0 68.93 76.07
  L 68.25 76.68
  A 2.78 1.68 -41.6 0 0 67.28 79.78
  A 0.10 0.10 0.0 0 0 67.42 79.79"
/>
<path stroke="#808080" vector-effect="non-scaling-stroke" d="
  M 54.50 78.86
  L 43.51 83.73
  A 0.10 0.10 0.0 0 0 43.46 83.86
  L 43.47 83.89
  A 5.02 2.11 -23.9 0 0 48.92 83.79
  L 50.91 82.90
  A 5.02 2.11 -23.9 0 0 54.65 78.94
  L 54.63 78.91
  A 0.10 0.10 0.0 0 0 54.50 78.86"
/>
<path stroke="#808080" vector-effect="non-scaling-stroke" d="
  M 63.05 87.67
  Q 65.26 87.68 67.83 86.17
  A 2.76 2.71 -61.1 0 1 69.10 85.79
  L 71.76 85.67
  A 0.91 0.91 0.0 0 0 72.41 84.16
  C 70.32 81.74 66.39 79.12 63.08 79.11
  C 59.76 79.10 55.81 81.69 53.71 84.10
  A 0.91 0.91 0.0 0 0 54.35 85.61
  L 57.01 85.75
  A 2.76 2.71 61.5 0 1 58.28 86.14
  Q 60.84 87.66 63.05 87.67"
/>
<path stroke="#808080" vector-effect="non-scaling-stroke" d="
  M 82.69 83.77
  L 71.84 79.04
  A 0.11 0.11 0.0 0 0 71.69 79.10
  L 71.68 79.13
  A 5.25 2.14 23.5 0 0 75.64 83.18
  L 77.07 83.81
  A 5.25 2.14 23.5 0 0 82.74 83.94
  L 82.75 83.91
  A 0.11 0.11 0.0 0 0 82.69 83.77"
/>
<path stroke="#bbbbbb" vector-effect="non-scaling-stroke" d="
  M 112.2072 60.3230
  A 1.25 0.90 -86.0 0 0 111.2222 61.5072
  A 1.25 0.90 -86.0 0 0 112.0328 62.8170
  A 1.25 0.90 -86.0 0 0 113.0178 61.6328
  A 1.25 0.90 -86.0 0 0 112.2072 60.3230"
/>
<path stroke="#bbbbbb" vector-effect="non-scaling-stroke" d="
  M 105.50 62.37
  A 1.07 1.07 0.0 0 0 104.43 61.30
  A 1.07 1.07 0.0 0 0 103.36 62.37
  A 1.07 1.07 0.0 0 0 104.43 63.44
  A 1.07 1.07 0.0 0 0 105.50 62.37"
/>
</g>
<path fill="#050505" d="
  M 125.00 0.00
  L 125.00 125.00
  L 0.00 125.00
  L 0.00 0.00
  L 125.00 0.00
  Z
  M 123.59 62.52
  A 60.59 60.59 0.0 0 0 63.00 1.93
  A 60.59 60.59 0.0 0 0 2.41 62.52
  A 60.59 60.59 0.0 0 0 63.00 123.11
  A 60.59 60.59 0.0 0 0 123.59 62.52
  Z"
/>
<path fill="#fafafa" d="
  M 123.59 62.52
  A 60.59 60.59 0.0 0 1 63.00 123.11
  A 60.59 60.59 0.0 0 1 2.41 62.52
  A 60.59 60.59 0.0 0 1 63.00 1.93
  A 60.59 60.59 0.0 0 1 123.59 62.52
  Z
  M 10.06 47.96
  Q 11.63 52.30 14.73 51.79
  L 23.91 52.13
  A 1.06 1.03 26.6 0 0 24.57 51.92
  C 27.98 49.33 27.48 46.71 27.74 43.76
  A 0.45 0.45 0.0 0 1 28.51 43.48
  C 31.07 46.01 31.32 49.75 28.99 52.57
  Q 27.45 54.43 27.32 54.61
  A 1.20 1.20 0.0 0 0 27.13 55.80
  L 29.60 62.22
  A 0.74 0.73 39.8 0 1 29.64 62.63
  L 29.38 64.15
  A 1.13 1.12 -55.2 0 0 29.51 64.90
  L 31.91 69.06
  A 0.34 0.33 70.8 0 1 31.67 69.56
  Q 30.19 69.77 30.81 71.44
  Q 31.66 73.76 33.52 75.53
  A 0.95 0.95 0.0 0 1 33.73 76.60
  Q 31.09 82.62 25.75 84.50
  A 0.63 0.63 0.0 0 0 25.34 85.20
  L 26.41 91.47
  A 0.55 0.55 0.0 0 1 25.49 91.95
  L 21.55 88.09
  L 10.46 75.35
  L 8.29 70.80
  A 0.75 0.73 -89.0 0 0 8.00 70.49
  L 6.46 69.60
  A 0.93 0.92 -60.1 0 1 6.12 68.33
  L 7.68 65.63
  A 1.33 1.24 59.8 0 0 7.84 64.93
  Q 7.66 61.68 9.15 57.30
  A 4.20 4.18 43.8 0 0 9.08 54.40
  L 7.33 49.99
  A 0.66 0.65 40.3 0 0 6.08 50.09
  C -0.28 79.29 16.72 109.16 45.55 118.02
  C 54.05 120.63 61.83 121.61 69.74 120.49
  Q 90.01 117.61 104.18 103.54
  Q 109.70 98.05 113.34 91.65
  Q 117.53 84.29 119.29 77.81
  Q 121.91 68.23 121.04 56.98
  Q 120.48 49.79 118.47 44.70
  C 116.86 40.60 115.61 37.07 113.55 33.57
  Q 102.55 14.88 81.78 7.37
  Q 62.01 0.23 41.83 8.37
  Q 20.28 17.06 10.22 37.74
  Q 8.90 40.46 8.45 42.56
  A 2.78 2.78 0.0 0 0 8.58 44.14
  L 10.06 47.96
  Z
  M 14.99 61.62
  A 0.97 0.97 0.0 0 0 14.02 60.65
  A 0.97 0.97 0.0 0 0 13.05 61.62
  A 0.97 0.97 0.0 0 0 14.02 62.59
  A 0.97 0.97 0.0 0 0 14.99 61.62
  Z
  M 22.45 62.42
  A 1.07 1.07 0.0 0 0 21.38 61.35
  A 1.07 1.07 0.0 0 0 20.31 62.42
  A 1.07 1.07 0.0 0 0 21.38 63.49
  A 1.07 1.07 0.0 0 0 22.45 62.42
  Z"
/>
<path fill="#050505" d="
  M 10.46 75.35
  Q 10.73 78.93 11.36 80.57
  Q 20.69 104.66 43.91 113.89
  Q 51.23 116.80 58.48 117.10
  C 66.65 117.43 74.90 117.05 82.77 113.83
  Q 108.11 103.45 116.15 77.28
  Q 116.59 75.84 116.57 73.04
  L 117.75 70.77
  A 1.76 1.73 -81.5 0 1 118.96 69.86
  Q 119.24 69.81 119.74 69.63
  A 0.57 0.57 0.0 0 0 120.04 68.81
  L 118.17 65.57
  A 0.94 0.91 32.1 0 1 118.05 65.08
  Q 118.26 60.34 116.74 56.35
  A 2.41 2.40 45.7 0 1 116.76 54.58
  L 118.82 49.53
  A 3.32 3.30 45.4 0 0 118.83 47.04
  L 117.66 44.08
  A 0.59 0.58 67.9 0 0 116.89 43.75
  Q 116.57 43.88 116.27 44.14
  Q 115.14 45.06 114.25 42.63
  Q 113.39 40.28 113.16 39.80
  C 106.06 24.58 93.11 13.55 76.75 9.30
  C 71.12 7.83 63.81 7.75 58.74 7.98
  Q 46.64 8.52 35.52 15.13
  Q 17.61 25.76 10.99 45.99
  A 2.70 2.66 -33.3 0 0 10.88 46.50
  Q 10.69 48.60 10.06 47.96
  L 8.58 44.14
  A 2.78 2.78 0.0 0 1 8.45 42.56
  Q 8.90 40.46 10.22 37.74
  Q 20.28 17.06 41.83 8.37
  Q 62.01 0.23 81.78 7.37
  Q 102.55 14.88 113.55 33.57
  C 115.61 37.07 116.86 40.60 118.47 44.70
  Q 120.48 49.79 121.04 56.98
  Q 121.91 68.23 119.29 77.81
  Q 117.53 84.29 113.34 91.65
  Q 109.70 98.05 104.18 103.54
  Q 90.01 117.61 69.74 120.49
  C 61.83 121.61 54.05 120.63 45.55 118.02
  C 16.72 109.16 -0.28 79.29 6.08 50.09
  A 0.66 0.65 40.3 0 1 7.33 49.99
  L 9.08 54.40
  A 4.20 4.18 43.8 0 1 9.15 57.30
  Q 7.66 61.68 7.84 64.93
  A 1.33 1.24 59.8 0 1 7.68 65.63
  L 6.12 68.33
  A 0.93 0.92 -60.1 0 0 6.46 69.60
  L 8.00 70.49
  A 0.75 0.73 -89.0 0 1 8.29 70.80
  L 10.46 75.35
  Z"
/>
<path fill="#7b7c7c" d="
  M 116.27 44.14
  Q 117.18 48.80 113.00 51.73
  Q 112.38 52.16 110.45 51.85
  L 111.06 51.63
  A 0.77 0.77 0.0 0 0 111.53 50.70
  Q 105.14 28.07 85.16 18.05
  Q 74.08 12.50 62.23 13.03
  Q 34.36 14.27 20.00 38.03
  Q 16.69 43.50 14.73 51.79
  Q 11.63 52.30 10.06 47.96
  Q 10.69 48.60 10.88 46.50
  A 2.70 2.66 -33.3 0 1 10.99 45.99
  Q 17.61 25.76 35.52 15.13
  Q 46.64 8.52 58.74 7.98
  C 63.81 7.75 71.12 7.83 76.75 9.30
  C 93.11 13.55 106.06 24.58 113.16 39.80
  Q 113.39 40.28 114.25 42.63
  Q 115.14 45.06 116.27 44.14
  Z"
/>
<path fill="#050505" d="
  M 110.45 51.85
  L 102.06 52.07
  A 1.80 1.79 59.6 0 1 101.11 51.82
  C 98.68 50.39 98.19 47.39 98.13 44.62
  A 0.71 0.71 0.0 0 0 96.98 44.08
  Q 96.15 44.74 96.05 45.95
  C 95.76 49.48 95.83 51.90 98.29 54.38
  A 1.61 1.60 -54.2 0 1 98.58 56.22
  Q 96.47 60.49 96.48 64.08
  C 96.48 66.00 95.22 67.72 94.10 68.60
  Q 93.33 69.20 93.66 69.64
  Q 93.78 69.81 94.93 69.72
  A 0.69 0.68 -81.8 0 1 95.62 70.65
  Q 94.68 73.13 92.37 75.57
  A 1.02 1.02 0.0 0 0 92.19 76.71
  Q 94.84 82.45 100.26 84.59
  A 0.96 0.95 -70.8 0 1 100.82 85.77
  C 100.29 87.42 98.96 90.20 99.61 91.89
  A 0.63 0.62 -34.4 0 0 100.65 92.08
  L 105.98 86.29
  Q 106.98 86.76 105.60 88.84
  C 96.72 102.21 82.24 111.48 65.94 112.01
  Q 59.47 112.22 57.27 111.92
  Q 36.67 109.13 23.04 91.74
  Q 21.20 89.40 21.55 88.09
  L 25.49 91.95
  A 0.55 0.55 0.0 0 0 26.41 91.47
  L 25.34 85.20
  A 0.63 0.63 0.0 0 1 25.75 84.50
  Q 31.09 82.62 33.73 76.60
  A 0.95 0.95 0.0 0 0 33.52 75.53
  Q 31.66 73.76 30.81 71.44
  Q 30.19 69.77 31.67 69.56
  A 0.34 0.33 70.8 0 0 31.91 69.06
  L 29.51 64.90
  A 1.13 1.12 -55.2 0 1 29.38 64.15
  L 29.64 62.63
  A 0.74 0.73 39.8 0 0 29.60 62.22
  L 27.13 55.80
  A 1.20 1.20 0.0 0 1 27.32 54.61
  Q 27.45 54.43 28.99 52.57
  C 31.32 49.75 31.07 46.01 28.51 43.48
  A 0.45 0.45 0.0 0 0 27.74 43.76
  C 27.48 46.71 27.98 49.33 24.57 51.92
  A 1.06 1.03 26.6 0 1 23.91 52.13
  L 14.73 51.79
  Q 16.69 43.50 20.00 38.03
  Q 34.36 14.27 62.23 13.03
  Q 74.08 12.50 85.16 18.05
  Q 105.14 28.07 111.53 50.70
  A 0.77 0.77 0.0 0 1 111.06 51.63
  L 110.45 51.85
  Z
  M 41.33 23.57
  A 0.65 0.65 0.0 0 0 40.13 23.29
  Q 34.27 32.98 39.80 42.56
  C 42.01 46.37 49.91 54.37 55.38 51.23
  C 57.33 50.11 57.31 47.57 57.20 45.75
  Q 57.02 42.74 54.09 42.05
  A 1.40 1.39 40.5 0 0 53.29 42.11
  L 50.56 43.19
  A 1.04 1.02 -37.5 0 1 49.56 43.07
  C 44.35 39.31 41.29 34.18 41.35 27.87
  Q 41.39 24.20 41.33 23.57
  Z
  M 84.77 23.95
  Q 84.70 24.57 84.69 28.21
  C 84.66 34.46 81.55 39.50 76.33 43.15
  A 1.03 1.01 38.4 0 1 75.34 43.25
  L 72.65 42.14
  A 1.39 1.38 -39.6 0 0 71.86 42.07
  Q 68.95 42.71 68.73 45.69
  C 68.59 47.49 68.53 50.01 70.45 51.15
  C 75.82 54.34 83.77 46.53 86.01 42.78
  Q 91.63 33.37 85.96 23.69
  A 0.64 0.64 0.0 0 0 84.77 23.95
  Z
  M 60.46 49.79
  Q 63.87 48.59 65.12 49.26
  A 0.88 0.88 0.0 0 0 66.40 48.63
  L 67.42 42.77
  A 1.12 1.11 87.7 0 0 66.05 41.50
  Q 62.78 42.33 59.34 41.36
  A 0.45 0.45 0.0 0 0 58.81 41.98
  Q 60.39 45.44 59.77 49.21
  A 0.53 0.52 -4.7 0 0 60.46 49.79
  Z
  M 85.40 65.11
  L 88.15 66.70
  A 0.13 0.13 0.0 0 0 88.33 66.54
  L 82.64 52.17
  A 1.24 1.24 0.0 0 0 81.03 51.48
  L 75.86 53.52
  A 1.46 1.46 0.0 0 0 74.97 55.11
  L 75.61 58.82
  A 0.55 0.54 -5.5 0 0 76.16 59.27
  C 80.57 59.15 84.99 63.90 81.65 68.23
  Q 77.74 73.31 77.52 79.44
  A 2.25 2.24 5.9 0 0 79.39 81.73
  L 84.32 82.58
  A 1.15 1.15 0.0 0 1 84.80 84.64
  C 83.30 85.74 81.15 86.04 79.37 85.61
  Q 77.04 85.06 76.56 85.12
  A 1.10 1.09 12.6 0 0 75.75 85.63
  Q 74.42 87.72 72.69 88.22
  Q 70.04 88.97 63.05 90.65
  A 3.64 3.63 49.0 0 1 60.82 90.49
  Q 57.44 89.15 53.01 88.03
  Q 51.91 87.75 50.42 85.70
  A 1.27 1.25 76.3 0 0 49.59 85.19
  Q 48.73 85.06 46.60 85.57
  C 44.75 86.02 42.67 85.61 41.32 84.75
  A 1.20 1.20 0.0 0 1 41.77 82.56
  L 46.69 81.72
  A 2.73 2.73 0.0 0 0 48.94 78.76
  L 48.58 74.98
  A 4.26 4.21 27.1 0 0 47.99 73.19
  Q 47.13 71.73 45.79 70.38
  C 42.63 67.19 42.42 62.99 46.32 60.20
  C 47.52 59.35 48.98 59.46 50.27 59.23
  A 0.82 0.82 0.0 0 0 50.94 58.44
  Q 51.00 55.98 51.58 55.28
  A 0.81 0.81 0.0 0 0 51.31 54.04
  L 44.96 50.86
  A 1.02 1.02 0.0 0 0 43.52 51.47
  Q 41.20 59.18 37.58 65.90
  A 0.43 0.43 0.0 0 0 38.18 66.47
  L 40.16 65.33
  A 0.48 0.48 0.0 0 1 40.85 65.91
  Q 38.24 73.20 33.12 79.35
  Q 32.39 80.22 32.97 80.78
  A 0.59 0.58 -38.1 0 0 33.68 80.86
  L 37.08 78.90
  A 0.42 0.41 77.5 0 1 37.70 79.30
  C 37.21 85.00 33.34 90.34 29.32 94.36
  A 1.02 1.02 0.0 0 0 29.27 95.75
  Q 30.97 97.73 35.49 101.44
  C 44.11 108.54 58.83 112.32 69.48 110.17
  C 80.91 107.87 89.16 104.04 96.95 95.57
  A 0.81 0.81 0.0 0 0 96.89 94.41
  Q 90.15 88.43 88.10 79.23
  A 0.40 0.40 0.0 0 1 88.69 78.79
  L 92.57 81.03
  A 0.41 0.41 0.0 0 0 93.15 80.51
  Q 92.07 78.07 90.29 75.80
  C 87.68 72.46 86.07 68.69 85.03 65.40
  A 0.25 0.25 0.0 0 1 85.40 65.11
  Z
  M 65.0666 57.6705
  A 2.07 1.56 -91.2 0 0 63.5503 59.7727
  A 2.07 1.56 -91.2 0 0 65.1534 61.8095
  A 2.07 1.56 -91.2 0 0 66.6697 59.7073
  A 2.07 1.56 -91.2 0 0 65.0666 57.6705
  Z
  M 61.2520 57.6883
  A 2.03 1.40 -82.3 0 0 59.5926 59.5124
  A 2.03 1.40 -82.3 0 0 60.7080 61.7117
  A 2.03 1.40 -82.3 0 0 62.3674 59.8876
  A 2.03 1.40 -82.3 0 0 61.2520 57.6883
  Z
  M 58.19 66.15
  A 0.16 0.15 -18.0 0 0 58.04 66.08
  Q 54.95 66.50 52.83 65.55
  A 1.12 1.10 -2.3 0 1 52.31 65.08
  L 50.60 62.12
  A 1.45 1.37 82.4 0 0 49.81 61.48
  Q 47.33 60.68 46.12 62.68
  C 43.65 66.78 46.95 72.58 51.48 68.72
  A 0.64 0.63 -49.9 0 1 52.22 68.65
  L 54.34 69.87
  A 0.85 0.85 0.0 0 0 55.61 69.18
  Q 55.72 67.01 58.06 67.44
  A 0.46 0.46 0.0 0 0 58.54 66.76
  L 58.19 66.15
  Z
  M 68.28 68.40
  A 0.83 0.82 11.2 0 1 69.63 67.50
  Q 70.33 68.22 70.70 69.20
  A 1.00 1.00 0.0 0 0 72.14 69.71
  L 73.79 68.75
  A 0.64 0.64 0.0 0 1 74.47 68.78
  C 79.58 72.20 82.22 66.39 79.95 62.74
  Q 78.87 61.00 76.40 61.25
  A 1.13 1.13 0.0 0 0 75.57 61.77
  L 73.42 65.18
  A 1.02 0.99 0.8 0 1 73.04 65.54
  Q 71.33 66.55 68.70 66.10
  A 0.89 0.89 0.0 0 0 67.66 67.01
  Q 67.75 69.24 66.34 69.64
  A 1.16 0.89 86.5 0 1 65.24 68.37
  Q 65.41 65.42 65.31 64.60
  A 1.43 1.43 0.0 0 0 64.20 63.37
  Q 62.89 63.08 61.65 63.45
  A 1.27 1.27 0.0 0 0 60.74 64.73
  L 60.90 68.44
  A 1.18 1.17 0.9 0 1 59.63 69.66
  Q 59.53 69.65 58.99 69.32
  A 1.45 1.38 -75.2 0 0 56.88 70.62
  Q 56.89 71.13 57.53 71.92
  Q 57.94 72.42 58.73 72.63
  Q 60.85 73.22 62.48 74.55
  A 0.86 0.85 -44.7 0 0 63.55 74.55
  Q 65.35 73.13 68.16 72.22
  A 1.01 1.00 84.2 0 0 68.85 71.37
  Q 68.98 70.04 68.28 68.40
  Z
  M 55.86 62.45
  Q 55.55 63.05 55.56 63.41
  A 0.49 0.41 -11.3 0 0 56.18 63.75
  Q 56.90 63.52 56.30 62.44
  A 0.25 0.25 0.0 0 0 55.86 62.45
  Z
  M 70.44 63.02
  A 0.64 0.64 0.0 0 0 69.80 62.38
  A 0.64 0.64 0.0 0 0 69.16 63.02
  A 0.64 0.64 0.0 0 0 69.80 63.66
  A 0.64 0.64 0.0 0 0 70.44 63.02
  Z
  M 54.2091 75.2136
  A 3.20 0.91 -141.4 0 0 56.1423 77.9212
  A 3.20 0.91 -141.4 0 0 59.2109 79.2064
  A 3.20 0.91 -141.4 0 0 57.2777 76.4988
  A 3.20 0.91 -141.4 0 0 54.2091 75.2136
  Z
  M 67.42 79.79
  L 72.12 75.62
  A 0.10 0.10 0.0 0 0 72.13 75.48
  A 2.78 1.68 -41.6 0 0 68.93 76.07
  L 68.25 76.68
  A 2.78 1.68 -41.6 0 0 67.28 79.78
  A 0.10 0.10 0.0 0 0 67.42 79.79
  Z
  M 54.50 78.86
  L 43.51 83.73
  A 0.10 0.10 0.0 0 0 43.46 83.86
  L 43.47 83.89
  A 5.02 2.11 -23.9 0 0 48.92 83.79
  L 50.91 82.90
  A 5.02 2.11 -23.9 0 0 54.65 78.94
  L 54.63 78.91
  A 0.10 0.10 0.0 0 0 54.50 78.86
  Z
  M 63.05 87.67
  Q 65.26 87.68 67.83 86.17
  A 2.76 2.71 -61.1 0 1 69.10 85.79
  L 71.76 85.67
  A 0.91 0.91 0.0 0 0 72.41 84.16
  C 70.32 81.74 66.39 79.12 63.08 79.11
  C 59.76 79.10 55.81 81.69 53.71 84.10
  A 0.91 0.91 0.0 0 0 54.35 85.61
  L 57.01 85.75
  A 2.76 2.71 61.5 0 1 58.28 86.14
  Q 60.84 87.66 63.05 87.67
  Z
  M 82.69 83.77
  L 71.84 79.04
  A 0.11 0.11 0.0 0 0 71.69 79.10
  L 71.68 79.13
  A 5.25 2.14 23.5 0 0 75.64 83.18
  L 77.07 83.81
  A 5.25 2.14 23.5 0 0 82.74 83.94
  L 82.75 83.91
  A 0.11 0.11 0.0 0 0 82.69 83.77
  Z"
/>
<path fill="#fafafa" d="
  M 41.33 23.57
  Q 41.39 24.20 41.35 27.87
  C 41.29 34.18 44.35 39.31 49.56 43.07
  A 1.04 1.02 -37.5 0 0 50.56 43.19
  L 53.29 42.11
  A 1.40 1.39 40.5 0 1 54.09 42.05
  Q 57.02 42.74 57.20 45.75
  C 57.31 47.57 57.33 50.11 55.38 51.23
  C 49.91 54.37 42.01 46.37 39.80 42.56
  Q 34.27 32.98 40.13 23.29
  A 0.65 0.65 0.0 0 1 41.33 23.57
  Z"
/>
<path fill="#fafafa" d="
  M 84.77 23.95
  A 0.64 0.64 0.0 0 1 85.96 23.69
  Q 91.63 33.37 86.01 42.78
  C 83.77 46.53 75.82 54.34 70.45 51.15
  C 68.53 50.01 68.59 47.49 68.73 45.69
  Q 68.95 42.71 71.86 42.07
  A 1.39 1.38 -39.6 0 1 72.65 42.14
  L 75.34 43.25
  A 1.03 1.01 38.4 0 0 76.33 43.15
  C 81.55 39.50 84.66 34.46 84.69 28.21
  Q 84.70 24.57 84.77 23.95
  Z"
/>
<path fill="#fafafa" d="
  M 59.77 49.21
  Q 60.39 45.44 58.81 41.98
  A 0.45 0.45 0.0 0 1 59.34 41.36
  Q 62.78 42.33 66.05 41.50
  A 1.12 1.11 87.7 0 1 67.42 42.77
  L 66.40 48.63
  A 0.88 0.88 0.0 0 1 65.12 49.26
  Q 63.87 48.59 60.46 49.79
  A 0.53 0.52 -4.7 0 1 59.77 49.21
  Z"
/>
<path fill="#fafafa" d="
  M 116.57 73.04
  L 105.98 86.29
  L 100.65 92.08
  A 0.63 0.62 -34.4 0 1 99.61 91.89
  C 98.96 90.20 100.29 87.42 100.82 85.77
  A 0.96 0.95 -70.8 0 0 100.26 84.59
  Q 94.84 82.45 92.19 76.71
  A 1.02 1.02 0.0 0 1 92.37 75.57
  Q 94.68 73.13 95.62 70.65
  A 0.69 0.68 -81.8 0 0 94.93 69.72
  Q 93.78 69.81 93.66 69.64
  Q 93.33 69.20 94.10 68.60
  C 95.22 67.72 96.48 66.00 96.48 64.08
  Q 96.47 60.49 98.58 56.22
  A 1.61 1.60 -54.2 0 0 98.29 54.38
  C 95.83 51.90 95.76 49.48 96.05 45.95
  Q 96.15 44.74 96.98 44.08
  A 0.71 0.71 0.0 0 1 98.13 44.62
  C 98.19 47.39 98.68 50.39 101.11 51.82
  A 1.80 1.79 59.6 0 0 102.06 52.07
  L 110.45 51.85
  Q 112.38 52.16 113.00 51.73
  Q 117.18 48.80 116.27 44.14
  Q 116.57 43.88 116.89 43.75
  A 0.59 0.58 67.9 0 1 117.66 44.08
  L 118.83 47.04
  A 3.32 3.30 45.4 0 1 118.82 49.53
  L 116.76 54.58
  A 2.41 2.40 45.7 0 0 116.74 56.35
  Q 118.26 60.34 118.05 65.08
  A 0.94 0.91 32.1 0 0 118.17 65.57
  L 120.04 68.81
  A 0.57 0.57 0.0 0 1 119.74 69.63
  Q 119.24 69.81 118.96 69.86
  A 1.76 1.73 -81.5 0 0 117.75 70.77
  L 116.57 73.04
  Z
  M 112.2072 60.3230
  A 1.25 0.90 -86.0 0 0 111.2222 61.5072
  A 1.25 0.90 -86.0 0 0 112.0328 62.8170
  A 1.25 0.90 -86.0 0 0 113.0178 61.6328
  A 1.25 0.90 -86.0 0 0 112.2072 60.3230
  Z
  M 105.50 62.37
  A 1.07 1.07 0.0 0 0 104.43 61.30
  A 1.07 1.07 0.0 0 0 103.36 62.37
  A 1.07 1.07 0.0 0 0 104.43 63.44
  A 1.07 1.07 0.0 0 0 105.50 62.37
  Z"
/>
<path fill="#fafafa" d="
  M 85.40 65.11
  A 0.25 0.25 0.0 0 0 85.03 65.40
  C 86.07 68.69 87.68 72.46 90.29 75.80
  Q 92.07 78.07 93.15 80.51
  A 0.41 0.41 0.0 0 1 92.57 81.03
  L 88.69 78.79
  A 0.40 0.40 0.0 0 0 88.10 79.23
  Q 90.15 88.43 96.89 94.41
  A 0.81 0.81 0.0 0 1 96.95 95.57
  C 89.16 104.04 80.91 107.87 69.48 110.17
  C 58.83 112.32 44.11 108.54 35.49 101.44
  Q 30.97 97.73 29.27 95.75
  A 1.02 1.02 0.0 0 1 29.32 94.36
  C 33.34 90.34 37.21 85.00 37.70 79.30
  A 0.42 0.41 77.5 0 0 37.08 78.90
  L 33.68 80.86
  A 0.59 0.58 -38.1 0 1 32.97 80.78
  Q 32.39 80.22 33.12 79.35
  Q 38.24 73.20 40.85 65.91
  A 0.48 0.48 0.0 0 0 40.16 65.33
  L 38.18 66.47
  A 0.43 0.43 0.0 0 1 37.58 65.90
  Q 41.20 59.18 43.52 51.47
  A 1.02 1.02 0.0 0 1 44.96 50.86
  L 51.31 54.04
  A 0.81 0.81 0.0 0 1 51.58 55.28
  Q 51.00 55.98 50.94 58.44
  A 0.82 0.82 0.0 0 1 50.27 59.23
  C 48.98 59.46 47.52 59.35 46.32 60.20
  C 42.42 62.99 42.63 67.19 45.79 70.38
  Q 47.13 71.73 47.99 73.19
  A 4.26 4.21 27.1 0 1 48.58 74.98
  L 48.94 78.76
  A 2.73 2.73 0.0 0 1 46.69 81.72
  L 41.77 82.56
  A 1.20 1.20 0.0 0 0 41.32 84.75
  C 42.67 85.61 44.75 86.02 46.60 85.57
  Q 48.73 85.06 49.59 85.19
  A 1.27 1.25 76.3 0 1 50.42 85.70
  Q 51.91 87.75 53.01 88.03
  Q 57.44 89.15 60.82 90.49
  A 3.64 3.63 49.0 0 0 63.05 90.65
  Q 70.04 88.97 72.69 88.22
  Q 74.42 87.72 75.75 85.63
  A 1.10 1.09 12.6 0 1 76.56 85.12
  Q 77.04 85.06 79.37 85.61
  C 81.15 86.04 83.30 85.74 84.80 84.64
  A 1.15 1.15 0.0 0 0 84.32 82.58
  L 79.39 81.73
  A 2.25 2.24 5.9 0 1 77.52 79.44
  Q 77.74 73.31 81.65 68.23
  C 84.99 63.90 80.57 59.15 76.16 59.27
  A 0.55 0.54 -5.5 0 1 75.61 58.82
  L 74.97 55.11
  A 1.46 1.46 0.0 0 1 75.86 53.52
  L 81.03 51.48
  A 1.24 1.24 0.0 0 1 82.64 52.17
  L 88.33 66.54
  A 0.13 0.13 0.0 0 1 88.15 66.70
  L 85.40 65.11
  Z"
/>
<ellipse fill="#fafafa" cx="0.00" cy="0.00" transform="translate(65.11,59.74) rotate(-91.2)" rx="2.07" ry="1.56"/>
<ellipse fill="#fafafa" cx="0.00" cy="0.00" transform="translate(60.98,59.70) rotate(-82.3)" rx="2.03" ry="1.40"/>
<ellipse fill="#7b7c7c" cx="0.00" cy="0.00" transform="translate(112.12,61.57) rotate(-86.0)" rx="1.25" ry="0.90"/>
<circle fill="#7b7c7c" cx="14.02" cy="61.62" r="0.97"/>
<path fill="#fafafa" d="
  M 58.06 67.44
  Q 55.72 67.01 55.61 69.18
  A 0.85 0.85 0.0 0 1 54.34 69.87
  L 52.22 68.65
  A 0.64 0.63 -49.9 0 0 51.48 68.72
  C 46.95 72.58 43.65 66.78 46.12 62.68
  Q 47.33 60.68 49.81 61.48
  A 1.45 1.37 82.4 0 1 50.60 62.12
  L 52.31 65.08
  A 1.12 1.10 -2.3 0 0 52.83 65.55
  Q 54.95 66.50 58.04 66.08
  A 0.16 0.15 -18.0 0 1 58.19 66.15
  L 58.54 66.76
  A 0.46 0.46 0.0 0 1 58.06 67.44
  Z"
/>
<path fill="#fafafa" d="
  M 68.28 68.40
  Q 68.98 70.04 68.85 71.37
  A 1.01 1.00 84.2 0 1 68.16 72.22
  Q 65.35 73.13 63.55 74.55
  A 0.86 0.85 -44.7 0 1 62.48 74.55
  Q 60.85 73.22 58.73 72.63
  Q 57.94 72.42 57.53 71.92
  Q 56.89 71.13 56.88 70.62
  A 1.45 1.38 -75.2 0 1 58.99 69.32
  Q 59.53 69.65 59.63 69.66
  A 1.18 1.17 0.9 0 0 60.90 68.44
  L 60.74 64.73
  A 1.27 1.27 0.0 0 1 61.65 63.45
  Q 62.89 63.08 64.20 63.37
  A 1.43 1.43 0.0 0 1 65.31 64.60
  Q 65.41 65.42 65.24 68.37
  A 1.16 0.89 86.5 0 0 66.34 69.64
  Q 67.75 69.24 67.66 67.01
  A 0.89 0.89 0.0 0 1 68.70 66.10
  Q 71.33 66.55 73.04 65.54
  A 1.02 0.99 0.8 0 0 73.42 65.18
  L 75.57 61.77
  A 1.13 1.13 0.0 0 1 76.40 61.25
  Q 78.87 61.00 79.95 62.74
  C 82.22 66.39 79.58 72.20 74.47 68.78
  A 0.64 0.64 0.0 0 0 73.79 68.75
  L 72.14 69.71
  A 1.00 1.00 0.0 0 1 70.70 69.20
  Q 70.33 68.22 69.63 67.50
  A 0.83 0.82 11.2 0 0 68.28 68.40
  Z"
/>
<circle fill="#7b7c7c" cx="104.43" cy="62.37" r="1.07"/>
<circle fill="#7b7c7c" cx="21.38" cy="62.42" r="1.07"/>
<path fill="#fafafa" d="
  M 55.86 62.45
  A 0.25 0.25 0.0 0 1 56.30 62.44
  Q 56.90 63.52 56.18 63.75
  A 0.49 0.41 -11.3 0 1 55.56 63.41
  Q 55.55 63.05 55.86 62.45
  Z"
/>
<circle fill="#fafafa" cx="69.80" cy="63.02" r="0.64"/>
<path fill="#7b7c7c" d="
  M 116.57 73.04
  Q 116.59 75.84 116.15 77.28
  Q 108.11 103.45 82.77 113.83
  C 74.90 117.05 66.65 117.43 58.48 117.10
  Q 51.23 116.80 43.91 113.89
  Q 20.69 104.66 11.36 80.57
  Q 10.73 78.93 10.46 75.35
  L 21.55 88.09
  Q 21.20 89.40 23.04 91.74
  Q 36.67 109.13 57.27 111.92
  Q 59.47 112.22 65.94 112.01
  C 82.24 111.48 96.72 102.21 105.60 88.84
  Q 106.98 86.76 105.98 86.29
  L 116.57 73.04
  Z"
/>
<ellipse fill="#fafafa" cx="0.00" cy="0.00" transform="translate(56.71,77.21) rotate(-141.4)" rx="3.20" ry="0.91"/>
<path fill="#fafafa" d="
  M 67.42 79.79
  A 0.10 0.10 0.0 0 1 67.28 79.78
  A 2.78 1.68 -41.6 0 1 68.25 76.68
  L 68.93 76.07
  A 2.78 1.68 -41.6 0 1 72.13 75.48
  A 0.10 0.10 0.0 0 1 72.12 75.62
  L 67.42 79.79
  Z"
/>
<path fill="#fafafa" d="
  M 54.50 78.86
  A 0.10 0.10 0.0 0 1 54.63 78.91
  L 54.65 78.94
  A 5.02 2.11 -23.9 0 1 50.91 82.90
  L 48.92 83.79
  A 5.02 2.11 -23.9 0 1 43.47 83.89
  L 43.46 83.86
  A 0.10 0.10 0.0 0 1 43.51 83.73
  L 54.50 78.86
  Z"
/>
<path fill="#fafafa" d="
  M 63.08 79.11
  C 66.39 79.12 70.32 81.74 72.41 84.16
  A 0.91 0.91 0.0 0 1 71.76 85.67
  L 69.10 85.79
  A 2.76 2.71 -61.1 0 0 67.83 86.17
  Q 65.26 87.68 63.05 87.67
  Q 60.84 87.66 58.28 86.14
  A 2.76 2.71 61.5 0 0 57.01 85.75
  L 54.35 85.61
  A 0.91 0.91 0.0 0 1 53.71 84.10
  C 55.81 81.69 59.76 79.10 63.08 79.11
  Z"
/>
<path fill="#fafafa" d="
  M 82.69 83.77
  A 0.11 0.11 0.0 0 1 82.75 83.91
  L 82.74 83.94
  A 5.25 2.14 23.5 0 1 77.07 83.81
  L 75.64 83.18
  A 5.25 2.14 23.5 0 1 71.68 79.13
  L 71.69 79.10
  A 0.11 0.11 0.0 0 1 71.84 79.04
  L 82.69 83.77
  Z"
/>
</svg>
