<?xml version="1.0" encoding="UTF-8" standalone="no"?>
<!DOCTYPE svg PUBLIC "-//W3C//DTD SVG 1.1//EN" "http://www.w3.org/Graphics/SVG/1.1/DTD/svg11.dtd">
<svg xmlns="http://www.w3.org/2000/svg" version="1.1" viewBox="0.00 0.00 126.00 125.00">
<g stroke-width="2.00" fill="none" stroke-linecap="butt">
<path stroke="#737273" vector-effect="non-scaling-stroke" d="
  M 123.40 62.01
  A 60.40 60.40 0.0 0 0 63.00 1.61
  A 60.40 60.40 0.0 0 0 2.60 62.01
  A 60.40 60.40 0.0 0 0 63.00 122.41
  A 60.40 60.40 0.0 0 0 123.40 62.01"
/>
<path stroke="#737273" vector-effect="non-scaling-stroke" d="
  M 121.35 62.00
  A 58.35 58.35 0.0 0 0 63.00 3.65
  A 58.35 58.35 0.0 0 0 4.65 62.00
  A 58.35 58.35 0.0 0 0 63.00 120.35
  A 58.35 58.35 0.0 0 0 121.35 62.00"
/>
<path stroke="#333333" vector-effect="non-scaling-stroke" d="
  M 118.03 61.68
  A 54.80 54.80 0.0 0 0 63.23 6.88
  A 54.80 54.80 0.0 0 0 8.43 61.68
  A 54.80 54.80 0.0 0 0 63.23 116.48
  A 54.80 54.80 0.0 0 0 118.03 61.68"
/>
<path stroke="#333333" vector-effect="non-scaling-stroke" d="
  M 112.81 61.64
  A 49.56 49.56 0.0 0 0 63.25 12.08
  A 49.56 49.56 0.0 0 0 13.69 61.64
  A 49.56 49.56 0.0 0 0 63.25 111.20
  A 49.56 49.56 0.0 0 0 112.81 61.64"
/>
<path stroke="#7e7e7e" vector-effect="non-scaling-stroke" d="
  M 47.08 74.20
  A 0.45 0.44 83.4 0 1 47.61 74.62
  Q 47.77 78.75 48.16 82.24
  Q 48.37 84.18 46.24 89.82
  A 2.18 2.16 -3.1 0 1 45.18 90.99
  C 43.73 91.70 41.80 92.75 41.22 94.28
  A 1.42 1.26 11.2 0 0 42.52 96.00
  Q 47.19 96.30 51.58 93.82
  A 1.74 1.73 80.0 0 0 52.45 92.57
  Q 52.89 89.89 54.21 88.65
  A 2.03 2.02 -22.4 0 0 54.85 87.13
  Q 54.76 83.40 57.36 78.79
  A 0.52 0.52 0.0 0 1 58.18 78.68
  C 60.19 80.73 62.56 78.10 64.33 80.69
  Q 64.75 81.31 65.14 81.18
  Q 65.62 81.02 66.16 80.51
  A 0.73 0.72 68.1 0 1 67.39 81.04
  L 67.39 83.95
  A 1.24 1.16 28.6 0 0 67.62 84.65
  L 71.36 89.82
  A 1.42 1.37 -11.9 0 0 72.27 90.39
  Q 74.63 90.80 76.59 89.92
  A 0.92 0.90 78.0 0 0 77.12 89.09
  Q 77.09 85.19 74.56 83.96
  A 1.43 1.43 0.0 0 1 74.08 81.76
  L 79.08 75.75
  A 1.20 1.20 0.0 0 1 81.20 76.51
  L 81.20 81.26
  A 0.91 0.84 -26.7 0 1 80.99 81.82
  L 79.85 83.19
  A 1.46 1.45 -73.4 0 0 81.13 85.57
  Q 83.74 85.28 88.17 85.71
  Q 89.40 85.83 91.18 85.17
  A 0.93 0.91 -7.4 0 0 91.78 84.41
  L 92.13 80.95
  A 4.12 4.09 63.2 0 1 92.67 79.29
  L 94.98 75.29
  A 3.12 3.04 59.7 0 0 95.39 73.64
  L 95.21 69.12
  A 2.85 2.74 -39.1 0 1 95.31 68.31
  L 96.77 63.10
  A 1.56 1.55 37.9 0 0 96.62 61.92
  Q 95.55 60.10 96.15 58.18
  A 1.46 1.45 -54.4 0 0 95.94 56.89
  L 94.47 54.86
  A 1.78 1.78 0.0 0 1 94.54 52.69
  L 96.91 49.85
  A 0.87 0.87 0.0 0 0 96.94 48.79
  L 95.98 47.47
  A 0.58 0.57 46.9 0 1 96.00 46.77
  L 97.35 45.15
  A 1.82 1.81 44.9 0 0 97.34 42.81
  Q 94.95 39.96 94.29 37.35
  A 1.03 1.02 83.4 0 0 93.31 36.57
  Q 91.72 36.54 89.37 33.45
  Q 88.23 31.94 86.58 33.11
  A 1.69 1.69 0.0 0 1 85.33 33.38
  L 83.77 33.09
  A 2.27 2.25 34.0 0 0 82.19 33.39
  Q 80.15 34.66 77.11 34.66
  A 0.62 0.61 85.3 0 0 76.50 35.39
  Q 77.21 39.44 80.55 40.66
  A 2.79 2.75 -6.0 0 1 81.92 41.75
  Q 83.17 43.69 85.25 45.10
  A 1.18 1.18 0.0 0 1 84.85 47.23
  Q 78.26 48.78 72.40 48.82
  A 2.26 2.25 -22.7 0 1 70.78 48.16
  Q 64.81 42.21 57.53 39.47
  C 55.52 38.71 53.41 38.44 51.50 37.54
  A 3.41 3.26 56.6 0 0 50.06 37.21
  L 43.12 37.21
  A 1.80 1.71 -56.4 0 0 42.37 37.38
  L 38.87 38.99
  A 1.22 1.19 -87.1 0 0 38.34 39.48
  L 37.63 40.70
  A 0.72 0.70 23.3 0 1 36.80 41.02
  Q 36.38 40.88 35.84 40.85
  A 0.63 0.62 -83.2 0 0 35.19 41.37
  L 34.88 43.19
  A 1.52 1.50 75.9 0 1 34.35 44.09
  Q 31.66 46.32 29.79 46.93
  A 1.27 1.27 0.0 0 0 29.84 49.37
  L 33.77 50.47
  A 1.32 1.31 27.7 0 1 34.43 52.57
  L 30.26 57.58
  A 1.80 1.80 0.0 0 0 30.25 59.87
  L 33.78 64.17
  A 1.33 1.33 0.0 0 0 34.26 64.52
  Q 36.30 65.37 39.20 65.05
  A 0.61 0.61 0.0 0 1 39.87 65.60
  Q 40.27 69.99 43.05 72.30
  C 44.22 73.28 45.40 74.53 47.08 74.20"
/>
<path stroke="#7e7e7e" vector-effect="non-scaling-stroke" d="
  M 88.1207 75.7396
  A 2.58 0.94 -67.9 0 0 86.2791 77.7763
  A 2.58 0.94 -67.9 0 0 86.1793 80.5204
  A 2.58 0.94 -67.9 0 0 88.0209 78.4837
  A 2.58 0.94 -67.9 0 0 88.1207 75.7396"
/>
</g>
<path fill="#0a0a0a" d="
  M 126.00 0.00
  L 126.00 125.00
  L 0.00 125.00
  L 0.00 0.00
  L 126.00 0.00
  Z
  M 123.40 62.01
  A 60.40 60.40 0.0 0 0 63.00 1.61
  A 60.40 60.40 0.0 0 0 2.60 62.01
  A 60.40 60.40 0.0 0 0 63.00 122.41
  A 60.40 60.40 0.0 0 0 123.40 62.01
  Z"
/>
<path fill="#dbd9db" d="
  M 123.40 62.01
  A 60.40 60.40 0.0 0 1 63.00 122.41
  A 60.40 60.40 0.0 0 1 2.60 62.01
  A 60.40 60.40 0.0 0 1 63.00 1.61
  A 60.40 60.40 0.0 0 1 123.40 62.01
  Z
  M 121.35 62.00
  A 58.35 58.35 0.0 0 0 63.00 3.65
  A 58.35 58.35 0.0 0 0 4.65 62.00
  A 58.35 58.35 0.0 0 0 63.00 120.35
  A 58.35 58.35 0.0 0 0 121.35 62.00
  Z"
/>
<path fill="#0a0a0a" d="
  M 121.35 62.00
  A 58.35 58.35 0.0 0 1 63.00 120.35
  A 58.35 58.35 0.0 0 1 4.65 62.00
  A 58.35 58.35 0.0 0 1 63.00 3.65
  A 58.35 58.35 0.0 0 1 121.35 62.00
  Z
  M 118.03 61.68
  A 54.80 54.80 0.0 0 0 63.23 6.88
  A 54.80 54.80 0.0 0 0 8.43 61.68
  A 54.80 54.80 0.0 0 0 63.23 116.48
  A 54.80 54.80 0.0 0 0 118.03 61.68
  Z"
/>
<path fill="#5c5c5c" d="
  M 118.03 61.68
  A 54.80 54.80 0.0 0 1 63.23 116.48
  A 54.80 54.80 0.0 0 1 8.43 61.68
  A 54.80 54.80 0.0 0 1 63.23 6.88
  A 54.80 54.80 0.0 0 1 118.03 61.68
  Z
  M 112.81 61.64
  A 49.56 49.56 0.0 0 0 63.25 12.08
  A 49.56 49.56 0.0 0 0 13.69 61.64
  A 49.56 49.56 0.0 0 0 63.25 111.20
  A 49.56 49.56 0.0 0 0 112.81 61.64
  Z"
/>
<path fill="#0a0a0a" d="
  M 112.81 61.64
  A 49.56 49.56 0.0 0 1 63.25 111.20
  A 49.56 49.56 0.0 0 1 13.69 61.64
  A 49.56 49.56 0.0 0 1 63.25 12.08
  A 49.56 49.56 0.0 0 1 112.81 61.64
  Z
  M 47.08 74.20
  A 0.45 0.44 83.4 0 1 47.61 74.62
  Q 47.77 78.75 48.16 82.24
  Q 48.37 84.18 46.24 89.82
  A 2.18 2.16 -3.1 0 1 45.18 90.99
  C 43.73 91.70 41.80 92.75 41.22 94.28
  A 1.42 1.26 11.2 0 0 42.52 96.00
  Q 47.19 96.30 51.58 93.82
  A 1.74 1.73 80.0 0 0 52.45 92.57
  Q 52.89 89.89 54.21 88.65
  A 2.03 2.02 -22.4 0 0 54.85 87.13
  Q 54.76 83.40 57.36 78.79
  A 0.52 0.52 0.0 0 1 58.18 78.68
  C 60.19 80.73 62.56 78.10 64.33 80.69
  Q 64.75 81.31 65.14 81.18
  Q 65.62 81.02 66.16 80.51
  A 0.73 0.72 68.1 0 1 67.39 81.04
  L 67.39 83.95
  A 1.24 1.16 28.6 0 0 67.62 84.65
  L 71.36 89.82
  A 1.42 1.37 -11.9 0 0 72.27 90.39
  Q 74.63 90.80 76.59 89.92
  A 0.92 0.90 78.0 0 0 77.12 89.09
  Q 77.09 85.19 74.56 83.96
  A 1.43 1.43 0.0 0 1 74.08 81.76
  L 79.08 75.75
  A 1.20 1.20 0.0 0 1 81.20 76.51
  L 81.20 81.26
  A 0.91 0.84 -26.7 0 1 80.99 81.82
  L 79.85 83.19
  A 1.46 1.45 -73.4 0 0 81.13 85.57
  Q 83.74 85.28 88.17 85.71
  Q 89.40 85.83 91.18 85.17
  A 0.93 0.91 -7.4 0 0 91.78 84.41
  L 92.13 80.95
  A 4.12 4.09 63.2 0 1 92.67 79.29
  L 94.98 75.29
  A 3.12 3.04 59.7 0 0 95.39 73.64
  L 95.21 69.12
  A 2.85 2.74 -39.1 0 1 95.31 68.31
  L 96.77 63.10
  A 1.56 1.55 37.9 0 0 96.62 61.92
  Q 95.55 60.10 96.15 58.18
  A 1.46 1.45 -54.4 0 0 95.94 56.89
  L 94.47 54.86
  A 1.78 1.78 0.0 0 1 94.54 52.69
  L 96.91 49.85
  A 0.87 0.87 0.0 0 0 96.94 48.79
  L 95.98 47.47
  A 0.58 0.57 46.9 0 1 96.00 46.77
  L 97.35 45.15
  A 1.82 1.81 44.9 0 0 97.34 42.81
  Q 94.95 39.96 94.29 37.35
  A 1.03 1.02 83.4 0 0 93.31 36.57
  Q 91.72 36.54 89.37 33.45
  Q 88.23 31.94 86.58 33.11
  A 1.69 1.69 0.0 0 1 85.33 33.38
  L 83.77 33.09
  A 2.27 2.25 34.0 0 0 82.19 33.39
  Q 80.15 34.66 77.11 34.66
  A 0.62 0.61 85.3 0 0 76.50 35.39
  Q 77.21 39.44 80.55 40.66
  A 2.79 2.75 -6.0 0 1 81.92 41.75
  Q 83.17 43.69 85.25 45.10
  A 1.18 1.18 0.0 0 1 84.85 47.23
  Q 78.26 48.78 72.40 48.82
  A 2.26 2.25 -22.7 0 1 70.78 48.16
  Q 64.81 42.21 57.53 39.47
  C 55.52 38.71 53.41 38.44 51.50 37.54
  A 3.41 3.26 56.6 0 0 50.06 37.21
  L 43.12 37.21
  A 1.80 1.71 -56.4 0 0 42.37 37.38
  L 38.87 38.99
  A 1.22 1.19 -87.1 0 0 38.34 39.48
  L 37.63 40.70
  A 0.72 0.70 23.3 0 1 36.80 41.02
  Q 36.38 40.88 35.84 40.85
  A 0.63 0.62 -83.2 0 0 35.19 41.37
  L 34.88 43.19
  A 1.52 1.50 75.9 0 1 34.35 44.09
  Q 31.66 46.32 29.79 46.93
  A 1.27 1.27 0.0 0 0 29.84 49.37
  L 33.77 50.47
  A 1.32 1.31 27.7 0 1 34.43 52.57
  L 30.26 57.58
  A 1.80 1.80 0.0 0 0 30.25 59.87
  L 33.78 64.17
  A 1.33 1.33 0.0 0 0 34.26 64.52
  Q 36.30 65.37 39.20 65.05
  A 0.61 0.61 0.0 0 1 39.87 65.60
  Q 40.27 69.99 43.05 72.30
  C 44.22 73.28 45.40 74.53 47.08 74.20
  Z"
/>
<path fill="#f2f2f2" d="
  M 47.08 74.20
  C 45.40 74.53 44.22 73.28 43.05 72.30
  Q 40.27 69.99 39.87 65.60
  A 0.61 0.61 0.0 0 0 39.20 65.05
  Q 36.30 65.37 34.26 64.52
  A 1.33 1.33 0.0 0 1 33.78 64.17
  L 30.25 59.87
  A 1.80 1.80 0.0 0 1 30.26 57.58
  L 34.43 52.57
  A 1.32 1.31 27.7 0 0 33.77 50.47
  L 29.84 49.37
  A 1.27 1.27 0.0 0 1 29.79 46.93
  Q 31.66 46.32 34.35 44.09
  A 1.52 1.50 75.9 0 0 34.88 43.19
  L 35.19 41.37
  A 0.63 0.62 -83.2 0 1 35.84 40.85
  Q 36.38 40.88 36.80 41.02
  A 0.72 0.70 23.3 0 0 37.63 40.70
  L 38.34 39.48
  A 1.22 1.19 -87.1 0 1 38.87 38.99
  L 42.37 37.38
  A 1.80 1.71 -56.4 0 1 43.12 37.21
  L 50.06 37.21
  A 3.41 3.26 56.6 0 1 51.50 37.54
  C 53.41 38.44 55.52 38.71 57.53 39.47
  Q 64.81 42.21 70.78 48.16
  A 2.26 2.25 -22.7 0 0 72.40 48.82
  Q 78.26 48.78 84.85 47.23
  A 1.18 1.18 0.0 0 0 85.25 45.10
  Q 83.17 43.69 81.92 41.75
  A 2.79 2.75 -6.0 0 0 80.55 40.66
  Q 77.21 39.44 76.50 35.39
  A 0.62 0.61 85.3 0 1 77.11 34.66
  Q 80.15 34.66 82.19 33.39
  A 2.27 2.25 34.0 0 1 83.77 33.09
  L 85.33 33.38
  A 1.69 1.69 0.0 0 0 86.58 33.11
  Q 88.23 31.94 89.37 33.45
  Q 91.72 36.54 93.31 36.57
  A 1.03 1.02 83.4 0 1 94.29 37.35
  Q 94.95 39.96 97.34 42.81
  A 1.82 1.81 44.9 0 1 97.35 45.15
  L 96.00 46.77
  A 0.58 0.57 46.9 0 0 95.98 47.47
  L 96.94 48.79
  A 0.87 0.87 0.0 0 1 96.91 49.85
  L 94.54 52.69
  A 1.78 1.78 0.0 0 0 94.47 54.86
  L 95.94 56.89
  A 1.46 1.45 -54.4 0 1 96.15 58.18
  Q 95.55 60.10 96.62 61.92
  A 1.56 1.55 37.9 0 1 96.77 63.10
  L 95.31 68.31
  A 2.85 2.74 -39.1 0 0 95.21 69.12
  L 95.39 73.64
  A 3.12 3.04 59.7 0 1 94.98 75.29
  L 92.67 79.29
  A 4.12 4.09 63.2 0 0 92.13 80.95
  L 91.78 84.41
  A 0.93 0.91 -7.4 0 1 91.18 85.17
  Q 89.40 85.83 88.17 85.71
  Q 83.74 85.28 81.13 85.57
  A 1.46 1.45 -73.4 0 1 79.85 83.19
  L 80.99 81.82
  A 0.91 0.84 -26.7 0 0 81.20 81.26
  L 81.20 76.51
  A 1.20 1.20 0.0 0 0 79.08 75.75
  L 74.08 81.76
  A 1.43 1.43 0.0 0 0 74.56 83.96
  Q 77.09 85.19 77.12 89.09
  A 0.92 0.90 78.0 0 1 76.59 89.92
  Q 74.63 90.80 72.27 90.39
  A 1.42 1.37 -11.9 0 1 71.36 89.82
  L 67.62 84.65
  A 1.24 1.16 28.6 0 1 67.39 83.95
  L 67.39 81.04
  A 0.73 0.72 68.1 0 0 66.16 80.51
  Q 65.62 81.02 65.14 81.18
  Q 64.75 81.31 64.33 80.69
  C 62.56 78.10 60.19 80.73 58.18 78.68
  A 0.52 0.52 0.0 0 0 57.36 78.79
  Q 54.76 83.40 54.85 87.13
  A 2.03 2.02 -22.4 0 1 54.21 88.65
  Q 52.89 89.89 52.45 92.57
  A 1.74 1.73 80.0 0 1 51.58 93.82
  Q 47.19 96.30 42.52 96.00
  A 1.42 1.26 11.2 0 1 41.22 94.28
  C 41.80 92.75 43.73 91.70 45.18 90.99
  A 2.18 2.16 -3.1 0 0 46.24 89.82
  Q 48.37 84.18 48.16 82.24
  Q 47.77 78.75 47.61 74.62
  A 0.45 0.44 83.4 0 0 47.08 74.20
  Z
  M 88.1207 75.7396
  A 2.58 0.94 -67.9 0 0 86.2791 77.7763
  A 2.58 0.94 -67.9 0 0 86.1793 80.5204
  A 2.58 0.94 -67.9 0 0 88.0209 78.4837
  A 2.58 0.94 -67.9 0 0 88.1207 75.7396
  Z"
/>
<ellipse fill="#0a0a0a" cx="0.00" cy="0.00" transform="translate(87.15,78.13) rotate(-67.9)" rx="2.58" ry="0.94"/>
</svg>
