<?xml version="1.0" encoding="UTF-8" standalone="no"?>
<!DOCTYPE svg PUBLIC "-//W3C//DTD SVG 1.1//EN" "http://www.w3.org/Graphics/SVG/1.1/DTD/svg11.dtd">
<svg xmlns="http://www.w3.org/2000/svg" version="1.1" viewBox="0.00 0.00 125.00 125.00">
<g stroke-width="2.00" fill="none" stroke-linecap="butt">
<path stroke="#757576" vector-effect="non-scaling-stroke" d="
  M 122.53 62.02
  A 60.51 60.51 0.0 0 0 62.02 1.51
  A 60.51 60.51 0.0 0 0 1.51 62.02
  A 60.51 60.51 0.0 0 0 62.02 122.53
  A 60.51 60.51 0.0 0 0 122.53 62.02"
/>
<path stroke="#757576" vector-effect="non-scaling-stroke" d="
  M 120.22 61.99
  A 58.25 58.25 0.0 0 0 61.97 3.74
  A 58.25 58.25 0.0 0 0 3.72 61.99
  A 58.25 58.25 0.0 0 0 61.97 120.24
  A 58.25 58.25 0.0 0 0 120.22 61.99"
/>
<path stroke="#3b3b3b" vector-effect="non-scaling-stroke" d="
  M 117.05 62.01
  A 54.82 54.82 0.0 0 0 62.23 7.19
  A 54.82 54.82 0.0 0 0 7.41 62.01
  A 54.82 54.82 0.0 0 0 62.23 116.83
  A 54.82 54.82 0.0 0 0 117.05 62.01"
/>
<path stroke="#3b3b3b" vector-effect="non-scaling-stroke" d="
  M 111.72 62.00
  A 49.52 49.52 0.0 0 0 62.20 12.48
  A 49.52 49.52 0.0 0 0 12.68 62.00
  A 49.52 49.52 0.0 0 0 62.20 111.52
  A 49.52 49.52 0.0 0 0 111.72 62.00"
/>
<path stroke="#808080" vector-effect="non-scaling-stroke" d="
  M 68.20 80.01
  L 69.55 83.44
  A 1.81 1.80 79.3 0 0 71.23 84.59
  L 77.53 84.59
  A 0.94 0.94 0.0 0 0 78.40 83.31
  L 73.13 69.87
  A 4.81 4.78 -45.7 0 1 73.10 66.47
  L 76.95 56.23
  A 0.70 0.70 0.0 0 1 78.26 56.22
  L 88.89 83.33
  A 2.53 2.53 0.0 0 0 91.25 84.94
  L 97.87 84.94
  A 1.34 1.34 0.0 0 0 99.13 83.13
  Q 95.67 73.70 89.10 56.31
  C 85.81 47.61 83.84 40.86 80.41 33.89
  A 0.49 0.48 -47.5 0 0 79.52 33.93
  L 69.87 59.67
  A 0.34 0.33 46.4 0 1 69.24 59.65
  Q 66.97 52.82 64.93 47.31
  Q 63.84 44.37 62.39 42.18
  A 0.44 0.43 -51.5 0 0 61.62 42.27
  L 55.27 59.22
  A 0.35 0.35 0.0 0 1 54.61 59.23
  Q 50.42 48.76 47.50 40.07
  C 46.81 38.04 45.47 35.55 44.41 33.72
  A 0.32 0.32 0.0 0 0 43.83 33.77
  L 25.19 83.49
  A 1.09 1.09 0.0 0 0 26.21 84.96
  L 28.54 84.96
  A 2.13 2.12 10.7 0 0 30.52 83.62
  L 41.73 55.32
  A 0.22 0.22 0.0 0 1 42.14 55.32
  L 49.30 73.58
  A 2.32 2.30 -45.6 0 1 49.31 75.23
  L 46.21 83.50
  A 0.82 0.81 -79.7 0 0 46.97 84.60
  L 49.13 84.60
  A 1.68 1.67 10.3 0 0 50.70 83.52
  L 51.50 81.39
  A 0.63 0.63 0.0 0 1 52.71 81.51
  Q 53.03 83.53 53.91 84.47
  A 1.25 1.24 68.6 0 0 54.79 84.86
  Q 59.10 84.96 63.17 85.15
  C 66.41 85.30 66.79 82.62 67.65 80.02
  A 0.29 0.29 0.0 0 1 68.20 80.01"
/>
<path stroke="#808080" vector-effect="non-scaling-stroke" d="
  M 57.37 66.90
  A 0.32 0.32 0.0 0 0 57.37 67.14
  L 62.01 78.98
  A 0.32 0.32 0.0 0 0 62.61 78.99
  L 65.15 72.57
  A 0.32 0.32 0.0 0 0 65.15 72.33
  L 60.51 60.49
  A 0.32 0.32 0.0 0 0 59.91 60.48
  L 57.37 66.90"
/>
</g>
<path fill="#090909" d="
  M 125.00 0.00
  L 125.00 125.00
  L 0.00 125.00
  L 0.00 0.00
  L 125.00 0.00
  Z
  M 122.53 62.02
  A 60.51 60.51 0.0 0 0 62.02 1.51
  A 60.51 60.51 0.0 0 0 1.51 62.02
  A 60.51 60.51 0.0 0 0 62.02 122.53
  A 60.51 60.51 0.0 0 0 122.53 62.02
  Z"
/>
<path fill="#e1e0e3" d="
  M 122.53 62.02
  A 60.51 60.51 0.0 0 1 62.02 122.53
  A 60.51 60.51 0.0 0 1 1.51 62.02
  A 60.51 60.51 0.0 0 1 62.02 1.51
  A 60.51 60.51 0.0 0 1 122.53 62.02
  Z
  M 120.22 61.99
  A 58.25 58.25 0.0 0 0 61.97 3.74
  A 58.25 58.25 0.0 0 0 3.72 61.99
  A 58.25 58.25 0.0 0 0 61.97 120.24
  A 58.25 58.25 0.0 0 0 120.22 61.99
  Z"
/>
<path fill="#090909" d="
  M 120.22 61.99
  A 58.25 58.25 0.0 0 1 61.97 120.24
  A 58.25 58.25 0.0 0 1 3.72 61.99
  A 58.25 58.25 0.0 0 1 61.97 3.74
  A 58.25 58.25 0.0 0 1 120.22 61.99
  Z
  M 117.05 62.01
  A 54.82 54.82 0.0 0 0 62.23 7.19
  A 54.82 54.82 0.0 0 0 7.41 62.01
  A 54.82 54.82 0.0 0 0 62.23 116.83
  A 54.82 54.82 0.0 0 0 117.05 62.01
  Z"
/>
<path fill="#6c6c6c" d="
  M 117.05 62.01
  A 54.82 54.82 0.0 0 1 62.23 116.83
  A 54.82 54.82 0.0 0 1 7.41 62.01
  A 54.82 54.82 0.0 0 1 62.23 7.19
  A 54.82 54.82 0.0 0 1 117.05 62.01
  Z
  M 111.72 62.00
  A 49.52 49.52 0.0 0 0 62.20 12.48
  A 49.52 49.52 0.0 0 0 12.68 62.00
  A 49.52 49.52 0.0 0 0 62.20 111.52
  A 49.52 49.52 0.0 0 0 111.72 62.00
  Z"
/>
<path fill="#090909" d="
  M 111.72 62.00
  A 49.52 49.52 0.0 0 1 62.20 111.52
  A 49.52 49.52 0.0 0 1 12.68 62.00
  A 49.52 49.52 0.0 0 1 62.20 12.48
  A 49.52 49.52 0.0 0 1 111.72 62.00
  Z
  M 68.20 80.01
  L 69.55 83.44
  A 1.81 1.80 79.3 0 0 71.23 84.59
  L 77.53 84.59
  A 0.94 0.94 0.0 0 0 78.40 83.31
  L 73.13 69.87
  A 4.81 4.78 -45.7 0 1 73.10 66.47
  L 76.95 56.23
  A 0.70 0.70 0.0 0 1 78.26 56.22
  L 88.89 83.33
  A 2.53 2.53 0.0 0 0 91.25 84.94
  L 97.87 84.94
  A 1.34 1.34 0.0 0 0 99.13 83.13
  Q 95.67 73.70 89.10 56.31
  C 85.81 47.61 83.84 40.86 80.41 33.89
  A 0.49 0.48 -47.5 0 0 79.52 33.93
  L 69.87 59.67
  A 0.34 0.33 46.4 0 1 69.24 59.65
  Q 66.97 52.82 64.93 47.31
  Q 63.84 44.37 62.39 42.18
  A 0.44 0.43 -51.5 0 0 61.62 42.27
  L 55.27 59.22
  A 0.35 0.35 0.0 0 1 54.61 59.23
  Q 50.42 48.76 47.50 40.07
  C 46.81 38.04 45.47 35.55 44.41 33.72
  A 0.32 0.32 0.0 0 0 43.83 33.77
  L 25.19 83.49
  A 1.09 1.09 0.0 0 0 26.21 84.96
  L 28.54 84.96
  A 2.13 2.12 10.7 0 0 30.52 83.62
  L 41.73 55.32
  A 0.22 0.22 0.0 0 1 42.14 55.32
  L 49.30 73.58
  A 2.32 2.30 -45.6 0 1 49.31 75.23
  L 46.21 83.50
  A 0.82 0.81 -79.7 0 0 46.97 84.60
  L 49.13 84.60
  A 1.68 1.67 10.3 0 0 50.70 83.52
  L 51.50 81.39
  A 0.63 0.63 0.0 0 1 52.71 81.51
  Q 53.03 83.53 53.91 84.47
  A 1.25 1.24 68.6 0 0 54.79 84.86
  Q 59.10 84.96 63.17 85.15
  C 66.41 85.30 66.79 82.62 67.65 80.02
  A 0.29 0.29 0.0 0 1 68.20 80.01
  Z"
/>
<path fill="#f6f6f6" d="
  M 67.65 80.02
  C 66.79 82.62 66.41 85.30 63.17 85.15
  Q 59.10 84.96 54.79 84.86
  A 1.25 1.24 68.6 0 1 53.91 84.47
  Q 53.03 83.53 52.71 81.51
  A 0.63 0.63 0.0 0 0 51.50 81.39
  L 50.70 83.52
  A 1.68 1.67 10.3 0 1 49.13 84.60
  L 46.97 84.60
  A 0.82 0.81 -79.7 0 1 46.21 83.50
  L 49.31 75.23
  A 2.32 2.30 -45.6 0 0 49.30 73.58
  L 42.14 55.32
  A 0.22 0.22 0.0 0 0 41.73 55.32
  L 30.52 83.62
  A 2.13 2.12 10.7 0 1 28.54 84.96
  L 26.21 84.96
  A 1.09 1.09 0.0 0 1 25.19 83.49
  L 43.83 33.77
  A 0.32 0.32 0.0 0 1 44.41 33.72
  C 45.47 35.55 46.81 38.04 47.50 40.07
  Q 50.42 48.76 54.61 59.23
  A 0.35 0.35 0.0 0 0 55.27 59.22
  L 61.62 42.27
  A 0.44 0.43 -51.5 0 1 62.39 42.18
  Q 63.84 44.37 64.93 47.31
  Q 66.97 52.82 69.24 59.65
  A 0.34 0.33 46.4 0 0 69.87 59.67
  L 79.52 33.93
  A 0.49 0.48 -47.5 0 1 80.41 33.89
  C 83.84 40.86 85.81 47.61 89.10 56.31
  Q 95.67 73.70 99.13 83.13
  A 1.34 1.34 0.0 0 1 97.87 84.94
  L 91.25 84.94
  A 2.53 2.53 0.0 0 1 88.89 83.33
  L 78.26 56.22
  A 0.70 0.70 0.0 0 0 76.95 56.23
  L 73.10 66.47
  A 4.81 4.78 -45.7 0 0 73.13 69.87
  L 78.40 83.31
  A 0.94 0.94 0.0 0 1 77.53 84.59
  L 71.23 84.59
  A 1.81 1.80 79.3 0 1 69.55 83.44
  L 68.20 80.01
  A 0.29 0.29 0.0 0 0 67.65 80.02
  Z
  M 57.37 66.90
  A 0.32 0.32 0.0 0 0 57.37 67.14
  L 62.01 78.98
  A 0.32 0.32 0.0 0 0 62.61 78.99
  L 65.15 72.57
  A 0.32 0.32 0.0 0 0 65.15 72.33
  L 60.51 60.49
  A 0.32 0.32 0.0 0 0 59.91 60.48
  L 57.37 66.90
  Z"
/>
<path fill="#090909" d="
  M 57.37 66.90
  L 59.91 60.48
  A 0.32 0.32 0.0 0 1 60.51 60.49
  L 65.15 72.33
  A 0.32 0.32 0.0 0 1 65.15 72.57
  L 62.61 78.99
  A 0.32 0.32 0.0 0 1 62.01 78.98
  L 57.37 67.14
  A 0.32 0.32 0.0 0 1 57.37 66.90
  Z"
/>
</svg>
