<?xml version="1.0" encoding="UTF-8" standalone="no"?>
<!DOCTYPE svg PUBLIC "-//W3C//DTD SVG 1.1//EN" "http://www.w3.org/Graphics/SVG/1.1/DTD/svg11.dtd">
<svg xmlns="http://www.w3.org/2000/svg" version="1.1" viewBox="0.00 0.00 125.00 125.00">
<g stroke-width="2.00" fill="none" stroke-linecap="butt">
<path stroke="#757475" vector-effect="non-scaling-stroke" d="
  M 122.45 62.01
  A 60.45 60.45 0.0 0 0 62.00 1.56
  A 60.45 60.45 0.0 0 0 1.55 62.01
  A 60.45 60.45 0.0 0 0 62.00 122.46
  A 60.45 60.45 0.0 0 0 122.45 62.01"
/>
<path stroke="#757475" vector-effect="non-scaling-stroke" d="
  M 120.31 62.00
  A 58.31 58.31 0.0 0 0 62.00 3.69
  A 58.31 58.31 0.0 0 0 3.69 62.00
  A 58.31 58.31 0.0 0 0 62.00 120.31
  A 58.31 58.31 0.0 0 0 120.31 62.00"
/>
<path stroke="#383838" vector-effect="non-scaling-stroke" d="
  M 117.05 61.55
  A 54.82 54.82 0.0 0 0 62.23 6.73
  A 54.82 54.82 0.0 0 0 7.41 61.55
  A 54.82 54.82 0.0 0 0 62.23 116.37
  A 54.82 54.82 0.0 0 0 117.05 61.55"
/>
<path stroke="#383838" vector-effect="non-scaling-stroke" d="
  M 111.77 61.54
  A 49.54 49.54 0.0 0 0 62.23 12.00
  A 49.54 49.54 0.0 0 0 12.69 61.54
  A 49.54 49.54 0.0 0 0 62.23 111.08
  A 49.54 49.54 0.0 0 0 111.77 61.54"
/>
<path stroke="#808080" vector-effect="non-scaling-stroke" d="
  M 76.52 51.30
  Q 76.74 51.68 77.19 51.44
  Q 79.03 50.46 89.89 43.69
  A 0.82 0.77 -56.4 0 1 90.40 43.57
  L 94.98 44.11
  A 1.80 1.80 0.0 0 0 96.63 43.40
  L 101.37 37.12
  A 0.34 0.11 65.8 0 0 101.34 36.84
  Q 101.32 36.80 101.27 36.71
  Q 101.22 36.62 101.19 36.59
  A 0.34 0.11 53.2 0 0 100.96 36.43
  L 93.17 37.53
  A 1.80 1.80 0.0 0 0 91.75 38.63
  L 90.01 42.90
  A 0.82 0.77 -4.7 0 1 89.65 43.29
  Q 78.47 49.51 76.72 50.65
  Q 76.29 50.92 76.52 51.30"
/>
<path stroke="#808080" vector-effect="non-scaling-stroke" d="
  M 59.2636 37.1477
  A 0.89 0.89 0.0 0 0 58.0439 36.8368
  L 46.2296 43.8516
  A 0.89 0.89 0.0 0 0 45.9187 45.0713
  L 67.1164 80.7723
  A 0.89 0.89 0.0 0 0 68.3361 81.0832
  L 80.1504 74.0684
  A 0.89 0.89 0.0 0 0 80.4613 72.8487
  L 59.2636 37.1477"
/>
<path stroke="#808080" vector-effect="non-scaling-stroke" d="
  M 73.97 45.51
  Q 74.17 45.85 75.87 44.85
  Q 77.10 44.12 77.76 44.12
  Q 79.53 44.13 81.77 44.41
  A 2.14 2.13 -66.9 0 0 83.70 43.63
  Q 86.47 40.22 88.23 37.66
  Q 88.40 37.42 88.22 37.10
  Q 88.03 36.79 87.73 36.82
  Q 84.64 37.13 80.32 37.90
  A 2.14 2.13 5.8 0 0 78.70 39.22
  Q 77.87 41.31 77.02 42.87
  Q 76.70 43.44 75.47 44.18
  Q 73.77 45.17 73.97 45.51"
/>
<path stroke="#808080" vector-effect="non-scaling-stroke" d="
  M 73.20 53.10
  Q 73.79 54.09 74.35 55.07
  Q 76.97 59.74 80.23 64.00
  Q 80.79 64.74 81.58 64.27
  Q 82.37 63.80 81.99 62.95
  Q 79.76 58.07 76.89 53.55
  Q 76.28 52.60 75.69 51.61
  Q 75.10 50.63 74.55 49.65
  Q 71.92 44.98 68.67 40.71
  Q 68.10 39.97 67.31 40.45
  Q 66.52 40.92 66.91 41.77
  Q 69.13 46.65 72.01 51.17
  Q 72.61 52.12 73.20 53.10"
/>
<path stroke="#808080" vector-effect="non-scaling-stroke" d="
  M 81.17 56.40
  Q 83.35 55.88 86.63 56.38
  A 1.60 1.59 23.6 0 0 88.14 55.79
  L 93.09 49.54
  A 0.50 0.50 0.0 0 0 92.62 48.73
  L 85.15 49.86
  A 1.86 1.86 0.0 0 0 83.80 50.78
  L 80.82 55.93
  A 0.32 0.32 0.0 0 0 81.17 56.40"
/>
<path stroke="#757475" vector-effect="non-scaling-stroke" d="
  M 46.40 60.67
  L 23.60 74.33
  A 0.51 0.50 60.0 0 0 23.42 75.01
  L 23.63 75.36
  A 0.46 0.45 -30.4 0 0 24.26 75.52
  L 46.93 61.80"
/>
<path stroke="#808080" vector-effect="non-scaling-stroke" d="
  M 46.93 61.80
  Q 48.99 63.56 49.48 65.86
  A 0.77 0.76 69.8 0 1 49.11 66.68
  L 27.06 79.42
  A 0.91 0.91 0.0 0 0 26.72 80.67
  L 26.87 80.92
  A 0.09 0.09 0.0 0 0 27.00 80.95
  L 49.61 67.90
  A 1.27 1.27 0.0 0 1 51.35 68.36
  L 52.57 70.47
  A 1.34 1.33 60.3 0 1 52.08 72.29
  L 30.67 84.65
  A 1.42 1.41 -17.6 0 0 29.97 85.98
  L 30.00 86.30
  A 0.14 0.13 73.1 0 0 30.20 86.41
  L 53.34 73.05
  A 0.68 0.66 -29.8 0 1 54.26 73.29
  L 56.61 77.36
  A 0.96 0.96 0.0 0 0 57.93 77.71
  L 58.30 77.50
  A 0.86 0.86 0.0 0 0 58.62 76.32
  L 45.90 54.30
  A 1.21 1.20 -25.9 0 0 44.41 53.79
  L 44.04 53.94
  A 1.03 1.01 63.5 0 0 43.58 55.34
  L 46.40 60.67"
/>
<path stroke="#e8e7e8" vector-effect="non-scaling-stroke" d="
  M 46.93 61.80
  L 46.40 60.67"
/>
</g>
<path fill="none" d="
  M 125.00 0.00
  L 125.00 125.00
  L 0.00 125.00
  L 0.00 0.00
  L 125.00 0.00
  Z
  M 122.45 62.01
  A 60.45 60.45 0.0 0 0 62.00 1.56
  A 60.45 60.45 0.0 0 0 1.55 62.01
  A 60.45 60.45 0.0 0 0 62.00 122.46
  A 60.45 60.45 0.0 0 0 122.45 62.01
  Z"
/>
<path fill="#dddbdd" d="
  M 122.45 62.01
  A 60.45 60.45 0.0 0 1 62.00 122.46
  A 60.45 60.45 0.0 0 1 1.55 62.01
  A 60.45 60.45 0.0 0 1 62.00 1.56
  A 60.45 60.45 0.0 0 1 122.45 62.01
  Z
  M 120.31 62.00
  A 58.31 58.31 0.0 0 0 62.00 3.69
  A 58.31 58.31 0.0 0 0 3.69 62.00
  A 58.31 58.31 0.0 0 0 62.00 120.31
  A 58.31 58.31 0.0 0 0 120.31 62.00
  Z"
/>
<path fill="none" d="
  M 120.31 62.00
  A 58.31 58.31 0.0 0 1 62.00 120.31
  A 58.31 58.31 0.0 0 1 3.69 62.00
  A 58.31 58.31 0.0 0 1 62.00 3.69
  A 58.31 58.31 0.0 0 1 120.31 62.00
  Z
  M 117.05 61.55
  A 54.82 54.82 0.0 0 0 62.23 6.73
  A 54.82 54.82 0.0 0 0 7.41 61.55
  A 54.82 54.82 0.0 0 0 62.23 116.37
  A 54.82 54.82 0.0 0 0 117.05 61.55
  Z"
/>
<path fill="#626262" d="
  M 117.05 61.55
  A 54.82 54.82 0.0 0 1 62.23 116.37
  A 54.82 54.82 0.0 0 1 7.41 61.55
  A 54.82 54.82 0.0 0 1 62.23 6.73
  A 54.82 54.82 0.0 0 1 117.05 61.55
  Z
  M 111.77 61.54
  A 49.54 49.54 0.0 0 0 62.23 12.00
  A 49.54 49.54 0.0 0 0 12.69 61.54
  A 49.54 49.54 0.0 0 0 62.23 111.08
  A 49.54 49.54 0.0 0 0 111.77 61.54
  Z"
/>
<path fill="none" d="
  M 111.77 61.54
  A 49.54 49.54 0.0 0 1 62.23 111.08
  A 49.54 49.54 0.0 0 1 12.69 61.54
  A 49.54 49.54 0.0 0 1 62.23 12.00
  A 49.54 49.54 0.0 0 1 111.77 61.54
  Z
  M 76.52 51.30
  Q 76.74 51.68 77.19 51.44
  Q 79.03 50.46 89.89 43.69
  A 0.82 0.77 -56.4 0 1 90.40 43.57
  L 94.98 44.11
  A 1.80 1.80 0.0 0 0 96.63 43.40
  L 101.37 37.12
  A 0.34 0.11 65.8 0 0 101.34 36.84
  Q 101.32 36.80 101.27 36.71
  Q 101.22 36.62 101.19 36.59
  A 0.34 0.11 53.2 0 0 100.96 36.43
  L 93.17 37.53
  A 1.80 1.80 0.0 0 0 91.75 38.63
  L 90.01 42.90
  A 0.82 0.77 -4.7 0 1 89.65 43.29
  Q 78.47 49.51 76.72 50.65
  Q 76.29 50.92 76.52 51.30
  Z
  M 59.2636 37.1477
  A 0.89 0.89 0.0 0 0 58.0439 36.8368
  L 46.2296 43.8516
  A 0.89 0.89 0.0 0 0 45.9187 45.0713
  L 67.1164 80.7723
  A 0.89 0.89 0.0 0 0 68.3361 81.0832
  L 80.1504 74.0684
  A 0.89 0.89 0.0 0 0 80.4613 72.8487
  L 59.2636 37.1477
  Z
  M 73.97 45.51
  Q 74.17 45.85 75.87 44.85
  Q 77.10 44.12 77.76 44.12
  Q 79.53 44.13 81.77 44.41
  A 2.14 2.13 -66.9 0 0 83.70 43.63
  Q 86.47 40.22 88.23 37.66
  Q 88.40 37.42 88.22 37.10
  Q 88.03 36.79 87.73 36.82
  Q 84.64 37.13 80.32 37.90
  A 2.14 2.13 5.8 0 0 78.70 39.22
  Q 77.87 41.31 77.02 42.87
  Q 76.70 43.44 75.47 44.18
  Q 73.77 45.17 73.97 45.51
  Z
  M 73.20 53.10
  Q 73.79 54.09 74.35 55.07
  Q 76.97 59.74 80.23 64.00
  Q 80.79 64.74 81.58 64.27
  Q 82.37 63.80 81.99 62.95
  Q 79.76 58.07 76.89 53.55
  Q 76.28 52.60 75.69 51.61
  Q 75.10 50.63 74.55 49.65
  Q 71.92 44.98 68.67 40.71
  Q 68.10 39.97 67.31 40.45
  Q 66.52 40.92 66.91 41.77
  Q 69.13 46.65 72.01 51.17
  Q 72.61 52.12 73.20 53.10
  Z
  M 81.17 56.40
  Q 83.35 55.88 86.63 56.38
  A 1.60 1.59 23.6 0 0 88.14 55.79
  L 93.09 49.54
  A 0.50 0.50 0.0 0 0 92.62 48.73
  L 85.15 49.86
  A 1.86 1.86 0.0 0 0 83.80 50.78
  L 80.82 55.93
  A 0.32 0.32 0.0 0 0 81.17 56.40
  Z
  M 46.40 60.67
  L 23.60 74.33
  A 0.51 0.50 60.0 0 0 23.42 75.01
  L 23.63 75.36
  A 0.46 0.45 -30.4 0 0 24.26 75.52
  L 46.93 61.80
  Q 48.99 63.56 49.48 65.86
  A 0.77 0.76 69.8 0 1 49.11 66.68
  L 27.06 79.42
  A 0.91 0.91 0.0 0 0 26.72 80.67
  L 26.87 80.92
  A 0.09 0.09 0.0 0 0 27.00 80.95
  L 49.61 67.90
  A 1.27 1.27 0.0 0 1 51.35 68.36
  L 52.57 70.47
  A 1.34 1.33 60.3 0 1 52.08 72.29
  L 30.67 84.65
  A 1.42 1.41 -17.6 0 0 29.97 85.98
  L 30.00 86.30
  A 0.14 0.13 73.1 0 0 30.20 86.41
  L 53.34 73.05
  A 0.68 0.66 -29.8 0 1 54.26 73.29
  L 56.61 77.36
  A 0.96 0.96 0.0 0 0 57.93 77.71
  L 58.30 77.50
  A 0.86 0.86 0.0 0 0 58.62 76.32
  L 45.90 54.30
  A 1.21 1.20 -25.9 0 0 44.41 53.79
  L 44.04 53.94
  A 1.03 1.01 63.5 0 0 43.58 55.34
  L 46.40 60.67
  Z"
/>
<path fill="#f3f3f3" d="
  M 101.27 36.71
  Q 101.32 36.80 101.34 36.84
  A 0.34 0.11 65.8 0 1 101.37 37.12
  L 96.63 43.40
  A 1.80 1.80 0.0 0 1 94.98 44.11
  L 90.40 43.57
  A 0.82 0.77 -56.4 0 0 89.89 43.69
  Q 79.03 50.46 77.19 51.44
  Q 76.74 51.68 76.52 51.30
  Q 76.29 50.92 76.72 50.65
  Q 78.47 49.51 89.65 43.29
  A 0.82 0.77 -4.7 0 0 90.01 42.90
  L 91.75 38.63
  A 1.80 1.80 0.0 0 1 93.17 37.53
  L 100.96 36.43
  A 0.34 0.11 53.2 0 1 101.19 36.59
  Q 101.22 36.62 101.27 36.71
  Z"
/>
<rect fill="#f3f3f3" x="-7.76" y="-21.65" transform="translate(63.19,58.96) rotate(-30.7)" width="15.52" height="43.30" rx="0.89"/>
<path fill="#f3f3f3" d="
  M 88.22 37.10
  Q 88.40 37.42 88.23 37.66
  Q 86.47 40.22 83.70 43.63
  A 2.14 2.13 -66.9 0 1 81.77 44.41
  Q 79.53 44.13 77.76 44.12
  Q 77.10 44.12 75.87 44.85
  Q 74.17 45.85 73.97 45.51
  Q 73.77 45.17 75.47 44.18
  Q 76.70 43.44 77.02 42.87
  Q 77.87 41.31 78.70 39.22
  A 2.14 2.13 5.8 0 1 80.32 37.90
  Q 84.64 37.13 87.73 36.82
  Q 88.03 36.79 88.22 37.10
  Z"
/>
<path fill="#f3f3f3" d="
  M 67.31 40.45
  Q 68.10 39.97 68.67 40.71
  Q 71.92 44.98 74.55 49.65
  Q 75.10 50.63 75.69 51.61
  Q 76.28 52.60 76.89 53.55
  Q 79.76 58.07 81.99 62.95
  Q 82.37 63.80 81.58 64.27
  Q 80.79 64.74 80.23 64.00
  Q 76.97 59.74 74.35 55.07
  Q 73.79 54.09 73.20 53.10
  Q 72.61 52.12 72.01 51.17
  Q 69.13 46.65 66.91 41.77
  Q 66.52 40.92 67.31 40.45
  Z"
/>
<path fill="#f3f3f3" d="
  M 80.82 55.93
  L 83.80 50.78
  A 1.86 1.86 0.0 0 1 85.15 49.86
  L 92.62 48.73
  A 0.50 0.50 0.0 0 1 93.09 49.54
  L 88.14 55.79
  A 1.60 1.59 23.6 0 1 86.63 56.38
  Q 83.35 55.88 81.17 56.40
  A 0.32 0.32 0.0 0 1 80.82 55.93
  Z"
/>
<path fill="#f3f3f3" d="
  M 46.93 61.80
  L 46.40 60.67
  L 43.58 55.34
  A 1.03 1.01 63.5 0 1 44.04 53.94
  L 44.41 53.79
  A 1.21 1.20 -25.9 0 1 45.90 54.30
  L 58.62 76.32
  A 0.86 0.86 0.0 0 1 58.30 77.50
  L 57.93 77.71
  A 0.96 0.96 0.0 0 1 56.61 77.36
  L 54.26 73.29
  A 0.68 0.66 -29.8 0 0 53.34 73.05
  L 30.20 86.41
  A 0.14 0.13 73.1 0 1 30.00 86.30
  L 29.97 85.98
  A 1.42 1.41 -17.6 0 1 30.67 84.65
  L 52.08 72.29
  A 1.34 1.33 60.3 0 0 52.57 70.47
  L 51.35 68.36
  A 1.27 1.27 0.0 0 0 49.61 67.90
  L 27.00 80.95
  A 0.09 0.09 0.0 0 1 26.87 80.92
  L 26.72 80.67
  A 0.91 0.91 0.0 0 1 27.06 79.42
  L 49.11 66.68
  A 0.77 0.76 69.8 0 0 49.48 65.86
  Q 48.99 63.56 46.93 61.80
  Z"
/>
<path fill="#dddbdd" d="
  M 46.93 61.80
  L 24.26 75.52
  A 0.46 0.45 -30.4 0 1 23.63 75.36
  L 23.42 75.01
  A 0.51 0.50 60.0 0 1 23.60 74.33
  L 46.40 60.67
  L 46.93 61.80
  Z"
/>
</svg>
