<?xml version="1.0" encoding="UTF-8" standalone="no"?>
<!DOCTYPE svg PUBLIC "-//W3C//DTD SVG 1.1//EN" "http://www.w3.org/Graphics/SVG/1.1/DTD/svg11.dtd">
<svg xmlns="http://www.w3.org/2000/svg" version="1.1" viewBox="0.00 0.00 125.00 125.00">
<g stroke-width="2.00" fill="none" stroke-linecap="butt">
<path stroke="#6e6c6e" vector-effect="non-scaling-stroke" d="
  M 122.35 61.98
  A 60.34 60.34 0.0 0 0 62.01 1.64
  A 60.34 60.34 0.0 0 0 1.67 61.98
  A 60.34 60.34 0.0 0 0 62.01 122.32
  A 60.34 60.34 0.0 0 0 122.35 61.98"
/>
<path stroke="#6e6c6e" vector-effect="non-scaling-stroke" d="
  M 120.47 62.02
  A 58.46 58.46 0.0 0 0 62.01 3.56
  A 58.46 58.46 0.0 0 0 3.55 62.02
  A 58.46 58.46 0.0 0 0 62.01 120.48
  A 58.46 58.46 0.0 0 0 120.47 62.02"
/>
<path stroke="#2c2b2c" vector-effect="non-scaling-stroke" d="
  M 117.10 61.98
  A 54.86 54.86 0.0 0 0 62.24 7.12
  A 54.86 54.86 0.0 0 0 7.38 61.98
  A 54.86 54.86 0.0 0 0 62.24 116.84
  A 54.86 54.86 0.0 0 0 117.10 61.98"
/>
<path stroke="#2c2b2c" vector-effect="non-scaling-stroke" d="
  M 109.84 46.39
  Q 106.17 38.39 101.00 31.50
  Q 97.42 26.72 92.65 22.86
  Q 90.92 21.45 84.60 17.80
  C 77.03 13.43 67.49 11.89 58.91 12.76
  Q 52.28 13.44 52.25 13.44
  C 46.44 14.12 42.89 15.95 37.65 18.90
  C 30.47 22.95 24.77 29.06 20.08 36.03
  C 15.02 43.56 13.00 50.81 12.79 59.53
  C 12.33 79.00 21.36 96.18 38.46 105.43
  Q 43.83 108.33 46.60 109.16
  Q 67.89 115.49 86.88 105.05
  Q 91.10 102.73 94.95 99.13
  C 108.66 86.30 114.47 69.54 111.18 50.78
  Q 110.77 48.43 109.84 46.39"
/>
<path stroke="#7c7b7c" vector-effect="non-scaling-stroke" d="
  M 105.21 64.12
  L 67.99 58.31
  A 0.81 0.81 0.0 0 1 67.31 57.56
  L 66.31 41.26
  A 0.55 0.54 -65.4 0 1 67.29 40.89
  L 70.32 44.91
  A 0.35 0.35 0.0 0 0 70.93 44.59
  Q 67.86 34.88 65.52 25.97
  A 1.60 1.59 -29.4 0 0 62.87 25.24
  C 61.74 26.32 62.28 28.81 62.80 30.06
  A 1.48 1.43 42.2 0 1 62.86 30.97
  Q 61.01 37.77 56.34 41.74
  A 0.39 0.39 0.0 0 0 56.53 42.42
  L 58.34 42.70
  A 0.53 0.53 0.0 0 1 58.76 43.37
  L 55.26 55.10
  A 0.25 0.25 0.0 0 0 55.69 55.32
  C 57.45 53.05 60.63 48.43 63.65 52.11
  Q 64.55 53.21 65.35 57.30
  A 0.44 0.44 0.0 0 1 64.87 57.82
  Q 60.71 57.28 55.98 58.15
  Q 35.70 61.86 19.02 63.93
  A 0.35 0.34 47.8 0 0 18.99 64.61
  L 64.96 75.18
  A 7.30 7.14 -39.9 0 0 67.03 75.34
  Q 69.09 75.20 70.70 74.72
  Q 85.02 70.42 99.70 66.49
  Q 101.72 65.95 105.24 64.33
  A 0.11 0.11 0.0 0 0 105.21 64.12"
/>
<path stroke="#7c7b7c" vector-effect="non-scaling-stroke" d="
  M 57.03 101.82
  C 66.96 99.85 73.67 94.10 79.50 85.87
  A 0.35 0.35 0.0 0 1 79.96 85.77
  L 80.01 85.80
  A 0.25 0.24 -51.6 0 1 80.03 85.99
  L 78.54 91.02
  A 0.45 0.45 0.0 0 0 79.26 91.49
  Q 86.48 85.26 91.73 77.55
  A 0.32 0.32 0.0 0 0 91.28 77.12
  L 84.81 81.99
  A 0.60 0.60 0.0 0 1 83.86 81.42
  L 84.53 77.08
  A 0.55 0.54 79.6 0 0 83.72 76.52
  L 67.93 85.64
  A 1.30 1.30 0.0 0 1 66.51 85.55
  C 57.49 78.79 47.10 75.06 35.63 75.85
  A 0.96 0.96 0.0 0 0 34.94 77.39
  Q 35.91 78.67 36.27 79.95
  A 0.32 0.32 0.0 0 1 35.80 80.31
  L 28.16 75.89
  A 0.61 0.60 -70.4 0 0 27.26 76.32
  L 26.96 78.30
  A 0.79 0.79 0.0 0 1 25.79 78.86
  L 22.89 77.18
  A 0.41 0.41 0.0 0 0 22.37 77.79
  Q 26.31 82.71 32.87 85.37
  A 0.37 0.37 0.0 0 0 33.33 84.83
  L 31.25 81.40
  A 0.66 0.65 59.6 0 1 31.48 80.50
  Q 31.49 80.50 31.74 80.50
  A 0.19 0.17 62.0 0 1 31.85 80.54
  L 45.31 90.87
  A 0.33 0.32 9.5 0 0 45.82 90.51
  L 43.20 82.76
  A 0.63 0.63 0.0 0 1 43.76 81.93
  C 49.85 81.54 55.37 83.35 58.79 88.38
  Q 63.61 95.46 56.83 101.40
  A 0.24 0.24 0.0 0 0 57.03 101.82"
/>
</g>
<path fill="#090809" d="
  M 125.00 0.00
  L 125.00 125.00
  L 0.00 125.00
  L 0.00 0.00
  L 125.00 0.00
  Z
  M 122.35 61.98
  A 60.34 60.34 0.0 0 0 62.01 1.64
  A 60.34 60.34 0.0 0 0 1.67 61.98
  A 60.34 60.34 0.0 0 0 62.01 122.32
  A 60.34 60.34 0.0 0 0 122.35 61.98
  Z"
/>
<path fill="#d3d0d2" d="
  M 122.35 61.98
  A 60.34 60.34 0.0 0 1 62.01 122.32
  A 60.34 60.34 0.0 0 1 1.67 61.98
  A 60.34 60.34 0.0 0 1 62.01 1.64
  A 60.34 60.34 0.0 0 1 122.35 61.98
  Z
  M 120.47 62.02
  A 58.46 58.46 0.0 0 0 62.01 3.56
  A 58.46 58.46 0.0 0 0 3.55 62.02
  A 58.46 58.46 0.0 0 0 62.01 120.48
  A 58.46 58.46 0.0 0 0 120.47 62.02
  Z"
/>
<path fill="#090809" d="
  M 120.47 62.02
  A 58.46 58.46 0.0 0 1 62.01 120.48
  A 58.46 58.46 0.0 0 1 3.55 62.02
  A 58.46 58.46 0.0 0 1 62.01 3.56
  A 58.46 58.46 0.0 0 1 120.47 62.02
  Z
  M 117.10 61.98
  A 54.86 54.86 0.0 0 0 62.24 7.12
  A 54.86 54.86 0.0 0 0 7.38 61.98
  A 54.86 54.86 0.0 0 0 62.24 116.84
  A 54.86 54.86 0.0 0 0 117.10 61.98
  Z"
/>
<path fill="#4e4e4e" d="
  M 117.10 61.98
  A 54.86 54.86 0.0 0 1 62.24 116.84
  A 54.86 54.86 0.0 0 1 7.38 61.98
  A 54.86 54.86 0.0 0 1 62.24 7.12
  A 54.86 54.86 0.0 0 1 117.10 61.98
  Z
  M 109.84 46.39
  Q 106.17 38.39 101.00 31.50
  Q 97.42 26.72 92.65 22.86
  Q 90.92 21.45 84.60 17.80
  C 77.03 13.43 67.49 11.89 58.91 12.76
  Q 52.28 13.44 52.25 13.44
  C 46.44 14.12 42.89 15.95 37.65 18.90
  C 30.47 22.95 24.77 29.06 20.08 36.03
  C 15.02 43.56 13.00 50.81 12.79 59.53
  C 12.33 79.00 21.36 96.18 38.46 105.43
  Q 43.83 108.33 46.60 109.16
  Q 67.89 115.49 86.88 105.05
  Q 91.10 102.73 94.95 99.13
  C 108.66 86.30 114.47 69.54 111.18 50.78
  Q 110.77 48.43 109.84 46.39
  Z"
/>
<path fill="#090809" d="
  M 109.84 46.39
  Q 110.77 48.43 111.18 50.78
  C 114.47 69.54 108.66 86.30 94.95 99.13
  Q 91.10 102.73 86.88 105.05
  Q 67.89 115.49 46.60 109.16
  Q 43.83 108.33 38.46 105.43
  C 21.36 96.18 12.33 79.00 12.79 59.53
  C 13.00 50.81 15.02 43.56 20.08 36.03
  C 24.77 29.06 30.47 22.95 37.65 18.90
  C 42.89 15.95 46.44 14.12 52.25 13.44
  Q 52.28 13.44 58.91 12.76
  C 67.49 11.89 77.03 13.43 84.60 17.80
  Q 90.92 21.45 92.65 22.86
  Q 97.42 26.72 101.00 31.50
  Q 106.17 38.39 109.84 46.39
  Z
  M 105.21 64.12
  L 67.99 58.31
  A 0.81 0.81 0.0 0 1 67.31 57.56
  L 66.31 41.26
  A 0.55 0.54 -65.4 0 1 67.29 40.89
  L 70.32 44.91
  A 0.35 0.35 0.0 0 0 70.93 44.59
  Q 67.86 34.88 65.52 25.97
  A 1.60 1.59 -29.4 0 0 62.87 25.24
  C 61.74 26.32 62.28 28.81 62.80 30.06
  A 1.48 1.43 42.2 0 1 62.86 30.97
  Q 61.01 37.77 56.34 41.74
  A 0.39 0.39 0.0 0 0 56.53 42.42
  L 58.34 42.70
  A 0.53 0.53 0.0 0 1 58.76 43.37
  L 55.26 55.10
  A 0.25 0.25 0.0 0 0 55.69 55.32
  C 57.45 53.05 60.63 48.43 63.65 52.11
  Q 64.55 53.21 65.35 57.30
  A 0.44 0.44 0.0 0 1 64.87 57.82
  Q 60.71 57.28 55.98 58.15
  Q 35.70 61.86 19.02 63.93
  A 0.35 0.34 47.8 0 0 18.99 64.61
  L 64.96 75.18
  A 7.30 7.14 -39.9 0 0 67.03 75.34
  Q 69.09 75.20 70.70 74.72
  Q 85.02 70.42 99.70 66.49
  Q 101.72 65.95 105.24 64.33
  A 0.11 0.11 0.0 0 0 105.21 64.12
  Z
  M 57.03 101.82
  C 66.96 99.85 73.67 94.10 79.50 85.87
  A 0.35 0.35 0.0 0 1 79.96 85.77
  L 80.01 85.80
  A 0.25 0.24 -51.6 0 1 80.03 85.99
  L 78.54 91.02
  A 0.45 0.45 0.0 0 0 79.26 91.49
  Q 86.48 85.26 91.73 77.55
  A 0.32 0.32 0.0 0 0 91.28 77.12
  L 84.81 81.99
  A 0.60 0.60 0.0 0 1 83.86 81.42
  L 84.53 77.08
  A 0.55 0.54 79.6 0 0 83.72 76.52
  L 67.93 85.64
  A 1.30 1.30 0.0 0 1 66.51 85.55
  C 57.49 78.79 47.10 75.06 35.63 75.85
  A 0.96 0.96 0.0 0 0 34.94 77.39
  Q 35.91 78.67 36.27 79.95
  A 0.32 0.32 0.0 0 1 35.80 80.31
  L 28.16 75.89
  A 0.61 0.60 -70.4 0 0 27.26 76.32
  L 26.96 78.30
  A 0.79 0.79 0.0 0 1 25.79 78.86
  L 22.89 77.18
  A 0.41 0.41 0.0 0 0 22.37 77.79
  Q 26.31 82.71 32.87 85.37
  A 0.37 0.37 0.0 0 0 33.33 84.83
  L 31.25 81.40
  A 0.66 0.65 59.6 0 1 31.48 80.50
  Q 31.49 80.50 31.74 80.50
  A 0.19 0.17 62.0 0 1 31.85 80.54
  L 45.31 90.87
  A 0.33 0.32 9.5 0 0 45.82 90.51
  L 43.20 82.76
  A 0.63 0.63 0.0 0 1 43.76 81.93
  C 49.85 81.54 55.37 83.35 58.79 88.38
  Q 63.61 95.46 56.83 101.40
  A 0.24 0.24 0.0 0 0 57.03 101.82
  Z"
/>
<path fill="#eeeeee" d="
  M 105.24 64.33
  Q 101.72 65.95 99.70 66.49
  Q 85.02 70.42 70.70 74.72
  Q 69.09 75.20 67.03 75.34
  A 7.30 7.14 -39.9 0 1 64.96 75.18
  L 18.99 64.61
  A 0.35 0.34 47.8 0 1 19.02 63.93
  Q 35.70 61.86 55.98 58.15
  Q 60.71 57.28 64.87 57.82
  A 0.44 0.44 0.0 0 0 65.35 57.30
  Q 64.55 53.21 63.65 52.11
  C 60.63 48.43 57.45 53.05 55.69 55.32
  A 0.25 0.25 0.0 0 1 55.26 55.10
  L 58.76 43.37
  A 0.53 0.53 0.0 0 0 58.34 42.70
  L 56.53 42.42
  A 0.39 0.39 0.0 0 1 56.34 41.74
  Q 61.01 37.77 62.86 30.97
  A 1.48 1.43 42.2 0 0 62.80 30.06
  C 62.28 28.81 61.74 26.32 62.87 25.24
  A 1.60 1.59 -29.4 0 1 65.52 25.97
  Q 67.86 34.88 70.93 44.59
  A 0.35 0.35 0.0 0 1 70.32 44.91
  L 67.29 40.89
  A 0.55 0.54 -65.4 0 0 66.31 41.26
  L 67.31 57.56
  A 0.81 0.81 0.0 0 0 67.99 58.31
  L 105.21 64.12
  A 0.11 0.11 0.0 0 1 105.24 64.33
  Z"
/>
<path fill="#eeeeee" d="
  M 56.83 101.40
  Q 63.61 95.46 58.79 88.38
  C 55.37 83.35 49.85 81.54 43.76 81.93
  A 0.63 0.63 0.0 0 0 43.20 82.76
  L 45.82 90.51
  A 0.33 0.32 9.5 0 1 45.31 90.87
  L 31.85 80.54
  A 0.19 0.17 62.0 0 0 31.74 80.50
  Q 31.49 80.50 31.48 80.50
  A 0.66 0.65 59.6 0 0 31.25 81.40
  L 33.33 84.83
  A 0.37 0.37 0.0 0 1 32.87 85.37
  Q 26.31 82.71 22.37 77.79
  A 0.41 0.41 0.0 0 1 22.89 77.18
  L 25.79 78.86
  A 0.79 0.79 0.0 0 0 26.96 78.30
  L 27.26 76.32
  A 0.61 0.60 -70.4 0 1 28.16 75.89
  L 35.80 80.31
  A 0.32 0.32 0.0 0 0 36.27 79.95
  Q 35.91 78.67 34.94 77.39
  A 0.96 0.96 0.0 0 1 35.63 75.85
  C 47.10 75.06 57.49 78.79 66.51 85.55
  A 1.30 1.30 0.0 0 0 67.93 85.64
  L 83.72 76.52
  A 0.55 0.54 79.6 0 1 84.53 77.08
  L 83.86 81.42
  A 0.60 0.60 0.0 0 0 84.81 81.99
  L 91.28 77.12
  A 0.32 0.32 0.0 0 1 91.73 77.55
  Q 86.48 85.26 79.26 91.49
  A 0.45 0.45 0.0 0 1 78.54 91.02
  L 80.03 85.99
  A 0.25 0.24 -51.6 0 0 80.01 85.80
  L 79.96 85.77
  A 0.35 0.35 0.0 0 0 79.50 85.87
  C 73.67 94.10 66.96 99.85 57.03 101.82
  A 0.24 0.24 0.0 0 1 56.83 101.40
  Z"
/>
</svg>
