<?xml version="1.0" encoding="UTF-8" standalone="no"?>
<!DOCTYPE svg PUBLIC "-//W3C//DTD SVG 1.1//EN" "http://www.w3.org/Graphics/SVG/1.1/DTD/svg11.dtd">
<svg xmlns="http://www.w3.org/2000/svg" version="1.1" viewBox="0.00 0.00 125.00 125.00">
<g stroke-width="2.00" fill="none" stroke-linecap="butt">
<path stroke="#777677" vector-effect="non-scaling-stroke" d="
  M 105.28 24.04
  Q 108.77 27.92 110.64 30.82
  C 124.96 53.04 123.40 79.40 107.09 100.32
  A 0.70 0.70 0.0 0 0 107.44 101.43
  L 107.49 101.44
  A 1.56 1.55 -62.5 0 0 109.17 100.90
  Q 121.36 85.29 122.16 66.76
  C 122.39 61.42 122.47 56.01 121.34 50.88
  Q 117.70 34.35 107.01 22.48
  Q 96.31 10.61 80.26 5.27
  C 75.27 3.61 69.88 3.13 64.55 2.80
  Q 46.04 1.66 29.24 12.16
  A 1.56 1.55 -21.5 0 0 28.53 13.78
  L 28.53 13.83
  A 0.70 0.70 0.0 0 0 29.60 14.29
  C 52.11 0.25 78.49 1.44 99.09 18.00
  Q 101.79 20.16 105.28 24.04"
/>
<path stroke="#828282" vector-effect="non-scaling-stroke" d="
  M 25.19 22.51
  Q 20.76 19.82 23.23 15.92
  A 0.66 0.65 23.1 0 0 22.83 14.94
  L 18.40 13.83
  A 1.36 0.92 55.9 0 1 18.20 13.75
  Q 12.33 10.54 9.32 9.25
  A 0.61 0.61 0.0 0 0 8.47 9.74
  Q 8.44 10.03 8.77 10.75
  Q 10.24 13.93 12.69 18.39
  A 5.81 5.72 -66.9 0 1 13.22 19.74
  L 14.20 23.63
  A 0.64 0.64 0.0 0 0 15.18 24.01
  Q 18.89 21.52 21.72 25.83"
/>
<path stroke="#353535" vector-effect="non-scaling-stroke" d="
  M 21.72 25.83
  Q 19.22 28.23 15.53 34.25
  Q 11.20 41.31 9.86 45.89
  C 6.00 59.17 6.24 73.16 12.27 85.73
  Q 21.60 105.17 41.11 113.21
  Q 48.91 116.42 55.87 116.90
  Q 65.26 117.54 71.09 116.59
  C 80.72 115.02 89.12 110.54 97.19 104.72
  Q 98.07 104.09 97.75 103.22
  Q 97.59 102.79 98.44 102.57"
/>
<path stroke="#828282" vector-effect="non-scaling-stroke" d="
  M 98.44 102.57
  L 110.00 113.75
  A 0.58 0.58 0.0 0 1 110.09 113.84
  L 111.58 115.94
  A 1.43 1.43 0.0 0 0 113.54 116.30
  Q 115.71 114.87 115.83 113.39
  A 0.93 0.92 24.8 0 0 115.55 112.64
  L 102.24 99.77"
/>
<path stroke="#353535" vector-effect="non-scaling-stroke" d="
  M 102.24 99.77
  Q 112.35 88.63 115.36 74.54
  C 116.88 67.43 116.85 57.20 115.21 50.26
  Q 113.04 41.02 106.83 31.65
  Q 96.42 15.93 78.12 10.71
  Q 55.05 4.14 34.04 15.56
  Q 28.79 18.41 25.19 22.51"
/>
<path stroke="#aeaeae" vector-effect="non-scaling-stroke" d="
  M 102.24 99.77
  Q 101.55 98.03 98.92 96.41"
/>
<path stroke="#353535" vector-effect="non-scaling-stroke" d="
  M 98.92 96.41
  Q 111.46 81.33 111.68 63.48
  C 111.95 41.84 99.50 24.34 79.61 16.12
  Q 70.33 12.29 58.49 13.00
  Q 41.24 14.03 28.36 26.02"
/>
<path stroke="#aeaeae" vector-effect="non-scaling-stroke" d="
  M 28.36 26.02
  Q 27.59 23.56 25.19 22.51"
/>
<path stroke="#828282" vector-effect="non-scaling-stroke" d="
  M 98.92 96.41
  L 90.99 88.95
  A 1.97 1.97 0.0 0 0 88.22 89.02
  L 88.19 89.06
  A 2.05 2.04 43.3 0 0 88.28 91.98
  L 95.52 99.59"
/>
<path stroke="#353535" vector-effect="non-scaling-stroke" d="
  M 95.52 99.59
  Q 92.48 102.12 89.47 104.23
  C 83.55 108.38 77.24 110.94 70.08 111.97
  Q 43.52 115.79 24.74 95.79
  Q 16.86 87.40 14.06 76.87
  Q 7.03 50.39 25.00 29.02"
/>
<path stroke="#828282" vector-effect="non-scaling-stroke" d="
  M 28.36 26.02
  L 35.76 33.73
  A 1.77 1.76 45.6 0 1 35.74 36.20
  L 35.44 36.50
  A 1.81 1.80 -45.6 0 1 32.92 36.53
  L 25.00 29.02"
/>
<path stroke="#aeaeae" vector-effect="non-scaling-stroke" d="
  M 25.00 29.02
  Q 22.63 28.11 21.72 25.83"
/>
<path stroke="#aeaeae" vector-effect="non-scaling-stroke" d="
  M 95.52 99.59
  Q 96.57 101.37 98.44 102.57"
/>
<path stroke="#777677" vector-effect="non-scaling-stroke" d="
  M 12.96 29.29
  L 12.88 29.28
  A 1.88 1.87 -70.6 0 0 11.07 30.15
  C 5.53 39.10 1.89 49.17 1.94 59.96
  Q 1.99 70.84 2.16 72.12
  C 3.51 82.17 8.10 92.59 14.47 100.45
  C 25.50 114.08 42.01 123.24 59.80 123.26
  Q 68.56 123.27 70.92 122.89
  Q 86.74 120.36 100.09 110.14
  A 1.96 1.95 -23.5 0 0 100.84 108.25
  L 100.82 108.13
  A 0.73 0.73 0.0 0 0 99.65 107.68
  Q 91.82 113.80 85.89 116.35
  Q 66.15 124.87 46.18 119.22
  Q 34.72 115.97 26.04 109.03
  Q 16.35 101.27 11.33 91.96
  Q -5.29 61.12 13.48 30.35
  A 0.70 0.70 0.0 0 0 12.96 29.29"
/>
<path stroke="#828282" vector-effect="non-scaling-stroke" d="
  M 37.68 62.68
  Q 37.68 69.49 30.90 74.10
  A 1.18 1.18 0.0 0 0 30.48 75.55
  C 36.05 88.31 47.74 96.74 62.00 96.75
  C 76.27 96.75 87.96 88.33 93.54 75.58
  A 1.18 1.18 0.0 0 0 93.12 74.12
  Q 86.35 69.51 86.35 62.70
  Q 86.36 55.90 93.13 51.29
  A 1.18 1.18 0.0 0 0 93.55 49.84
  C 87.98 37.08 76.30 28.65 62.03 28.64
  C 47.77 28.64 36.08 37.06 30.50 49.81
  A 1.18 1.18 0.0 0 0 30.91 51.26
  Q 37.69 55.88 37.68 62.68"
/>
<path stroke="#828282" vector-effect="non-scaling-stroke" d="
  M 66.85 34.23
  A 0.90 0.90 0.0 0 0 65.95 33.33
  A 0.90 0.90 0.0 0 0 65.05 34.23
  A 0.90 0.90 0.0 0 0 65.95 35.13
  A 0.90 0.90 0.0 0 0 66.85 34.23"
/>
<path stroke="#aeaeae" vector-effect="non-scaling-stroke" d="
  M 57.6856 33.4237
  A 0.89 0.64 -110.0 0 0 57.3886 34.4789
  A 0.89 0.64 -110.0 0 0 58.2944 35.0963
  A 0.89 0.64 -110.0 0 0 58.5914 34.0411
  A 0.89 0.64 -110.0 0 0 57.6856 33.4237"
/>
<path stroke="#828282" vector-effect="non-scaling-stroke" d="
  M 59.4947 38.0347
  A 0.96 0.75 -95.7 0 0 58.8437 39.0645
  A 0.96 0.75 -95.7 0 0 59.6853 39.9453
  A 0.96 0.75 -95.7 0 0 60.3363 38.9155
  A 0.96 0.75 -95.7 0 0 59.4947 38.0347"
/>
<path stroke="#828282" vector-effect="non-scaling-stroke" d="
  M 64.70 38.35
  A 0.83 0.74 -6.4 0 0 63.71 39.45
  Q 63.96 39.82 64.79 39.60
  Q 65.22 39.48 65.20 38.97
  Q 65.17 38.49 64.70 38.35"
/>
<path stroke="#828282" vector-effect="non-scaling-stroke" d="
  M 44.59 45.30
  Q 44.31 45.58 44.43 45.80
  Q 45.97 48.54 46.94 51.10
  A 2.33 2.31 49.8 0 1 46.79 53.08
  Q 44.09 57.80 44.09 62.71
  Q 44.09 67.63 46.79 72.35
  A 2.33 2.31 -49.8 0 1 46.94 74.33
  Q 45.97 76.89 44.43 79.63
  Q 44.31 79.85 44.59 80.13
  Q 44.88 80.42 45.09 80.30
  Q 47.84 78.75 50.40 77.78
  A 2.33 2.31 -40.2 0 1 52.37 77.94
  Q 57.10 80.64 62.01 80.64
  Q 66.92 80.64 71.65 77.93
  A 2.33 2.31 40.2 0 1 73.62 77.78
  Q 76.18 78.75 78.93 80.29
  Q 79.14 80.41 79.43 80.13
  Q 79.71 79.84 79.59 79.63
  Q 78.05 76.89 77.08 74.33
  A 2.33 2.31 49.8 0 1 77.23 72.35
  Q 79.93 67.62 79.93 62.71
  Q 79.93 57.80 77.23 53.07
  A 2.33 2.31 -49.8 0 1 77.08 51.10
  Q 78.04 48.54 79.59 45.79
  Q 79.71 45.58 79.42 45.29
  Q 79.14 45.01 78.92 45.13
  Q 76.18 46.67 73.62 47.64
  A 2.33 2.31 -40.2 0 1 71.64 47.49
  Q 66.92 44.79 62.01 44.79
  Q 57.09 44.79 52.37 47.49
  A 2.33 2.31 40.2 0 1 50.39 47.65
  Q 47.83 46.68 45.09 45.13
  Q 44.88 45.01 44.59 45.30"
/>
<path stroke="#828282" vector-effect="non-scaling-stroke" d="
  M 41.85 60.27
  A 1.00 1.00 0.0 0 0 40.85 59.27
  A 1.00 1.00 0.0 0 0 39.85 60.27
  A 1.00 1.00 0.0 0 0 40.85 61.27
  A 1.00 1.00 0.0 0 0 41.85 60.27"
/>
<path stroke="#828282" vector-effect="non-scaling-stroke" d="
  M 83.1568 59.2252
  A 1.11 0.96 -99.5 0 0 82.3932 60.4784
  A 1.11 0.96 -99.5 0 0 83.5232 61.4148
  A 1.11 0.96 -99.5 0 0 84.2868 60.1616
  A 1.11 0.96 -99.5 0 0 83.1568 59.2252"
/>
<path stroke="#828282" vector-effect="non-scaling-stroke" d="
  M 40.6743 64.1169
  A 0.96 0.77 -103.6 0 0 40.1516 65.2311
  A 0.96 0.77 -103.6 0 0 41.1257 65.9831
  A 0.96 0.77 -103.6 0 0 41.6484 64.8689
  A 0.96 0.77 -103.6 0 0 40.6743 64.1169"
/>
<path stroke="#828282" vector-effect="non-scaling-stroke" d="
  M 84.24 65.05
  A 0.87 0.87 0.0 0 0 83.37 64.18
  A 0.87 0.87 0.0 0 0 82.50 65.05
  A 0.87 0.87 0.0 0 0 83.37 65.92
  A 0.87 0.87 0.0 0 0 84.24 65.05"
/>
<path stroke="#828282" vector-effect="non-scaling-stroke" d="
  M 60.46 86.38
  A 0.91 0.91 0.0 0 0 59.55 85.47
  A 0.91 0.91 0.0 0 0 58.64 86.38
  A 0.91 0.91 0.0 0 0 59.55 87.29
  A 0.91 0.91 0.0 0 0 60.46 86.38"
/>
<path stroke="#828282" vector-effect="non-scaling-stroke" d="
  M 65.2050 86.3471
  A 0.86 0.68 -6.2 0 0 64.2766 85.7640
  A 0.86 0.68 -6.2 0 0 63.4950 86.5329
  A 0.86 0.68 -6.2 0 0 64.4234 87.1160
  A 0.86 0.68 -6.2 0 0 65.2050 86.3471"
/>
<path stroke="#828282" vector-effect="non-scaling-stroke" d="
  M 67.06 91.17
  A 1.09 1.09 0.0 0 0 65.97 90.08
  A 1.09 1.09 0.0 0 0 64.88 91.17
  A 1.09 1.09 0.0 0 0 65.97 92.26
  A 1.09 1.09 0.0 0 0 67.06 91.17"
/>
<path stroke="#828282" vector-effect="non-scaling-stroke" d="
  M 58.80 91.24
  A 0.89 0.89 0.0 0 0 57.91 90.35
  A 0.89 0.89 0.0 0 0 57.02 91.24
  A 0.89 0.89 0.0 0 0 57.91 92.13
  A 0.89 0.89 0.0 0 0 58.80 91.24"
/>
<path stroke="#828282" vector-effect="non-scaling-stroke" d="
  M 72.65 62.66
  A 10.71 10.71 0.0 0 0 61.94 51.95
  A 10.71 10.71 0.0 0 0 51.23 62.66
  A 10.71 10.71 0.0 0 0 61.94 73.37
  A 10.71 10.71 0.0 0 0 72.65 62.66"
/>
<path stroke="#828282" vector-effect="non-scaling-stroke" d="
  M 63.1939 60.2821
  A 1.71 1.71 0.0 0 0 60.7767 60.2061
  L 59.5521 61.3561
  A 1.71 1.71 0.0 0 0 59.4761 63.7733
  L 60.6261 64.9979
  A 1.71 1.71 0.0 0 0 63.0433 65.0739
  L 64.2679 63.9239
  A 1.71 1.71 0.0 0 0 64.3439 61.5067
  L 63.1939 60.2821"
/>
</g>
<path fill="#090909" d="
  M 125.00 0.00
  L 125.00 125.00
  L 0.00 125.00
  L 0.00 0.00
  L 125.00 0.00
  Z
  M 105.28 24.04
  Q 108.77 27.92 110.64 30.82
  C 124.96 53.04 123.40 79.40 107.09 100.32
  A 0.70 0.70 0.0 0 0 107.44 101.43
  L 107.49 101.44
  A 1.56 1.55 -62.5 0 0 109.17 100.90
  Q 121.36 85.29 122.16 66.76
  C 122.39 61.42 122.47 56.01 121.34 50.88
  Q 117.70 34.35 107.01 22.48
  Q 96.31 10.61 80.26 5.27
  C 75.27 3.61 69.88 3.13 64.55 2.80
  Q 46.04 1.66 29.24 12.16
  A 1.56 1.55 -21.5 0 0 28.53 13.78
  L 28.53 13.83
  A 0.70 0.70 0.0 0 0 29.60 14.29
  C 52.11 0.25 78.49 1.44 99.09 18.00
  Q 101.79 20.16 105.28 24.04
  Z
  M 25.19 22.51
  Q 20.76 19.82 23.23 15.92
  A 0.66 0.65 23.1 0 0 22.83 14.94
  L 18.40 13.83
  A 1.36 0.92 55.9 0 1 18.20 13.75
  Q 12.33 10.54 9.32 9.25
  A 0.61 0.61 0.0 0 0 8.47 9.74
  Q 8.44 10.03 8.77 10.75
  Q 10.24 13.93 12.69 18.39
  A 5.81 5.72 -66.9 0 1 13.22 19.74
  L 14.20 23.63
  A 0.64 0.64 0.0 0 0 15.18 24.01
  Q 18.89 21.52 21.72 25.83
  Q 19.22 28.23 15.53 34.25
  Q 11.20 41.31 9.86 45.89
  C 6.00 59.17 6.24 73.16 12.27 85.73
  Q 21.60 105.17 41.11 113.21
  Q 48.91 116.42 55.87 116.90
  Q 65.26 117.54 71.09 116.59
  C 80.72 115.02 89.12 110.54 97.19 104.72
  Q 98.07 104.09 97.75 103.22
  Q 97.59 102.79 98.44 102.57
  L 110.00 113.75
  A 0.58 0.58 0.0 0 1 110.09 113.84
  L 111.58 115.94
  A 1.43 1.43 0.0 0 0 113.54 116.30
  Q 115.71 114.87 115.83 113.39
  A 0.93 0.92 24.8 0 0 115.55 112.64
  L 102.24 99.77
  Q 112.35 88.63 115.36 74.54
  C 116.88 67.43 116.85 57.20 115.21 50.26
  Q 113.04 41.02 106.83 31.65
  Q 96.42 15.93 78.12 10.71
  Q 55.05 4.14 34.04 15.56
  Q 28.79 18.41 25.19 22.51
  Z
  M 12.96 29.29
  L 12.88 29.28
  A 1.88 1.87 -70.6 0 0 11.07 30.15
  C 5.53 39.10 1.89 49.17 1.94 59.96
  Q 1.99 70.84 2.16 72.12
  C 3.51 82.17 8.10 92.59 14.47 100.45
  C 25.50 114.08 42.01 123.24 59.80 123.26
  Q 68.56 123.27 70.92 122.89
  Q 86.74 120.36 100.09 110.14
  A 1.96 1.95 -23.5 0 0 100.84 108.25
  L 100.82 108.13
  A 0.73 0.73 0.0 0 0 99.65 107.68
  Q 91.82 113.80 85.89 116.35
  Q 66.15 124.87 46.18 119.22
  Q 34.72 115.97 26.04 109.03
  Q 16.35 101.27 11.33 91.96
  Q -5.29 61.12 13.48 30.35
  A 0.70 0.70 0.0 0 0 12.96 29.29
  Z"
/>
<path fill="#e5e3e5" d="
  M 107.01 22.48
  Q 117.70 34.35 121.34 50.88
  C 122.47 56.01 122.39 61.42 122.16 66.76
  Q 121.36 85.29 109.17 100.90
  A 1.56 1.55 -62.5 0 1 107.49 101.44
  L 107.44 101.43
  A 0.70 0.70 0.0 0 1 107.09 100.32
  C 123.40 79.40 124.96 53.04 110.64 30.82
  Q 108.77 27.92 105.28 24.04
  Q 101.79 20.16 99.09 18.00
  C 78.49 1.44 52.11 0.25 29.60 14.29
  A 0.70 0.70 0.0 0 1 28.53 13.83
  L 28.53 13.78
  A 1.56 1.55 -21.5 0 1 29.24 12.16
  Q 46.04 1.66 64.55 2.80
  C 69.88 3.13 75.27 3.61 80.26 5.27
  Q 96.31 10.61 107.01 22.48
  Z"
/>
<path fill="#606160" d="
  M 102.24 99.77
  Q 101.55 98.03 98.92 96.41
  Q 111.46 81.33 111.68 63.48
  C 111.95 41.84 99.50 24.34 79.61 16.12
  Q 70.33 12.29 58.49 13.00
  Q 41.24 14.03 28.36 26.02
  Q 27.59 23.56 25.19 22.51
  Q 28.79 18.41 34.04 15.56
  Q 55.05 4.14 78.12 10.71
  Q 96.42 15.93 106.83 31.65
  Q 113.04 41.02 115.21 50.26
  C 116.85 57.20 116.88 67.43 115.36 74.54
  Q 112.35 88.63 102.24 99.77
  Z"
/>
<path fill="#fbfbfb" d="
  M 25.19 22.51
  Q 27.59 23.56 28.36 26.02
  L 35.76 33.73
  A 1.77 1.76 45.6 0 1 35.74 36.20
  L 35.44 36.50
  A 1.81 1.80 -45.6 0 1 32.92 36.53
  L 25.00 29.02
  Q 22.63 28.11 21.72 25.83
  Q 18.89 21.52 15.18 24.01
  A 0.64 0.64 0.0 0 1 14.20 23.63
  L 13.22 19.74
  A 5.81 5.72 -66.9 0 0 12.69 18.39
  Q 10.24 13.93 8.77 10.75
  Q 8.44 10.03 8.47 9.74
  A 0.61 0.61 0.0 0 1 9.32 9.25
  Q 12.33 10.54 18.20 13.75
  A 1.36 0.92 55.9 0 0 18.40 13.83
  L 22.83 14.94
  A 0.66 0.65 23.1 0 1 23.23 15.92
  Q 20.76 19.82 25.19 22.51
  Z"
/>
<path fill="#090909" d="
  M 98.92 96.41
  L 90.99 88.95
  A 1.97 1.97 0.0 0 0 88.22 89.02
  L 88.19 89.06
  A 2.05 2.04 43.3 0 0 88.28 91.98
  L 95.52 99.59
  Q 92.48 102.12 89.47 104.23
  C 83.55 108.38 77.24 110.94 70.08 111.97
  Q 43.52 115.79 24.74 95.79
  Q 16.86 87.40 14.06 76.87
  Q 7.03 50.39 25.00 29.02
  L 32.92 36.53
  A 1.81 1.80 -45.6 0 0 35.44 36.50
  L 35.74 36.20
  A 1.77 1.76 45.6 0 0 35.76 33.73
  L 28.36 26.02
  Q 41.24 14.03 58.49 13.00
  Q 70.33 12.29 79.61 16.12
  C 99.50 24.34 111.95 41.84 111.68 63.48
  Q 111.46 81.33 98.92 96.41
  Z
  M 37.68 62.68
  Q 37.68 69.49 30.90 74.10
  A 1.18 1.18 0.0 0 0 30.48 75.55
  C 36.05 88.31 47.74 96.74 62.00 96.75
  C 76.27 96.75 87.96 88.33 93.54 75.58
  A 1.18 1.18 0.0 0 0 93.12 74.12
  Q 86.35 69.51 86.35 62.70
  Q 86.36 55.90 93.13 51.29
  A 1.18 1.18 0.0 0 0 93.55 49.84
  C 87.98 37.08 76.30 28.65 62.03 28.64
  C 47.77 28.64 36.08 37.06 30.50 49.81
  A 1.18 1.18 0.0 0 0 30.91 51.26
  Q 37.69 55.88 37.68 62.68
  Z"
/>
<path fill="#606160" d="
  M 25.00 29.02
  Q 7.03 50.39 14.06 76.87
  Q 16.86 87.40 24.74 95.79
  Q 43.52 115.79 70.08 111.97
  C 77.24 110.94 83.55 108.38 89.47 104.23
  Q 92.48 102.12 95.52 99.59
  Q 96.57 101.37 98.44 102.57
  Q 97.59 102.79 97.75 103.22
  Q 98.07 104.09 97.19 104.72
  C 89.12 110.54 80.72 115.02 71.09 116.59
  Q 65.26 117.54 55.87 116.90
  Q 48.91 116.42 41.11 113.21
  Q 21.60 105.17 12.27 85.73
  C 6.24 73.16 6.00 59.17 9.86 45.89
  Q 11.20 41.31 15.53 34.25
  Q 19.22 28.23 21.72 25.83
  Q 22.63 28.11 25.00 29.02
  Z"
/>
<path fill="#fbfbfb" d="
  M 62.03 28.64
  C 76.30 28.65 87.98 37.08 93.55 49.84
  A 1.18 1.18 0.0 0 1 93.13 51.29
  Q 86.36 55.90 86.35 62.70
  Q 86.35 69.51 93.12 74.12
  A 1.18 1.18 0.0 0 1 93.54 75.58
  C 87.96 88.33 76.27 96.75 62.00 96.75
  C 47.74 96.74 36.05 88.31 30.48 75.55
  A 1.18 1.18 0.0 0 1 30.90 74.10
  Q 37.68 69.49 37.68 62.68
  Q 37.69 55.88 30.91 51.26
  A 1.18 1.18 0.0 0 1 30.50 49.81
  C 36.08 37.06 47.77 28.64 62.03 28.64
  Z
  M 66.85 34.23
  A 0.90 0.90 0.0 0 0 65.95 33.33
  A 0.90 0.90 0.0 0 0 65.05 34.23
  A 0.90 0.90 0.0 0 0 65.95 35.13
  A 0.90 0.90 0.0 0 0 66.85 34.23
  Z
  M 57.6856 33.4237
  A 0.89 0.64 -110.0 0 0 57.3886 34.4789
  A 0.89 0.64 -110.0 0 0 58.2944 35.0963
  A 0.89 0.64 -110.0 0 0 58.5914 34.0411
  A 0.89 0.64 -110.0 0 0 57.6856 33.4237
  Z
  M 59.4947 38.0347
  A 0.96 0.75 -95.7 0 0 58.8437 39.0645
  A 0.96 0.75 -95.7 0 0 59.6853 39.9453
  A 0.96 0.75 -95.7 0 0 60.3363 38.9155
  A 0.96 0.75 -95.7 0 0 59.4947 38.0347
  Z
  M 64.70 38.35
  A 0.83 0.74 -6.4 0 0 63.71 39.45
  Q 63.96 39.82 64.79 39.60
  Q 65.22 39.48 65.20 38.97
  Q 65.17 38.49 64.70 38.35
  Z
  M 44.59 45.30
  Q 44.31 45.58 44.43 45.80
  Q 45.97 48.54 46.94 51.10
  A 2.33 2.31 49.8 0 1 46.79 53.08
  Q 44.09 57.80 44.09 62.71
  Q 44.09 67.63 46.79 72.35
  A 2.33 2.31 -49.8 0 1 46.94 74.33
  Q 45.97 76.89 44.43 79.63
  Q 44.31 79.85 44.59 80.13
  Q 44.88 80.42 45.09 80.30
  Q 47.84 78.75 50.40 77.78
  A 2.33 2.31 -40.2 0 1 52.37 77.94
  Q 57.10 80.64 62.01 80.64
  Q 66.92 80.64 71.65 77.93
  A 2.33 2.31 40.2 0 1 73.62 77.78
  Q 76.18 78.75 78.93 80.29
  Q 79.14 80.41 79.43 80.13
  Q 79.71 79.84 79.59 79.63
  Q 78.05 76.89 77.08 74.33
  A 2.33 2.31 49.8 0 1 77.23 72.35
  Q 79.93 67.62 79.93 62.71
  Q 79.93 57.80 77.23 53.07
  A 2.33 2.31 -49.8 0 1 77.08 51.10
  Q 78.04 48.54 79.59 45.79
  Q 79.71 45.58 79.42 45.29
  Q 79.14 45.01 78.92 45.13
  Q 76.18 46.67 73.62 47.64
  A 2.33 2.31 -40.2 0 1 71.64 47.49
  Q 66.92 44.79 62.01 44.79
  Q 57.09 44.79 52.37 47.49
  A 2.33 2.31 40.2 0 1 50.39 47.65
  Q 47.83 46.68 45.09 45.13
  Q 44.88 45.01 44.59 45.30
  Z
  M 41.85 60.27
  A 1.00 1.00 0.0 0 0 40.85 59.27
  A 1.00 1.00 0.0 0 0 39.85 60.27
  A 1.00 1.00 0.0 0 0 40.85 61.27
  A 1.00 1.00 0.0 0 0 41.85 60.27
  Z
  M 83.1568 59.2252
  A 1.11 0.96 -99.5 0 0 82.3932 60.4784
  A 1.11 0.96 -99.5 0 0 83.5232 61.4148
  A 1.11 0.96 -99.5 0 0 84.2868 60.1616
  A 1.11 0.96 -99.5 0 0 83.1568 59.2252
  Z
  M 40.6743 64.1169
  A 0.96 0.77 -103.6 0 0 40.1516 65.2311
  A 0.96 0.77 -103.6 0 0 41.1257 65.9831
  A 0.96 0.77 -103.6 0 0 41.6484 64.8689
  A 0.96 0.77 -103.6 0 0 40.6743 64.1169
  Z
  M 84.24 65.05
  A 0.87 0.87 0.0 0 0 83.37 64.18
  A 0.87 0.87 0.0 0 0 82.50 65.05
  A 0.87 0.87 0.0 0 0 83.37 65.92
  A 0.87 0.87 0.0 0 0 84.24 65.05
  Z
  M 60.46 86.38
  A 0.91 0.91 0.0 0 0 59.55 85.47
  A 0.91 0.91 0.0 0 0 58.64 86.38
  A 0.91 0.91 0.0 0 0 59.55 87.29
  A 0.91 0.91 0.0 0 0 60.46 86.38
  Z
  M 65.2050 86.3471
  A 0.86 0.68 -6.2 0 0 64.2766 85.7640
  A 0.86 0.68 -6.2 0 0 63.4950 86.5329
  A 0.86 0.68 -6.2 0 0 64.4234 87.1160
  A 0.86 0.68 -6.2 0 0 65.2050 86.3471
  Z
  M 67.06 91.17
  A 1.09 1.09 0.0 0 0 65.97 90.08
  A 1.09 1.09 0.0 0 0 64.88 91.17
  A 1.09 1.09 0.0 0 0 65.97 92.26
  A 1.09 1.09 0.0 0 0 67.06 91.17
  Z
  M 58.80 91.24
  A 0.89 0.89 0.0 0 0 57.91 90.35
  A 0.89 0.89 0.0 0 0 57.02 91.24
  A 0.89 0.89 0.0 0 0 57.91 92.13
  A 0.89 0.89 0.0 0 0 58.80 91.24
  Z"
/>
<path fill="#e5e3e5" d="
  M 13.48 30.35
  Q -5.29 61.12 11.33 91.96
  Q 16.35 101.27 26.04 109.03
  Q 34.72 115.97 46.18 119.22
  Q 66.15 124.87 85.89 116.35
  Q 91.82 113.80 99.65 107.68
  A 0.73 0.73 0.0 0 1 100.82 108.13
  L 100.84 108.25
  A 1.96 1.95 -23.5 0 1 100.09 110.14
  Q 86.74 120.36 70.92 122.89
  Q 68.56 123.27 59.80 123.26
  C 42.01 123.24 25.50 114.08 14.47 100.45
  C 8.10 92.59 3.51 82.17 2.16 72.12
  Q 1.99 70.84 1.94 59.96
  C 1.89 49.17 5.53 39.10 11.07 30.15
  A 1.88 1.87 -70.6 0 1 12.88 29.28
  L 12.96 29.29
  A 0.70 0.70 0.0 0 1 13.48 30.35
  Z"
/>
<circle fill="#090909" cx="65.95" cy="34.23" r="0.90"/>
<ellipse fill="#606160" cx="0.00" cy="0.00" transform="translate(57.99,34.26) rotate(-110.0)" rx="0.89" ry="0.64"/>
<ellipse fill="#090909" cx="0.00" cy="0.00" transform="translate(59.59,38.99) rotate(-95.7)" rx="0.96" ry="0.75"/>
<path fill="#090909" d="
  M 64.70 38.35
  Q 65.17 38.49 65.20 38.97
  Q 65.22 39.48 64.79 39.60
  Q 63.96 39.82 63.71 39.45
  A 0.83 0.74 -6.4 0 1 64.70 38.35
  Z"
/>
<path fill="#090909" d="
  M 62.01 44.79
  Q 66.92 44.79 71.64 47.49
  A 2.33 2.31 -40.2 0 0 73.62 47.64
  Q 76.18 46.67 78.92 45.13
  Q 79.14 45.01 79.42 45.29
  Q 79.71 45.58 79.59 45.79
  Q 78.04 48.54 77.08 51.10
  A 2.33 2.31 -49.8 0 0 77.23 53.07
  Q 79.93 57.80 79.93 62.71
  Q 79.93 67.62 77.23 72.35
  A 2.33 2.31 49.8 0 0 77.08 74.33
  Q 78.05 76.89 79.59 79.63
  Q 79.71 79.84 79.43 80.13
  Q 79.14 80.41 78.93 80.29
  Q 76.18 78.75 73.62 77.78
  A 2.33 2.31 40.2 0 0 71.65 77.93
  Q 66.92 80.64 62.01 80.64
  Q 57.10 80.64 52.37 77.94
  A 2.33 2.31 -40.2 0 0 50.40 77.78
  Q 47.84 78.75 45.09 80.30
  Q 44.88 80.42 44.59 80.13
  Q 44.31 79.85 44.43 79.63
  Q 45.97 76.89 46.94 74.33
  A 2.33 2.31 -49.8 0 0 46.79 72.35
  Q 44.09 67.63 44.09 62.71
  Q 44.09 57.80 46.79 53.08
  A 2.33 2.31 49.8 0 0 46.94 51.10
  Q 45.97 48.54 44.43 45.80
  Q 44.31 45.58 44.59 45.30
  Q 44.88 45.01 45.09 45.13
  Q 47.83 46.68 50.39 47.65
  A 2.33 2.31 40.2 0 0 52.37 47.49
  Q 57.09 44.79 62.01 44.79
  Z
  M 72.65 62.66
  A 10.71 10.71 0.0 0 0 61.94 51.95
  A 10.71 10.71 0.0 0 0 51.23 62.66
  A 10.71 10.71 0.0 0 0 61.94 73.37
  A 10.71 10.71 0.0 0 0 72.65 62.66
  Z"
/>
<path fill="#fbfbfb" d="
  M 72.65 62.66
  A 10.71 10.71 0.0 0 1 61.94 73.37
  A 10.71 10.71 0.0 0 1 51.23 62.66
  A 10.71 10.71 0.0 0 1 61.94 51.95
  A 10.71 10.71 0.0 0 1 72.65 62.66
  Z
  M 63.1939 60.2821
  A 1.71 1.71 0.0 0 0 60.7767 60.2061
  L 59.5521 61.3561
  A 1.71 1.71 0.0 0 0 59.4761 63.7733
  L 60.6261 64.9979
  A 1.71 1.71 0.0 0 0 63.0433 65.0739
  L 64.2679 63.9239
  A 1.71 1.71 0.0 0 0 64.3439 61.5067
  L 63.1939 60.2821
  Z"
/>
<circle fill="#090909" cx="40.85" cy="60.27" r="1.00"/>
<ellipse fill="#090909" cx="0.00" cy="0.00" transform="translate(83.34,60.32) rotate(-99.5)" rx="1.11" ry="0.96"/>
<rect fill="#090909" x="-2.55" y="-2.55" transform="translate(61.91,62.64) rotate(-43.2)" width="5.10" height="5.10" rx="1.71"/>
<ellipse fill="#090909" cx="0.00" cy="0.00" transform="translate(40.90,65.05) rotate(-103.6)" rx="0.96" ry="0.77"/>
<circle fill="#090909" cx="83.37" cy="65.05" r="0.87"/>
<circle fill="#090909" cx="59.55" cy="86.38" r="0.91"/>
<ellipse fill="#090909" cx="0.00" cy="0.00" transform="translate(64.35,86.44) rotate(-6.2)" rx="0.86" ry="0.68"/>
<path fill="#fbfbfb" d="
  M 98.92 96.41
  Q 101.55 98.03 102.24 99.77
  L 115.55 112.64
  A 0.93 0.92 24.8 0 1 115.83 113.39
  Q 115.71 114.87 113.54 116.30
  A 1.43 1.43 0.0 0 1 111.58 115.94
  L 110.09 113.84
  A 0.58 0.58 0.0 0 0 110.00 113.75
  L 98.44 102.57
  Q 96.57 101.37 95.52 99.59
  L 88.28 91.98
  A 2.05 2.04 43.3 0 1 88.19 89.06
  L 88.22 89.02
  A 1.97 1.97 0.0 0 1 90.99 88.95
  L 98.92 96.41
  Z"
/>
<circle fill="#090909" cx="65.97" cy="91.17" r="1.09"/>
<circle fill="#090909" cx="57.91" cy="91.24" r="0.89"/>
</svg>
