<?xml version="1.0" encoding="UTF-8" standalone="no"?>
<!DOCTYPE svg PUBLIC "-//W3C//DTD SVG 1.1//EN" "http://www.w3.org/Graphics/SVG/1.1/DTD/svg11.dtd">
<svg xmlns="http://www.w3.org/2000/svg" version="1.1" viewBox="0.00 0.00 125.00 125.00">
<g stroke-width="2.00" fill="none" stroke-linecap="butt">
<path stroke="#757475" vector-effect="non-scaling-stroke" d="
  M 122.57 63.00
  A 60.56 60.56 0.0 0 0 62.01 2.44
  A 60.56 60.56 0.0 0 0 1.45 63.00
  A 60.56 60.56 0.0 0 0 62.01 123.56
  A 60.56 60.56 0.0 0 0 122.57 63.00"
/>
<path stroke="#757475" vector-effect="non-scaling-stroke" d="
  M 120.15 63.01
  A 58.17 58.17 0.0 0 0 61.98 4.84
  A 58.17 58.17 0.0 0 0 3.81 63.01
  A 58.17 58.17 0.0 0 0 61.98 121.18
  A 58.17 58.17 0.0 0 0 120.15 63.01"
/>
<path stroke="#3e3e3e" vector-effect="non-scaling-stroke" d="
  M 117.10 62.56
  A 54.81 54.81 0.0 0 0 62.29 7.75
  A 54.81 54.81 0.0 0 0 7.48 62.56
  A 54.81 54.81 0.0 0 0 62.29 117.37
  A 54.81 54.81 0.0 0 0 117.10 62.56"
/>
<path stroke="#3e3e3e" vector-effect="non-scaling-stroke" d="
  M 111.75 62.53
  A 49.54 49.54 0.0 0 0 62.21 12.99
  A 49.54 49.54 0.0 0 0 12.67 62.53
  A 49.54 49.54 0.0 0 0 62.21 112.07
  A 49.54 49.54 0.0 0 0 111.75 62.53"
/>
<path stroke="#7f7f7f" vector-effect="non-scaling-stroke" d="
  M 62.46 35.85
  Q 62.20 35.85 62.03 36.32
  Q 60.66 40.23 57.87 42.07
  A 0.88 0.65 8.3 0 1 57.74 42.14
  L 47.89 46.43
  A 2.34 2.26 -57.3 0 1 47.08 46.62
  C 39.45 47.04 32.81 42.97 33.12 34.58
  A 0.50 0.50 0.0 0 0 32.25 34.22
  C 26.65 40.42 29.02 47.00 34.25 52.32
  A 3.21 3.20 67.8 0 0 36.50 53.27
  Q 38.32 53.29 62.45 53.30
  Q 86.59 53.31 88.41 53.29
  A 3.21 3.20 -67.8 0 0 90.66 52.34
  C 95.89 47.02 98.26 40.45 92.67 34.24
  A 0.50 0.50 0.0 0 0 91.80 34.60
  C 92.10 42.99 85.46 47.06 77.83 46.63
  A 2.34 2.26 57.3 0 1 77.02 46.44
  L 67.17 42.14
  A 0.88 0.65 -8.3 0 1 67.04 42.07
  Q 64.25 40.23 62.88 36.32
  Q 62.72 35.85 62.46 35.85"
/>
<path stroke="#7f7f7f" vector-effect="non-scaling-stroke" d="
  M 62.42 58.61
  Q 80.69 58.64 82.56 58.55
  A 2.38 2.29 29.9 0 0 83.45 58.33
  Q 86.53 56.87 87.94 54.79
  A 0.65 0.65 0.0 0 0 87.41 53.78
  Q 74.67 53.73 62.42 53.71
  Q 50.18 53.70 37.44 53.71
  A 0.65 0.65 0.0 0 0 36.91 54.72
  Q 38.31 56.80 41.39 58.27
  A 2.38 2.29 -29.7 0 0 42.28 58.50
  Q 44.15 58.59 62.42 58.61"
/>
<path stroke="#7f7f7f" vector-effect="non-scaling-stroke" d="
  M 83.12 60.98
  A 1.51 1.51 0.0 0 0 81.61 59.47
  L 43.15 59.47
  A 1.51 1.51 0.0 0 0 41.64 60.98
  L 41.64 62.40
  A 1.51 1.51 0.0 0 0 43.15 63.91
  L 81.61 63.91
  A 1.51 1.51 0.0 0 0 83.12 62.40
  L 83.12 60.98"
/>
<path stroke="#7f7f7f" vector-effect="non-scaling-stroke" d="
  M 82.47 67.03
  A 1.66 1.66 0.0 0 0 80.81 65.37
  L 43.95 65.37
  A 1.66 1.66 0.0 0 0 42.29 67.03
  L 42.29 67.75
  A 1.66 1.66 0.0 0 0 43.95 69.41
  L 80.81 69.41
  A 1.66 1.66 0.0 0 0 82.47 67.75
  L 82.47 67.03"
/>
<path stroke="#7f7f7f" vector-effect="non-scaling-stroke" d="
  M 47.03 71.44
  L 45.17 71.40
  A 0.69 0.69 0.0 0 0 44.47 72.08
  L 44.46 72.44
  A 2.25 1.44 -88.8 0 0 45.86 74.72
  L 46.22 74.72
  A 2.25 1.44 -88.8 0 0 47.70 72.50
  L 47.71 72.14
  A 0.69 0.69 0.0 0 0 47.03 71.44"
/>
<path stroke="#7f7f7f" vector-effect="non-scaling-stroke" d="
  M 66.2210 73.0825
  A 1.64 1.64 0.0 0 0 64.6157 71.4085
  L 60.0167 71.3122
  A 1.64 1.64 0.0 0 0 58.3427 72.9175
  L 58.3390 73.0975
  A 1.64 1.64 0.0 0 0 59.9443 74.7715
  L 64.5433 74.8678
  A 1.64 1.64 0.0 0 0 66.2173 73.2625
  L 66.2210 73.0825"
/>
<path stroke="#7f7f7f" vector-effect="non-scaling-stroke" d="
  M 79.35 71.13
  L 77.25 71.79
  A 0.72 0.72 0.0 0 0 76.78 72.70
  L 76.89 73.03
  A 2.39 1.74 72.4 0 0 79.27 74.78
  L 79.42 74.73
  A 2.39 1.74 72.4 0 0 80.36 71.93
  L 80.25 71.60
  A 0.72 0.72 0.0 0 0 79.35 71.13"
/>
<path stroke="#7f7f7f" vector-effect="non-scaling-stroke" d="
  M 42.57 80.09
  L 48.01 80.41
  A 0.25 0.25 0.0 0 0 48.27 80.17
  L 48.28 80.02
  A 2.72 2.64 3.4 0 0 45.72 77.23
  L 45.22 77.20
  A 2.72 2.64 3.4 0 0 42.35 79.67
  L 42.34 79.82
  A 0.25 0.25 0.0 0 0 42.57 80.09"
/>
<path stroke="#7f7f7f" vector-effect="non-scaling-stroke" d="
  M 52.91 79.94
  Q 55.52 80.44 58.56 80.43
  Q 61.62 80.42 62.06 78.48
  A 0.34 0.34 0.0 0 1 62.65 78.35
  L 63.77 79.78
  A 1.02 1.01 75.1 0 0 64.42 80.16
  Q 68.15 80.74 71.45 79.89
  A 0.25 0.25 0.0 0 0 71.42 79.40
  Q 69.13 79.04 67.52 77.62
  A 1.80 1.79 62.3 0 0 66.10 77.17
  Q 62.86 77.53 59.02 77.11
  Q 58.33 77.03 56.47 78.14
  C 55.05 78.99 53.90 79.14 52.88 79.50
  A 0.23 0.23 0.0 0 0 52.91 79.94"
/>
<path stroke="#7f7f7f" vector-effect="non-scaling-stroke" d="
  M 76.64 80.36
  L 82.10 80.11
  A 0.26 0.26 0.0 0 0 82.34 79.84
  L 82.33 79.57
  A 2.83 2.53 -2.6 0 0 79.39 77.17
  L 79.07 77.19
  A 2.83 2.53 -2.6 0 0 76.36 79.84
  L 76.37 80.11
  A 0.26 0.26 0.0 0 0 76.64 80.36"
/>
<path stroke="#7f7f7f" vector-effect="non-scaling-stroke" d="
  M 59.52 83.16
  L 44.72 83.08
  A 0.23 0.23 0.0 0 0 44.48 83.31
  L 44.48 83.47
  A 2.36 1.83 0.3 0 0 46.83 85.31
  L 57.37 85.37
  A 2.36 1.83 0.3 0 0 59.74 83.55
  L 59.74 83.39
  A 0.23 0.23 0.0 0 0 59.52 83.16"
/>
<path stroke="#7f7f7f" vector-effect="non-scaling-stroke" d="
  M 80.3694 84.0844
  A 1.09 1.09 0.0 0 0 79.2699 83.0039
  L 66.4104 83.1162
  A 1.09 1.09 0.0 0 0 65.3299 84.2156
  L 65.3306 84.2956
  A 1.09 1.09 0.0 0 0 66.4301 85.3761
  L 79.2896 85.2638
  A 1.09 1.09 0.0 0 0 80.3701 84.1644
  L 80.3694 84.0844"
/>
<path stroke="#7f7f7f" vector-effect="non-scaling-stroke" d="
  M 71.42 89.74
  A 0.85 0.85 0.0 0 0 70.57 88.89
  L 54.35 88.89
  A 0.85 0.85 0.0 0 0 53.50 89.74
  L 53.50 89.80
  A 0.85 0.85 0.0 0 0 54.35 90.65
  L 70.57 90.65
  A 0.85 0.85 0.0 0 0 71.42 89.80
  L 71.42 89.74"
/>
<path stroke="#7f7f7f" vector-effect="non-scaling-stroke" d="
  M 67.02 95.26
  A 4.61 0.62 0.0 0 0 62.41 94.64
  A 4.61 0.62 0.0 0 0 57.80 95.26
  A 4.61 0.62 0.0 0 0 62.41 95.88
  A 4.61 0.62 0.0 0 0 67.02 95.26"
/>
</g>
<path fill="none" d="
  M 125.00 0.00
  L 125.00 125.00
  L 0.00 125.00
  L 0.00 0.00
  L 125.00 0.00
  Z
  M 122.57 63.00
  A 60.56 60.56 0.0 0 0 62.01 2.44
  A 60.56 60.56 0.0 0 0 1.45 63.00
  A 60.56 60.56 0.0 0 0 62.01 123.56
  A 60.56 60.56 0.0 0 0 122.57 63.00
  Z"
/>
<path fill="#e2e0e3" d="
  M 122.57 63.00
  A 60.56 60.56 0.0 0 1 62.01 123.56
  A 60.56 60.56 0.0 0 1 1.45 63.00
  A 60.56 60.56 0.0 0 1 62.01 2.44
  A 60.56 60.56 0.0 0 1 122.57 63.00
  Z
  M 120.15 63.01
  A 58.17 58.17 0.0 0 0 61.98 4.84
  A 58.17 58.17 0.0 0 0 3.81 63.01
  A 58.17 58.17 0.0 0 0 61.98 121.18
  A 58.17 58.17 0.0 0 0 120.15 63.01
  Z"
/>
<path fill="none" d="
  M 120.15 63.01
  A 58.17 58.17 0.0 0 1 61.98 121.18
  A 58.17 58.17 0.0 0 1 3.81 63.01
  A 58.17 58.17 0.0 0 1 61.98 4.84
  A 58.17 58.17 0.0 0 1 120.15 63.01
  Z
  M 117.10 62.56
  A 54.81 54.81 0.0 0 0 62.29 7.75
  A 54.81 54.81 0.0 0 0 7.48 62.56
  A 54.81 54.81 0.0 0 0 62.29 117.37
  A 54.81 54.81 0.0 0 0 117.10 62.56
  Z"
/>
<path fill="#747474" d="
  M 117.10 62.56
  A 54.81 54.81 0.0 0 1 62.29 117.37
  A 54.81 54.81 0.0 0 1 7.48 62.56
  A 54.81 54.81 0.0 0 1 62.29 7.75
  A 54.81 54.81 0.0 0 1 117.10 62.56
  Z
  M 111.75 62.53
  A 49.54 49.54 0.0 0 0 62.21 12.99
  A 49.54 49.54 0.0 0 0 12.67 62.53
  A 49.54 49.54 0.0 0 0 62.21 112.07
  A 49.54 49.54 0.0 0 0 111.75 62.53
  Z"
/>
<path fill="none" d="
  M 111.75 62.53
  A 49.54 49.54 0.0 0 1 62.21 112.07
  A 49.54 49.54 0.0 0 1 12.67 62.53
  A 49.54 49.54 0.0 0 1 62.21 12.99
  A 49.54 49.54 0.0 0 1 111.75 62.53
  Z
  M 62.46 35.85
  Q 62.20 35.85 62.03 36.32
  Q 60.66 40.23 57.87 42.07
  A 0.88 0.65 8.3 0 1 57.74 42.14
  L 47.89 46.43
  A 2.34 2.26 -57.3 0 1 47.08 46.62
  C 39.45 47.04 32.81 42.97 33.12 34.58
  A 0.50 0.50 0.0 0 0 32.25 34.22
  C 26.65 40.42 29.02 47.00 34.25 52.32
  A 3.21 3.20 67.8 0 0 36.50 53.27
  Q 38.32 53.29 62.45 53.30
  Q 86.59 53.31 88.41 53.29
  A 3.21 3.20 -67.8 0 0 90.66 52.34
  C 95.89 47.02 98.26 40.45 92.67 34.24
  A 0.50 0.50 0.0 0 0 91.80 34.60
  C 92.10 42.99 85.46 47.06 77.83 46.63
  A 2.34 2.26 57.3 0 1 77.02 46.44
  L 67.17 42.14
  A 0.88 0.65 -8.3 0 1 67.04 42.07
  Q 64.25 40.23 62.88 36.32
  Q 62.72 35.85 62.46 35.85
  Z
  M 62.42 58.61
  Q 80.69 58.64 82.56 58.55
  A 2.38 2.29 29.9 0 0 83.45 58.33
  Q 86.53 56.87 87.94 54.79
  A 0.65 0.65 0.0 0 0 87.41 53.78
  Q 74.67 53.73 62.42 53.71
  Q 50.18 53.70 37.44 53.71
  A 0.65 0.65 0.0 0 0 36.91 54.72
  Q 38.31 56.80 41.39 58.27
  A 2.38 2.29 -29.7 0 0 42.28 58.50
  Q 44.15 58.59 62.42 58.61
  Z
  M 83.12 60.98
  A 1.51 1.51 0.0 0 0 81.61 59.47
  L 43.15 59.47
  A 1.51 1.51 0.0 0 0 41.64 60.98
  L 41.64 62.40
  A 1.51 1.51 0.0 0 0 43.15 63.91
  L 81.61 63.91
  A 1.51 1.51 0.0 0 0 83.12 62.40
  L 83.12 60.98
  Z
  M 82.47 67.03
  A 1.66 1.66 0.0 0 0 80.81 65.37
  L 43.95 65.37
  A 1.66 1.66 0.0 0 0 42.29 67.03
  L 42.29 67.75
  A 1.66 1.66 0.0 0 0 43.95 69.41
  L 80.81 69.41
  A 1.66 1.66 0.0 0 0 82.47 67.75
  L 82.47 67.03
  Z
  M 47.03 71.44
  L 45.17 71.40
  A 0.69 0.69 0.0 0 0 44.47 72.08
  L 44.46 72.44
  A 2.25 1.44 -88.8 0 0 45.86 74.72
  L 46.22 74.72
  A 2.25 1.44 -88.8 0 0 47.70 72.50
  L 47.71 72.14
  A 0.69 0.69 0.0 0 0 47.03 71.44
  Z
  M 66.2210 73.0825
  A 1.64 1.64 0.0 0 0 64.6157 71.4085
  L 60.0167 71.3122
  A 1.64 1.64 0.0 0 0 58.3427 72.9175
  L 58.3390 73.0975
  A 1.64 1.64 0.0 0 0 59.9443 74.7715
  L 64.5433 74.8678
  A 1.64 1.64 0.0 0 0 66.2173 73.2625
  L 66.2210 73.0825
  Z
  M 79.35 71.13
  L 77.25 71.79
  A 0.72 0.72 0.0 0 0 76.78 72.70
  L 76.89 73.03
  A 2.39 1.74 72.4 0 0 79.27 74.78
  L 79.42 74.73
  A 2.39 1.74 72.4 0 0 80.36 71.93
  L 80.25 71.60
  A 0.72 0.72 0.0 0 0 79.35 71.13
  Z
  M 42.57 80.09
  L 48.01 80.41
  A 0.25 0.25 0.0 0 0 48.27 80.17
  L 48.28 80.02
  A 2.72 2.64 3.4 0 0 45.72 77.23
  L 45.22 77.20
  A 2.72 2.64 3.4 0 0 42.35 79.67
  L 42.34 79.82
  A 0.25 0.25 0.0 0 0 42.57 80.09
  Z
  M 52.91 79.94
  Q 55.52 80.44 58.56 80.43
  Q 61.62 80.42 62.06 78.48
  A 0.34 0.34 0.0 0 1 62.65 78.35
  L 63.77 79.78
  A 1.02 1.01 75.1 0 0 64.42 80.16
  Q 68.15 80.74 71.45 79.89
  A 0.25 0.25 0.0 0 0 71.42 79.40
  Q 69.13 79.04 67.52 77.62
  A 1.80 1.79 62.3 0 0 66.10 77.17
  Q 62.86 77.53 59.02 77.11
  Q 58.33 77.03 56.47 78.14
  C 55.05 78.99 53.90 79.14 52.88 79.50
  A 0.23 0.23 0.0 0 0 52.91 79.94
  Z
  M 76.64 80.36
  L 82.10 80.11
  A 0.26 0.26 0.0 0 0 82.34 79.84
  L 82.33 79.57
  A 2.83 2.53 -2.6 0 0 79.39 77.17
  L 79.07 77.19
  A 2.83 2.53 -2.6 0 0 76.36 79.84
  L 76.37 80.11
  A 0.26 0.26 0.0 0 0 76.64 80.36
  Z
  M 59.52 83.16
  L 44.72 83.08
  A 0.23 0.23 0.0 0 0 44.48 83.31
  L 44.48 83.47
  A 2.36 1.83 0.3 0 0 46.83 85.31
  L 57.37 85.37
  A 2.36 1.83 0.3 0 0 59.74 83.55
  L 59.74 83.39
  A 0.23 0.23 0.0 0 0 59.52 83.16
  Z
  M 80.3694 84.0844
  A 1.09 1.09 0.0 0 0 79.2699 83.0039
  L 66.4104 83.1162
  A 1.09 1.09 0.0 0 0 65.3299 84.2156
  L 65.3306 84.2956
  A 1.09 1.09 0.0 0 0 66.4301 85.3761
  L 79.2896 85.2638
  A 1.09 1.09 0.0 0 0 80.3701 84.1644
  L 80.3694 84.0844
  Z
  M 71.42 89.74
  A 0.85 0.85 0.0 0 0 70.57 88.89
  L 54.35 88.89
  A 0.85 0.85 0.0 0 0 53.50 89.74
  L 53.50 89.80
  A 0.85 0.85 0.0 0 0 54.35 90.65
  L 70.57 90.65
  A 0.85 0.85 0.0 0 0 71.42 89.80
  L 71.42 89.74
  Z
  M 67.02 95.26
  A 4.61 0.62 0.0 0 0 62.41 94.64
  A 4.61 0.62 0.0 0 0 57.80 95.26
  A 4.61 0.62 0.0 0 0 62.41 95.88
  A 4.61 0.62 0.0 0 0 67.02 95.26
  Z"
/>
<path fill="#f7f7f7" d="
  M 62.45 53.30
  Q 38.32 53.29 36.50 53.27
  A 3.21 3.20 67.8 0 1 34.25 52.32
  C 29.02 47.00 26.65 40.42 32.25 34.22
  A 0.50 0.50 0.0 0 1 33.12 34.58
  C 32.81 42.97 39.45 47.04 47.08 46.62
  A 2.34 2.26 -57.3 0 0 47.89 46.43
  L 57.74 42.14
  A 0.88 0.65 8.3 0 0 57.87 42.07
  Q 60.66 40.23 62.03 36.32
  Q 62.20 35.85 62.46 35.85
  Q 62.72 35.85 62.88 36.32
  Q 64.25 40.23 67.04 42.07
  A 0.88 0.65 -8.3 0 0 67.17 42.14
  L 77.02 46.44
  A 2.34 2.26 57.3 0 0 77.83 46.63
  C 85.46 47.06 92.10 42.99 91.80 34.60
  A 0.50 0.50 0.0 0 1 92.67 34.24
  C 98.26 40.45 95.89 47.02 90.66 52.34
  A 3.21 3.20 -67.8 0 1 88.41 53.29
  Q 86.59 53.31 62.45 53.30
  Z"
/>
<path fill="#f7f7f7" d="
  M 62.42 53.71
  Q 74.67 53.73 87.41 53.78
  A 0.65 0.65 0.0 0 1 87.94 54.79
  Q 86.53 56.87 83.45 58.33
  A 2.38 2.29 29.9 0 1 82.56 58.55
  Q 80.69 58.64 62.42 58.61
  Q 44.15 58.59 42.28 58.50
  A 2.38 2.29 -29.7 0 1 41.39 58.27
  Q 38.31 56.80 36.91 54.72
  A 0.65 0.65 0.0 0 1 37.44 53.71
  Q 50.18 53.70 62.42 53.71
  Z"
/>
<rect fill="#f7f7f7" x="41.64" y="59.47" width="41.48" height="4.44" rx="1.51"/>
<rect fill="#f7f7f7" x="42.29" y="65.37" width="40.18" height="4.04" rx="1.66"/>
<path fill="#f7f7f7" d="
  M 47.03 71.44
  A 0.69 0.69 0.0 0 1 47.71 72.14
  L 47.70 72.50
  A 2.25 1.44 -88.8 0 1 46.22 74.72
  L 45.86 74.72
  A 2.25 1.44 -88.8 0 1 44.46 72.44
  L 44.47 72.08
  A 0.69 0.69 0.0 0 1 45.17 71.40
  L 47.03 71.44
  Z"
/>
<rect fill="#f7f7f7" x="-3.94" y="-1.73" transform="translate(62.28,73.09) rotate(1.2)" width="7.88" height="3.46" rx="1.64"/>
<path fill="#f7f7f7" d="
  M 79.35 71.13
  A 0.72 0.72 0.0 0 1 80.25 71.60
  L 80.36 71.93
  A 2.39 1.74 72.4 0 1 79.42 74.73
  L 79.27 74.78
  A 2.39 1.74 72.4 0 1 76.89 73.03
  L 76.78 72.70
  A 0.72 0.72 0.0 0 1 77.25 71.79
  L 79.35 71.13
  Z"
/>
<path fill="#f7f7f7" d="
  M 42.57 80.09
  A 0.25 0.25 0.0 0 1 42.34 79.82
  L 42.35 79.67
  A 2.72 2.64 3.4 0 1 45.22 77.20
  L 45.72 77.23
  A 2.72 2.64 3.4 0 1 48.28 80.02
  L 48.27 80.17
  A 0.25 0.25 0.0 0 1 48.01 80.41
  L 42.57 80.09
  Z"
/>
<path fill="#f7f7f7" d="
  M 52.88 79.50
  C 53.90 79.14 55.05 78.99 56.47 78.14
  Q 58.33 77.03 59.02 77.11
  Q 62.86 77.53 66.10 77.17
  A 1.80 1.79 62.3 0 1 67.52 77.62
  Q 69.13 79.04 71.42 79.40
  A 0.25 0.25 0.0 0 1 71.45 79.89
  Q 68.15 80.74 64.42 80.16
  A 1.02 1.01 75.1 0 1 63.77 79.78
  L 62.65 78.35
  A 0.34 0.34 0.0 0 0 62.06 78.48
  Q 61.62 80.42 58.56 80.43
  Q 55.52 80.44 52.91 79.94
  A 0.23 0.23 0.0 0 1 52.88 79.50
  Z"
/>
<path fill="#f7f7f7" d="
  M 76.64 80.36
  A 0.26 0.26 0.0 0 1 76.37 80.11
  L 76.36 79.84
  A 2.83 2.53 -2.6 0 1 79.07 77.19
  L 79.39 77.17
  A 2.83 2.53 -2.6 0 1 82.33 79.57
  L 82.34 79.84
  A 0.26 0.26 0.0 0 1 82.10 80.11
  L 76.64 80.36
  Z"
/>
<path fill="#f7f7f7" d="
  M 59.52 83.16
  A 0.23 0.23 0.0 0 1 59.74 83.39
  L 59.74 83.55
  A 2.36 1.83 0.3 0 1 57.37 85.37
  L 46.83 85.31
  A 2.36 1.83 0.3 0 1 44.48 83.47
  L 44.48 83.31
  A 0.23 0.23 0.0 0 1 44.72 83.08
  L 59.52 83.16
  Z"
/>
<rect fill="#f7f7f7" x="-7.52" y="-1.13" transform="translate(72.85,84.19) rotate(-0.5)" width="15.04" height="2.26" rx="1.09"/>
<rect fill="#f7f7f7" x="53.50" y="88.89" width="17.92" height="1.76" rx="0.85"/>
<ellipse fill="#f7f7f7" cx="62.41" cy="95.26" rx="4.61" ry="0.62"/>
</svg>
