<?xml version="1.0" encoding="UTF-8" standalone="no"?>
<!DOCTYPE svg PUBLIC "-//W3C//DTD SVG 1.1//EN" "http://www.w3.org/Graphics/SVG/1.1/DTD/svg11.dtd">
<svg xmlns="http://www.w3.org/2000/svg" version="1.1" viewBox="0.00 0.00 125.00 125.00">
<g stroke-width="2.00" fill="none" stroke-linecap="butt">
<path stroke="#828282" vector-effect="non-scaling-stroke" d="
  M 103.68 21.37
  C 121.31 39.05 125.50 64.65 115.10 87.39
  Q 111.49 95.27 106.00 101.27
  A 0.52 0.52 0.0 0 0 106.30 102.14
  Q 107.96 102.42 109.06 101.07
  Q 118.21 89.88 121.20 77.07
  Q 123.81 65.88 122.08 52.80
  Q 120.50 40.84 113.61 30.12
  Q 109.84 24.26 105.32 19.73
  Q 100.80 15.20 94.95 11.41
  Q 84.26 4.49 72.30 2.88
  Q 59.23 1.11 48.03 3.68
  Q 35.21 6.64 23.99 15.75
  Q 22.64 16.85 22.92 18.51
  A 0.52 0.52 0.0 0 0 23.79 18.81
  Q 29.80 13.34 37.69 9.76
  C 60.46 -0.58 86.05 3.68 103.68 21.37"
/>
<path stroke="#828282" vector-effect="non-scaling-stroke" d="
  M 81.56 16.30
  Q 81.94 16.73 81.52 17.91
  Q 81.21 18.78 80.62 19.29
  C 76.77 22.60 73.66 26.39 75.08 31.69
  C 76.69 37.69 85.27 37.43 84.17 31.26
  A 1.82 1.82 0.0 0 0 82.38 29.76
  L 79.56 29.76
  A 1.33 1.32 2.6 0 1 78.23 28.32
  C 78.37 26.74 79.05 25.78 80.39 24.81
  Q 83.82 22.31 84.68 18.27"
/>
<path stroke="#434343" vector-effect="non-scaling-stroke" d="
  M 84.68 18.27
  Q 90.57 21.13 95.49 25.70"
/>
<path stroke="#828282" vector-effect="non-scaling-stroke" d="
  M 95.49 25.70
  Q 92.85 27.01 90.57 27.84
  Q 88.65 28.54 88.26 29.09
  C 86.62 31.42 87.60 35.71 86.17 37.00
  A 0.03 0.02 -31.7 0 0 86.16 37.02
  L 75.79 47.38
  A 0.63 0.63 0.0 0 1 74.87 47.35
  C 66.85 38.18 59.86 31.41 47.24 29.85
  C 43.72 29.42 36.67 30.21 31.83 29.22
  C 27.96 28.42 24.71 28.19 21.95 25.59
  C 20.10 23.86 19.86 22.12 21.02 20.03
  C 21.95 18.36 21.95 15.55 19.87 15.18
  A 2.72 2.71 -70.9 0 0 16.98 16.59
  Q 12.71 24.69 18.69 30.11
  Q 22.08 33.19 22.49 33.59
  Q 44.32 55.13 55.56 66.58
  A 0.59 0.59 0.0 0 1 55.57 67.39
  Q 51.23 72.08 42.90 80.15
  C 40.15 82.83 35.60 84.12 32.11 85.60
  Q 30.15 86.42 29.47 88.05
  A 0.53 0.53 0.0 0 1 29.24 88.31
  L 25.74 90.33
  A 0.49 0.49 0.0 0 0 25.98 91.24
  L 29.99 91.24
  A 0.73 0.73 0.0 0 1 30.72 91.97
  L 30.72 93.13
  A 1.08 1.08 0.0 0 0 31.80 94.21
  L 33.41 94.21
  A 0.72 0.71 0.0 0 1 34.13 94.92
  L 34.13 98.56
  A 0.61 0.61 0.0 0 0 35.31 98.79
  L 36.21 96.47
  A 0.59 0.49 -17.6 0 1 36.34 96.27
  L 39.20 93.41
  A 2.80 2.74 -12.6 0 0 39.83 92.44
  L 43.02 84.20
  A 2.81 2.59 80.5 0 1 43.62 83.28
  L 57.00 69.90
  A 1.36 1.36 0.0 0 1 58.92 69.90
  Q 85.56 96.59 91.06 102.05
  C 93.31 104.28 94.94 107.20 97.63 108.71
  Q 103.18 111.84 108.86 107.47
  A 2.19 2.11 -51.5 0 0 108.51 103.78
  Q 108.15 103.63 106.83 103.71
  Q 106.10 103.76 105.19 104.10
  Q 100.21 105.98 97.58 100.58
  C 93.64 92.48 96.74 83.12 94.82 74.80
  C 92.47 64.59 86.13 57.15 78.15 50.62
  A 1.27 1.27 0.0 0 1 78.07 48.72
  Q 82.38 44.51 86.30 40.33
  C 88.57 37.90 91.86 37.95 94.70 37.58
  A 1.66 1.64 -80.7 0 0 95.99 36.64
  L 99.35 29.49"
/>
<path stroke="#434343" vector-effect="non-scaling-stroke" d="
  M 99.35 29.49
  L 106.97 39.47"
/>
<path stroke="#828282" vector-effect="non-scaling-stroke" d="
  M 106.97 39.47
  Q 103.52 40.45 102.67 41.41
  C 100.48 43.90 98.93 46.40 96.79 46.16
  A 1.46 1.46 0.0 0 1 95.49 44.71
  L 95.49 41.83
  A 1.63 1.63 0.0 0 0 94.26 40.25
  C 90.65 39.31 87.65 42.95 89.42 46.21
  C 92.13 51.20 98.19 50.97 102.02 47.53
  Q 102.73 46.89 105.96 43.96
  Q 106.60 43.39 108.17 43.17"
/>
<path stroke="#434343" vector-effect="non-scaling-stroke" d="
  M 108.17 43.17
  Q 114.25 58.01 111.17 72.44
  Q 108.39 85.48 99.05 95.95
  A 2.75 2.74 -39.2 0 0 98.72 99.16
  L 99.57 100.65
  A 1.39 1.39 0.0 0 0 101.94 100.70
  C 103.06 98.93 104.83 97.47 106.19 95.62
  Q 116.05 82.20 117.16 66.99
  Q 117.89 57.00 115.14 44.83"
/>
<path stroke="#828282" vector-effect="non-scaling-stroke" d="
  M 115.14 44.83
  Q 114.49 42.04 112.07 39.87"
/>
<path stroke="#434343" vector-effect="non-scaling-stroke" d="
  M 112.07 39.87
  Q 108.80 30.99 102.06 24.68
  A 0.15 0.13 -33.9 0 0 101.92 24.66
  Q 101.80 24.70 101.69 24.75"
/>
<path stroke="#828282" vector-effect="non-scaling-stroke" d="
  M 101.69 24.75
  Q 101.75 24.47 100.94 23.98"
/>
<path stroke="#434343" vector-effect="non-scaling-stroke" d="
  M 100.94 23.98
  Q 101.42 24.17 101.24 23.55
  A 0.79 0.79 0.0 0 0 101.02 23.19
  Q 93.82 16.06 84.24 12.48"
/>
<path stroke="#828282" vector-effect="non-scaling-stroke" d="
  M 84.24 12.48
  Q 82.63 10.84 79.88 9.60"
/>
<path stroke="#434343" vector-effect="non-scaling-stroke" d="
  M 79.88 9.60
  Q 65.35 6.71 53.43 8.40
  Q 37.96 10.59 24.17 22.93
  A 1.75 1.74 -55.3 0 0 24.70 25.86
  L 25.23 26.07
  A 4.87 4.86 34.3 0 0 30.26 25.12
  Q 41.47 14.87 56.49 13.32
  Q 68.58 12.07 81.56 16.30"
/>
<path stroke="#b7b8b7" vector-effect="non-scaling-stroke" d="
  M 79.88 9.60
  Q 81.61 13.58 81.56 16.30"
/>
<path stroke="#b7b8b7" vector-effect="non-scaling-stroke" d="
  M 84.24 12.48
  L 84.68 18.27"
/>
<path stroke="#b7b8b7" vector-effect="non-scaling-stroke" d="
  M 100.94 23.98
  L 95.49 25.70"
/>
<path stroke="#b7b8b7" vector-effect="non-scaling-stroke" d="
  M 101.69 24.75
  L 99.35 29.49"
/>
<path stroke="#b7b8b7" vector-effect="non-scaling-stroke" d="
  M 112.07 39.87
  L 106.97 39.47"
/>
<path stroke="#b7b8b7" vector-effect="non-scaling-stroke" d="
  M 115.14 44.83
  Q 111.22 42.60 108.17 43.17"
/>
<path stroke="#828282" vector-effect="non-scaling-stroke" d="
  M 74.58 16.61
  C 74.83 18.28 75.15 19.08 73.95 20.66
  C 71.86 23.43 68.55 26.35 68.63 30.14
  A 0.41 0.41 0.0 0 1 67.93 30.44
  L 66.47 28.99
  A 0.39 0.38 25.5 0 0 65.81 29.22
  Q 65.17 35.83 70.72 39.40
  A 1.56 1.55 -65.6 0 0 73.05 38.52
  Q 73.24 37.86 72.79 36.46
  Q 71.68 33.02 71.71 30.15
  A 4.57 4.51 58.7 0 1 72.17 28.20
  C 73.91 24.64 77.03 20.50 75.07 16.46
  A 0.26 0.26 0.0 0 0 74.58 16.61"
/>
<path stroke="#828282" vector-effect="non-scaling-stroke" d="
  M 19.60 105.30
  C 29.42 115.15 42.78 121.72 56.90 122.56
  Q 67.49 123.20 75.07 121.73
  Q 87.28 119.37 98.03 111.49
  A 0.60 0.60 0.0 0 0 98.13 110.60
  Q 97.63 110.03 96.84 110.06
  Q 96.43 110.07 95.57 110.62
  C 71.45 126.19 41.53 123.91 21.30 103.61
  C 1.06 83.30 -1.10 53.37 14.55 29.31
  Q 15.11 28.45 15.12 28.04
  Q 15.15 27.25 14.59 26.75
  A 0.60 0.60 0.0 0 0 13.70 26.85
  Q 5.78 37.57 3.37 49.77
  Q 1.87 57.34 2.47 67.93
  C 3.27 82.06 9.78 95.44 19.60 105.30"
/>
<path stroke="#434343" vector-effect="non-scaling-stroke" d="
  M 23.60 101.31
  Q 33.09 110.81 46.75 115.04
  Q 54.35 117.39 64.53 117.14
  Q 79.86 116.77 92.76 108.26
  A 1.03 1.03 0.0 0 0 92.92 106.67
  L 90.57 104.32
  A 1.26 1.26 0.0 0 0 88.90 104.22
  Q 86.37 106.21 83.09 107.61
  Q 60.13 117.34 38.43 105.88
  Q 32.92 102.97 27.43 97.48
  Q 21.95 91.98 19.05 86.47
  Q 7.62 64.75 17.39 41.81
  Q 18.79 38.53 20.79 36.00
  A 1.26 1.26 0.0 0 0 20.69 34.33
  L 18.34 31.98
  A 1.03 1.03 0.0 0 0 16.75 32.13
  Q 8.22 45.02 7.83 60.35
  Q 7.56 70.53 9.90 78.13
  Q 14.11 91.80 23.60 101.31"
/>
<path stroke="#828282" vector-effect="non-scaling-stroke" d="
  M 106.39 48.74
  C 104.41 48.28 101.03 49.91 99.28 50.89
  C 94.72 53.44 91.68 52.24 86.66 50.75
  A 0.70 0.70 0.0 0 0 85.76 51.34
  C 85.14 56.39 90.72 58.30 94.95 58.26
  A 0.62 0.61 -0.5 0 0 95.56 57.65
  L 95.56 56.56
  A 0.71 0.70 80.9 0 1 96.04 55.89
  Q 98.78 55.01 99.29 54.49
  Q 102.73 50.98 106.44 49.28
  A 0.29 0.29 0.0 0 0 106.39 48.74"
/>
<path stroke="#828282" vector-effect="non-scaling-stroke" d="
  M 28.62 34.87
  L 57.76 64.23
  A 0.80 0.79 45.0 0 0 58.89 64.23
  L 70.11 53.09
  A 1.22 1.22 0.0 0 0 70.11 51.37
  C 63.38 44.53 57.94 38.32 48.43 35.91
  Q 45.58 35.19 38.65 35.23
  Q 33.86 35.27 28.88 34.36
  A 0.30 0.30 0.0 0 0 28.62 34.87"
/>
<path stroke="#828282" vector-effect="non-scaling-stroke" d="
  M 90.04 96.44
  A 0.30 0.30 0.0 0 0 90.55 96.18
  Q 89.66 91.19 89.71 86.40
  Q 89.78 79.47 89.07 76.62
  C 86.69 67.10 80.50 61.63 73.69 54.87
  A 1.22 1.22 0.0 0 0 71.96 54.87
  L 60.78 66.05
  A 0.80 0.79 45.3 0 0 60.78 67.18
  L 90.04 96.44"
/>
</g>
<path fill="#0d0d0d" d="
  M 125.00 0.00
  L 125.00 125.00
  L 0.00 125.00
  L 0.00 0.00
  L 125.00 0.00
  Z
  M 103.68 21.37
  C 121.31 39.05 125.50 64.65 115.10 87.39
  Q 111.49 95.27 106.00 101.27
  A 0.52 0.52 0.0 0 0 106.30 102.14
  Q 107.96 102.42 109.06 101.07
  Q 118.21 89.88 121.20 77.07
  Q 123.81 65.88 122.08 52.80
  Q 120.50 40.84 113.61 30.12
  Q 109.84 24.26 105.32 19.73
  Q 100.80 15.20 94.95 11.41
  Q 84.26 4.49 72.30 2.88
  Q 59.23 1.11 48.03 3.68
  Q 35.21 6.64 23.99 15.75
  Q 22.64 16.85 22.92 18.51
  A 0.52 0.52 0.0 0 0 23.79 18.81
  Q 29.80 13.34 37.69 9.76
  C 60.46 -0.58 86.05 3.68 103.68 21.37
  Z
  M 81.56 16.30
  Q 81.94 16.73 81.52 17.91
  Q 81.21 18.78 80.62 19.29
  C 76.77 22.60 73.66 26.39 75.08 31.69
  C 76.69 37.69 85.27 37.43 84.17 31.26
  A 1.82 1.82 0.0 0 0 82.38 29.76
  L 79.56 29.76
  A 1.33 1.32 2.6 0 1 78.23 28.32
  C 78.37 26.74 79.05 25.78 80.39 24.81
  Q 83.82 22.31 84.68 18.27
  Q 90.57 21.13 95.49 25.70
  Q 92.85 27.01 90.57 27.84
  Q 88.65 28.54 88.26 29.09
  C 86.62 31.42 87.60 35.71 86.17 37.00
  A 0.03 0.02 -31.7 0 0 86.16 37.02
  L 75.79 47.38
  A 0.63 0.63 0.0 0 1 74.87 47.35
  C 66.85 38.18 59.86 31.41 47.24 29.85
  C 43.72 29.42 36.67 30.21 31.83 29.22
  C 27.96 28.42 24.71 28.19 21.95 25.59
  C 20.10 23.86 19.86 22.12 21.02 20.03
  C 21.95 18.36 21.95 15.55 19.87 15.18
  A 2.72 2.71 -70.9 0 0 16.98 16.59
  Q 12.71 24.69 18.69 30.11
  Q 22.08 33.19 22.49 33.59
  Q 44.32 55.13 55.56 66.58
  A 0.59 0.59 0.0 0 1 55.57 67.39
  Q 51.23 72.08 42.90 80.15
  C 40.15 82.83 35.60 84.12 32.11 85.60
  Q 30.15 86.42 29.47 88.05
  A 0.53 0.53 0.0 0 1 29.24 88.31
  L 25.74 90.33
  A 0.49 0.49 0.0 0 0 25.98 91.24
  L 29.99 91.24
  A 0.73 0.73 0.0 0 1 30.72 91.97
  L 30.72 93.13
  A 1.08 1.08 0.0 0 0 31.80 94.21
  L 33.41 94.21
  A 0.72 0.71 0.0 0 1 34.13 94.92
  L 34.13 98.56
  A 0.61 0.61 0.0 0 0 35.31 98.79
  L 36.21 96.47
  A 0.59 0.49 -17.6 0 1 36.34 96.27
  L 39.20 93.41
  A 2.80 2.74 -12.6 0 0 39.83 92.44
  L 43.02 84.20
  A 2.81 2.59 80.5 0 1 43.62 83.28
  L 57.00 69.90
  A 1.36 1.36 0.0 0 1 58.92 69.90
  Q 85.56 96.59 91.06 102.05
  C 93.31 104.28 94.94 107.20 97.63 108.71
  Q 103.18 111.84 108.86 107.47
  A 2.19 2.11 -51.5 0 0 108.51 103.78
  Q 108.15 103.63 106.83 103.71
  Q 106.10 103.76 105.19 104.10
  Q 100.21 105.98 97.58 100.58
  C 93.64 92.48 96.74 83.12 94.82 74.80
  C 92.47 64.59 86.13 57.15 78.15 50.62
  A 1.27 1.27 0.0 0 1 78.07 48.72
  Q 82.38 44.51 86.30 40.33
  C 88.57 37.90 91.86 37.95 94.70 37.58
  A 1.66 1.64 -80.7 0 0 95.99 36.64
  L 99.35 29.49
  L 106.97 39.47
  Q 103.52 40.45 102.67 41.41
  C 100.48 43.90 98.93 46.40 96.79 46.16
  A 1.46 1.46 0.0 0 1 95.49 44.71
  L 95.49 41.83
  A 1.63 1.63 0.0 0 0 94.26 40.25
  C 90.65 39.31 87.65 42.95 89.42 46.21
  C 92.13 51.20 98.19 50.97 102.02 47.53
  Q 102.73 46.89 105.96 43.96
  Q 106.60 43.39 108.17 43.17
  Q 114.25 58.01 111.17 72.44
  Q 108.39 85.48 99.05 95.95
  A 2.75 2.74 -39.2 0 0 98.72 99.16
  L 99.57 100.65
  A 1.39 1.39 0.0 0 0 101.94 100.70
  C 103.06 98.93 104.83 97.47 106.19 95.62
  Q 116.05 82.20 117.16 66.99
  Q 117.89 57.00 115.14 44.83
  Q 114.49 42.04 112.07 39.87
  Q 108.80 30.99 102.06 24.68
  A 0.15 0.13 -33.9 0 0 101.92 24.66
  Q 101.80 24.70 101.69 24.75
  Q 101.75 24.47 100.94 23.98
  Q 101.42 24.17 101.24 23.55
  A 0.79 0.79 0.0 0 0 101.02 23.19
  Q 93.82 16.06 84.24 12.48
  Q 82.63 10.84 79.88 9.60
  Q 65.35 6.71 53.43 8.40
  Q 37.96 10.59 24.17 22.93
  A 1.75 1.74 -55.3 0 0 24.70 25.86
  L 25.23 26.07
  A 4.87 4.86 34.3 0 0 30.26 25.12
  Q 41.47 14.87 56.49 13.32
  Q 68.58 12.07 81.56 16.30
  Z
  M 74.58 16.61
  C 74.83 18.28 75.15 19.08 73.95 20.66
  C 71.86 23.43 68.55 26.35 68.63 30.14
  A 0.41 0.41 0.0 0 1 67.93 30.44
  L 66.47 28.99
  A 0.39 0.38 25.5 0 0 65.81 29.22
  Q 65.17 35.83 70.72 39.40
  A 1.56 1.55 -65.6 0 0 73.05 38.52
  Q 73.24 37.86 72.79 36.46
  Q 71.68 33.02 71.71 30.15
  A 4.57 4.51 58.7 0 1 72.17 28.20
  C 73.91 24.64 77.03 20.50 75.07 16.46
  A 0.26 0.26 0.0 0 0 74.58 16.61
  Z
  M 19.60 105.30
  C 29.42 115.15 42.78 121.72 56.90 122.56
  Q 67.49 123.20 75.07 121.73
  Q 87.28 119.37 98.03 111.49
  A 0.60 0.60 0.0 0 0 98.13 110.60
  Q 97.63 110.03 96.84 110.06
  Q 96.43 110.07 95.57 110.62
  C 71.45 126.19 41.53 123.91 21.30 103.61
  C 1.06 83.30 -1.10 53.37 14.55 29.31
  Q 15.11 28.45 15.12 28.04
  Q 15.15 27.25 14.59 26.75
  A 0.60 0.60 0.0 0 0 13.70 26.85
  Q 5.78 37.57 3.37 49.77
  Q 1.87 57.34 2.47 67.93
  C 3.27 82.06 9.78 95.44 19.60 105.30
  Z
  M 23.60 101.31
  Q 33.09 110.81 46.75 115.04
  Q 54.35 117.39 64.53 117.14
  Q 79.86 116.77 92.76 108.26
  A 1.03 1.03 0.0 0 0 92.92 106.67
  L 90.57 104.32
  A 1.26 1.26 0.0 0 0 88.90 104.22
  Q 86.37 106.21 83.09 107.61
  Q 60.13 117.34 38.43 105.88
  Q 32.92 102.97 27.43 97.48
  Q 21.95 91.98 19.05 86.47
  Q 7.62 64.75 17.39 41.81
  Q 18.79 38.53 20.79 36.00
  A 1.26 1.26 0.0 0 0 20.69 34.33
  L 18.34 31.98
  A 1.03 1.03 0.0 0 0 16.75 32.13
  Q 8.22 45.02 7.83 60.35
  Q 7.56 70.53 9.90 78.13
  Q 14.11 91.80 23.60 101.31
  Z
  M 106.39 48.74
  C 104.41 48.28 101.03 49.91 99.28 50.89
  C 94.72 53.44 91.68 52.24 86.66 50.75
  A 0.70 0.70 0.0 0 0 85.76 51.34
  C 85.14 56.39 90.72 58.30 94.95 58.26
  A 0.62 0.61 -0.5 0 0 95.56 57.65
  L 95.56 56.56
  A 0.71 0.70 80.9 0 1 96.04 55.89
  Q 98.78 55.01 99.29 54.49
  Q 102.73 50.98 106.44 49.28
  A 0.29 0.29 0.0 0 0 106.39 48.74
  Z"
/>
<path fill="#f6f6f6" d="
  M 105.32 19.73
  Q 109.84 24.26 113.61 30.12
  Q 120.50 40.84 122.08 52.80
  Q 123.81 65.88 121.20 77.07
  Q 118.21 89.88 109.06 101.07
  Q 107.96 102.42 106.30 102.14
  A 0.52 0.52 0.0 0 1 106.00 101.27
  Q 111.49 95.27 115.10 87.39
  C 125.50 64.65 121.31 39.05 103.68 21.37
  C 86.05 3.68 60.46 -0.58 37.69 9.76
  Q 29.80 13.34 23.79 18.81
  A 0.52 0.52 0.0 0 1 22.92 18.51
  Q 22.64 16.85 23.99 15.75
  Q 35.21 6.64 48.03 3.68
  Q 59.23 1.11 72.30 2.88
  Q 84.26 4.49 94.95 11.41
  Q 100.80 15.20 105.32 19.73
  Z"
/>
<path fill="#787978" d="
  M 79.88 9.60
  Q 81.61 13.58 81.56 16.30
  Q 68.58 12.07 56.49 13.32
  Q 41.47 14.87 30.26 25.12
  A 4.87 4.86 34.3 0 1 25.23 26.07
  L 24.70 25.86
  A 1.75 1.74 -55.3 0 1 24.17 22.93
  Q 37.96 10.59 53.43 8.40
  Q 65.35 6.71 79.88 9.60
  Z"
/>
<path fill="#f6f6f6" d="
  M 79.88 9.60
  Q 82.63 10.84 84.24 12.48
  L 84.68 18.27
  Q 83.82 22.31 80.39 24.81
  C 79.05 25.78 78.37 26.74 78.23 28.32
  A 1.33 1.32 2.6 0 0 79.56 29.76
  L 82.38 29.76
  A 1.82 1.82 0.0 0 1 84.17 31.26
  C 85.27 37.43 76.69 37.69 75.08 31.69
  C 73.66 26.39 76.77 22.60 80.62 19.29
  Q 81.21 18.78 81.52 17.91
  Q 81.94 16.73 81.56 16.30
  Q 81.61 13.58 79.88 9.60
  Z"
/>
<path fill="#787978" d="
  M 100.94 23.98
  L 95.49 25.70
  Q 90.57 21.13 84.68 18.27
  L 84.24 12.48
  Q 93.82 16.06 101.02 23.19
  A 0.79 0.79 0.0 0 1 101.24 23.55
  Q 101.42 24.17 100.94 23.98
  Z"
/>
<path fill="#f6f6f6" d="
  M 95.49 25.70
  L 100.94 23.98
  Q 101.75 24.47 101.69 24.75
  L 99.35 29.49
  L 95.99 36.64
  A 1.66 1.64 -80.7 0 1 94.70 37.58
  C 91.86 37.95 88.57 37.90 86.30 40.33
  Q 82.38 44.51 78.07 48.72
  A 1.27 1.27 0.0 0 0 78.15 50.62
  C 86.13 57.15 92.47 64.59 94.82 74.80
  C 96.74 83.12 93.64 92.48 97.58 100.58
  Q 100.21 105.98 105.19 104.10
  Q 106.10 103.76 106.83 103.71
  Q 108.15 103.63 108.51 103.78
  A 2.19 2.11 -51.5 0 1 108.86 107.47
  Q 103.18 111.84 97.63 108.71
  C 94.94 107.20 93.31 104.28 91.06 102.05
  Q 85.56 96.59 58.92 69.90
  A 1.36 1.36 0.0 0 0 57.00 69.90
  L 43.62 83.28
  A 2.81 2.59 80.5 0 0 43.02 84.20
  L 39.83 92.44
  A 2.80 2.74 -12.6 0 1 39.20 93.41
  L 36.34 96.27
  A 0.59 0.49 -17.6 0 0 36.21 96.47
  L 35.31 98.79
  A 0.61 0.61 0.0 0 1 34.13 98.56
  L 34.13 94.92
  A 0.72 0.71 -0.0 0 0 33.41 94.21
  L 31.80 94.21
  A 1.08 1.08 0.0 0 1 30.72 93.13
  L 30.72 91.97
  A 0.73 0.73 0.0 0 0 29.99 91.24
  L 25.98 91.24
  A 0.49 0.49 0.0 0 1 25.74 90.33
  L 29.24 88.31
  A 0.53 0.53 0.0 0 0 29.47 88.05
  Q 30.15 86.42 32.11 85.60
  C 35.60 84.12 40.15 82.83 42.90 80.15
  Q 51.23 72.08 55.57 67.39
  A 0.59 0.59 0.0 0 0 55.56 66.58
  Q 44.32 55.13 22.49 33.59
  Q 22.08 33.19 18.69 30.11
  Q 12.71 24.69 16.98 16.59
  A 2.72 2.71 -70.9 0 1 19.87 15.18
  C 21.95 15.55 21.95 18.36 21.02 20.03
  C 19.86 22.12 20.10 23.86 21.95 25.59
  C 24.71 28.19 27.96 28.42 31.83 29.22
  C 36.67 30.21 43.72 29.42 47.24 29.85
  C 59.86 31.41 66.85 38.18 74.87 47.35
  A 0.63 0.63 0.0 0 0 75.79 47.38
  L 86.16 37.02
  A 0.03 0.02 -31.7 0 1 86.17 37.00
  C 87.60 35.71 86.62 31.42 88.26 29.09
  Q 88.65 28.54 90.57 27.84
  Q 92.85 27.01 95.49 25.70
  Z
  M 28.62 34.87
  L 57.76 64.23
  A 0.80 0.79 45.0 0 0 58.89 64.23
  L 70.11 53.09
  A 1.22 1.22 0.0 0 0 70.11 51.37
  C 63.38 44.53 57.94 38.32 48.43 35.91
  Q 45.58 35.19 38.65 35.23
  Q 33.86 35.27 28.88 34.36
  A 0.30 0.30 0.0 0 0 28.62 34.87
  Z
  M 90.04 96.44
  A 0.30 0.30 0.0 0 0 90.55 96.18
  Q 89.66 91.19 89.71 86.40
  Q 89.78 79.47 89.07 76.62
  C 86.69 67.10 80.50 61.63 73.69 54.87
  A 1.22 1.22 0.0 0 0 71.96 54.87
  L 60.78 66.05
  A 0.80 0.79 45.3 0 0 60.78 67.18
  L 90.04 96.44
  Z"
/>
<path fill="#f6f6f6" d="
  M 74.58 16.61
  A 0.26 0.26 0.0 0 1 75.07 16.46
  C 77.03 20.50 73.91 24.64 72.17 28.20
  A 4.57 4.51 58.7 0 0 71.71 30.15
  Q 71.68 33.02 72.79 36.46
  Q 73.24 37.86 73.05 38.52
  A 1.56 1.55 -65.6 0 1 70.72 39.40
  Q 65.17 35.83 65.81 29.22
  A 0.39 0.38 25.5 0 1 66.47 28.99
  L 67.93 30.44
  A 0.41 0.41 0.0 0 0 68.63 30.14
  C 68.55 26.35 71.86 23.43 73.95 20.66
  C 75.15 19.08 74.83 18.28 74.58 16.61
  Z"
/>
<path fill="#787978" d="
  M 112.07 39.87
  L 106.97 39.47
  L 99.35 29.49
  L 101.69 24.75
  Q 101.80 24.70 101.92 24.66
  A 0.15 0.13 -33.9 0 1 102.06 24.68
  Q 108.80 30.99 112.07 39.87
  Z"
/>
<path fill="#f6f6f6" d="
  M 21.30 103.61
  C 41.53 123.91 71.45 126.19 95.57 110.62
  Q 96.43 110.07 96.84 110.06
  Q 97.63 110.03 98.13 110.60
  A 0.60 0.60 0.0 0 1 98.03 111.49
  Q 87.28 119.37 75.07 121.73
  Q 67.49 123.20 56.90 122.56
  C 42.78 121.72 29.42 115.15 19.60 105.30
  C 9.78 95.44 3.27 82.06 2.47 67.93
  Q 1.87 57.34 3.37 49.77
  Q 5.78 37.57 13.70 26.85
  A 0.60 0.60 0.0 0 1 14.59 26.75
  Q 15.15 27.25 15.12 28.04
  Q 15.11 28.45 14.55 29.31
  C -1.10 53.37 1.06 83.30 21.30 103.61
  Z"
/>
<path fill="#787978" d="
  M 27.43 97.48
  Q 32.92 102.97 38.43 105.88
  Q 60.13 117.34 83.09 107.61
  Q 86.37 106.21 88.90 104.22
  A 1.26 1.26 0.0 0 1 90.57 104.32
  L 92.92 106.67
  A 1.03 1.03 0.0 0 1 92.76 108.26
  Q 79.86 116.77 64.53 117.14
  Q 54.35 117.39 46.75 115.04
  Q 33.09 110.81 23.60 101.31
  Q 14.11 91.80 9.90 78.13
  Q 7.56 70.53 7.83 60.35
  Q 8.22 45.02 16.75 32.13
  A 1.03 1.03 0.0 0 1 18.34 31.98
  L 20.69 34.33
  A 1.26 1.26 0.0 0 1 20.79 36.00
  Q 18.79 38.53 17.39 41.81
  Q 7.62 64.75 19.05 86.47
  Q 21.95 91.98 27.43 97.48
  Z"
/>
<path fill="#0d0d0d" d="
  M 28.62 34.87
  A 0.30 0.30 0.0 0 1 28.88 34.36
  Q 33.86 35.27 38.65 35.23
  Q 45.58 35.19 48.43 35.91
  C 57.94 38.32 63.38 44.53 70.11 51.37
  A 1.22 1.22 0.0 0 1 70.11 53.09
  L 58.89 64.23
  A 0.80 0.79 45.0 0 1 57.76 64.23
  L 28.62 34.87
  Z"
/>
<path fill="#f6f6f6" d="
  M 106.97 39.47
  L 112.07 39.87
  Q 114.49 42.04 115.14 44.83
  Q 111.22 42.60 108.17 43.17
  Q 106.60 43.39 105.96 43.96
  Q 102.73 46.89 102.02 47.53
  C 98.19 50.97 92.13 51.20 89.42 46.21
  C 87.65 42.95 90.65 39.31 94.26 40.25
  A 1.63 1.63 0.0 0 1 95.49 41.83
  L 95.49 44.71
  A 1.46 1.46 0.0 0 0 96.79 46.16
  C 98.93 46.40 100.48 43.90 102.67 41.41
  Q 103.52 40.45 106.97 39.47
  Z"
/>
<path fill="#787978" d="
  M 115.14 44.83
  Q 117.89 57.00 117.16 66.99
  Q 116.05 82.20 106.19 95.62
  C 104.83 97.47 103.06 98.93 101.94 100.70
  A 1.39 1.39 0.0 0 1 99.57 100.65
  L 98.72 99.16
  A 2.75 2.74 -39.2 0 1 99.05 95.95
  Q 108.39 85.48 111.17 72.44
  Q 114.25 58.01 108.17 43.17
  Q 111.22 42.60 115.14 44.83
  Z"
/>
<path fill="#f6f6f6" d="
  M 106.39 48.74
  A 0.29 0.29 0.0 0 1 106.44 49.28
  Q 102.73 50.98 99.29 54.49
  Q 98.78 55.01 96.04 55.89
  A 0.71 0.70 80.9 0 0 95.56 56.56
  L 95.56 57.65
  A 0.62 0.61 -0.5 0 1 94.95 58.26
  C 90.72 58.30 85.14 56.39 85.76 51.34
  A 0.70 0.70 0.0 0 1 86.66 50.75
  C 91.68 52.24 94.72 53.44 99.28 50.89
  C 101.03 49.91 104.41 48.28 106.39 48.74
  Z"
/>
<path fill="#0d0d0d" d="
  M 90.04 96.44
  L 60.78 67.18
  A 0.80 0.79 45.3 0 1 60.78 66.05
  L 71.96 54.87
  A 1.22 1.22 0.0 0 1 73.69 54.87
  C 80.50 61.63 86.69 67.10 89.07 76.62
  Q 89.78 79.47 89.71 86.40
  Q 89.66 91.19 90.55 96.18
  A 0.30 0.30 0.0 0 1 90.04 96.44
  Z"
/>
</svg>
