<?xml version="1.0" encoding="UTF-8" standalone="no"?>
<!DOCTYPE svg PUBLIC "-//W3C//DTD SVG 1.1//EN" "http://www.w3.org/Graphics/SVG/1.1/DTD/svg11.dtd">
<svg xmlns="http://www.w3.org/2000/svg" version="1.1" viewBox="0.00 0.00 125.00 125.00">
<g stroke-width="2.00" fill="none" stroke-linecap="butt">
<path stroke="#828282" vector-effect="non-scaling-stroke" d="
  M 122.55 62.02
  A 60.53 60.53 0.0 0 0 62.02 1.49
  A 60.53 60.53 0.0 0 0 1.49 62.02
  A 60.53 60.53 0.0 0 0 62.02 122.55
  A 60.53 60.53 0.0 0 0 122.55 62.02"
/>
<path stroke="#828282" vector-effect="non-scaling-stroke" d="
  M 120.20 62.01
  A 58.22 58.22 0.0 0 0 61.98 3.79
  A 58.22 58.22 0.0 0 0 3.76 62.01
  A 58.22 58.22 0.0 0 0 61.98 120.23
  A 58.22 58.22 0.0 0 0 120.20 62.01"
/>
<path stroke="#434444" vector-effect="non-scaling-stroke" d="
  M 117.06 62.35
  A 54.82 54.82 0.0 0 0 62.24 7.53
  A 54.82 54.82 0.0 0 0 7.42 62.35
  A 54.82 54.82 0.0 0 0 62.24 117.17
  A 54.82 54.82 0.0 0 0 117.06 62.35"
/>
<path stroke="#434444" vector-effect="non-scaling-stroke" d="
  M 111.79 62.36
  A 49.54 49.54 0.0 0 0 62.25 12.82
  A 49.54 49.54 0.0 0 0 12.71 62.36
  A 49.54 49.54 0.0 0 0 62.25 111.90
  A 49.54 49.54 0.0 0 0 111.79 62.36"
/>
<path stroke="#828282" vector-effect="non-scaling-stroke" d="
  M 65.88 38.69
  L 58.63 38.58
  A 1.85 1.84 27.8 0 0 57.59 38.90
  Q 57.46 39.01 57.33 39.22
  A 0.59 0.59 0.0 0 1 56.37 39.29
  Q 54.62 37.17 51.25 37.18
  A 0.54 0.54 0.0 0 0 50.73 37.84
  C 51.59 41.50 55.49 40.92 57.55 42.05
  A 3.11 3.08 59.0 0 0 59.09 42.44
  L 66.32 42.40
  A 0.88 0.84 -57.7 0 0 66.72 42.30
  Q 68.53 41.40 70.08 41.05
  Q 72.51 40.51 73.52 38.94
  A 1.21 1.21 0.0 0 0 72.17 37.12
  Q 69.11 37.99 68.28 39.42
  A 0.53 0.53 0.0 0 1 67.49 39.57
  L 66.72 38.95
  A 0.39 0.39 0.0 0 1 66.83 38.28
  Q 67.06 38.19 67.31 37.54
  A 0.54 0.50 48.5 0 0 67.32 37.21
  L 63.90 26.37
  A 0.21 0.21 0.0 0 1 64.02 26.12
  L 64.31 26.23
  A 0.61 0.60 1.1 0 1 64.69 26.62
  L 67.72 36.58
  A 1.40 1.39 -21.7 0 0 69.68 37.42
  L 72.48 36.02
  A 0.55 0.55 0.0 0 0 72.69 35.23
  C 69.57 30.51 67.48 26.82 63.55 23.36
  A 1.24 1.23 62.4 0 0 62.60 23.06
  Q 59.91 23.38 58.30 25.84
  Q 54.82 31.18 51.76 34.92
  A 0.85 0.84 28.5 0 0 52.16 36.26
  L 55.79 37.39
  A 0.72 0.71 17.0 0 0 56.69 36.92
  L 60.10 25.96
  A 0.28 0.28 0.0 0 1 60.48 25.78
  L 60.79 25.92
  A 0.01 0.00 -58.3 0 1 60.79 25.93
  L 57.26 36.55
  A 1.31 1.31 0.0 0 0 58.53 38.27
  L 66.02 38.17
  A 0.17 0.16 -84.2 0 1 66.18 38.37
  L 66.18 38.38
  A 0.30 0.29 90.0 0 1 65.88 38.69"
/>
<path stroke="#828282" vector-effect="non-scaling-stroke" d="
  M 39.92 52.55
  A 0.67 0.65 17.4 0 0 40.10 52.88
  L 43.26 56.04
  A 2.22 2.21 -57.4 0 1 43.77 58.37
  C 42.47 61.92 43.26 62.91 45.16 65.85
  A 0.59 0.59 0.0 0 1 44.37 66.68
  L 41.38 64.96
  A 2.96 2.94 51.3 0 0 39.03 64.69
  L 31.99 66.84
  A 2.84 2.82 -83.7 0 0 30.33 68.18
  C 26.81 74.54 24.79 83.35 27.03 90.47
  A 0.43 0.43 0.0 0 0 27.87 90.37
  C 28.44 84.02 29.61 80.46 36.44 78.75
  A 0.58 0.58 0.0 0 1 37.16 79.29
  Q 37.20 80.35 36.51 81.67
  A 0.70 0.70 0.0 0 0 37.48 82.61
  Q 42.22 79.92 47.03 78.85
  Q 47.96 78.65 48.85 79.35
  A 1.04 1.02 55.1 0 0 49.77 79.52
  L 53.88 78.26
  A 0.77 0.77 0.0 0 1 54.85 78.78
  L 61.70 101.25
  A 0.65 0.64 45.3 0 0 62.93 101.26
  L 69.90 78.88
  A 1.10 1.10 0.0 0 1 71.59 78.31
  Q 74.11 80.10 76.46 79.01
  A 1.79 1.78 37.7 0 1 77.59 78.87
  Q 81.64 79.69 86.89 82.55
  A 0.72 0.72 0.0 0 0 87.94 81.77
  L 87.43 79.42
  A 0.57 0.56 -89.7 0 1 88.10 78.75
  Q 94.91 80.31 95.93 86.28
  Q 96.61 90.25 96.62 90.26
  A 0.28 0.28 0.0 0 0 97.13 90.26
  C 100.32 83.38 97.47 74.39 93.97 67.89
  A 1.84 1.84 0.0 0 0 92.88 67.00
  L 84.86 64.50
  A 1.87 1.85 36.9 0 0 83.27 64.72
  L 80.45 66.56
  A 0.52 0.52 0.0 0 1 79.68 66.31
  L 79.66 66.26
  A 1.18 1.17 59.4 0 1 79.97 65.04
  Q 82.74 62.34 81.08 58.43
  A 2.57 2.56 -32.0 0 1 81.76 55.50
  L 84.86 52.82
  A 1.95 1.95 0.0 0 0 85.46 51.88
  Q 85.59 51.45 85.58 49.02
  Q 85.57 48.01 86.79 43.85
  A 0.26 0.24 -71.7 0 0 86.65 43.55
  L 86.64 43.55
  A 0.31 0.30 25.2 0 0 86.24 43.69
  Q 84.19 47.77 80.49 51.10
  Q 78.62 52.78 78.71 55.27
  Q 78.88 59.94 74.75 63.45
  A 1.15 1.13 30.2 0 1 73.81 63.69
  L 69.57 62.83
  A 1.03 1.02 -76.0 0 0 68.39 63.54
  L 63.59 80.05
  A 0.20 0.20 0.0 0 1 63.34 80.18
  L 63.06 80.09
  A 0.10 0.09 -80.2 0 1 62.99 79.98
  L 66.55 62.39
  A 0.71 0.66 -18.5 0 1 66.74 62.04
  L 73.89 54.89
  A 1.37 1.33 -16.1 0 0 74.22 54.31
  Q 74.88 51.70 77.14 49.12
  Q 80.38 45.41 82.23 42.85
  A 0.38 0.36 -49.6 0 0 82.20 42.37
  L 81.87 42.05
  A 0.35 0.34 48.3 0 0 81.41 42.02
  L 78.74 44.15
  A 0.39 0.39 0.0 0 1 78.17 43.63
  Q 81.00 39.18 86.29 38.24
  Q 90.38 37.50 90.77 41.23
  Q 92.08 53.83 92.89 58.98
  A 0.74 0.74 0.0 0 0 94.12 59.41
  L 94.20 59.34
  A 2.97 2.93 -21.5 0 0 95.16 57.17
  Q 95.17 46.89 91.72 39.10
  A 0.76 0.75 -31.7 0 1 91.94 38.20
  L 92.85 37.48
  A 0.45 0.44 38.6 0 0 92.76 36.74
  Q 90.58 35.69 90.76 33.86
  A 0.87 0.87 0.0 0 0 89.50 33.00
  L 78.40 38.56
  A 0.92 0.89 -4.2 0 0 77.98 39.03
  C 75.29 45.95 72.94 52.66 68.22 56.49
  Q 67.14 57.36 64.27 57.74
  A 1.04 1.03 -82.3 0 0 63.46 58.36
  Q 63.37 58.56 63.36 58.91
  A 0.67 0.67 0.0 0 1 62.66 59.55
  Q 61.90 59.52 60.02 61.20
  Q 59.81 61.38 59.57 61.18
  A 0.23 0.23 0.0 0 1 59.63 60.80
  Q 61.69 59.91 61.62 58.50
  A 0.72 0.72 0.0 0 0 60.92 57.81
  Q 56.27 57.63 53.54 53.49
  Q 50.11 48.28 46.90 39.61
  C 46.13 37.51 44.39 37.79 43.14 37.09
  Q 36.74 33.50 35.05 33.14
  A 0.88 0.87 -87.7 0 0 34.00 34.12
  Q 34.19 35.58 31.51 37.08
  A 0.36 0.35 39.1 0 0 31.58 37.73
  L 32.61 38.05
  A 0.69 0.69 0.0 0 1 33.06 38.95
  Q 31.24 44.02 29.97 49.98
  Q 29.05 54.31 30.03 59.51
  A 0.69 0.69 0.0 0 0 31.31 59.72
  Q 32.01 58.48 32.25 56.99
  Q 32.58 54.85 34.19 39.86
  A 1.99 1.99 0.0 0 1 36.25 38.08
  Q 43.10 38.39 46.49 43.36
  A 0.34 0.33 87.7 0 1 46.05 43.84
  L 43.45 42.34
  A 0.57 0.57 0.0 0 0 42.72 43.19
  L 49.15 51.25
  A 5.26 5.19 -75.1 0 1 49.86 52.49
  L 50.71 54.65
  A 3.39 3.26 -80.4 0 0 51.54 55.87
  L 58.06 61.92
  A 0.35 0.35 0.0 0 1 58.16 62.26
  Q 58.08 62.54 58.08 62.56
  A 2.72 2.48 42.3 0 0 58.14 63.20
  L 61.83 80.35
  A 0.16 0.15 77.6 0 1 61.71 80.54
  L 61.23 80.65
  A 0.16 0.15 75.9 0 1 61.05 80.54
  L 56.59 64.00
  A 1.60 1.60 0.0 0 0 54.72 62.86
  L 50.74 63.72
  A 0.87 0.86 -32.1 0 1 50.02 63.56
  Q 45.88 60.36 46.19 55.78
  C 46.30 54.12 45.49 51.91 44.43 51.17
  Q 40.60 48.52 38.53 43.37
  A 0.29 0.29 0.0 0 0 37.98 43.54
  L 39.92 52.55"
/>
<path stroke="#828282" vector-effect="non-scaling-stroke" d="
  M 64.30 60.74
  Q 64.50 60.99 64.82 61.08
  A 0.13 0.13 0.0 0 0 64.98 60.91
  Q 64.89 60.64 64.52 60.46
  A 0.18 0.18 0.0 0 0 64.30 60.74"
/>
<path stroke="#828282" vector-effect="non-scaling-stroke" d="
  M 51.63 66.93
  L 55.82 73.54
  A 0.11 0.11 0.0 0 0 55.97 73.57
  L 55.98 73.57
  A 3.84 1.84 57.6 0 0 55.47 69.34
  L 55.28 69.03
  A 3.84 1.84 57.6 0 0 51.67 66.78
  L 51.66 66.78
  A 0.11 0.11 0.0 0 0 51.63 66.93"
/>
<path stroke="#828282" vector-effect="non-scaling-stroke" d="
  M 68.91 73.60
  L 72.99 66.83
  A 0.03 0.03 0.0 0 0 72.98 66.79
  L 72.97 66.78
  A 3.79 1.87 -58.9 0 0 69.41 69.06
  L 69.21 69.39
  A 3.79 1.87 -58.9 0 0 68.85 73.60
  L 68.87 73.61
  A 0.03 0.03 0.0 0 0 68.91 73.60"
/>
<path stroke="#b9baba" vector-effect="non-scaling-stroke" d="
  M 62.5420 81.5213
  A 2.61 0.39 -88.2 0 0 62.0702 84.1177
  A 2.61 0.39 -88.2 0 0 62.3780 86.7387
  A 2.61 0.39 -88.2 0 0 62.8498 84.1423
  A 2.61 0.39 -88.2 0 0 62.5420 81.5213"
/>
</g>
<path fill="none" d="
  M 125.00 0.00
  L 125.00 125.00
  L 0.00 125.00
  L 0.00 0.00
  L 125.00 0.00
  Z
  M 122.55 62.02
  A 60.53 60.53 0.0 0 0 62.02 1.49
  A 60.53 60.53 0.0 0 0 1.49 62.02
  A 60.53 60.53 0.0 0 0 62.02 122.55
  A 60.53 60.53 0.0 0 0 122.55 62.02
  Z"
/>
<path fill="#f8f8f8" d="
  M 122.55 62.02
  A 60.53 60.53 0.0 0 1 62.02 122.55
  A 60.53 60.53 0.0 0 1 1.49 62.02
  A 60.53 60.53 0.0 0 1 62.02 1.49
  A 60.53 60.53 0.0 0 1 122.55 62.02
  Z
  M 120.20 62.01
  A 58.22 58.22 0.0 0 0 61.98 3.79
  A 58.22 58.22 0.0 0 0 3.76 62.01
  A 58.22 58.22 0.0 0 0 61.98 120.23
  A 58.22 58.22 0.0 0 0 120.20 62.01
  Z"
/>
<path fill="none" d="
  M 120.20 62.01
  A 58.22 58.22 0.0 0 1 61.98 120.23
  A 58.22 58.22 0.0 0 1 3.76 62.01
  A 58.22 58.22 0.0 0 1 61.98 3.79
  A 58.22 58.22 0.0 0 1 120.20 62.01
  Z
  M 117.06 62.35
  A 54.82 54.82 0.0 0 0 62.24 7.53
  A 54.82 54.82 0.0 0 0 7.42 62.35
  A 54.82 54.82 0.0 0 0 62.24 117.17
  A 54.82 54.82 0.0 0 0 117.06 62.35
  Z"
/>
<path fill="#7a7b7b" d="
  M 117.06 62.35
  A 54.82 54.82 0.0 0 1 62.24 117.17
  A 54.82 54.82 0.0 0 1 7.42 62.35
  A 54.82 54.82 0.0 0 1 62.24 7.53
  A 54.82 54.82 0.0 0 1 117.06 62.35
  Z
  M 111.79 62.36
  A 49.54 49.54 0.0 0 0 62.25 12.82
  A 49.54 49.54 0.0 0 0 12.71 62.36
  A 49.54 49.54 0.0 0 0 62.25 111.90
  A 49.54 49.54 0.0 0 0 111.79 62.36
  Z"
/>
<path fill="none" d="
  M 111.79 62.36
  A 49.54 49.54 0.0 0 1 62.25 111.90
  A 49.54 49.54 0.0 0 1 12.71 62.36
  A 49.54 49.54 0.0 0 1 62.25 12.82
  A 49.54 49.54 0.0 0 1 111.79 62.36
  Z
  M 65.88 38.69
  L 58.63 38.58
  A 1.85 1.84 27.8 0 0 57.59 38.90
  Q 57.46 39.01 57.33 39.22
  A 0.59 0.59 0.0 0 1 56.37 39.29
  Q 54.62 37.17 51.25 37.18
  A 0.54 0.54 0.0 0 0 50.73 37.84
  C 51.59 41.50 55.49 40.92 57.55 42.05
  A 3.11 3.08 59.0 0 0 59.09 42.44
  L 66.32 42.40
  A 0.88 0.84 -57.7 0 0 66.72 42.30
  Q 68.53 41.40 70.08 41.05
  Q 72.51 40.51 73.52 38.94
  A 1.21 1.21 0.0 0 0 72.17 37.12
  Q 69.11 37.99 68.28 39.42
  A 0.53 0.53 0.0 0 1 67.49 39.57
  L 66.72 38.95
  A 0.39 0.39 0.0 0 1 66.83 38.28
  Q 67.06 38.19 67.31 37.54
  A 0.54 0.50 48.5 0 0 67.32 37.21
  L 63.90 26.37
  A 0.21 0.21 0.0 0 1 64.02 26.12
  L 64.31 26.23
  A 0.61 0.60 1.1 0 1 64.69 26.62
  L 67.72 36.58
  A 1.40 1.39 -21.7 0 0 69.68 37.42
  L 72.48 36.02
  A 0.55 0.55 0.0 0 0 72.69 35.23
  C 69.57 30.51 67.48 26.82 63.55 23.36
  A 1.24 1.23 62.4 0 0 62.60 23.06
  Q 59.91 23.38 58.30 25.84
  Q 54.82 31.18 51.76 34.92
  A 0.85 0.84 28.5 0 0 52.16 36.26
  L 55.79 37.39
  A 0.72 0.71 17.0 0 0 56.69 36.92
  L 60.10 25.96
  A 0.28 0.28 0.0 0 1 60.48 25.78
  L 60.79 25.92
  A 0.01 0.00 -58.3 0 1 60.79 25.93
  L 57.26 36.55
  A 1.31 1.31 0.0 0 0 58.53 38.27
  L 66.02 38.17
  A 0.17 0.16 -84.2 0 1 66.18 38.37
  L 66.18 38.38
  A 0.30 0.29 90.0 0 1 65.88 38.69
  Z
  M 39.92 52.55
  A 0.67 0.65 17.4 0 0 40.10 52.88
  L 43.26 56.04
  A 2.22 2.21 -57.4 0 1 43.77 58.37
  C 42.47 61.92 43.26 62.91 45.16 65.85
  A 0.59 0.59 0.0 0 1 44.37 66.68
  L 41.38 64.96
  A 2.96 2.94 51.3 0 0 39.03 64.69
  L 31.99 66.84
  A 2.84 2.82 -83.7 0 0 30.33 68.18
  C 26.81 74.54 24.79 83.35 27.03 90.47
  A 0.43 0.43 0.0 0 0 27.87 90.37
  C 28.44 84.02 29.61 80.46 36.44 78.75
  A 0.58 0.58 0.0 0 1 37.16 79.29
  Q 37.20 80.35 36.51 81.67
  A 0.70 0.70 0.0 0 0 37.48 82.61
  Q 42.22 79.92 47.03 78.85
  Q 47.96 78.65 48.85 79.35
  A 1.04 1.02 55.1 0 0 49.77 79.52
  L 53.88 78.26
  A 0.77 0.77 0.0 0 1 54.85 78.78
  L 61.70 101.25
  A 0.65 0.64 45.3 0 0 62.93 101.26
  L 69.90 78.88
  A 1.10 1.10 0.0 0 1 71.59 78.31
  Q 74.11 80.10 76.46 79.01
  A 1.79 1.78 37.7 0 1 77.59 78.87
  Q 81.64 79.69 86.89 82.55
  A 0.72 0.72 0.0 0 0 87.94 81.77
  L 87.43 79.42
  A 0.57 0.56 -89.7 0 1 88.10 78.75
  Q 94.91 80.31 95.93 86.28
  Q 96.61 90.25 96.62 90.26
  A 0.28 0.28 0.0 0 0 97.13 90.26
  C 100.32 83.38 97.47 74.39 93.97 67.89
  A 1.84 1.84 0.0 0 0 92.88 67.00
  L 84.86 64.50
  A 1.87 1.85 36.9 0 0 83.27 64.72
  L 80.45 66.56
  A 0.52 0.52 0.0 0 1 79.68 66.31
  L 79.66 66.26
  A 1.18 1.17 59.4 0 1 79.97 65.04
  Q 82.74 62.34 81.08 58.43
  A 2.57 2.56 -32.0 0 1 81.76 55.50
  L 84.86 52.82
  A 1.95 1.95 0.0 0 0 85.46 51.88
  Q 85.59 51.45 85.58 49.02
  Q 85.57 48.01 86.79 43.85
  A 0.26 0.24 -71.7 0 0 86.65 43.55
  L 86.64 43.55
  A 0.31 0.30 25.2 0 0 86.24 43.69
  Q 84.19 47.77 80.49 51.10
  Q 78.62 52.78 78.71 55.27
  Q 78.88 59.94 74.75 63.45
  A 1.15 1.13 30.2 0 1 73.81 63.69
  L 69.57 62.83
  A 1.03 1.02 -76.0 0 0 68.39 63.54
  L 63.59 80.05
  A 0.20 0.20 0.0 0 1 63.34 80.18
  L 63.06 80.09
  A 0.10 0.09 -80.2 0 1 62.99 79.98
  L 66.55 62.39
  A 0.71 0.66 -18.5 0 1 66.74 62.04
  L 73.89 54.89
  A 1.37 1.33 -16.1 0 0 74.22 54.31
  Q 74.88 51.70 77.14 49.12
  Q 80.38 45.41 82.23 42.85
  A 0.38 0.36 -49.6 0 0 82.20 42.37
  L 81.87 42.05
  A 0.35 0.34 48.3 0 0 81.41 42.02
  L 78.74 44.15
  A 0.39 0.39 0.0 0 1 78.17 43.63
  Q 81.00 39.18 86.29 38.24
  Q 90.38 37.50 90.77 41.23
  Q 92.08 53.83 92.89 58.98
  A 0.74 0.74 0.0 0 0 94.12 59.41
  L 94.20 59.34
  A 2.97 2.93 -21.5 0 0 95.16 57.17
  Q 95.17 46.89 91.72 39.10
  A 0.76 0.75 -31.7 0 1 91.94 38.20
  L 92.85 37.48
  A 0.45 0.44 38.6 0 0 92.76 36.74
  Q 90.58 35.69 90.76 33.86
  A 0.87 0.87 0.0 0 0 89.50 33.00
  L 78.40 38.56
  A 0.92 0.89 -4.2 0 0 77.98 39.03
  C 75.29 45.95 72.94 52.66 68.22 56.49
  Q 67.14 57.36 64.27 57.74
  A 1.04 1.03 -82.3 0 0 63.46 58.36
  Q 63.37 58.56 63.36 58.91
  A 0.67 0.67 0.0 0 1 62.66 59.55
  Q 61.90 59.52 60.02 61.20
  Q 59.81 61.38 59.57 61.18
  A 0.23 0.23 0.0 0 1 59.63 60.80
  Q 61.69 59.91 61.62 58.50
  A 0.72 0.72 0.0 0 0 60.92 57.81
  Q 56.27 57.63 53.54 53.49
  Q 50.11 48.28 46.90 39.61
  C 46.13 37.51 44.39 37.79 43.14 37.09
  Q 36.74 33.50 35.05 33.14
  A 0.88 0.87 -87.7 0 0 34.00 34.12
  Q 34.19 35.58 31.51 37.08
  A 0.36 0.35 39.1 0 0 31.58 37.73
  L 32.61 38.05
  A 0.69 0.69 0.0 0 1 33.06 38.95
  Q 31.24 44.02 29.97 49.98
  Q 29.05 54.31 30.03 59.51
  A 0.69 0.69 0.0 0 0 31.31 59.72
  Q 32.01 58.48 32.25 56.99
  Q 32.58 54.85 34.19 39.86
  A 1.99 1.99 0.0 0 1 36.25 38.08
  Q 43.10 38.39 46.49 43.36
  A 0.34 0.33 87.7 0 1 46.05 43.84
  L 43.45 42.34
  A 0.57 0.57 0.0 0 0 42.72 43.19
  L 49.15 51.25
  A 5.26 5.19 -75.1 0 1 49.86 52.49
  L 50.71 54.65
  A 3.39 3.26 -80.4 0 0 51.54 55.87
  L 58.06 61.92
  A 0.35 0.35 0.0 0 1 58.16 62.26
  Q 58.08 62.54 58.08 62.56
  A 2.72 2.48 42.3 0 0 58.14 63.20
  L 61.83 80.35
  A 0.16 0.15 77.6 0 1 61.71 80.54
  L 61.23 80.65
  A 0.16 0.15 75.9 0 1 61.05 80.54
  L 56.59 64.00
  A 1.60 1.60 0.0 0 0 54.72 62.86
  L 50.74 63.72
  A 0.87 0.86 -32.1 0 1 50.02 63.56
  Q 45.88 60.36 46.19 55.78
  C 46.30 54.12 45.49 51.91 44.43 51.17
  Q 40.60 48.52 38.53 43.37
  A 0.29 0.29 0.0 0 0 37.98 43.54
  L 39.92 52.55
  Z"
/>
<path fill="#f8f8f8" d="
  M 65.88 38.69
  A 0.30 0.29 90.0 0 0 66.18 38.38
  L 66.18 38.37
  A 0.17 0.16 -84.2 0 0 66.02 38.17
  L 58.53 38.27
  A 1.31 1.31 0.0 0 1 57.26 36.55
  L 60.79 25.93
  A 0.01 0.00 -58.3 0 0 60.79 25.92
  L 60.48 25.78
  A 0.28 0.28 0.0 0 0 60.10 25.96
  L 56.69 36.92
  A 0.72 0.71 17.0 0 1 55.79 37.39
  L 52.16 36.26
  A 0.85 0.84 28.5 0 1 51.76 34.92
  Q 54.82 31.18 58.30 25.84
  Q 59.91 23.38 62.60 23.06
  A 1.24 1.23 62.4 0 1 63.55 23.36
  C 67.48 26.82 69.57 30.51 72.69 35.23
  A 0.55 0.55 0.0 0 1 72.48 36.02
  L 69.68 37.42
  A 1.40 1.39 -21.7 0 1 67.72 36.58
  L 64.69 26.62
  A 0.61 0.60 1.1 0 0 64.31 26.23
  L 64.02 26.12
  A 0.21 0.21 0.0 0 0 63.90 26.37
  L 67.32 37.21
  A 0.54 0.50 48.5 0 1 67.31 37.54
  Q 67.06 38.19 66.83 38.28
  A 0.39 0.39 0.0 0 0 66.72 38.95
  L 67.49 39.57
  A 0.53 0.53 0.0 0 0 68.28 39.42
  Q 69.11 37.99 72.17 37.12
  A 1.21 1.21 0.0 0 1 73.52 38.94
  Q 72.51 40.51 70.08 41.05
  Q 68.53 41.40 66.72 42.30
  A 0.88 0.84 -57.7 0 1 66.32 42.40
  L 59.09 42.44
  A 3.11 3.08 59.0 0 1 57.55 42.05
  C 55.49 40.92 51.59 41.50 50.73 37.84
  A 0.54 0.54 0.0 0 1 51.25 37.18
  Q 54.62 37.17 56.37 39.29
  A 0.59 0.59 0.0 0 0 57.33 39.22
  Q 57.46 39.01 57.59 38.90
  A 1.85 1.84 27.8 0 1 58.63 38.58
  L 65.88 38.69
  Z"
/>
<path fill="#f8f8f8" d="
  M 39.92 52.55
  L 37.98 43.54
  A 0.29 0.29 0.0 0 1 38.53 43.37
  Q 40.60 48.52 44.43 51.17
  C 45.49 51.91 46.30 54.12 46.19 55.78
  Q 45.88 60.36 50.02 63.56
  A 0.87 0.86 -32.1 0 0 50.74 63.72
  L 54.72 62.86
  A 1.60 1.60 0.0 0 1 56.59 64.00
  L 61.05 80.54
  A 0.16 0.15 75.9 0 0 61.23 80.65
  L 61.71 80.54
  A 0.16 0.15 77.6 0 0 61.83 80.35
  L 58.14 63.20
  A 2.72 2.48 42.3 0 1 58.08 62.56
  Q 58.08 62.54 58.16 62.26
  A 0.35 0.35 0.0 0 0 58.06 61.92
  L 51.54 55.87
  A 3.39 3.26 -80.4 0 1 50.71 54.65
  L 49.86 52.49
  A 5.26 5.19 -75.1 0 0 49.15 51.25
  L 42.72 43.19
  A 0.57 0.57 0.0 0 1 43.45 42.34
  L 46.05 43.84
  A 0.34 0.33 87.7 0 0 46.49 43.36
  Q 43.10 38.39 36.25 38.08
  A 1.99 1.99 0.0 0 0 34.19 39.86
  Q 32.58 54.85 32.25 56.99
  Q 32.01 58.48 31.31 59.72
  A 0.69 0.69 0.0 0 1 30.03 59.51
  Q 29.05 54.31 29.97 49.98
  Q 31.24 44.02 33.06 38.95
  A 0.69 0.69 0.0 0 0 32.61 38.05
  L 31.58 37.73
  A 0.36 0.35 39.1 0 1 31.51 37.08
  Q 34.19 35.58 34.00 34.12
  A 0.88 0.87 -87.7 0 1 35.05 33.14
  Q 36.74 33.50 43.14 37.09
  C 44.39 37.79 46.13 37.51 46.90 39.61
  Q 50.11 48.28 53.54 53.49
  Q 56.27 57.63 60.92 57.81
  A 0.72 0.72 0.0 0 1 61.62 58.50
  Q 61.69 59.91 59.63 60.80
  A 0.23 0.23 0.0 0 0 59.57 61.18
  Q 59.81 61.38 60.02 61.20
  Q 61.90 59.52 62.66 59.55
  A 0.67 0.67 0.0 0 0 63.36 58.91
  Q 63.37 58.56 63.46 58.36
  A 1.04 1.03 -82.3 0 1 64.27 57.74
  Q 67.14 57.36 68.22 56.49
  C 72.94 52.66 75.29 45.95 77.98 39.03
  A 0.92 0.89 -4.2 0 1 78.40 38.56
  L 89.50 33.00
  A 0.87 0.87 0.0 0 1 90.76 33.86
  Q 90.58 35.69 92.76 36.74
  A 0.45 0.44 38.6 0 1 92.85 37.48
  L 91.94 38.20
  A 0.76 0.75 -31.7 0 0 91.72 39.10
  Q 95.17 46.89 95.16 57.17
  A 2.97 2.93 -21.5 0 1 94.20 59.34
  L 94.12 59.41
  A 0.74 0.74 0.0 0 1 92.89 58.98
  Q 92.08 53.83 90.77 41.23
  Q 90.38 37.50 86.29 38.24
  Q 81.00 39.18 78.17 43.63
  A 0.39 0.39 0.0 0 0 78.74 44.15
  L 81.41 42.02
  A 0.35 0.34 48.3 0 1 81.87 42.05
  L 82.20 42.37
  A 0.38 0.36 -49.6 0 1 82.23 42.85
  Q 80.38 45.41 77.14 49.12
  Q 74.88 51.70 74.22 54.31
  A 1.37 1.33 -16.1 0 1 73.89 54.89
  L 66.74 62.04
  A 0.71 0.66 -18.5 0 0 66.55 62.39
  L 62.99 79.98
  A 0.10 0.09 -80.2 0 0 63.06 80.09
  L 63.34 80.18
  A 0.20 0.20 0.0 0 0 63.59 80.05
  L 68.39 63.54
  A 1.03 1.02 -76.0 0 1 69.57 62.83
  L 73.81 63.69
  A 1.15 1.13 30.2 0 0 74.75 63.45
  Q 78.88 59.94 78.71 55.27
  Q 78.62 52.78 80.49 51.10
  Q 84.19 47.77 86.24 43.69
  A 0.31 0.30 25.2 0 1 86.64 43.55
  L 86.65 43.55
  A 0.26 0.24 -71.7 0 1 86.79 43.85
  Q 85.57 48.01 85.58 49.02
  Q 85.59 51.45 85.46 51.88
  A 1.95 1.95 0.0 0 1 84.86 52.82
  L 81.76 55.50
  A 2.57 2.56 -32.0 0 0 81.08 58.43
  Q 82.74 62.34 79.97 65.04
  A 1.18 1.17 59.4 0 0 79.66 66.26
  L 79.68 66.31
  A 0.52 0.52 0.0 0 0 80.45 66.56
  L 83.27 64.72
  A 1.87 1.85 36.9 0 1 84.86 64.50
  L 92.88 67.00
  A 1.84 1.84 0.0 0 1 93.97 67.89
  C 97.47 74.39 100.32 83.38 97.13 90.26
  A 0.28 0.28 0.0 0 1 96.62 90.26
  Q 96.61 90.25 95.93 86.28
  Q 94.91 80.31 88.10 78.75
  A 0.57 0.56 -89.7 0 0 87.43 79.42
  L 87.94 81.77
  A 0.72 0.72 0.0 0 1 86.89 82.55
  Q 81.64 79.69 77.59 78.87
  A 1.79 1.78 37.7 0 0 76.46 79.01
  Q 74.11 80.10 71.59 78.31
  A 1.10 1.10 0.0 0 0 69.90 78.88
  L 62.93 101.26
  A 0.65 0.64 45.3 0 1 61.70 101.25
  L 54.85 78.78
  A 0.77 0.77 0.0 0 0 53.88 78.26
  L 49.77 79.52
  A 1.04 1.02 55.1 0 1 48.85 79.35
  Q 47.96 78.65 47.03 78.85
  Q 42.22 79.92 37.48 82.61
  A 0.70 0.70 0.0 0 1 36.51 81.67
  Q 37.20 80.35 37.16 79.29
  A 0.58 0.58 0.0 0 0 36.44 78.75
  C 29.61 80.46 28.44 84.02 27.87 90.37
  A 0.43 0.43 0.0 0 1 27.03 90.47
  C 24.79 83.35 26.81 74.54 30.33 68.18
  A 2.84 2.82 -83.7 0 1 31.99 66.84
  L 39.03 64.69
  A 2.96 2.94 51.3 0 1 41.38 64.96
  L 44.37 66.68
  A 0.59 0.59 0.0 0 0 45.16 65.85
  C 43.26 62.91 42.47 61.92 43.77 58.37
  A 2.22 2.21 -57.4 0 0 43.26 56.04
  L 40.10 52.88
  A 0.67 0.65 17.4 0 1 39.92 52.55
  Z
  M 64.30 60.74
  Q 64.50 60.99 64.82 61.08
  A 0.13 0.13 0.0 0 0 64.98 60.91
  Q 64.89 60.64 64.52 60.46
  A 0.18 0.18 0.0 0 0 64.30 60.74
  Z
  M 51.63 66.93
  L 55.82 73.54
  A 0.11 0.11 0.0 0 0 55.97 73.57
  L 55.98 73.57
  A 3.84 1.84 57.6 0 0 55.47 69.34
  L 55.28 69.03
  A 3.84 1.84 57.6 0 0 51.67 66.78
  L 51.66 66.78
  A 0.11 0.11 0.0 0 0 51.63 66.93
  Z
  M 68.91 73.60
  L 72.99 66.83
  A 0.03 0.03 0.0 0 0 72.98 66.79
  L 72.97 66.78
  A 3.79 1.87 -58.9 0 0 69.41 69.06
  L 69.21 69.39
  A 3.79 1.87 -58.9 0 0 68.85 73.60
  L 68.87 73.61
  A 0.03 0.03 0.0 0 0 68.91 73.60
  Z
  M 62.5420 81.5213
  A 2.61 0.39 -88.2 0 0 62.0702 84.1177
  A 2.61 0.39 -88.2 0 0 62.3780 86.7387
  A 2.61 0.39 -88.2 0 0 62.8498 84.1423
  A 2.61 0.39 -88.2 0 0 62.5420 81.5213
  Z"
/>
<path fill="none" d="
  M 64.52 60.46
  Q 64.89 60.64 64.98 60.91
  A 0.13 0.13 0.0 0 1 64.82 61.08
  Q 64.50 60.99 64.30 60.74
  A 0.18 0.18 0.0 0 1 64.52 60.46
  Z"
/>
<path fill="none" d="
  M 51.63 66.93
  A 0.11 0.11 0.0 0 1 51.66 66.78
  L 51.67 66.78
  A 3.84 1.84 57.6 0 1 55.28 69.03
  L 55.47 69.34
  A 3.84 1.84 57.6 0 1 55.98 73.57
  L 55.97 73.57
  A 0.11 0.11 0.0 0 1 55.82 73.54
  L 51.63 66.93
  Z"
/>
<path fill="none" d="
  M 68.91 73.60
  A 0.03 0.03 0.0 0 1 68.87 73.61
  L 68.85 73.60
  A 3.79 1.87 -58.9 0 1 69.21 69.39
  L 69.41 69.06
  A 3.79 1.87 -58.9 0 1 72.97 66.78
  L 72.98 66.79
  A 0.03 0.03 0.0 0 1 72.99 66.83
  L 68.91 73.60
  Z"
/>
<ellipse fill="#7a7b7b" cx="0.00" cy="0.00" transform="translate(62.46,84.13) rotate(-88.2)" rx="2.61" ry="0.39"/>
</svg>
