<?xml version="1.0" encoding="UTF-8" standalone="no"?>
<!DOCTYPE svg PUBLIC "-//W3C//DTD SVG 1.1//EN" "http://www.w3.org/Graphics/SVG/1.1/DTD/svg11.dtd">
<svg xmlns="http://www.w3.org/2000/svg" version="1.1" viewBox="0.00 0.00 125.00 125.00">
<g stroke-width="2.00" fill="none" stroke-linecap="butt">
<path stroke="#818181" vector-effect="non-scaling-stroke" d="
  M 62.00 124.11
  Q 67.17 124.11 69.05 123.90
  C 89.95 121.49 107.76 109.14 117.05 90.33
  Q 120.53 83.28 122.43 73.20
  Q 124.04 64.68 122.58 55.33
  Q 118.89 31.73 100.17 16.34
  A 2.05 1.99 -79.6 0 1 99.53 15.38
  C 99.24 14.42 99.52 12.99 99.36 12.00
  Q 98.42 6.19 95.35 1.47
  A 0.42 0.42 0.0 0 0 94.58 1.70
  L 94.58 11.06
  A 0.77 0.77 0.0 0 1 93.44 11.74
  C 87.58 8.51 81.03 5.63 74.34 4.63
  A 0.83 0.82 9.3 0 0 73.40 5.30
  L 73.38 5.43
  A 0.87 0.86 11.2 0 0 74.05 6.42
  Q 83.76 8.56 92.89 13.62
  A 1.49 1.49 0.0 0 1 93.51 15.56
  Q 88.98 25.04 80.19 30.43
  A 1.35 1.34 51.7 0 1 78.54 30.23
  Q 77.29 28.99 75.23 28.77
  C 69.72 28.18 69.65 33.02 70.07 36.89
  C 70.45 40.40 74.36 41.68 77.35 41.09
  C 82.45 40.08 85.23 37.76 90.12 34.07
  A 3.82 3.75 15.2 0 1 91.01 33.57
  C 96.57 31.45 101.99 31.48 100.24 23.07
  A 0.39 0.39 0.0 0 0 99.51 22.97
  L 97.53 26.88
  A 1.59 1.58 13.5 0 1 96.12 27.74
  L 95.74 27.74
  A 0.36 0.36 0.0 0 1 95.43 27.19
  Q 97.88 23.36 98.63 19.42
  A 0.94 0.94 0.0 0 1 100.15 18.88
  C 109.62 26.83 116.70 38.12 119.37 49.98
  C 123.01 66.14 120.33 83.96 110.28 97.73
  C 98.66 113.64 81.86 122.09 62.00 122.09
  C 42.15 122.09 25.35 113.64 13.73 97.73
  C 3.68 83.96 1.00 66.14 4.64 49.98
  C 7.31 38.12 14.38 26.83 23.85 18.88
  A 0.94 0.94 0.0 0 1 25.37 19.42
  Q 26.12 23.36 28.57 27.19
  A 0.36 0.36 0.0 0 1 28.26 27.74
  L 27.88 27.74
  A 1.59 1.58 -13.5 0 1 26.47 26.88
  L 24.49 22.97
  A 0.39 0.39 0.0 0 0 23.76 23.07
  C 22.01 31.48 27.43 31.45 32.99 33.57
  A 3.82 3.75 -15.2 0 1 33.89 34.07
  C 38.78 37.76 41.56 40.08 46.66 41.09
  C 49.65 41.68 53.56 40.40 53.94 36.89
  C 54.35 33.02 54.28 28.18 48.77 28.77
  Q 46.71 28.99 45.46 30.23
  A 1.35 1.34 -51.7 0 1 43.81 30.43
  Q 35.02 25.04 30.49 15.56
  A 1.49 1.49 0.0 0 1 31.11 13.62
  Q 40.24 8.56 49.95 6.42
  A 0.87 0.86 -11.2 0 0 50.62 5.43
  L 50.60 5.30
  A 0.83 0.82 -9.3 0 0 49.66 4.63
  C 42.97 5.63 36.42 8.51 30.56 11.74
  A 0.77 0.77 0.0 0 1 29.42 11.06
  L 29.42 1.70
  A 0.42 0.42 0.0 0 0 28.65 1.47
  Q 25.58 6.19 24.64 12.00
  C 24.48 12.99 24.76 14.42 24.47 15.38
  A 2.05 1.99 79.6 0 1 23.83 16.34
  Q 5.11 31.73 1.43 55.33
  Q -0.03 64.68 1.58 73.20
  Q 3.48 83.28 6.96 90.33
  C 16.25 109.14 34.06 121.49 54.96 123.90
  Q 56.84 124.11 62.00 124.11"
/>
<path stroke="#818181" vector-effect="non-scaling-stroke" d="
  M 52.73 26.25
  A 0.52 0.52 0.0 0 0 53.12 25.38
  C 46.37 17.81 59.74 16.14 57.17 8.60
  Q 55.98 5.11 53.49 3.30
  A 0.62 0.61 4.5 0 0 52.58 4.07
  C 55.44 9.68 51.05 13.65 46.76 17.48
  Q 43.93 20.00 44.05 25.46
  A 0.80 0.80 0.0 0 0 44.85 26.25
  L 52.73 26.25"
/>
<path stroke="#818181" vector-effect="non-scaling-stroke" d="
  M 71.26 26.26
  L 79.15 26.27
  A 0.80 0.80 0.0 0 0 79.95 25.48
  Q 80.08 20.02 77.25 17.49
  C 72.96 13.65 68.57 9.67 71.44 4.06
  A 0.62 0.61 -4.4 0 0 70.54 3.29
  Q 68.04 5.10 66.84 8.59
  C 64.26 16.13 77.64 17.82 70.87 25.39
  A 0.52 0.52 0.0 0 0 71.26 26.26"
/>
<path stroke="#818181" vector-effect="non-scaling-stroke" d="
  M 66.1191 4.4612
  A 0.88 0.88 0.0 0 0 65.2330 3.5873
  L 58.7332 3.6327
  A 0.88 0.88 0.0 0 0 57.8593 4.5188
  L 57.8609 4.7388
  A 0.88 0.88 0.0 0 0 58.7470 5.6127
  L 65.2468 5.5673
  A 0.88 0.88 0.0 0 0 66.1207 4.6812
  L 66.1191 4.4612"
/>
<path stroke="#818181" vector-effect="non-scaling-stroke" d="
  M 62.01 10.91
  Q 61.92 10.91 61.01 10.83
  A 1.48 1.46 14.1 0 0 59.53 11.70
  L 57.87 15.44
  A 3.12 3.03 -11.2 0 1 57.24 16.35
  L 53.79 19.80
  A 1.79 1.79 0.0 0 0 53.44 21.83
  Q 54.92 24.99 57.76 27.20
  A 0.67 0.66 71.5 0 1 57.18 28.37
  Q 55.72 27.96 54.57 28.52
  A 0.66 0.66 0.0 0 0 54.29 29.45
  Q 57.33 34.55 54.36 40.30
  A 0.70 0.69 24.3 0 0 54.73 41.27
  Q 58.21 42.60 61.77 43.94
  Q 61.87 43.98 61.98 43.98
  Q 62.09 43.98 62.19 43.94
  Q 65.75 42.61 69.24 41.28
  A 0.70 0.69 -24.1 0 0 69.61 40.31
  Q 66.65 34.56 69.70 29.46
  A 0.66 0.66 0.0 0 0 69.42 28.53
  Q 68.27 27.97 66.81 28.38
  A 0.67 0.66 -71.4 0 1 66.23 27.21
  Q 69.08 25.00 70.56 21.85
  A 1.79 1.79 0.0 0 0 70.22 19.82
  L 66.77 16.36
  A 3.12 3.03 11.3 0 1 66.14 15.45
  L 64.49 11.70
  A 1.48 1.46 -14.0 0 0 63.02 10.83
  Q 62.10 10.91 62.01 10.91"
/>
<path stroke="#393939" vector-effect="non-scaling-stroke" d="
  M 79.14 11.95
  Q 81.00 13.92 84.22 15.93
  A 4.03 3.90 85.8 0 1 85.23 16.83
  L 87.43 19.59
  A 0.73 0.73 0.0 0 0 88.45 19.71
  Q 89.74 18.73 89.80 16.96
  A 0.84 0.84 0.0 0 0 89.35 16.20
  L 79.64 11.28
  A 0.42 0.42 0.0 0 0 79.14 11.95"
/>
<path stroke="#393939" vector-effect="non-scaling-stroke" d="
  M 44.37 12.19
  A 0.40 0.40 0.0 0 0 43.89 11.57
  L 34.86 16.24
  A 0.78 0.78 0.0 0 0 34.45 16.96
  Q 34.52 18.61 35.73 19.51
  A 0.69 0.68 37.7 0 0 36.68 19.39
  L 38.72 16.80
  A 3.76 3.64 -86.3 0 1 39.65 15.95
  Q 42.65 14.04 44.37 12.19"
/>
<path stroke="#818181" vector-effect="non-scaling-stroke" d="
  M 47.30 12.97
  C 43.43 15.09 40.59 17.05 37.96 20.82
  A 1.62 1.62 0.0 0 0 37.80 22.41
  Q 38.64 24.30 41.07 25.65
  A 0.57 0.56 13.1 0 0 41.91 25.13
  C 41.76 21.98 42.04 19.69 44.22 17.31
  Q 46.22 15.13 47.81 13.70
  A 0.45 0.45 0.0 0 0 47.30 12.97"
/>
<path stroke="#818181" vector-effect="non-scaling-stroke" d="
  M 76.80 13.05
  A 0.45 0.44 80.5 0 0 76.29 13.77
  Q 77.86 15.20 79.83 17.37
  C 81.97 19.75 82.23 22.02 82.06 25.14
  A 0.56 0.56 0.0 0 0 82.89 25.66
  Q 85.31 24.34 86.16 22.47
  A 1.61 1.61 0.0 0 0 86.01 20.89
  C 83.43 17.14 80.62 15.17 76.80 13.05"
/>
<path stroke="#818181" vector-effect="non-scaling-stroke" d="
  M 112.52 63.29
  Q 109.23 64.27 106.48 62.18
  A 2.35 2.30 5.0 0 1 105.83 61.42
  Q 102.97 56.03 101.52 49.24
  Q 100.08 42.47 94.77 35.62
  A 1.39 1.38 -19.4 0 0 93.63 35.08
  Q 91.83 35.14 90.52 36.35
  Q 84.05 42.32 75.94 43.42
  A 0.72 0.72 0.0 0 0 75.40 44.47
  Q 76.97 47.58 76.60 50.48
  A 0.68 0.68 0.0 0 0 77.12 51.23
  Q 77.45 51.31 79.24 51.34
  C 81.98 51.39 83.70 52.64 85.10 55.08
  C 86.82 58.09 84.73 62.36 82.56 64.47
  C 79.41 67.54 79.06 71.28 79.12 75.52
  A 1.03 1.02 13.0 0 0 79.69 76.42
  Q 82.91 78.04 86.81 78.23
  A 1.75 1.53 13.0 0 1 88.41 80.45
  C 86.78 83.79 81.08 82.12 78.36 81.76
  A 1.03 1.03 0.0 0 0 77.31 82.29
  C 75.62 85.42 70.73 86.73 67.52 87.04
  A 0.59 0.58 73.2 0 0 67.06 87.90
  Q 71.41 95.92 66.58 102.31
  A 3.86 3.77 -22.0 0 0 65.87 103.93
  L 64.80 110.18
  A 0.67 0.66 2.0 0 0 65.52 110.95
  Q 89.69 108.81 102.71 88.70
  Q 105.63 84.18 107.34 78.88
  A 1.83 1.82 -55.7 0 0 107.02 77.16
  Q 102.81 71.96 103.50 64.83
  A 0.31 0.31 0.0 0 1 103.98 64.60
  Q 107.28 66.76 111.90 65.14"
/>
<path stroke="#393939" vector-effect="non-scaling-stroke" d="
  M 111.90 65.14
  Q 111.95 75.94 107.26 85.26
  C 96.09 107.47 71.80 118.19 47.86 111.50
  Q 35.65 108.09 26.25 98.69
  Q 13.18 85.60 11.74 65.49"
/>
<path stroke="#818181" vector-effect="non-scaling-stroke" d="
  M 11.74 65.49
  C 13.37 65.24 14.88 66.04 16.26 65.88
  Q 18.04 65.68 20.00 64.64
  A 0.40 0.40 0.0 0 1 20.59 64.98
  Q 20.88 72.68 17.16 76.86
  A 2.67 2.67 0.0 0 0 16.70 79.69
  Q 28.86 108.24 58.66 110.99
  A 0.53 0.52 87.8 0 0 59.22 110.38
  L 58.14 103.91
  A 3.23 3.14 22.3 0 0 57.53 102.51
  C 54.89 99.06 53.74 93.44 56.21 89.48
  Q 56.82 88.51 56.99 87.83
  A 0.55 0.55 0.0 0 0 56.55 87.15
  C 52.68 86.50 48.89 85.59 46.74 82.41
  A 1.39 1.39 0.0 0 0 45.30 81.82
  C 42.47 82.39 38.89 83.24 36.27 81.41
  A 1.85 1.80 28.2 0 1 35.59 79.27
  Q 35.93 78.37 37.06 78.30
  Q 40.45 78.08 44.00 76.66
  A 1.45 1.43 79.2 0 0 44.90 75.32
  C 44.87 70.76 44.48 67.50 41.22 64.15
  C 37.79 60.61 36.84 55.74 41.36 52.34
  C 42.93 51.15 45.44 51.32 47.21 51.14
  A 0.38 0.38 0.0 0 0 47.55 50.72
  Q 47.13 46.87 48.72 44.39
  A 0.59 0.58 20.2 0 0 48.30 43.49
  Q 40.06 42.38 33.72 36.55
  C 30.35 33.45 29.29 35.38 27.21 38.50
  C 23.59 43.92 22.87 47.83 20.65 55.84
  Q 19.98 58.25 17.87 61.75
  A 2.22 2.19 -1.6 0 1 17.22 62.43
  Q 14.78 64.06 11.65 63.32"
/>
<path stroke="#393939" vector-effect="non-scaling-stroke" d="
  M 11.65 63.32
  Q 12.45 46.09 22.28 33.45
  A 2.07 2.05 55.3 0 0 22.62 31.54
  L 21.40 27.83
  A 0.75 0.75 0.0 0 0 20.10 27.60
  Q 8.53 42.23 6.95 57.69
  C 4.36 82.85 18.23 105.59 41.70 114.92
  Q 49.12 117.87 57.32 118.23
  Q 66.64 118.64 73.26 117.46
  C 89.99 114.48 105.60 102.34 112.31 86.59
  Q 115.23 79.74 116.20 74.75
  Q 121.19 49.01 103.71 27.42
  A 0.69 0.69 0.0 0 0 102.52 27.64
  L 101.18 31.71
  A 1.68 1.65 -54.0 0 0 101.40 33.17
  C 102.12 34.19 103.43 35.54 104.04 36.53
  Q 109.50 45.44 111.50 55.55
  C 111.89 57.54 111.91 60.70 112.52 63.29"
/>
<path stroke="#ababab" vector-effect="non-scaling-stroke" d="
  M 11.65 63.32
  L 10.74 63.37
  A 0.58 0.58 0.0 0 0 10.19 63.95
  Q 10.19 65.27 11.74 65.49"
/>
<path stroke="#ababab" vector-effect="non-scaling-stroke" d="
  M 111.90 65.14
  Q 113.11 64.92 113.32 63.93
  Q 113.47 63.20 112.52 63.29"
/>
<path stroke="#818181" vector-effect="non-scaling-stroke" d="
  M 49.93 49.46
  Q 52.96 48.32 56.00 50.32
  A 0.86 0.86 0.0 0 0 57.24 49.99
  L 57.42 49.62
  A 2.07 2.07 0.0 0 0 56.90 47.09
  Q 54.38 44.99 52.38 44.87
  A 2.34 2.31 -74.5 0 0 50.16 46.14
  L 49.00 48.43
  A 0.75 0.74 3.1 0 0 49.93 49.46"
/>
<path stroke="#818181" vector-effect="non-scaling-stroke" d="
  M 74.06 49.47
  A 0.74 0.74 0.0 0 0 74.99 48.46
  L 73.86 46.18
  A 2.32 2.29 74.9 0 0 71.67 44.90
  Q 69.68 45.01 67.17 47.07
  A 2.06 2.05 -33.0 0 0 66.63 49.58
  L 66.81 49.95
  A 0.86 0.85 60.1 0 0 68.04 50.28
  Q 71.07 48.32 74.06 49.47"
/>
<path stroke="#818181" vector-effect="non-scaling-stroke" d="
  M 58.29 53.26
  L 59.93 53.64
  A 0.51 0.51 0.0 0 0 60.54 53.26
  L 60.77 52.26
  A 2.63 1.27 -76.9 0 0 60.13 49.41
  L 59.97 49.38
  A 2.63 1.27 -76.9 0 0 58.14 51.65
  L 57.91 52.64
  A 0.51 0.51 0.0 0 0 58.29 53.26"
/>
<path stroke="#818181" vector-effect="non-scaling-stroke" d="
  M 63.11 49.99
  L 63.29 53.32
  A 0.45 0.45 0.0 0 0 63.77 53.75
  L 63.96 53.74
  A 2.20 2.02 -3.1 0 0 66.04 51.60
  L 66.03 51.40
  A 2.20 2.02 -3.1 0 0 63.73 49.51
  L 63.54 49.52
  A 0.45 0.45 0.0 0 0 63.11 49.99"
/>
<path stroke="#818181" vector-effect="non-scaling-stroke" d="
  M 53.62 59.53
  C 49.53 59.68 48.61 57.29 46.95 54.53
  A 2.17 2.16 67.0 0 0 44.55 53.55
  C 38.44 55.15 41.23 67.36 47.65 62.19
  A 1.41 1.40 -50.5 0 1 49.16 62.04
  L 51.68 63.31
  A 0.57 0.55 26.8 0 0 52.44 63.07
  L 53.96 60.06
  A 0.37 0.36 12.5 0 0 53.62 59.53"
/>
<path stroke="#818181" vector-effect="non-scaling-stroke" d="
  M 70.36 59.51
  A 0.37 0.37 0.0 0 0 70.01 60.04
  L 71.52 63.06
  A 0.57 0.56 -26.5 0 0 72.28 63.30
  L 74.81 62.04
  A 1.41 1.40 50.8 0 1 76.32 62.20
  C 82.72 67.41 85.58 55.20 79.47 53.57
  A 2.18 2.16 -66.7 0 0 77.06 54.54
  C 75.39 57.29 74.45 59.68 70.36 59.51"
/>
<path stroke="#818181" vector-effect="non-scaling-stroke" d="
  M 71.68 55.48
  A 1.39 1.39 0.0 0 0 70.29 54.09
  A 1.39 1.39 0.0 0 0 68.90 55.48
  A 1.39 1.39 0.0 0 0 70.29 56.87
  A 1.39 1.39 0.0 0 0 71.68 55.48"
/>
<path stroke="#818181" vector-effect="non-scaling-stroke" d="
  M 55.09 55.48
  A 1.39 1.39 0.0 0 0 53.70 54.09
  A 1.39 1.39 0.0 0 0 52.31 55.48
  A 1.39 1.39 0.0 0 0 53.70 56.87
  A 1.39 1.39 0.0 0 0 55.09 55.48"
/>
<path stroke="#818181" vector-effect="non-scaling-stroke" d="
  M 60.44 56.41
  A 1.35 1.35 0.0 0 0 59.13 58.08
  Q 59.69 60.30 59.36 62.50
  A 1.42 1.42 0.0 0 1 56.96 63.29
  L 56.05 62.38
  A 1.07 1.07 0.0 0 0 54.38 62.56
  C 52.64 65.28 54.46 66.39 57.03 66.68
  Q 59.43 66.95 61.46 68.98
  A 1.23 1.23 0.0 0 0 63.38 68.75
  Q 63.97 67.79 64.75 67.28
  A 1.72 1.69 -66.2 0 1 65.45 67.00
  L 68.71 66.45
  A 1.71 1.70 89.6 0 0 70.12 65.01
  Q 70.48 62.56 68.75 61.92
  A 0.81 0.80 -68.3 0 0 67.72 62.37
  Q 67.29 63.45 66.58 63.71
  Q 65.40 64.15 64.76 62.69
  Q 64.11 61.19 64.86 58.13
  A 1.39 1.38 -83.1 0 0 63.52 56.41
  L 60.44 56.41"
/>
<path stroke="#818181" vector-effect="non-scaling-stroke" d="
  M 69.1684 59.4815
  A 0.46 0.18 -4.8 0 0 68.6949 59.3406
  A 0.46 0.18 -4.8 0 0 68.2516 59.5585
  A 0.46 0.18 -4.8 0 0 68.7251 59.6994
  A 0.46 0.18 -4.8 0 0 69.1684 59.4815"
/>
<path stroke="#818181" vector-effect="non-scaling-stroke" d="
  M 56.30 69.13
  Q 56.14 69.53 56.89 69.80
  Q 59.06 70.59 59.18 70.28
  Q 59.30 69.97 57.19 69.05
  Q 56.45 68.73 56.30 69.13"
/>
<path stroke="#393939" vector-effect="non-scaling-stroke" d="
  M 64.18 70.69
  Q 63.60 70.83 63.41 71.47
  A 0.30 0.29 79.6 0 0 63.87 71.79
  Q 64.23 71.51 64.18 70.69"
/>
<path stroke="#818181" vector-effect="non-scaling-stroke" d="
  M 64.18 70.69
  Q 66.10 70.51 67.54 69.68
  A 0.44 0.43 -67.1 0 0 67.22 68.88
  Q 65.58 69.32 64.18 70.69"
/>
<path stroke="#818181" vector-effect="non-scaling-stroke" d="
  M 56.49 74.43
  L 57.25 73.30
  A 0.25 0.25 0.0 0 0 57.19 72.96
  L 57.09 72.89
  A 6.25 0.83 34.1 0 0 51.45 70.07
  L 51.33 70.24
  A 6.25 0.83 34.1 0 0 56.04 74.43
  L 56.14 74.50
  A 0.25 0.25 0.0 0 0 56.49 74.43"
/>
<path stroke="#818181" vector-effect="non-scaling-stroke" d="
  M 66.67 73.29
  L 67.50 74.52
  A 0.20 0.20 0.0 0 0 67.77 74.57
  L 68.02 74.40
  A 6.14 0.82 -33.9 0 0 72.66 70.30
  L 72.53 70.10
  A 6.14 0.82 -33.9 0 0 66.98 72.84
  L 66.73 73.01
  A 0.20 0.20 0.0 0 0 66.67 73.29"
/>
<path stroke="#818181" vector-effect="non-scaling-stroke" d="
  M 63.51 73.02
  Q 63.48 73.06 63.30 73.97
  A 0.77 0.76 -86.5 0 1 62.60 74.60
  Q 61.69 74.66 60.79 74.36
  A 1.12 1.11 37.5 0 0 59.85 74.48
  C 57.10 76.17 54.15 77.31 51.36 79.89
  A 1.26 1.26 0.0 0 0 52.21 82.07
  L 55.68 82.07
  A 0.88 0.86 -27.3 0 1 56.17 82.22
  Q 61.57 85.94 66.53 82.99
  C 68.37 81.90 69.74 81.89 71.46 82.15
  A 1.31 1.31 0.0 0 0 72.66 80.01
  Q 71.53 78.69 69.33 77.28
  Q 68.20 76.55 65.08 75.18
  A 1.38 1.36 -83.6 0 1 64.28 74.16
  L 64.13 73.25
  A 0.39 0.38 -24.4 0 0 63.51 73.02"
/>
<path stroke="#818181" vector-effect="non-scaling-stroke" d="
  M 38.47 80.07
  A 0.45 0.44 -44.5 0 0 38.46 80.93
  C 42.60 82.02 48.51 78.53 51.49 75.96
  A 0.75 0.74 -45.2 0 0 51.49 74.83
  L 51.43 74.78
  A 1.13 1.13 0.0 0 0 50.01 74.75
  Q 45.25 78.38 38.47 80.07"
/>
<path stroke="#818181" vector-effect="non-scaling-stroke" d="
  M 85.49 80.07
  Q 78.74 78.38 74.01 74.76
  A 1.13 1.12 -46.0 0 0 72.60 74.78
  L 72.54 74.83
  A 0.74 0.74 0.0 0 0 72.54 75.96
  C 75.50 78.52 81.38 82.00 85.50 80.92
  A 0.44 0.44 0.0 0 0 85.49 80.07"
/>
<path stroke="#818181" vector-effect="non-scaling-stroke" d="
  M 62.02 109.89
  Q 62.77 109.89 62.95 109.24
  Q 64.42 103.97 64.09 99.08
  A 0.55 0.54 88.6 0 1 64.65 98.49
  Q 66.62 98.57 66.80 97.54
  Q 67.53 93.31 65.70 89.49
  C 64.93 87.90 63.74 87.63 62.01 87.63
  C 60.28 87.63 59.09 87.90 58.32 89.50
  Q 56.49 93.31 57.22 97.54
  Q 57.41 98.57 59.38 98.49
  A 0.55 0.54 -88.6 0 1 59.94 99.08
  Q 59.61 103.97 61.08 109.24
  Q 61.26 109.89 62.02 109.89"
/>
</g>
<path fill="none" d="
  M 125.00 0.00
  L 125.00 125.00
  L 0.00 125.00
  L 0.00 0.00
  L 125.00 0.00
  Z
  M 62.00 124.11
  Q 67.17 124.11 69.05 123.90
  C 89.95 121.49 107.76 109.14 117.05 90.33
  Q 120.53 83.28 122.43 73.20
  Q 124.04 64.68 122.58 55.33
  Q 118.89 31.73 100.17 16.34
  A 2.05 1.99 -79.6 0 1 99.53 15.38
  C 99.24 14.42 99.52 12.99 99.36 12.00
  Q 98.42 6.19 95.35 1.47
  A 0.42 0.42 0.0 0 0 94.58 1.70
  L 94.58 11.06
  A 0.77 0.77 0.0 0 1 93.44 11.74
  C 87.58 8.51 81.03 5.63 74.34 4.63
  A 0.83 0.82 9.3 0 0 73.40 5.30
  L 73.38 5.43
  A 0.87 0.86 11.2 0 0 74.05 6.42
  Q 83.76 8.56 92.89 13.62
  A 1.49 1.49 0.0 0 1 93.51 15.56
  Q 88.98 25.04 80.19 30.43
  A 1.35 1.34 51.7 0 1 78.54 30.23
  Q 77.29 28.99 75.23 28.77
  C 69.72 28.18 69.65 33.02 70.07 36.89
  C 70.45 40.40 74.36 41.68 77.35 41.09
  C 82.45 40.08 85.23 37.76 90.12 34.07
  A 3.82 3.75 15.2 0 1 91.01 33.57
  C 96.57 31.45 101.99 31.48 100.24 23.07
  A 0.39 0.39 0.0 0 0 99.51 22.97
  L 97.53 26.88
  A 1.59 1.58 13.5 0 1 96.12 27.74
  L 95.74 27.74
  A 0.36 0.36 0.0 0 1 95.43 27.19
  Q 97.88 23.36 98.63 19.42
  A 0.94 0.94 0.0 0 1 100.15 18.88
  C 109.62 26.83 116.70 38.12 119.37 49.98
  C 123.01 66.14 120.33 83.96 110.28 97.73
  C 98.66 113.64 81.86 122.09 62.00 122.09
  C 42.15 122.09 25.35 113.64 13.73 97.73
  C 3.68 83.96 1.00 66.14 4.64 49.98
  C 7.31 38.12 14.38 26.83 23.85 18.88
  A 0.94 0.94 0.0 0 1 25.37 19.42
  Q 26.12 23.36 28.57 27.19
  A 0.36 0.36 0.0 0 1 28.26 27.74
  L 27.88 27.74
  A 1.59 1.58 -13.5 0 1 26.47 26.88
  L 24.49 22.97
  A 0.39 0.39 0.0 0 0 23.76 23.07
  C 22.01 31.48 27.43 31.45 32.99 33.57
  A 3.82 3.75 -15.2 0 1 33.89 34.07
  C 38.78 37.76 41.56 40.08 46.66 41.09
  C 49.65 41.68 53.56 40.40 53.94 36.89
  C 54.35 33.02 54.28 28.18 48.77 28.77
  Q 46.71 28.99 45.46 30.23
  A 1.35 1.34 -51.7 0 1 43.81 30.43
  Q 35.02 25.04 30.49 15.56
  A 1.49 1.49 0.0 0 1 31.11 13.62
  Q 40.24 8.56 49.95 6.42
  A 0.87 0.86 -11.2 0 0 50.62 5.43
  L 50.60 5.30
  A 0.83 0.82 -9.3 0 0 49.66 4.63
  C 42.97 5.63 36.42 8.51 30.56 11.74
  A 0.77 0.77 0.0 0 1 29.42 11.06
  L 29.42 1.70
  A 0.42 0.42 0.0 0 0 28.65 1.47
  Q 25.58 6.19 24.64 12.00
  C 24.48 12.99 24.76 14.42 24.47 15.38
  A 2.05 1.99 79.6 0 1 23.83 16.34
  Q 5.11 31.73 1.43 55.33
  Q -0.03 64.68 1.58 73.20
  Q 3.48 83.28 6.96 90.33
  C 16.25 109.14 34.06 121.49 54.96 123.90
  Q 56.84 124.11 62.00 124.11
  Z
  M 52.73 26.25
  A 0.52 0.52 0.0 0 0 53.12 25.38
  C 46.37 17.81 59.74 16.14 57.17 8.60
  Q 55.98 5.11 53.49 3.30
  A 0.62 0.61 4.5 0 0 52.58 4.07
  C 55.44 9.68 51.05 13.65 46.76 17.48
  Q 43.93 20.00 44.05 25.46
  A 0.80 0.80 0.0 0 0 44.85 26.25
  L 52.73 26.25
  Z
  M 71.26 26.26
  L 79.15 26.27
  A 0.80 0.80 0.0 0 0 79.95 25.48
  Q 80.08 20.02 77.25 17.49
  C 72.96 13.65 68.57 9.67 71.44 4.06
  A 0.62 0.61 -4.4 0 0 70.54 3.29
  Q 68.04 5.10 66.84 8.59
  C 64.26 16.13 77.64 17.82 70.87 25.39
  A 0.52 0.52 0.0 0 0 71.26 26.26
  Z
  M 66.1191 4.4612
  A 0.88 0.88 0.0 0 0 65.2330 3.5873
  L 58.7332 3.6327
  A 0.88 0.88 0.0 0 0 57.8593 4.5188
  L 57.8609 4.7388
  A 0.88 0.88 0.0 0 0 58.7470 5.6127
  L 65.2468 5.5673
  A 0.88 0.88 0.0 0 0 66.1207 4.6812
  L 66.1191 4.4612
  Z
  M 62.01 10.91
  Q 61.92 10.91 61.01 10.83
  A 1.48 1.46 14.1 0 0 59.53 11.70
  L 57.87 15.44
  A 3.12 3.03 -11.2 0 1 57.24 16.35
  L 53.79 19.80
  A 1.79 1.79 0.0 0 0 53.44 21.83
  Q 54.92 24.99 57.76 27.20
  A 0.67 0.66 71.5 0 1 57.18 28.37
  Q 55.72 27.96 54.57 28.52
  A 0.66 0.66 0.0 0 0 54.29 29.45
  Q 57.33 34.55 54.36 40.30
  A 0.70 0.69 24.3 0 0 54.73 41.27
  Q 58.21 42.60 61.77 43.94
  Q 61.87 43.98 61.98 43.98
  Q 62.09 43.98 62.19 43.94
  Q 65.75 42.61 69.24 41.28
  A 0.70 0.69 -24.1 0 0 69.61 40.31
  Q 66.65 34.56 69.70 29.46
  A 0.66 0.66 0.0 0 0 69.42 28.53
  Q 68.27 27.97 66.81 28.38
  A 0.67 0.66 -71.4 0 1 66.23 27.21
  Q 69.08 25.00 70.56 21.85
  A 1.79 1.79 0.0 0 0 70.22 19.82
  L 66.77 16.36
  A 3.12 3.03 11.3 0 1 66.14 15.45
  L 64.49 11.70
  A 1.48 1.46 -14.0 0 0 63.02 10.83
  Q 62.10 10.91 62.01 10.91
  Z
  M 79.14 11.95
  Q 81.00 13.92 84.22 15.93
  A 4.03 3.90 85.8 0 1 85.23 16.83
  L 87.43 19.59
  A 0.73 0.73 0.0 0 0 88.45 19.71
  Q 89.74 18.73 89.80 16.96
  A 0.84 0.84 0.0 0 0 89.35 16.20
  L 79.64 11.28
  A 0.42 0.42 0.0 0 0 79.14 11.95
  Z
  M 44.37 12.19
  A 0.40 0.40 0.0 0 0 43.89 11.57
  L 34.86 16.24
  A 0.78 0.78 0.0 0 0 34.45 16.96
  Q 34.52 18.61 35.73 19.51
  A 0.69 0.68 37.7 0 0 36.68 19.39
  L 38.72 16.80
  A 3.76 3.64 -86.3 0 1 39.65 15.95
  Q 42.65 14.04 44.37 12.19
  Z
  M 47.30 12.97
  C 43.43 15.09 40.59 17.05 37.96 20.82
  A 1.62 1.62 0.0 0 0 37.80 22.41
  Q 38.64 24.30 41.07 25.65
  A 0.57 0.56 13.1 0 0 41.91 25.13
  C 41.76 21.98 42.04 19.69 44.22 17.31
  Q 46.22 15.13 47.81 13.70
  A 0.45 0.45 0.0 0 0 47.30 12.97
  Z
  M 76.80 13.05
  A 0.45 0.44 80.5 0 0 76.29 13.77
  Q 77.86 15.20 79.83 17.37
  C 81.97 19.75 82.23 22.02 82.06 25.14
  A 0.56 0.56 0.0 0 0 82.89 25.66
  Q 85.31 24.34 86.16 22.47
  A 1.61 1.61 0.0 0 0 86.01 20.89
  C 83.43 17.14 80.62 15.17 76.80 13.05
  Z
  M 112.52 63.29
  Q 109.23 64.27 106.48 62.18
  A 2.35 2.30 5.0 0 1 105.83 61.42
  Q 102.97 56.03 101.52 49.24
  Q 100.08 42.47 94.77 35.62
  A 1.39 1.38 -19.4 0 0 93.63 35.08
  Q 91.83 35.14 90.52 36.35
  Q 84.05 42.32 75.94 43.42
  A 0.72 0.72 0.0 0 0 75.40 44.47
  Q 76.97 47.58 76.60 50.48
  A 0.68 0.68 0.0 0 0 77.12 51.23
  Q 77.45 51.31 79.24 51.34
  C 81.98 51.39 83.70 52.64 85.10 55.08
  C 86.82 58.09 84.73 62.36 82.56 64.47
  C 79.41 67.54 79.06 71.28 79.12 75.52
  A 1.03 1.02 13.0 0 0 79.69 76.42
  Q 82.91 78.04 86.81 78.23
  A 1.75 1.53 13.0 0 1 88.41 80.45
  C 86.78 83.79 81.08 82.12 78.36 81.76
  A 1.03 1.03 0.0 0 0 77.31 82.29
  C 75.62 85.42 70.73 86.73 67.52 87.04
  A 0.59 0.58 73.2 0 0 67.06 87.90
  Q 71.41 95.92 66.58 102.31
  A 3.86 3.77 -22.0 0 0 65.87 103.93
  L 64.80 110.18
  A 0.67 0.66 2.0 0 0 65.52 110.95
  Q 89.69 108.81 102.71 88.70
  Q 105.63 84.18 107.34 78.88
  A 1.83 1.82 -55.7 0 0 107.02 77.16
  Q 102.81 71.96 103.50 64.83
  A 0.31 0.31 0.0 0 1 103.98 64.60
  Q 107.28 66.76 111.90 65.14
  Q 111.95 75.94 107.26 85.26
  C 96.09 107.47 71.80 118.19 47.86 111.50
  Q 35.65 108.09 26.25 98.69
  Q 13.18 85.60 11.74 65.49
  C 13.37 65.24 14.88 66.04 16.26 65.88
  Q 18.04 65.68 20.00 64.64
  A 0.40 0.40 0.0 0 1 20.59 64.98
  Q 20.88 72.68 17.16 76.86
  A 2.67 2.67 0.0 0 0 16.70 79.69
  Q 28.86 108.24 58.66 110.99
  A 0.53 0.52 87.8 0 0 59.22 110.38
  L 58.14 103.91
  A 3.23 3.14 22.3 0 0 57.53 102.51
  C 54.89 99.06 53.74 93.44 56.21 89.48
  Q 56.82 88.51 56.99 87.83
  A 0.55 0.55 0.0 0 0 56.55 87.15
  C 52.68 86.50 48.89 85.59 46.74 82.41
  A 1.39 1.39 0.0 0 0 45.30 81.82
  C 42.47 82.39 38.89 83.24 36.27 81.41
  A 1.85 1.80 28.2 0 1 35.59 79.27
  Q 35.93 78.37 37.06 78.30
  Q 40.45 78.08 44.00 76.66
  A 1.45 1.43 79.2 0 0 44.90 75.32
  C 44.87 70.76 44.48 67.50 41.22 64.15
  C 37.79 60.61 36.84 55.74 41.36 52.34
  C 42.93 51.15 45.44 51.32 47.21 51.14
  A 0.38 0.38 0.0 0 0 47.55 50.72
  Q 47.13 46.87 48.72 44.39
  A 0.59 0.58 20.2 0 0 48.30 43.49
  Q 40.06 42.38 33.72 36.55
  C 30.35 33.45 29.29 35.38 27.21 38.50
  C 23.59 43.92 22.87 47.83 20.65 55.84
  Q 19.98 58.25 17.87 61.75
  A 2.22 2.19 -1.6 0 1 17.22 62.43
  Q 14.78 64.06 11.65 63.32
  Q 12.45 46.09 22.28 33.45
  A 2.07 2.05 55.3 0 0 22.62 31.54
  L 21.40 27.83
  A 0.75 0.75 0.0 0 0 20.10 27.60
  Q 8.53 42.23 6.95 57.69
  C 4.36 82.85 18.23 105.59 41.70 114.92
  Q 49.12 117.87 57.32 118.23
  Q 66.64 118.64 73.26 117.46
  C 89.99 114.48 105.60 102.34 112.31 86.59
  Q 115.23 79.74 116.20 74.75
  Q 121.19 49.01 103.71 27.42
  A 0.69 0.69 0.0 0 0 102.52 27.64
  L 101.18 31.71
  A 1.68 1.65 -54.0 0 0 101.40 33.17
  C 102.12 34.19 103.43 35.54 104.04 36.53
  Q 109.50 45.44 111.50 55.55
  C 111.89 57.54 111.91 60.70 112.52 63.29
  Z
  M 49.93 49.46
  Q 52.96 48.32 56.00 50.32
  A 0.86 0.86 0.0 0 0 57.24 49.99
  L 57.42 49.62
  A 2.07 2.07 0.0 0 0 56.90 47.09
  Q 54.38 44.99 52.38 44.87
  A 2.34 2.31 -74.5 0 0 50.16 46.14
  L 49.00 48.43
  A 0.75 0.74 3.1 0 0 49.93 49.46
  Z
  M 74.06 49.47
  A 0.74 0.74 0.0 0 0 74.99 48.46
  L 73.86 46.18
  A 2.32 2.29 74.9 0 0 71.67 44.90
  Q 69.68 45.01 67.17 47.07
  A 2.06 2.05 -33.0 0 0 66.63 49.58
  L 66.81 49.95
  A 0.86 0.85 60.1 0 0 68.04 50.28
  Q 71.07 48.32 74.06 49.47
  Z
  M 58.29 53.26
  L 59.93 53.64
  A 0.51 0.51 0.0 0 0 60.54 53.26
  L 60.77 52.26
  A 2.63 1.27 -76.9 0 0 60.13 49.41
  L 59.97 49.38
  A 2.63 1.27 -76.9 0 0 58.14 51.65
  L 57.91 52.64
  A 0.51 0.51 0.0 0 0 58.29 53.26
  Z
  M 63.11 49.99
  L 63.29 53.32
  A 0.45 0.45 0.0 0 0 63.77 53.75
  L 63.96 53.74
  A 2.20 2.02 -3.1 0 0 66.04 51.60
  L 66.03 51.40
  A 2.20 2.02 -3.1 0 0 63.73 49.51
  L 63.54 49.52
  A 0.45 0.45 0.0 0 0 63.11 49.99
  Z
  M 53.62 59.53
  C 49.53 59.68 48.61 57.29 46.95 54.53
  A 2.17 2.16 67.0 0 0 44.55 53.55
  C 38.44 55.15 41.23 67.36 47.65 62.19
  A 1.41 1.40 -50.5 0 1 49.16 62.04
  L 51.68 63.31
  A 0.57 0.55 26.8 0 0 52.44 63.07
  L 53.96 60.06
  A 0.37 0.36 12.5 0 0 53.62 59.53
  Z
  M 70.36 59.51
  A 0.37 0.37 0.0 0 0 70.01 60.04
  L 71.52 63.06
  A 0.57 0.56 -26.5 0 0 72.28 63.30
  L 74.81 62.04
  A 1.41 1.40 50.8 0 1 76.32 62.20
  C 82.72 67.41 85.58 55.20 79.47 53.57
  A 2.18 2.16 -66.7 0 0 77.06 54.54
  C 75.39 57.29 74.45 59.68 70.36 59.51
  Z
  M 71.68 55.48
  A 1.39 1.39 0.0 0 0 70.29 54.09
  A 1.39 1.39 0.0 0 0 68.90 55.48
  A 1.39 1.39 0.0 0 0 70.29 56.87
  A 1.39 1.39 0.0 0 0 71.68 55.48
  Z
  M 55.09 55.48
  A 1.39 1.39 0.0 0 0 53.70 54.09
  A 1.39 1.39 0.0 0 0 52.31 55.48
  A 1.39 1.39 0.0 0 0 53.70 56.87
  A 1.39 1.39 0.0 0 0 55.09 55.48
  Z
  M 60.44 56.41
  A 1.35 1.35 0.0 0 0 59.13 58.08
  Q 59.69 60.30 59.36 62.50
  A 1.42 1.42 0.0 0 1 56.96 63.29
  L 56.05 62.38
  A 1.07 1.07 0.0 0 0 54.38 62.56
  C 52.64 65.28 54.46 66.39 57.03 66.68
  Q 59.43 66.95 61.46 68.98
  A 1.23 1.23 0.0 0 0 63.38 68.75
  Q 63.97 67.79 64.75 67.28
  A 1.72 1.69 -66.2 0 1 65.45 67.00
  L 68.71 66.45
  A 1.71 1.70 89.6 0 0 70.12 65.01
  Q 70.48 62.56 68.75 61.92
  A 0.81 0.80 -68.3 0 0 67.72 62.37
  Q 67.29 63.45 66.58 63.71
  Q 65.40 64.15 64.76 62.69
  Q 64.11 61.19 64.86 58.13
  A 1.39 1.38 -83.1 0 0 63.52 56.41
  L 60.44 56.41
  Z
  M 69.1684 59.4815
  A 0.46 0.18 -4.8 0 0 68.6949 59.3406
  A 0.46 0.18 -4.8 0 0 68.2516 59.5585
  A 0.46 0.18 -4.8 0 0 68.7251 59.6994
  A 0.46 0.18 -4.8 0 0 69.1684 59.4815
  Z
  M 56.30 69.13
  Q 56.14 69.53 56.89 69.80
  Q 59.06 70.59 59.18 70.28
  Q 59.30 69.97 57.19 69.05
  Q 56.45 68.73 56.30 69.13
  Z
  M 64.18 70.69
  Q 63.60 70.83 63.41 71.47
  A 0.30 0.29 79.6 0 0 63.87 71.79
  Q 64.23 71.51 64.18 70.69
  Q 66.10 70.51 67.54 69.68
  A 0.44 0.43 -67.1 0 0 67.22 68.88
  Q 65.58 69.32 64.18 70.69
  Z
  M 56.49 74.43
  L 57.25 73.30
  A 0.25 0.25 0.0 0 0 57.19 72.96
  L 57.09 72.89
  A 6.25 0.83 34.1 0 0 51.45 70.07
  L 51.33 70.24
  A 6.25 0.83 34.1 0 0 56.04 74.43
  L 56.14 74.50
  A 0.25 0.25 0.0 0 0 56.49 74.43
  Z
  M 66.67 73.29
  L 67.50 74.52
  A 0.20 0.20 0.0 0 0 67.77 74.57
  L 68.02 74.40
  A 6.14 0.82 -33.9 0 0 72.66 70.30
  L 72.53 70.10
  A 6.14 0.82 -33.9 0 0 66.98 72.84
  L 66.73 73.01
  A 0.20 0.20 0.0 0 0 66.67 73.29
  Z
  M 63.51 73.02
  Q 63.48 73.06 63.30 73.97
  A 0.77 0.76 -86.5 0 1 62.60 74.60
  Q 61.69 74.66 60.79 74.36
  A 1.12 1.11 37.5 0 0 59.85 74.48
  C 57.10 76.17 54.15 77.31 51.36 79.89
  A 1.26 1.26 0.0 0 0 52.21 82.07
  L 55.68 82.07
  A 0.88 0.86 -27.3 0 1 56.17 82.22
  Q 61.57 85.94 66.53 82.99
  C 68.37 81.90 69.74 81.89 71.46 82.15
  A 1.31 1.31 0.0 0 0 72.66 80.01
  Q 71.53 78.69 69.33 77.28
  Q 68.20 76.55 65.08 75.18
  A 1.38 1.36 -83.6 0 1 64.28 74.16
  L 64.13 73.25
  A 0.39 0.38 -24.4 0 0 63.51 73.02
  Z
  M 38.47 80.07
  A 0.45 0.44 -44.5 0 0 38.46 80.93
  C 42.60 82.02 48.51 78.53 51.49 75.96
  A 0.75 0.74 -45.2 0 0 51.49 74.83
  L 51.43 74.78
  A 1.13 1.13 0.0 0 0 50.01 74.75
  Q 45.25 78.38 38.47 80.07
  Z
  M 85.49 80.07
  Q 78.74 78.38 74.01 74.76
  A 1.13 1.12 -46.0 0 0 72.60 74.78
  L 72.54 74.83
  A 0.74 0.74 0.0 0 0 72.54 75.96
  C 75.50 78.52 81.38 82.00 85.50 80.92
  A 0.44 0.44 0.0 0 0 85.49 80.07
  Z
  M 62.02 109.89
  Q 62.77 109.89 62.95 109.24
  Q 64.42 103.97 64.09 99.08
  A 0.55 0.54 88.6 0 1 64.65 98.49
  Q 66.62 98.57 66.80 97.54
  Q 67.53 93.31 65.70 89.49
  C 64.93 87.90 63.74 87.63 62.01 87.63
  C 60.28 87.63 59.09 87.90 58.32 89.50
  Q 56.49 93.31 57.22 97.54
  Q 57.41 98.57 59.38 98.49
  A 0.55 0.54 -88.6 0 1 59.94 99.08
  Q 59.61 103.97 61.08 109.24
  Q 61.26 109.89 62.02 109.89
  Z"
/>
<path fill="#f3f3f3" d="
  M 62.00 122.09
  C 81.86 122.09 98.66 113.64 110.28 97.73
  C 120.33 83.96 123.01 66.14 119.37 49.98
  C 116.70 38.12 109.62 26.83 100.15 18.88
  A 0.94 0.94 0.0 0 0 98.63 19.42
  Q 97.88 23.36 95.43 27.19
  A 0.36 0.36 0.0 0 0 95.74 27.74
  L 96.12 27.74
  A 1.59 1.58 13.5 0 0 97.53 26.88
  L 99.51 22.97
  A 0.39 0.39 0.0 0 1 100.24 23.07
  C 101.99 31.48 96.57 31.45 91.01 33.57
  A 3.82 3.75 15.2 0 0 90.12 34.07
  C 85.23 37.76 82.45 40.08 77.35 41.09
  C 74.36 41.68 70.45 40.40 70.07 36.89
  C 69.65 33.02 69.72 28.18 75.23 28.77
  Q 77.29 28.99 78.54 30.23
  A 1.35 1.34 51.7 0 0 80.19 30.43
  Q 88.98 25.04 93.51 15.56
  A 1.49 1.49 0.0 0 0 92.89 13.62
  Q 83.76 8.56 74.05 6.42
  A 0.87 0.86 11.2 0 1 73.38 5.43
  L 73.40 5.30
  A 0.83 0.82 9.3 0 1 74.34 4.63
  C 81.03 5.63 87.58 8.51 93.44 11.74
  A 0.77 0.77 0.0 0 0 94.58 11.06
  L 94.58 1.70
  A 0.42 0.42 0.0 0 1 95.35 1.47
  Q 98.42 6.19 99.36 12.00
  C 99.52 12.99 99.24 14.42 99.53 15.38
  A 2.05 1.99 -79.6 0 0 100.17 16.34
  Q 118.89 31.73 122.58 55.33
  Q 124.04 64.68 122.43 73.20
  Q 120.53 83.28 117.05 90.33
  C 107.76 109.14 89.95 121.49 69.05 123.90
  Q 67.17 124.11 62.00 124.11
  Q 56.84 124.11 54.96 123.90
  C 34.06 121.49 16.25 109.14 6.96 90.33
  Q 3.48 83.28 1.58 73.20
  Q -0.03 64.68 1.43 55.33
  Q 5.11 31.73 23.83 16.34
  A 2.05 1.99 79.6 0 0 24.47 15.38
  C 24.76 14.42 24.48 12.99 24.64 12.00
  Q 25.58 6.19 28.65 1.47
  A 0.42 0.42 0.0 0 1 29.42 1.70
  L 29.42 11.06
  A 0.77 0.77 0.0 0 0 30.56 11.74
  C 36.42 8.51 42.97 5.63 49.66 4.63
  A 0.83 0.82 -9.3 0 1 50.60 5.30
  L 50.62 5.43
  A 0.87 0.86 -11.2 0 1 49.95 6.42
  Q 40.24 8.56 31.11 13.62
  A 1.49 1.49 0.0 0 0 30.49 15.56
  Q 35.02 25.04 43.81 30.43
  A 1.35 1.34 -51.7 0 0 45.46 30.23
  Q 46.71 28.99 48.77 28.77
  C 54.28 28.18 54.35 33.02 53.94 36.89
  C 53.56 40.40 49.65 41.68 46.66 41.09
  C 41.56 40.08 38.78 37.76 33.89 34.07
  A 3.82 3.75 -15.2 0 0 32.99 33.57
  C 27.43 31.45 22.01 31.48 23.76 23.07
  A 0.39 0.39 0.0 0 1 24.49 22.97
  L 26.47 26.88
  A 1.59 1.58 -13.5 0 0 27.88 27.74
  L 28.26 27.74
  A 0.36 0.36 0.0 0 0 28.57 27.19
  Q 26.12 23.36 25.37 19.42
  A 0.94 0.94 0.0 0 0 23.85 18.88
  C 14.38 26.83 7.31 38.12 4.64 49.98
  C 1.00 66.14 3.68 83.96 13.73 97.73
  C 25.35 113.64 42.15 122.09 62.00 122.09
  Z"
/>
<path fill="#f3f3f3" d="
  M 52.73 26.25
  L 44.85 26.25
  A 0.80 0.80 0.0 0 1 44.05 25.46
  Q 43.93 20.00 46.76 17.48
  C 51.05 13.65 55.44 9.68 52.58 4.07
  A 0.62 0.61 4.5 0 1 53.49 3.30
  Q 55.98 5.11 57.17 8.60
  C 59.74 16.14 46.37 17.81 53.12 25.38
  A 0.52 0.52 0.0 0 1 52.73 26.25
  Z"
/>
<path fill="#f3f3f3" d="
  M 71.26 26.26
  A 0.52 0.52 0.0 0 1 70.87 25.39
  C 77.64 17.82 64.26 16.13 66.84 8.59
  Q 68.04 5.10 70.54 3.29
  A 0.62 0.61 -4.4 0 1 71.44 4.06
  C 68.57 9.67 72.96 13.65 77.25 17.49
  Q 80.08 20.02 79.95 25.48
  A 0.80 0.80 0.0 0 1 79.15 26.27
  L 71.26 26.26
  Z"
/>
<rect fill="#f3f3f3" x="-4.13" y="-0.99" transform="translate(61.99,4.60) rotate(-0.4)" width="8.26" height="1.98" rx="0.88"/>
<path fill="#f3f3f3" d="
  M 61.98 43.98
  Q 61.87 43.98 61.77 43.94
  Q 58.21 42.60 54.73 41.27
  A 0.70 0.69 24.3 0 1 54.36 40.30
  Q 57.33 34.55 54.29 29.45
  A 0.66 0.66 0.0 0 1 54.57 28.52
  Q 55.72 27.96 57.18 28.37
  A 0.67 0.66 71.5 0 0 57.76 27.20
  Q 54.92 24.99 53.44 21.83
  A 1.79 1.79 0.0 0 1 53.79 19.80
  L 57.24 16.35
  A 3.12 3.03 -11.2 0 0 57.87 15.44
  L 59.53 11.70
  A 1.48 1.46 14.1 0 1 61.01 10.83
  Q 61.92 10.91 62.01 10.91
  Q 62.10 10.91 63.02 10.83
  A 1.48 1.46 -14.0 0 1 64.49 11.70
  L 66.14 15.45
  A 3.12 3.03 11.3 0 0 66.77 16.36
  L 70.22 19.82
  A 1.79 1.79 0.0 0 1 70.56 21.85
  Q 69.08 25.00 66.23 27.21
  A 0.67 0.66 -71.4 0 0 66.81 28.38
  Q 68.27 27.97 69.42 28.53
  A 0.66 0.66 0.0 0 1 69.70 29.46
  Q 66.65 34.56 69.61 40.31
  A 0.70 0.69 -24.1 0 1 69.24 41.28
  Q 65.75 42.61 62.19 43.94
  Q 62.09 43.98 61.98 43.98
  Z"
/>
<path fill="#636363" d="
  M 79.14 11.95
  A 0.42 0.42 0.0 0 1 79.64 11.28
  L 89.35 16.20
  A 0.84 0.84 0.0 0 1 89.80 16.96
  Q 89.74 18.73 88.45 19.71
  A 0.73 0.73 0.0 0 1 87.43 19.59
  L 85.23 16.83
  A 4.03 3.90 85.8 0 0 84.22 15.93
  Q 81.00 13.92 79.14 11.95
  Z"
/>
<path fill="#636363" d="
  M 44.37 12.19
  Q 42.65 14.04 39.65 15.95
  A 3.76 3.64 -86.3 0 0 38.72 16.80
  L 36.68 19.39
  A 0.69 0.68 37.7 0 1 35.73 19.51
  Q 34.52 18.61 34.45 16.96
  A 0.78 0.78 0.0 0 1 34.86 16.24
  L 43.89 11.57
  A 0.40 0.40 0.0 0 1 44.37 12.19
  Z"
/>
<path fill="#f3f3f3" d="
  M 47.30 12.97
  A 0.45 0.45 0.0 0 1 47.81 13.70
  Q 46.22 15.13 44.22 17.31
  C 42.04 19.69 41.76 21.98 41.91 25.13
  A 0.57 0.56 13.1 0 1 41.07 25.65
  Q 38.64 24.30 37.80 22.41
  A 1.62 1.62 0.0 0 1 37.96 20.82
  C 40.59 17.05 43.43 15.09 47.30 12.97
  Z"
/>
<path fill="#f3f3f3" d="
  M 76.80 13.05
  C 80.62 15.17 83.43 17.14 86.01 20.89
  A 1.61 1.61 0.0 0 1 86.16 22.47
  Q 85.31 24.34 82.89 25.66
  A 0.56 0.56 0.0 0 1 82.06 25.14
  C 82.23 22.02 81.97 19.75 79.83 17.37
  Q 77.86 15.20 76.29 13.77
  A 0.45 0.44 80.5 0 1 76.80 13.05
  Z"
/>
<path fill="#636363" d="
  M 11.65 63.32
  L 10.74 63.37
  A 0.58 0.58 0.0 0 0 10.19 63.95
  Q 10.19 65.27 11.74 65.49
  Q 13.18 85.60 26.25 98.69
  Q 35.65 108.09 47.86 111.50
  C 71.80 118.19 96.09 107.47 107.26 85.26
  Q 111.95 75.94 111.90 65.14
  Q 113.11 64.92 113.32 63.93
  Q 113.47 63.20 112.52 63.29
  C 111.91 60.70 111.89 57.54 111.50 55.55
  Q 109.50 45.44 104.04 36.53
  C 103.43 35.54 102.12 34.19 101.40 33.17
  A 1.68 1.65 -54.0 0 1 101.18 31.71
  L 102.52 27.64
  A 0.69 0.69 0.0 0 1 103.71 27.42
  Q 121.19 49.01 116.20 74.75
  Q 115.23 79.74 112.31 86.59
  C 105.60 102.34 89.99 114.48 73.26 117.46
  Q 66.64 118.64 57.32 118.23
  Q 49.12 117.87 41.70 114.92
  C 18.23 105.59 4.36 82.85 6.95 57.69
  Q 8.53 42.23 20.10 27.60
  A 0.75 0.75 0.0 0 1 21.40 27.83
  L 22.62 31.54
  A 2.07 2.05 55.3 0 1 22.28 33.45
  Q 12.45 46.09 11.65 63.32
  Z"
/>
<path fill="#f3f3f3" d="
  M 11.74 65.49
  Q 10.19 65.27 10.19 63.95
  A 0.58 0.58 0.0 0 1 10.74 63.37
  L 11.65 63.32
  Q 14.78 64.06 17.22 62.43
  A 2.22 2.19 -1.6 0 0 17.87 61.75
  Q 19.98 58.25 20.65 55.84
  C 22.87 47.83 23.59 43.92 27.21 38.50
  C 29.29 35.38 30.35 33.45 33.72 36.55
  Q 40.06 42.38 48.30 43.49
  A 0.59 0.58 20.2 0 1 48.72 44.39
  Q 47.13 46.87 47.55 50.72
  A 0.38 0.38 0.0 0 1 47.21 51.14
  C 45.44 51.32 42.93 51.15 41.36 52.34
  C 36.84 55.74 37.79 60.61 41.22 64.15
  C 44.48 67.50 44.87 70.76 44.90 75.32
  A 1.45 1.43 79.2 0 1 44.00 76.66
  Q 40.45 78.08 37.06 78.30
  Q 35.93 78.37 35.59 79.27
  A 1.85 1.80 28.2 0 0 36.27 81.41
  C 38.89 83.24 42.47 82.39 45.30 81.82
  A 1.39 1.39 0.0 0 1 46.74 82.41
  C 48.89 85.59 52.68 86.50 56.55 87.15
  A 0.55 0.55 0.0 0 1 56.99 87.83
  Q 56.82 88.51 56.21 89.48
  C 53.74 93.44 54.89 99.06 57.53 102.51
  A 3.23 3.14 22.3 0 1 58.14 103.91
  L 59.22 110.38
  A 0.53 0.52 87.8 0 1 58.66 110.99
  Q 28.86 108.24 16.70 79.69
  A 2.67 2.67 0.0 0 1 17.16 76.86
  Q 20.88 72.68 20.59 64.98
  A 0.40 0.40 0.0 0 0 20.00 64.64
  Q 18.04 65.68 16.26 65.88
  C 14.88 66.04 13.37 65.24 11.74 65.49
  Z"
/>
<path fill="#f3f3f3" d="
  M 112.52 63.29
  Q 113.47 63.20 113.32 63.93
  Q 113.11 64.92 111.90 65.14
  Q 107.28 66.76 103.98 64.60
  A 0.31 0.31 0.0 0 0 103.50 64.83
  Q 102.81 71.96 107.02 77.16
  A 1.83 1.82 -55.7 0 1 107.34 78.88
  Q 105.63 84.18 102.71 88.70
  Q 89.69 108.81 65.52 110.95
  A 0.67 0.66 2.0 0 1 64.80 110.18
  L 65.87 103.93
  A 3.86 3.77 -22.0 0 1 66.58 102.31
  Q 71.41 95.92 67.06 87.90
  A 0.59 0.58 73.2 0 1 67.52 87.04
  C 70.73 86.73 75.62 85.42 77.31 82.29
  A 1.03 1.03 0.0 0 1 78.36 81.76
  C 81.08 82.12 86.78 83.79 88.41 80.45
  A 1.75 1.53 13.0 0 0 86.81 78.23
  Q 82.91 78.04 79.69 76.42
  A 1.03 1.02 13.0 0 1 79.12 75.52
  C 79.06 71.28 79.41 67.54 82.56 64.47
  C 84.73 62.36 86.82 58.09 85.10 55.08
  C 83.70 52.64 81.98 51.39 79.24 51.34
  Q 77.45 51.31 77.12 51.23
  A 0.68 0.68 0.0 0 1 76.60 50.48
  Q 76.97 47.58 75.40 44.47
  A 0.72 0.72 0.0 0 1 75.94 43.42
  Q 84.05 42.32 90.52 36.35
  Q 91.83 35.14 93.63 35.08
  A 1.39 1.38 -19.4 0 1 94.77 35.62
  Q 100.08 42.47 101.52 49.24
  Q 102.97 56.03 105.83 61.42
  A 2.35 2.30 5.0 0 0 106.48 62.18
  Q 109.23 64.27 112.52 63.29
  Z"
/>
<path fill="#f3f3f3" d="
  M 49.93 49.46
  A 0.75 0.74 3.1 0 1 49.00 48.43
  L 50.16 46.14
  A 2.34 2.31 -74.5 0 1 52.38 44.87
  Q 54.38 44.99 56.90 47.09
  A 2.07 2.07 0.0 0 1 57.42 49.62
  L 57.24 49.99
  A 0.86 0.86 0.0 0 1 56.00 50.32
  Q 52.96 48.32 49.93 49.46
  Z"
/>
<path fill="#f3f3f3" d="
  M 74.06 49.47
  Q 71.07 48.32 68.04 50.28
  A 0.86 0.85 60.1 0 1 66.81 49.95
  L 66.63 49.58
  A 2.06 2.05 -33.0 0 1 67.17 47.07
  Q 69.68 45.01 71.67 44.90
  A 2.32 2.29 74.9 0 1 73.86 46.18
  L 74.99 48.46
  A 0.74 0.74 0.0 0 1 74.06 49.47
  Z"
/>
<path fill="#f3f3f3" d="
  M 58.29 53.26
  A 0.51 0.51 0.0 0 1 57.91 52.64
  L 58.14 51.65
  A 2.63 1.27 -76.9 0 1 59.97 49.38
  L 60.13 49.41
  A 2.63 1.27 -76.9 0 1 60.77 52.26
  L 60.54 53.26
  A 0.51 0.51 0.0 0 1 59.93 53.64
  L 58.29 53.26
  Z"
/>
<path fill="#f3f3f3" d="
  M 63.11 49.99
  A 0.45 0.45 0.0 0 1 63.54 49.52
  L 63.73 49.51
  A 2.20 2.02 -3.1 0 1 66.03 51.40
  L 66.04 51.60
  A 2.20 2.02 -3.1 0 1 63.96 53.74
  L 63.77 53.75
  A 0.45 0.45 0.0 0 1 63.29 53.32
  L 63.11 49.99
  Z"
/>
<path fill="#f3f3f3" d="
  M 53.62 59.53
  A 0.37 0.36 12.5 0 1 53.96 60.06
  L 52.44 63.07
  A 0.57 0.55 26.8 0 1 51.68 63.31
  L 49.16 62.04
  A 1.41 1.40 -50.5 0 0 47.65 62.19
  C 41.23 67.36 38.44 55.15 44.55 53.55
  A 2.17 2.16 67.0 0 1 46.95 54.53
  C 48.61 57.29 49.53 59.68 53.62 59.53
  Z"
/>
<path fill="#f3f3f3" d="
  M 70.36 59.51
  C 74.45 59.68 75.39 57.29 77.06 54.54
  A 2.18 2.16 -66.7 0 1 79.47 53.57
  C 85.58 55.20 82.72 67.41 76.32 62.20
  A 1.41 1.40 50.8 0 0 74.81 62.04
  L 72.28 63.30
  A 0.57 0.56 -26.5 0 1 71.52 63.06
  L 70.01 60.04
  A 0.37 0.37 0.0 0 1 70.36 59.51
  Z"
/>
<circle fill="#f3f3f3" cx="70.29" cy="55.48" r="1.39"/>
<circle fill="#f3f3f3" cx="53.70" cy="55.48" r="1.39"/>
<path fill="#f3f3f3" d="
  M 60.44 56.41
  L 63.52 56.41
  A 1.39 1.38 -83.1 0 1 64.86 58.13
  Q 64.11 61.19 64.76 62.69
  Q 65.40 64.15 66.58 63.71
  Q 67.29 63.45 67.72 62.37
  A 0.81 0.80 -68.3 0 1 68.75 61.92
  Q 70.48 62.56 70.12 65.01
  A 1.71 1.70 89.6 0 1 68.71 66.45
  L 65.45 67.00
  A 1.72 1.69 -66.2 0 0 64.75 67.28
  Q 63.97 67.79 63.38 68.75
  A 1.23 1.23 0.0 0 1 61.46 68.98
  Q 59.43 66.95 57.03 66.68
  C 54.46 66.39 52.64 65.28 54.38 62.56
  A 1.07 1.07 0.0 0 1 56.05 62.38
  L 56.96 63.29
  A 1.42 1.42 0.0 0 0 59.36 62.50
  Q 59.69 60.30 59.13 58.08
  A 1.35 1.35 0.0 0 1 60.44 56.41
  Z"
/>
<ellipse fill="#f3f3f3" cx="0.00" cy="0.00" transform="translate(68.71,59.52) rotate(-4.8)" rx="0.46" ry="0.18"/>
<path fill="#f3f3f3" d="
  M 59.18 70.28
  Q 59.06 70.59 56.89 69.80
  Q 56.14 69.53 56.30 69.13
  Q 56.45 68.73 57.19 69.05
  Q 59.30 69.97 59.18 70.28
  Z"
/>
<path fill="#f3f3f3" d="
  M 64.18 70.69
  Q 65.58 69.32 67.22 68.88
  A 0.44 0.43 -67.1 0 1 67.54 69.68
  Q 66.10 70.51 64.18 70.69
  Z"
/>
<path fill="#f3f3f3" d="
  M 56.49 74.43
  A 0.25 0.25 0.0 0 1 56.14 74.50
  L 56.04 74.43
  A 6.25 0.83 34.1 0 1 51.33 70.24
  L 51.45 70.07
  A 6.25 0.83 34.1 0 1 57.09 72.89
  L 57.19 72.96
  A 0.25 0.25 0.0 0 1 57.25 73.30
  L 56.49 74.43
  Z"
/>
<path fill="#f3f3f3" d="
  M 66.67 73.29
  A 0.20 0.20 0.0 0 1 66.73 73.01
  L 66.98 72.84
  A 6.14 0.82 -33.9 0 1 72.53 70.10
  L 72.66 70.30
  A 6.14 0.82 -33.9 0 1 68.02 74.40
  L 67.77 74.57
  A 0.20 0.20 0.0 0 1 67.50 74.52
  L 66.67 73.29
  Z"
/>
<path fill="#636363" d="
  M 64.18 70.69
  Q 64.23 71.51 63.87 71.79
  A 0.30 0.29 79.6 0 1 63.41 71.47
  Q 63.60 70.83 64.18 70.69
  Z"
/>
<path fill="#f3f3f3" d="
  M 64.13 73.25
  L 64.28 74.16
  A 1.38 1.36 -83.6 0 0 65.08 75.18
  Q 68.20 76.55 69.33 77.28
  Q 71.53 78.69 72.66 80.01
  A 1.31 1.31 0.0 0 1 71.46 82.15
  C 69.74 81.89 68.37 81.90 66.53 82.99
  Q 61.57 85.94 56.17 82.22
  A 0.88 0.86 -27.3 0 0 55.68 82.07
  L 52.21 82.07
  A 1.26 1.26 0.0 0 1 51.36 79.89
  C 54.15 77.31 57.10 76.17 59.85 74.48
  A 1.12 1.11 37.5 0 1 60.79 74.36
  Q 61.69 74.66 62.60 74.60
  A 0.77 0.76 -86.5 0 0 63.30 73.97
  Q 63.48 73.06 63.51 73.02
  A 0.39 0.38 -24.4 0 1 64.13 73.25
  Z"
/>
<path fill="#f3f3f3" d="
  M 38.47 80.07
  Q 45.25 78.38 50.01 74.75
  A 1.13 1.13 0.0 0 1 51.43 74.78
  L 51.49 74.83
  A 0.75 0.74 -45.2 0 1 51.49 75.96
  C 48.51 78.53 42.60 82.02 38.46 80.93
  A 0.45 0.44 -44.5 0 1 38.47 80.07
  Z"
/>
<path fill="#f3f3f3" d="
  M 85.49 80.07
  A 0.44 0.44 0.0 0 1 85.50 80.92
  C 81.38 82.00 75.50 78.52 72.54 75.96
  A 0.74 0.74 0.0 0 1 72.54 74.83
  L 72.60 74.78
  A 1.13 1.12 -46.0 0 1 74.01 74.76
  Q 78.74 78.38 85.49 80.07
  Z"
/>
<path fill="#f3f3f3" d="
  M 62.01 87.63
  C 63.74 87.63 64.93 87.90 65.70 89.49
  Q 67.53 93.31 66.80 97.54
  Q 66.62 98.57 64.65 98.49
  A 0.55 0.54 88.6 0 0 64.09 99.08
  Q 64.42 103.97 62.95 109.24
  Q 62.77 109.89 62.02 109.89
  Q 61.26 109.89 61.08 109.24
  Q 59.61 103.97 59.94 99.08
  A 0.55 0.54 -88.6 0 0 59.38 98.49
  Q 57.41 98.57 57.22 97.54
  Q 56.49 93.31 58.32 89.50
  C 59.09 87.90 60.28 87.63 62.01 87.63
  Z"
/>
</svg>
