<?xml version="1.0" encoding="UTF-8" standalone="no"?>
<!DOCTYPE svg PUBLIC "-//W3C//DTD SVG 1.1//EN" "http://www.w3.org/Graphics/SVG/1.1/DTD/svg11.dtd">
<svg xmlns="http://www.w3.org/2000/svg" version="1.1" viewBox="0.00 0.00 1600.00 1600.00">
<g stroke-width="2.00" fill="none" stroke-linecap="butt">
<path stroke="#774562" vector-effect="non-scaling-stroke" d="
  M 884.99 237.35
  C 900.17 239.64 916.80 241.92 930.51 244.73
  C 984.07 255.70 1034.51 276.53 1081.52 304.70
  A 0.82 0.82 0.0 0 1 1081.73 305.93
  L 1048.00 346.53"
/>
<path stroke="#116b7a" vector-effect="non-scaling-stroke" d="
  M 1048.00 346.53
  L 1040.15 355.53
  A 0.38 0.37 -68.7 0 0 1040.42 356.15
  Q 1052.52 356.47 1064.75 356.28
  Q 1068.63 356.22 1070.20 355.46
  Q 1091.80 345.00 1113.21 334.45"
/>
<path stroke="#774562" vector-effect="non-scaling-stroke" d="
  M 1157.17 336.36
  L 1178.42 355.74
  A 0.41 0.41 0.0 0 1 1178.14 356.45
  L 1136.22 356.45
  A 0.43 0.43 0.0 0 0 1135.92 357.18
  Q 1155.23 376.31 1170.47 398.02
  A 1.88 1.87 -17.4 0 0 1172.01 398.82
  L 1201.99 398.82
  A 2.19 2.18 -17.0 0 1 1203.80 399.78
  C 1217.69 420.22 1229.43 442.27 1238.04 465.58
  Q 1240.83 473.15 1243.68 480.66"
/>
<path stroke="#774562" vector-effect="non-scaling-stroke" d="
  M 1261.99 576.20
  L 1263.49 614.62
  A 0.63 0.63 0.0 0 0 1264.12 615.22
  L 1278.80 615.22
  A 0.57 0.56 -90.0 0 1 1279.36 615.79
  Q 1279.48 680.77 1266.76 744.01
  C 1266.39 745.85 1265.71 747.23 1265.56 748.83
  Q 1265.40 750.44 1264.93 752.49
  Q 1259.53 776.17 1251.60 800.63
  C 1234.54 853.29 1207.77 902.97 1172.24 945.90
  A 2.87 2.84 -70.0 0 1 1170.04 946.94
  L 1157.01 946.94
  A 3.57 3.53 19.8 0 0 1154.29 948.20
  Q 1136.99 968.88 1115.96 988.46
  A 0.51 0.50 23.3 0 0 1116.31 989.33
  L 1149.59 989.33
  A 0.57 0.57 0.0 0 1 1149.97 990.32
  C 1107.80 1028.58 1058.57 1059.34 1006.31 1082.02
  Q 1003.83 1083.10 1003.43 1084.73
  Q 1001.14 1094.07 998.93 1103.44"
/>
<path stroke="#774562" vector-effect="non-scaling-stroke" d="
  M 988.14 1146.90
  L 957.87 1146.89"
/>
<path stroke="#774562" vector-effect="non-scaling-stroke" d="
  M 946.19 1189.25
  Q 949.46 1189.36 949.43 1190.52"
/>
<path stroke="#774562" vector-effect="non-scaling-stroke" d="
  M 933.82 1253.91
  L 924.18 1292.65
  A 1.17 1.17 0.0 0 1 923.13 1293.53
  Q 884.92 1295.92 848.95 1305.70
  C 815.67 1314.74 785.07 1328.73 758.98 1351.21
  Q 758.63 1351.51 757.98 1352.54"
/>
<path stroke="#116b7a" vector-effect="non-scaling-stroke" d="
  M 714.31 1354.04
  Q 712.77 1353.72 711.53 1353.29
  Q 709.10 1352.43 708.81 1352.35
  Q 666.23 1341.23 620.50 1337.46
  Q 592.75 1335.18 577.29 1335.66
  C 575.31 1335.72 573.98 1335.06 573.10 1333.39
  Q 565.34 1318.71 555.92 1299.81
  Q 554.70 1297.35 553.47 1295.03"
/>
<path stroke="#116b7a" vector-effect="non-scaling-stroke" d="
  M 512.77 1215.33
  L 506.43 1202.69
  A 3.67 3.65 85.2 0 0 504.25 1200.84
  L 486.86 1195.46
  A 4.14 3.84 -16.7 0 1 485.74 1194.91
  L 480.03 1190.86
  A 6.37 6.36 64.0 0 0 476.65 1189.69
  L 471.50 1189.44
  A 5.57 5.44 61.8 0 1 468.86 1188.61
  C 465.85 1186.73 462.51 1183.19 458.24 1182.21
  Q 456.07 1181.71 448.25 1181.27
  C 434.71 1180.50 420.23 1179.07 407.74 1178.13
  Q 393.12 1177.04 378.86 1175.92
  A 1.09 1.09 0.0 0 1 377.89 1174.58
  L 381.89 1157.97"
/>
<path stroke="#116b7a" vector-effect="non-scaling-stroke" d="
  M 384.40 1146.81
  L 418.73 1146.87"
/>
<path stroke="#116b7a" vector-effect="non-scaling-stroke" d="
  M 431.21 1096.83
  Q 432.92 1086.79 433.84 1076.31
  Q 434.97 1063.54 433.75 1051.15
  A 2.39 2.38 16.2 0 0 432.84 1049.50
  Q 413.41 1034.44 389.69 1032.54
  C 386.85 1032.32 379.93 1032.45 377.01 1032.26
  A 1.41 1.40 -6.7 0 1 375.77 1031.29
  L 362.30 990.09
  A 0.62 0.61 89.0 0 0 361.88 989.68
  Q 360.34 989.26 358.74 989.28
  Q 345.26 989.47 332.50 989.43
  Q 330.22 989.42 327.20 989.15
  A 1.84 1.82 -4.8 0 1 325.60 987.81
  L 314.88 948.41
  A 1.14 1.13 -7.6 0 1 315.98 946.98
  L 329.85 946.98
  A 0.82 0.82 0.0 0 0 330.65 945.97
  Q 322.62 911.95 318.57 877.74
  Q 316.27 858.26 316.19 850.15
  C 316.14 844.00 315.36 837.40 315.22 830.50
  Q 314.85 811.59 315.88 791.87
  A 0.84 0.83 -2.6 0 1 316.59 791.10
  C 335.83 788.44 351.94 778.07 362.41 761.88
  Q 372.32 746.53 377.26 728.49
  Q 381.04 714.69 382.85 703.20
  Q 384.54 692.58 385.61 682.43"
/>
<path stroke="#116b7a" vector-effect="non-scaling-stroke" d="
  M 383.58 615.37
  L 372.22 615.58"
/>
<path stroke="#116b7a" vector-effect="non-scaling-stroke" d="
  M 417.87 432.11
  Q 429.87 415.17 443.13 399.50
  A 0.37 0.36 20.1 0 0 442.85 398.90
  L 413.01 398.90
  A 0.54 0.53 -69.0 0 1 412.62 398.01
  Q 432.18 376.26 456.37 356.78"
/>
<path stroke="#116b7a" vector-effect="non-scaling-stroke" d="
  M 460.82 356.02
  Q 479.15 356.59 496.06 356.38
  C 497.50 356.37 500.83 356.55 501.95 355.69
  Q 542.01 325.02 588.26 302.51
  Q 625.34 284.45 660.26 271.55
  C 706.12 254.61 753.42 243.11 801.75 238.18
  Q 802.97 238.06 809.20 238.14
  A 2.00 1.74 35.1 0 0 809.59 238.10
  L 812.43 237.43
  A 0.26 0.26 0.0 0 0 812.44 236.92
  L 812.04 236.81"
/>
<path stroke="#6894c2" vector-effect="non-scaling-stroke" d="
  M 1108.53 330.30
  Q 1104.61 327.47 1100.80 324.79
  C 1098.62 323.26 1096.14 322.35 1093.88 323.66
  C 1087.76 327.22 1081.91 329.65 1075.57 332.95
  Q 1071.43 335.11 1063.74 338.75
  Q 1056.01 342.41 1048.00 346.53"
/>
<path stroke="#774562" vector-effect="non-scaling-stroke" d="
  M 835.28 272.36
  Q 811.53 273.17 793.74 275.47
  Q 712.88 285.96 635.40 320.19
  Q 597.33 337.02 566.99 355.40
  A 3.41 3.32 -66.8 0 1 566.10 355.77
  Q 563.50 356.46 560.75 356.43
  Q 548.87 356.29 527.26 356.21
  Q 522.05 356.19 520.41 357.17
  Q 489.41 375.73 462.05 398.26
  A 0.32 0.32 0.0 0 0 462.26 398.83
  L 491.99 398.83
  A 0.47 0.47 0.0 0 1 492.31 399.65
  L 484.40 406.74"
/>
<path stroke="#774562" vector-effect="non-scaling-stroke" d="
  M 419.65 615.18
  Q 422.72 614.86 424.47 615.53"
/>
<path stroke="#116b7a" vector-effect="non-scaling-stroke" d="
  M 425.71 705.05
  Q 425.45 705.86 425.40 706.56
  Q 423.86 732.28 418.56 757.48
  Q 415.42 772.45 412.60 780.61
  Q 410.10 787.83 404.20 800.60"
/>
<path stroke="#774562" vector-effect="non-scaling-stroke" d="
  M 404.20 800.60
  Q 398.12 812.07 390.10 820.85
  Q 381.65 830.10 370.41 835.60
  Q 366.86 837.34 363.27 838.96"
/>
<path stroke="#774562" vector-effect="non-scaling-stroke" d="
  M 374.99 933.30
  L 379.84 946.30
  A 0.48 0.48 0.0 0 1 379.39 946.95
  L 364.56 946.95
  A 0.22 0.21 -12.2 0 0 364.36 947.25
  Q 368.40 956.36 374.23 964.52
  Q 376.65 967.91 380.18 969.12
  Q 402.17 976.69 420.94 988.33
  A 7.02 6.99 60.7 0 0 424.61 989.37
  Q 445.31 989.33 454.46 989.37
  C 458.07 989.39 459.10 989.87 461.96 992.05
  C 477.22 1003.67 486.43 1018.71 483.34 1038.63
  Q 482.58 1043.59 481.49 1053.13"
/>
<path stroke="#116b7a" vector-effect="non-scaling-stroke" d="
  M 465.32 1124.47
  L 459.89 1146.42"
/>
<path stroke="#774562" vector-effect="non-scaling-stroke" d="
  M 459.89 1146.42
  Q 459.48 1147.03 459.00 1147.05
  Q 455.87 1147.15 443.85 1147.04"
/>
<path stroke="#116b7a" vector-effect="non-scaling-stroke" d="
  M 443.85 1147.04
  L 424.75 1146.97
  A 1.56 1.55 7.5 0 0 423.25 1148.11
  L 421.13 1155.73
  A 1.05 1.05 0.0 0 0 422.07 1157.06
  L 440.16 1158.29"
/>
<path stroke="#774562" vector-effect="non-scaling-stroke" d="
  M 440.16 1158.29
  L 455.86 1159.48
  A 0.86 0.86 0.0 0 0 456.73 1158.93
  L 461.29 1146.96"
/>
<path stroke="#116b7a" vector-effect="non-scaling-stroke" d="
  M 461.29 1146.96
  L 480.73 1146.80"
/>
<path stroke="#774562" vector-effect="non-scaling-stroke" d="
  M 480.73 1146.80
  Q 483.47 1146.78 485.02 1146.86
  Q 485.46 1146.88 485.44 1147.28"
/>
<path stroke="#774562" vector-effect="non-scaling-stroke" d="
  M 481.21 1158.00
  L 477.79 1166.85
  A 0.76 0.76 0.0 0 0 478.06 1167.74
  L 487.31 1174.30
  A 6.93 6.91 70.9 0 0 489.26 1175.25
  L 521.67 1185.08"
/>
<path stroke="#116b7a" vector-effect="non-scaling-stroke" d="
  M 521.67 1185.08
  Q 530.18 1188.05 534.50 1189.00
  Q 537.89 1189.74 543.83 1189.38"
/>
<path stroke="#774562" vector-effect="non-scaling-stroke" d="
  M 543.83 1189.38
  L 566.17 1196.13
  A 0.61 0.60 -73.6 0 0 566.93 1195.71
  L 568.47 1190.16
  A 0.47 0.46 8.0 0 0 568.02 1189.57
  L 561.49 1189.57
  A 0.82 0.82 0.0 0 1 560.70 1188.55
  L 561.97 1183.35"
/>
<path stroke="#774562" vector-effect="non-scaling-stroke" d="
  M 574.36 1133.99
  Q 576.71 1125.74 577.97 1120.22
  Q 578.27 1118.94 579.74 1119.49"
/>
<path stroke="#116b7a" vector-effect="non-scaling-stroke" d="
  M 594.25 1147.36
  L 587.03 1175.96"
/>
<path stroke="#116b7a" vector-effect="non-scaling-stroke" d="
  M 585.15 1189.21
  L 590.69 1189.38
  A 0.76 0.76 0.0 0 1 591.39 1189.88
  L 591.67 1190.64"
/>
<path stroke="#774562" vector-effect="non-scaling-stroke" d="
  M 591.67 1190.64
  L 588.60 1201.76
  A 0.60 0.60 0.0 0 0 588.94 1202.47
  Q 590.01 1202.94 591.10 1202.72"
/>
<path stroke="#116b7a" vector-effect="non-scaling-stroke" d="
  M 591.10 1202.72
  L 612.28 1205.97"
/>
<path stroke="#774562" vector-effect="non-scaling-stroke" d="
  M 612.28 1205.97
  L 628.77 1208.60
  A 1.09 1.08 -80.1 0 0 630.00 1207.73
  L 633.35 1190.30
  A 0.70 0.70 0.0 0 0 632.66 1189.47
  L 626.18 1189.47
  A 0.58 0.58 0.0 0 1 625.61 1188.78
  L 633.50 1147.66
  A 0.80 0.80 0.0 0 1 634.44 1147.02
  L 641.38 1148.32"
/>
<path stroke="#774562" vector-effect="non-scaling-stroke" d="
  M 653.24 1205.12
  L 650.50 1219.70
  A 2.84 2.80 40.4 0 0 650.63 1221.19
  L 653.05 1227.64"
/>
<path stroke="#774562" vector-effect="non-scaling-stroke" d="
  M 669.21 1230.18
  L 701.95 1230.92"
/>
<path stroke="#116b7a" vector-effect="non-scaling-stroke" d="
  M 720.30 1231.26
  L 742.62 1231.66"
/>
<path stroke="#116b7a" vector-effect="non-scaling-stroke" d="
  M 762.66 1146.95
  L 780.45 1146.77"
/>
<path stroke="#774562" vector-effect="non-scaling-stroke" d="
  M 783.43 1231.98
  Q 782.14 1242.72 780.89 1253.00
  Q 780.85 1253.28 781.21 1253.94"
/>
<path stroke="#116b7a" vector-effect="non-scaling-stroke" d="
  M 637.86 1252.59
  L 630.82 1232.14
  A 1.03 1.03 0.0 0 0 630.06 1231.47
  Q 621.72 1229.77 615.40 1229.03
  C 605.35 1227.86 597.58 1226.44 586.62 1224.89
  Q 580.26 1223.99 572.78 1221.67
  Q 555.05 1216.18 546.82 1213.72
  A 0.18 0.17 -4.8 0 0 546.61 1213.96
  L 552.59 1225.77"
/>
<path stroke="#116b7a" vector-effect="non-scaling-stroke" d="
  M 587.48 1292.75
  Q 588.06 1295.08 589.26 1295.56
  A 0.88 0.87 51.8 0 0 589.65 1295.61
  L 613.74 1292.86"
/>
<path stroke="#774562" vector-effect="non-scaling-stroke" d="
  M 613.74 1292.86
  L 634.05 1291.96"
/>
<path stroke="#774562" vector-effect="non-scaling-stroke" d="
  M 667.94 1293.32
  L 672.81 1293.43
  A 2.91 2.91 0.0 0 1 673.76 1293.61
  Q 676.53 1294.62 679.44 1295.03
  Q 687.14 1296.11 694.76 1297.33"
/>
<path stroke="#116b7a" vector-effect="non-scaling-stroke" d="
  M 694.76 1297.33
  L 726.34 1303.85
  A 3.69 3.65 -57.9 0 0 729.33 1303.15
  Q 753.67 1284.10 785.77 1273.24
  Q 808.33 1265.61 833.75 1260.52
  Q 860.99 1255.06 888.77 1252.68
  A 0.58 0.57 -84.6 0 0 889.26 1252.27
  L 906.46 1190.32
  A 0.60 0.59 -82.5 0 0 905.89 1189.57
  L 899.86 1189.57
  A 0.93 0.93 0.0 0 1 898.96 1188.39
  L 910.21 1147.86
  A 1.33 1.33 0.0 0 1 911.49 1146.89
  L 945.67 1146.89
  A 1.08 1.08 0.0 0 0 946.71 1146.10
  L 959.06 1101.64
  A 0.26 0.26 0.0 0 0 958.72 1101.32
  L 915.17 1115.51"
/>
<path stroke="#774562" vector-effect="non-scaling-stroke" d="
  M 915.17 1115.51
  Q 903.33 1118.63 891.51 1122.01
  Q 878.36 1125.76 847.38 1132.60"
/>
<path stroke="#774562" vector-effect="non-scaling-stroke" d="
  M 821.50 1147.11
  L 809.94 1147.10"
/>
<path stroke="#116b7a" vector-effect="non-scaling-stroke" d="
  M 799.71 1134.27
  Q 801.09 1115.30 800.66 1096.25
  C 800.46 1086.92 800.90 1071.55 812.41 1069.11
  Q 882.95 1054.19 947.97 1027.53
  Q 981.52 1013.77 1007.54 999.01
  Q 1013.54 995.60 1023.34 990.27
  A 0.46 0.46 0.0 0 0 1023.12 989.40
  L 989.62 989.40
  A 0.35 0.35 0.0 0 1 989.44 988.74
  Q 1015.76 973.49 1047.02 948.77
  C 1050.11 946.33 1056.87 946.91 1060.09 946.95
  C 1064.80 946.99 1066.29 946.11 1069.99 942.96
  Q 1148.55 876.06 1190.10 781.35
  Q 1209.80 736.46 1220.69 689.74
  Q 1229.11 653.59 1230.91 615.85
  A 0.53 0.53 0.0 0 0 1230.38 615.30
  L 1215.85 615.30
  A 0.61 0.60 -89.5 0 1 1215.25 614.68
  Q 1215.73 597.36 1214.98 579.26
  C 1212.39 515.78 1193.04 450.59 1153.41 400.17
  A 3.51 3.50 -19.1 0 0 1150.66 398.84
  L 1121.76 398.84
  A 3.14 3.13 70.0 0 1 1119.36 397.72
  Q 1105.53 381.21 1088.17 367.64
  Q 1085.32 365.41 1083.35 364.53
  A 1.91 1.90 44.4 0 0 1081.78 364.54
  L 1057.46 375.57"
/>
<path stroke="#774562" vector-effect="non-scaling-stroke" d="
  M 1057.46 375.57
  L 1028.49 388.50"
/>
<path stroke="#774562" vector-effect="non-scaling-stroke" d="
  M 1023.79 398.81
  L 1044.86 398.85
  A 0.72 0.72 0.0 0 1 1045.57 399.70
  L 1035.85 454.69
  A 4.83 4.82 76.0 0 1 1034.08 457.65
  Q 1014.54 472.90 994.13 488.63
  Q 988.64 492.86 984.14 497.45"
/>
<path stroke="#116b7a" vector-effect="non-scaling-stroke" d="
  M 914.24 531.56
  L 962.41 459.01
  A 2.92 2.92 0.0 0 0 962.85 456.85
  L 952.24 399.47
  A 0.71 0.70 -4.8 0 0 951.54 398.89
  L 920.96 398.89
  A 0.80 0.80 0.0 0 1 920.18 398.26
  Q 919.66 396.04 918.70 391.06
  Q 918.04 387.60 918.97 386.49
  Q 931.12 372.04 943.57 356.59"
/>
<path stroke="#116b7a" vector-effect="non-scaling-stroke" d="
  M 947.60 356.15
  L 986.59 356.37
  A 2.94 2.91 -69.7 0 0 988.86 355.31
  L 1023.93 313.26
  A 0.31 0.30 34.3 0 0 1023.84 312.80
  Q 999.96 300.05 972.52 291.05
  Q 928.76 276.70 883.45 273.11
  C 876.73 272.58 870.11 272.53 863.57 272.14
  C 854.77 271.61 844.72 272.17 835.28 272.36"
/>
<path stroke="#6894c2" vector-effect="non-scaling-stroke" d="
  M 843.47 275.27
  L 835.28 272.36"
/>
<path stroke="#774562" vector-effect="non-scaling-stroke" d="
  M 472.19 707.67
  L 453.50 696.17
  A 0.68 0.68 0.0 0 0 452.49 696.55
  L 445.76 717.41"
/>
<path stroke="#6894c2" vector-effect="non-scaling-stroke" d="
  M 445.76 717.41
  Q 443.69 715.35 442.82 714.91
  Q 435.92 711.44 429.97 706.71"
/>
<path stroke="#774562" vector-effect="non-scaling-stroke" d="
  M 492.31 720.26
  L 582.12 776.05
  A 0.99 0.98 -75.2 0 1 582.60 776.88
  Q 582.94 792.98 578.74 807.47
  C 574.36 822.57 565.95 834.99 551.75 841.53
  Q 548.72 842.93 545.78 844.11"
/>
<path stroke="#116b7a" vector-effect="non-scaling-stroke" d="
  M 501.66 844.88
  Q 488.09 842.29 474.89 837.85
  A 3.11 3.05 -16.2 0 1 473.96 837.35
  Q 463.17 828.95 455.93 819.59
  C 443.62 803.72 437.75 783.26 438.33 763.25
  Q 438.80 747.11 442.32 731.31
  Q 443.00 728.28 445.76 717.41"
/>
<path stroke="#6894c2" vector-effect="non-scaling-stroke" d="
  M 591.10 1202.72
  L 591.67 1190.64"
/>
<path stroke="#6894c2" vector-effect="non-scaling-stroke" d="
  M 479.99 989.34
  L 505.47 989.38"
/>
<path stroke="#6894c2" vector-effect="non-scaling-stroke" d="
  M 512.57 995.05
  L 498.93 1021.84
  A 1.37 1.34 20.6 0 0 499.82 1023.75
  Q 500.23 1023.86 501.12 1023.79
  Q 516.31 1022.68 531.07 1025.14"
/>
<path stroke="#774562" vector-effect="non-scaling-stroke" d="
  M 521.90 1084.58
  L 497.37 1147.03"
/>
<path stroke="#6894c2" vector-effect="non-scaling-stroke" d="
  M 480.73 1146.80
  Q 488.03 1128.03 495.44 1109.66
  C 498.87 1101.17 502.57 1091.16 506.07 1081.81
  Q 506.93 1079.52 507.26 1077.84
  A 1.97 1.97 0.0 0 0 505.98 1075.59
  Q 499.61 1073.36 491.30 1069.65
  Q 489.46 1068.83 487.89 1069.55
  Q 486.66 1070.11 486.10 1072.22
  Q 484.32 1078.83 480.57 1085.06"
/>
<path stroke="#774562" vector-effect="non-scaling-stroke" d="
  M 589.70 958.60
  Q 594.46 970.41 595.37 973.65
  Q 597.80 982.23 599.79 988.88
  A 0.69 0.68 -7.8 0 0 600.45 989.37
  L 635.05 989.37
  A 1.14 1.13 83.2 0 1 636.15 990.24
  Q 641.20 1011.49 644.33 1032.73"
/>
<path stroke="#116b7a" vector-effect="non-scaling-stroke" d="
  M 545.67 953.91
  Q 531.77 970.41 521.30 988.63
  A 0.51 0.51 0.0 0 0 521.74 989.39
  L 556.04 989.39
  A 0.44 0.43 -74.6 0 1 556.41 990.05
  Q 547.02 1005.68 539.30 1022.89
  A 0.73 0.73 0.0 0 0 540.03 1023.92
  Q 573.64 1021.05 603.82 1035.60"
/>
<path stroke="#774562" vector-effect="non-scaling-stroke" d="
  M 521.53 1147.04
  L 508.84 1147.10"
/>
<path stroke="#6894c2" vector-effect="non-scaling-stroke" d="
  M 425.46 831.44
  C 423.96 829.80 422.80 828.05 421.36 826.64
  Q 410.35 815.81 404.20 800.60"
/>
<path stroke="#6894c2" vector-effect="non-scaling-stroke" d="
  M 553.40 1146.97
  L 557.31 1131.38
  A 1.86 1.60 -40.6 0 0 557.35 1131.12
  Q 557.56 1128.37 558.40 1125.94
  A 1.13 1.12 -67.2 0 0 557.84 1124.56
  L 554.54 1122.93"
/>
<path stroke="#6894c2" vector-effect="non-scaling-stroke" d="
  M 545.56 1178.41
  Q 543.72 1184.20 543.83 1189.38"
/>
<path stroke="#6894c2" vector-effect="non-scaling-stroke" d="
  M 521.67 1185.08
  Q 522.09 1178.97 522.74 1176.75
  Q 525.83 1166.34 528.06 1155.71
  Q 528.36 1154.30 529.30 1151.47
  Q 529.99 1149.42 530.35 1147.17"
/>
<path stroke="#6894c2" vector-effect="non-scaling-stroke" d="
  M 612.28 1205.97
  Q 611.99 1203.35 613.24 1200.47
  A 5.05 5.02 -33.2 0 0 613.65 1198.53
  Q 613.67 1195.56 614.69 1192.71
  Q 615.62 1190.09 612.87 1189.80
  Q 610.84 1189.59 608.80 1189.38"
/>
<path stroke="#6894c2" vector-effect="non-scaling-stroke" d="
  M 1092.99 398.85
  L 1079.76 398.95"
/>
<path stroke="#6894c2" vector-effect="non-scaling-stroke" d="
  M 1071.75 390.13
  L 1071.60 389.66
  A 1.36 1.32 13.8 0 0 1071.28 389.15
  L 1057.46 375.57"
/>
<path stroke="#6894c2" vector-effect="non-scaling-stroke" d="
  M 461.29 1146.96
  L 459.89 1146.42"
/>
<path stroke="#6894c2" vector-effect="non-scaling-stroke" d="
  M 440.16 1158.29
  Q 443.26 1152.55 443.85 1147.04"
/>
<path stroke="#6894c2" vector-effect="non-scaling-stroke" d="
  M 694.76 1297.33
  Q 699.04 1296.65 700.75 1293.04"
/>
<path stroke="#6894c2" vector-effect="non-scaling-stroke" d="
  M 910.76 1128.69
  Q 912.26 1121.95 915.17 1115.51"
/>
<path stroke="#6894c2" vector-effect="non-scaling-stroke" d="
  M 613.70 1252.31
  Q 606.31 1251.88 599.07 1251.80
  Q 596.89 1251.78 596.19 1249.84
  C 593.95 1243.56 591.96 1239.16 591.45 1235.47
  Q 591.25 1234.02 590.11 1232.72
  Q 589.16 1231.63 586.39 1231.02
  Q 585.66 1230.87 582.23 1230.40
  Q 574.34 1229.33 566.60 1228.02"
/>
<path stroke="#6894c2" vector-effect="non-scaling-stroke" d="
  M 613.74 1292.86
  L 599.29 1292.11"
/>
<path stroke="#774562" vector-effect="non-scaling-stroke" d="
  M 971.70 398.69
  Q 973.84 398.96 975.51 398.57
  A 1.03 0.99 -83.6 0 0 976.20 398.00
  L 978.49 392.86"
/>
<path stroke="#116b7a" vector-effect="non-scaling-stroke" d="
  M 978.49 392.86
  Q 981.70 386.16 984.82 378.34
  Q 986.18 374.94 988.25 373.92
  Q 1009.84 363.35 1023.67 356.53
  A 0.09 0.09 0.0 0 0 1023.63 356.35
  L 996.99 356.35
  A 3.14 3.11 -70.0 0 0 994.59 357.48
  L 966.71 390.91
  A 2.91 2.91 0.0 0 0 966.08 393.31
  L 967.00 398.28
  A 0.63 0.63 0.0 0 0 967.63 398.79
  L 971.70 398.69"
/>
<path stroke="#6894c2" vector-effect="non-scaling-stroke" d="
  M 978.49 392.86
  Q 974.47 394.36 971.70 398.69"
/>
<path stroke="#774562" vector-effect="non-scaling-stroke" d="
  M 1004.42 407.08
  L 1007.76 399.82
  A 0.61 0.61 0.0 0 0 1007.30 398.97
  Q 1006.00 398.77 1004.43 399.04"
/>
<path stroke="#116b7a" vector-effect="non-scaling-stroke" d="
  M 1004.43 399.04
  L 999.63 398.94
  A 0.67 0.66 -2.6 0 0 998.95 399.68
  L 1000.79 415.07
  A 0.27 0.26 52.4 0 0 1001.30 415.14
  L 1004.42 407.08"
/>
<path stroke="#6894c2" vector-effect="non-scaling-stroke" d="
  M 1004.43 399.04
  L 1004.36 402.65
  A 2.60 2.53 57.5 0 1 1004.17 403.57
  Q 1003.00 406.37 1004.42 407.08"
/>
<path stroke="#116b7a" vector-effect="non-scaling-stroke" d="
  M 752.43 760.05
  Q 733.21 774.93 711.14 784.49
  A 0.86 0.85 82.4 0 0 710.62 785.18
  C 707.55 811.84 707.85 839.07 716.49 863.77
  C 726.14 891.36 746.54 911.43 773.66 921.87
  Q 788.22 927.48 793.26 928.26
  Q 801.65 929.57 810.08 931.61"
/>
<path stroke="#774562" vector-effect="non-scaling-stroke" d="
  M 800.28 759.92
  C 806.99 760.67 814.64 761.88 820.30 762.41
  Q 825.43 762.89 830.43 763.72
  Q 830.51 763.73 833.30 764.05
  Q 834.48 764.18 876.21 768.87
  Q 878.12 769.09 880.27 769.35
  Q 912.34 773.25 945.21 777.79
  C 947.98 778.17 951.07 778.94 954.24 778.98
  A 1.21 1.20 88.7 0 1 955.42 780.11
  Q 956.61 799.70 955.05 819.79
  C 953.15 844.33 946.67 869.42 932.77 889.04
  Q 915.87 912.89 888.08 923.33
  Q 876.34 927.73 861.10 930.94"
/>
</g>
<path fill="#201c1a" d="
  M 884.99 237.35
  C 900.17 239.64 916.80 241.92 930.51 244.73
  C 984.07 255.70 1034.51 276.53 1081.52 304.70
  A 0.82 0.82 0.0 0 1 1081.73 305.93
  L 1048.00 346.53
  L 1040.15 355.53
  A 0.38 0.37 -68.7 0 0 1040.42 356.15
  Q 1052.52 356.47 1064.75 356.28
  Q 1068.63 356.22 1070.20 355.46
  Q 1091.80 345.00 1113.21 334.45
  L 1137.80 322.50
  A 0.82 0.82 0.0 0 1 1138.65 322.58
  L 1157.17 336.36
  L 1178.42 355.74
  A 0.41 0.41 0.0 0 1 1178.14 356.45
  L 1136.22 356.45
  A 0.43 0.43 0.0 0 0 1135.92 357.18
  Q 1155.23 376.31 1170.47 398.02
  A 1.88 1.87 -17.4 0 0 1172.01 398.82
  L 1201.99 398.82
  A 2.19 2.18 -17.0 0 1 1203.80 399.78
  C 1217.69 420.22 1229.43 442.27 1238.04 465.58
  Q 1240.83 473.15 1243.68 480.66
  Q 1258.12 527.33 1261.99 576.20
  L 1263.49 614.62
  A 0.63 0.63 0.0 0 0 1264.12 615.22
  L 1278.80 615.22
  A 0.57 0.56 -90.0 0 1 1279.36 615.79
  Q 1279.48 680.77 1266.76 744.01
  C 1266.39 745.85 1265.71 747.23 1265.56 748.83
  Q 1265.40 750.44 1264.93 752.49
  Q 1259.53 776.17 1251.60 800.63
  C 1234.54 853.29 1207.77 902.97 1172.24 945.90
  A 2.87 2.84 -70.0 0 1 1170.04 946.94
  L 1157.01 946.94
  A 3.57 3.53 19.8 0 0 1154.29 948.20
  Q 1136.99 968.88 1115.96 988.46
  A 0.51 0.50 23.3 0 0 1116.31 989.33
  L 1149.59 989.33
  A 0.57 0.57 0.0 0 1 1149.97 990.32
  C 1107.80 1028.58 1058.57 1059.34 1006.31 1082.02
  Q 1003.83 1083.10 1003.43 1084.73
  Q 1001.14 1094.07 998.93 1103.44
  L 988.14 1146.90
  L 957.87 1146.89
  L 952.96 1146.95
  A 1.05 1.04 -83.1 0 0 951.96 1147.74
  L 941.87 1188.75
  A 0.66 0.66 0.0 0 0 942.46 1189.57
  Q 945.04 1189.75 946.19 1189.25
  Q 949.46 1189.36 949.43 1190.52
  L 933.82 1253.91
  L 924.18 1292.65
  A 1.17 1.17 0.0 0 1 923.13 1293.53
  Q 884.92 1295.92 848.95 1305.70
  C 815.67 1314.74 785.07 1328.73 758.98 1351.21
  Q 758.63 1351.51 757.98 1352.54
  L 746.33 1363.84
  A 0.81 0.80 -57.9 0 1 745.52 1364.03
  L 714.31 1354.04
  Q 712.77 1353.72 711.53 1353.29
  Q 709.10 1352.43 708.81 1352.35
  Q 666.23 1341.23 620.50 1337.46
  Q 592.75 1335.18 577.29 1335.66
  C 575.31 1335.72 573.98 1335.06 573.10 1333.39
  Q 565.34 1318.71 555.92 1299.81
  Q 554.70 1297.35 553.47 1295.03
  L 512.77 1215.33
  L 506.43 1202.69
  A 3.67 3.65 85.2 0 0 504.25 1200.84
  L 486.86 1195.46
  A 4.14 3.84 -16.7 0 1 485.74 1194.91
  L 480.03 1190.86
  A 6.37 6.36 64.0 0 0 476.65 1189.69
  L 471.50 1189.44
  A 5.57 5.44 61.8 0 1 468.86 1188.61
  C 465.85 1186.73 462.51 1183.19 458.24 1182.21
  Q 456.07 1181.71 448.25 1181.27
  C 434.71 1180.50 420.23 1179.07 407.74 1178.13
  Q 393.12 1177.04 378.86 1175.92
  A 1.09 1.09 0.0 0 1 377.89 1174.58
  L 381.89 1157.97
  Q 383.85 1152.46 384.40 1146.81
  L 418.73 1146.87
  Q 419.59 1147.10 420.21 1146.97
  A 0.88 0.87 -88.2 0 0 420.87 1146.34
  Q 427.20 1122.01 431.21 1096.83
  Q 432.92 1086.79 433.84 1076.31
  Q 434.97 1063.54 433.75 1051.15
  A 2.39 2.38 16.2 0 0 432.84 1049.50
  Q 413.41 1034.44 389.69 1032.54
  C 386.85 1032.32 379.93 1032.45 377.01 1032.26
  A 1.41 1.40 -6.7 0 1 375.77 1031.29
  L 362.30 990.09
  A 0.62 0.61 89.0 0 0 361.88 989.68
  Q 360.34 989.26 358.74 989.28
  Q 345.26 989.47 332.50 989.43
  Q 330.22 989.42 327.20 989.15
  A 1.84 1.82 -4.8 0 1 325.60 987.81
  L 314.88 948.41
  A 1.14 1.13 -7.6 0 1 315.98 946.98
  L 329.85 946.98
  A 0.82 0.82 0.0 0 0 330.65 945.97
  Q 322.62 911.95 318.57 877.74
  Q 316.27 858.26 316.19 850.15
  C 316.14 844.00 315.36 837.40 315.22 830.50
  Q 314.85 811.59 315.88 791.87
  A 0.84 0.83 -2.6 0 1 316.59 791.10
  C 335.83 788.44 351.94 778.07 362.41 761.88
  Q 372.32 746.53 377.26 728.49
  Q 381.04 714.69 382.85 703.20
  Q 384.54 692.58 385.61 682.43
  Q 388.71 649.04 388.17 616.00
  A 0.56 0.56 0.0 0 0 387.62 615.45
  L 383.58 615.37
  L 372.22 615.58
  Q 372.12 602.50 372.23 589.75
  C 372.64 537.78 385.22 486.57 412.16 442.04
  Q 415.12 437.14 417.87 432.11
  Q 429.87 415.17 443.13 399.50
  A 0.37 0.36 20.1 0 0 442.85 398.90
  L 413.01 398.90
  A 0.54 0.53 -69.0 0 1 412.62 398.01
  Q 432.18 376.26 456.37 356.78
  Q 458.03 356.11 460.82 356.02
  Q 479.15 356.59 496.06 356.38
  C 497.50 356.37 500.83 356.55 501.95 355.69
  Q 542.01 325.02 588.26 302.51
  Q 625.34 284.45 660.26 271.55
  C 706.12 254.61 753.42 243.11 801.75 238.18
  Q 802.97 238.06 809.20 238.14
  A 2.00 1.74 35.1 0 0 809.59 238.10
  L 812.43 237.43
  A 0.26 0.26 0.0 0 0 812.44 236.92
  L 812.04 236.81
  Q 816.95 236.82 832.75 236.40
  Q 853.64 235.85 884.99 237.35
  Z
  M 835.28 272.36
  Q 811.53 273.17 793.74 275.47
  Q 712.88 285.96 635.40 320.19
  Q 597.33 337.02 566.99 355.40
  A 3.41 3.32 -66.8 0 1 566.10 355.77
  Q 563.50 356.46 560.75 356.43
  Q 548.87 356.29 527.26 356.21
  Q 522.05 356.19 520.41 357.17
  Q 489.41 375.73 462.05 398.26
  A 0.32 0.32 0.0 0 0 462.26 398.83
  L 491.99 398.83
  A 0.47 0.47 0.0 0 1 492.31 399.65
  L 484.40 406.74
  Q 467.05 421.57 453.93 437.69
  C 427.41 470.30 414.99 510.38 410.86 552.05
  Q 407.69 583.92 408.54 614.79
  A 0.40 0.39 89.2 0 0 408.93 615.18
  L 419.65 615.18
  Q 422.72 614.86 424.47 615.53
  Q 424.68 627.74 425.68 651.25
  Q 426.69 674.83 425.64 703.50
  Q 425.61 704.40 425.71 705.05
  Q 425.45 705.86 425.40 706.56
  Q 423.86 732.28 418.56 757.48
  Q 415.42 772.45 412.60 780.61
  Q 410.10 787.83 404.20 800.60
  Q 398.12 812.07 390.10 820.85
  Q 381.65 830.10 370.41 835.60
  Q 366.86 837.34 363.27 838.96
  L 362.35 839.24
  A 0.67 0.67 0.0 0 0 361.88 839.89
  Q 362.61 868.93 366.64 897.67
  Q 369.18 915.79 374.99 933.30
  L 379.84 946.30
  A 0.48 0.48 0.0 0 1 379.39 946.95
  L 364.56 946.95
  A 0.22 0.21 -12.2 0 0 364.36 947.25
  Q 368.40 956.36 374.23 964.52
  Q 376.65 967.91 380.18 969.12
  Q 402.17 976.69 420.94 988.33
  A 7.02 6.99 60.7 0 0 424.61 989.37
  Q 445.31 989.33 454.46 989.37
  C 458.07 989.39 459.10 989.87 461.96 992.05
  C 477.22 1003.67 486.43 1018.71 483.34 1038.63
  Q 482.58 1043.59 481.49 1053.13
  L 465.32 1124.47
  L 459.89 1146.42
  Q 459.48 1147.03 459.00 1147.05
  Q 455.87 1147.15 443.85 1147.04
  L 424.75 1146.97
  A 1.56 1.55 7.5 0 0 423.25 1148.11
  L 421.13 1155.73
  A 1.05 1.05 0.0 0 0 422.07 1157.06
  L 440.16 1158.29
  L 455.86 1159.48
  A 0.86 0.86 0.0 0 0 456.73 1158.93
  L 461.29 1146.96
  L 480.73 1146.80
  Q 483.47 1146.78 485.02 1146.86
  Q 485.46 1146.88 485.44 1147.28
  L 481.21 1158.00
  L 477.79 1166.85
  A 0.76 0.76 0.0 0 0 478.06 1167.74
  L 487.31 1174.30
  A 6.93 6.91 70.9 0 0 489.26 1175.25
  L 521.67 1185.08
  Q 530.18 1188.05 534.50 1189.00
  Q 537.89 1189.74 543.83 1189.38
  L 566.17 1196.13
  A 0.61 0.60 -73.6 0 0 566.93 1195.71
  L 568.47 1190.16
  A 0.47 0.46 8.0 0 0 568.02 1189.57
  L 561.49 1189.57
  A 0.82 0.82 0.0 0 1 560.70 1188.55
  L 561.97 1183.35
  L 574.36 1133.99
  Q 576.71 1125.74 577.97 1120.22
  Q 578.27 1118.94 579.74 1119.49
  L 599.22 1124.43
  A 0.80 0.79 14.5 0 1 599.80 1125.40
  L 594.25 1147.36
  L 587.03 1175.96
  L 583.73 1189.28
  A 0.42 0.42 0.0 0 0 584.18 1189.80
  Q 584.74 1189.75 585.15 1189.21
  L 590.69 1189.38
  A 0.76 0.76 0.0 0 1 591.39 1189.88
  L 591.67 1190.64
  L 588.60 1201.76
  A 0.60 0.60 0.0 0 0 588.94 1202.47
  Q 590.01 1202.94 591.10 1202.72
  L 612.28 1205.97
  L 628.77 1208.60
  A 1.09 1.08 -80.1 0 0 630.00 1207.73
  L 633.35 1190.30
  A 0.70 0.70 0.0 0 0 632.66 1189.47
  L 626.18 1189.47
  A 0.58 0.58 0.0 0 1 625.61 1188.78
  L 633.50 1147.66
  A 0.80 0.80 0.0 0 1 634.44 1147.02
  L 641.38 1148.32
  L 655.21 1150.96
  A 0.45 0.45 0.0 0 1 655.57 1151.49
  L 648.39 1188.90
  A 0.56 0.56 0.0 0 0 648.94 1189.56
  L 654.93 1189.56
  A 1.14 1.14 0.0 0 1 656.05 1190.92
  L 653.24 1205.12
  L 650.50 1219.70
  A 2.84 2.80 40.4 0 0 650.63 1221.19
  L 653.05 1227.64
  Q 652.99 1229.64 653.89 1229.71
  Q 661.54 1230.31 669.21 1230.18
  L 701.95 1230.92
  Q 711.72 1230.34 720.30 1231.26
  L 742.62 1231.66
  L 760.52 1231.86
  A 0.63 0.62 -86.5 0 0 761.15 1231.30
  L 766.06 1189.95
  A 0.30 0.29 3.4 0 0 765.76 1189.62
  L 758.61 1189.62
  A 0.48 0.48 0.0 0 1 758.13 1189.09
  L 762.66 1146.95
  L 780.45 1146.77
  L 784.89 1146.83
  A 0.61 0.60 -86.1 0 1 785.48 1147.51
  L 780.55 1189.05
  A 0.47 0.47 0.0 0 0 781.02 1189.57
  L 787.65 1189.57
  A 0.72 0.72 0.0 0 1 788.36 1190.38
  L 783.43 1231.98
  Q 782.14 1242.72 780.89 1253.00
  Q 780.85 1253.28 781.21 1253.94
  Q 780.70 1254.92 779.75 1254.90
  Q 761.16 1254.40 742.75 1254.07
  C 740.86 1254.04 738.24 1254.40 736.08 1254.37
  Q 698.12 1253.78 683.50 1253.59
  Q 682.67 1253.57 681.50 1253.54
  Q 649.72 1252.69 649.70 1252.69
  Q 649.64 1252.69 644.31 1252.39
  Q 640.70 1252.20 637.86 1252.59
  L 630.82 1232.14
  A 1.03 1.03 0.0 0 0 630.06 1231.47
  Q 621.72 1229.77 615.40 1229.03
  C 605.35 1227.86 597.58 1226.44 586.62 1224.89
  Q 580.26 1223.99 572.78 1221.67
  Q 555.05 1216.18 546.82 1213.72
  A 0.18 0.17 -4.8 0 0 546.61 1213.96
  L 552.59 1225.77
  L 587.48 1292.75
  Q 588.06 1295.08 589.26 1295.56
  A 0.88 0.87 51.8 0 0 589.65 1295.61
  L 613.74 1292.86
  L 634.05 1291.96
  L 667.94 1293.32
  L 672.81 1293.43
  A 2.91 2.91 0.0 0 1 673.76 1293.61
  Q 676.53 1294.62 679.44 1295.03
  Q 687.14 1296.11 694.76 1297.33
  L 726.34 1303.85
  A 3.69 3.65 -57.9 0 0 729.33 1303.15
  Q 753.67 1284.10 785.77 1273.24
  Q 808.33 1265.61 833.75 1260.52
  Q 860.99 1255.06 888.77 1252.68
  A 0.58 0.57 -84.6 0 0 889.26 1252.27
  L 906.46 1190.32
  A 0.60 0.59 -82.5 0 0 905.89 1189.57
  L 899.86 1189.57
  A 0.93 0.93 0.0 0 1 898.96 1188.39
  L 910.21 1147.86
  A 1.33 1.33 0.0 0 1 911.49 1146.89
  L 945.67 1146.89
  A 1.08 1.08 0.0 0 0 946.71 1146.10
  L 959.06 1101.64
  A 0.26 0.26 0.0 0 0 958.72 1101.32
  L 915.17 1115.51
  Q 903.33 1118.63 891.51 1122.01
  Q 878.36 1125.76 847.38 1132.60
  L 823.13 1137.54
  A 0.68 0.67 -3.0 0 0 822.59 1138.13
  L 821.50 1147.11
  L 809.94 1147.10
  L 799.38 1147.15
  A 0.79 0.78 -87.7 0 1 798.59 1146.29
  L 799.71 1134.27
  Q 801.09 1115.30 800.66 1096.25
  C 800.46 1086.92 800.90 1071.55 812.41 1069.11
  Q 882.95 1054.19 947.97 1027.53
  Q 981.52 1013.77 1007.54 999.01
  Q 1013.54 995.60 1023.34 990.27
  A 0.46 0.46 0.0 0 0 1023.12 989.40
  L 989.62 989.40
  A 0.35 0.35 0.0 0 1 989.44 988.74
  Q 1015.76 973.49 1047.02 948.77
  C 1050.11 946.33 1056.87 946.91 1060.09 946.95
  C 1064.80 946.99 1066.29 946.11 1069.99 942.96
  Q 1148.55 876.06 1190.10 781.35
  Q 1209.80 736.46 1220.69 689.74
  Q 1229.11 653.59 1230.91 615.85
  A 0.53 0.53 0.0 0 0 1230.38 615.30
  L 1215.85 615.30
  A 0.61 0.60 -89.5 0 1 1215.25 614.68
  Q 1215.73 597.36 1214.98 579.26
  C 1212.39 515.78 1193.04 450.59 1153.41 400.17
  A 3.51 3.50 -19.1 0 0 1150.66 398.84
  L 1121.76 398.84
  A 3.14 3.13 70.0 0 1 1119.36 397.72
  Q 1105.53 381.21 1088.17 367.64
  Q 1085.32 365.41 1083.35 364.53
  A 1.91 1.90 44.4 0 0 1081.78 364.54
  L 1057.46 375.57
  L 1028.49 388.50
  L 1015.27 394.45
  A 1.87 1.86 -86.6 0 0 1014.44 395.19
  Q 1013.71 396.47 1013.83 398.16
  A 0.60 0.60 0.0 0 0 1014.42 398.70
  L 1023.79 398.81
  L 1044.86 398.85
  A 0.72 0.72 0.0 0 1 1045.57 399.70
  L 1035.85 454.69
  A 4.83 4.82 76.0 0 1 1034.08 457.65
  Q 1014.54 472.90 994.13 488.63
  Q 988.64 492.86 984.14 497.45
  L 900.02 596.52
  A 0.23 0.23 0.0 0 1 899.63 596.32
  L 914.24 531.56
  L 962.41 459.01
  A 2.92 2.92 0.0 0 0 962.85 456.85
  L 952.24 399.47
  A 0.71 0.70 -4.8 0 0 951.54 398.89
  L 920.96 398.89
  A 0.80 0.80 0.0 0 1 920.18 398.26
  Q 919.66 396.04 918.70 391.06
  Q 918.04 387.60 918.97 386.49
  Q 931.12 372.04 943.57 356.59
  L 947.60 356.15
  L 986.59 356.37
  A 2.94 2.91 -69.7 0 0 988.86 355.31
  L 1023.93 313.26
  A 0.31 0.30 34.3 0 0 1023.84 312.80
  Q 999.96 300.05 972.52 291.05
  Q 928.76 276.70 883.45 273.11
  C 876.73 272.58 870.11 272.53 863.57 272.14
  C 854.77 271.61 844.72 272.17 835.28 272.36
  Z
  M 971.70 398.69
  Q 973.84 398.96 975.51 398.57
  A 1.03 0.99 -83.6 0 0 976.20 398.00
  L 978.49 392.86
  Q 981.70 386.16 984.82 378.34
  Q 986.18 374.94 988.25 373.92
  Q 1009.84 363.35 1023.67 356.53
  A 0.09 0.09 0.0 0 0 1023.63 356.35
  L 996.99 356.35
  A 3.14 3.11 -70.0 0 0 994.59 357.48
  L 966.71 390.91
  A 2.91 2.91 0.0 0 0 966.08 393.31
  L 967.00 398.28
  A 0.63 0.63 0.0 0 0 967.63 398.79
  L 971.70 398.69
  Z
  M 1004.42 407.08
  L 1007.76 399.82
  A 0.61 0.61 0.0 0 0 1007.30 398.97
  Q 1006.00 398.77 1004.43 399.04
  L 999.63 398.94
  A 0.67 0.66 -2.6 0 0 998.95 399.68
  L 1000.79 415.07
  A 0.27 0.26 52.4 0 0 1001.30 415.14
  L 1004.42 407.08
  Z"
/>
<path fill="#01bada" d="
  M 812.04 236.81
  L 812.44 236.92
  A 0.26 0.26 0.0 0 1 812.43 237.43
  L 809.59 238.10
  A 2.00 1.74 35.1 0 1 809.20 238.14
  Q 802.97 238.06 801.75 238.18
  C 753.42 243.11 706.12 254.61 660.26 271.55
  Q 625.34 284.45 588.26 302.51
  Q 542.01 325.02 501.95 355.69
  C 500.83 356.55 497.50 356.37 496.06 356.38
  Q 479.15 356.59 460.82 356.02
  Q 496.92 328.06 540.99 305.78
  Q 587.14 282.45 635.57 265.85
  C 675.77 252.08 717.85 242.47 761.00 238.25
  Q 786.46 235.76 812.04 236.81
  Z"
/>
<path fill="#ce6da9" d="
  M 1108.53 330.30
  Q 1104.61 327.47 1100.80 324.79
  C 1098.62 323.26 1096.14 322.35 1093.88 323.66
  C 1087.76 327.22 1081.91 329.65 1075.57 332.95
  Q 1071.43 335.11 1063.74 338.75
  Q 1056.01 342.41 1048.00 346.53
  L 1081.73 305.93
  A 0.82 0.82 0.0 0 0 1081.52 304.70
  C 1034.51 276.53 984.07 255.70 930.51 244.73
  C 916.80 241.92 900.17 239.64 884.99 237.35
  Q 895.36 236.38 899.00 236.40
  C 967.62 236.80 1035.44 255.38 1096.40 286.64
  Q 1109.48 293.34 1129.04 304.50
  A 0.76 0.76 0.0 0 1 1129.24 305.65
  L 1108.53 330.30
  Z"
/>
<path fill="#01bada" d="
  M 947.60 356.15
  L 982.77 313.56
  A 0.69 0.68 -56.8 0 0 982.56 312.52
  Q 922.62 281.58 855.25 274.64
  Q 850.68 274.17 843.47 275.27
  L 835.28 272.36
  C 844.72 272.17 854.77 271.61 863.57 272.14
  C 870.11 272.53 876.73 272.58 883.45 273.11
  Q 928.76 276.70 972.52 291.05
  Q 999.96 300.05 1023.84 312.80
  A 0.31 0.30 34.3 0 1 1023.93 313.26
  L 988.86 355.31
  A 2.94 2.91 -69.7 0 1 986.59 356.37
  L 947.60 356.15
  Z"
/>
<path fill="#ce6da9" d="
  M 835.28 272.36
  L 843.47 275.27
  C 769.88 284.57 699.09 308.48 634.35 344.14
  Q 623.94 349.87 613.84 355.56
  Q 612.30 356.43 610.00 356.42
  Q 590.70 356.36 569.29 356.53
  A 1.92 1.89 29.0 0 0 568.31 356.80
  C 547.71 369.03 527.92 383.27 509.13 398.49
  A 0.17 0.17 0.0 0 0 509.24 398.80
  L 539.42 398.80
  A 0.51 0.51 0.0 0 1 539.76 399.69
  Q 526.38 411.31 516.15 421.40
  C 496.88 440.39 481.80 462.99 472.41 488.56
  C 457.67 528.75 455.44 571.70 455.86 614.35
  A 0.83 0.82 0.0 0 0 456.69 615.17
  L 471.21 615.17
  A 0.54 0.54 0.0 0 1 471.75 615.69
  C 472.70 640.08 474.25 671.68 473.11 700.75
  Q 472.98 704.12 472.19 707.67
  L 453.50 696.17
  A 0.68 0.68 0.0 0 0 452.49 696.55
  L 445.76 717.41
  Q 443.69 715.35 442.82 714.91
  Q 435.92 711.44 429.97 706.71
  Q 436.56 661.55 435.39 616.08
  A 0.54 0.54 0.0 0 0 434.85 615.56
  L 424.47 615.53
  Q 422.72 614.86 419.65 615.18
  Q 419.28 600.15 419.60 585.25
  C 420.90 525.55 438.53 467.84 474.69 419.42
  Q 479.37 413.15 484.40 406.74
  L 492.31 399.65
  A 0.47 0.47 0.0 0 0 491.99 398.83
  L 462.26 398.83
  A 0.32 0.32 0.0 0 1 462.05 398.26
  Q 489.41 375.73 520.41 357.17
  Q 522.05 356.19 527.26 356.21
  Q 548.87 356.29 560.75 356.43
  Q 563.50 356.46 566.10 355.77
  A 3.41 3.32 -66.8 0 0 566.99 355.40
  Q 597.33 337.02 635.40 320.19
  Q 712.88 285.96 793.74 275.47
  Q 811.53 273.17 835.28 272.36
  Z"
/>
<path fill="#ce6da9" d="
  M 757.98 1352.54
  Q 758.63 1351.51 758.98 1351.21
  C 785.07 1328.73 815.67 1314.74 848.95 1305.70
  Q 884.92 1295.92 923.13 1293.53
  A 1.17 1.17 0.0 0 0 924.18 1292.65
  L 933.82 1253.91
  Q 936.40 1252.81 937.16 1250.10
  Q 945.48 1220.37 953.76 1190.59
  A 0.62 0.61 20.2 0 0 953.43 1189.88
  Q 951.45 1188.92 949.43 1190.52
  Q 949.46 1189.36 946.19 1189.25
  L 957.87 1146.89
  L 988.14 1146.90
  Q 991.06 1147.13 993.43 1146.48
  A 1.11 1.08 -89.3 0 0 994.20 1145.71
  L 1006.25 1102.31
  A 0.69 0.69 0.0 0 0 1005.39 1101.46
  L 998.93 1103.44
  Q 1001.14 1094.07 1003.43 1084.73
  Q 1003.83 1083.10 1006.31 1082.02
  C 1058.57 1059.34 1107.80 1028.58 1149.97 990.32
  A 0.57 0.57 0.0 0 0 1149.59 989.33
  L 1116.31 989.33
  A 0.51 0.50 23.3 0 1 1115.96 988.46
  Q 1136.99 968.88 1154.29 948.20
  A 3.57 3.53 19.8 0 1 1157.01 946.94
  L 1170.04 946.94
  A 2.87 2.84 -70.0 0 0 1172.24 945.90
  C 1207.77 902.97 1234.54 853.29 1251.60 800.63
  Q 1259.53 776.17 1264.93 752.49
  Q 1265.40 750.44 1265.56 748.83
  C 1265.71 747.23 1266.39 745.85 1266.76 744.01
  Q 1279.48 680.77 1279.36 615.79
  A 0.57 0.56 -90.0 0 0 1278.80 615.22
  L 1264.12 615.22
  A 0.63 0.63 0.0 0 1 1263.49 614.62
  L 1261.99 576.20
  Q 1260.68 537.09 1249.38 497.27
  Q 1246.45 486.94 1243.68 480.66
  Q 1240.83 473.15 1238.04 465.58
  C 1229.43 442.27 1217.69 420.22 1203.80 399.78
  A 2.19 2.18 -17.0 0 0 1201.99 398.82
  L 1172.01 398.82
  A 1.88 1.87 -17.4 0 1 1170.47 398.02
  Q 1155.23 376.31 1135.92 357.18
  A 0.43 0.43 0.0 0 1 1136.22 356.45
  L 1178.14 356.45
  A 0.41 0.41 0.0 0 0 1178.42 355.74
  L 1157.17 336.36
  L 1184.93 322.70
  A 1.53 1.53 0.0 0 1 1186.49 322.83
  Q 1207.33 337.89 1225.78 355.69
  A 0.44 0.43 -40.0 0 1 1225.72 356.36
  Q 1225.51 356.51 1225.27 356.51
  Q 1212.37 356.62 1183.12 356.44
  A 0.23 0.23 0.0 0 0 1182.96 356.83
  Q 1202.10 375.86 1217.84 397.84
  A 2.28 2.27 -17.8 0 0 1219.69 398.79
  L 1248.98 398.79
  A 2.96 2.96 0.0 0 1 1251.43 400.09
  Q 1284.18 448.31 1298.16 505.57
  Q 1307.26 542.85 1309.60 581.57
  Q 1310.62 598.45 1310.87 614.83
  A 0.36 0.36 0.0 0 0 1311.23 615.19
  L 1326.18 615.19
  A 0.63 0.63 0.0 0 1 1326.81 615.82
  Q 1326.88 678.20 1315.31 738.35
  Q 1311.43 758.52 1304.06 784.30
  C 1287.19 843.36 1258.65 898.99 1219.30 946.33
  A 2.01 2.00 19.6 0 1 1217.75 947.06
  L 1203.77 947.06
  A 2.25 2.23 19.8 0 0 1202.05 947.86
  Q 1184.94 968.34 1163.38 988.57
  A 0.42 0.41 -66.3 0 0 1163.66 989.29
  L 1197.00 989.29
  A 0.69 0.69 0.0 0 1 1197.45 990.51
  Q 1187.10 999.47 1183.77 1002.27
  C 1144.79 1035.11 1100.10 1061.75 1053.03 1082.52
  C 1050.98 1083.42 1050.73 1085.14 1050.10 1087.76
  Q 1045.71 1106.02 1035.71 1146.30
  A 0.88 0.86 6.7 0 1 1034.86 1146.96
  L 1000.72 1146.96
  A 1.45 1.45 0.0 0 0 999.31 1148.07
  L 989.24 1188.97
  A 0.41 0.41 0.0 0 0 989.64 1189.48
  L 996.15 1189.48
  A 0.72 0.72 0.0 0 1 996.85 1190.37
  L 971.65 1292.72
  A 1.07 1.07 0.0 0 1 970.68 1293.53
  Q 947.64 1295.09 923.03 1299.58
  Q 896.95 1304.33 870.20 1314.21
  C 841.86 1324.68 814.73 1340.79 794.49 1363.18
  A 2.27 2.27 0.0 0 1 792.10 1363.81
  L 757.98 1352.54
  Z"
/>
<path fill="#01bada" d="
  M 1108.53 330.30
  L 1113.21 334.45
  Q 1091.80 345.00 1070.20 355.46
  Q 1068.63 356.22 1064.75 356.28
  Q 1052.52 356.47 1040.42 356.15
  A 0.38 0.37 -68.7 0 1 1040.15 355.53
  L 1048.00 346.53
  Q 1056.01 342.41 1063.74 338.75
  Q 1071.43 335.11 1075.57 332.95
  C 1081.91 329.65 1087.76 327.22 1093.88 323.66
  C 1096.14 322.35 1098.62 323.26 1100.80 324.79
  Q 1104.61 327.47 1108.53 330.30
  Z"
/>
<path fill="#01bada" d="
  M 456.37 356.78
  Q 432.18 376.26 412.62 398.01
  A 0.54 0.53 -69.0 0 0 413.01 398.90
  L 442.85 398.90
  A 0.37 0.36 20.1 0 1 443.13 399.50
  Q 429.87 415.17 417.87 432.11
  Q 388.27 466.04 377.39 510.18
  C 369.15 543.67 366.72 580.74 367.76 614.70
  A 0.55 0.55 0.0 0 0 368.27 615.24
  L 372.22 615.58
  L 383.58 615.37
  L 385.61 682.43
  Q 384.54 692.58 382.85 703.20
  Q 381.04 714.69 377.26 728.49
  Q 372.32 746.53 362.41 761.88
  C 351.94 778.07 335.83 788.44 316.59 791.10
  A 0.84 0.83 -2.6 0 0 315.88 791.87
  Q 314.85 811.59 315.22 830.50
  C 315.36 837.40 316.14 844.00 316.19 850.15
  Q 316.27 858.26 318.57 877.74
  Q 322.62 911.95 330.65 945.97
  A 0.82 0.82 0.0 0 1 329.85 946.98
  L 315.98 946.98
  A 1.14 1.13 -7.6 0 0 314.88 948.41
  L 325.60 987.81
  A 1.84 1.82 -4.8 0 0 327.20 989.15
  Q 330.22 989.42 332.50 989.43
  Q 345.26 989.47 358.74 989.28
  Q 360.34 989.26 361.88 989.68
  A 0.62 0.61 89.0 0 1 362.30 990.09
  L 375.77 1031.29
  A 1.41 1.40 -6.7 0 0 377.01 1032.26
  C 379.93 1032.45 386.85 1032.32 389.69 1032.54
  Q 413.41 1034.44 432.84 1049.50
  A 2.39 2.38 16.2 0 1 433.75 1051.15
  Q 434.97 1063.54 433.84 1076.31
  Q 432.92 1086.79 431.21 1096.83
  L 418.73 1146.87
  L 384.40 1146.81
  Q 381.26 1148.76 380.62 1155.58
  Q 380.42 1157.67 381.89 1157.97
  L 377.89 1174.58
  A 1.09 1.09 0.0 0 0 378.86 1175.92
  Q 393.12 1177.04 407.74 1178.13
  C 420.23 1179.07 434.71 1180.50 448.25 1181.27
  Q 456.07 1181.71 458.24 1182.21
  C 462.51 1183.19 465.85 1186.73 468.86 1188.61
  A 5.57 5.44 61.8 0 0 471.50 1189.44
  L 476.65 1189.69
  A 6.37 6.36 64.0 0 1 480.03 1190.86
  L 485.74 1194.91
  A 4.14 3.84 -16.7 0 0 486.86 1195.46
  L 504.25 1200.84
  A 3.67 3.65 85.2 0 1 506.43 1202.69
  L 512.77 1215.33
  Q 509.39 1215.68 507.12 1213.73
  A 0.68 0.68 0.0 0 0 506.04 1214.00
  Q 505.87 1214.44 506.19 1215.05
  Q 537.05 1274.45 545.41 1290.60
  Q 545.41 1290.61 548.08 1295.30
  A 0.83 0.82 70.8 0 0 548.91 1295.71
  L 553.47 1295.03
  Q 554.70 1297.35 555.92 1299.81
  Q 565.34 1318.71 573.10 1333.39
  C 573.98 1335.06 575.31 1335.72 577.29 1335.66
  Q 592.75 1335.18 620.50 1337.46
  Q 666.23 1341.23 708.81 1352.35
  Q 709.10 1352.43 711.53 1353.29
  Q 712.77 1353.72 714.31 1354.04
  Q 710.41 1359.42 705.53 1363.75
  A 1.06 1.05 -56.0 0 1 704.47 1363.96
  Q 660.58 1348.18 616.21 1341.89
  C 610.66 1341.10 607.23 1340.42 603.65 1340.05
  Q 580.65 1337.63 574.72 1337.21
  Q 555.23 1335.82 534.08 1335.41
  A 1.68 1.67 -12.5 0 1 532.61 1334.48
  C 510.60 1290.57 481.10 1233.50 465.55 1202.73
  Q 464.75 1201.14 462.51 1200.49
  Q 450.39 1196.95 449.54 1196.71
  Q 444.70 1195.37 438.83 1190.71
  A 3.52 3.51 -22.5 0 0 437.01 1189.96
  L 430.23 1189.26
  A 6.31 6.30 65.6 0 1 427.21 1188.12
  L 419.69 1182.79
  A 2.82 2.76 -24.5 0 0 418.28 1182.28
  L 337.73 1176.01
  A 0.87 0.87 0.0 0 1 336.95 1174.93
  L 343.63 1147.80
  A 1.29 1.29 0.0 0 1 344.88 1146.82
  L 378.77 1146.82
  A 1.49 1.48 -82.6 0 0 380.20 1145.71
  Q 384.47 1129.05 388.62 1107.43
  C 392.07 1089.46 394.56 1070.41 392.89 1051.95
  Q 392.71 1050.03 391.04 1048.77
  Q 372.44 1034.78 349.22 1032.58
  C 345.41 1032.22 340.30 1032.56 336.15 1032.38
  A 1.07 1.05 81.3 0 1 335.20 1031.67
  Q 326.63 1007.52 321.99 991.51
  Q 321.39 989.42 319.52 989.43
  Q 312.28 989.46 286.24 989.53
  A 1.40 1.39 -7.8 0 1 284.88 988.50
  L 273.69 947.38
  A 0.45 0.45 0.0 0 1 274.12 946.81
  L 289.47 946.81
  A 0.51 0.50 -11.0 0 0 289.94 946.12
  Q 289.43 944.87 289.29 944.25
  Q 280.50 906.58 276.54 867.50
  C 274.15 843.87 273.59 817.34 275.21 791.73
  A 0.81 0.80 -1.7 0 1 275.92 790.98
  Q 291.51 789.02 304.60 779.82
  C 319.73 769.18 329.22 751.13 334.63 734.15
  Q 341.78 711.73 344.37 686.21
  Q 347.83 652.24 347.34 616.39
  A 1.08 1.08 0.0 0 0 346.26 615.33
  L 331.77 615.33
  A 0.43 0.42 89.3 0 1 331.35 614.91
  C 330.86 592.05 331.29 571.17 334.41 548.42
  Q 346.02 463.60 402.47 399.41
  A 0.30 0.29 -69.3 0 0 402.25 398.92
  L 372.07 398.92
  A 0.61 0.61 0.0 0 1 371.62 397.90
  Q 388.86 379.09 408.49 362.49
  C 411.32 360.09 415.38 356.63 419.44 356.47
  Q 436.91 355.80 456.37 356.78
  Z"
/>
<path fill="#01bada" d="
  M 943.57 356.59
  Q 931.12 372.04 918.97 386.49
  Q 918.04 387.60 918.70 391.06
  Q 919.66 396.04 920.18 398.26
  A 0.80 0.80 0.0 0 0 920.96 398.89
  L 951.54 398.89
  A 0.71 0.70 -4.8 0 1 952.24 399.47
  L 962.85 456.85
  A 2.92 2.92 0.0 0 1 962.41 459.01
  L 914.24 531.56
  L 859.38 596.01
  A 0.23 0.23 0.0 0 1 858.97 595.81
  Q 866.46 561.31 872.48 534.52
  Q 873.06 531.92 875.42 528.43
  Q 892.51 503.10 920.84 460.35
  Q 922.23 458.25 921.88 456.39
  Q 917.64 434.07 911.47 399.66
  A 0.93 0.92 -5.2 0 0 910.56 398.91
  L 880.00 398.91
  A 0.83 0.83 0.0 0 1 879.19 398.27
  Q 878.18 394.12 877.53 389.76
  Q 877.18 387.44 878.92 385.42
  Q 882.89 380.84 902.33 357.27
  A 2.57 2.57 0.0 0 1 904.33 356.34
  L 943.57 356.59
  Z"
/>
<path fill="#01bada" d="
  M 978.49 392.86
  Q 974.47 394.36 971.70 398.69
  L 967.63 398.79
  A 0.63 0.63 0.0 0 1 967.00 398.28
  L 966.08 393.31
  A 2.91 2.91 0.0 0 1 966.71 390.91
  L 994.59 357.48
  A 3.14 3.11 -70.0 0 1 996.99 356.35
  L 1023.63 356.35
  A 0.09 0.09 0.0 0 1 1023.67 356.53
  Q 1009.84 363.35 988.25 373.92
  Q 986.18 374.94 984.82 378.34
  Q 981.70 386.16 978.49 392.86
  Z"
/>
<path fill="#01bada" d="
  M 799.71 1134.27
  Q 799.51 1133.75 798.88 1133.83
  A 0.57 0.53 -65.5 0 0 798.64 1133.93
  Q 797.95 1134.42 797.12 1134.59
  Q 791.05 1135.87 782.48 1137.42
  A 1.24 1.24 0.0 0 0 781.47 1138.71
  Q 781.68 1142.48 780.45 1146.77
  L 762.66 1146.95
  L 759.03 1147.26
  A 1.08 1.08 0.0 0 1 757.87 1146.08
  C 759.70 1127.15 759.80 1113.30 759.74 1094.26
  Q 759.72 1085.99 761.74 1078.73
  Q 763.94 1070.82 771.83 1069.09
  Q 825.77 1057.26 872.92 1040.68
  Q 930.56 1020.40 982.18 990.27
  A 0.40 0.40 0.0 0 0 981.98 989.52
  Q 963.46 989.31 950.51 989.53
  Q 949.54 989.55 948.87 989.17
  A 0.54 0.53 47.0 0 1 948.90 988.22
  Q 953.20 986.20 958.04 983.04
  Q 978.48 969.74 985.78 964.27
  Q 995.36 957.11 1004.81 949.80
  Q 1008.50 946.94 1011.46 946.89
  Q 1016.84 946.78 1022.24 946.80
  Q 1024.45 946.80 1026.82 944.82
  Q 1104.34 879.99 1146.61 787.11
  C 1171.09 733.32 1187.03 675.35 1190.09 616.20
  A 0.78 0.78 0.0 0 0 1189.31 615.38
  L 1174.73 615.38
  A 0.58 0.58 0.0 0 1 1174.15 614.77
  C 1176.31 562.33 1168.60 510.29 1148.58 461.93
  Q 1134.93 428.95 1112.45 400.08
  A 2.82 2.80 71.3 0 0 1110.28 399.00
  L 1092.99 398.85
  L 1079.76 398.95
  L 1071.75 390.13
  L 1071.60 389.66
  A 1.36 1.32 13.8 0 0 1071.28 389.15
  L 1057.46 375.57
  L 1081.78 364.54
  A 1.91 1.90 44.4 0 1 1083.35 364.53
  Q 1085.32 365.41 1088.17 367.64
  Q 1105.53 381.21 1119.36 397.72
  A 3.14 3.13 70.0 0 0 1121.76 398.84
  L 1150.66 398.84
  A 3.51 3.50 -19.1 0 1 1153.41 400.17
  C 1193.04 450.59 1212.39 515.78 1214.98 579.26
  Q 1215.73 597.36 1215.25 614.68
  A 0.61 0.60 -89.5 0 0 1215.85 615.30
  L 1230.38 615.30
  A 0.53 0.53 0.0 0 1 1230.91 615.85
  Q 1229.11 653.59 1220.69 689.74
  Q 1209.80 736.46 1190.10 781.35
  Q 1148.55 876.06 1069.99 942.96
  C 1066.29 946.11 1064.80 946.99 1060.09 946.95
  C 1056.87 946.91 1050.11 946.33 1047.02 948.77
  Q 1015.76 973.49 989.44 988.74
  A 0.35 0.35 0.0 0 0 989.62 989.40
  L 1023.12 989.40
  A 0.46 0.46 0.0 0 1 1023.34 990.27
  Q 1013.54 995.60 1007.54 999.01
  Q 981.52 1013.77 947.97 1027.53
  Q 882.95 1054.19 812.41 1069.11
  C 800.90 1071.55 800.46 1086.92 800.66 1096.25
  Q 801.09 1115.30 799.71 1134.27
  Z"
/>
<path fill="#ce6da9" d="
  M 1057.46 375.57
  L 1071.28 389.15
  A 1.36 1.32 13.8 0 1 1071.60 389.66
  L 1071.75 390.13
  Q 1068.14 392.30 1064.49 393.62
  C 1062.17 394.45 1061.59 395.53 1061.04 397.64
  A 0.94 0.94 0.0 0 0 1061.94 398.81
  L 1079.76 398.95
  L 1092.99 398.85
  Q 1085.99 440.24 1083.35 454.55
  Q 1083.01 456.38 1080.84 458.09
  Q 1060.86 473.82 1034.88 493.88
  Q 1033.76 494.75 1032.38 496.37
  Q 961.52 579.61 949.25 594.48
  Q 948.06 595.92 947.56 596.30
  A 0.38 0.38 0.0 0 1 946.96 595.92
  Q 953.47 567.47 960.41 535.70
  Q 961.27 531.76 964.03 527.79
  Q 974.34 512.98 984.14 497.45
  Q 988.64 492.86 994.13 488.63
  Q 1014.54 472.90 1034.08 457.65
  A 4.83 4.82 76.0 0 0 1035.85 454.69
  L 1045.57 399.70
  A 0.72 0.72 0.0 0 0 1044.86 398.85
  L 1023.79 398.81
  Q 1025.48 393.27 1028.49 388.50
  L 1057.46 375.57
  Z
  M 1048.63 414.56
  Q 1049.20 413.42 1055.23 399.30
  A 0.27 0.27 0.0 0 0 1054.98 398.92
  L 1047.14 398.92
  A 1.34 1.33 84.8 0 0 1045.83 400.50
  L 1048.42 414.53
  A 0.11 0.11 0.0 0 0 1048.63 414.56
  Z"
/>
<path fill="#ce6da9" d="
  M 978.49 392.86
  L 976.20 398.00
  A 1.03 0.99 -83.6 0 1 975.51 398.57
  Q 973.84 398.96 971.70 398.69
  Q 974.47 394.36 978.49 392.86
  Z"
/>
<path fill="#01bada" d="
  M 1004.43 399.04
  L 1004.36 402.65
  A 2.60 2.53 57.5 0 1 1004.17 403.57
  Q 1003.00 406.37 1004.42 407.08
  L 1001.30 415.14
  A 0.27 0.26 52.4 0 1 1000.79 415.07
  L 998.95 399.68
  A 0.67 0.66 -2.6 0 1 999.63 398.94
  L 1004.43 399.04
  Z"
/>
<path fill="#ce6da9" d="
  M 1004.42 407.08
  Q 1003.00 406.37 1004.17 403.57
  A 2.60 2.53 57.5 0 0 1004.36 402.65
  L 1004.43 399.04
  Q 1006.00 398.77 1007.30 398.97
  A 0.61 0.61 0.0 0 1 1007.76 399.82
  L 1004.42 407.08
  Z"
/>
<path fill="#201c1a" d="
  M 472.19 707.67
  L 492.31 720.26
  L 582.12 776.05
  A 0.99 0.98 -75.2 0 1 582.60 776.88
  Q 582.94 792.98 578.74 807.47
  C 574.36 822.57 565.95 834.99 551.75 841.53
  Q 548.72 842.93 545.78 844.11
  Q 537.69 846.03 535.52 846.31
  Q 519.61 848.33 501.66 844.88
  Q 488.09 842.29 474.89 837.85
  A 3.11 3.05 -16.2 0 1 473.96 837.35
  Q 463.17 828.95 455.93 819.59
  C 443.62 803.72 437.75 783.26 438.33 763.25
  Q 438.80 747.11 442.32 731.31
  Q 443.00 728.28 445.76 717.41
  L 452.49 696.55
  A 0.68 0.68 0.0 0 1 453.50 696.17
  L 472.19 707.67
  Z"
/>
<path fill="#ce6da9" d="
  M 545.78 844.11
  Q 548.72 842.93 551.75 841.53
  C 565.95 834.99 574.36 822.57 578.74 807.47
  Q 582.94 792.98 582.60 776.88
  A 0.99 0.98 -75.2 0 0 582.12 776.05
  L 492.31 720.26
  L 499.91 696.45
  A 0.57 0.57 0.0 0 1 500.75 696.14
  L 629.28 775.84
  A 2.14 2.14 0.0 0 1 630.28 777.65
  Q 630.22 792.79 626.02 808.02
  C 620.44 828.29 605.91 842.51 585.45 845.79
  Q 568.20 848.55 550.72 844.87
  Q 548.20 844.34 545.78 844.11
  Z"
/>
<path fill="#01bada" d="
  M 425.71 705.05
  L 429.97 706.71
  Q 435.92 711.44 442.82 714.91
  Q 443.69 715.35 445.76 717.41
  Q 443.00 728.28 442.32 731.31
  Q 438.80 747.11 438.33 763.25
  C 437.75 783.26 443.62 803.72 455.93 819.59
  Q 463.17 828.95 473.96 837.35
  A 3.11 3.05 -16.2 0 0 474.89 837.85
  Q 488.09 842.29 501.66 844.88
  Q 489.59 847.80 477.50 846.97
  Q 458.81 845.70 439.61 839.68
  C 436.77 838.80 432.63 837.73 430.72 835.79
  Q 427.87 832.89 425.46 831.44
  C 423.96 829.80 422.80 828.05 421.36 826.64
  Q 410.35 815.81 404.20 800.60
  Q 410.10 787.83 412.60 780.61
  Q 415.42 772.45 418.56 757.48
  Q 423.86 732.28 425.40 706.56
  Q 425.45 705.86 425.71 705.05
  Z"
/>
<path fill="#01bada" d="
  M 752.43 760.05
  Q 733.21 774.93 711.14 784.49
  A 0.86 0.85 82.4 0 0 710.62 785.18
  C 707.55 811.84 707.85 839.07 716.49 863.77
  C 726.14 891.36 746.54 911.43 773.66 921.87
  Q 788.22 927.48 793.26 928.26
  Q 801.65 929.57 810.08 931.61
  C 806.14 932.05 802.03 932.65 798.29 932.65
  C 789.52 932.66 778.71 932.96 769.04 931.49
  C 739.48 927.01 709.79 915.87 690.75 891.55
  C 674.19 870.42 668.01 842.86 668.02 815.75
  Q 668.03 802.49 669.49 786.33
  A 2.55 2.55 0.0 0 1 670.97 784.25
  Q 696.62 772.67 717.81 755.24
  A 2.81 2.80 -60.3 0 1 720.02 754.63
  Q 729.46 756.02 749.39 758.80
  Q 749.41 758.80 751.08 758.83
  Q 752.37 758.84 752.43 760.05
  Z"
/>
<path fill="#201c1a" d="
  M 800.28 759.92
  C 806.99 760.67 814.64 761.88 820.30 762.41
  Q 825.43 762.89 830.43 763.72
  Q 830.51 763.73 833.30 764.05
  Q 834.48 764.18 876.21 768.87
  Q 878.12 769.09 880.27 769.35
  Q 912.34 773.25 945.21 777.79
  C 947.98 778.17 951.07 778.94 954.24 778.98
  A 1.21 1.20 88.7 0 1 955.42 780.11
  Q 956.61 799.70 955.05 819.79
  C 953.15 844.33 946.67 869.42 932.77 889.04
  Q 915.87 912.89 888.08 923.33
  Q 876.34 927.73 861.10 930.94
  Q 859.12 931.26 856.87 931.37
  Q 854.06 931.50 852.60 931.65
  Q 831.17 933.84 810.08 931.61
  Q 801.65 929.57 793.26 928.26
  Q 788.22 927.48 773.66 921.87
  C 746.54 911.43 726.14 891.36 716.49 863.77
  C 707.85 839.07 707.55 811.84 710.62 785.18
  A 0.86 0.85 82.4 0 1 711.14 784.49
  Q 733.21 774.93 752.43 760.05
  L 759.19 754.92
  A 1.24 1.20 29.0 0 1 760.08 754.68
  L 800.28 759.92
  Z"
/>
<path fill="#ce6da9" d="
  M 861.10 930.94
  Q 876.34 927.73 888.08 923.33
  Q 915.87 912.89 932.77 889.04
  C 946.67 869.42 953.15 844.33 955.05 819.79
  Q 956.61 799.70 955.42 780.11
  A 1.21 1.20 88.7 0 0 954.24 778.98
  C 951.07 778.94 947.98 778.17 945.21 777.79
  Q 912.34 773.25 880.27 769.35
  Q 878.12 769.09 876.21 768.87
  Q 834.48 764.18 833.30 764.05
  Q 830.51 763.73 830.43 763.72
  Q 825.43 762.89 820.30 762.41
  C 814.64 761.88 806.99 760.67 800.28 759.92
  L 805.92 755.42
  A 3.22 3.19 -60.1 0 1 808.36 754.75
  Q 838.39 758.90 856.02 760.93
  Q 886.93 764.51 946.32 771.65
  Q 975.46 775.15 1002.51 779.31
  A 0.55 0.55 0.0 0 1 1002.97 779.83
  Q 1004.14 802.80 1002.13 823.98
  C 1001.12 834.65 998.61 846.01 995.84 856.15
  Q 993.64 864.23 988.52 874.81
  C 973.37 906.13 946.73 923.30 912.97 929.68
  Q 889.85 934.04 865.98 932.10
  Q 863.99 931.93 861.10 930.94
  Z"
/>
<path fill="#ce6da9" d="
  M 425.46 831.44
  Q 417.89 836.03 410.00 839.01
  A 1.16 1.14 78.7 0 0 409.26 840.13
  Q 410.07 861.34 412.24 883.67
  C 413.06 892.11 414.78 903.06 416.15 909.87
  Q 419.96 928.76 427.17 946.14
  A 0.62 0.61 78.7 0 1 426.61 946.99
  L 412.75 946.99
  A 0.72 0.72 0.0 0 0 412.09 948.01
  Q 416.11 956.83 421.89 964.62
  Q 424.31 967.89 425.73 968.40
  C 440.62 973.69 454.14 979.41 467.55 987.90
  A 6.87 6.63 66.1 0 0 469.78 988.81
  Q 474.92 989.88 479.99 989.34
  L 505.47 989.38
  C 508.11 991.26 510.56 992.17 512.57 995.05
  L 498.93 1021.84
  A 1.37 1.34 20.6 0 0 499.82 1023.75
  Q 500.23 1023.86 501.12 1023.79
  Q 516.31 1022.68 531.07 1025.14
  Q 531.83 1033.33 530.65 1040.67
  Q 527.15 1062.62 521.90 1084.58
  L 497.37 1147.03
  L 486.65 1146.94
  A 1.69 1.69 0.0 0 0 486.05 1147.05
  L 485.44 1147.28
  Q 485.46 1146.88 485.02 1146.86
  Q 483.47 1146.78 480.73 1146.80
  Q 488.03 1128.03 495.44 1109.66
  C 498.87 1101.17 502.57 1091.16 506.07 1081.81
  Q 506.93 1079.52 507.26 1077.84
  A 1.97 1.97 0.0 0 0 505.98 1075.59
  Q 499.61 1073.36 491.30 1069.65
  Q 489.46 1068.83 487.89 1069.55
  Q 486.66 1070.11 486.10 1072.22
  Q 484.32 1078.83 480.57 1085.06
  Q 482.19 1068.83 481.49 1053.13
  Q 482.58 1043.59 483.34 1038.63
  C 486.43 1018.71 477.22 1003.67 461.96 992.05
  C 459.10 989.87 458.07 989.39 454.46 989.37
  Q 445.31 989.33 424.61 989.37
  A 7.02 6.99 60.7 0 1 420.94 988.33
  Q 402.17 976.69 380.18 969.12
  Q 376.65 967.91 374.23 964.52
  Q 368.40 956.36 364.36 947.25
  A 0.22 0.21 -12.2 0 1 364.56 946.95
  L 379.39 946.95
  A 0.48 0.48 0.0 0 0 379.84 946.30
  L 374.99 933.30
  Q 372.93 922.10 370.87 911.05
  Q 368.94 900.73 367.87 892.96
  Q 366.00 879.29 365.55 874.75
  Q 364.17 860.91 363.07 841.35
  A 2.28 2.24 60.6 0 1 363.44 839.98
  Q 364.09 838.97 363.27 838.96
  Q 366.86 837.34 370.41 835.60
  Q 381.65 830.10 390.10 820.85
  Q 398.12 812.07 404.20 800.60
  Q 410.35 815.81 421.36 826.64
  C 422.80 828.05 423.96 829.80 425.46 831.44
  Z"
/>
<path fill="#01bada" d="
  M 545.67 953.91
  Q 531.77 970.41 521.30 988.63
  A 0.51 0.51 0.0 0 0 521.74 989.39
  L 556.04 989.39
  A 0.44 0.43 -74.6 0 1 556.41 990.05
  Q 547.02 1005.68 539.30 1022.89
  A 0.73 0.73 0.0 0 0 540.03 1023.92
  Q 573.64 1021.05 603.82 1035.60
  Q 605.91 1049.11 606.36 1062.30
  A 0.36 0.36 0.0 0 1 605.78 1062.59
  C 587.75 1047.91 567.28 1035.63 545.07 1028.68
  Q 539.93 1027.07 531.07 1025.14
  Q 516.31 1022.68 501.12 1023.79
  Q 500.23 1023.86 499.82 1023.75
  A 1.37 1.34 20.6 0 1 498.93 1021.84
  L 512.57 995.05
  L 515.40 990.31
  A 0.62 0.62 0.0 0 0 514.87 989.38
  L 505.47 989.38
  L 479.99 989.34
  Q 491.38 969.58 505.89 953.13
  Q 511.69 946.55 516.18 943.20
  Q 519.37 940.82 524.86 938.35
  C 529.71 936.17 534.25 937.92 538.10 941.52
  Q 543.82 946.88 545.67 953.91
  Z"
/>
<path fill="#201c1a" d="
  M 589.70 958.60
  Q 594.46 970.41 595.37 973.65
  Q 597.80 982.23 599.79 988.88
  A 0.69 0.68 -7.8 0 0 600.45 989.37
  L 635.05 989.37
  A 1.14 1.13 83.2 0 1 636.15 990.24
  Q 641.20 1011.49 644.33 1032.73
  L 647.36 1062.39
  A 0.38 0.38 0.0 0 1 646.74 1062.72
  C 633.85 1052.12 619.19 1042.39 603.82 1035.60
  Q 573.64 1021.05 540.03 1023.92
  A 0.73 0.73 0.0 0 1 539.30 1022.89
  Q 547.02 1005.68 556.41 990.05
  A 0.44 0.43 -74.6 0 0 556.04 989.39
  L 521.74 989.39
  A 0.51 0.51 0.0 0 1 521.30 988.63
  Q 531.77 970.41 545.67 953.91
  Q 550.51 948.50 555.99 944.00
  Q 558.98 941.54 563.69 939.23
  C 577.66 932.39 585.07 948.94 589.70 958.60
  Z"
/>
<path fill="#ce6da9" d="
  M 644.33 1032.73
  Q 641.20 1011.49 636.15 990.24
  A 1.14 1.13 83.2 0 0 635.05 989.37
  L 600.45 989.37
  A 0.69 0.68 -7.8 0 1 599.79 988.88
  Q 597.80 982.23 595.37 973.65
  Q 594.46 970.41 589.70 958.60
  Q 590.63 956.81 593.27 953.77
  C 599.03 947.14 614.83 931.44 624.66 940.09
  Q 630.53 945.26 634.25 952.80
  Q 642.30 969.13 647.06 988.76
  A 0.70 0.70 0.0 0 0 647.74 989.29
  L 682.67 989.29
  A 0.74 0.74 0.0 0 1 683.39 989.85
  Q 692.30 1025.27 694.68 1062.07
  A 0.54 0.54 0.0 0 1 693.79 1062.52
  Q 674.32 1046.29 651.37 1035.63
  Q 648.10 1034.12 644.33 1032.73
  Z"
/>
<path fill="#201c1a" d="
  M 521.53 1147.04
  L 508.84 1147.10
  L 497.37 1147.03
  L 521.90 1084.58
  L 528.06 1069.07
  A 0.66 0.66 0.0 0 1 528.92 1068.69
  L 548.53 1076.36
  A 0.78 0.78 0.0 0 1 548.98 1077.37
  L 521.53 1147.04
  Z"
/>
<path fill="#ce6da9" d="
  M 579.74 1119.49
  Q 578.27 1118.94 577.97 1120.22
  Q 576.71 1125.74 574.36 1133.99
  Q 571.04 1140.10 569.38 1146.52
  A 0.79 0.78 -81.9 0 1 568.61 1147.11
  L 553.40 1146.97
  L 557.31 1131.38
  A 1.86 1.60 -40.6 0 0 557.35 1131.12
  Q 557.56 1128.37 558.40 1125.94
  A 1.13 1.12 -67.2 0 0 557.84 1124.56
  L 554.54 1122.93
  L 575.26 1069.53
  A 1.18 1.18 0.0 0 1 576.79 1068.86
  L 595.40 1076.13
  A 1.39 1.39 0.0 0 1 596.19 1077.94
  L 579.74 1119.49
  Z"
/>
<path fill="#01bada" d="
  M 480.73 1146.80
  L 461.29 1146.96
  L 459.89 1146.42
  L 465.32 1124.47
  L 479.82 1087.99
  A 4.14 4.07 -30.5 0 0 480.08 1087.02
  Q 480.28 1085.69 480.57 1085.06
  Q 484.32 1078.83 486.10 1072.22
  Q 486.66 1070.11 487.89 1069.55
  Q 489.46 1068.83 491.30 1069.65
  Q 499.61 1073.36 505.98 1075.59
  A 1.97 1.97 0.0 0 1 507.26 1077.84
  Q 506.93 1079.52 506.07 1081.81
  C 502.57 1091.16 498.87 1101.17 495.44 1109.66
  Q 488.03 1128.03 480.73 1146.80
  Z"
/>
<path fill="#01bada" d="
  M 694.76 1297.33
  Q 699.04 1296.65 700.75 1293.04
  Q 702.69 1293.11 704.97 1291.74
  C 737.49 1272.13 774.84 1263.32 811.75 1257.14
  Q 826.83 1254.62 843.50 1252.99
  Q 846.35 1252.71 847.35 1252.42
  A 1.88 1.87 89.8 0 0 848.64 1251.11
  L 865.73 1190.01
  A 0.36 0.35 7.9 0 0 865.38 1189.56
  L 859.01 1189.56
  A 0.92 0.92 0.0 0 1 858.13 1188.39
  L 869.47 1147.52
  A 0.97 0.97 0.0 0 1 870.40 1146.82
  L 905.05 1146.82
  A 1.06 1.05 -82.5 0 0 906.07 1146.03
  L 910.76 1128.69
  Q 912.26 1121.95 915.17 1115.51
  L 958.72 1101.32
  A 0.26 0.26 0.0 0 1 959.06 1101.64
  L 946.71 1146.10
  A 1.08 1.08 0.0 0 1 945.67 1146.89
  L 911.49 1146.89
  A 1.33 1.33 0.0 0 0 910.21 1147.86
  L 898.96 1188.39
  A 0.93 0.93 0.0 0 0 899.86 1189.57
  L 905.89 1189.57
  A 0.60 0.59 -82.5 0 1 906.46 1190.32
  L 889.26 1252.27
  A 0.58 0.57 -84.6 0 1 888.77 1252.68
  Q 860.99 1255.06 833.75 1260.52
  Q 808.33 1265.61 785.77 1273.24
  Q 753.67 1284.10 729.33 1303.15
  A 3.69 3.65 -57.9 0 1 726.34 1303.85
  L 694.76 1297.33
  Z"
/>
<path fill="#ce6da9" d="
  M 915.17 1115.51
  Q 912.26 1121.95 910.76 1128.69
  Q 906.92 1129.88 903.68 1130.63
  Q 886.32 1134.65 870.76 1137.46
  A 1.29 1.28 -3.2 0 0 869.71 1138.63
  L 869.17 1145.48
  A 1.68 1.67 -87.8 0 1 867.50 1147.03
  L 846.72 1147.03
  A 0.62 0.62 0.0 0 1 846.10 1146.36
  L 847.38 1132.60
  Q 878.36 1125.76 891.51 1122.01
  Q 903.33 1118.63 915.17 1115.51
  Z"
/>
<path fill="#01bada" d="
  M 554.54 1122.93
  L 557.84 1124.56
  A 1.13 1.12 -67.2 0 1 558.40 1125.94
  Q 557.56 1128.37 557.35 1131.12
  A 1.86 1.60 -40.6 0 1 557.31 1131.38
  L 553.40 1146.97
  L 545.56 1178.41
  Q 543.72 1184.20 543.83 1189.38
  Q 537.89 1189.74 534.50 1189.00
  Q 530.18 1188.05 521.67 1185.08
  Q 522.09 1178.97 522.74 1176.75
  Q 525.83 1166.34 528.06 1155.71
  Q 528.36 1154.30 529.30 1151.47
  Q 529.99 1149.42 530.35 1147.17
  L 537.12 1120.16
  A 1.06 1.05 -75.6 0 1 538.41 1119.39
  Q 545.89 1121.36 553.77 1123.34
  Q 554.25 1123.46 554.54 1122.93
  Z"
/>
<path fill="#ce6da9" d="
  M 641.38 1148.32
  L 634.44 1147.02
  A 0.80 0.80 0.0 0 0 633.50 1147.66
  L 625.61 1188.78
  A 0.58 0.58 0.0 0 0 626.18 1189.47
  L 632.66 1189.47
  A 0.70 0.70 0.0 0 1 633.35 1190.30
  L 630.00 1207.73
  A 1.09 1.08 -80.1 0 1 628.77 1208.60
  L 612.28 1205.97
  Q 611.99 1203.35 613.24 1200.47
  A 5.05 5.02 -33.2 0 0 613.65 1198.53
  Q 613.67 1195.56 614.69 1192.71
  Q 615.62 1190.09 612.87 1189.80
  Q 610.84 1189.59 608.80 1189.38
  Q 608.44 1189.35 608.31 1188.87
  A 0.74 0.65 48.6 0 1 608.31 1188.54
  L 625.24 1119.76
  A 0.61 0.61 0.0 0 1 625.97 1119.32
  L 646.84 1124.46
  A 0.61 0.60 14.6 0 1 647.28 1125.20
  L 641.38 1148.32
  Z"
/>
<path fill="#ce6da9" d="
  M 459.89 1146.42
  L 461.29 1146.96
  L 456.73 1158.93
  A 0.86 0.86 0.0 0 1 455.86 1159.48
  L 440.16 1158.29
  Q 443.26 1152.55 443.85 1147.04
  Q 455.87 1147.15 459.00 1147.05
  Q 459.48 1147.03 459.89 1146.42
  Z"
/>
<path fill="#ce6da9" d="
  M 521.53 1147.04
  L 530.35 1147.17
  Q 529.99 1149.42 529.30 1151.47
  Q 528.36 1154.30 528.06 1155.71
  Q 525.83 1166.34 522.74 1176.75
  Q 522.09 1178.97 521.67 1185.08
  L 489.26 1175.25
  A 6.93 6.91 70.9 0 1 487.31 1174.30
  L 478.06 1167.74
  A 0.76 0.76 0.0 0 1 477.79 1166.85
  L 481.21 1158.00
  L 502.97 1159.47
  A 1.28 1.25 12.7 0 0 504.23 1158.69
  L 508.84 1147.10
  L 521.53 1147.04
  Z"
/>
<path fill="#ce6da9" d="
  M 701.95 1230.92
  L 669.21 1230.18
  Q 669.63 1229.82 670.25 1229.86
  Q 670.37 1229.87 670.49 1229.78
  A 0.03 0.03 0.0 0 0 670.47 1229.73
  L 653.05 1227.64
  L 650.63 1221.19
  A 2.84 2.80 40.4 0 1 650.50 1219.70
  L 653.24 1205.12
  L 676.36 1208.60
  A 0.91 0.91 0.0 0 0 677.39 1207.88
  L 680.76 1190.32
  A 0.51 0.51 0.0 0 0 680.26 1189.72
  L 673.86 1189.72
  A 0.85 0.85 0.0 0 1 673.02 1188.71
  L 680.94 1147.41
  A 0.55 0.54 -78.4 0 1 681.58 1146.98
  L 702.43 1150.97
  A 0.67 0.66 -79.0 0 1 702.95 1151.75
  L 695.86 1188.70
  A 0.77 0.76 -84.7 0 0 696.61 1189.61
  L 703.04 1189.61
  A 0.50 0.50 0.0 0 1 703.53 1190.20
  L 697.76 1220.26
  A 2.46 2.41 -51.8 0 0 697.92 1221.72
  L 701.95 1230.92
  Z"
/>
<path fill="#01bada" d="
  M 742.62 1231.66
  L 720.30 1231.26
  L 725.20 1190.37
  A 0.70 0.70 0.0 0 0 724.51 1189.58
  L 718.12 1189.58
  A 0.66 0.66 0.0 0 1 717.46 1188.85
  L 721.78 1147.32
  A 0.59 0.59 0.0 0 1 722.37 1146.80
  L 744.12 1146.80
  A 0.57 0.57 0.0 0 1 744.69 1147.44
  L 739.79 1188.81
  A 0.72 0.71 3.5 0 0 740.50 1189.61
  L 746.91 1189.61
  A 0.79 0.78 3.5 0 1 747.69 1190.49
  L 742.62 1231.66
  Z"
/>
<path fill="#ce6da9" d="
  M 781.21 1253.94
  Q 780.85 1253.28 780.89 1253.00
  Q 782.14 1242.72 783.43 1231.98
  L 807.90 1232.15
  A 0.62 0.61 -85.8 0 0 808.52 1231.61
  L 813.45 1190.03
  A 0.34 0.34 0.0 0 0 813.11 1189.65
  L 806.23 1189.65
  A 0.76 0.75 -86.9 0 1 805.48 1188.81
  L 809.94 1147.10
  L 821.50 1147.11
  L 832.30 1146.88
  A 0.59 0.58 -87.4 0 1 832.89 1147.53
  L 827.94 1189.24
  A 0.22 0.22 0.0 0 0 828.16 1189.49
  L 835.05 1189.49
  A 0.76 0.76 0.0 0 1 835.80 1190.34
  L 828.42 1252.60
  A 1.37 1.37 0.0 0 1 827.20 1253.80
  Q 817.56 1254.75 808.24 1254.40
  Q 794.73 1253.90 781.21 1253.94
  Z"
/>
<path fill="#01bada" d="
  M 443.85 1147.04
  Q 443.26 1152.55 440.16 1158.29
  L 422.07 1157.06
  A 1.05 1.05 0.0 0 1 421.13 1155.73
  L 423.25 1148.11
  A 1.56 1.55 7.5 0 1 424.75 1146.97
  L 443.85 1147.04
  Z"
/>
<path fill="#01bada" d="
  M 594.25 1147.36
  L 613.41 1150.72
  A 1.41 1.40 10.5 0 1 614.55 1152.37
  L 607.42 1189.53
  A 0.58 0.58 0.0 0 0 608.27 1190.15
  Q 608.88 1189.82 608.80 1189.38
  Q 610.84 1189.59 612.87 1189.80
  Q 615.62 1190.09 614.69 1192.71
  Q 613.67 1195.56 613.65 1198.53
  A 5.05 5.02 -33.2 0 1 613.24 1200.47
  Q 611.99 1203.35 612.28 1205.97
  L 591.10 1202.72
  L 591.67 1190.64
  L 591.39 1189.88
  A 0.76 0.76 0.0 0 0 590.69 1189.38
  L 585.15 1189.21
  Q 585.72 1183.04 587.50 1177.00
  Q 587.76 1176.10 587.03 1175.96
  L 594.25 1147.36
  Z"
/>
<path fill="#ce6da9" d="
  M 561.97 1183.35
  L 560.70 1188.55
  A 0.82 0.82 0.0 0 0 561.49 1189.57
  L 568.02 1189.57
  A 0.47 0.46 8.0 0 1 568.47 1190.16
  L 566.93 1195.71
  A 0.61 0.60 -73.6 0 1 566.17 1196.13
  L 543.83 1189.38
  Q 543.72 1184.20 545.56 1178.41
  Q 554.03 1180.12 561.97 1183.35
  Z"
/>
<path fill="#ce6da9" d="
  M 591.10 1202.72
  Q 590.01 1202.94 588.94 1202.47
  A 0.60 0.60 0.0 0 1 588.60 1201.76
  L 591.67 1190.64
  L 591.10 1202.72
  Z"
/>
<path fill="#01bada" d="
  M 637.86 1252.59
  L 613.70 1252.31
  Q 606.31 1251.88 599.07 1251.80
  Q 596.89 1251.78 596.19 1249.84
  C 593.95 1243.56 591.96 1239.16 591.45 1235.47
  Q 591.25 1234.02 590.11 1232.72
  Q 589.16 1231.63 586.39 1231.02
  Q 585.66 1230.87 582.23 1230.40
  Q 574.34 1229.33 566.60 1228.02
  L 552.59 1225.77
  L 546.61 1213.96
  A 0.18 0.17 -4.8 0 1 546.82 1213.72
  Q 555.05 1216.18 572.78 1221.67
  Q 580.26 1223.99 586.62 1224.89
  C 597.58 1226.44 605.35 1227.86 615.40 1229.03
  Q 621.72 1229.77 630.06 1231.47
  A 1.03 1.03 0.0 0 1 630.82 1232.14
  L 637.86 1252.59
  Z"
/>
<path fill="#ce6da9" d="
  M 613.70 1252.31
  L 634.05 1291.96
  L 613.74 1292.86
  L 599.29 1292.11
  L 566.60 1228.02
  Q 574.34 1229.33 582.23 1230.40
  Q 585.66 1230.87 586.39 1231.02
  Q 589.16 1231.63 590.11 1232.72
  Q 591.25 1234.02 591.45 1235.47
  C 591.96 1239.16 593.95 1243.56 596.19 1249.84
  Q 596.89 1251.78 599.07 1251.80
  Q 606.31 1251.88 613.70 1252.31
  Z"
/>
<path fill="#01bada" d="
  M 613.74 1292.86
  L 589.65 1295.61
  A 0.88 0.87 51.8 0 1 589.26 1295.56
  Q 588.06 1295.08 587.48 1292.75
  L 599.29 1292.11
  L 613.74 1292.86
  Z"
/>
<path fill="#ce6da9" d="
  M 700.75 1293.04
  Q 699.04 1296.65 694.76 1297.33
  Q 687.14 1296.11 679.44 1295.03
  Q 676.53 1294.62 673.76 1293.61
  A 2.91 2.91 0.0 0 0 672.81 1293.43
  L 667.94 1293.32
  Q 684.21 1291.62 700.75 1293.04
  Z"
/>
</svg>
