<svg id="bottle-of-liquid-courage" xmlns="http://www.w3.org/2000/svg" width="60" height="60" viewBox="0 0 60 60">
  <rect id="Rectangle_3339" data-name="Rectangle 3339" width="60" height="60" fill="none"/>
  <g id="Layer_1-2" transform="translate(6 4)">
    <g id="Group_79" data-name="Group 79" transform="translate(0 0)">
      <path id="Path_2943" data-name="Path 2943" d="M2.955,85.192a8.616,8.616,0,0,1,.586,1.2C4.121,88.517,5.074,90.322,7.386,91a.876.876,0,0,1,.284.194c1.63,1.4,3.585,2.566,4.825,4.256,3.177,4.33,7.982,6.531,11.975,9.78.666.542,1.752,1.065,1.851,1.715a12.409,12.409,0,0,1-.076,4.881c-1.031,3.919-4.27,5.257-7.848,5.9a5.276,5.276,0,0,1-2.345-.447,19.3,19.3,0,0,1-10.391-8.115c-1.3-1.985-1.236-4.2-.544-6.5.973-3.248,3.3-4.807,6.3-5.736.92-.284,1.109-.814.433-1.5-1.346-1.36-2.681-2.836-4.943-2.252-.2.051-.558.016-.648-.115-.954-1.372-2.7-.934-3.9-1.75-.4-.277-.9-.422-1.28-.719-1.478-1.16-1.429-2.79.279-3.576a2.693,2.693,0,0,0,1.6-1.835Zm12.754,24.8a3.078,3.078,0,0,0,3-3.016,3.416,3.416,0,0,0-3.087-3.142,3.849,3.849,0,0,0-3.092,3.221,3.483,3.483,0,0,0,3.179,2.935Z" transform="translate(-0.029 -65.551)" fill="#fff"/>
      <path id="Path_2944" data-name="Path 2944" d="M74.59,96.25c.964.141,2.317.355,3.675.526a2.224,2.224,0,0,0,2.49-1.017c.055-.1.194-.249.235-.233a6.224,6.224,0,0,1,1.92.9c.482.459,1.708.712,1.007,1.837a2.817,2.817,0,0,0,.1,3.126c1.035,1.847,2.08,3.733,1.6,5.967A4.872,4.872,0,0,1,81.1,111.27a1.932,1.932,0,0,1-1.1-.493c-1.715-1.339-3.391-2.727-5.107-4.067-1.621-1.266-3.292-2.467-4.892-3.753a2.133,2.133,0,0,1-.784-1.268c-.32-3.265,1.681-5.416,5.372-5.441Zm6.608,6.806A3.466,3.466,0,0,0,78.1,99.789c-1.284.028-3.265,1.867-3.214,3.131.055,1.393,1.782,3.295,3.311,3.278A3.1,3.1,0,0,0,81.2,103.056Z" transform="translate(-53.241 -73.503)" fill="#fff"/>
      <path id="Path_2945" data-name="Path 2945" d="M110.983,1.841a6.3,6.3,0,0,1,.931-1.413c1.187-.994,3.059-.134,3.479,1.623a7.484,7.484,0,0,1-.848,5.524,13.08,13.08,0,0,0-.938,1.7,2.513,2.513,0,0,0-.113,1.429.67.67,0,0,0,1.243.136c.067-.092.078-.228.154-.307.424-.438.858-.865,1.289-1.3a6.176,6.176,0,0,1,1.192,1.7,4.37,4.37,0,0,1-.154,2.112c-.058.231-.606.337-.929.5a5.256,5.256,0,0,1-.314-.991,10.215,10.215,0,0,1,.071-1.436c-1.008.752-1.51,1.3-1.042,2.347a2.967,2.967,0,0,1-.922,4.074q-2.206,1.75-4.438,3.465a1.9,1.9,0,0,1-.51.194c-.111-.062-.221-.127-.33-.189a15.736,15.736,0,0,1,1.208-2.4,17.519,17.519,0,0,1,1.946-1.957,4.054,4.054,0,0,0,.825-5.213A7.261,7.261,0,0,1,112.1,8.97c-.189-2.066-.777-2.693-2.852-3.048-1.167-.2-2.435-.058-3.4-1.127-.489-.544-1.176-.053-1.353.761-.1.443-.362,1.157-.627,1.192a1.169,1.169,0,0,1-1.33-1.254c0-.648.141-1.662.551-1.877,1.388-.726,2.5-2.5,4.5-1.487.173.088.507-.138.768-.219-.159-.175-.316-.355-.48-.526-.207-.217-.422-.427-.632-.639.311-.171.643-.507.934-.475a3.672,3.672,0,0,1,1.346.556c.512.3.982.671,1.464,1.01Zm.367.542c.512.371.878.652,1.261.913.341.231.7.438,1.047.657a8.384,8.384,0,0,0,.021-1.5,3.244,3.244,0,0,0-.48-.936l-1.849.867Z" transform="translate(-78.906 -0.008)" fill="#fff"/>
      <path id="Path_2946" data-name="Path 2946" d="M97.754,36.141c.212-.7.33-1.084.445-1.471l.323-.03a21.361,21.361,0,0,1,.369,2.453c.041,1.031-.108,2.052.611,2.967.168.214.037.816-.148,1.123A8.948,8.948,0,0,1,97.833,43c-.2-3.341-2.093-5.335-4.842-6.642a2.878,2.878,0,0,0-3.251.205c-.613.5-.593.892.007,1.379a2.812,2.812,0,0,1,.477.768c-.318.173-.627.473-.957.5A1.656,1.656,0,0,1,87.79,36.92c.355-.825.895-1.57,1.335-2.363a3.814,3.814,0,0,0,.217-.724l-1.109.076c-.055-.127-.2-.311-.154-.387.171-.3.36-.742.616-.8a5.159,5.159,0,0,1,3.35-.037c1.074.463,2.276.627,3.345,1.1.51.224.832.858,1.254,1.291.3.311.625.6,1.111,1.061Z" transform="translate(-67.46 -24.942)" fill="#fff"/>
      <path id="Path_2947" data-name="Path 2947" d="M167.532,72.66c1.155-.058,2.31-.1,3.463-.182a14.571,14.571,0,0,0,2.121-.288,2.719,2.719,0,0,1,2.656.964,3.938,3.938,0,0,1,.173,1.21l-1.457-.911-.33.228a4.21,4.21,0,0,0,.576.885c.752.7,1.6,1.3,2.3,2.045.613.655.51,1.337-.219,1.978a12.006,12.006,0,0,0-1.459,1.731,1.9,1.9,0,0,1-2.061.924c-.4-.122-.669-.7-1-1.072.33-.242.629-.625.991-.7,1.123-.231,1.439-.641,1.15-1.738-.516-1.955-3.391-4.274-5.547-4.468-.445-.039-.892-.067-1.337-.1-.009-.171-.021-.339-.03-.51Z" transform="translate(-128.913 -55.508)" fill="#fff"/>
      <path id="Path_2948" data-name="Path 2948" d="M129.2,129.079c0-.959-.039-1.92.025-2.875.018-.272.33-.523.5-.784.189.247.539.491.546.742.065,2.642.194,5.286-.694,7.857-1.111,3.216-5.8,5.835-9.6,3.511-.51-.311-1.13-.443-1.658-.731-.249-.136-.4-.447-.6-.68.281-.136.565-.376.846-.378a1.441,1.441,0,0,1,.793.4c3,2.522,7.574.966,8.955-2.285a28.8,28.8,0,0,0,1.15-4.706l-.272-.069Z" transform="translate(-90.594 -96.506)" fill="#fff"/>
      <path id="Path_2949" data-name="Path 2949" d="M169.62,92.945c-.131-.871-.341-1.642-1.459-1.538-.122.012-.438-.477-.394-.535.346-.468.758-1.252,1.148-1.252a7.177,7.177,0,0,1,2.375.717c.1.039.189.463.106.6-.445.726-.948,1.418-1.429,2.123-.115-.039-.231-.078-.348-.115Z" transform="translate(-129.091 -68.96)" fill="#fff"/>
      <path id="Path_2950" data-name="Path 2950" d="M170.407,101.524c-.307.567-.558,1.028-.809,1.492a8.334,8.334,0,0,1-.3-1.57c0-.3.286-.6.443-.906C169.948,100.842,170.153,101.146,170.407,101.524Z" transform="translate(-130.275 -77.362)" fill="#fff"/>
      <path id="Path_2951" data-name="Path 2951" d="M168.271,114.25a6.506,6.506,0,0,1,.816.975c.028.051-.373.489-.551.473a.97.97,0,0,1-.729-.47c-.067-.2.226-.514.461-.978Z" transform="translate(-129.119 -87.911)" fill="#fff"/>
    </g>
    <path id="Path_2952" data-name="Path 2952" d="M57.311,126.966a3.16,3.16,0,0,1-1.376-3.949c.871-1.6,3.64-1.563,4.36-.639.341.438.293,1.164.125,1.227-.191.071-.394-.784-1.15-1.169a2.174,2.174,0,0,0-3.135,2.3,3.039,3.039,0,0,0,.952,1.31c.143.108.424.29.424.544a.552.552,0,0,1-.2.378Z" transform="translate(-42.839 -93.672)" fill="#fff"/>
    <path id="Path_2953" data-name="Path 2953" d="M102.574,155.84a3.16,3.16,0,0,1,1.376,3.949c-.871,1.6-3.64,1.563-4.36.639-.341-.438-.293-1.164-.124-1.227.191-.071.394.784,1.15,1.169a2.174,2.174,0,0,0,3.135-2.3,3.039,3.039,0,0,0-.952-1.31c-.143-.108-.424-.29-.424-.544a.552.552,0,0,1,.2-.378Z" transform="translate(-76.441 -119.913)" fill="#fff"/>
    <path id="Path_2954" data-name="Path 2954" d="M57.7,126.519l13.743,10.5.267-.447q-6.816-5.2-13.63-10.393Z" transform="translate(-44.404 -97.091)" fill="#fff"/>
  </g>
</svg>
