<svg id="clatrops" xmlns="http://www.w3.org/2000/svg" width="60" height="60" viewBox="0 0 60 60">
  <rect id="Rectangle_3340" data-name="Rectangle 3340" width="60" height="60" fill="none"/>
  <g id="Layer_1-2" transform="translate(7 10)">
    <g id="Group_80" data-name="Group 80" transform="translate(0 0)">
      <path id="Path_2955" data-name="Path 2955" d="M18.416,27.495Q17.41,24.179,16.4,20.86c-.082-.274-.311-.561-.263-.8A15.491,15.491,0,0,1,16.7,18.3c.479.294,1.157.476,1.406.9,1.485,2.559,2.874,5.177,4.287,7.778.489.9.958,1.81,1.441,2.713a1.881,1.881,0,0,0,2.819.934c3.459-1.612,6.96-3.127,10.44-4.7.808-.366,1.748-.835,2.18.229.168.414-.438,1.42-.955,1.786-3.015,2.145-6.108,4.185-9.177,6.258-1.43.965-1.447,1.417-.147,2.573,3.11,2.765,6.234,5.516,9.283,8.342.435.4.493,1.215.722,1.837-.657-.024-1.454.185-1.954-.109q-6.4-3.778-12.691-7.736a2.943,2.943,0,0,0-3.459,0c-3.548,2.05-7.148,4.017-10.765,5.947-.366.2-.982-.086-1.482-.144.175-.537.185-1.263.551-1.584,3.121-2.748,6.3-5.43,9.471-8.12,1.79-1.519,1.872-2.337-.007-3.757a85.442,85.442,0,0,0-7.192-4.91,2.912,2.912,0,0,0-2.457.185c-2.464,1.417-4.8,3.062-7.237,4.53a4.678,4.678,0,0,1-1.79.229,5.148,5.148,0,0,1,.7-1.714c1.9-1.964,3.877-3.863,5.858-5.745.849-.808,1.023-1.5.185-2.474-1.783-2.07-3.524-4.185-5.167-6.371-.38-.506-.3-1.362-.424-2.06a6.116,6.116,0,0,1,1.885.715c1.913,1.618,3.726,3.357,5.6,5.02,1.071.951,1.742.76,2.334-.544,1.2-2.642,2.375-5.3,3.668-7.894.24-.479.992-.7,1.509-1.047a5.045,5.045,0,0,1,.229,1.817c-.914,3.411-2.015,6.775-2.84,10.2a4.194,4.194,0,0,0,.7,2.741,15.728,15.728,0,0,0,2.323,2.72,9.76,9.76,0,0,0,1.389,1.033l.472-.39Z" transform="translate(0.01 -6.164)" fill="#fff"/>
      <path id="Path_2956" data-name="Path 2956" d="M84.808,13.006c-1.061.589-2.149,1.17-3.216,1.793-1.328.773-2.614,1.622-3.966,2.347a6,6,0,0,1-1.636.352,5.164,5.164,0,0,1,.763-1.663c1.636-1.581,3.312-3.131,5.081-4.565a2.363,2.363,0,0,0,.8-3c-.753-2.084-1.526-4.164-2.163-6.286A5.624,5.624,0,0,1,80.626,0c.5.383,1.16.667,1.471,1.167C83.21,2.953,84.219,4.8,85.232,6.645a1.768,1.768,0,0,0,2.789.828c1.94-1.068,3.921-2.067,5.937-2.98.452-.205,1.112.058,1.677.1-.216.476-.3,1.119-.667,1.4-1.725,1.3-3.531,2.494-5.3,3.74-1.348.948-1.376,1.417-.127,2.45,1.666,1.379,3.391,2.693,4.992,4.144A7.683,7.683,0,0,1,95.7,18.313a7.82,7.82,0,0,1-2.1-.493c-2.44-1.348-4.818-2.806-7.23-4.2a11.743,11.743,0,0,0-1.553-.616Z" transform="translate(-49.985 0)" fill="#fff"/>
    </g>
  </g>
</svg>
