<svg id="demon-seeds" xmlns="http://www.w3.org/2000/svg" width="60" height="60" viewBox="0 0 60 60">
  <rect id="Rectangle_3341" data-name="Rectangle 3341" width="60" height="60" fill="none"/>
  <g id="Layer_1-2" transform="translate(5 5)">
    <g id="Group_81" data-name="Group 81" transform="translate(0 0)">
      <path id="Path_2957" data-name="Path 2957" d="M66.064,82.36q-.618-2.036-1.235-4.074c-.05-.168-.191-.345-.162-.492a9.517,9.517,0,0,1,.345-1.082c.294.181.71.292.864.555.912,1.572,1.765,3.179,2.633,4.776.3.553.588,1.111.885,1.666a1.155,1.155,0,0,0,1.731.574c2.124-.99,4.274-1.92,6.41-2.885.5-.225,1.074-.513,1.338.141.1.254-.269.872-.586,1.1-1.851,1.317-3.75,2.57-5.635,3.843-.878.593-.889.87-.09,1.58,1.91,1.7,3.828,3.387,5.7,5.122.267.248.3.746.443,1.128-.4-.015-.893.113-1.2-.067q-3.93-2.32-7.793-4.751a1.807,1.807,0,0,0-2.124,0c-2.179,1.259-4.389,2.467-6.61,3.652-.225.12-.6-.053-.91-.088.107-.33.113-.775.338-.973,1.916-1.687,3.868-3.334,5.816-4.986,1.1-.933,1.149-1.435,0-2.307A52.466,52.466,0,0,0,61.8,81.773a1.788,1.788,0,0,0-1.509.113c-1.513.87-2.948,1.88-4.444,2.782a2.872,2.872,0,0,1-1.1.141,3.161,3.161,0,0,1,.431-1.053c1.168-1.206,2.381-2.372,3.6-3.528.521-.5.628-.922.113-1.519-1.095-1.271-2.164-2.57-3.173-3.912-.233-.311-.183-.836-.261-1.265a3.755,3.755,0,0,1,1.158.439c1.175.994,2.288,2.061,3.44,3.082.658.584,1.069.466,1.433-.334.737-1.622,1.458-3.253,2.252-4.847.147-.294.609-.433.927-.643a3.1,3.1,0,0,1,.141,1.116c-.561,2.095-1.238,4.16-1.744,6.265a2.575,2.575,0,0,0,.429,1.683,9.658,9.658,0,0,0,1.427,1.67,5.993,5.993,0,0,0,.853.635l.29-.24Z" transform="translate(-43.246 -56.264)" fill="#fff"/>
      <path id="Path_2958" data-name="Path 2958" d="M136.175,69.856c-.651.361-1.32.719-1.975,1.1-.815.475-1.605,1-2.435,1.441a3.681,3.681,0,0,1-1,.216,3.171,3.171,0,0,1,.469-1.021c1-.971,2.034-1.923,3.12-2.8a1.451,1.451,0,0,0,.492-1.843c-.462-1.28-.937-2.557-1.328-3.86a3.454,3.454,0,0,1,.095-1.219c.307.235.712.41.9.716.683,1.1,1.3,2.231,1.925,3.364a1.085,1.085,0,0,0,1.712.508c1.191-.656,2.408-1.269,3.645-1.83.277-.126.683.036,1.03.063-.132.292-.185.687-.41.857-1.059.8-2.168,1.532-3.255,2.3-.828.582-.845.87-.078,1.5,1.023.847,2.082,1.654,3.066,2.544a4.719,4.719,0,0,1,.716,1.221,4.8,4.8,0,0,1-1.292-.3c-1.5-.828-2.958-1.723-4.44-2.578a7.209,7.209,0,0,0-.954-.378Z" transform="translate(-103.286 -48.871)" fill="#fff"/>
      <path id="Path_2959" data-name="Path 2959" d="M146.081.859c-.139.967-.1,1.786-1.027,1.742-.317-.015-.92-.727-.859-.845A12.94,12.94,0,0,1,145.455,0c.252.347.506.693.626.859Z" transform="translate(-113.894 0)" fill="#fff"/>
      <path id="Path_2960" data-name="Path 2960" d="M.987,146.312c-.2-.122-.521-.321-.847-.523a6.268,6.268,0,0,1,.641-.939,2.254,2.254,0,0,1,.733-.382c.546-.24,1.059-.1,1.126.477a1.745,1.745,0,0,1-.542,1.147c-.166.183-.586.13-1.111.223Z" transform="translate(-0.111 -114.025)" fill="#fff"/>
      <path id="Path_2961" data-name="Path 2961" d="M.811,87.52c.935.2,1.836.053,1.773,1.084-.019.317-.662.906-.767.855A14.883,14.883,0,0,1,0,88.264C.311,87.98.622,87.694.811,87.52Z" transform="translate(0 -69.131)" fill="#fff"/>
      <path id="Path_2962" data-name="Path 2962" d="M87.45,230.712c.145-.985.048-1.849,1.048-1.824.307.006.9.653.851.763a14.279,14.279,0,0,1-1.179,1.832l-.719-.771Z" transform="translate(-69.076 -180.796)" fill="#fff"/>
      <path id="Path_2963" data-name="Path 2963" d="M230.015,86.752c.408.319.851.5.948.8.065.2-.361.559-.572.845a.159.159,0,0,1-.092.044,8.9,8.9,0,0,1-1.6.2c-.08,0-.328-.843-.187-.981a7.178,7.178,0,0,1,1.5-.91Z" transform="translate(-180.465 -68.523)" fill="#fff"/>
      <path id="Path_2964" data-name="Path 2964" d="M86.62,1.068c.3-.422.519-.729.738-1.038.288.206.578.412.866.62a.156.156,0,0,1,.046.092,8.868,8.868,0,0,1,.221,1.614c0,.086-.843.342-.973.208a7.261,7.261,0,0,1-.9-1.5Z" transform="translate(-68.42 -0.024)" fill="#fff"/>
      <path id="Path_2965" data-name="Path 2965" d="M218.09,177.456c-.58.363-.819.628-1.088.662-.725.09-1.906-.639-1.771-1.086.113-.376.7-.979.813-.924A15.493,15.493,0,0,1,218.09,177.456Z" transform="translate(-170 -139.102)" fill="#fff"/>
      <path id="Path_2966" data-name="Path 2966" d="M14.654,178.444a9.707,9.707,0,0,1-.737-.845,10.8,10.8,0,0,1,1.565-1.488c.059-.044.593.557.906.857l-1.733,1.473Z" transform="translate(-10.992 -139.107)" fill="#fff"/>
      <path id="Path_2967" data-name="Path 2967" d="M230.168,146.476c-.975-.16-1.838-.08-1.794-1.078.013-.3.656-.876.769-.822a14.265,14.265,0,0,1,1.815,1.181l-.788.719Z" transform="translate(-180.389 -114.197)" fill="#fff"/>
      <path id="Path_2968" data-name="Path 2968" d="M57.923,15.345c-.687.424-1.074.87-1.408.834-.975-.107-.924-1.072-1.122-1.757-.05-.17.349-.471.54-.712C56.507,14.183,57.083,14.653,57.923,15.345Z" transform="translate(-43.751 -10.829)" fill="#fff"/>
      <path id="Path_2969" data-name="Path 2969" d="M15.471,58.068c-.681-.811-1.154-1.353-1.574-1.935-.021-.027.4-.532.649-.567.7-.1,1.891.645,1.786,1.09a6.29,6.29,0,0,1-.864,1.412Z" transform="translate(-10.977 -43.883)" fill="#fff"/>
      <path id="Path_2970" data-name="Path 2970" d="M146.461,230.589l-.525.843c-.307-.231-.626-.445-.912-.7a.779.779,0,0,1-.242-.452,2.285,2.285,0,0,1-.013-1.135.934.934,0,0,1,.891-.265,2.332,2.332,0,0,1,.712.9C146.455,229.917,146.417,230.123,146.461,230.589Z" transform="translate(-114.295 -180.766)" fill="#fff"/>
      <path id="Path_2971" data-name="Path 2971" d="M178.006,14.651l-1.588,1.574c-.271-.334-.826-.887-.765-.967a14.311,14.311,0,0,1,1.513-1.538c.219.244.439.487.84.933Z" transform="translate(-138.742 -10.837)" fill="#fff"/>
      <path id="Path_2972" data-name="Path 2972" d="M216.067,58.1c-.424-.624-.763-.927-.849-1.29-.126-.527.834-1.229,1.685-1.189.263.013.508.389.761.6l-1.6,1.883Z" transform="translate(-169.989 -43.935)" fill="#fff"/>
      <path id="Path_2973" data-name="Path 2973" d="M176.2,215.69a1.671,1.671,0,0,1,1.412,1.763c-.017.254-.353.487-.542.729a16.13,16.13,0,0,1-1.477-1.7C175.531,216.377,176.056,215.877,176.2,215.69Z" transform="translate(-138.698 -170.371)" fill="#fff"/>
      <path id="Path_2974" data-name="Path 2974" d="M57.961,216.707l-1.88,1.607c-.2-.265-.614-.59-.559-.782.2-.681.134-1.677,1.191-1.683.321,0,.647.427,1.246.857Z" transform="translate(-43.852 -170.498)" fill="#fff"/>
      <path id="Path_2975" data-name="Path 2975" d="M208.7,77.24c.311.458.7.889.643.967a10.367,10.367,0,0,1-1.2,1.168c-.265-.357-.824-.857-.733-1.042C207.6,77.929,208.126,77.688,208.7,77.24Z" transform="translate(-163.818 -61.011)" fill="#fff"/>
      <path id="Path_2976" data-name="Path 2976" d="M24.8,156.051c-.357-.437-.782-.845-.733-.912A10.856,10.856,0,0,1,25.2,153.92c.286.336.87.788.794.985-.155.406-.666.674-1.193,1.147Z" transform="translate(-19.006 -121.58)" fill="#fff"/>
      <path id="Path_2977" data-name="Path 2977" d="M208.591,156.039c-.534-.473-1.046-.74-1.208-1.145-.078-.2.5-.656.78-.994a10.974,10.974,0,0,1,1.149,1.214c.05.069-.37.483-.721.927Z" transform="translate(-163.804 -121.564)" fill="#fff"/>
      <path id="Path_2978" data-name="Path 2978" d="M155.542,209.042a10.127,10.127,0,0,1-.864.857,17.08,17.08,0,0,1-1.3-1.2c.319-.263.725-.8.941-.731C154.735,208.1,155.042,208.571,155.542,209.042Z" transform="translate(-121.153 -164.268)" fill="#fff"/>
      <path id="Path_2979" data-name="Path 2979" d="M24.853,77.22c.49.483.969.773,1.116,1.181.071.2-.469.622-.733.945a15.8,15.8,0,0,1-1.2-1.263A8.755,8.755,0,0,1,24.853,77.22Z" transform="translate(-18.984 -60.995)" fill="#fff"/>
      <path id="Path_2980" data-name="Path 2980" d="M77,209.057c.5-.5.79-.981,1.206-1.135.206-.076.635.456.962.712a16.065,16.065,0,0,1-1.275,1.235,8.635,8.635,0,0,1-.891-.813Z" transform="translate(-60.821 -164.23)" fill="#fff"/>
      <path id="Path_2981" data-name="Path 2981" d="M155.557,24.895c-.483.494-.771.981-1.179,1.126-.212.076-.639-.46-.969-.719a15.9,15.9,0,0,1,1.271-1.227,8.949,8.949,0,0,1,.876.822Z" transform="translate(-121.177 -19.016)" fill="#fff"/>
      <path id="Path_2982" data-name="Path 2982" d="M77.08,24.772A6.614,6.614,0,0,1,78,24.041a15.312,15.312,0,0,1,1.217,1.284c-.345.242-.813.758-1.006.67-.408-.187-.67-.689-1.13-1.223Z" transform="translate(-60.885 -18.988)" fill="#fff"/>
      <path id="Path_2983" data-name="Path 2983" d="M183.1,49.382a4.9,4.9,0,0,1,1.572-.036c.168.048.189.79.162,1.206-.006.1-.58.321-.7.231a8.711,8.711,0,0,1-1.059-1.078C183.081,49.6,183.089,49.491,183.1,49.382Z" transform="translate(-144.605 -38.931)" fill="#fff"/>
      <path id="Path_2984" data-name="Path 2984" d="M47.24,49.684c.508-.307.834-.649,1.177-.666.309-.015.637.324.956.506q-.665.611-1.332,1.221c-.2-.269-.4-.538-.8-1.061Z" transform="translate(-37.314 -38.719)" fill="#fff"/>
      <path id="Path_2985" data-name="Path 2985" d="M182.12,185.621c.45-.406.658-.632.906-.807a9.349,9.349,0,0,1,.874-.494,3.493,3.493,0,0,1,.187,1.256c-.044.2-.567.389-.887.414a3.443,3.443,0,0,1-1.08-.368Z" transform="translate(-143.855 -145.593)" fill="#fff"/>
      <path id="Path_2986" data-name="Path 2986" d="M49.52,183.67c.439.418.876.838,1.334,1.277a1,1,0,0,1-1.53.422c-.311-.294-.193-1.044-.265-1.591Z" transform="translate(-38.752 -145.079)" fill="#fff"/>
      <path id="Path_2987" data-name="Path 2987" d="M213.9,116.936V114.23c.561.517,1.021.943,1.481,1.368-.456.412-.912.822-1.481,1.336Z" transform="translate(-168.957 -90.229)" fill="#fff"/>
      <path id="Path_2988" data-name="Path 2988" d="M21.231,116.569c-.555-.479-1.013-.874-1.471-1.271.429-.435.859-.87,1.471-1.488Z" transform="translate(-15.608 -89.897)" fill="#fff"/>
      <path id="Path_2989" data-name="Path 2989" d="M113.8,214.56h2.713c-.529.563-.937,1-1.345,1.431C114.76,215.564,114.353,215.14,113.8,214.56Z" transform="translate(-89.889 -169.479)" fill="#fff"/>
      <path id="Path_2990" data-name="Path 2990" d="M114.43,21.122l1.338-1.212c.368.441.737.882,1.191,1.425h-2.307c-.074-.069-.147-.141-.223-.21Z" transform="translate(-90.387 -15.727)" fill="#fff"/>
    </g>
  </g>
</svg>
