<svg id="dirt-throw" xmlns="http://www.w3.org/2000/svg" width="60" height="60" viewBox="0 0 60 60">
  <rect id="Rectangle_3325" data-name="Rectangle 3325" width="60" height="60" fill="none"/>
  <g id="Layer_1-2" transform="translate(9 8)">
    <g id="Group_73" data-name="Group 73" transform="translate(0)">
      <path id="Path_2871" data-name="Path 2871" d="M23.772,48.19a7.356,7.356,0,0,0-1.106-.251c-3.209-.251-5.818,1.191-8.29,2.989a28.016,28.016,0,0,0-7.062,7.434,10.436,10.436,0,0,1-2.23,2.363c.5-2.519,2.9-3.992,3.553-6.4L8.4,54.181l-1.972,3-.385-.147a2.584,2.584,0,0,1,.142-.923,12.716,12.716,0,0,0,2.141-4.806c.041-.313.468-.577.719-.864l.826.89c0-.859.046-1.548-.013-2.226a1.63,1.63,0,0,1,.713-1.589c2.993-2.173,1.428-6.1-.927-7.425a3.932,3.932,0,0,0-1.865-.151c-.142,0-.278.326-.418.5.17.1.358.308.507.284,1.7-.282,2.269.982,2.986,2.1a2.787,2.787,0,0,1-.057,3.12,3.337,3.337,0,0,1-3.242,1.476,13.486,13.486,0,0,0-2.63-.033A4.2,4.2,0,0,1,.657,44.668,6.757,6.757,0,0,1,0,42.167,7.07,7.07,0,0,1,3.179,36.3c2.978-2.16,7.4-1.286,9.506.348A3.911,3.911,0,0,1,14.312,39.8a4.886,4.886,0,0,0,.5,1.415c.24.665.741,1.377.645,1.992a21.911,21.911,0,0,1-1.1,3.555c-.087.256-.3.477-.358.735a.6.6,0,0,0,.175.529.588.588,0,0,0,.546-.151c1.091-1.4,2.6-5.186,1.017-7.121-.5-.61-.479-1.62-.776-2.418a6.006,6.006,0,0,0-4.434-3.763c-.385-.1-.785-.144-1.176-.229-2.72-.6-3.828-2.681-2.995-5.361,1.181-3.8,4.534-5.3,8.207-4.51a1.634,1.634,0,0,0,1.924-.621c.533-.748,1.05-1.509,1.627-2.223.179-.221.533-.3.805-.446a5.249,5.249,0,0,1,.127.885,2.236,2.236,0,0,1-.192.708,3.852,3.852,0,0,0,.669,4.134c1.981,2.514,1.441,5.791-.254,8.138a1.048,1.048,0,0,0-.009,1.519,3.684,3.684,0,0,1,.6,3.234,13.208,13.208,0,0,1-2.643,5.7,1.757,1.757,0,0,0-.359.531,1.838,1.838,0,0,0,.007.593c.216-.042.523-.011.63-.142a15.707,15.707,0,0,0,1.745-2.361,10.582,10.582,0,0,0,1.637-5.564,5.34,5.34,0,0,0-.56-1.981,1.448,1.448,0,0,1,.074-1.622A7.754,7.754,0,0,0,21.676,30.8a7.341,7.341,0,0,0-1.5-4.628,1.3,1.3,0,0,1-.144-1.115c.638-1.209,1.367-2.372,2.1-3.529a3.211,3.211,0,0,1,.689-.612c.077.317.158.634.229.953.011.053-.031.116-.046.177-.433,1.749-.433,1.727,1.362,1.861a4.1,4.1,0,0,1,3.572,2.368c.474.947.6,1,1.493.374,1.5-1.052,2.971-2.141,4.477-3.181a2.2,2.2,0,0,1,.829-.157c-.015.276.068.612-.059.816-.851,1.373-1.764,2.709-2.623,4.08a1.716,1.716,0,0,1-1.675.862,8.33,8.33,0,0,0-7.169,3.052,5.279,5.279,0,0,0-1.122,5A4.148,4.148,0,0,0,26.54,40.2a11.52,11.52,0,0,1,1.286.009,4.126,4.126,0,0,0,3.623-1.633,2.056,2.056,0,0,0,.164-2.178c-.066-.175-.422-.24-.643-.356-.074.2-.238.424-.208.614.2,1.251-.079,2-1.356,2.366a7.027,7.027,0,0,1-4.69-.087,3.626,3.626,0,0,1-1.6-4.891A5.774,5.774,0,0,1,27.3,30.5c1.183-.276,2.446-.243,3.607-.575,1.819-.52,3.811-.711,5.227-2.191.509-.531.907-1.167,1.425-1.686.2-.2.6-.221.9-.323a2.9,2.9,0,0,1-.2.888,15.049,15.049,0,0,1-1.157,1.655,3.4,3.4,0,0,0-.748,2.825c.129.829-.133,1.712-.074,2.56a7.616,7.616,0,0,0,.494,2.086c.536,1.441.769,2.868-.182,4.195a1.717,1.717,0,0,1-1.275.639,9.065,9.065,0,0,0-6.3,1.837,1.6,1.6,0,0,1-1.421-.033c-1.447-.837-3.238-.029-4.244.612-.175.111-.2.455-.3.691.269.009.6.127.8.013a3.774,3.774,0,0,1,4.176-.1,1.33,1.33,0,0,0,1.122-.219c1.452-1.039,3.056-2.025,4.8-1.858,2.106.2,3.463-.816,4.9-1.955.842-.665,1.71-1.3,2.606-1.893.245-.162.64-.1.966-.136a3.266,3.266,0,0,1-.42.99c-.956,1.025-1.979,1.987-2.949,3a1.9,1.9,0,0,0-.136,2.6A6.651,6.651,0,0,1,40.056,48.5a5.507,5.507,0,0,1-6.828,4.919q-1.708-.351-3.419-.686a2.752,2.752,0,0,1-2.4-2.984A2.08,2.08,0,0,1,30.331,47.8a1.56,1.56,0,0,0,.962.009,1.85,1.85,0,0,1,2.431.929,1.337,1.337,0,0,0,.374.5.662.662,0,0,0,.579.046.608.608,0,0,0,.094-.549,3.207,3.207,0,0,0-3.328-1.907,3.479,3.479,0,0,1-1.087.033,3.048,3.048,0,0,0-3.5,1.552,2.991,2.991,0,0,0,.435,3.732,9.352,9.352,0,0,0,2.652,1.727c1.321.627,1.644,1.406.888,2.68a4.167,4.167,0,0,1-4.3,1.878,4.158,4.158,0,0,1-3.642-2.936,2.4,2.4,0,0,0-.969-1.226,16.521,16.521,0,0,0-2.471-.975,1.687,1.687,0,0,0-2.141.422c-.337.389-1.119.394-1.7.571a12.187,12.187,0,0,0-5.3,3.655,3.538,3.538,0,0,1-1.436.914c1.563-2.8,3.2-5.468,5.971-7.291,2.72-1.786,5.492-3.266,8.942-2.925l-.018-.444Z" transform="translate(0.001 -17.065)" fill="#fff"/>
      <path id="Path_2872" data-name="Path 2872" d="M205.026,82.479c-.31.481-.442.715-.6.931-.483.658-.988,1.3-1.46,1.965-.3.42-.584.376-.885.035a1.2,1.2,0,0,1,.186-1.9,14.9,14.9,0,0,1,1.745-1.156c.2-.107.547.057,1.012.123Z" transform="translate(-164.527 -67.148)" fill="#fff"/>
      <path id="Path_2873" data-name="Path 2873" d="M87.156,0c1.327,1.257,1.408,1.487.745,2.118a.883.883,0,0,1-1.43.015C85.842,1.454,85.976,1.03,87.156,0Z" transform="translate(-70.232)" fill="#fff"/>
      <path id="Path_2874" data-name="Path 2874" d="M178.7,4.13c.028-1,.394-1.358,1.045-1.351.616.007,1.095.3,1.1.984a.959.959,0,0,1-1.091,1.076c-.429-.059-.8-.527-1.058-.71Z" transform="translate(-145.767 -2.267)" fill="#fff"/>
      <path id="Path_2875" data-name="Path 2875" d="M161.6,23.222c.394.516.791.811.759,1.049a1.042,1.042,0,0,1-.715.684c-.2.037-.658-.367-.68-.6-.024-.273.3-.579.634-1.132Z" transform="translate(-131.299 -18.941)" fill="#fff"/>
      <path id="Path_2876" data-name="Path 2876" d="M194.442,22.668c-.326.24-.538.512-.711.49a.688.688,0,0,1-.44-.522.681.681,0,0,1,.477-.479c.171-.015.369.265.674.512Z" transform="translate(-157.668 -18.074)" fill="#fff"/>
    </g>
  </g>
</svg>
