<svg id="healing-gourd" xmlns="http://www.w3.org/2000/svg" width="60" height="60" viewBox="0 0 60 60">
  <rect id="Rectangle_3342" data-name="Rectangle 3342" width="60" height="60" fill="none"/>
  <g id="Layer_1-2" transform="translate(14 6)">
    <g id="Group_82" data-name="Group 82" transform="translate(0 0)">
      <path id="Path_2991" data-name="Path 2991" d="M11.813,24.81a1.551,1.551,0,0,1-.954,1.744,61.08,61.08,0,0,0-7.184,4.477C.2,33.727.217,41.184,5.886,43.3a3.457,3.457,0,0,0,1.067.038c-.065-.353-.017-.8-.214-1.048a6.922,6.922,0,0,1,2.406-10.6c1.359-.708,2.7-1.467,4.049-2.189a2.012,2.012,0,0,0,1.086-1.99c-.013-1.374.485-1.822,1.824-1.784.91.025,1.82.015,2.729,0,1.124-.019,1.7.347,1.62,1.406-.128,1.731.979,2.387,2.227,3.047a42.289,42.289,0,0,1,3.921,2.2,6.714,6.714,0,0,1,1.521,9.77A1.439,1.439,0,0,0,28.1,44.09c.508.83,1.422,1.74.567,2.942-.122.17.092.761.321.967a12.225,12.225,0,0,1,3.166,4.994,9.237,9.237,0,0,1-.6,7.329c-1.151,2.519-2.776,4.688-5.475,5.635a25.668,25.668,0,0,1-5.5,1.254A24.189,24.189,0,0,1,8.409,65.834c-2.633-1.078-4.152-3.227-5.274-5.709a9.933,9.933,0,0,1-.91-5A10.632,10.632,0,0,1,5.3,48.515a2.394,2.394,0,0,0-.517-3.923,10.748,10.748,0,0,1-4.6-4.725,2.182,2.182,0,0,1-.1-.931c-.011-1.12.1-2.25-.023-3.358a6.42,6.42,0,0,1,2.981-6.066c2.04-1.5,4.307-2.7,6.488-4.015.7-.422,1.368-1.046,2.311-.658l-.027-.032Zm4,20.65v.008c-2.555,0-5.112-.034-7.665.036a1.431,1.431,0,0,0-1.105.765c-.126.689.534.761,1.08.788.105,0,.21,0,.315,0,4.692-.008,9.381-.034,14.073,0,.487,0,1.217.221,1.393.565s-.208.979-.288,1.494a4.364,4.364,0,0,0-.032,1.2c.078.622.448,1.288.313,1.845-.5,2.067-1.181,4.093-1.731,6.15a1.36,1.36,0,0,0,.2,1.151c1.013.792,3.8.565,4.833-.248a1.466,1.466,0,0,1,.832-.187,12.489,12.489,0,0,1,1.248.1,5.827,5.827,0,0,0-.086-1.389c-.513-1.666-1.111-3.305-1.63-4.969a6.731,6.731,0,0,1-.492-2.328,1.728,1.728,0,0,0-.918-1.9c-.313-.181-.431-.7-.637-1.069a4.319,4.319,0,0,1,1.053-.429c.569-.071,1.229,0,1.2-.809-.029-.754-.66-.79-1.248-.79h-10.7Zm1.5-.584v-.006c1.156,0,2.311-.006,3.467,0,1.786.011,3.572.067,5.354.013.332-.011.649-.458.975-.7a3.069,3.069,0,0,0-.826-.639,4.109,4.109,0,0,0-1.25-.095q-7.718-.009-15.439,0a5.713,5.713,0,0,0-1.458.126c-.284.076-.508.382-.758.586a4.757,4.757,0,0,0,.809.685,1.685,1.685,0,0,0,.725.029h8.4Z" transform="translate(-0.027 -19.525)" fill="#fff"/>
      <path id="Path_2992" data-name="Path 2992" d="M56.163,5.321c-.011-1.736.485-2.042,2.288-1.456l1.754-1.952a5.941,5.941,0,0,1-.723-.414c-.511-.408-.4-.769.137-1.038a4.394,4.394,0,0,1,4.106.111c.242.122.387.681.363,1.025-.04.584-.286,1.149-.38,1.736a1.866,1.866,0,0,1-2.364,1.689c-.179-.034-.441-.185-.469-.321a.891.891,0,0,1,.168-.651c.111-.145.431-.13.544-.275a4.55,4.55,0,0,0,.981-1.546c.05-.216-.71-.626-1.168-.853.508,1.088.118,2.049-1.231,2.645a3.211,3.211,0,0,0-1.8,1.416c-.427.8-1.048.7-2.227-.143l.027.029Z" transform="translate(-44.35 -0.004)" fill="#fff"/>
    </g>
  </g>
</svg>
