<svg id="kenjis-shared-brew" xmlns="http://www.w3.org/2000/svg" width="60" height="60" viewBox="0 0 60 60">
  <rect id="Rectangle_3343" data-name="Rectangle 3343" width="60" height="60" fill="none"/>
  <g id="Layer_1-2" transform="translate(2 9)">
    <g id="Group_83" data-name="Group 83" transform="translate(0 0)">
      <path id="Path_2993" data-name="Path 2993" d="M27.588,30.666a1.4,1.4,0,0,0-.072.421c.707,4.773-2.11,7.7-5.024,9.1a8.12,8.12,0,0,1-6.35.491,21.416,21.416,0,0,1-10.6-7.817C3.889,30.63,3.822,28.122,4.5,25.51c.987-3.819,3.7-5.638,7.306-6.485,1.074-.253,1.392-.863.869-1.777-.83-1.453-.354-2.836.179-4.2,1.35-3.47,4.04-5.661,7.182-7.407,1.215-.674,2.442-1.335,3.609-2.086.811-.522.773-1.225-.137-1.528a5.161,5.161,0,0,0-2.491-.16,14.224,14.224,0,0,0-5.5,2.678c-2.238,1.59-3.007,3.9-3.445,6.421a8.611,8.611,0,0,1-3,5.352,5.611,5.611,0,0,1-1.154.6c-.141.069-.366.057-.436.16-.558.819-1.1,1.373-2.238.768-.267-.141-1.2.413-1.177,1.3.025.914-.368,1.2-1.253.954-.762-.211-1.5-.5-2.244-.785a.716.716,0,0,1-.421-1.141c.36-.63.8-1.219,1.133-1.863A.941.941,0,0,1,2.765,15.9a10.706,10.706,0,0,1,.958.609c.528.368,1.019.482,1.52-.065.162-.177.449-.411.625-.373,1.3.286,2.072-.589,2.87-1.31a6.255,6.255,0,0,0,1.743-3.413,28.843,28.843,0,0,1,1.257-4.173c1.139-2.863,3.484-4.495,6.181-5.7,1.036-.463,2.087-.888,3.145-1.3,1.754-.682,4.264.83,4.47,2.447A2.5,2.5,0,0,1,24.065,5c-1.926,1.158-3.943,2.173-5.8,3.432a9.42,9.42,0,0,0-4.495,6.826,1.577,1.577,0,0,0,.046.926,1.788,1.788,0,0,0,.91.688c.13.04.537-.39.608-.663a15.559,15.559,0,0,1,.571-2.659c1.236-2.607,2.933-3.916,5.718-3.647,1.261.122,2.52.267,3.769.474a2.341,2.341,0,0,0,2.642-1.021c.36-.56.838-.775,1.436-.309.823.642,1.634,1.3,2.467,1.931.528.4.674.912.238,1.387-1.259,1.369-.488,2.638.219,3.813a10.133,10.133,0,0,1,1.5,3.96,5.44,5.44,0,0,1-3.377,5.718c-1.884.928-2.354,2.127-1.408,3.99a11.2,11.2,0,0,1,.554,1.747c.76-.423,1.185.128,1.768.693a4.046,4.046,0,0,0,2.036.968c1.16.2,1.331.408.71,1.446-.47.787-.931,1.579-1.427,2.348-.385.6-.889.918-1.588.451-.04.086-.1.145-.086.189.112.455.6,1.023-.109,1.3-.691.274-.836-.368-1.089-.867-.9-1.781-.6-3.706-.819-5.575-.082-.707-.794-1.341-1.219-2.007l-.251.124Zm-.057-2,.288-.556a3.963,3.963,0,0,1-.79-.354q-4.9-3.645-9.786-7.314c-.832-.623-1.648-1.27-2.508-1.849-.194-.13-.55-.019-.832-.019.025.263-.044.606.1.769a6,6,0,0,0,1.025.832q4.894,3.671,9.794,7.333a13.335,13.335,0,0,0,1.729,1.164c.257.135.653,0,.987-.008ZM15.555,17.153c-.139.08-.337.126-.375.23a.66.66,0,0,0,.021.529,2.844,2.844,0,0,0,.625.571c3.748,2.8,7.493,5.605,11.264,8.377.234.173.665.08,1,.112-.1-.3-.192-.609-.322-.9-.046-.1-.187-.166-.29-.24q-5.617-4.148-11.237-8.291a6.053,6.053,0,0,0-.689-.387Z" transform="translate(0.005 -0.009)" fill="#fff"/>
      <path id="Path_2994" data-name="Path 2994" d="M169.5,41.237c1.166.059,2.421.133,3.676.187,1.175.05,1.337.309,1.427,1.5a6.066,6.066,0,0,1-1.937,4.765,1.251,1.251,0,0,1-.8.364c-1.872.03-3.748.093-5.617-.011-1.217-.069-1.8-1.2-2.175-2.11a14.843,14.843,0,0,1-.722-3.617.852.852,0,0,1,.96-1.027c.632.008,1.265.057,1.893.128,1.339.149,1.7-.257,1.444-1.531a3.917,3.917,0,0,1,.01-1.413,28.91,28.91,0,0,1,2.926-8.182,67.271,67.271,0,0,0,2.567-6.314,25.074,25.074,0,0,0,.84-2.809,6.37,6.37,0,0,0-2.554-6.5c-3.108-2.2-6.133-1.676-9.177.07a4.5,4.5,0,0,0-.371.3c-.438.322-1.009.994-1.289.889a6.266,6.266,0,0,1-1.886-1.379c-.128-.118-.067-.611.072-.821a13.163,13.163,0,0,1,8.5-5.792c3.853-.781,7.6-.164,10.272,3.116a6.843,6.843,0,0,1,1.632,4.264,56.134,56.134,0,0,1,.162,6.341A45.1,45.1,0,0,1,177.82,28.6a15.658,15.658,0,0,0-.478,7.79,8.815,8.815,0,0,0,.491,1.331c.423,1.021.194,1.3-.9,1.274a1.619,1.619,0,0,1-1.51-.935c-.124-.217-.558-.259-.853-.377-.227-.09-.455-.171-.682-.255a3.931,3.931,0,0,1,.522-.488c.11-.074.29-.05.6-.09-1.6-4.706.731-8.919,1.691-13.3l-.5-.131c-2.594,5.758-6.419,11.024-6.706,17.824Z" transform="translate(-128.427 -6.174)" fill="#fff"/>
      <path id="Path_2995" data-name="Path 2995" d="M235.922,182.868c-.512,0-1.24.013-1.969,0-.754-.017-.977-.4-.813-1.133.213-.956.375-1.926.5-2.9.156-1.2-.406-1.781-1.623-1.766-.126,0-.288.084-.371.032-.335-.206-.648-.449-.968-.68.3-.16.6-.463.893-.461,2.5.027,5,.114,7.5.173.6.013,1.2-.025,1.8-.01.642.017.941.314.95,1.013a7.294,7.294,0,0,1-.937,3.8c-1.08,1.9-2.8,2.194-4.963,1.926Z" transform="translate(-186.743 -142.448)" fill="#fff"/>
      <path id="Path_2996" data-name="Path 2996" d="M152.245,18.564c-.39.815.023,1.914-1.286,1.863-.131-.006-.255.333-.419.467a.682.682,0,0,1-.478.19.536.536,0,0,1-.343-.381c0-.179.139-.5.253-.52.909-.124.752-.722.7-1.343-.053-.6.192-1.15.859-1.089.276.025.5.558.718.815Z" transform="translate(-121.202 -14.368)" fill="#fff"/>
      <path id="Path_2997" data-name="Path 2997" d="M188.18,170.38c.659.408,1.28.762,1.857,1.177a.613.613,0,0,1,.036.571.848.848,0,0,1-.651.065,9.137,9.137,0,0,1-1.455-.649c-.208-.118-.335-.381-.5-.579.2-.164.4-.326.71-.583Z" transform="translate(-151.763 -137.931)" fill="#fff"/>
      <path id="Path_2998" data-name="Path 2998" d="M265.2,162.051c-.044-.221-.2-.526-.114-.648a11.072,11.072,0,0,1,1.3-1.457c.076-.072.417.135.636.213l-1.423,2.021-.4-.13Z" transform="translate(-214.574 -129.472)" fill="#fff"/>
      <path id="Path_2999" data-name="Path 2999" d="M179.245,52.585c-.438-.339-.731-.564-1.025-.79a3.551,3.551,0,0,1,1.114-.562c.265-.029.571.324.859.507C179.906,51.995,179.618,52.252,179.245,52.585Z" transform="translate(-144.275 -41.475)" fill="#fff"/>
      <path id="Path_3000" data-name="Path 3000" d="M195.96,161.912c-.373.244-.651.5-.716.455a6.315,6.315,0,0,1-.794-.771c.194-.152.455-.47.571-.425A4.457,4.457,0,0,1,195.96,161.912Z" transform="translate(-157.413 -130.472)" fill="#fff"/>
    </g>
  </g>
</svg>
