<svg id="kunai" xmlns="http://www.w3.org/2000/svg" width="60" height="60" viewBox="0 0 60 60">
  <rect id="Rectangle_3326" data-name="Rectangle 3326" width="60" height="60" fill="none"/>
  <g id="Layer_1-2" transform="translate(12 11)">
    <path id="Path_2877" data-name="Path 2877" d="M36.552,0a3.749,3.749,0,0,1-.114,1.02c-1.145,2.273-2.338,4.523-3.472,6.8-1.728,3.471-3.425,6.957-5.124,10.444-.513,1.052-1,2.119-1.48,3.186a1.755,1.755,0,0,1-1.634,1.2c-2.139.087-4.277.281-6.416.308a4.437,4.437,0,0,0-3.279,1.268C13.2,26.1,11.4,28.007,9.688,29.985a2.841,2.841,0,0,0-.442,1.831c.136,3.224-.552,4.039-3.192,5.293a3.624,3.624,0,0,1-3.11-.411C1.335,35.9-.135,33.805.013,32.112c.121-1.378,1.647-3.728,3.4-3.882.748-.065,1.511-.007,2.252-.114A3.326,3.326,0,0,0,7.4,27.572q3.078-2.913,5.981-6.012a3.257,3.257,0,0,0,.694-1.891c.163-2.467.232-4.94.292-7.412a1.6,1.6,0,0,1,.967-1.569Q22.969,6.866,30.585,3c1.692-.859,3.364-1.759,5.048-2.632C35.858.25,36.1.176,36.55,0ZM7.351,32.314a2.486,2.486,0,0,0-2.407-2.438,2.536,2.536,0,0,0-2.467,2.393,2.587,2.587,0,0,0,2.476,2.489,2.487,2.487,0,0,0,2.4-2.444Z" transform="translate(-0.003 0)" fill="#fff"/>
  </g>
</svg>
