<svg id="lady-sanjos-surprise" xmlns="http://www.w3.org/2000/svg" width="60" height="60" viewBox="0 0 60 60">
  <rect id="Rectangle_3327" data-name="Rectangle 3327" width="60" height="60" fill="none"/>
  <g id="Layer_1-2" transform="translate(5 6)">
    <g id="Group_74" data-name="Group 74" transform="translate(0 0)">
      <path id="Path_2878" data-name="Path 2878" d="M205.96,18.9c-.2-.088-.3-.18-.382-.165-1.25.238-1.876-.678-2.594-1.406-.474-.48-.192-.918.093-1.393.821-1.363,1.488-2.887.893-4.413a3.572,3.572,0,0,1,.315-2.877,4.8,4.8,0,0,0-.478-4.891.964.964,0,0,1-.049-1.265c.346-.547.6-1.149.916-1.719A2.506,2.506,0,0,1,205.126.1a.533.533,0,0,1,.5-.074c.111.072.147.321.144.492a2.03,2.03,0,0,1-.161.46c-.18.606-.008.949.683.955a2.915,2.915,0,0,1,2.825,1.722c.244.51.682.521,1.1.218.926-.67,1.82-1.385,2.753-2.045a3.086,3.086,0,0,1,.847-.282,3.153,3.153,0,0,1-.233.911c-.415.669-.965,1.26-1.332,1.95a1.94,1.94,0,0,1-1.9,1.109,5.435,5.435,0,0,0-4.755,2.43,3.483,3.483,0,0,0-.441,3.707,2.526,2.526,0,0,0,1.893,1.535c1.639.2,3.376.559,4.555-1.091a2.365,2.365,0,0,0,.193-1.258c0-.1-.324-.2-.5-.3a5.006,5.006,0,0,0-.216.48c-.1.3-.1.672-.28.891-.916,1.093-2.184.873-3.353.7a2.223,2.223,0,0,1-1.868-1.852,3.383,3.383,0,0,1,1.475-3.343,5.951,5.951,0,0,1,3.4-1.252c1.978-.182,3.8-.659,5.045-2.4.2-.287.664-.392,1-.582a7.211,7.211,0,0,1-.37,1.063,3.771,3.771,0,0,1-.678.919,2.214,2.214,0,0,0-.5,1.868c.029,1.386-.149,2.764.588,4.059a2,2,0,0,1,.007,1.129,1.5,1.5,0,0,1-1.689,1.385,6.207,6.207,0,0,0-3.787,1.067,2.789,2.789,0,0,1-1.3.154c-.775.041-1.558,0-2.322.116-.287.043-.526.406-.787.624.056.1.11.193.166.292a3.667,3.667,0,0,0,.85-.243,2.167,2.167,0,0,1,2.173-.052,1.513,1.513,0,0,0,1.257-.085,6.321,6.321,0,0,1,4.3-1.255,1.838,1.838,0,0,0,1.1-.436c.952-.683,1.853-1.439,2.805-2.125a2.524,2.524,0,0,1,.844-.233,2.622,2.622,0,0,1-.329.872c-.529.585-1.149,1.088-1.693,1.66a1.671,1.671,0,0,0-.283,2.232,8.342,8.342,0,0,1,.634,1.5,3.949,3.949,0,0,1-4.852,4.87c-.631-.165-1.29-.231-1.924-.388A2.306,2.306,0,0,1,208.8,20.6a1.6,1.6,0,0,1,1.825-2.025,1.8,1.8,0,0,0,.726.036,1.441,1.441,0,0,1,1.694.651c.146.185.459.241.695.356-.061-.282-.028-.654-.2-.829-.569-.59-1.177-1.177-2.14-.808a1.348,1.348,0,0,1-.646-.008,2.164,2.164,0,0,0-2.376,1,2.546,2.546,0,0,0,.228,2.705,5.993,5.993,0,0,0,1.588,1.073c.57.3,1.317.395,1.2,1.291-.11.842-1.239,1.993-1.9,1.9a1.134,1.134,0,0,1-.67-.5c-1.013-1.578-1.989-3.181-2.989-4.767-.383-.608-.916-1.195.134-1.778Z" transform="translate(-169.511 0.004)" fill="#fff"/>
      <path id="Path_2879" data-name="Path 2879" d="M14.149,90.012c-.147-1.624-.292-3.248-.446-4.872-.039-.406-.133-.809-.167-1.216Q12.958,77,12.392,70.07a18.64,18.64,0,0,1-.143-1.952c.007-.265.267-.526.413-.788a4.229,4.229,0,0,1,.734.515c.11.116.1.359.118.547.167,2.31.3,4.626.5,6.935.336,3.967.706,7.932,1.067,11.9.079.87.165,1.739.27,2.605.107.885,0,1-1.036.842.2.3.451.5.464.708.028.444.1,1.073-.146,1.308-.415.392-.749-.1-1-.469Q6.955,82.6.278,72.986c-.493-.71-.331-1.157.518-1.324.157-.031.392-.015.457-.111,1.073-1.558,2.872-1.9,4.437-2.581a33.08,33.08,0,0,1,4.293-1.334c1.262-.351,1.6-.072,1.709,1.211q.415,5.046.854,10.092c.123,1.381.316,2.756.436,4.136A2.034,2.034,0,0,1,10.89,84.9a1.2,1.2,0,0,1-.574-.51Q6.288,78.577,2.277,72.747A6.513,6.513,0,0,0,1.8,72.2c-.085.066-.17.131-.256.2L13.831,90.156c.1-.048.211-.1.316-.144Z" transform="translate(-0.001 -56.297)" fill="#fff"/>
      <path id="Path_2880" data-name="Path 2880" d="M102.047,107.71c-.583-.136-.644-.549-.323-.911a11.864,11.864,0,0,1,1.981-1.911c3-2.088,6.05-4.095,9.068-6.153,2.138-1.458,4.254-2.953,6.384-4.423a6.849,6.849,0,0,1,.713-.375l-.288-.347a3.942,3.942,0,0,0-.593.282q-5.663,3.871-11.316,7.757c-.2.138-.369.328-.572.459a1.265,1.265,0,0,1-.575.256c-.875.029-1.929-1.458-1.568-2.237,1.544-3.336,3.108-6.663,4.662-10,.518-1.111,1.024-2.229,1.535-3.343.439-.959.8-1.018,1.706-.5a24.064,24.064,0,0,1,6.725,5.788,6.629,6.629,0,0,1,.454.831,2.078,2.078,0,0,0,.442.647c.547.4.578.818,0,1.222-1.568,1.09-3.153,2.155-4.721,3.243q-5.481,3.8-10.949,7.62c-.952.667-1.858,1.4-2.784,2.107l.023-.023Z" transform="translate(-84.894 -71.862)" fill="#fff"/>
      <path id="Path_2881" data-name="Path 2881" d="M148.6,151.819c-1.468.111-2.94.21-4.406.341-.944.085-1.883.234-2.828.323a1,1,0,0,1-.611-.165,1.658,1.658,0,0,1,.043-2.709q5.815-3.965,11.606-7.962c.2-.138.357-.336.546-.492.418-.344.89-.324,1.116.139.878,1.807,1.763,3.618,2.505,5.481a20.968,20.968,0,0,1,.759,3.169c.167.741-.066,1.078-.834,1.157-.977.1-1.958.159-2.935.252-1.653.156-3.305.323-4.958.485v-.02Z" transform="translate(-117.122 -117.827)" fill="#fff"/>
      <path id="Path_2882" data-name="Path 2882" d="M86.485,65.934a28.171,28.171,0,0,1,8.457,1.676c.644.267.695.665.419,1.237-.968,2.011-1.922,4.026-2.877,6.043C91.3,77.4,90.1,79.9,88.948,82.425c-.261.57-.572.823-1.191.657-.673-.18-1.465-.185-1.522-1.17q-.081-1.389-.185-2.776c-.167-2.174-.323-4.349-.521-6.52-.172-1.9-.4-3.79-.6-5.684-.077-.737.231-1.059.982-1.031.19.007.38.023.572.034Z" transform="translate(-71.005 -55.101)" fill="#fff"/>
      <path id="Path_2883" data-name="Path 2883" d="M159.39,218.816a30.44,30.44,0,0,1-1.589,7.724c-.346.934-.624.962-1.534.523-2.571-1.245-5.162-2.453-7.751-3.659-1.948-.908-3.913-1.784-5.863-2.689a.943.943,0,0,1-.518-1.3c.2-.59.19-1.28,1.14-1.342,2.963-.192,5.92-.467,8.881-.706,2.065-.167,4.131-.334,6.2-.487.718-.052,1.067.306,1.037,1.032-.011.3,0,.6,0,.9Z" transform="translate(-118.776 -181.341)" fill="#fff"/>
      <path id="Path_2884" data-name="Path 2884" d="M153.283,2.829a1.909,1.909,0,0,1,.659.052c1.178.452,1.775-.247,2.312-1.108a4.918,4.918,0,0,1,.61-.865.6.6,0,0,1,.557-.131.649.649,0,0,1,.156.554,3.288,3.288,0,0,1-.3.757,2.1,2.1,0,0,0,.347,2.346c1.537,1.973,1.4,3.6.1,5.715-.336.547-.472.919-.007,1.432a2.291,2.291,0,0,1,.32,2.324,14.269,14.269,0,0,1-.9,2.191c-.125.254-.529.624-.651.574a1.471,1.471,0,0,1-.773-.732c-.352-.964-.595-1.968-.9-2.951a4.572,4.572,0,0,0-3.77-3.112c-1.021-.231-2.127-.318-2.442-1.567a4.185,4.185,0,0,1,.846-3.847,4.48,4.48,0,0,1,3.829-1.632Z" transform="translate(-124.13 -0.626)" fill="#fff"/>
      <path id="Path_2885" data-name="Path 2885" d="M104.038,208.2c2.877-.27,5.751-.554,8.631-.811,3.42-.3,6.844-.577,10.264-.883,1.242-.111,2.478-.306,3.721-.4.254-.02.529.236.795.364-.164.244-.288.655-.5.7a17.158,17.158,0,0,1-2.5.387c-5.65.474-11.3.924-16.955,1.39-1,.082-2,.246-3,.282-.927.033-.411-.649-.436-1.054Z" transform="translate(-86.908 -172.33)" fill="#fff"/>
      <path id="Path_2886" data-name="Path 2886" d="M106.6,227.39c.944.406,1.829.759,2.691,1.163,2.712,1.272,5.412,2.569,8.123,3.843,2.138,1,4.288,1.988,6.432,2.982.841.39,1.671.8,2.517,1.177.508.228.77.574.482,1.091-.3.534-.646.187-1.014,0-1.627-.827-3.262-1.639-4.913-2.419-2.14-1.011-4.3-1.986-6.448-2.977q-3.448-1.593-6.9-3.19a7.645,7.645,0,0,1-1.221-.654.729.729,0,0,1-.2-.608c.026-.151.28-.261.452-.406Z" transform="translate(-88.747 -190.129)" fill="#fff"/>
      <path id="Path_2887" data-name="Path 2887" d="M96.991,102.432a1.467,1.467,0,0,1-.257-1.861c.438-1.085.957-2.135,1.453-3.2q2.544-5.437,5.093-10.869c.795-1.7,1.562-3.416,2.4-5.1.113-.228.546-.3.831-.437.067.3.285.678.182.9-1.67,3.574-3.4,7.118-5.075,10.69-1.272,2.714-2.473,5.46-3.72,8.185-.244.536-.554,1.041-.9,1.686Z" transform="translate(-80.701 -67.701)" fill="#fff"/>
      <path id="Path_2888" data-name="Path 2888" d="M145.8,63.781a7.95,7.95,0,0,1-.885-.349c-1.013-.577-1.986-1.227-3.028-1.742-.991-.488-2.055-.826-3.074-1.26a4.229,4.229,0,0,1-.747-.526,3.706,3.706,0,0,1,.775-.613,3.88,3.88,0,0,1,2.953-.085,13.849,13.849,0,0,1,2.4.914c1.273.78,1.3,2.194,1.6,3.661Z" transform="translate(-115.446 -49.293)" fill="#fff"/>
      <path id="Path_2889" data-name="Path 2889" d="M92.963,226.795c-.287.093-.669.351-.842.249a3.9,3.9,0,0,1-.932-.944,8.419,8.419,0,0,1-.911-1.239.768.768,0,0,1,.043-.723c.18-.167.69-.293.775-.195.688.8,1.311,1.662,1.953,2.5l-.084.347Z" transform="translate(-75.427 -187.219)" fill="#fff"/>
      <path id="Path_2890" data-name="Path 2890" d="M68.027,221.731c-.033-.039-.044-.066-.066-.079-.357-.215-1.236-.02-.9-.754.154-.338.954-.441,1.48-.524.29-.046.829,1.372.683,1.711a.929.929,0,0,1-.243.416c-.4.256-1,.767-1.2.644-.608-.369-.048-.813.184-1.208a.9.9,0,0,0,.066-.208Z" transform="translate(-56.011 -184.262)" fill="#fff"/>
      <path id="Path_2891" data-name="Path 2891" d="M283.647,47.44c-.216.329-.341.534-.482.728a5.08,5.08,0,0,1-.7.893,2.629,2.629,0,0,1-.8.32c-.079-.29-.32-.726-.21-.847a9.62,9.62,0,0,1,1.522-1.309c.1-.069.377.116.667.216Z" transform="translate(-235.313 -39.472)" fill="#fff"/>
      <path id="Path_2892" data-name="Path 2892" d="M80.416,233.685a1.7,1.7,0,0,1,0,.292c-.261.413-.518.828-.808,1.219a2.249,2.249,0,0,1-.51-.328c.22-.531.49-1.042.747-1.558l.572.375Z" transform="translate(-66.137 -195.079)" fill="#fff"/>
      <path id="Path_2893" data-name="Path 2893" d="M90.188,237.44a3.646,3.646,0,0,1,.577.945c.044.169-.264.433-.413.652a4.6,4.6,0,0,1-.583-.886c-.067-.174.1-.436.154-.657l.267-.054Z" transform="translate(-75.046 -198.532)" fill="#fff"/>
      <path id="Path_2894" data-name="Path 2894" d="M69.546,209.71c.252.308.515.492.542.7.02.159-.262.357-.41.537a4.509,4.509,0,0,1-.623-.642C69.024,210.262,69.3,210.008,69.546,209.71Z" transform="translate(-57.739 -175.346)" fill="#fff"/>
      <path id="Path_2895" data-name="Path 2895" d="M249.447,1.5c.238.292.508.492.477.618a.765.765,0,0,1-.47.485c-.121.031-.456-.257-.454-.4C249,2.008,249.233,1.816,249.447,1.5Z" transform="translate(-208.199 -1.253)" fill="#fff"/>
    </g>
  </g>
</svg>
