<svg id="magma-bomb" xmlns="http://www.w3.org/2000/svg" width="60" height="60" viewBox="0 0 60 60">
  <rect id="Rectangle_3328" data-name="Rectangle 3328" width="60" height="60" fill="none"/>
  <g id="Layer_1-2" transform="translate(7 6)">
    <g id="Group_75" data-name="Group 75" transform="translate(0 0)">
      <path id="Path_2896" data-name="Path 2896" d="M35.076,35.691c0-.555-.029-1.112,0-1.664a14.081,14.081,0,0,0-1.157-5.662c-.189-.525-.259-1.1-.485-1.6-.868-1.953-2.755-2.539-4.53-3.2-.715-.268-2.052.758-2.05,1.522a1.747,1.747,0,0,0,.58,1.218c.192.153.733-.135,1.121-.212.253-.05.674-.18.737-.086a1.657,1.657,0,0,1,.37,1.055c-.271,1.254-1.366,1.781-2.39,2.162-2.311.861-3.464.64-4.465-1.932a2.195,2.195,0,0,0-.629-.9,2.122,2.122,0,0,1-.733-2.875c.561-.967,1.254-1.858,1.655-2.444.855-.117,1.389-.189,1.923-.264-.192-.449-.386-.9-.577-1.346-.09.038-.178.079-.268.117.257-1.08.541-2.156.762-3.245a3.382,3.382,0,0,0-1.486-3.7c-1.75-.974-3.071-.875-4.415.386-.257.241-.634.719-.55.9a9.738,9.738,0,0,0,1.567,2.613,1.709,1.709,0,0,0,2.447.228c.043-.036.142,0,.51,0-.406.843-.6,2-1.173,2.244-.643.273-1.646-.244-2.471-.485-.528-.156-1-.512-1.529-.649a2.052,2.052,0,0,1-1.865-2.162,3.348,3.348,0,0,1,.12-1.335,11.8,11.8,0,0,0,1.021-4.266c0-1.33,2.138-2.5,3.675-2.284a9.471,9.471,0,0,1,4.361,1.3,1.01,1.01,0,0,0,.424.124c.063.009.135-.047.2-.077A2.3,2.3,0,0,0,23.63,7.5c-.634-.054-1.29.079-1.908-.034-.395-.072-1.017-.422-1.035-.681A1.658,1.658,0,0,1,21.269,5.5a2.051,2.051,0,0,1,2.5.293c.534.39,1.026.837,1.538,1.258.086-.054.169-.11.255-.165a4.015,4.015,0,0,0-.383-.855c-.625-.823-1.312-1.642-.742-2.744A3.522,3.522,0,0,1,27.93,1.951c1.382.474,2.494,1.024,3.436-.877.5-1.01,1.946-1.308,3.249-.891a2.117,2.117,0,0,0,1.1.059,3.509,3.509,0,0,1,4.147,1.691c.386.616.695.652,1.251.372a3.962,3.962,0,0,1,3.781,0,2.031,2.031,0,0,1,.591,3.484,7.031,7.031,0,0,0-.514.586c-.036.045,0,.142,0,.465.413-.244.713-.431,1.021-.6a7.573,7.573,0,0,1,1.95-1.024c1.416-.286,2.1.636,1.655,2.237.5.176,1.006.365,1.522.53A2.967,2.967,0,0,1,53.4,11.516a3.993,3.993,0,0,0,.264,1.267c.259,1.08.6,2.147.746,3.24a1.527,1.527,0,0,1-.541,1.27,19.762,19.762,0,0,1-4.016,1.835c-1.2.34-2.079-1.024-1.671-2.334,1.615.368,2.476.151,3.04-.767.918-1.5.893-2.465-.081-3.184a3.163,3.163,0,0,0-4.46.277c-1.184,1.38-.958,2.954-.532,4.483a15.886,15.886,0,0,0,2.774,5.712c.9,1.139.627,2.35-.474,3.389a2.113,2.113,0,0,0-.695.974c-.21,1.168-1.114,1.639-1.978,2.162a.943.943,0,0,1-.751.131,23.057,23.057,0,0,1-3.687-2.029,1.277,1.277,0,0,1,.056-2.122c.737.162,1.346.485,1.75.318a1.414,1.414,0,0,0,.381-1.351,2.4,2.4,0,0,0-1.463-1.114c-1.4-.216-4.167,1.6-4.717,3a17.913,17.913,0,0,0-1.434,5.691,25.174,25.174,0,0,1-.6,3.335l-.235-.009Zm1.071-24.463-.307-.117c-.415-.821-.83-1.644-1.333-2.638-.532,1.236-.7,2.519-1.418,3.031-.679.483-1.935.149-3.035.178a7.686,7.686,0,0,0,.469,1.069c.963,1.578.823,2.379-1.468,3.107-.963.307-1.321-.041-1.274-1.012a1.386,1.386,0,0,0-1.2-1.581c-.85,2.253.868,6.629,2.857,7.279.347-.877-.359-1.351-.71-1.96-.156-.271-.338-.685-.232-.9.09-.192.577-.3.868-.268a7.559,7.559,0,0,1,1.955.446,1.982,1.982,0,0,1,.794.884,14.075,14.075,0,0,1,.645,1.493c-1.574.94-2.489,2.221-2.167,3.342.636-.4,1.242-.778,1.905-1.193.205.485.368.875.543,1.292,1.452-1.281,1.77-3.351.71-4.2,1-.35,1.344-.133,2.372,1.2.239.309.776.39,1.177.577.068-.37.151-.737.194-1.109.016-.138-.081-.286-.113-.433-.291-1.364.138-1.917,1.529-1.9,1.051.014,2.1.092,3.15.115a3.509,3.509,0,0,0,.746-.151l.047-.334c-.764-.336-1.513-.708-2.3-1-1.824-.674-2.174-1.608-1.114-3.211.5-.755,1.062-1.47,1.594-2.2-.14-.007-.282-.014-.422-.018-.185-.474-.372-.945-.584-1.486l-2.219,1.727c-.1-.059-.2-.115-.3-.174l.541-3.915-.365-.074q-.764,2.07-1.531,4.14Zm-8.731,10.42c-2.3.054-3.811,1.1-4.316,2.67a4.118,4.118,0,0,0,1.556,4.356,2.05,2.05,0,0,0,2.674-.083,3.171,3.171,0,0,0,.408-1.141,3.316,3.316,0,0,0-1.071-.083c-1.03.271-1.777,0-1.937-.911a3.738,3.738,0,0,1,.027-1.991,3.239,3.239,0,0,1,1.427-1.184c.365-.207.9-.115,1.267-.325.311-.18.487-.6.722-.911l-.76-.4Zm19.816,3.89a3.755,3.755,0,0,0-4.4-3.858c-.23.043-.611.248-.607.363a.9.9,0,0,0,.377.7,8.374,8.374,0,0,0,1.8.487c1.145.183,1.707,1.254,1.486,2.945-.133,1.019-.812,1.445-1.944,1.339a4.81,4.81,0,0,0-1.283.223,4.426,4.426,0,0,0,.929,1.109,1.634,1.634,0,0,0,1.173.016,3.235,3.235,0,0,0,2.467-3.324ZM35.694,22.946a6.827,6.827,0,0,0,1.2.262,6.638,6.638,0,0,0,4.512-1.919,3.928,3.928,0,0,0,.645-1.152,3.5,3.5,0,0,0-1.391.054c-1.61.823-3.17,1.745-4.968,2.758Zm6.553-12.688c.2.9.388,1.639.514,2.388.16.945.221,1.91.428,2.841.059.266.471.455.724.681.153-.293.417-.582.435-.884a7.336,7.336,0,0,0-.167-1.439,5.165,5.165,0,0,0-1.937-3.59ZM32.9,7.2a4.081,4.081,0,0,0-4.077,2.16C30.672,9.365,31.507,7.737,32.9,7.2Zm15.072.584a2.933,2.933,0,0,0-3.73,1.608C45.62,8.8,46.793,8.294,47.972,7.784Zm-2,13.565c.248-.316.534-.6.5-.645a7.112,7.112,0,0,0-.771-.794c-.149.169-.453.406-.415.494A5.258,5.258,0,0,0,45.972,21.349ZM33.146,10.458c-.284-.3-.469-.649-.656-.649-.216,0-.433.3-.649.478a3.142,3.142,0,0,0,.654.631C32.578,10.966,32.846,10.679,33.146,10.458Z" transform="translate(-12.365 0)" fill="#fff"/>
      <path id="Path_2897" data-name="Path 2897" d="M118.478,138.648a1.967,1.967,0,0,0,2.9-.579c.46-.591.967-.568,1.274.178.37.9.961.85,1.61.386.943-.676,1.847-1.4,2.776-2.1a8.487,8.487,0,0,1,.9-.483c-.095.552-.124.891-.216,1.211-.124.428-.359.832-.437,1.265-.165.92.171,1.22,1.055.927,1.531-.507,3.037-1.085,4.566-1.592a4.834,4.834,0,0,1,1.9-.228c-1.829,2.332-4.329,3.906-6.6,6.221.776.133,1.251.241,1.734.291,1.33.135,1.556.622.8,1.736-2.277,3.335-5.655,5.017-9.344,6.23-.958.316-1.919.625-2.891.884a9.775,9.775,0,0,1-1.434.178c-.043-.126-.086-.253-.126-.379a12.765,12.765,0,0,1,1.249-.744c2.038-.929,4.14-1.736,6.115-2.783a8.062,8.062,0,0,0,2.244-2.151,1.355,1.355,0,0,0-.131-1.279,1.444,1.444,0,0,1-.018-2.171,1.8,1.8,0,0,0-1.085-2.911,27.848,27.848,0,0,0-4.889-.589,1.85,1.85,0,0,1-1.948-1.518Z" transform="translate(-90.571 -105.372)" fill="#fff"/>
      <path id="Path_2898" data-name="Path 2898" d="M13.487,141.865c1.267.41,2.535.823,3.8,1.229a7.644,7.644,0,0,0,1.5.44,7.163,7.163,0,0,0,1.488-.156c-.092-.446-.2-.888-.277-1.337-.056-.307-.083-.618-.126-.925l.257-.2c.7.455,1.391.913,2.09,1.366,1.54,1,1.682.967,2.616-.55.94.514,1.887,1.031,3.006,1.644a5.209,5.209,0,0,1-1.03.284c-1.38.086-2.771.061-4.142.221a4.39,4.39,0,0,0-1.845.751,1.945,1.945,0,0,0-.485,2.925c.552.688.625,1.213-.061,1.822-.934.83-.426,1.689.253,2.205a34.479,34.479,0,0,0,4.4,2.846,35,35,0,0,0,3.551,1.4,8.012,8.012,0,0,1,1.073.638c-.043.117-.088.235-.131.352a18.564,18.564,0,0,1-2.352-.618c-1.766-.708-3.538-1.421-5.229-2.282a13.42,13.42,0,0,1-4.891-4.212c-.627-.879-.532-1.076.48-1.348a15.883,15.883,0,0,0,1.61-.62,9.086,9.086,0,0,0-1.062-1.466c-1.317-1.224-2.688-2.392-4.05-3.567a5.121,5.121,0,0,0-.753-.451l.3-.39Z" transform="translate(-10.208 -109.144)" fill="#fff"/>
      <path id="Path_2899" data-name="Path 2899" d="M185.735,162.677l-1.085-.58c.219-.311.372-.78.667-.9a18.7,18.7,0,0,1,2.785-.868c.253-.061.58.187.873.293-.131.289-.185.728-.406.839-.922.462-1.9.823-2.837,1.215Z" transform="translate(-143.013 -124.168)" fill="#fff"/>
      <path id="Path_2900" data-name="Path 2900" d="M178.507,194.2a17.852,17.852,0,0,1-1.905-.607.821.821,0,0,1-.4-.679c.068-.262.417-.663.609-.643a7.675,7.675,0,0,1,2.1.5,1.03,1.03,0,0,1,.4.909c-.047.223-.525.356-.8.519Z" transform="translate(-136.462 -148.913)" fill="#fff"/>
      <path id="Path_2901" data-name="Path 2901" d="M180.93,122.883c-.528.688-1.033,1.394-1.6,2.045-.113.131-.46.059-.7.079.034-.232-.016-.543.115-.683.577-.611,1.206-1.175,1.817-1.754l.368.311Z" transform="translate(-138.351 -94.932)" fill="#fff"/>
      <path id="Path_2902" data-name="Path 2902" d="M12.92,122.883c.528.688,1.033,1.394,1.6,2.045.113.131.46.059.7.079-.034-.232.016-.543-.115-.683-.577-.611-1.206-1.175-1.817-1.754l-.368.311Z" transform="translate(-10.007 -94.932)" fill="#fff"/>
      <path id="Path_2903" data-name="Path 2903" d="M105.633,61.5c.4.435.762.656.751.855a4.09,4.09,0,0,1-.4,1.31c-.036.086-.318.068-.487.1a7.343,7.343,0,0,1-.1-1.037A9.455,9.455,0,0,1,105.633,61.5Z" transform="translate(-81.629 -47.632)" fill="#fff"/>
      <path id="Path_2904" data-name="Path 2904" d="M94.75,62.308c1.091-.027,1.5.936.823,2.338C95.257,63.747,95.009,63.043,94.75,62.308Z" transform="translate(-73.385 -48.258)" fill="#fff"/>
      <path id="Path_2905" data-name="Path 2905" d="M3.24,162.447l1.085-.58c-.219-.311-.372-.78-.667-.9A18.7,18.7,0,0,0,.873,160.1c-.253-.061-.58.187-.873.293.131.289.185.728.406.839.922.462,1.9.823,2.837,1.215Z" transform="translate(0 -123.99)" fill="#fff"/>
      <path id="Path_2906" data-name="Path 2906" d="M18.816,194.2a17.851,17.851,0,0,0,1.905-.607.821.821,0,0,0,.4-.679c-.068-.262-.417-.663-.609-.643a7.675,7.675,0,0,0-2.1.5,1.03,1.03,0,0,0-.4.909c.047.223.525.356.8.519Z" transform="translate(-13.948 -148.913)" fill="#fff"/>
    </g>
    <path id="Path_2907" data-name="Path 2907" d="M59.59,171.444a2.565,2.565,0,0,1,.548.086c2.83,1.524,5.757-.077,6.147-3.355a7.526,7.526,0,0,1,.3-1.064c.85.882.726,1.982-.239,3.563-1.134,1.86-3.4,3-5.019,2.431-.719-.253-1.693-.388-1.732-1.657h0Z" transform="translate(-46.153 -129.428)" fill="#fff"/>
    <path id="Path_2908" data-name="Path 2908" d="M110.054,167.727a5.16,5.16,0,0,1,.221.9,4.637,4.637,0,0,0,2.275,3.56,2.787,2.787,0,0,0,3.455.088,1.223,1.223,0,0,1,.979-.16c-.117.257-.165.618-.363.753a3.472,3.472,0,0,1-3.583.6,5.527,5.527,0,0,1-3.588-4.514,4.871,4.871,0,0,1,.171-1.224c.144,0,.289,0,.433-.007Z" transform="translate(-84.763 -129.901)" fill="#fff"/>
    <path id="Path_2909" data-name="Path 2909" d="M57.858,165.416a3.592,3.592,0,0,0-.505-.171c-.449-.065-.9-.115-1.348-.169,0,.564-.2,1.227.023,1.673a2.191,2.191,0,0,0,2.983.627c.354-.183.742-.3,1.114-.451l.21.3a3.9,3.9,0,0,1-.64.769,3.746,3.746,0,0,1-4.433-.661,2.3,2.3,0,0,1,.985-3.545c.884-.354,1.768.46,1.612,1.624Z" transform="translate(-42.426 -126.795)" fill="#fff"/>
    <path id="Path_2910" data-name="Path 2910" d="M123.46,166.818c.514.214.9.347,1.263.528a2.251,2.251,0,0,0,2.7-.341,1.346,1.346,0,0,0,.264-1.914c-.476-.692-.963-.183-1.425.129a1.1,1.1,0,0,1-.415.077,1.28,1.28,0,0,1,1.463-1.6,2.377,2.377,0,0,1-.728,4.623,12.229,12.229,0,0,1-1.678-.02c-.688-.108-1.387-.311-1.439-1.481h0Z" transform="translate(-95.621 -126.751)" fill="#fff"/>
  </g>
</svg>
