<svg id="smoke-bomb" xmlns="http://www.w3.org/2000/svg" width="60" height="60" viewBox="0 0 60 60">
  <rect id="Rectangle_3344" data-name="Rectangle 3344" width="60" height="60" fill="none"/>
  <g id="Layer_1-2" transform="translate(7 4)">
    <g id="Group_84" data-name="Group 84" transform="translate(0 0)">
      <path id="Path_3001" data-name="Path 3001" d="M12.768,8.077c-.313-.843-.763-1.555.128-2.177a2.119,2.119,0,0,1,2.719.061c.7.483,1.336,1.051,2,1.58l.265-.223c-.17-.282-.336-.565-.515-.843A14.665,14.665,0,0,1,16.356,4.91,1.541,1.541,0,0,1,16.9,2.954,4.108,4.108,0,0,1,23.483,4.6a2.636,2.636,0,0,0,.641.943A1.727,1.727,0,0,0,23.607,3.4c-.985-.962-.721-1.605.3-2.408A3.55,3.55,0,0,1,27.331.174a2.722,2.722,0,0,0,1.332,0,3.91,3.91,0,0,1,4.143,1.555,1.642,1.642,0,0,1-.095,1.263c-.24.567-.683,1.044-.952,1.6a2.3,2.3,0,0,0-.021.91l.29.069c.355-.641.664-1.309,1.072-1.914A4.019,4.019,0,0,1,39.151,3a2.111,2.111,0,0,1-.1,3.158c-.332.309-.632.649-.948.977l.307.357a11.224,11.224,0,0,1,1.114-.843,7.212,7.212,0,0,1,2.271-1.16C43.15,5.278,43.778,6.36,43.351,8A4.114,4.114,0,0,0,44,8.2a3.66,3.66,0,0,1,3.463,4.368,1.69,1.69,0,0,0,.311,1.055,5.466,5.466,0,0,1,.849,3.612,2.264,2.264,0,0,1-1.651,2.078c-.67.261-1.29.649-1.939.969a10.442,10.442,0,0,1-1.326.607,1.191,1.191,0,0,1-1.681-.773,18.273,18.273,0,0,1-1.078-2.946,4.021,4.021,0,0,1,.485-1.992,1.6,1.6,0,0,1,1.118.208c.441.437.082.677-.412.84-.674.225-.595.7-.206,1.143a1.692,1.692,0,0,0,2.729-.05,6.873,6.873,0,0,0,1.017-2.044,1.374,1.374,0,0,0-.233-1.059,3.937,3.937,0,0,0-3.408-1.162,3.358,3.358,0,0,0-2.473,3.284,14.782,14.782,0,0,0,2.887,7.877c1.469,1.983,1.406,2.887-.37,4.582a1.768,1.768,0,0,0-.519.878,3.322,3.322,0,0,1-1.723,2.265,2.085,2.085,0,0,1-2.364.1c-.8-.485-1.725-.782-2.5-1.3a2.3,2.3,0,0,1-.99-3.08c.481-.893,1.061-.952,1.738-.2.143.158.475.361.569.3a1.06,1.06,0,0,0,.443-.632,1.417,1.417,0,0,0-1.784-1.494,9.974,9.974,0,0,0-1.641.67c-.33.137-.666.258-1.065.414a2.859,2.859,0,0,1,4.238-2.471,1.3,1.3,0,0,0,.761.277c1.383-.252,1.965.63,2.467,1.651a2.659,2.659,0,0,1-.513,2.933c-.571.756-1.25,1.4-2.259.527-.122-.105-.372-.065-.647-.105a1.007,1.007,0,0,0,1.263.977,2.907,2.907,0,0,0,2.729-1.78,3.455,3.455,0,0,0-.483-3.835,6.636,6.636,0,0,0-2.049-1.118c-.277-.132-.645-.088-.906-.237-2.055-1.189-3.965-.391-5.062,2.107a35.054,35.054,0,0,0-2.927,12.3c-.059,1.116-.271,2.223-.412,3.334h-.437a8.914,8.914,0,0,1-.24-1.223c-.189-3.221-.332-6.463-1.473-9.516a37.192,37.192,0,0,0-2.723-5.885c-1.055-1.784-2.328-1.988-4.238-1.181a4.563,4.563,0,0,1-1.107.3,3.118,3.118,0,0,0-2.7,2.427,4.085,4.085,0,0,0,1.093,3.753,2.166,2.166,0,0,0,3.181-.319c-.214-.029-.456-.141-.571-.063-.746.5-1.391.677-2.105-.124a3.007,3.007,0,0,1-.937-2.946,2.494,2.494,0,0,1,2.557-1.971,3.164,3.164,0,0,0,1.12-.506c1.17-.658,3.351.265,3.568,1.559.023.139-.391.5-.595.494a3.493,3.493,0,0,1-.969-.372,1.453,1.453,0,0,0-2.011.794c-.147.334.118.851.193,1.286a3.643,3.643,0,0,1,.786-.536c.355-.126.872-.315,1.111-.158a1.787,1.787,0,0,1,.431,2.668,7.9,7.9,0,0,1-2.091,1.679,10.723,10.723,0,0,1-2.45.9c-1.139.313-2.929-1.08-3.32-2.378a3.093,3.093,0,0,0-.964-1.458,2.771,2.771,0,0,1-.3-3.929,35.735,35.735,0,0,0,2.937-4.791,9.842,9.842,0,0,0,.7-3.372c.137-1.544-.937-2.794-2.662-3.328a3.767,3.767,0,0,0-3.662,1.265c-.124.187-.254.54-.166.668a16.891,16.891,0,0,0,2.12,2.755c.279.265,1.21.105,1.681-.155.576-.319.933-.912-.011-1.422-.191-.1-.174-.588-.252-.9.376-.055.866-.286,1.1-.13a1.485,1.485,0,0,1,.637,1.834c-.4,1.118-.788,2.25-1.3,3.322a1.3,1.3,0,0,1-1.04.639,12.788,12.788,0,0,1-2.286-.866,8.46,8.46,0,0,0-1.567-.7A2.252,2.252,0,0,1,7.4,17.254a5.585,5.585,0,0,1,.819-3.622,1.814,1.814,0,0,0,.3-1.154A3.665,3.665,0,0,1,11.7,8.238c.3-.055.614-.088,1.069-.151ZM24.1,23.165c-.275-1.521-2.139-2.639-3.868-2.519-.975.067-1.406.385-1.528,1.355,2.309-1.775,3.763.006,5.394,1.164Zm7.692-.319c.076.078.151.153.225.231A10.485,10.485,0,0,1,34.6,21.471a9.377,9.377,0,0,1,2.977.2,2.613,2.613,0,0,0-2.855-.981C33.352,20.9,32.667,22,31.791,22.845ZM14.3,8.238c1.277.58,2.57,1.164,3.965,1.8A3.26,3.26,0,0,0,14.3,8.238Zm23.528,1.813,3.563-1.767A2.858,2.858,0,0,0,37.826,10.052Z" transform="translate(-5.836 -0.016)" fill="#fff"/>
      <path id="Path_3002" data-name="Path 3002" d="M135.836,154.707c-.315.826-.656,1.643-.929,2.481a4.814,4.814,0,0,0-.1,1.082,5,5,0,0,0,1.183-.067c1.939-.586,3.864-1.227,5.8-1.822a5.014,5.014,0,0,1,1.149-.01,6.605,6.605,0,0,1-.677.866c-1.935,1.666-3.889,3.307-5.816,4.982a4.136,4.136,0,0,0-.609.9c.311.111.62.225.933.332q.9.309,1.8.614a9.793,9.793,0,0,1-.855,1.712c-2.324,3.042-5.6,4.664-9.077,5.955-1.141.424-2.278.868-3.442,1.223a4.8,4.8,0,0,1-1.347.021c-.036-.143-.071-.286-.105-.429,1.254-.536,2.5-1.088,3.765-1.605,2.3-.943,4.612-1.855,6.274-3.849.876-1.051.916-1.208-.055-2.128a1.152,1.152,0,0,1-.176-1.811c1.114-1.364.733-2.723-.952-3.3a8.464,8.464,0,0,0-2.156-.376,31.108,31.108,0,0,0-3.253-.057c-1.172.044-1.664-.735-2.095-1.6a.749.749,0,0,1,.092-.645.582.582,0,0,1,.563,0c1.158,1.16,1.836.214,2.563-.553.943-1,1.261-.935,1.725.4.284.822.735.828,1.345.363,1.057-.8,2.112-1.614,3.179-2.4a9.322,9.322,0,0,1,.935-.54l.34.269Z" transform="translate(-97.751 -121.994)" fill="#fff"/>
      <path id="Path_3003" data-name="Path 3003" d="M.17,156.495a6.863,6.863,0,0,1,1.145.16c1.935.6,3.856,1.246,5.793,1.841a1.006,1.006,0,0,0,.853-.092c.143-.156.084-.584,0-.855-.3-.9-.645-1.786-.973-2.675.1-.074.2-.149.294-.223a6.44,6.44,0,0,1,.927.481c1.072.786,2.122,1.6,3.185,2.4.729.546,1.078.435,1.376-.422.416-1.2.733-1.273,1.633-.387q.375.369.735.75a1.036,1.036,0,0,0,1.57.122,2.824,2.824,0,0,1,1-.256,4.434,4.434,0,0,1-.221,1.044,2.118,2.118,0,0,1-2.122,1.217,43.321,43.321,0,0,0-4.7.3,3.092,3.092,0,0,0-1.452.763,1.5,1.5,0,0,0-.164,2.439c.826.983.857,1.233-.109,2.067-.8.691-.618,1.286-.057,1.969a12,12,0,0,0,4.891,3.33c1.29.536,2.6,1.032,3.881,1.582a14.574,14.574,0,0,1,1.378.771c-.034.122-.065.244-.1.366a3.6,3.6,0,0,1-1.166-.017c-3.492-1.294-7.163-2.252-10.1-4.688a29.95,29.95,0,0,1-3.278-3.5c-.506-.58-.271-1.055.464-1.21.477-.1.975-.095,1.456-.179.223-.04.6-.181.605-.279a1.009,1.009,0,0,0-.294-.7c-1.79-1.563-3.6-3.1-5.406-4.652-.412-.355-.8-.733-1.2-1.1.055-.122.109-.246.162-.368Z" transform="translate(-0.01 -122.16)" fill="#fff"/>
      <path id="Path_3004" data-name="Path 3004" d="M63.94,196.248a2.394,2.394,0,0,1,.511.08c2.637,1.42,5.364-.071,5.728-3.126a7.011,7.011,0,0,1,.277-.992c.792.822.677,1.847-.223,3.32-1.057,1.733-3.166,2.8-4.677,2.265-.67-.235-1.578-.361-1.614-1.544Z" transform="translate(-50.508 -151.828)" fill="#fff"/>
      <path id="Path_3005" data-name="Path 3005" d="M114.363,192.826a4.808,4.808,0,0,1,.206.84,4.32,4.32,0,0,0,2.12,3.318,2.6,2.6,0,0,0,3.219.082,1.139,1.139,0,0,1,.912-.149c-.109.24-.153.576-.338.7a3.235,3.235,0,0,1-3.339.555,5.15,5.15,0,0,1-3.343-4.206,4.538,4.538,0,0,1,.16-1.141c.134,0,.269,0,.4-.006Z" transform="translate(-89.885 -152.31)" fill="#fff"/>
      <path id="Path_3006" data-name="Path 3006" d="M62,190.4a3.346,3.346,0,0,0-.471-.16c-.418-.061-.838-.107-1.256-.158,0,.525-.189,1.143.021,1.559a2.042,2.042,0,0,0,2.78.584c.33-.17.691-.282,1.038-.42l.2.284a3.629,3.629,0,0,1-.6.716,3.491,3.491,0,0,1-4.131-.616,2.141,2.141,0,0,1,.918-3.3C61.32,188.557,62.143,189.316,62,190.4Z" transform="translate(-46.706 -149.142)" fill="#fff"/>
      <path id="Path_3007" data-name="Path 3007" d="M127.81,191.7c.479.2.838.324,1.177.492a2.1,2.1,0,0,0,2.515-.317,1.254,1.254,0,0,0,.246-1.784c-.443-.645-.9-.17-1.328.12a1.022,1.022,0,0,1-.387.071,1.193,1.193,0,0,1,1.364-1.492,2.215,2.215,0,0,1-.679,4.307,11.4,11.4,0,0,1-1.563-.019c-.641-.1-1.292-.29-1.341-1.38Z" transform="translate(-100.958 -149.097)" fill="#fff"/>
    </g>
  </g>
</svg>
