<svg id="spirit-kunai" xmlns="http://www.w3.org/2000/svg" width="60" height="60" viewBox="0 0 60 60">
  <rect id="Rectangle_3329" data-name="Rectangle 3329" width="60" height="60" fill="none"/>
  <g id="Layer_1-2" transform="translate(11 11)">
    <g id="Group_76" data-name="Group 76" transform="translate(0 0)">
      <path id="Path_2911" data-name="Path 2911" d="M79.861,9.543c-.587.478-1.161.973-1.761,1.435-2.425,1.864-4.8,3.8-7.312,5.545A7.105,7.105,0,0,1,65.727,18.1a4.64,4.64,0,0,1-2.005-.944.9.9,0,0,1,.256-1.525c.44-.215.916-.252.8.462-.14.848.366.883.927.786a1.434,1.434,0,0,0,1.314-1.531,7.422,7.422,0,0,0-.714-2.576c-.372-.767-.425-.982.362-1.312A174.817,174.817,0,0,0,84.576,2.382c1.334-.749,2.666-1.5,4.013-2.228A2.889,2.889,0,0,1,89.4-.01a2.694,2.694,0,0,1-.145.835c-1.343,2.51-2.791,4.966-4.057,7.512-2.407,4.848-4.716,9.744-7.056,14.623-.475.99-.458,1-1.284.32a3.01,3.01,0,0,0-3.257-.429,2.389,2.389,0,0,0-.852,1.126c-.184.532.009.97.738.9a2.365,2.365,0,0,1,.7.147c-.109.294-.136.679-.342.867a1,1,0,0,1-1.545-.1,3.4,3.4,0,0,1-.773-3.085,12.579,12.579,0,0,1,2.447-5.291c1.663-2.234,3.468-4.362,5.209-6.537.3-.375.587-.76.879-1.139l-.21-.2Z" transform="translate(-51.731 0.01)" fill="#fff"/>
      <path id="Path_2912" data-name="Path 2912" d="M4.985,155.977a4.02,4.02,0,0,1-4.673-3.119c-.7-2.265-.39-4.99,2.653-5.2,2.714-.184,4.975-1.406,7.334-2.484a4.781,4.781,0,0,1,1.012-.219,5.818,5.818,0,0,1-.224.986c-.69,1.663-1.453,3.3-2.09,4.982a8.352,8.352,0,0,0-.35,2.164c-.2,2.123-.964,2.85-3.109,2.883-.184,0-.368,0-.552,0Zm1.8-4.322a2.182,2.182,0,1,0-4.364.011,2.3,2.3,0,0,0,2.189,2.267A2.293,2.293,0,0,0,6.783,151.655Z" transform="translate(-0.002 -118.287)" fill="#fff"/>
      <path id="Path_2913" data-name="Path 2913" d="M11.861,112.513a2.079,2.079,0,0,0-.7-.329,3.508,3.508,0,0,0-1.6.118,1.226,1.226,0,0,0-.408,1.132c.307.453.9,1.025,1.349,1.006a6.53,6.53,0,0,0,2.905-.7c2.173-1.244,4.241-2.671,6.338-4.044.819-.535,1.6-1.128,2.41-1.678a1.448,1.448,0,0,1,.482-.116c.052.066.1.134.153.2-.5.491-1,1-1.516,1.474a28.284,28.284,0,0,1-7.028,5.271,8.058,8.058,0,0,1-4.432.97,2.852,2.852,0,0,1-2.69-3.027,2.965,2.965,0,0,1,1.853-2.327,2.346,2.346,0,0,1,2.706.839,4.507,4.507,0,0,1,.436,1.052l-.25.162Z" transform="translate(-5.795 -88.046)" fill="#fff"/>
      <path id="Path_2914" data-name="Path 2914" d="M65.967,114.612c-1.26,1.836-2.579,3.636-3.764,5.52a35.854,35.854,0,0,0-2.434,4.519,5.382,5.382,0,0,0-.327,2.506,1.906,1.906,0,0,0,.948,1.185,1.154,1.154,0,0,0,1.067-.388,4.063,4.063,0,0,0,.283-1.514c.011-.1-.149-.2-.175-.313a6.194,6.194,0,0,1-.09-.664c.256.02.567-.046.756.075a2.3,2.3,0,0,1,1.3,2.167,2.66,2.66,0,0,1-1.724,2.4,2.579,2.579,0,0,1-3.56-1.741,7.234,7.234,0,0,1,.607-5.093c1.588-3.5,4.237-6.167,6.831-8.876l.289.212Z" transform="translate(-47.336 -93.35)" fill="#fff"/>
      <path id="Path_2915" data-name="Path 2915" d="M42.889,109.833a7.175,7.175,0,0,1-3.569,2.1,2.45,2.45,0,0,1-2.329-.4,1.371,1.371,0,0,1-.565-.686,4.892,4.892,0,0,1,0-1.205,4.373,4.373,0,0,1,.914.407,3.4,3.4,0,0,0,3.314.315c.707-.23,1.389-.535,2.083-.806Z" transform="translate(-29.69 -89.392)" fill="#fff"/>
      <path id="Path_2916" data-name="Path 2916" d="M88,135.99c-.191.554-.344,1.025-.515,1.49-.569,1.551-.937,3.073.464,4.423.1.1.156.4.088.478a.838.838,0,0,1-.548.221,1.927,1.927,0,0,1-1.821-1.851,6.348,6.348,0,0,1,1.921-4.69c.044-.05.166-.031.414-.07Z" transform="translate(-69.896 -110.968)" fill="#fff"/>
    </g>
  </g>
</svg>
