<svg id="sticky-bomb" xmlns="http://www.w3.org/2000/svg" width="60" height="60" viewBox="0 0 60 60">
  <rect id="Rectangle_3330" data-name="Rectangle 3330" width="60" height="60" fill="none"/>
  <g id="Layer_1-2" transform="translate(7 5)">
    <g id="Group_77" data-name="Group 77" transform="translate(0 0)">
      <path id="Path_2917" data-name="Path 2917" d="M7.789,40.74A24.587,24.587,0,0,1,5.271,38.2C1.677,33.378-.512,28.085.1,21.918c.021-.215-.039-.481.066-.631a1.463,1.463,0,0,1,.708-.6c.151-.039.475.285.6.512A30.792,30.792,0,0,1,2.9,24.012a3.865,3.865,0,0,1,.217,1.49c0,1.118-.08,2.235-.091,3.353-.008.836.433,1.273,1.234.912,2.34-1.056,4.719-2.063,6.947-3.324,1.568-.885,1.609-1.917.427-4.118C10.848,20.86,9.862,19.5,9,18.078a17.64,17.64,0,0,1-.79-1.766c1.789.625,3.225,1.127,4.659,1.632.243.085.47.215.718.287,3.008.869,3.988.163,4.869-3.58.394-1.671.669-3.369,1.083-5.035.105-.423.536-.766.817-1.145a7.775,7.775,0,0,1,.679,1.1C22.034,11.975,23,14.4,24,16.805a.909.909,0,0,0,.619.51c.177.006.468-.328.532-.561.811-2.887,1.55-5.794,2.385-8.672C28.253,5.624,29.064,3.2,29.852.76a1.242,1.242,0,0,1,.722-.73c-.293,5.827-2.257,11.363-2.967,17.442C32.621,14.391,36.073,9.9,40.654,6.856l.293.293c-.714.821-1.395,1.673-2.154,2.451-.559.574-.658.9.029,1.537a21.677,21.677,0,0,1,5.418,8.606,21.047,21.047,0,0,1,1.337,8.976A3.061,3.061,0,0,1,45.4,29.85a1.062,1.062,0,0,1-.77.539c-.227,0-.516-.357-.662-.621a23.4,23.4,0,0,1-1.31-2.612,3.878,3.878,0,0,1-.272-1.708A18.956,18.956,0,0,0,37.948,11.6a1.138,1.138,0,0,0-1.11.019c-1.329,1.331-2.581,2.738-3.858,4.121.06.149.122.3.182.448l4.676-1.525c.074.118.146.235.221.353a15.278,15.278,0,0,1-.933,1.267,39.3,39.3,0,0,0-6.05,8.134c-.6,1.164-.65,2.235.516,2.932,2.2,1.314,4.444,2.573,6.747,3.7,1.415.691,2.984,1.065,4.463,1.632a5.452,5.452,0,0,1,1.089.749l-.07.355a6.145,6.145,0,0,1-1.244.138c-3.848-.355-7.694-.745-11.544-1.1a7.626,7.626,0,0,0-1.543.095c-1.805.2-2.447.84-2.412,2.684.029,1.541.256,3.081.39,4.62.074.858.142,1.717.213,2.575L27,43.222a9.452,9.452,0,0,0-.732-1.314c-.957-1.211-1.915-2.429-2.955-3.568-2.152-2.352-2.6-2.4-5.4-.883-.642.347-1.288.685-1.94,1.009-.755.373-1.155.19-1.1-.716.07-1.073.153-2.146.173-3.219a1.59,1.59,0,0,0-1.531-1.748c-2.979-.419-5.959-.84-8.943-1.23-.784-.1-1.153.631-.658,1.7.73,1.585,1.6,3.107,2.48,4.616.52.893,1.172,1.711,1.764,2.563l-.369.316ZM24.9,22.531a4.238,4.238,0,0,1-.347,1.564c-.6.8-.2,1.461.111,2.136a3.868,3.868,0,0,0,.9,1.37,5.478,5.478,0,0,0,1.494.644c.027-.456.056-.914.095-1.574C28.3,25.585,27.526,23.882,24.9,22.531Zm-2.317,5.008c-.05-1.455-.477-1.7-1.708-1.147-.421.188-.99.124-1.331.386s-.794.986-.675,1.17a6.335,6.335,0,0,0,1.723,1.814,1.4,1.4,0,0,0,1.349-.305,6.972,6.972,0,0,0,.642-1.917ZM17.4,22.646a3.336,3.336,0,0,0,.126,1.213c.155.345.683.5.931.825a1.844,1.844,0,0,0,3.244-.221c.508-.951.173-1.385-.759-1.5-1.11-.138-2.23-.2-3.543-.318Zm6.823,4.663c-.3,1.283-.543,2.319-.827,3.537.935-.456,1.76-.856,2.693-1.31L24.227,27.31Z" transform="translate(0.003 -0.03)" fill="#fff"/>
      <path id="Path_2918" data-name="Path 2918" d="M24.712,27.55a5.187,5.187,0,0,1,.58-1.255,21.143,21.143,0,0,1,10.457-6.2,18.677,18.677,0,0,1,8.128-.4.671.671,0,0,1,.47.39c-.646.083-1.288.2-1.935.239A18.379,18.379,0,0,0,30.12,25.755a3.712,3.712,0,0,1-3.134,1.389,9.913,9.913,0,0,0-2.276.409Z" transform="translate(-19.611 -15.42)" fill="#fff"/>
      <path id="Path_2919" data-name="Path 2919" d="M105.3,195.68c1.574-.349,3.14-.733,4.721-1.042a15.882,15.882,0,0,0,8.462-4.76,3.279,3.279,0,0,1,2.866-1.36,5.575,5.575,0,0,0,1.481-.336,8,8,0,0,1,1.046-.062c-.105.384-.087.908-.336,1.129A27.154,27.154,0,0,1,119,193c-3.613,2-7.467,3.442-11.734,3.142-.671-.047-1.337-.153-2.006-.231.012-.078.025-.157.039-.235Z" transform="translate(-83.541 -149.31)" fill="#fff"/>
      <path id="Path_2920" data-name="Path 2920" d="M47.88,193.384c1.228-1.581,2.391-3.217,3.7-4.723a21.963,21.963,0,0,1,3.386-3.242A21.093,21.093,0,0,1,58.4,183.69c.1.111.2.223.3.334q-1.941,5.565-3.883,11.132l-.646-.149q.483-3.73.968-7.457c-.1-.056-.192-.113-.289-.169l-6.485,6.473Z" transform="translate(-38 -145.794)" fill="#fff"/>
      <path id="Path_2921" data-name="Path 2921" d="M68.583,61.076q-.263,1-.528,1.991a13.855,13.855,0,0,1-1.717-1.118c-1.987-1.75-1.948-1.919.468-3.054,1.118-.524,1.609-.229,1.628.984.006.384,0,.768,0,1.153.05.014.1.029.146.045Z" transform="translate(-51.521 -46.552)" fill="#fff"/>
      <path id="Path_2922" data-name="Path 2922" d="M104.48,202.138a7.216,7.216,0,0,1,.062-2.21c.134-.394.883-.58,1.358-.858.068.419.3.9.171,1.248a13.817,13.817,0,0,1-1.038,1.968l-.551-.149Z" transform="translate(-82.877 -158.001)" fill="#fff"/>
      <path id="Path_2923" data-name="Path 2923" d="M163.119,114.84c.124,1.042,1.71,1.4.66,2.325a2.152,2.152,0,0,1-2.065-.4c-.584-1.011.584-1.232,1.4-1.927Z" transform="translate(-128.221 -91.151)" fill="#fff"/>
    </g>
  </g>
</svg>
