<svg id="the-mist-of-yagata" xmlns="http://www.w3.org/2000/svg" width="60" height="60" viewBox="0 0 60 60">
  <rect id="Rectangle_3345" data-name="Rectangle 3345" width="60" height="60" fill="none"/>
  <g id="Layer_1-2" transform="translate(3 4)">
    <g id="Group_85" data-name="Group 85" transform="translate(0 0)">
      <path id="Path_3008" data-name="Path 3008" d="M50.812,41.253c-.078-.38-.185-.758-.229-1.145-.273-2.4-.418-4.816-.828-7.188a23.6,23.6,0,0,0-3.3-8.23c-1.095-1.788-2.41-2.042-4.326-1.229a4.136,4.136,0,0,1-1.107.3,2.989,2.989,0,0,0-2.666,2.334,3.466,3.466,0,0,0,1.055,3.732,4.617,4.617,0,0,0,2.353.605c.279.032.607-.385.912-.6l-.113-.248c-.185-.019-.439-.124-.546-.042a1.4,1.4,0,0,1-2.179-.223,2.892,2.892,0,0,1-.824-2.878c.41-1.351,1.078-1.788,2.576-1.944a3.262,3.262,0,0,0,1.114-.511c1.187-.66,3.326.269,3.545,1.586.023.134-.4.494-.593.479a4.8,4.8,0,0,1-1.074-.4,1.429,1.429,0,0,0-1.916.815c-.147.33.122.847.2,1.28a4.057,4.057,0,0,1,.782-.55c.33-.137.8-.336,1.042-.2a1.841,1.841,0,0,1,.574,2.658,5.6,5.6,0,0,1-1.7,1.494,14.1,14.1,0,0,1-3.009,1.179c-1.114.3-2.832-1.13-3.21-2.385a3.085,3.085,0,0,0-.962-1.46,2.782,2.782,0,0,1-.326-3.931A36.768,36.768,0,0,0,39,19.763a9.636,9.636,0,0,0,.7-3.261c.162-1.618-.775-2.788-2.54-3.408A3.662,3.662,0,0,0,33.392,14.3c-.128.183-.273.519-.193.662.59,1.044.912,2.288,2.141,2.874a1.487,1.487,0,0,0,1.887-.406c.4-.422.475-.8-.116-1.2-.229-.158-.248-.624-.363-.95.429-.013.99-.2,1.263,0a1.478,1.478,0,0,1,.418,1.889c-.389.935-.767,1.878-1.078,2.843-.252.782-.765,1.135-1.5.916a16.217,16.217,0,0,1-2.051-.922,6.7,6.7,0,0,0-1.49-.635,2.278,2.278,0,0,1-2.1-2.229,5.528,5.528,0,0,1,.882-3.6,1.623,1.623,0,0,0,.263-1.059,3.648,3.648,0,0,1,3.036-4.244c.33-.076.664-.132.988-.2-.2-1.9.727-3.011,2.126-2.521a9.382,9.382,0,0,1,2,1.3c.326.223.635.473.952.708l.258-.214c-.168-.279-.326-.567-.506-.838a15.838,15.838,0,0,1-.988-1.456,1.606,1.606,0,0,1,.572-2.128,4.129,4.129,0,0,1,6.518,1.685,2.3,2.3,0,0,0,.67.933,2.244,2.244,0,0,0-.611-2.246c-.75-.975-.758-1.311.145-2.1A3.724,3.724,0,0,1,50.18.173a2.334,2.334,0,0,0,1.231.021,3.859,3.859,0,0,1,4.059,1.3A.98.98,0,0,1,55.464,3.1a2.609,2.609,0,0,0-.948,2.322l.3.149a5.9,5.9,0,0,0,.506-.855,4.076,4.076,0,0,1,6.35-1.977,2.1,2.1,0,0,1,.187,3.412c-.345.313-.641.681-.96,1.023.113.116.225.233.338.349a6.807,6.807,0,0,1,1.118-.912,6.966,6.966,0,0,1,2.6-1.093c1.259-.05,1.635.868,1.238,2.479a17.586,17.586,0,0,1,1.769.481,3.3,3.3,0,0,1,2.336,3.99,2.774,2.774,0,0,0,.256,1.072,16.16,16.16,0,0,1,.864,2.759c.229,1.857-.353,2.536-2.156,3.131a6.256,6.256,0,0,0-1.509.912c-1.559,1.08-2.532.809-3.217-.933a8.683,8.683,0,0,1-.719-2.074,5.4,5.4,0,0,1,.3-2.065c.046-.158.614-.261.912-.212a.763.763,0,0,1,.479.582c-.027.208-.336.431-.574.548-.572.284-.563.666-.237,1.1a1.5,1.5,0,0,0,2.292.372,10.987,10.987,0,0,0,1.555-2.731c.084-.17-.105-.544-.263-.75a4.06,4.06,0,0,0-3.423-1.141,3.326,3.326,0,0,0-2.46,3.177,14.5,14.5,0,0,0,3.011,8.142c1.286,1.693,1.172,2.9-.422,4.366a2.176,2.176,0,0,0-.635,1.04,3.4,3.4,0,0,1-2.263,2.427c-.282.116-.683.254-.906.141a30.747,30.747,0,0,1-4.064-2.286,1.959,1.959,0,0,1-.076-2.757c.462-.487.948-.744,1.448.023.132.2.471.267.716.4a2.452,2.452,0,0,0,.361-.813,1.468,1.468,0,0,0-2-1.238c-.658.214-1.256.6-1.9.885a2.008,2.008,0,0,1-.588.063,2.838,2.838,0,0,1,4.2-2.4,1.5,1.5,0,0,0,.866.288c1.4-.2,1.939.737,2.416,1.744a2.646,2.646,0,0,1-.595,2.916c-.567.712-1.246,1.3-2.2.473-.126-.109-.372-.078-.563-.113-.061.1-.122.2-.181.3.37.235.746.674,1.109.662a4.849,4.849,0,0,0,2-.5c.92-.475,1.509-2.353,1.261-3.584a3.27,3.27,0,0,0-2.568-2.6,6.556,6.556,0,0,1-1.408-.372c-1.723-.725-3.045-.546-4.034,1.04a21.786,21.786,0,0,0-2.042,4.662,38.341,38.341,0,0,0-1.811,10.52,9.477,9.477,0,0,1-.359,1.637l-.361-.015Zm.332-34.086c-.315,0-.63,0-.945,0-1.362.019-1.607.277-1.559,1.6.021.595.032,1.189.044,1.782a.937.937,0,0,1-1.093,1.08c-.733-.017-1.469-.019-2.2-.04-.784-.023-1.183.349-1.17,1.13.015.874.061,1.746.074,2.62a.9.9,0,0,0,1.061.994c.595-.017,1.187-.055,1.782-.074,1.3-.042,1.57.212,1.559,1.475,0,.525-.04,1.048-.061,1.572-.042,1.059.317,1.458,1.4,1.49.733.023,1.469-.015,2.2,0a.977.977,0,0,0,1.141-1.147c-.021-.7-.021-1.4-.055-2.1-.04-.822.29-1.267,1.156-1.229.279.013.559.008.84.011a2.226,2.226,0,0,0,2.53-2.526q0-2.2-2.288-2.208c-2.217-.006-2.236-.006-2.2-2.236.034-2.261.233-2.24-2.208-2.2ZM46.99,23.245c-.2-1.343-1.866-2.542-3.374-2.612a2.2,2.2,0,0,0-2.275.983,9.4,9.4,0,0,1,2.981-.124,11.42,11.42,0,0,1,2.668,1.752Zm7.7-.036A10.582,10.582,0,0,1,57.3,21.488a9.655,9.655,0,0,1,3,.147,2.128,2.128,0,0,0-2.332-1,4.072,4.072,0,0,0-3.284,2.572ZM37.1,8.2l4.108,1.88A3.622,3.622,0,0,0,37.1,8.2Zm23.5,1.864c1.319-.647,2.515-1.231,3.778-1.851A3.188,3.188,0,0,0,60.595,10.061Z" transform="translate(-23.853 -0.022)" fill="#fff"/>
      <path id="Path_3009" data-name="Path 3009" d="M41.836,172.505c-1.084-.265-2.187-.469-3.248-.807a24.137,24.137,0,0,1-7.957-3.908,27.246,27.246,0,0,1-3.3-3.479c-.54-.618-.3-1.105.5-1.259.412-.08.838-.08,1.246-.174a4.581,4.581,0,0,0,.8-.349,2.509,2.509,0,0,0-.406-.681c-1.822-1.58-3.669-3.133-5.494-4.709-.368-.317-.681-.693-1.021-1.044l.187-.311a7.9,7.9,0,0,1,1.143.183c1.935.6,3.86,1.231,5.8,1.824.24.074.679.069.765-.063a1.146,1.146,0,0,0,.038-.851c-.174-.565-.46-1.1-.649-1.66a13.9,13.9,0,0,1-.3-1.448,10.263,10.263,0,0,1,1.126.595c1.1.807,2.183,1.633,3.271,2.454.721.542,1.055.433,1.359-.45.408-1.181.74-1.254,1.635-.357.2.2.4.393.586.6.544.618,1.095.8,1.8.2.2-.174.6-.122.914-.174a2.749,2.749,0,0,1-.116.866,2.279,2.279,0,0,1-2.244,1.389,40.35,40.35,0,0,0-4.694.307,2.923,2.923,0,0,0-1.376.691,1.544,1.544,0,0,0-.219,2.523c.824.992.851,1.231-.124,2.061-.811.689-.616,1.284-.053,1.965a12.056,12.056,0,0,0,4.8,3.28c1.317.561,2.658,1.065,3.979,1.622.473.2.916.471,1.372.708l-.126.464Z" transform="translate(-18.136 -121.466)" fill="#fff"/>
      <path id="Path_3010" data-name="Path 3010" d="M165.539,157.037l-7.133,6.272c.048.109.1.221.147.33.565.088,1.135.166,1.7.269,1.2.221,1.374.643.7,1.624a16.9,16.9,0,0,1-7.68,5.8c-1.765.746-3.618,1.29-5.444,1.885a5.755,5.755,0,0,1-1.273.12c-.036-.118-.074-.235-.109-.353q.892-.435,1.786-.872c2.37-1.168,4.748-2.322,7.1-3.519a3.735,3.735,0,0,0,.914-.855c1.193-1.284,1.2-1.3.031-2.572a1.083,1.083,0,0,1-.042-1.586c1.191-1.553.792-2.975-1.135-3.393a22.879,22.879,0,0,0-4.784-.382,2.307,2.307,0,0,1-2.36-1.359,2.765,2.765,0,0,1-.078-.943c.284.059.658.021.838.191.687.651,1.238.464,1.788-.155.208-.235.439-.452.658-.679.8-.83,1.2-.731,1.576.389.319.954.609,1.061,1.412.469,1.067-.79,2.107-1.618,3.181-2.4a4.282,4.282,0,0,1,.9-.385,3.873,3.873,0,0,1-.01,1.059c-.183.637-.494,1.235-.693,1.868-.252.8.023,1.1.811.859,1.906-.578,3.8-1.2,5.7-1.792.433-.134.889-.191,1.334-.284.057.132.111.267.168.4Z" transform="translate(-115.671 -122.382)" fill="#fff"/>
      <path id="Path_3011" data-name="Path 3011" d="M183.777,217.135a3.438,3.438,0,0,1,1.03.553c.132.153.053.586-.057.838-.353.828-.212,1.244.7,1.2,1.7-.086,3.387-.382,5.085-.54a3.287,3.287,0,0,1,1.561.13c1.322.582,2.544.252,3.778-1.164a2.94,2.94,0,0,0,.351-3.582,2.41,2.41,0,0,0-1.622-.922c-1.588.147-3.084.672-3.761,2.357-.237.59-.563.561-1.076.353a1.618,1.618,0,0,0-1.137-.061c-.275.122-.408.569-.6.874a7.272,7.272,0,0,0,.985.282c.576.086,1.162.109,1.742.174,1.032.116,2.122.462,2.687-.9.065-.155.492-.164.75-.24.019.349.191.8.034,1.027a2.693,2.693,0,0,1-2.935.914,5.982,5.982,0,0,0-3.585.13,1.726,1.726,0,0,1-1.456-.595c-.422-.525.17-.847.569-1.221A4.8,4.8,0,0,1,190.023,215c.242,0,.485-.37.714-.582a5.7,5.7,0,0,1,3.778-1.605,2.977,2.977,0,0,1,3.03,3.372,5.192,5.192,0,0,1-3.986,4.471,7.493,7.493,0,0,1-1.525-.235c-1.023-.088-2.051-.189-3.076-.183-1.494.008-3,.25-4.477.118-1.294-.116-1.408-.605-.88-1.79A5.756,5.756,0,0,0,183.777,217.135Z" transform="translate(-144.79 -168.102)" fill="#fff"/>
      <path id="Path_3012" data-name="Path 3012" d="M19.769,217.289a7.272,7.272,0,0,1,.536,1.752,1.361,1.361,0,0,1-.6,1.072c-1.647.758-3.349.334-5.053.12a7.526,7.526,0,0,0-2.771.082,4.578,4.578,0,0,1-5.309-2.332,5.317,5.317,0,0,1-.378-2.731,2.627,2.627,0,0,1,3.492-2.36,12.729,12.729,0,0,1,2.832,1.263c.4.2.7.8,1.061.811a4.811,4.811,0,0,1,3.263,1.853c.273.279.639.845.529,1.044-.2.363-.878.866-1.078.765-1.8-.924-3.664.032-5.457-.277a2.779,2.779,0,0,1-1.4-.8c-.181-.187,0-.716.011-1.093.279.155.693.244.815.481.54,1.055,1.454.769,2.3.735.786-.032,1.574-.063,2.357-.13.216-.019.527-.118.605-.275a.683.683,0,0,0-.124-.649,3.211,3.211,0,0,0-1.074-.523c-.149-.042-.372.158-.555.261-.529.3-.815.12-1.038-.422a4.682,4.682,0,0,0-3.9-2.353c-1.717.158-2.519,2.553-1.408,4.2a3.256,3.256,0,0,0,4.391,1.336,2.413,2.413,0,0,1,1.1,0c1.588.21,3.168.538,4.761.639,1.309.082,1.42-.179,1.042-1.431-.229-.756.286-1.177,1.051-1.03Z" transform="translate(-4.855 -168.081)" fill="#fff"/>
      <path id="Path_3013" data-name="Path 3013" d="M21.983,125.17a14.246,14.246,0,0,1-1.3-2.412,3.253,3.253,0,0,1,.294-1.626c.027-.092.366-.141.548-.118.069.008.2.321.145.418-.773,1.532.544,2.271,1.2,3.265a8.846,8.846,0,0,1,.981,1.679c.231.607-.2.946-.729.672-2.114-1.084-4.28-2.112-5.324-4.5-.656-1.5-.49-2.355.819-3.368a10.852,10.852,0,0,1,1.736-1.343,2.39,2.39,0,0,1,1.725-.166,3.223,3.223,0,0,1,1.778,3.364,3.008,3.008,0,0,0,.458,1.265c.109.248.414.475.4.7a2.684,2.684,0,0,1-.408.872,3.946,3.946,0,0,1-.622-.538,4.913,4.913,0,0,1-.693-1.111,1.564,1.564,0,0,1-.1-1c.385-1.1-.473-2.713-1.607-2.767-.315-.015-.664.378-.973.618a8.8,8.8,0,0,0-1.252,1.076c-.307.351-.754.872-.679,1.217a5.7,5.7,0,0,0,3.038,3.8c.1.055.258.006.557.006Z" transform="translate(-13.768 -92.875)" fill="#fff"/>
      <path id="Path_3014" data-name="Path 3014" d="M207.389,120.818c1.2.2,1.551.876,1.114,1.857-.334.75-.79,1.446-1.334,2.42a4.13,4.13,0,0,0,1.023-.309,6.389,6.389,0,0,0,2.563-3.234,1.169,1.169,0,0,0-.74-1.677,2.638,2.638,0,0,1-1.1-.941c-.532-.794-.906-.9-1.7-.309a1.851,1.851,0,0,0-.826,2.578.945.945,0,0,1,.019.685c-.4.622-.866,1.2-1.317,1.8-.8-.4-.832-.786-.271-1.54a2.378,2.378,0,0,0,.462-1.448,3.342,3.342,0,0,1,2.08-3.307,2.3,2.3,0,0,1,1.54.311,15.5,15.5,0,0,1,1.807,1.429,2.217,2.217,0,0,1,.729,3.124,7.4,7.4,0,0,1-3.223,3.484c-.672.374-1.338.761-2.03,1.1a.8.8,0,0,1-.677.021.683.683,0,0,1-.132-.641,7.789,7.789,0,0,1,.9-1.62C207.122,123.516,208.328,122.583,207.389,120.818Z" transform="translate(-161.486 -92.708)" fill="#fff"/>
      <path id="Path_3015" data-name="Path 3015" d="M2.428,174.154c.6.315.967.551,1.362.708.853.336,1.6-.105,1.586-.9-.015-.744-.481-1.059-1.135-.706s-.891.151-1.158-.49c-.185-.441-.679-.754-1.034-1.126-.361.395-.88.729-1.053,1.193a2.9,2.9,0,0,0,2.322,3.511,16.778,16.778,0,0,0,2.9-.092,6.387,6.387,0,0,1,.988.128c-.229.223-.416.55-.691.656-2.8,1.067-5.816-.309-6.434-2.9a2.84,2.84,0,0,1,1.41-3.208,2.286,2.286,0,0,1,1.53.151c.687.261,1.288.742,1.969,1.019a2.057,2.057,0,0,1,1.309,2.246A1.75,1.75,0,0,1,4.1,175.612c-.664-.158-1.5-.155-1.672-1.462Z" transform="translate(0.001 -134.95)" fill="#fff"/>
      <path id="Path_3016" data-name="Path 3016" d="M227,173.693c-.044,1.093-.769,1.126-1.368,1.311-.845.261-1.689.246-2.088-.632a4.808,4.808,0,0,1-.162-1.838c0-.132.179-.313.319-.4a36.015,36.015,0,0,1,3.351-1.933c.78-.359,1.994.7,2.311,1.855a3.94,3.94,0,0,1-2.351,4.343,5.168,5.168,0,0,1-4.085.05c-.279-.107-.475-.433-.708-.658.059-.1.12-.193.179-.288.353.078.708.145,1.057.235q3.152.81,4.683-1.385a2.114,2.114,0,0,0,.181-2.456c-.212-.345-.71-.807-.979-.75a1.64,1.64,0,0,0-.924.945c-.227.553-.347.994-1.086.668-.275-.122-.826-.223-.882-.124a1.548,1.548,0,0,0-.25,1.13,1.318,1.318,0,0,0,.948.624c.33.042.7-.235,1.053-.374.227-.09.454-.187.8-.33Z" transform="translate(-175.529 -134.39)" fill="#fff"/>
      <path id="Path_3017" data-name="Path 3017" d="M84.711,190.62a1.83,1.83,0,0,0-.286-.111c-.418-.095-.838-.181-1.259-.269.008.58-.183,1.273.069,1.715a2,2,0,0,0,2.637.5c.34-.17.7-.3,1.242-.532a1.464,1.464,0,0,1-1.488,1.429c-.63.065-1.273.015-2.023.015a1.916,1.916,0,0,0,2.547,1.114,4.6,4.6,0,0,0,3.078-3.784,2.786,2.786,0,0,1,.431-.822c.134.317.393.641.382.954-.065,1.979-2.072,4.362-4.036,4.534a7.584,7.584,0,0,1-2.746-.714c-.147-.048-.334-.5-.265-.6.538-.769-.069-1.088-.494-1.551a2.1,2.1,0,0,1,.843-3.368,1.578,1.578,0,0,1,1.2.328c.271.2.355.658.521,1Z" transform="translate(-64.748 -149.374)" fill="#fff"/>
      <path id="Path_3018" data-name="Path 3018" d="M137.286,192.762a4.349,4.349,0,0,1,.21.824,4.389,4.389,0,0,0,2.21,3.379,2.613,2.613,0,0,0,3.227-.025c.179-.128.483-.08.729-.113-.092.263-.105.637-.29.769a3.368,3.368,0,0,1-2.755.7,5.472,5.472,0,0,1-3.832-3.929,9.7,9.7,0,0,1-.013-1.563l.515-.04Z" transform="translate(-108.013 -152.264)" fill="#fff"/>
      <path id="Path_3019" data-name="Path 3019" d="M150.11,192.075c.353.153.719.29,1.059.466a2.009,2.009,0,0,0,2.635-.475,1.953,1.953,0,0,0,.107-1.6c-.273-.622-.8-.248-1.217.05a1.529,1.529,0,0,1-.466.139l-.25-.2c.246-.38.41-.893.759-1.1a1.428,1.428,0,0,1,1.214.008,2.064,2.064,0,0,1,1.032,2.4,2.331,2.331,0,0,1-2.284,1.691,7.976,7.976,0,0,1-1.855-.162c-.387-.111-.685-.529-1.023-.811.1-.137.191-.273.288-.408Z" transform="translate(-118.341 -149.471)" fill="#fff"/>
    </g>
  </g>
</svg>
