<svg id="the-touch-of-heaven" xmlns="http://www.w3.org/2000/svg" width="60" height="60" viewBox="0 0 60 60">
  <rect id="Rectangle_3331" data-name="Rectangle 3331" width="60" height="60" fill="none"/>
  <g id="Layer_1-2" transform="translate(6 7)">
    <g id="Group_78" data-name="Group 78" transform="translate(0 0)">
      <path id="Path_2924" data-name="Path 2924" d="M63.193,22.273c-.38-.418-.482-.691-.025-1.152a2.607,2.607,0,0,0,.654-1.275,5.268,5.268,0,0,0-2.861-5.586,2.513,2.513,0,0,1-1.372-1.3,3.24,3.24,0,0,0-1.624-1.76c-.567-.264-.6-.642-.229-1.1a1.475,1.475,0,0,0,.088-1.75c-1.044-2.065-2.165-2.686-4.5-2.471-.295.028-.657.113-.642-.442a2.8,2.8,0,0,0-2.994-3.084A1.567,1.567,0,0,1,48.262,1.8,4.085,4.085,0,0,0,45.088.064C43.792.013,42.649,0,41.666.932a.5.5,0,0,1-.375.125c-.17-.029-.279-.164-.421-.382A1.588,1.588,0,0,0,38.928.116C38.72.169,38.56.067,38.389.07,36.9.1,35.341-.441,34.07.98c-1.039,1.162-1.82,2.292-1.373,3.926.149.547-.265.79-.649,1-.367.2-.8.224-1.014-.169A9.608,9.608,0,0,0,29.877,4.27c-.144-.179-.333-.365-.061-.539.529-.339.873-.983,1.645-.936.328.02.687-.128.641-.567s-.418-.441-.752-.434a2.47,2.47,0,0,0-1.994,1.222c-.272.382-.59.782-1.055.495-1.09-.669-2.129-.169-3.153.074a3.518,3.518,0,0,0-2.273,1.7A3.034,3.034,0,0,1,21.9,6.554a3.042,3.042,0,0,0-1.034,4.578.7.7,0,0,1,0,1.008,2.51,2.51,0,0,0-.515,1.76,4.288,4.288,0,0,0,2.533,3.682c.139.072.333.1.326.313a.379.379,0,0,1-.316.333,4.683,4.683,0,0,0-2.73,2.6,3.289,3.289,0,0,0,1.088,4.477c.128.069.334.108.234.36a.8.8,0,0,1-.547.013c-.267-.062-.628-.334-.744.118a.578.578,0,0,0,.544.693,3.705,3.705,0,0,0,2.476-.185c1.24-.75,2.456-1.54,3.71-2.273a5.438,5.438,0,0,1,2.666-.747,1.329,1.329,0,0,1,.547.12.362.362,0,0,1,.241.39.274.274,0,0,1-.385.192,2.568,2.568,0,0,0-1.36.157,10.99,10.99,0,0,0-4.372,2.3.392.392,0,0,0-.182.419c.066.243.274.226.464.231a2.1,2.1,0,0,0,.841-.282c.567-.228.916-.793,1.47-.985a22.582,22.582,0,0,0,2.733-1.047c.47-.234.759-.144.71.454a3.063,3.063,0,0,0,.4-4.111,8.55,8.55,0,0,1-1.375-2.135,1.176,1.176,0,0,0-.275-.38c-.2-.2-.506-.36-.57-.3-.031.031-.039.143.56.988a21.573,21.573,0,0,1,1.652,2.589c.033.069.2.469.075.675a.33.33,0,0,1-.157.125c-.387.161-.554-.241-.695-.529a1.885,1.885,0,0,0-2.9-.87,25.925,25.925,0,0,1-3.035,1.68c-.429.185-.878.546-1.231.044a1.268,1.268,0,0,1,.177-1.594c.8-.924,1.227-.975,2.333-.419.31.156.649.282.873-.07.247-.385-.08-.582-.357-.773a2.719,2.719,0,0,0-4.049,1.4c-.12.406-.4.759-.228,1.247.469,1.337,1.421,1.658,2.707,1.022A15.078,15.078,0,0,1,27.691,22.1,1.993,1.993,0,0,1,28.082,22c.221,0,.552-.175.619.169.044.224-.234.315-.436.416-.562.283-1.2.274-1.778.539a28.743,28.743,0,0,0-2.638,1.607,1.477,1.477,0,0,1-2.014-.1,2.393,2.393,0,0,1-1.013-3.04,3.967,3.967,0,0,1,4.17-2.43,4.425,4.425,0,0,1,2.65,1.121.474.474,0,0,0,.6.088.5.5,0,0,0,.228-.631,2.911,2.911,0,0,0-.531-1.131,2.723,2.723,0,0,1-.739-2.517A5.894,5.894,0,0,1,28.58,13.31a16.624,16.624,0,0,0,2.777-4.573,3.041,3.041,0,0,0,.12-1.045.633.633,0,0,1,.413-.565c.336-.115.295.2.38.385.17.359.459.247.691.11.759-.451,1.165.1,1.591.549.295.315-.044.533-.169.785-.134.27-.521.606-.195.849.38.282.708-.1.941-.4C36,8.278,35.454,7.01,33.968,6.69a2,2,0,0,1-.926-.351c1.2-.216,2.25-.592,3.267.154,1.085.8,1.077.888.349,2-.9,1.373-2.3,2.209-3.469,3.3a4.473,4.473,0,0,0-1.73,3.5,9.813,9.813,0,0,1-.025.982c-.013.2.1.5-.221.521a.608.608,0,0,1-.616-.321,2.279,2.279,0,0,1-.157-1.119c0-.269.031-.583-.306-.683s-.488.185-.659.387a1.084,1.084,0,0,0,.134,1.6c.239.269.7.631-.01.927a4.884,4.884,0,0,0,1.557.839,1.081,1.081,0,0,1,.423-.3,1.8,1.8,0,0,0,.349-.192.363.363,0,0,1,.218-.333c.007-.066.016-.133.025-.2q-.007-1.081.077-2.165a2.02,2.02,0,0,1,.841-1.914,1.734,1.734,0,0,0,.21-.193c1.27-1.455,2.872-2.579,4.095-4.08a6.184,6.184,0,0,0,.7-1.19.83.83,0,0,0-.039-.934,1.808,1.808,0,0,1-.539-1.468c.026-.4-.262-.439-.554-.246a1.5,1.5,0,0,1-1.483.052,1.646,1.646,0,0,0-1.021-.092.786.786,0,0,1-1.054-.8,2.874,2.874,0,0,1,1.938-2.963A8.536,8.536,0,0,1,37.258.773a5.213,5.213,0,0,1,3.394,1.116,4.135,4.135,0,0,1,1.054,3.965c-.066.161-.136.316-.328.31-.287-.01-.234-.252-.243-.429-.013-.272,0-.546-.007-.818,0-.221-.025-.565-.231-.555-.775.031-.906-.649-1.294-1.045-.159-.162-.326-.449-.6-.236a.505.505,0,0,0-.146.724c1.088,1.619.39,3.372.362,5.071,0,.231-.287.449-.41.69a1.334,1.334,0,0,0-.143,1.185.735.735,0,0,1,.77.583c.275,1.486.446,2.989.657,4.483a5.094,5.094,0,0,0,.485-1.657,15.092,15.092,0,0,1,.957-3.051,9.686,9.686,0,0,0,.69-2.461c.17-1.013.339-2.034.5-3.051a6.289,6.289,0,0,0-.434-2.961c-.167-.518-.231-.66.416-.939a4.648,4.648,0,0,1,2.658-.411,5.441,5.441,0,0,1,1.942.978.42.42,0,0,1,.07.7c-.208.211-.438.5-.693.547-1.571.257-1.734,1.671-2.068,2.738-.524,1.68-1.083,3.358-1.526,5.065-.285,1.1-.734,2.151-.983,3.267a20.853,20.853,0,0,0-.7,2.232,4.468,4.468,0,0,0,.411.329A38.634,38.634,0,0,1,43.1,12.565c.624-2.283,1.383-4.531,2.089-6.79a1.824,1.824,0,0,1,.965-1.231c.2.184-.136.433.1.593.608-.22.95-.772,1.424-1.158a2.55,2.55,0,0,1,3.349-.146,2.814,2.814,0,0,1,.577,3.336A5.113,5.113,0,0,1,48.847,9.52a10.229,10.229,0,0,0-3.135,1.842c-.295.31-.544.664-.819,1.006-.357-.17-.039-.585-.3-.777a.61.61,0,0,0-.415.7c.115,1.3-.377,2.563-.18,3.859.462-.552,1.444-.493,1.7-1.131a9.6,9.6,0,0,1,1.84-2.432c.326-.4.788-.454,1.162-.706.393-.265.852-.482.375-1.063-.218-.265-.039-.477.206-.578A7.555,7.555,0,0,0,52.463,7.59a2.148,2.148,0,0,1,2.507-.755c1.771.682,2.233,2.088,1.206,3.672-.025.039-.01.1-.013.157.138.193.626-.025.524.438-.043.192-.161.359-.395.329-.31-.038-.757.154-.772-.426a3.266,3.266,0,0,0-3.023,2.44,3.429,3.429,0,0,1-2.91,2.745,7.516,7.516,0,0,0-1.124.462c-.144.056-.329.121-.428-.07-.075-.147.056-.252.147-.347q1.588-1.639,3.177-3.276a26.75,26.75,0,0,0,3.254-3.62c.1-.151.306-.318.147-.5-.2-.233-.392-.007-.557.116a11.113,11.113,0,0,0-2.8,2.514c.365.2.642-.567.849-.193.147.267-.359.585-.611.846-1.252,1.285-2.52,2.553-3.762,3.846-.246.256-.634.562-.336.977.256.354.641.164.973.048.639-.223,1.272-.465,1.917-.67.267-.084.569-.416.816-.152s-.251.487-.216.788a.281.281,0,0,0,.421-.11,1.273,1.273,0,0,1,1.026-.814c.469-.1.619-.5.618-.945,0-1.575.934-2.358,2.274-2.931a1.926,1.926,0,0,1,2.1.08,2.083,2.083,0,0,1,1.05,1.8c0,.428.313.652.721.778a5.392,5.392,0,0,1,3,2.109,3.6,3.6,0,0,1-.141,3.733.82.82,0,0,1-.773.346,4.253,4.253,0,0,0-3.289,1.319,35.022,35.022,0,0,1-3.33,2.407c-.868.554-1.762,1.041-2.664,1.516a2.677,2.677,0,0,1-2.405-.21c-.321-.138-.585-.413-.954-.444-.254-.023-.6-.323-.736-.026a.687.687,0,0,0,.352.836,5.888,5.888,0,0,0,2.179.811c.927.043,1.712.662,2.658.66.187,0,.306.2.4.377s.246.408.408.362c.844-.239,1.573.344,2.4.285a1.15,1.15,0,0,0,1.078-.595c.226-.457-.177-.528-.464-.675a.192.192,0,0,1-.023-.339c.891-.441,1.471-1.411,2.561-1.508a3.769,3.769,0,0,1,.652,0,.366.366,0,0,1,.365.274c.048.218-.134.257-.282.326-.438.206-1.106.438-.723,1.011s.9.031,1.234-.277c.441-.41,1.221-.747.713-1.581a2,2,0,0,0-2.53-.764,7.25,7.25,0,0,0-1.583.982c-.338.313-.595.36-1.019-.023-.36-.328-.4-.495-.038-.7,1.139-.646,1.984-1.665,3.1-2.343a2.3,2.3,0,0,1,2.91.224c.8.793,1.214,2.209.559,3.035-.265.336-.365.793-.793,1.014a.428.428,0,0,0-.18.57l.128.46c.287.1.467-.108.655-.246a4.177,4.177,0,0,0,.513-5.461ZM30.519,7.795c-.379,2.143-1.739,3.7-3.081,5.273a5.837,5.837,0,0,0-1.332,2.753,3.237,3.237,0,0,0,.4,2.1.235.235,0,0,1-.077.342A4.014,4.014,0,0,1,26,13.73c.8-1.257,1.578-2.533,2.366-3.8a1.843,1.843,0,0,0,.29-1.17c-.021-.228-.064-.446-.318-.516a.45.45,0,0,0-.572.344c-.444,1.9-1.886,3.217-2.786,4.85a3.837,3.837,0,0,0-.572,2.089c.01.172.069.436-.206.452-.241.013-.283-.223-.3-.411a3.735,3.735,0,0,1,.1-1.619c.1-.288.165-.647-.228-.75a.587.587,0,0,0-.764.542,3.5,3.5,0,0,0-.118,1.77c.072.193.131.456-.157.552-.208.07-.347-.09-.487-.228a3.041,3.041,0,0,1-.787-2.858c.052-.308.175-.61.595-.474.372.121.765.159.9-.262s-.2-.675-.534-.9a2.441,2.441,0,0,1-1-2.846c.143-.5.644-.711.846-1.17.061-.136.434-.156.588.026.172.2,0,.375-.149.557a1.274,1.274,0,0,0,.469,1.971c.21.09.424.152.606-.038a.464.464,0,0,0,.016-.667c-.3-.342-.657-.636-.087-1.054.528-.385,1-.9,1.737-.4a1.117,1.117,0,0,1,.508,1.47,1.948,1.948,0,0,1-.206.351c-.2.292-.364.657.029.832a.7.7,0,0,0,.888-.38,3.431,3.431,0,0,0-.029-2.576,2.215,2.215,0,0,0-2.614-.744c-.169.056-.341.274-.516.1-.2-.195.029-.4.07-.6.19-.931,2.322-2.124,3.526-1.886,1.365.27,2.682.611,3.325,2.1a2.263,2.263,0,0,1,.092,1.411Zm24.32,18.718c-.218-.143-.574-.056-.567-.306.013-.478.513-.22.754-.39a.174.174,0,0,1,.287.143c0,.333-.3.385-.475.554Z" transform="translate(-16.488 0.006)" fill="#fff"/>
      <path id="Path_2925" data-name="Path 2925" d="M45.246,109.941a.5.5,0,0,1-.316-.328c-.438-.126-.392.267-.5.478-.521,1.018-1.211,1.134-1.994.333-.115-.116-.233-.229-.352-.341a.445.445,0,0,0-.588-.111.434.434,0,0,0-.1.652c.439.651.847,1.355,1.819,1.27.6-.052.893.216.883.865a2.025,2.025,0,0,1-2.253,2.2,14.793,14.793,0,0,0-5.612.682A4.5,4.5,0,0,1,31.163,114a4.319,4.319,0,0,0-.832-.767.517.517,0,0,0-.832.123.7.7,0,0,1-.941.233,1.208,1.208,0,0,1-.359-1.041c0-.316.257-.28.467-.323a3.484,3.484,0,0,1,2.838.957,5.791,5.791,0,0,0,2.941,1.037,8.9,8.9,0,0,0,5.042-1.14c-.374-.2-.747-.4-1.122-.6-.174.016-.349.031-.523.044-.015.159.092.344-.188.456a6.808,6.808,0,0,1-5.7-.493.527.527,0,0,1-.152-.131c-.623-.164-1.237-.359-1.842-.574a4.39,4.39,0,0,0-2.523.141,1.82,1.82,0,0,0-.824,2.65,3.536,3.536,0,0,0,.121-1.208c.02-.385.293-.759.618-.716.352.046.029.47.09.67.2.664-.118,1.431.418,2.024.118.131.274.334.136.515-.192.249-.382-.021-.577-.062-.385-.08-.5-.483-.8-.654a4.828,4.828,0,0,0,.382,3.625c.415-.483,0-.98.02-1.468.007-.159-.064-.352.107-.442.2-.1.285.09.367.221.575.9,1.46,1.6,1.765,2.689.1.359.426.46.79.436a.506.506,0,0,0,.464-.261c.151-.256-.057-.32-.174-.459a3.275,3.275,0,0,1-.936-1.906,4.385,4.385,0,0,1,1.748,2.727,2.187,2.187,0,0,0,.369,1.029c.7.936.236,2.527-.893,3.339a2.079,2.079,0,0,1-2.6-.37,1.53,1.53,0,0,1,.624-2.479,1.931,1.931,0,0,1,1.776.888c.075.267-.048.439-.323.433-.241-.007-.48-.079-.721-.108-.328-.043-.549.079-.523.439.028.408.973.937,1.362.778a1.542,1.542,0,0,0,.68-2.319,2.589,2.589,0,0,0-2.394-1.29,3.6,3.6,0,0,0-2.189,2.238,2.606,2.606,0,0,0,.79,1.914,2.935,2.935,0,0,0,5.127-.629,4.358,4.358,0,0,0-.1-3.936c-.238-.482-.513-.945-.749-1.427a.5.5,0,0,1,0-.387c.082-.166.247-.075.351,0,1.229.868,2.8,1.272,3.777,2.438.89,1.067,1.45,2.391.374,3.6-.352.395-.721.736-1.236.58-.547-.166-.59-.634-.408-1.142a1.241,1.241,0,0,0,.01-.487c-.026-.354-.154-.683-.551-.69-.46-.008-.447.374-.462.711a3.76,3.76,0,0,1-4.336,3.688,4.153,4.153,0,0,1-3.362-1.989,2,2,0,0,1-.184-.777,11.334,11.334,0,0,1,.506-4.157c.156-.611.506-.125.754-.067s.492.175.654-.1c.12-.2.131-.424-.2-.464-.383.2-.59-.044-.8-.313-.5-.641-.965-1.308-1.514-1.9-.419-.454-.687-1.1-1.375-1.265-.149.354.175.472.338.664.3.354.619.687.909,1.045a.441.441,0,0,1,.079.533c-.139.2-.329.092-.516.034-1.473-.447-2.2.07-2.209,1.581a2.875,2.875,0,0,0,.1,1.291c.138.295-.044.446-.254.6-.5.372-.995.755-1.485,1.142-.2.156-.385.339-.262.623s.385.27.634.256a2.412,2.412,0,0,0,1.932-2.219,1.057,1.057,0,0,1,.195-.595c.149-.331.488-.61.346-1.039a.423.423,0,0,0-.08,0c-.321.082-.338.868-.688.519a1.279,1.279,0,0,1,.028-1.447.993.993,0,0,1,1.093-.347c.233.057.161.3.066.478-.118.228-.434.354-.349.685.262.111.518-.336.747-.049s-.033.549-.18.8a1.233,1.233,0,0,0-.215.523c-.066,1.634-1.124,2.643-2.237,3.623a3.281,3.281,0,0,0-.4.395c-.185.236-.393.487-.067.777.262.234.47.118.724-.049a8.55,8.55,0,0,0,2.188-2.422,2.341,2.341,0,0,1-.783,2.464c-1.711,1.863-3.3,1.876-5.276.59a1.6,1.6,0,0,1-.618-1.431c.052-.841.056-1.684.074-2.528.007-.275.008-.567-.323-.677a.622.622,0,0,0-.711.28,3.208,3.208,0,0,0-.613,1.134,1.131,1.131,0,0,1-1.314.937c-.174-.023-.4-.031-.47-.261-.077-.252.085-.383.254-.542.649-.619,1.276-1.258,1.909-1.894.147-.149.362-.27.27-.541-.587.144-.8.729-1.234,1.052-.151.113-.282.434-.5.175a.405.405,0,0,1,.111-.567,7.1,7.1,0,0,0,1.55-1.961c1.036-1.807,2.918-2.356,4.56-3.274.111-.062.252-.157.365-.02s.021.311-.033.46c-.541,1.48-1.052,2.971-1.647,4.428-.21.515-.223,1.065-.451,1.56-.088.193-.2.441-.469.352-.236-.079-.141-.311-.11-.495.177-1.044.347-2.088.537-3.128.064-.349.444-.829-.059-.978a.744.744,0,0,0-1,.752c.574-.175.749-.062.578.59a25.78,25.78,0,0,0-.693,4.672c-.021.295-.087.657.29.762.419.116.567-.228.677-.546.832-2.43,1.653-4.863,2.492-7.292a5.3,5.3,0,0,1,.395-.708c.157-.292.341-.618.034-.895a.768.768,0,0,0-.919-.039c-1.072.583-2.17,1.124-3.2,1.773a8.408,8.408,0,0,0-2.052,2.4,19.86,19.86,0,0,1-1.606,1.943c-.123.129-.243.374-.454.215-.159-.118-.11-.357-.059-.541.108-.393.457-.6.716-.872.308-.328.829-.731.429-1.155s-.778.164-1.086.4a3.128,3.128,0,0,0-.945,1.213c-.175.406-.315.945.188,1.15.731.3.5.688.187,1.05-.424.5-.383.588.169,1.114,1.14,1.086,1.968.964,2.887-.2.288,1.085-.555,1.558-1.527,1.76a1.928,1.928,0,0,1-1.986-.7c-.623-.831-1.357-1.647-1.075-2.833a.364.364,0,0,0-.016-.161c-.336-1.449-.287-1.573.962-2.4.316-.21.619-.441.944-.636a5.682,5.682,0,0,0,2.512-4.347c.038-.239.023-.5.223-.683a.6.6,0,0,1,.51-.21c.256.052.2.29.206.47a7.076,7.076,0,0,1-.125,1.462c-.129.67.1.855.769.669a1.729,1.729,0,0,0,1.267-.882.822.822,0,0,0-.08-.046.785.785,0,0,1-.447.069c-.093.079-.179.18-.274.259a.571.571,0,0,1-.675.133c-.223-.133-.149-.383-.115-.6.044-.27.1-.541.144-.809a.786.786,0,0,1,.034-.195c.049-.282.1-.564.125-.847a1.775,1.775,0,0,0-1.678-2.21c-2.74-.426-5.478-.875-8.247-1.08-.169-.013-.4,0-.449-.244.059-.3.469-.18.521-.47-.551-.075-.919-.785-1.453-.621a2.806,2.806,0,0,1-2.707-.747c-.611-.492-1.468-1.283-1.119-1.973a1.881,1.881,0,0,0-.149-2.394.524.524,0,0,1-.079-.231c-.431-2.063-.039-3.836,1.812-5.083.32-.215.759-.424.415-.872s-.708-.116-1.055.113a5.171,5.171,0,0,0-1.732,6.754.868.868,0,0,1,.039,1,1.677,1.677,0,0,0-.133,1.5,1.192,1.192,0,0,1-.362,1.314A2.663,2.663,0,0,0,0,110.817a12.83,12.83,0,0,1,0,2.533,3.879,3.879,0,0,0,1.485,3.338c.9.862,1.848,1.662,2.687,2.592a2.727,2.727,0,0,0,1.863,1.049,9.871,9.871,0,0,0,2.042-.036c.732-.125.9.167.813.782a2.6,2.6,0,0,0,.9,2.4,2.48,2.48,0,0,1,.721,1.067,3.918,3.918,0,0,0,1.835,2.2,3.331,3.331,0,0,0,1.468.652,2.738,2.738,0,0,0,2.025-.872c.236-.19.582-.493.714-.07.315,1.006,1.3,1.273,1.917,1.934a5.84,5.84,0,0,0,2.791.092c1.063-.8,2.34-1.344,3.031-2.6.22-.4.511-.234.657.113a2.943,2.943,0,0,0,1.173,1.334,5.322,5.322,0,0,0,6.992-1.163c.331-.39.714-.714,1.217-.172a.584.584,0,0,0,.691.092c.839-.385,1.745-.721,2.115-1.666.226-.575.354-1.136,1.168-.708.1.054.324-.043.454-.128a3.447,3.447,0,0,0,1.529-1.635,3.11,3.11,0,0,1,1.666-1.875,2.732,2.732,0,0,0,1.152-3.756c-.192-.408-.051-.593.318-.747a2.523,2.523,0,0,0,1.606-2.587c-.051-1.042-.346-2.061.21-3.049ZM16,112.256c.292.031.592.113.608.5-.007.19-.016.423-.277.377s-.618-.064-.6-.49C15.735,112.458,15.742,112.228,16,112.256Zm-1.059,1.929a3.426,3.426,0,0,0-.533,2.088,3,3,0,0,1-2.32,2.543l-.138-.18c.475-.434.955-.864,1.424-1.306a.58.58,0,0,0,.233-.651c-.133-.323-.4-.2-.628-.128-.111.034-.228.064-.295-.033a.3.3,0,0,1,.059-.374,14.074,14.074,0,0,0,1.763-2.325.322.322,0,0,1,.434-.116c.257.136.1.342,0,.48Zm-9.1,4.824a3.478,3.478,0,0,1-1.784-1.471c-.593-.9-1.657-1.294-2.306-2.173a5.617,5.617,0,0,1-.2-6.048c.287-.413.595-.534.991-.115a3.914,3.914,0,0,0,2.949,1.2c.082,0,.193-.018.239.026,1.221,1.17,2.823.634,4.229.859a28.6,28.6,0,0,0,4.439.616c.442,0,.529.308.247.6-1.357,1.394-2.335,3.169-4.095,4.159a14.233,14.233,0,0,1-1.835.87c-1,.388-1.765-.241-2.422-.806a1.6,1.6,0,0,1-.467-2.112,4.773,4.773,0,0,1,.773-1.178c.234-.247.48-.618.128-.934s-.595.029-.816.259a3.842,3.842,0,0,0-1.168,3.313c.113.852,1.858,2.276,2.758,2.386a6.225,6.225,0,0,0,4.3-1.409c.128-.085.22-.254.492-.157a5.959,5.959,0,0,1-6.463,2.12ZM10.2,121c-.066.159-.082.431-.357.3-.2-.093-.138-.326-.151-.51a3.063,3.063,0,0,1,1.481-1.814c.18-.051.421-.12.537.036.152.2-.09.333-.218.451A4.609,4.609,0,0,0,10.2,121Zm32.156-2.689A2.2,2.2,0,0,1,41,119.517c-.809.179-1.065.926-1.273,1.583a3,3,0,0,1-1.548,1.7c-.521.3-.8.077-.867-.418a4.314,4.314,0,0,0-2.664-3.439,15.463,15.463,0,0,1-1.432-.916,3.979,3.979,0,0,1,1.453.208,6.226,6.226,0,0,0,2.905-.223,1.75,1.75,0,0,1,1.832.28,1.59,1.59,0,0,0,.419.247c.257.1.559.193.736-.1s-.023-.513-.236-.7a3.115,3.115,0,0,0-2.532-.613c-1.365.121-2.732.616-4.108.034-.295-.125-.5.108-.711.287a.689.689,0,0,1-1.018,0,12.416,12.416,0,0,1-2.333-2.984c-.069-.131-.09-.254.11-.413.459.415.972.806,1.4,1.275a4.724,4.724,0,0,0,4.028,1.291,28.81,28.81,0,0,0,3.685-.652,3.91,3.91,0,0,1,3.01.316,1.413,1.413,0,0,1,.5,2.027Z" transform="translate(0.018 -81.728)" fill="#fff"/>
      <path id="Path_2926" data-name="Path 2926" d="M59.045,152.422c.977-.157-2.284,1.725-2.714,1.84-.772.206-1.406.813-2.251.821.582-.755,4.17-2.35,4.965-2.659Z" transform="translate(-45.215 -127.438)" fill="#fff"/>
      <path id="Path_2927" data-name="Path 2927" d="M189.036,27.621c-.034-.6-.051-1.183-.655-1.568-1.231-.782-2.279-.536-3.18.8-.18.267-.418.634-.1.878.342.267.619-.007.862-.323a1.3,1.3,0,0,1,1.812-.2c.413.416.041.759-.134,1.1-.139.265-.292.161-.392-.069-.126-.29-.3-.585-.66-.449a1.406,1.406,0,0,0-.867.819,1.176,1.176,0,0,0,.785,1.416c.642.113.891-.233.9-.841,0-.311.12-.539.415-.177s.541.125.765-.048a1.422,1.422,0,0,0,.456-1.337Z" transform="translate(-154.635 -21.413)" fill="#fff"/>
      <path id="Path_2928" data-name="Path 2928" d="M185.807,113.833c-.9-.393-1.816-.77-2.717-1.172a12.354,12.354,0,0,1-4.393-2.707.993.993,0,0,1-.267-1.244c.444-.808.914-1.6,1.38-2.4.093-.161.19-.372.408-.354.262.02.228.264.241.446.034.511.216.492.624.265.637-.354,1-1.047,1.737-1.281.28-.09.329-.426.2-.706s-.418-.239-.644-.193a2.728,2.728,0,0,0-.577.275c-.128.061-.272.093-.372-.029a.26.26,0,0,1,.056-.364,5.043,5.043,0,0,1,.919-.8c.6-.331,1.083.179,1.6.357.377.131.279.544.256.867A5,5,0,0,1,182.69,108c-.216.22-.406.251-.629.082-.718-.544-1.159-.478-1.675.261-.179.254-.346.523-.136.819a.592.592,0,0,0,.864.136c-.07-.3-.77-.226-.452-.752.174-.288.451-.6.76-.48a1.6,1.6,0,0,1,.9.842c.085.21-.147.3-.351.336s-.426-.156-.592.087a.716.716,0,0,0,1.178.044,9.6,9.6,0,0,1,1.07-1.191,11.09,11.09,0,0,0,1.288-2.578c.628-1.262.341-2.618.537-3.923a.387.387,0,0,0-.338-.478.432.432,0,0,0-.447.4c.093,1.145-.4,1.422-1.43,1.086-.167-.054-.433.185-.57-.087s.174-.357.274-.534c.077-.139.146-.282.218-.424a1.7,1.7,0,0,0-1.111,1.08,3.948,3.948,0,0,1-.682,1.1,17.393,17.393,0,0,0-2.52,3.063c-1.1,2.071-1.6,2.679.428,4.2a25.759,25.759,0,0,0,5.176,2.756c.451.013.9.007,1.355-.011Z" transform="translate(-148.737 -84.624)" fill="#fff"/>
      <path id="Path_2929" data-name="Path 2929" d="M173.24,33.64a2.273,2.273,0,0,1-.088,1.422,2.266,2.266,0,0,0,.052,1.884c.1.174.139.493-.023.5-.816.031-.87.777-1.239,1.221a.824.824,0,0,1,0-.918c.731-1.154.536-2.543,1.024-3.751.059-.146.07-.321.27-.359Z" transform="translate(-143.648 -28.127)" fill="#fff"/>
      <path id="Path_2930" data-name="Path 2930" d="M183.381,79.169c0-.075-.021-.185.02-.221q1.7-1.5,3.405-2.994a.415.415,0,0,1,.444-.118c-.041.5-.518.639-.8.911-.839.806-1.743,1.542-2.628,2.3A.417.417,0,0,1,183.381,79.169Z" transform="translate(-153.326 -63.386)" fill="#fff"/>
      <path id="Path_2931" data-name="Path 2931" d="M243.808,186.2a3.133,3.133,0,0,1,1.975.523c.247.133.526.3.377.616a.551.551,0,0,1-.831.234,6.171,6.171,0,0,0-1.529-.667C243.8,186.673,243.807,186.439,243.808,186.2Z" transform="translate(-203.848 -155.671)" fill="#fff"/>
      <path id="Path_2932" data-name="Path 2932" d="M118.715,202.132c-.539.215-.693-.316-.945-.552a1.355,1.355,0,0,0-1.814-.2,5.02,5.02,0,0,1-1.935.7,5.159,5.159,0,0,1,2.866-1.316,2.271,2.271,0,0,1,1.829,1.372Z" transform="translate(-95.334 -167.862)" fill="#fff"/>
      <path id="Path_2933" data-name="Path 2933" d="M70.492,105.286a2.567,2.567,0,0,1-1.317-1.585.343.343,0,0,1,.344-.5c.467.088,1.036.059,1.278.632-.359.144-.642-.249-1.013-.139-.162.706.8.919.708,1.593Z" transform="translate(-57.809 -86.284)" fill="#fff"/>
      <path id="Path_2934" data-name="Path 2934" d="M91.507,214.382l-1.624,1.642c-.587.144-.8.729-1.234,1.052-.151.113-.282.434-.5.175a.405.405,0,0,1,.111-.567,7.1,7.1,0,0,0,1.55-1.961c1.036-1.807,2.918-2.356,4.56-3.274.111-.062.252-.157.365-.02s.021.311-.033.46c-.541,1.48-1.052,2.971-1.647,4.428-.21.514-.223,1.065-.451,1.56-.088.193-.2.441-.469.352-.236-.079-.141-.311-.11-.495.177-1.044.347-2.088.537-3.128.064-.349.444-.829-.059-.978a.744.744,0,0,0-1,.752Z" transform="translate(-73.64 -176.724)" fill="#fff"/>
      <path id="Path_2935" data-name="Path 2935" d="M136.755,226.785a.179.179,0,0,0-.069.107.423.423,0,0,0-.08,0c-.321.082-.338.868-.688.519a1.279,1.279,0,0,1,.028-1.447.993.993,0,0,1,1.093-.347c.233.057.161.3.066.478-.118.228-.434.354-.349.685Z" transform="translate(-113.466 -188.619)" fill="#fff"/>
      <path id="Path_2936" data-name="Path 2936" d="M219.516,112.787c-1.352-.069-2.237.855-3.2,1.565a14.963,14.963,0,0,0-2.32,2.6,10.137,10.137,0,0,1-3.254,2.2c-.229.123-.585.17-.742-.1-.206-.352.115-.569.374-.693a8.3,8.3,0,0,0,2.8-1.739c.777-.867,1.522-1.765,2.343-2.586a8.072,8.072,0,0,1,3.4-2.225,1.559,1.559,0,0,1,1.19.11c.243.126.539.249.472.58s-.385.323-.664.306l-.408-.025Z" transform="translate(-175.534 -93.434)" fill="#fff"/>
      <path id="Path_2937" data-name="Path 2937" d="M233.447,96.106a5.584,5.584,0,0,1-.539.923,2.922,2.922,0,0,0-.546,1.155,12.319,12.319,0,0,1-1.952,3.335.385.385,0,0,1-.567.131.3.3,0,0,1-.079-.434c1.255-1.411,1.494-3.331,2.463-4.883a1.323,1.323,0,0,1,.659-.585c.251-.088.49-.054.562.359Z" transform="translate(-192.06 -80.023)" fill="#fff"/>
      <path id="Path_2938" data-name="Path 2938" d="M194.822,144.2c-.07-.3-.77-.226-.452-.752.174-.288.451-.6.76-.48a1.6,1.6,0,0,1,.9.842c.085.21-.147.3-.351.336s-.426-.156-.592.087l-.269-.031Z" transform="translate(-162.448 -119.514)" fill="#fff"/>
      <path id="Path_2939" data-name="Path 2939" d="M189.036,27.618a1.429,1.429,0,0,1-.456,1.337c-.224.174-.47.41-.765.048s-.411-.134-.415.177c-.007.608-.256.954-.9.841a1.175,1.175,0,0,1-.785-1.416,1.4,1.4,0,0,1,.867-.819c.359-.136.536.159.66.449.1.229.252.334.392.069.177-.338.549-.68.134-1.1a1.3,1.3,0,0,0-1.812.2c-.243.316-.519.59-.862.323-.315-.246-.077-.611.1-.878.9-1.337,1.95-1.583,3.181-.8.6.383.621.972.655,1.568Zm-2.142,1.3c-.031-.246-.07-.5-.411-.46a.353.353,0,0,0-.344.374.462.462,0,0,0,.413.508c.308.039.328-.195.342-.421Z" transform="translate(-154.635 -21.41)" fill="#fff"/>
      <path id="Path_2940" data-name="Path 2940" d="M50.423,186.634a.855.855,0,0,0,1.239.854,6.517,6.517,0,0,0,1.925-.864c.31-.241.8-.423,1.021-.066.261.416-.2.583-.541.8a6.956,6.956,0,0,1-2.8,1.2c-.814.115-1.242-.439-1.706-.927a.972.972,0,0,1-.092-1.211c.143-.272.308-.559.673-.462.338.09.333.383.279.67Z" transform="translate(-41.221 -155.473)" fill="#fff"/>
      <path id="Path_2941" data-name="Path 2941" d="M193,43.44c-.015.228-.034.46-.342.421a.461.461,0,0,1-.413-.508.354.354,0,0,1,.344-.374C192.925,42.94,192.964,43.194,193,43.44Z" transform="translate(-160.736 -35.932)" fill="#fff"/>
    </g>
    <path id="Path_2942" data-name="Path 2942" d="M64.816,21.5a2.381,2.381,0,0,1-.365.523,5.808,5.808,0,0,0-1.9,4.454c-.01.188.018.449-.09.549-.657.61-.595,1.434-.708,2.2-.19,1.3-.315,2.618-.554,3.913-.134.729-.457,1.421-.662,2.138a3.54,3.54,0,0,0-.054.762,2.123,2.123,0,0,0,.785-.22c2.166-1.788,4.311-3.6,6.461-5.407Q69,29.343,70.278,28.269c.082.08.166.159.247.239-.721.809-1.422,1.64-2.168,2.425-1.127,1.186-2.292,2.337-3.421,3.521-.123.129-.118.38-.174.575.2.038.419.154.588.1.78-.246,1.542-.546,2.315-.811.262-.09.537-.139.906-.233-.041.293-.008.485-.09.588-1.044,1.329-2.153,2.609-3.146,3.975a34.846,34.846,0,0,0-2.3,3.633,1.2,1.2,0,0,0,.431,1.609,32.176,32.176,0,0,0,4.093,2.486c2.4,1.091,4.9,1.971,7.354,2.948a5.764,5.764,0,0,1,.652.36c-.023.067-.046.133-.07.2-.164-.008-.387.049-.48-.036a2.053,2.053,0,0,0-1.929-.338c-.516.09-1.022.157-1.4-.383a.9.9,0,0,0-.59-.231q-2.686-.288-5.376-.541c-.185-.018-.482-.039-.549.061-.521.769-1.031.261-1.611.088a3.23,3.23,0,0,0-2.828.352,1.856,1.856,0,0,0-.644,1.381c.066,1.683.279,3.359.431,5.037.029.336.033.673.048,1.011l-.238.138c-.243-.247-.492-.488-.724-.744C58.4,54.356,57.2,53.017,55.983,51.7a1.422,1.422,0,0,0-1.806-.238c-1.006.48-2.006.977-3.017,1.445-.18.084-.492.161-.593.07a.848.848,0,0,1-.213-.631c.051-.68.195-1.352.239-2.032.082-1.244-.321-1.776-1.532-1.947-2.753-.388-5.514-.732-8.267-1.119-.221-.031-.416-.256-.624-.39a3.9,3.9,0,0,1,.6-.421c2.153-.973,4.337-1.886,6.459-2.922.857-.418.9-1.163.849-2.1-.118-2-1.455-3.339-2.394-4.9-.185-.306-.346-.628-.518-.942l.166-.19c.341.111.682.228,1.024.334,1.367.424,2.715.927,4.106,1.244,1.314.3,1.958-.159,2.3-1.455.511-1.92.963-3.857,1.473-5.779.064-.244.32-.438.485-.655a4.188,4.188,0,0,1,.56.7c.12.233.085.541.188.788.708,1.7,1.422,3.39,2.166,5.07a.931.931,0,0,0,.57.467c.116.028.4-.256.457-.442.464-1.621.868-3.259,1.334-4.88.6-2.094,1.293-4.165,1.857-6.269.431-1.6,1.65-2.333,2.977-3l-.021-.02ZM58.38,40.1c-.223.651-.388,1.113-.539,1.58a1.055,1.055,0,0,0-.084.467,4.44,4.44,0,0,0,1.853,2.71.611.611,0,0,0,.587,0,.926.926,0,0,0,.229-.626,2.145,2.145,0,0,0-.215-.651c.821-.2.711-.7.428-1.254A4.03,4.03,0,0,0,58.378,40.1Zm-6.246.621c.229.293.452.59.69.873a3.756,3.756,0,0,1,.431.457,1.726,1.726,0,0,0,2.414.166c.336-.451.723-.865,1.026-1.335.116-.18.066-.469.092-.708-.21.026-.421.039-.626.08-.308.061-.611.159-.923.2-.206.031-.456-.074-.628,0a1.119,1.119,0,0,1-1.46-.292A.714.714,0,0,0,52.517,40c-.159.07-.215.38-.382.724Zm4.555,3.538a8.617,8.617,0,0,0-.464-1.245c-.064-.118-.418-.18-.59-.121-.549.187-1.075.438-1.606.673-.195.087-.488.154-.549.3-.364.909.457,1.308.913,1.8.341.372.872,1,1.424.338a8.143,8.143,0,0,0,.872-1.753Zm1.219-.279c-.324,1.029-.6,1.906-.947,3.01.773-.364,1.447-.657,2.088-1.009a.578.578,0,0,0,.085-.554c-.344-.472-.75-.9-1.227-1.449ZM55.28,38.251c-.492.29-.831.49-1.17.691.092.133.192.385.272.379.459-.038.888-.166.9-1.07Zm5.584,1.236c-.257-.211-.439-.454-.542-.424a2.04,2.04,0,0,0-.583.411c.157.159.3.423.475.447.157.021.351-.221.652-.434Zm-7.749,6.931a5.677,5.677,0,0,0-.793-.533c-.046-.021-.32.3-.3.321a2.032,2.032,0,0,0,.526.526c.062.039.261-.138.569-.315Z" transform="translate(-33.585 -17.968)" fill="#fff"/>
  </g>
</svg>
