<?xml version="1.0" encoding="UTF-8" standalone="no"?>
<!DOCTYPE svg PUBLIC "-//W3C//DTD SVG 1.1//EN" "http://www.w3.org/Graphics/SVG/1.1/DTD/svg11.dtd">
<svg xmlns="http://www.w3.org/2000/svg" version="1.1" viewBox="0.00 0.00 88.00 82.00">
<path fill="#ff8383" d="
  M 71.86 0.00
  C 75.66 6.12 77.88 12.16 75.55 19.38
  Q 72.38 29.21 64.12 34.10
  C 61.85 35.44 57.70 36.88 55.59 36.28
  C 49.97 34.68 50.46 29.43 53.01 25.29
  A 0.29 0.28 11.4 0 0 52.72 24.86
  Q 50.68 25.15 49.67 27.47
  Q 47.95 31.39 50.29 34.00
  C 51.66 35.53 52.83 36.92 54.78 36.97
  Q 57.03 37.02 61.85 36.69
  A 2.41 2.40 -65.4 0 0 63.13 36.21
  L 68.53 32.19
  A 0.28 0.26 20.1 0 1 68.67 32.13
  C 69.99 31.97 71.32 32.86 72.60 32.99
  Q 75.11 33.24 79.51 32.21
  Q 80.52 31.97 80.89 32.34
  A 1.54 1.44 -35.2 0 1 80.40 34.70
  Q 78.71 35.56 76.34 37.02
  Q 74.07 38.43 75.63 40.06
  Q 79.31 43.88 79.93 49.06
  A 1.35 1.35 0.0 0 1 77.40 49.85
  L 75.82 46.85
  A 0.10 0.09 -62.2 0 0 75.64 46.91
  Q 75.95 50.76 77.32 52.87
  A 2.29 2.28 84.5 0 0 78.37 53.74
  Q 80.67 54.71 81.87 56.41
  A 0.80 0.80 0.0 0 1 80.91 57.61
  L 77.14 56.02
  A 0.40 0.40 0.0 0 0 76.59 56.43
  Q 77.25 63.22 83.03 67.07
  A 1.06 1.05 -33.9 0 1 82.65 68.98
  Q 79.90 69.55 76.72 67.94
  A 0.74 0.73 -79.5 0 0 75.66 68.67
  Q 76.15 73.30 81.01 74.05
  Q 83.93 74.50 88.00 71.16
  L 88.00 73.18
  Q 83.16 80.92 74.39 77.98
  A 0.75 0.74 -82.4 0 1 73.89 77.32
  Q 73.85 76.48 75.09 75.48
  A 0.75 0.74 -58.6 0 0 74.78 74.17
  Q 70.44 73.29 68.49 73.02
  Q 64.90 72.53 62.17 70.44
  Q 60.78 69.37 60.51 64.64
  A 3.27 3.25 -20.0 0 1 61.82 61.84
  L 62.64 61.23
  A 1.57 1.57 0.0 0 1 65.13 62.33
  Q 65.44 65.30 67.95 67.00
  C 69.05 67.74 69.89 69.25 71.32 69.38
  A 0.17 0.17 0.0 0 0 71.43 69.06
  Q 68.08 66.97 67.53 64.98
  Q 66.37 60.80 66.16 59.72
  A 0.97 0.97 0.0 0 1 67.89 58.96
  L 70.01 61.80
  A 0.44 0.44 0.0 0 0 70.78 61.66
  L 70.88 61.29
  A 0.99 0.98 34.1 0 0 70.71 60.43
  L 68.63 57.69
  A 2.80 2.70 -68.6 0 1 68.08 56.37
  C 67.68 53.65 68.96 49.25 65.29 47.41
  C 63.67 46.60 60.81 47.59 59.05 46.35
  Q 56.04 44.24 52.85 43.73
  Q 51.21 43.47 50.09 42.40
  Q 44.73 37.25 44.80 29.41
  A 0.74 0.73 57.8 0 0 43.40 29.09
  Q 42.93 30.11 42.96 32.02
  C 43.03 35.92 39.29 43.11 34.40 43.96
  Q 32.35 44.32 31.72 44.79
  C 30.06 46.04 28.43 47.18 26.52 47.04
  C 19.69 46.55 19.90 50.88 19.89 56.33
  Q 19.88 57.89 16.69 61.01
  A 0.02 0.02 0.0 0 0 16.69 61.04
  L 17.17 61.82
  A 0.18 0.17 -37.5 0 0 17.44 61.85
  L 20.14 59.20
  A 1.15 1.14 73.8 0 1 22.06 60.26
  Q 21.24 64.07 19.39 66.47
  A 0.27 0.27 0.0 0 0 19.60 66.90
  L 20.66 66.90
  A 0.10 0.09 8.3 0 0 20.75 66.84
  L 22.82 61.93
  A 1.65 1.65 0.0 0 1 24.75 60.97
  Q 26.84 61.51 27.24 63.53
  Q 28.65 70.64 21.87 72.52
  Q 18.40 73.49 13.31 74.19
  A 0.64 0.64 0.0 0 0 12.91 75.24
  Q 13.71 76.20 13.87 76.91
  A 0.71 0.70 -16.3 0 1 13.41 77.74
  Q 4.72 80.69 0.00 73.27
  L 0.00 71.09
  Q 4.91 75.12 7.96 74.16
  Q 12.12 72.86 12.27 68.72
  A 0.84 0.84 0.0 0 0 11.02 67.96
  Q 8.91 69.13 6.45 69.46
  A 1.68 1.67 -86.7 0 1 4.61 67.39
  Q 4.65 67.24 5.34 66.77
  Q 10.68 63.15 11.36 56.69
  A 0.41 0.41 0.0 0 0 10.84 56.25
  L 6.76 57.37
  A 0.58 0.58 0.0 0 1 6.13 56.47
  C 7.55 54.48 10.14 53.89 11.21 52.32
  Q 12.50 50.42 12.38 47.73
  A 0.21 0.21 0.0 0 0 12.00 47.61
  L 10.16 50.20
  A 0.99 0.99 0.0 0 1 8.60 50.28
  C 6.54 47.90 11.10 41.27 12.62 39.74
  A 1.27 1.27 0.0 0 0 12.61 37.94
  Q 10.89 36.23 8.15 35.10
  A 2.08 2.08 0.0 0 1 6.87 33.29
  L 6.87 33.24
  A 0.97 0.97 0.0 0 1 8.09 32.25
  Q 13.94 33.82 18.53 32.26
  A 1.29 1.26 52.8 0 1 19.66 32.43
  L 25.28 36.42
  A 2.25 2.19 62.0 0 0 26.56 36.83
  L 34.35 36.83
  A 2.07 2.03 -62.6 0 0 35.55 36.44
  Q 40.21 33.05 38.49 27.78
  Q 37.77 25.59 35.76 24.88
  A 0.36 0.36 0.0 0 0 35.36 25.45
  Q 37.85 28.46 36.77 32.91
  Q 36.22 35.17 34.52 35.75
  Q 30.18 37.21 25.25 34.73
  Q 22.16 33.18 17.92 28.38
  Q 8.45 17.65 13.98 4.49
  Q 15.00 2.07 16.55 0.75
  A 0.32 0.31 -18.2 0 1 17.07 1.01
  C 16.70 6.69 16.95 13.34 20.23 18.28
  Q 22.32 21.41 27.20 25.47
  A 0.78 0.78 0.0 0 0 28.34 25.32
  L 28.57 24.99
  A 0.40 0.40 0.0 0 0 28.43 24.41
  Q 26.85 23.57 26.83 21.98
  A 0.59 0.59 0.0 0 1 27.58 21.40
  L 28.44 21.65
  A 1.46 1.45 -52.2 0 0 29.58 21.50
  Q 30.15 21.15 38.36 18.04
  C 45.26 15.43 49.02 17.85 55.15 20.32
  Q 57.35 21.21 60.27 21.12
  A 1.05 1.04 -78.1 0 1 61.24 22.61
  Q 60.69 23.78 59.53 24.27
  A 0.58 0.58 0.0 0 0 59.42 25.27
  L 59.78 25.52
  A 1.09 1.08 47.4 0 0 60.95 25.57
  Q 66.15 22.54 69.07 17.06
  Q 70.58 14.23 70.95 8.69
  Q 71.24 4.37 71.20 0.00
  L 71.86 0.00
  Z
  M 30.5790 41.0224
  A 2.05 0.71 -42.6 0 0 28.5894 41.8874
  A 2.05 0.71 -42.6 0 0 27.5610 43.7976
  A 2.05 0.71 -42.6 0 0 29.5506 42.9326
  A 2.05 0.71 -42.6 0 0 30.5790 41.0224
  Z
  M 57.4228 41.1251
  A 2.05 0.67 -139.0 0 0 58.5304 42.9757
  A 2.05 0.67 -139.0 0 0 60.5172 43.8149
  A 2.05 0.67 -139.0 0 0 59.4096 41.9643
  A 2.05 0.67 -139.0 0 0 57.4228 41.1251
  Z"
/>
<path fill="#ff8383" d="
  M 43.10 42.46
  C 43.40 45.03 43.96 47.06 42.79 48.48
  A 1.55 1.39 46.3 0 1 40.50 48.30
  Q 38.56 45.86 41.21 44.17
  A 1.23 1.23 0.0 0 0 41.62 43.74
  L 42.46 42.32
  A 0.35 0.35 0.0 0 1 43.10 42.46
  Z"
/>
<path fill="#ff8383" d="
  M 45.60 42.28
  L 46.62 43.66
  A 1.29 1.29 0.0 0 0 47.10 44.06
  Q 50.03 45.53 48.28 48.28
  A 1.62 1.45 -52.2 0 1 45.93 48.71
  C 44.55 47.36 44.92 45.19 44.95 42.49
  A 0.36 0.36 0.0 0 1 45.60 42.28
  Z"
/>
<circle fill="#ff8383" cx="35.95" cy="50.03" r="3.18"/>
<circle fill="#ff8383" cx="52.06" cy="49.99" r="3.17"/>
<path fill="#ff8383" d="
  M 38.12 55.95
  L 36.73 56.13
  A 1.75 1.75 0.0 0 0 35.35 57.18
  L 34.47 59.28
  A 0.89 0.89 0.0 0 1 32.90 59.42
  Q 32.29 58.48 31.29 58.06
  A 1.38 1.37 45.3 0 0 30.29 58.05
  C 27.63 59.06 25.01 59.82 22.92 57.62
  A 1.77 1.77 0.0 0 1 22.46 56.70
  C 21.81 52.48 21.50 50.16 25.94 48.17
  A 1.88 1.88 0.0 0 1 28.29 48.86
  L 30.96 52.96
  A 1.55 1.49 -1.1 0 0 31.48 53.44
  Q 34.22 54.97 37.33 54.10
  A 1.19 1.19 0.0 0 1 38.73 54.76
  L 38.76 54.81
  A 0.82 0.82 0.0 0 1 38.12 55.95
  Z"
/>
<path fill="#ff8383" d="
  M 49.88 55.02
  Q 49.98 54.73 50.24 54.41
  A 0.83 0.82 29.7 0 1 51.16 54.16
  Q 55.69 55.76 58.38 51.82
  Q 60.38 48.88 61.17 48.33
  A 1.29 1.28 -55.4 0 1 62.24 48.13
  Q 66.53 49.25 66.37 53.95
  Q 66.32 55.38 65.14 55.95
  A 0.65 0.64 73.7 0 0 64.79 56.60
  Q 65.02 58.47 63.12 58.95
  C 61.59 59.33 59.93 58.42 58.35 58.02
  A 2.46 2.44 -41.4 0 0 57.50 57.97
  Q 56.04 58.16 54.77 59.58
  A 0.67 0.67 0.0 0 1 53.60 59.12
  Q 53.66 55.79 50.50 55.85
  A 0.64 0.64 0.0 0 1 49.88 55.02
  Z"
/>
<path fill="#ff8383" d="
  M 38.20 57.78
  L 39.78 58.90
  A 0.64 0.64 0.0 0 0 40.68 58.73
  C 42.57 55.84 38.34 50.72 45.02 50.77
  A 2.06 2.06 0.0 0 1 47.06 52.83
  L 47.06 58.05
  A 0.96 0.96 0.0 0 0 48.60 58.82
  L 49.90 57.86
  A 1.41 1.40 -15.8 0 1 52.14 59.11
  C 51.97 60.97 51.06 62.78 48.67 63.00
  Q 47.13 63.14 45.95 64.42
  A 2.27 2.26 -38.5 0 1 42.31 64.01
  Q 42.11 63.65 41.59 63.33
  Q 41.01 62.98 40.46 63.06
  Q 36.59 63.57 36.72 58.52
  A 0.94 0.94 0.0 0 1 38.20 57.78
  Z"
/>
<circle fill="#ff8383" cx="51.49" cy="64.36" r="1.23"/>
<ellipse fill="#ff8383" cx="0.00" cy="0.00" transform="translate(36.83,64.44) rotate(-68.4)" rx="1.36" ry="0.99"/>
<ellipse fill="#ff8383" cx="0.00" cy="0.00" transform="translate(41.05,65.88) rotate(-38.3)" rx="1.23" ry="0.93"/>
<path fill="#ff8383" d="
  M 32.32 66.57
  A 0.66 0.66 0.0 0 1 32.19 65.49
  L 32.53 65.28
  A 1.45 1.45 0.0 0 1 34.06 65.29
  L 39.36 68.64
  A 0.68 0.66 -36.1 0 0 39.90 68.72
  Q 41.16 68.33 41.64 68.98
  A 0.56 0.55 -30.9 0 1 41.43 69.81
  Q 38.96 71.00 37.83 70.88
  A 1.81 1.80 73.5 0 1 36.62 70.22
  Q 34.62 67.77 32.32 66.57
  Z"
/>
<path fill="#ff8383" d="
  M 47.88 66.67
  A 0.45 0.45 0.0 0 1 47.14 66.66
  Q 46.37 65.52 47.58 65.21
  A 0.62 0.62 0.0 0 1 48.24 66.17
  L 47.88 66.67
  Z"
/>
<path fill="#ff8383" d="
  M 47.56 68.92
  Q 49.07 69.68 50.16 68.30
  Q 51.82 66.17 55.55 65.18
  A 0.77 0.77 0.0 0 1 56.20 66.54
  L 50.66 70.66
  A 1.15 1.14 34.8 0 1 49.62 70.84
  Q 48.06 70.35 47.21 69.37
  A 0.29 0.29 0.0 0 1 47.56 68.92
  Z"
/>
<path fill="#ff8383" d="
  M 19.11 76.56
  C 23.86 74.88 27.64 74.19 31.74 70.60
  A 1.03 1.02 42.2 0 1 33.03 70.54
  L 33.29 70.73
  A 1.05 1.05 0.0 0 1 33.42 72.31
  C 30.49 75.27 23.12 79.81 19.03 77.48
  A 0.51 0.51 0.0 0 1 19.11 76.56
  Z"
/>
<path fill="#ff8383" d="
  M 69.75 76.51
  A 0.53 0.52 39.1 0 1 69.85 77.46
  C 65.68 79.92 58.03 75.36 54.97 72.37
  A 1.08 1.08 0.0 0 1 55.08 70.74
  L 55.35 70.54
  A 1.06 1.05 -43.1 0 1 56.67 70.58
  C 60.95 74.21 64.84 74.86 69.75 76.51
  Z"
/>
<path fill="#ff8383" d="
  M 42.86 71.98
  Q 42.93 71.77 43.14 71.65
  A 0.48 0.47 63.7 0 1 43.80 71.88
  Q 44.21 72.81 45.11 72.18
  C 46.86 70.96 50.34 72.46 51.43 73.60
  C 52.74 74.98 53.98 75.17 55.40 76.16
  A 1.51 1.51 0.0 0 1 54.98 78.84
  Q 53.98 79.15 52.70 78.56
  A 1.25 1.24 -46.3 0 0 51.61 78.59
  C 49.64 79.64 47.09 81.56 44.65 80.88
  A 0.56 0.55 25.2 0 1 44.34 80.03
  L 45.58 78.28
  A 0.34 0.34 0.0 0 0 45.14 77.78
  Q 43.32 78.73 43.01 80.16
  A 0.44 0.43 22.8 0 1 42.34 80.43
  Q 39.80 78.74 35.78 79.03
  Q 33.69 79.18 32.29 78.21
  A 0.49 0.49 0.0 0 1 32.19 77.50
  C 34.30 74.85 38.41 71.18 42.22 72.31
  A 0.52 0.51 17.2 0 0 42.86 71.98
  Z"
/>
</svg>
