<svg id="Component_210_1" data-name="Component 210 – 1" xmlns="http://www.w3.org/2000/svg" width="60" height="60" viewBox="0 0 60 60">
  <g id="Layer_2" data-name="Layer 2" transform="translate(4.003 5.002)">
    <g id="Layer_1" data-name="Layer 1" transform="translate(0.997 -0.002)">
      <path id="Path_1974" data-name="Path 1974" d="M36.88,41.694h0a.977.977,0,0,0,1.154-.424l.4-.191c.357.094.586,0,.658-.334h0c1.361-.128,1.568-1.093,1.881-1.982l.772-.4c.34.145.575.073.689-.254l.515-.281c.456.053.755-.075.791-.516a.632.632,0,0,1,.216-.133c.83,0,1.577-.383,1.485-1.047-.119-.88.412-.989,1.073-1.18q.769-.234,1.508-.538c.3-.119.6-.322.459-.637-.166-.383-.534-.359-.894-.165l-2.083.174a1.307,1.307,0,0,0-1.2.1l-.362.046a9.821,9.821,0,0,0-4.634.589c-.44.109-.744.584-1.3.371-.57-.422-1.228-.075-1.84-.157-.4-.053-.8-.2-.83-.509-.05-.407.432-.426.786-.46.957-.09,1.92-.131,2.869-.267a2.727,2.727,0,0,0,2.138-.9,12,12,0,0,0-3.275.022c-2.119.38-2.1.356-3.419-.325a1.944,1.944,0,0,0-1.69-.216l-1,.061c-.324-.138-.578-.1-.722.22l-2.918.208a5.214,5.214,0,0,0-3.43.313l-.484.044A1.181,1.181,0,0,0,22.813,33l-1.059.065a1.875,1.875,0,0,0-1.707.194l-1.286.119c-2.766.206-5.555.356-8.318.644-1.234.131-2.595-.128-3.679.674h0a1.211,1.211,0,0,0-.855.085l-1.5.075a18.476,18.476,0,0,0-3.364.47c-.418.048-1.079.443-.675.795.653.565,1.225,1.648,2.548.945a2.079,2.079,0,0,1,1.107-.1c.412.3.716.264.88-.216A7.342,7.342,0,0,0,7.74,36.47a3.855,3.855,0,0,1,1.8-.334c.277.3.473.242.617-.1l3.831-.334c.188.041.277-.039.3-.2l.1-.058h.122l-.017.686c-.9-.124-1.535.664-2.49.521a3.647,3.647,0,0,0-2.138.623c-.022,0,.041.267.1.281a4.436,4.436,0,0,0,2.16-.022,92.683,92.683,0,0,1,11.286-2c2.844-.38,5.6-1.161,8.476-1.333.575.138,1.419-.407,1.69.506l-14.6,2.3.066.368a6.878,6.878,0,0,0,4.072.082,5.5,5.5,0,0,1,2.672-.257c-1.01,1.328-2.8.744-4.149,1.3-1.751.712-3.292,1.8-5.187,2.239a11.049,11.049,0,0,1-2.49.589.668.668,0,0,1-.062-.578.786.786,0,0,1,.427-.444,30.1,30.1,0,0,0-7.834,1.761c-.362.138-.943.225-.73.681.18.38.683.242,1.107.124,1.751-.533,3.5-1.073,5.275-1.546.412-.111,1.217-.691,1.242.38-.432,0-.9-.029-.963.514a4.655,4.655,0,0,0-2.993.446c-.224.119-.553.242-.468.514.1.325.465.361.786.288.83-.184,1.66-.4,2.49-.6l.174.2a.277.277,0,0,1,.172.356L7.192,45.26a2.635,2.635,0,0,0-2.136.8.241.241,0,0,0-.033.233.29.29,0,0,0,.188.167A2.589,2.589,0,0,0,7.33,46c.028-.022.028-.075.039-.111l.481-.09A7.964,7.964,0,0,0,11.8,44.681a17.952,17.952,0,0,1,3.815-1.037c.468.019.921,0,1.137-.458a14.744,14.744,0,0,0,4.4-.863c1.732-.739,3.533-1.352,5.3-2.018a.5.5,0,0,0,.381,0,.4.4,0,0,0,.239-.26l.7.024c.033.276.221.337.5.271.077.313-.21.426-.418.581-.462.029-.863.136-.99.591l-.255.414c-1.383-.1-2.407.792-3.646,1.1a.412.412,0,0,0-.26.189.327.327,0,0,0-.017.3c.091.228.337.242.553.242a7.572,7.572,0,0,0,2.243-.417c.39-.126,1.062-.792,1.461.087l-1.007.586a12.887,12.887,0,0,0-5.928,2.542c1.433.429,1.433.429,1.975.019l-.017.017c1.214.082,2.133-.647,3.223-.909.617-.148,1.328-.177,1.624.283s-.445.751-.8.945c-.954.523-1.613,1.09-1.192,2.161-.277.242-.918.228-.811.833.8.133,1.546-.388,2.351-.213a1.717,1.717,0,0,0,1.032.274c-.277.409-.194.664.39.707.584.187.711-.121.741-.531l.664-.642c1.876-1.672,3.71-3.392,5.649-5a3.622,3.622,0,0,0,1.638-2.622l.077-.051a.233.233,0,0,0,.205.018A.186.186,0,0,0,36.88,41.694Zm6.954-17.879h0a.966.966,0,0,0-1.093.727c-.124.2-.346.206-.553.228a14.635,14.635,0,0,0-4.426,0c-2.949.048-5.9-.138-8.852.094a3.243,3.243,0,0,1-2.766-2.043c-.2-.407-.357-.923-1.107-.727l-.523-.082c-.141-.09-.277-.242-.429-.259-1.867-.179-3.848.409-5.593-.635,0,0-.061.053-.094.08l-1.04-.145a.662.662,0,0,0-.468-.314.735.735,0,0,0-.569.134l-1.759-.242a2.763,2.763,0,0,0-2.338-.332l-.465-.061L6.78,19.464l-1.035-.136c-.346-.356-.794-.652-1.239-.242-.362.327-.277.727.346.87l.4.395a.4.4,0,0,0,.065.376.523.523,0,0,0,.374.193.6.6,0,0,1,.113.157.185.185,0,0,0,.045.184.249.249,0,0,0,.2.073l2,2.384-.16,1.044-3.021.019c-.5-.179-.553.128-.534.419.025.456.429.54.852.62.83.157,2.033-.271,2.473.276.553.7-.866,1.25-.871,2.059h0c-1.015.313-1.142,1.3-1.851,1.856-.335.259-.755.574-.5,1.02s.813.271,1.239.2c2.288-.354,4.542-.848,6.869-1.052a6.757,6.757,0,0,0,3.14-.681l.526-.056a3.774,3.774,0,0,0,2.838-.39l.744-.068c1.48.242,2.766-.54,4.185-.6.08,0,.163.022.246.029.293.242.487.174.609-.143a3.072,3.072,0,0,0,1.469-1.211.376.376,0,0,0,.272-.136.285.285,0,0,0,.049-.271.893.893,0,0,1,.122-.162,3.082,3.082,0,0,1,1.56-.632c1.876,0,3.751-.09,5.629-.124,2.791-.051,5.582-.087,8.374-.131l.553.288c-.017.366.2.485.575.4.694.417,1.261,1.134,2.285.8,1.5-.485,2.982-1,4.473-1.493.277-.09.526-.22.528-.485,0-.313-.329-.385-.586-.4-1.151-.048-1.992-.727-2.99-1.068-.916-.313-1.87-1.039-2.9-.16C43.959,23.459,43.876,23.617,43.834,23.815ZM17.294,8.326h0c.321.909,1.129,1.081,2.069,1.047l.277.075c.025.145.1.17.224.073l1.66.434c.191.654.916.519,1.408.727,1.383.591,3.06.727,4.039,1.953l-2.783-.412c-.136-.15-.243-.4-.412-.439a63.875,63.875,0,0,0-7.309-1.512c-2.066-.264-3.956-1.211-6.086-1.233l.036.031c.152-.291-.152-.3-.318-.4A18.609,18.609,0,0,0,7.245,7.7c-.3-.031-.681-.23-.808.148-.113.339.277.485.553.574a20.008,20.008,0,0,0,3.419,1.088l3.665,1.158c-1.024.821-2.108.213-3.173.1a4.489,4.489,0,0,1-1.734-.269c-1.383-.38-2.766-.688-4.149-1.061-.277-.07-.448-.085-.553.131-.13.257.127.356.332.409a27.953,27.953,0,0,0,6.158,1.383,2.863,2.863,0,0,0,2.766.6,6.975,6.975,0,0,1,1.842.308,25.835,25.835,0,0,0,3.873,1.277,61.2,61.2,0,0,0,8.114,1.211c2.188.17,4.288.836,6.5.894.5.1.974.15,1.259-.342l1.331.085a2.677,2.677,0,0,0,2.811.463l.75.128a.435.435,0,0,0,.325.265.5.5,0,0,0,.427-.1l1.508.213a1.489,1.489,0,0,0,1.455.053l.429.065c.155.3.368.317.633.109l.512.029c1.079.468,2.268.254,3.4.417a.255.255,0,0,0,.263-.339c-.069-.167-.2-.436-.351-.458-1.107-.167-2.083-.836-3.273-.652L40.36,14l.166-.589c.573.356,1.259.177,1.878.308.083.356.277.426.6.182l.747.157c.456.523,1.217.824,1.693.4.4-.351-.207-.773-.752-.918l-.83-.429c-.113-.485-.517-.727-1.01-.906a8.7,8.7,0,0,1-3.806-2.5,2.431,2.431,0,0,0-1.889-.867l-.775-.3c-.277-.7-1.087-.77-1.66-1.11-.321-.189-.846-.218-.855-.661,0-1-.863-1.257-1.69-1.553h0a.735.735,0,0,0-.891-.649,4.246,4.246,0,0,1-1.311-.807A7.29,7.29,0,0,0,25.225.689,2.11,2.11,0,0,0,24.207.335C24.066,0,23.79-.14,23.555.173s-.069.6.434.6l.954.647q-.351.259-.73.485c-.4.211-.9.46-.733.877s.506.969,1.281.7a9.458,9.458,0,0,1,3,1.977c-.047.279-.329.342-.553.458-.434.017-.681-.274-.988-.465a5.669,5.669,0,0,0-2.213-1.134c-.938-.412-1.837-1.127-3.043-.579-.219.1-.609-.065-.7.242-.119.361.277.456.539.594a52.566,52.566,0,0,0,6.31,2.672c.846.308,1.6.969,2.645.763l.553.31c.409.727,1.383.7,1.986,1.182.188.155.553.242.44.526s-.434.17-.686.15a4.642,4.642,0,0,0-2.017.046l-.506-.029a11.4,11.4,0,0,0-5.093-1.793H24.4c-.036-.262-.069-.528-.454-.211l-.531-.2a.24.24,0,0,0-.154-.129.283.283,0,0,0-.212.02L21.118,7.2a31.13,31.13,0,0,0-7.87-3.1c1.223,1.834,3.4,1.783,4.849,2.825L17.3,7.3C14.6,6.933,12.171,5.772,9.538,5.2c-.116-.262-.232-.521-.653-.366l-.432-.063c-.708-.649-1.759-.6-2.628-.926-.277-.1-.689-.138-.813.225-.091.274.2.422.429.548a5.271,5.271,0,0,0,2.047.623q.835.377,1.71.678c2.49.749,5.018,1.454,7.53,2.2Zm-.523,37.6c-.794-.041-.8.436-.916.969.755-.124,1.419-.124,1.765-.727l3.629-1.73a.524.524,0,0,0,.7-.334.189.189,0,0,0-.069-.184c-.3-.16-.473.058-.667.2a1.309,1.309,0,0,0-1.107.157C18.982,44.8,17.881,45.377,16.772,45.927ZM27.613,15.573a1.578,1.578,0,0,0-1.743-.31l-1.021-.128a.446.446,0,0,0-.306-.256.522.522,0,0,0-.416.065l-.744-.107a.325.325,0,0,0-.553-.051l-.954.017h.03a8.781,8.781,0,0,0-2.346-.509c-.221-.458-.526-.441-.885-.124l-6.382-1.211c-.916-.962-2.307-.54-3.441-.892-.313-.1-.83-.191-.979.17-.194.451.415.552.694.756.174.126.52.068.791.092l.506.085c-.2.727-.752.926-1.53.744-.432-.1-.858-.279-1.275.024l-.526-.078c-1.555-.863-4.639-.892-5.77-.07-.3.216-.869.228-.747.727s.669.485,1.107.567c3.264.7,6.6,1,9.923,1.4a21.985,21.985,0,0,0,4.938.242l.763.051a27.1,27.1,0,0,0,8.852.85l.49.044a6.763,6.763,0,0,0,3.665.342l2.423.1a12.58,12.58,0,0,0,6.307.242c.692-.133,1.286-.606,2.113-.39.313.082.83.111.877-.325.03-.344-.432-.363-.736-.4a31.274,31.274,0,0,0-7.356-.453c-.172-.242-.351-.485-.733-.448C30.885,16.452,29.3,15.764,27.613,15.573Z" transform="translate(0.001 0.002)" fill="#3c0705"/>
      <path id="Path_1975" data-name="Path 1975" d="M57.361,23.1l-1.384-.084c-.576-.3-1.189-.628-1.31.339-2.3-.058-4.481-.722-6.758-.887a66.548,66.548,0,0,1-8.442-1.2A27.8,27.8,0,0,1,35.437,20,7.577,7.577,0,0,0,33.52,19.7c.158-.072.319-.216.469-.209a10.5,10.5,0,0,1,2.824.2.979.979,0,0,0,1.128-.313c.178-.373-.36-.423-.688-.563a8.131,8.131,0,0,0-3.342-.4l-3.8-1.15-.035-.481c2.216.031,4.182.962,6.332,1.224a25.865,25.865,0,0,0,8.033,1.924l2.9.409a1.612,1.612,0,0,0,1.822.219c-2.162-1.792-4.784-2.405-7.483-2.886l-1.727-.431c-.035-.125-.109-.152-.233-.072l-.288-.07c-.426-.767-1.548-.529-2.153-1.039h0c-.089-.277-.322-.279-.59-.214q-3.92-1.082-7.835-2.179-.909-.3-1.779-.673c.213-.339.676-.3,1-.467l.449.063c.052.351.345.385.679.363,2.74.572,5.264,1.724,8.079,2.092,1.016.635,2.3.481,3.428.722.659.144.636-.414.553-.825l2.015.676a.225.225,0,0,0,.155.139.285.285,0,0,0,.225-.028l.532.188c.06.221.225.281.472.209h.029a14.339,14.339,0,0,0,5.3,1.78l.527.029a24.447,24.447,0,0,0,6.652,1.02A19.7,19.7,0,0,0,54,17.2c-1.105-.373-1.949-1.159-3.206-1.157l-.576-.308c-.907-.551-2.061-.7-3.022-1.186-.532-.255-1.517-.519-.63-1.316.319.19.576.481,1.028.462.04.113.058.313.124.325,1.7.315,3.008,1.28,4.539,1.866a2.971,2.971,0,0,0,2.544.111c-2.452-.88-4.389-2.059-6.634-2.756a9.807,9.807,0,0,0-3.12-1.963c-.112-.315-.627-.56-.334-.921.083-.1.576-.084.789.017,1.549.722,3.347.666,4.962,1.169a4.319,4.319,0,0,0,1.364.8.866.866,0,0,0,.927.645h0c-.576,1.015-1.111-.178-1.7-.041-.242.058-.576-.426-.812,0-.141.26.155.433.4.553a46.525,46.525,0,0,0,6.49,2.783l.806.3c2.11,1.662,4.122,3.434,6.977,4.243l.863.426a1.726,1.726,0,0,1-.979.51l-.777-.156a.428.428,0,0,0-.266-.206.529.529,0,0,0-.361.026c-.645-.13-1.359.048-1.954-.305a22.778,22.778,0,0,0-3.768-.786c-.216,0-.512-.022-.512.265,0,.087.124.241.207.241,1.347.139,2.478.962,3.9.856l5.333,1.58c.475.354,1.439.722-.037,1.025l-.532-.029a.417.417,0,0,0-.3-.192.48.48,0,0,0-.362.083l-.446-.065a3.16,3.16,0,0,0-1.514-.053l-1.569-.212a.509.509,0,0,0-.346-.235.6.6,0,0,0-.437.077l-.78-.127A6.1,6.1,0,0,0,57.361,23.1Z" transform="translate(-20.559 -7.81)" fill="#ff6363"/>
      <path id="Path_1976" data-name="Path 1976" d="M79.06,139.99c.481.212.75-.26,1.133-.368,1.443.459,2.691-.354,4.028-.584l.315-.046a.962.962,0,0,0,1.044-.1l1.811-.173c.091.568-.332.611-.722.738-2.684.888-5.359,1.8-8.045,2.677-.481.156-1.2.37-1.07.782.2.628.806.089,1.222-.014,1.924-.481,3.848-.976,5.914-1.5l-.447.859a.543.543,0,0,0-.188.132.7.7,0,0,0-.688.512l-.447.279a.438.438,0,0,0-.6.253l-.681.4c-.529.065-1.255.125-1.229.722.022.539-.291.827-.406,1.239h0a.428.428,0,0,0-.572.332l-.351.19a.916.916,0,0,0-1,.421h0a.176.176,0,0,0-.267.132l-.067.051c-1.938.582-3.567,1.785-5.438,2.612a.914.914,0,0,0,1.335.221c.457-.243.924-.447,1.378-.683.24-.12.505-.188.659.012.18.241-.07.452-.24.606a14.384,14.384,0,0,1-3.259,2.739c-.7.344-1.525.659-1.773,1.566h.022c-.6,0-1.2-.017-1.482.69-.7-.173-1.344.344-2.044.212-.094-.6.459-.577.7-.827,1.272-.079,2.015-.981,2.8-1.859l-1.3.091a9.352,9.352,0,0,1,2.436-2.047c.255-.142.594-.438.192-.546-.786-.212-1.571-.962-2.47-.207a1.318,1.318,0,0,1-1.077.4l.394-.854.875-.582c1.2-.043,3.348-1.277,3.557-2.068-1.316.05-2.46,1.2-3.867.582l.221-.411a.656.656,0,0,0,.861-.587c.18-.154.431-.267.363-.577a.387.387,0,0,0-.156-.481c-.161-.091-.241.053-.277.209l-.611-.024c-.3-.166-.481-.082-.539.26-1.539.661-3.1,1.27-4.611,2a11.433,11.433,0,0,1-3.826.856c.241-1.222,1.2-1.65,2.239-1.982.794-.255,1.59-.505,2.439-.774-.532-.7-1.2.286-1.727-.625l8.3-2.419c-1.162-.657-2.263,0-3.367-.135a4.223,4.223,0,0,0-2.323.255,5.274,5.274,0,0,1-3.54-.082l-.058-.366,12.7-2.285C76.458,140.791,77.762,140.367,79.06,139.99Zm-12.725,4.861a11.626,11.626,0,0,1,1.318.079c.241.077.649-.329.962-.541a.344.344,0,0,0-.053-.3c-.317-.2-.606.058-.868.159C67.29,144.4,66.761,144.3,66.335,144.851Z" transform="translate(-39.378 -104.983)" fill="#ff6363"/>
      <path id="Path_1977" data-name="Path 1977" d="M27.869,82.009c.029-.026.077-.084.082-.079,1.518,1.037,3.24.452,4.863.63.132.014.241.168.373.257-.241.18-.649.363-.253.7.532.447.4,1.638,1.549,1.443a4.144,4.144,0,0,0-.842-2.061c.647-.183.782.33.962.722a2.921,2.921,0,0,0,2.405,2.028c-.149.572.3.443.565.443q3.182,0,6.366-.034c.346,0,.77.06.758-.5a11.166,11.166,0,0,1,3.848,0c-.394.325.1.544.1.823-2.427.043-4.853.079-7.28.13-1.633.034-3.264.123-4.894.123-.589,0-.928.37-1.356.628.111-.469-.637-.69-.452-1,.447-.758-.127-.58-.481-.623a35.1,35.1,0,0,0-6.157-.053c-2.047.089-4.019-.337-6.013.024-.207.038-.556-.077-.529.293.022.274.279.337.544.337,1.022,0,2.049-.053,3.069.017,2.405.166,4.829-.464,7.215.33.38.125.988-.414,1.147.366a1.4,1.4,0,0,1-.409,1.318,1.277,1.277,0,0,0-.332.873c-1.236.063-2.352.849-3.639.6a6.261,6.261,0,0,0,1.833-1.991c.553-.791.354-1.073-.527-1.077H24.872a1.487,1.487,0,0,0-1.356.755c-.556.8-.647,1.924-1.619,2.444a.589.589,0,0,0-.171.522c.072.305.38.195.6.216,1.085.111,2.073-.633,3.177-.349a5.294,5.294,0,0,1-2.73.676c-2.023.2-3.983.693-5.972,1.044-.37.067-.842.265-1.077-.2s.139-.755.431-1.013c.616-.548.722-1.532,1.609-1.842-.272.962-1.253,1.525-1.462,2.6,1.33.1,2.405-.1,3.074-1.383a8.747,8.747,0,0,1,1.154-1.938c.241-.267.7-.642.464-1.008s-.8-.195-1.217-.209a.866.866,0,0,0-.811.539c-.3.512-.527,1.169-1.2,1.4,0-.8,1.246-1.347.758-2.044-.382-.544-1.419-.118-2.15-.274-.368-.079-.722-.164-.741-.616-.012-.289.029-.594.464-.416-.2.649.241.637.666.637,1.075,0,2.165,0,3.228-.034.226,0,.481-.089.452-.454-.541-.33-1.171.108-1.72-.168.048-.346.094-.69.139-1.037a4.026,4.026,0,0,0,.738.558,1.284,1.284,0,0,0,1.46-.05c.433-.447-.212-.722-.39-1.07a13.773,13.773,0,0,0-2.886-3.67l4.329.77c-.589.241-.722.592-.241,1.075a13.271,13.271,0,0,1,1.756,2.405,1.227,1.227,0,0,0,1.159.666c1.8-.022,3.608,0,5.4-.027.363,0,.933.079.837-.544-.082-.519-.548-.637-1.032-.539a4.185,4.185,0,0,1-.794.224c-.678,0-1.373-.539-1.106-1C28.468,82.649,27.939,82.427,27.869,82.009Z" transform="translate(-11.872 -60.777)" fill="#ffc9c9"/>
      <path id="Path_1978" data-name="Path 1978" d="M15.616,136.441a2.992,2.992,0,0,0-1.575.332,5.631,5.631,0,0,1-2.468.277c-.305-.106-.608-.212-.765.214-.342-.13-.649.041-.962.1-.835-1.4.907-.481.962-1.113-.325-.241-.909.171-1.111-.421.455-.274,1.171.019,1.443-.659l1.306-.075a.543.543,0,0,0,.743-.084h0a2.9,2.9,0,0,0,.481.036c3.03-.32,6.061-.637,9.089-.979a3.451,3.451,0,0,0,.866-.366l1.118-.118a1.41,1.41,0,0,0,1.484-.192l.921-.065a1.383,1.383,0,0,0,1.2-.072l.421-.043a5.426,5.426,0,0,0,2.982-.31l2.537-.207c.308.216.481.07.628-.219l.866-.06c.3.24.39.406-.058.647-.539.289-1.183.137-1.744.363.216.517.575.4.871.435.613.063.277.4.2.664-2.5.171-4.9.945-7.369,1.323a70.869,70.869,0,0,0-9.813,1.989,3.393,3.393,0,0,1-1.878.022c-.053-.014-.108-.269-.089-.279a2.893,2.893,0,0,1,1.859-.618c.82.142,1.371-.64,2.165-.517a11.748,11.748,0,0,0,4.546-1.217,13.7,13.7,0,0,0-4.531.536h-.106l-.089.058-.257.195-3.331.332a.349.349,0,0,0-.548.089Z" transform="translate(-7.306 -100.306)" fill="#ff6363"/>
      <path id="Path_1979" data-name="Path 1979" d="M17.691,52.742l5.549,1.2c.216.291.481.219.77.123a6.833,6.833,0,0,1,2.035.507h-.026l.83-.022a.3.3,0,0,0,.481.051l.647.106a.406.406,0,0,0,.628.19l.887.127a1.83,1.83,0,0,0,1.515.31c1.465.19,2.845.873,4.365.753.332-.029.481.2.637.445-.837.58-1.811-.467-2.775.26,1.056.868,2.343.3,3.526.75-.647.382-1.272.094-1.8.32l-2.107-.1a6.056,6.056,0,0,0-3.187-.339l-.426-.043a6.47,6.47,0,0,0-2.771-.366c-1.64-.139-3.244-.664-4.914-.481l-.664-.05a2.136,2.136,0,0,0-1.47-.385c-2.213.079-4.317-.722-6.518-.722-.594,0-1.669-.255-1.631-.411.305-1.241-.89-.589-1.188-1.027-.161-.241-.654-.111-.866-.5,1.241-.423,2.311.57,3.466.207l.457.077c.44.308.825.811,1.443.676,1.989-.443,3.863.219,5.772.536a12.8,12.8,0,0,0,3.8.515l.072-.375-8.639-2.116-.44-.087C15.954,52.052,16.849,52.915,17.691,52.742Z" transform="translate(-7.002 -39.777)" fill="#ff6363"/>
      <path id="Path_1980" data-name="Path 1980" d="M44.684,110.468c-1.1-.284-2.092.459-3.177.349-.224-.022-.532.089-.6-.216a.589.589,0,0,1,.171-.522c.962-.532,1.063-1.643,1.619-2.444a1.487,1.487,0,0,1,1.356-.755h5.512c.88,0,1.08.286.527,1.077a6.261,6.261,0,0,1-1.833,1.991l-.647.067a3.968,3.968,0,0,0-2.468.387Z" transform="translate(-29.176 -80.967)" fill="#ff6363"/>
      <path id="Path_1981" data-name="Path 1981" d="M46.62,84.485c.07.418.594.64.216,1.3-.267.464.428,1.008,1.106,1a4.185,4.185,0,0,0,.794-.224c.481-.1.962.019,1.032.539.1.623-.481.539-.837.544-1.8.024-3.608,0-5.4.026a1.226,1.226,0,0,1-1.159-.664,13.173,13.173,0,0,0-1.756-2.405c-.481-.481-.349-.83.241-1.075l.4.06a2.819,2.819,0,0,0,2.032.329l1.53.241a.654.654,0,0,0,.895.178Z" transform="translate(-28.769 -63.278)" fill="#ff6363"/>
      <path id="Path_1982" data-name="Path 1982" d="M47.04,153.05c1.1.125,2.205-.522,3.367.135l-8.3,2.419c.524.912,1.2-.072,1.727.625-.849.269-1.645.519-2.439.774-1.037.332-1.989.76-2.239,1.982-.188.462-.582.481-.988.455.195-.416.334-.77-.4-.592a5.343,5.343,0,0,1-2.222.375.289.289,0,0,0-.152-.356c.24-.014.532.084.683-.24a.827.827,0,0,0-.832.053c-.722.2-1.443.411-2.165.594-.279.072-.594.036-.683-.286-.079-.279.212-.392.406-.51a3.607,3.607,0,0,1,2.614-.45,3.963,3.963,0,0,0,1.174-.043c.878-.291,1.9-.392,2.331-1.426,1.647-.44,2.987-1.515,4.51-2.222C44.6,153.788,46.162,154.368,47.04,153.05Z" transform="translate(-22.617 -115.742)" fill="#ffc9c9"/>
      <path id="Path_1983" data-name="Path 1983" d="M152.09,97.8c0-.279-.5-.5-.1-.823.188-.022.38-.031.481-.226.623.152.779-.3.95-.722h0c.217,0,.31-.132.351-.322.892-.873,1.722-.152,2.518.159.878.317,1.6,1,2.609,1.039.224,0,.512.084.51.394,0,.269-.226.4-.459.481-1.3.481-2.588,1-3.889,1.482-.89.329-1.383-.382-1.987-.8-.075-.241-.209-.421-.5-.394Z" transform="translate(-108.694 -72.185)" fill="#ff6363"/>
      <path id="Path_1984" data-name="Path 1984" d="M5.686,55.121c-1.154.363-2.225-.63-3.466-.207.212.392.7.269.866.5.3.438,1.494-.214,1.188,1.027-.038.156,1.037.411,1.631.411,2.2,0,4.305.811,6.518.722a2.136,2.136,0,0,1,1.47.385A16.97,16.97,0,0,1,9.6,57.721,84.307,84.307,0,0,1,.972,56.333c-.378-.084-.851-.06-.96-.556s.392-.512.649-.722C1.645,54.236,4.327,54.265,5.686,55.121Z" transform="translate(0.003 -41.256)" fill="#ffc9c9"/>
      <path id="Path_1985" data-name="Path 1985" d="M77.549,181.65l-.394.854a1.318,1.318,0,0,0,1.077-.4c.9-.753,1.684,0,2.47.207.4.108.063.4-.192.546a9.351,9.351,0,0,0-2.441,2.047l1.3-.091c-.784.878-1.527,1.78-2.8,1.859-.366-1.063.207-1.626,1.037-2.145.31-.192.962-.462.7-.938s-.875-.428-1.412-.281c-.948.26-1.746.984-2.8.9v-.257l.289-.3c-.031-.017-.07-.058-.091-.05-.18.06-.18.214-.18.366l-.44.065c.065.279.293.1.438.156-.481.406-.481.406-1.717-.019A10.549,10.549,0,0,1,77.549,181.65Z" transform="translate(-51.74 -137.588)" fill="#ffc9c9"/>
      <path id="Path_1986" data-name="Path 1986" d="M51.142,105.567a1.277,1.277,0,0,1,.329-.873,1.4,1.4,0,0,0,.409-1.318c-.159-.779-.767-.241-1.147-.366-2.379-.794-4.81-.164-7.215-.329-1.02-.07-2.047-.022-3.069-.017-.265,0-.522-.063-.544-.337-.026-.37.322-.255.529-.293,2-.361,4.009.065,6.013-.024a35.136,35.136,0,0,1,6.157.053c.346.043.921-.135.481.623-.185.313.563.534.452,1a.888.888,0,0,0-.106.161.339.339,0,0,0-.277.4,2.8,2.8,0,0,1-1.277,1.2.361.361,0,0,0-.529.142C51.284,105.589,51.212,105.579,51.142,105.567Z" transform="translate(-28.219 -77.185)" fill="#ff6363"/>
      <path id="Path_1987" data-name="Path 1987" d="M111.985,134.131c.072-.265.409-.6-.2-.664-.3-.031-.654.082-.871-.435.56-.226,1.2-.075,1.744-.363.447-.241.361-.4.058-.647a1.473,1.473,0,0,1,1.469.214c1.15.676,1.13.7,2.973.322a9.151,9.151,0,0,1,2.848-.022c-.481.77-1.2.782-1.859.89-.825.135-1.662.176-2.494.265-.308.034-.722.053-.683.457.031.31.385.452.722.505.532.082,1.1-.262,1.6.156-1.3.378-2.6.8-3.848-.176C113.219,133.727,112.485,134.269,111.985,134.131Z" transform="translate(-79.188 -99.924)" fill="#ffc9c9"/>
      <path id="Path_1988" data-name="Path 1988" d="M110.807,70.345c.527-.226,1.152.063,1.8-.32-1.183-.455-2.47.118-3.526-.75.962-.722,1.939.32,2.775-.26a24.267,24.267,0,0,1,6.4.45c.265.041.666.06.64.4-.034.433-.481.4-.762.322-.722-.214-1.236.255-1.837.387A9.548,9.548,0,0,1,110.807,70.345Z" transform="translate(-77.777 -52.229)" fill="#ffc9c9"/>
      <path id="Path_1989" data-name="Path 1989" d="M101.44,179.923c.241-.907,1.077-1.222,1.773-1.566a14.535,14.535,0,0,0,3.259-2.739c.166-.154.416-.368.241-.606-.154-.2-.428-.132-.659-.012-.455.24-.926.445-1.378.683a.918.918,0,0,1-1.335-.221c1.871-.827,3.5-2.03,5.438-2.612a3.691,3.691,0,0,1-1.424,2.6c-1.684,1.6-3.281,3.3-4.911,4.962C102.32,179.815,101.709,180.217,101.44,179.923Z" transform="translate(-72.647 -130.905)" fill="#ffc9c9"/>
      <path id="Path_1990" data-name="Path 1990" d="M19.266,79.875a13.677,13.677,0,0,1,2.886,3.67c.183.346.827.623.394,1.068a1.284,1.284,0,0,1-1.46.051,4.028,4.028,0,0,1-.738-.558l-1.736-2.367a.2.2,0,0,0-.2-.253.6.6,0,0,0-.1-.159.455.455,0,0,0-.382-.563l-.339-.409c.022-.507.455-.481.777-.616Z" transform="translate(-13.359 -60.403)" fill="#ff6363"/>
      <path id="Path_1991" data-name="Path 1991" d="M137.874,141.83l.462-.859c-2.056.524-3.983,1.025-5.914,1.5-.416.1-1.022.642-1.222.014-.132-.411.6-.625,1.07-.782,2.686-.88,5.361-1.789,8.045-2.677.385-.128.808-.171.721-.738.313-.192.633-.216.777.164.12.313-.14.515-.4.633a13.454,13.454,0,0,1-1.311.534c-.575.19-1.037.3-.933,1.171C139.235,141.45,138.6,141.838,137.874,141.83Z" transform="translate(-93.009 -104.655)" fill="#ffc9c9"/>
      <path id="Path_1992" data-name="Path 1992" d="M78.417,16.54c-.741.8.082,1.065.532,1.306a19.712,19.712,0,0,1,2.533,1.215c-.909.195-1.563-.452-2.3-.758a42.842,42.842,0,0,1-5.462-2.646c-.226-.137-.572-.241-.469-.589.082-.3.421-.132.611-.241,1.049-.544,1.83.166,2.646.575A4.974,4.974,0,0,1,78.417,16.54Z" transform="translate(-52.364 -11.111)" fill="#ffc9c9"/>
      <path id="Path_1993" data-name="Path 1993" d="M27.974,54.36l8.639,2.114-.072.375a12.8,12.8,0,0,1-3.8-.515c-1.924-.317-3.786-.979-5.772-.536-.611.135-1-.368-1.443-.676.363-.3.734-.125,1.109-.024C27.327,55.279,27.808,55.089,27.974,54.36Z" transform="translate(-19.389 -41.183)" fill="#ffc9c9"/>
      <path id="Path_1994" data-name="Path 1994" d="M54.742,20.036c.07.411.089.962-.462.825-.962-.241-2.015-.094-2.864-.722l.69-.375c-1.258-1.034-3.153-.984-4.216-2.8A25.2,25.2,0,0,1,54.742,20.036Z" transform="translate(-34.321 -12.88)" fill="#ffc9c9"/>
      <path id="Path_1995" data-name="Path 1995" d="M90.424,5.894c-1.349-.5-2.852-.45-4.146-1.169-.178-.1-.589-.12-.659-.017-.241.361.185.606.279.921-.673.257-.962-.272-1.114-.7s.293-.661.637-.871a7.711,7.711,0,0,0,.635-.481c.416-.026.758.534,1.277.192-.317-.414-1.02-.3-1.041-.933A6.379,6.379,0,0,1,90.424,5.894Zm-2.78-1.852.055.038V4.026Z" transform="translate(-60.856 -2.156)" fill="#ffc9c9"/>
      <path id="Path_1996" data-name="Path 1996" d="M27.393,167.76c-.022-1.063-.722-.481-1.08-.378-1.542.469-3.064,1.005-4.586,1.534-.363.125-.8.255-.962-.123-.185-.452.32-.539.635-.676a23.453,23.453,0,0,1,6.811-1.749.746.746,0,0,0-.317,1.015C27.828,167.642,27.694,167.811,27.393,167.76Z" transform="translate(-15.74 -126.043)" fill="#ffc9c9"/>
      <path id="Path_1997" data-name="Path 1997" d="M85.406,171.212c1.407.623,2.552-.532,3.867-.582-.209.791-2.345,2.025-3.557,2.068-.346-.873-.931-.212-1.27-.087a5.864,5.864,0,0,1-1.951.414c-.2,0-.411-.017-.481-.241a.365.365,0,0,1,.241-.481C83.314,172,84.191,171.113,85.406,171.212Z" transform="translate(-58.724 -129.218)" fill="#ffc9c9"/>
      <path id="Path_1998" data-name="Path 1998" d="M108.753,34.37c1.051,0,1.777.789,2.679,1.157a16.512,16.512,0,0,1,2.646,1.753,17.361,17.361,0,0,1-5.558-1.02,3.606,3.606,0,0,1,1.753-.046c.219.019.5.173.6-.149s-.219-.368-.382-.522C109.963,35.06,109.116,35.082,108.753,34.37Zm2.465,2.011.072.048v-.072Z" transform="translate(-77.934 -26.038)" fill="#ffc9c9"/>
      <path id="Path_1999" data-name="Path 1999" d="M30.69,177.9a5.277,5.277,0,0,0,2.222-.375c.729-.18.594.176.4.592a13.581,13.581,0,0,0-3.317,1.029,6.934,6.934,0,0,0-3.432,1.1l-.418.089c-.05-.209-.1-.416-.154-.625Z" transform="translate(-19.739 -134.421)" fill="#ff6363"/>
      <path id="Path_2000" data-name="Path 2000" d="M42.169,44.04a5.756,5.756,0,0,1,2.792.4c.274.14.722.19.575.563a.741.741,0,0,1-.933.313,7.368,7.368,0,0,0-2.359-.2c-.125,0-.26.137-.392.209a2.273,2.273,0,0,1-2.405-.6l-.036-.589C40.336,44.252,41.279,44.855,42.169,44.04Z" transform="translate(-28.276 -33.362)" fill="#ffc9c9"/>
      <path id="Path_2001" data-name="Path 2001" d="M113.264,24.177a35.71,35.71,0,0,1-5.423-2.783c-.207-.12-.455-.293-.337-.553.2-.43.481.053.678,0,.481-.137.928,1.056,1.417.041.722.293,1.458.551,1.469,1.542,0,.44.464.481.743.657C112.319,23.412,113.026,23.487,113.264,24.177Z" transform="translate(-77.156 -15.691)" fill="#ffc9c9"/>
      <path id="Path_2002" data-name="Path 2002" d="M34.916,137.76a3.449,3.449,0,0,1-.866.366c-3.028.341-6.058.659-9.089.979a2.9,2.9,0,0,1-.481-.036c.943-.8,2.126-.539,3.2-.669C30.086,138.114,32.5,137.964,34.916,137.76Z" transform="translate(-18.592 -104.375)" fill="#ffc9c9"/>
      <path id="Path_2003" data-name="Path 2003" d="M4.573,143.842c-.262.678-.979.385-1.443.659.2.592.786.19,1.111.421-.067.623-1.809-.284-.962,1.114-1.15.7-1.647-.378-2.215-.938-.351-.349.224-.741.587-.789A13.949,13.949,0,0,1,4.573,143.842Z" transform="translate(-0.725 -108.97)" fill="#ffc9c9"/>
      <path id="Path_2004" data-name="Path 2004" d="M98.839,22.6c1.876.7,3.495,1.876,5.544,2.756a2.108,2.108,0,0,1-2.126-.111c-1.279-.587-2.374-1.551-3.793-1.866-.055-.012-.07-.212-.1-.325C98.552,22.937,98.8,22.877,98.839,22.6Z" transform="translate(-70.588 -17.164)" fill="#ffc9c9"/>
      <path id="Path_2005" data-name="Path 2005" d="M60.53,69.146c1.669-.185,3.273.339,4.914.481a6.29,6.29,0,0,1,2.771.366A20.763,20.763,0,0,1,60.53,69.146Z" transform="translate(-43.324 -52.36)" fill="#ffc9c9"/>
      <path id="Path_2006" data-name="Path 2006" d="M52.464,144.5A13.693,13.693,0,0,1,57,143.967a12.005,12.005,0,0,1-4.546,1.217Z" transform="translate(-37.722 -109.046)" fill="#ffc9c9"/>
      <path id="Path_2007" data-name="Path 2007" d="M112.1,102.211c.012.563-.411.5-.758.5q-3.182.034-6.366.034c-.265,0-.722.13-.565-.443C106.971,102.074,109.535,102.259,112.1,102.211Z" transform="translate(-74.703 -77.424)" fill="#ff6363"/>
      <path id="Path_2008" data-name="Path 2008" d="M140.18,40.753c-2.386-.808-4.067-2.581-5.83-4.243a2.018,2.018,0,0,1,1.643.861,7.574,7.574,0,0,0,3.309,2.482A1.237,1.237,0,0,1,140.18,40.753Z" transform="translate(-95.413 -27.657)" fill="#ffc9c9"/>
      <path id="Path_2009" data-name="Path 2009" d="M77.79,41.07c2.261.481,4.452,1.089,6.253,2.886-.688.277-1.14.221-1.522-.219-.851-1.224-2.309-1.352-3.511-1.938C78.586,41.585,77.956,41.719,77.79,41.07Z" transform="translate(-55.806 -31.114)" fill="#ffc9c9"/>
      <path id="Path_2010" data-name="Path 2010" d="M21.61,40.175l.036.589a21.771,21.771,0,0,1-5.354-1.373c-.178-.053-.4-.152-.289-.406.091-.214.241-.2.481-.13,1.2.37,2.42.676,3.608,1.053A3.682,3.682,0,0,0,21.61,40.175Z" transform="translate(-12.131 -29.402)" fill="#ff6363"/>
      <path id="Path_2011" data-name="Path 2011" d="M66.223,44.364A19.244,19.244,0,0,1,59.51,42.44a49.161,49.161,0,0,1,6.354,1.5C66.011,43.962,66.1,44.215,66.223,44.364Z" transform="translate(-42.661 -32.154)" fill="#ffc9c9"/>
      <path id="Path_2012" data-name="Path 2012" d="M164.3,65.295c1.231-.305.428-.671.031-1.025,1.034-.183,1.883.481,2.845.647.127.022.24.284.305.455a.243.243,0,0,1-.228.337C166.272,65.547,165.238,65.759,164.3,65.295Z" transform="translate(-118.16 -48.67)" fill="#ffc9c9"/>
      <path id="Path_2013" data-name="Path 2013" d="M20.035,102.21c.548.277,1.178-.161,1.72.168.034.366-.226.447-.452.455-1.075.029-2.153.031-3.228.034-.416,0-.863,0-.666-.637Z" transform="translate(-13.184 -77.443)" fill="#ff6363"/>
      <path id="Path_2014" data-name="Path 2014" d="M26.635,32.894l.029.481a16.087,16.087,0,0,1-2.973-1.08c-.241-.089-.584-.24-.481-.57.111-.375.443-.178.7-.147a14.156,14.156,0,0,1,2.484.962l.274.394Z" transform="translate(-17.613 -23.923)" fill="#ffc9c9"/>
      <path id="Path_2015" data-name="Path 2015" d="M32.224,50.414c-.842.173-1.736-.69-2.545.13-.241-.024-.536.034-.688-.091-.241-.2-.772-.3-.6-.75.135-.358.58-.265.851-.168C30.218,49.883,31.428,49.464,32.224,50.414Z" transform="translate(-20.412 -37.463)" fill="#ffc9c9"/>
      <path id="Path_2016" data-name="Path 2016" d="M21.064,16.565c-.274.166-.661.127-.839.467a4.18,4.18,0,0,1-1.78-.618c-.2-.125-.452-.272-.373-.544.108-.361.481-.322.707-.224C19.535,15.966,20.449,15.92,21.064,16.565Z" transform="translate(-13.714 -11.831)" fill="#ffc9c9"/>
      <path id="Path_2017" data-name="Path 2017" d="M92.678,36.49a10.737,10.737,0,0,1-4.428-1.78A9.151,9.151,0,0,1,92.678,36.49Z" transform="translate(-63.481 -26.297)" fill="#ffc9c9"/>
      <path id="Path_2018" data-name="Path 2018" d="M64.524,182.243l-3.155,1.717-.738-.24c.962-.546,1.924-1.114,2.9-1.631a1.018,1.018,0,0,1,.962-.156C64.5,182.031,64.514,182.134,64.524,182.243Z" transform="translate(-43.645 -137.748)" fill="#ff6363"/>
      <path id="Path_2019" data-name="Path 2019" d="M87.746,90.949a4.171,4.171,0,0,1,.842,2.061c-1.15.192-1.017-1-1.549-1.443-.4-.334,0-.517.253-.7Z" transform="translate(-62.712 -68.845)" fill="#ff6363"/>
      <path id="Path_2020" data-name="Path 2020" d="M20,186.81c.051.209.1.416.154.625,0,.036,0,.089-.034.111a2.037,2.037,0,0,1-1.842.457.267.267,0,0,1-.135-.4A2.159,2.159,0,0,1,20,186.81Z" transform="translate(-13.747 -141.507)" fill="#ffc9c9"/>
      <path id="Path_2021" data-name="Path 2021" d="M135.062,53.5c-1.188.106-2.133-.722-3.259-.856-.07,0-.173-.164-.173-.241,0-.286.241-.265.428-.265a15.671,15.671,0,0,1,3.148.786Z" transform="translate(-94.797 -39.503)" fill="#ffc9c9"/>
      <path id="Path_2022" data-name="Path 2022" d="M45.815,169.12c.3.051.435-.118.505-.375a8.653,8.653,0,0,0,2.165-.584c-.433,1.034-1.443,1.135-2.331,1.426a4.314,4.314,0,0,1-1.174.043C45.033,169.084,45.439,169.129,45.815,169.12Z" transform="translate(-32.396 -127.343)" fill="#ff6363"/>
      <path id="Path_2023" data-name="Path 2023" d="M141.38,161.96c.115-.411.428-.7.406-1.239-.026-.6.7-.664,1.229-.722C142.744,160.875,142.563,161.833,141.38,161.96Z" transform="translate(-102.073 -121.222)" fill="#ffc9c9"/>
      <path id="Path_2024" data-name="Path 2024" d="M146.188,139.75c-1.337.24-2.59,1.044-4.028.584A7.66,7.66,0,0,1,146.188,139.75Z" transform="translate(-101.345 -105.825)" fill="#ffc9c9"/>
      <path id="Path_2025" data-name="Path 2025" d="M94.25,72.68a6.056,6.056,0,0,1,3.187.339A5.344,5.344,0,0,1,94.25,72.68Z" transform="translate(-67.912 -54.992)" fill="#ffc9c9"/>
      <path id="Path_2026" data-name="Path 2026" d="M87.785,1.736c.022.633.722.51,1.041.924-.519.342-.861-.219-1.277-.192l-.83-.642c.063-.147.125-.291.19-.438A1.647,1.647,0,0,1,87.785,1.736Z" transform="translate(-62.573 -1.052)" fill="#ff6363"/>
      <path id="Path_2027" data-name="Path 2027" d="M58.116,189.552l.738.24c-.3.594-.878.594-1.534.721C57.421,189.985,57.426,189.511,58.116,189.552Z" transform="translate(-41.388 -143.588)" fill="#ffc9c9"/>
      <path id="Path_2028" data-name="Path 2028" d="M99.238,202.2c.269.293.88-.108,1,.481l-.577.637a.7.7,0,0,0-.645.527c-.507-.043-.584-.3-.339-.7.317-.24.909-.327.584-.962Z" transform="translate(-71.138 -153.18)" fill="#ff6363"/>
      <path id="Path_2029" data-name="Path 2029" d="M28.37,185.491A6.935,6.935,0,0,1,31.8,184.38,6.071,6.071,0,0,1,28.37,185.491Z" transform="translate(-20.435 -139.662)" fill="#ffc9c9"/>
      <path id="Path_2030" data-name="Path 2030" d="M92.222,134a5.426,5.426,0,0,1-2.982.31A4.018,4.018,0,0,1,92.222,134Z" transform="translate(-64.319 -101.428)" fill="#ffc9c9"/>
      <path id="Path_2031" data-name="Path 2031" d="M132.31,63.471a4.261,4.261,0,0,1,2.444.459A2.108,2.108,0,0,1,132.31,63.471Z" transform="translate(-95.428 -48.062)" fill="#ffc9c9"/>
      <path id="Path_2032" data-name="Path 2032" d="M58.55,120.091a3.985,3.985,0,0,1,2.468-.387A2.93,2.93,0,0,1,58.55,120.091Z" transform="translate(-42.227 -90.637)" fill="#ffc9c9"/>
      <path id="Path_2033" data-name="Path 2033" d="M158.17,56.39a1.383,1.383,0,0,0,.818-.51c.481.144,1,.563.654.912C159.228,57.217,158.567,56.919,158.17,56.39Z" transform="translate(-113.504 -42.338)" fill="#ffc9c9"/>
      <path id="Path_2034" data-name="Path 2034" d="M96.852,202.219c.325.635-.267.722-.584.962a1.355,1.355,0,0,1-.9-.272C95.642,202.2,96.243,202.216,96.852,202.219Z" transform="translate(-68.86 -153.21)" fill="#ffc9c9"/>
      <path id="Path_2035" data-name="Path 2035" d="M62.52,34.37c.505.51,1.443.272,1.8,1.039C63.5,35.443,62.8,35.272,62.52,34.37Z" transform="translate(-45.128 -26.103)" fill="#ffc9c9"/>
      <path id="Path_2036" data-name="Path 2036" d="M46.252,83.762a2.819,2.819,0,0,1-2.032-.329A2.152,2.152,0,0,1,46.252,83.762Z" transform="translate(-31.91 -63.139)" fill="#ffc9c9"/>
      <path id="Path_2037" data-name="Path 2037" d="M16.823,78.352c-.322.125-.755.108-.777.616-.548-.135-.616-.539-.3-.863C16.145,77.7,16.522,78,16.823,78.352Z" transform="translate(-11.815 -59.031)" fill="#ffc9c9"/>
      <path id="Path_2038" data-name="Path 2038" d="M74,136.115a1.412,1.412,0,0,1-1.484.192A1.459,1.459,0,0,1,74,136.115Z" transform="translate(-52.367 -103.048)" fill="#ffc9c9"/>
      <path id="Path_2039" data-name="Path 2039" d="M95.035,62.858a1.83,1.83,0,0,1-1.515-.308A1.248,1.248,0,0,1,95.035,62.858Z" transform="translate(-67.529 -47.285)" fill="#ffc9c9"/>
      <path id="Path_2040" data-name="Path 2040" d="M83.693,135.307a1.383,1.383,0,0,1-1.2.072A.926.926,0,0,1,83.693,135.307Z" transform="translate(-59.587 -102.379)" fill="#ffc9c9"/>
      <path id="Path_2041" data-name="Path 2041" d="M123,62.619c.1-.962.6-.64,1.094-.339C123.835,62.768,123.418,62.723,123,62.619Z" transform="translate(-88.861 -46.958)" fill="#ffc9c9"/>
      <path id="Path_2042" data-name="Path 2042" d="M85.429.336c-.065.147-.123.291-.19.438-.438-.007-.582-.291-.378-.6S85.307,0,85.429.336Z" transform="translate(-61.273 -0.001)" fill="#ffc9c9"/>
      <path id="Path_2043" data-name="Path 2043" d="M155.45,98.294c-.171.435-.327.885-.95.722A.853.853,0,0,1,155.45,98.294Z" transform="translate(-110.717 -74.472)" fill="#ffc9c9"/>
      <path id="Path_2044" data-name="Path 2044" d="M97.971,168.9a.652.652,0,0,1-.861.587C97.221,169.035,97.565,168.924,97.971,168.9Z" transform="translate(-70.176 -127.905)" fill="#ffc9c9"/>
      <path id="Path_2045" data-name="Path 2045" d="M100.51,207.477a.7.7,0,0,1,.645-.527C101.128,207.356,101.017,207.662,100.51,207.477Z" transform="translate(-72.651 -156.803)" fill="#ffc9c9"/>
      <path id="Path_2046" data-name="Path 2046" d="M113.844,19.5a.748.748,0,0,1-.774-.645A.662.662,0,0,1,113.844,19.5Z" transform="translate(-81.718 -14.321)" fill="#ffc9c9"/>
      <path id="Path_2047" data-name="Path 2047" d="M100.4,164.629c.029-.156.115-.3.277-.209a.387.387,0,0,1,.156.481C100.592,164.964,100.429,164.9,100.4,164.629Z" transform="translate(-72.587 -124.557)" fill="#ffc9c9"/>
      <path id="Path_2048" data-name="Path 2048" d="M59.9,85.883A.654.654,0,0,1,59,85.7a.58.58,0,0,1,.9.178Z" transform="translate(-42.634 -64.828)" fill="#ffc9c9"/>
      <path id="Path_2049" data-name="Path 2049" d="M14.6,151.586c.156-.426.459-.32.765-.214C15.223,151.848,14.958,151.882,14.6,151.586Z" transform="translate(-11.088 -114.621)" fill="#ffc9c9"/>
      <path id="Path_2050" data-name="Path 2050" d="M133.36,170.669a.917.917,0,0,1,1-.421A.8.8,0,0,1,133.36,170.669Z" transform="translate(-96.356 -128.909)" fill="#ffc9c9"/>
      <path id="Path_2051" data-name="Path 2051" d="M68.28,57.885c-.277.1-.553.168-.77-.123C67.823,57.445,68.087,57.428,68.28,57.885Z" transform="translate(-48.791 -43.591)" fill="#ffc9c9"/>
      <path id="Path_2052" data-name="Path 2052" d="M155.32,154.5a.7.7,0,0,1,.688-.512C155.977,154.427,155.724,154.555,155.32,154.5Z" transform="translate(-111.34 -116.676)" fill="#ffc9c9"/>
      <path id="Path_2053" data-name="Path 2053" d="M153.35,67.357a2.222,2.222,0,0,1,1.265.053A1.157,1.157,0,0,1,153.35,67.357Z" transform="translate(-109.844 -50.985)" fill="#ffc9c9"/>
      <path id="Path_2054" data-name="Path 2054" d="M139,168.406a.428.428,0,0,1,.572-.332C139.507,168.406,139.308,168.5,139,168.406Z" transform="translate(-100.482 -127.257)" fill="#ffc9c9"/>
      <path id="Path_2055" data-name="Path 2055" d="M76.721,181.649c0-.106-.022-.212-.031-.317.168-.14.317-.356.58-.2a.2.2,0,0,1,.06.183C77.217,181.579,77.051,181.781,76.721,181.649Z" transform="translate(-55.434 -137.154)" fill="#ffc9c9"/>
      <path id="Path_2056" data-name="Path 2056" d="M83.011,60.657a.3.3,0,0,1-.481-.051C82.708,60.414,82.884,60.435,83.011,60.657Z" transform="translate(-59.666 -45.821)" fill="#ffc9c9"/>
      <path id="Path_2057" data-name="Path 2057" d="M161.264,139.123a.962.962,0,0,1-1.044.1A1.015,1.015,0,0,1,161.264,139.123Z" transform="translate(-115.061 -105.337)" fill="#ffc9c9"/>
      <path id="Path_2058" data-name="Path 2058" d="M86.9,33.556a.267.267,0,0,1-.394-.209C86.844,33.032,86.868,33.3,86.9,33.556Z" transform="translate(-62.55 -25.217)" fill="#ffc9c9"/>
      <path id="Path_2059" data-name="Path 2059" d="M32.688,20.157c-.279.022-.524-.012-.568-.363C32.486,19.64,32.587,19.9,32.688,20.157Z" transform="translate(-24.394 -14.997)" fill="#ffc9c9"/>
      <path id="Path_2060" data-name="Path 2060" d="M112.818,132.423c-.135.289-.32.435-.628.219C112.315,132.325,112.536,132.286,112.818,132.423Z" transform="translate(-81.096 -100.279)" fill="#ffc9c9"/>
      <path id="Path_2061" data-name="Path 2061" d="M153.29,56.495a.375.375,0,0,1,.524.18C153.535,56.918,153.362,56.848,153.29,56.495Z" transform="translate(-109.798 -42.771)" fill="#ffc9c9"/>
      <path id="Path_2062" data-name="Path 2062" d="M34.55,148.564a.349.349,0,0,1,.536-.1C34.961,148.814,34.788,148.864,34.55,148.564Z" transform="translate(-24.976 -112.427)" fill="#ffc9c9"/>
      <path id="Path_2063" data-name="Path 2063" d="M151,157.4a.438.438,0,0,1,.6-.253A.374.374,0,0,1,151,157.4Z" transform="translate(-108.059 -119.04)" fill="#ffc9c9"/>
      <path id="Path_2064" data-name="Path 2064" d="M95.62,165.28c.058-.342.241-.426.539-.26a.385.385,0,0,1-.539.26Z" transform="translate(-69.125 -124.972)" fill="#ffc9c9"/>
      <path id="Path_2065" data-name="Path 2065" d="M18.941,84a.455.455,0,0,1,.382.565A.44.44,0,0,1,18.941,84Z" transform="translate(-14.371 -63.645)" fill="#ffc9c9"/>
      <path id="Path_2066" data-name="Path 2066" d="M160.16,67.776a.351.351,0,0,1,.551.108C160.48,68.091,160.295,68.069,160.16,67.776Z" transform="translate(-115.016 -51.285)" fill="#ffc9c9"/>
      <path id="Path_2067" data-name="Path 2067" d="M145.18,65.719a.433.433,0,0,1,.654.159.394.394,0,0,1-.654-.159Z" transform="translate(-104.939 -49.727)" fill="#ffc9c9"/>
      <path id="Path_2068" data-name="Path 2068" d="M154.9,106.9c.291-.026.426.147.5.394C155.068,107.373,154.883,107.265,154.9,106.9Z" transform="translate(-111.018 -80.996)" fill="#ffc9c9"/>
      <path id="Path_2069" data-name="Path 2069" d="M87.848,61.6a.406.406,0,1,1-.266-.254A.406.406,0,0,1,87.848,61.6Z" transform="translate(-63.046 -46.47)" fill="#ffc9c9"/>
      <path id="Path_2070" data-name="Path 2070" d="M87.52,116.663a.361.361,0,0,1,.529-.142C87.943,116.829,87.775,116.908,87.52,116.663Z" transform="translate(-63.27 -88.239)" fill="#fff"/>
      <path id="Path_2071" data-name="Path 2071" d="M22.133,143.079a.544.544,0,0,1-.743.084A.935.935,0,0,1,22.133,143.079Z" transform="translate(-16.245 -108.38)" fill="#ffc9c9"/>
      <path id="Path_2072" data-name="Path 2072" d="M60.47,33.37c.224-.065.418-.063.493.214Z" transform="translate(-43.717 -25.317)" fill="#fff"/>
      <path id="Path_2073" data-name="Path 2073" d="M94.977,110.454a.339.339,0,0,1,.279-.4.315.315,0,0,1-.279.4Z" transform="translate(-68.675 -83.384)" fill="#fff"/>
      <path id="Path_2074" data-name="Path 2074" d="M158.811,96.979c-.041.19-.135.322-.351.322C158.5,97.095,158.568,96.939,158.811,96.979Z" transform="translate(-113.725 -73.476)" fill="#ffc9c9"/>
      <path id="Path_2075" data-name="Path 2075" d="M36.774,36.184,36.5,35.79C36.642,35.886,36.906,35.9,36.774,36.184Z" transform="translate(-26.393 -27.182)" fill="#d6cece"/>
      <path id="Path_2076" data-name="Path 2076" d="M50.63,146.745l.257-.195C50.871,146.706,50.794,146.786,50.63,146.745Z" transform="translate(-36.613 -111.041)" fill="#fff"/>
      <path id="Path_2077" data-name="Path 2077" d="M79.06,61.09Z" transform="translate(-57.189 -46.288)" fill="#785d5c"/>
      <path id="Path_2078" data-name="Path 2078" d="M20.977,87a.2.2,0,0,1,.212.255A.2.2,0,0,1,20.977,87Z" transform="translate(-15.926 -65.918)" fill="#ffc9c9"/>
      <path id="Path_2079" data-name="Path 2079" d="M132.21,172.14a.176.176,0,0,1,.267-.132.18.18,0,0,1-.267.132Z" transform="translate(-95.607 -130.245)" fill="#fff"/>
      <path id="Path_2080" data-name="Path 2080" d="M83.657,32.556a.2.2,0,0,1-.317-.111.221.221,0,0,1,.317.111Z" transform="translate(-60.263 -24.618)" fill="#fff"/>
      <path id="Path_2081" data-name="Path 2081" d="M71,38.858c.1-.079.166-.053.195.072C71.077,39.021,71.014,39,71,38.858Z" transform="translate(-51.347 -29.477)" fill="#fff"/>
      <path id="Path_2082" data-name="Path 2082" d="M84.54,161.566c.426-.551.962-.447,1.364-.6.262-.1.551-.361.868-.159a.344.344,0,0,1,.053.3c-.317.212-.722.618-.962.541A11.765,11.765,0,0,0,84.54,161.566Z" transform="translate(-60.985 -121.78)" fill="#ffc9c9"/>
      <path id="Path_2083" data-name="Path 2083" d="M19.882,110.009c.669-.241.892-.885,1.2-1.4a.866.866,0,0,1,.811-.539c.416.014.984-.166,1.217.209s-.224.741-.464,1.008a8.748,8.748,0,0,0-1.154,1.938c-.678,1.284-1.744,1.479-3.074,1.383.209-1.073,1.191-1.643,1.462-2.6Z" transform="translate(-13.989 -81.844)" fill="#ff6363"/>
      <path id="Path_2084" data-name="Path 2084" d="M44.28,176.556a.827.827,0,0,1,.832-.053c-.152.332-.44.241-.683.241Z" transform="translate(-31.999 -133.612)" fill="#fff"/>
      <path id="Path_2085" data-name="Path 2085" d="M79.507,190.146c0-.152,0-.305.18-.366.022,0,.06.034.091.051l-.289.3Z" transform="translate(-57.481 -143.763)" fill="#fff"/>
      <path id="Path_2086" data-name="Path 2086" d="M78.168,191.461c-.144-.053-.373.123-.438-.156l.44-.065-.017-.019v.257Z" transform="translate(-56.199 -144.857)" fill="#fff"/>
      <path id="Path_2087" data-name="Path 2087" d="M96.77,7.779l.067-.019-.007.055Z" transform="translate(-69.995 -5.893)" fill="#d6cece"/>
      <path id="Path_2088" data-name="Path 2088" d="M119.74,42.654l.082-.024-.01.072Z" transform="translate(-86.608 -32.301)" fill="#3c0705"/>
    </g>
  </g>
  <rect id="Rectangle_3289" data-name="Rectangle 3289" width="60" height="60" fill="none"/>
</svg>
