<?xml version="1.0" encoding="UTF-8" standalone="no"?>
<!DOCTYPE svg PUBLIC "-//W3C//DTD SVG 1.1//EN" "http://www.w3.org/Graphics/SVG/1.1/DTD/svg11.dtd">
<svg xmlns="http://www.w3.org/2000/svg" version="1.1" viewBox="0.00 0.00 72.00 79.00">
<path fill="#000000" d="
  M 0.00 73.04
  L 0.00 72.42
  C 4.57 65.98 10.36 60.98 16.14 55.71
  A 0.86 0.85 -42.4 0 0 16.20 54.50
  Q 13.54 51.59 15.81 49.91
  A 2.24 2.13 45.3 0 1 18.45 49.99
  Q 18.78 50.24 20.04 51.54
  A 1.26 1.24 -23.8 0 0 21.02 51.91
  Q 21.14 51.91 21.30 51.89
  A 0.63 0.63 0.0 0 1 21.69 51.98
  L 25.83 54.29
  A 0.19 0.18 23.6 0 0 26.09 54.19
  L 26.09 54.18
  A 0.18 0.18 0.0 0 0 26.02 53.94
  L 21.79 51.55
  A 1.29 1.28 -3.9 0 1 21.40 51.21
  Q 19.45 48.65 19.54 46.51
  A 0.36 0.36 0.0 0 1 20.12 46.25
  Q 21.25 47.20 22.29 47.23
  A 0.80 0.79 -79.6 0 0 23.07 46.69
  Q 23.34 45.90 22.96 44.48
  A 0.56 0.55 74.3 0 0 22.28 44.09
  C 21.84 44.20 21.41 44.71 20.59 44.69
  Q 14.87 44.53 12.64 39.36
  Q 11.89 37.61 12.15 36.06
  A 1.65 1.65 0.0 0 1 12.54 35.25
  Q 14.57 32.92 12.88 30.56
  Q 10.68 27.49 7.14 23.96
  A 0.16 0.16 0.0 0 1 7.34 23.71
  L 14.33 27.74
  A 0.64 0.60 2.8 0 1 14.56 27.98
  L 16.45 31.24
  A 1.13 1.10 -51.5 0 1 16.54 32.13
  Q 15.05 36.87 18.54 40.05
  A 1.78 1.76 -16.3 0 0 19.28 40.45
  L 22.00 41.17
  A 1.38 1.38 0.0 0 0 23.73 39.84
  L 23.73 38.77
  A 0.38 0.38 0.0 0 1 24.11 38.39
  L 25.74 38.39
  A 0.85 0.84 -3.0 0 1 26.58 39.14
  Q 26.81 41.27 27.86 41.62
  A 0.43 0.43 0.0 0 0 28.41 41.11
  Q 27.73 38.44 27.01 38.02
  Q 25.05 36.88 23.21 35.78
  C 19.42 33.54 22.55 31.05 20.85 28.63
  A 0.59 0.58 -40.1 0 1 20.92 27.88
  L 21.06 27.74
  A 1.36 1.36 0.0 0 1 23.37 28.57
  L 23.81 32.59
  A 1.39 1.33 -73.2 0 0 24.25 33.45
  L 26.80 35.73
  A 1.44 1.30 72.5 0 0 27.29 36.02
  Q 31.37 37.46 32.62 33.90
  A 0.45 0.45 0.0 0 1 33.44 33.83
  L 33.72 34.32
  A 1.92 1.90 -47.6 0 1 33.79 36.11
  Q 32.29 39.30 32.06 42.80
  A 0.21 0.21 0.0 0 0 32.16 42.98
  L 32.44 43.14
  A 0.19 0.19 0.0 0 0 32.72 42.99
  Q 32.79 41.46 33.42 40.91
  Q 44.02 31.60 53.99 21.49
  Q 58.75 16.66 62.74 11.31
  Q 66.73 5.96 70.85 0.60
  A 0.30 0.30 0.0 0 1 71.39 0.74
  C 73.07 12.87 67.62 21.40 58.86 28.82
  A 0.89 0.89 0.0 0 1 57.85 28.92
  L 54.91 27.22
  A 0.11 0.10 -57.8 0 0 54.76 27.26
  L 54.64 27.47
  A 0.11 0.10 -59.6 0 0 54.67 27.61
  Q 58.48 29.81 58.82 29.99
  C 61.98 31.60 63.11 33.97 62.48 37.23
  A 0.67 0.66 -76.9 0 0 62.95 38.00
  L 64.13 38.31
  A 1.34 1.33 -13.7 0 1 64.76 38.69
  Q 67.33 41.37 66.57 44.81
  A 2.46 2.42 72.7 0 1 66.01 45.90
  L 63.64 48.61
  A 0.33 0.33 0.0 0 0 63.83 49.15
  Q 65.15 49.37 65.18 52.02
  Q 65.24 56.25 62.28 59.54
  A 0.47 0.46 -22.6 0 1 61.47 59.21
  C 61.64 56.12 61.69 53.19 59.07 51.22
  A 0.87 0.87 0.0 0 0 57.73 52.20
  Q 57.98 52.90 58.98 53.92
  A 1.17 1.16 -66.4 0 1 59.32 54.79
  Q 59.25 57.05 58.78 58.00
  Q 56.72 62.20 50.79 64.74
  Q 42.44 68.33 35.63 62.85
  Q 32.38 60.23 31.16 55.16
  A 1.06 1.04 83.4 0 0 30.14 54.34
  L 27.34 54.31
  A 0.25 0.25 0.0 0 0 27.18 54.76
  Q 27.20 54.77 27.32 54.82
  A 0.44 0.44 0.0 0 1 27.50 55.47
  Q 27.15 55.98 25.89 56.51
  A 1.00 1.00 0.0 0 0 25.72 58.26
  Q 27.37 59.37 26.21 61.55
  C 25.59 62.71 24.51 62.50 23.25 62.38
  A 0.69 0.68 -3.9 0 1 22.63 61.85
  Q 22.51 61.33 22.14 61.06
  A 0.87 0.86 -44.6 0 0 21.11 61.06
  Q 11.92 67.89 9.10 77.46
  A 1.49 1.49 0.0 0 1 6.77 78.22
  L 0.00 73.04
  Z
  M 67.77 7.03
  L 60.64 17.99
  A 2.59 2.57 84.5 0 1 60.24 18.48
  L 34.28 42.29
  A 0.72 0.71 -40.8 0 0 34.20 43.27
  L 34.22 43.29
  A 0.76 0.75 48.0 0 0 35.27 43.35
  Q 50.14 30.28 58.47 22.22
  C 62.23 18.57 66.64 12.94 68.00 7.13
  A 0.13 0.13 0.0 0 0 67.77 7.03
  Z
  M 53.51 28.49
  A 0.19 0.19 0.0 0 0 53.24 28.76
  Q 54.98 30.89 53.63 32.10
  Q 44.70 40.07 34.81 48.55
  A 0.33 0.33 0.0 0 0 34.77 49.01
  L 34.96 49.22
  A 0.31 0.30 49.6 0 0 35.39 49.26
  L 54.71 32.63
  A 1.22 1.22 0.0 0 0 55.11 31.53
  Q 54.82 29.55 53.51 28.49
  Z
  M 32.45 44.27
  Q 32.12 49.73 36.22 53.56
  Q 39.26 56.40 41.26 56.66
  Q 47.53 57.49 52.83 52.69
  A 0.48 0.48 0.0 0 0 52.86 52.00
  L 52.84 51.98
  A 0.45 0.45 0.0 0 0 52.22 51.95
  C 47.37 56.09 40.27 56.97 36.08 51.34
  C 34.92 49.77 32.39 47.77 33.51 46.08
  Q 34.00 45.35 33.82 44.99
  Q 33.49 44.32 33.09 43.99
  A 0.39 0.39 0.0 0 0 32.45 44.27
  Z
  M 17.8285 51.4776
  A 0.70 0.70 0.0 0 0 16.8424 51.3913
  L 16.8270 51.4042
  A 0.70 0.70 0.0 0 0 16.7408 52.3904
  L 23.6315 60.6024
  A 0.70 0.70 0.0 0 0 24.6176 60.6887
  L 24.6330 60.6758
  A 0.70 0.70 0.0 0 0 24.7192 59.6896
  L 17.8285 51.4776
  Z
  M 17.3638 56.1674
  A 2.31 0.42 -127.5 0 0 18.4368 58.2557
  A 2.31 0.42 -127.5 0 0 20.1762 59.8326
  A 2.31 0.42 -127.5 0 0 19.1032 57.7443
  A 2.31 0.42 -127.5 0 0 17.3638 56.1674
  Z
  M 2.36 72.40
  L 7.24 75.92
  A 0.27 0.27 0.0 0 0 7.62 75.86
  L 7.87 75.51
  A 2.75 2.50 -54.2 0 0 7.45 71.81
  L 6.19 70.90
  A 2.75 2.50 -54.2 0 0 2.55 71.67
  L 2.30 72.03
  A 0.27 0.27 0.0 0 0 2.36 72.40
  Z"
/>
<path fill="#000000" d="
  M 29.19 26.03
  L 31.69 28.94
  A 1.24 1.21 -75.2 0 1 31.95 29.40
  Q 32.69 31.71 30.65 34.61
  A 1.07 1.07 0.0 0 1 29.50 35.03
  Q 27.08 34.38 25.33 32.22
  A 1.57 1.54 -63.0 0 1 24.99 31.14
  L 25.27 26.98
  A 0.60 0.60 0.0 0 0 24.89 26.38
  C 22.97 25.64 21.08 22.46 17.70 22.38
  A 0.31 0.30 -89.1 0 0 17.39 22.69
  L 17.39 23.06
  A 0.20 0.20 0.0 0 0 17.65 23.25
  C 19.53 22.55 21.53 24.88 20.45 26.77
  C 18.72 29.78 16.41 28.50 14.36 26.52
  A 1.75 1.74 -73.9 0 1 13.87 25.63
  Q 13.25 22.78 13.04 18.56
  Q 12.90 15.69 10.66 14.61
  Q 9.77 14.18 7.64 12.54
  A 1.42 1.39 20.3 0 1 7.10 11.40
  Q 7.25 6.38 1.60 4.81
  A 0.18 0.18 0.0 0 1 1.66 4.46
  L 5.63 4.65
  A 1.78 1.57 -30.1 0 1 6.18 4.76
  Q 8.87 5.81 9.59 9.67
  A 1.94 1.93 -2.4 0 0 11.31 11.25
  L 14.65 11.58
  A 1.41 1.38 66.9 0 1 15.40 11.89
  Q 16.66 12.93 17.37 14.41
  A 0.70 0.69 57.7 0 1 17.19 15.24
  L 16.01 16.27
  A 0.52 0.51 47.5 0 0 15.98 17.03
  C 19.24 20.27 20.85 22.22 24.49 22.52
  A 1.13 1.12 -74.5 0 0 25.59 21.89
  Q 28.12 16.70 23.17 14.97
  A 0.50 0.50 0.0 0 1 22.96 14.16
  C 26.16 10.58 30.61 12.42 31.88 16.76
  Q 32.18 17.79 31.76 21.51
  A 2.13 2.12 -61.2 0 0 32.22 23.11
  Q 34.01 25.35 36.45 26.33
  C 41.37 28.31 43.13 21.75 39.51 20.36
  Q 38.73 20.05 36.68 20.76
  A 0.42 0.42 0.0 0 1 36.13 20.29
  Q 36.85 15.60 41.32 13.95
  A 2.21 2.20 -52.0 0 1 42.35 13.82
  Q 45.41 14.16 47.72 16.39
  A 2.57 2.46 -80.6 0 1 48.28 17.21
  Q 48.89 18.67 48.39 19.86
  A 0.74 0.74 0.0 0 0 48.78 20.82
  Q 50.85 21.73 50.51 22.66
  Q 49.74 24.73 48.32 26.04
  Q 44.76 29.31 35.99 36.68
  A 0.36 0.35 72.1 0 1 35.41 36.38
  C 35.76 31.98 33.75 27.30 29.45 25.67
  A 0.23 0.23 0.0 0 0 29.19 26.03
  Z"
/>
</svg>
