<?xml version="1.0" encoding="UTF-8" standalone="no"?>
<!DOCTYPE svg PUBLIC "-//W3C//DTD SVG 1.1//EN" "http://www.w3.org/Graphics/SVG/1.1/DTD/svg11.dtd">
<svg xmlns="http://www.w3.org/2000/svg" version="1.1" viewBox="0.00 0.00 76.00 78.00">
<path fill="#000000" d="
  M 75.02 62.81
  Q 66.17 67.06 64.26 67.99
  Q 60.73 69.71 60.15 73.49
  A 1.63 1.62 2.4 0 1 58.64 74.87
  L 50.49 75.33
  A 2.87 2.78 30.4 0 0 49.50 75.57
  Q 47.53 76.44 43.92 77.08
  Q 42.35 77.35 40.59 76.87
  Q 39.58 76.59 37.60 77.22
  A 2.37 2.08 30.3 0 1 37.08 77.32
  Q 33.76 77.55 28.91 75.86
  Q 25.86 74.79 20.16 75.18
  A 0.73 0.71 -36.3 0 1 19.87 75.14
  L 11.65 71.96
  A 0.42 0.42 0.0 0 1 11.75 71.15
  L 19.99 70.00
  A 0.74 0.73 -31.5 0 0 20.31 68.67
  L 5.93 58.63
  A 0.26 0.26 0.0 0 1 6.08 58.15
  L 19.48 58.15
  A 0.38 0.38 0.0 0 0 19.76 57.52
  L 0.58 36.82
  A 0.37 0.37 0.0 0 1 0.98 36.23
  L 20.69 43.84
  A 0.36 0.36 0.0 0 0 21.16 43.37
  Q 14.82 27.58 6.58 12.85
  A 0.18 0.18 0.0 0 1 6.87 12.64
  L 30.71 38.39
  A 0.32 0.32 0.0 0 0 31.27 38.16
  L 30.66 20.32
  A 0.15 0.15 0.0 0 1 30.95 20.24
  L 39.24 36.49
  A 0.86 0.86 0.0 0 0 40.84 36.31
  Q 44.71 21.23 48.41 2.88
  C 48.52 2.33 48.46 2.02 48.40 1.55
  A 0.17 0.17 0.0 0 1 48.70 1.43
  Q 49.09 1.93 49.11 2.38
  Q 50.69 37.73 50.72 38.41
  A 0.28 0.27 65.7 0 0 51.19 38.59
  L 70.46 18.27
  A 0.20 0.19 -11.4 0 1 70.78 18.48
  Q 65.11 30.85 61.04 45.01
  Q 60.28 47.64 60.43 50.08
  A 0.45 0.45 0.0 0 0 60.94 50.50
  L 72.60 48.88
  A 0.17 0.17 0.0 0 1 72.75 49.16
  L 60.58 61.99
  A 0.20 0.20 0.0 0 0 60.73 62.33
  L 74.91 62.33
  A 0.25 0.25 0.0 0 1 75.02 62.81
  Z
  M 30.99 74.04
  Q 30.76 74.77 31.32 75.04
  Q 31.64 75.20 31.71 75.08
  Q 31.83 74.86 32.05 74.76
  A 0.44 0.44 0.0 0 1 32.64 75.00
  Q 32.90 75.66 33.28 76.16
  Q 33.54 76.51 33.95 76.47
  Q 34.36 76.43 34.53 76.19
  A 0.84 0.83 -63.6 0 1 35.40 75.89
  Q 36.32 76.12 36.76 75.34
  Q 37.24 74.48 36.97 73.55
  Q 36.64 72.38 36.72 72.04
  A 0.05 0.05 0.0 0 1 36.81 72.03
  L 37.86 74.89
  A 0.61 0.61 0.0 0 0 39.00 74.90
  L 39.12 74.58
  A 0.33 0.33 0.0 0 1 39.74 74.57
  Q 40.14 75.53 41.26 75.00
  Q 42.02 74.65 42.00 74.53
  Q 41.91 73.81 42.18 73.44
  A 0.22 0.21 -27.3 0 1 42.57 73.56
  L 42.57 75.38
  A 0.67 0.67 0.0 0 0 43.24 76.05
  L 43.67 76.05
  A 0.67 0.66 86.4 0 0 44.34 75.28
  Q 44.23 74.54 45.04 73.98
  Q 44.59 75.17 44.75 75.73
  Q 44.98 76.55 46.24 75.82
  Q 47.04 75.36 47.96 75.08
  A 2.10 2.09 -22.2 0 0 49.21 72.12
  L 48.09 69.92
  A 0.91 0.91 0.0 0 1 48.49 68.69
  L 50.07 67.88
  A 0.35 0.35 0.0 0 1 50.58 68.18
  L 50.68 71.30
  A 0.83 0.82 -79.0 0 0 51.16 72.02
  Q 54.60 73.57 56.31 70.49
  A 1.13 1.10 46.3 0 0 56.32 69.43
  L 55.25 67.34
  A 0.92 0.92 0.0 0 1 55.20 66.66
  Q 55.71 65.09 55.65 63.12
  A 0.35 0.35 0.0 0 0 55.14 62.82
  L 53.67 63.57
  A 0.07 0.07 0.0 0 1 53.58 63.47
  L 55.42 60.27
  A 1.79 1.72 59.3 0 0 55.65 59.29
  Q 55.50 56.86 53.94 54.39
  A 0.80 0.77 -62.2 0 1 53.82 53.97
  L 53.82 51.16
  A 0.39 0.39 0.0 0 1 54.57 51.02
  L 56.63 56.65
  A 0.32 0.32 0.0 0 0 57.25 56.58
  C 58.50 47.75 51.83 40.71 43.63 38.77
  Q 38.61 37.59 34.39 39.09
  Q 30.24 40.56 26.66 44.24
  Q 22.04 49.01 22.14 56.26
  A 0.40 0.40 0.0 0 0 22.91 56.40
  L 24.92 51.17
  A 0.40 0.39 53.6 0 1 25.68 51.29
  C 25.89 53.91 24.71 55.47 23.72 57.86
  A 1.82 1.79 -41.5 0 0 23.64 59.00
  Q 24.14 61.00 25.87 62.97
  A 0.36 0.36 0.0 0 1 25.71 63.55
  Q 25.70 63.55 24.65 63.18
  A 0.61 0.61 0.0 0 0 23.83 63.72
  Q 23.73 65.39 24.16 66.28
  A 0.55 0.52 43.8 0 1 24.18 66.74
  L 23.14 69.46
  A 0.74 0.71 51.7 0 0 23.10 69.90
  C 23.68 72.93 28.81 74.30 28.90 69.90
  Q 28.92 68.58 29.04 68.13
  A 0.54 0.54 0.0 0 1 29.72 67.75
  Q 31.08 68.17 31.32 69.77
  A 1.40 1.39 -33.6 0 1 31.14 70.65
  Q 30.09 72.36 30.07 72.79
  Q 30.03 73.90 30.99 74.04
  Z"
/>
<path fill="#000000" d="
  M 41.84 55.01
  Q 44.08 53.69 46.14 53.35
  A 2.23 2.23 0.0 0 1 47.20 53.43
  L 51.84 54.99
  A 1.34 1.30 86.4 0 1 52.61 55.69
  Q 54.45 59.65 51.53 62.21
  Q 49.47 64.01 46.85 63.13
  A 1.75 1.73 80.4 0 1 46.00 62.52
  L 41.52 56.59
  A 1.08 1.08 0.0 0 1 41.84 55.01
  Z"
/>
<path fill="#000000" d="
  M 37.51 55.13
  A 1.08 1.08 0.0 0 1 37.81 56.71
  L 33.28 62.56
  A 1.74 1.72 -79.8 0 1 32.43 63.16
  Q 29.81 64.01 27.78 62.20
  Q 24.90 59.62 26.78 55.69
  A 1.33 1.29 -85.8 0 1 27.55 55.01
  L 32.19 53.50
  A 2.22 2.22 0.0 0 1 33.24 53.43
  Q 35.29 53.79 37.51 55.13
  Z"
/>
<path fill="#000000" d="
  M 39.51 60.31
  Q 39.54 60.31 39.56 60.31
  A 0.13 0.05 -5.1 0 1 39.67 60.34
  C 41.16 62.02 43.54 65.38 41.70 67.70
  A 0.41 0.41 0.0 0 1 41.05 67.68
  Q 40.24 66.51 39.79 66.53
  Q 39.35 66.55 38.65 67.79
  A 0.41 0.41 0.0 0 1 38.00 67.87
  C 35.96 65.72 38.03 62.16 39.36 60.35
  A 0.13 0.05 -0.1 0 1 39.46 60.32
  Q 39.48 60.31 39.51 60.31
  Z"
/>
<path fill="#000000" d="
  M 38.63 70.05
  Q 38.42 70.24 37.91 70.06
  A 0.22 0.22 0.0 0 1 37.95 69.63
  Q 38.14 69.60 38.55 69.70
  A 0.21 0.20 -58.2 0 1 38.63 70.05
  Z"
/>
<path fill="#000000" d="
  M 40.48 69.90
  Q 40.75 69.69 41.07 69.66
  A 0.07 0.07 0.0 0 1 41.14 69.76
  Q 40.86 70.37 40.70 70.40
  A 0.28 0.28 0.0 0 1 40.48 69.90
  Z"
/>
<path fill="#000000" d="
  M 34.63 70.70
  Q 34.74 70.38 34.92 70.35
  A 0.23 0.23 0.0 0 1 35.15 70.69
  Q 35.11 70.76 35.01 70.89
  A 0.21 0.21 0.0 0 1 34.63 70.70
  Z"
/>
<path fill="#000000" d="
  M 43.62 70.30
  Q 44.12 70.17 44.49 70.27
  Q 44.69 70.32 44.79 70.43
  A 0.20 0.19 -22.5 0 1 44.65 70.76
  L 43.67 70.76
  A 0.23 0.23 0.0 0 1 43.62 70.30
  Z"
/>
<path fill="#000000" d="
  M 42.60 71.46
  A 0.20 0.20 0.0 0 1 42.29 71.27
  Q 42.32 71.09 42.70 70.74
  A 0.15 0.15 0.0 0 1 42.93 70.93
  Q 42.63 71.44 42.60 71.46
  Z"
/>
<path fill="#000000" d="
  M 30.99 74.04
  L 32.27 72.69
  A 0.25 0.25 0.0 0 1 32.70 72.91
  Q 32.43 74.26 30.99 74.04
  Z"
/>
<path fill="#000000" d="
  M 34.13 72.63
  Q 33.99 72.68 33.67 72.60
  A 0.16 0.16 0.0 0 1 33.72 72.28
  Q 34.12 72.30 34.13 72.63
  Z"
/>
<path fill="#000000" d="
  M 45.04 73.98
  Q 45.06 73.36 45.29 72.85
  A 0.19 0.19 0.0 0 1 45.66 72.92
  Q 45.66 73.45 45.04 73.98
  Z"
/>
<path fill="#000000" d="
  M 47.63 74.31
  Q 47.32 74.46 47.23 73.96
  Q 47.13 73.37 47.60 73.26
  Q 48.09 73.14 48.14 73.52
  Q 48.21 74.02 47.63 74.31
  Z"
/>
<path fill="#000000" d="
  M 34.90 74.38
  Q 34.99 74.57 34.92 74.84
  A 0.34 0.34 0.0 0 1 34.32 74.94
  Q 34.27 74.86 34.31 74.47
  A 0.31 0.31 0.0 0 1 34.90 74.38
  Z"
/>
</svg>
