<svg xmlns="http://www.w3.org/2000/svg" width="71.887" height="78.666" viewBox="0 0 71.887 78.666">
  <path id="Union_110" data-name="Union 110" d="M3.466,76.134C1.6,74.744.112,73.337.01,72.861-.1,72.349.694,71.118,2.435,69.1c1.545-1.8,3.678-4.034,5.741-6.2l.028-.03.068-.071a76.235,76.235,0,0,1,8.548-7.616l-1.5-1.722a2.392,2.392,0,1,1,3.61-3.138l1.557,1.791.729-.614a14.169,14.169,0,0,0,3.194,2.15,15.811,15.811,0,0,0,3.812,1.22c-1.469,1.069-2.6,1.875-3.286,2.362l1.21,1.392a2.392,2.392,0,1,1-3.61,3.138L21.525,60.6a40.246,40.246,0,0,0-7.854,7.6A26.124,26.124,0,0,0,8.844,78.26a.534.534,0,0,1-.6.405C7.387,78.665,5.6,77.719,3.466,76.134Zm1-6a5.885,5.885,0,0,0-1.423,1.107,3.875,3.875,0,0,0-.977,1.273c-.043.25.238.329.7.462l.012,0a5.944,5.944,0,0,1,1.838.79A8.2,8.2,0,0,1,5.95,75c.511.547.952,1.02,1.377,1.02a.637.637,0,0,0,.423-.172c.411-.349.867-1.129.7-2.864a5.622,5.622,0,0,0-1.616-1.6,5.869,5.869,0,0,0-2.247-1.259A.32.32,0,0,0,4.467,70.138ZM16.816,51.369a.715.715,0,0,0-.089,1.011l6.922,8.249a.717.717,0,1,0,1.1-.923l-6.921-8.249a.717.717,0,0,0-1.011-.088Zm.63,4.981a.476.476,0,0,0-.059.673L19.7,59.777a.478.478,0,0,0,.844-.314l-2.8-3.225A.487.487,0,0,0,17.446,56.351Zm26.692,9.872a12.754,12.754,0,0,1-8.384-2.99,13.623,13.623,0,0,1-3.035-3.726,18.057,18.057,0,0,1-1.893-5.2,6.445,6.445,0,0,1-1.358.135,11.385,11.385,0,0,1-4.416-1.008q-.308-.135-.6-.283l-.034-.01-.1-.057a11.739,11.739,0,0,1-2.495-1.7q-.117-.1-.23-.194l.011-.009q-.245-.235-.468-.48a6.138,6.138,0,0,1-1.763-4.754,3.89,3.89,0,0,0,1.032.711,4.527,4.527,0,0,0,1.859.609.863.863,0,0,0,.764-.343c.325-.473.213-1.433-.332-2.849a6.511,6.511,0,0,1-2.752.759,7.945,7.945,0,0,1-3.207-.931,6.309,6.309,0,0,1-3.468-3.255c-.049-.095-.095-.182-.14-.266-.035-.066-.08-.143-.132-.233a5.493,5.493,0,0,1-.837-4.289,3.069,3.069,0,0,1,1.037-1.712c.384-.349.661-.6.425-1.582.326-.829-1.569-3.253-3.215-5.142-1.788-2.05-3.669-3.92-3.688-3.938l.142.075c2.5,1.33,4.478,2.407,5.7,3.076.573.433.968.7,1.256.9.8.547.863.592,1.867,2.076a4.163,4.163,0,0,1,.577,3.891c-.085.4-.179.859-.25,1.375a6.121,6.121,0,0,0,1.642,4.27,5.689,5.689,0,0,0,4.333,2.058,6.387,6.387,0,0,0,1.543-.2,2.641,2.641,0,0,0,.186-2.173,1.272,1.272,0,0,0-.5-.583l.014,0c.237-.022.5-.034.761-.034s.528.012.777.036c.367.382.644.553.9.553a.9.9,0,0,0,.226-.035l.009,0a.771.771,0,0,1,.2-.032.455.455,0,0,1,.27.1,5.348,5.348,0,0,0,.717,1.906c.43.767.857,1.263,1.085,1.263a.145.145,0,0,0,.119-.061c.176-.226.086-1.083-.261-2.478.039-.881-1.183-1.535-2.6-2.294a17.434,17.434,0,0,1-2.669-1.647A4.479,4.479,0,0,1,21.061,33.1c.034-.319.067-.62.1-.911.206-1.875.355-3.229.044-3.577A.264.264,0,0,0,21,28.518a.806.806,0,0,0-.417.167,1.243,1.243,0,0,1,.108-.851,1.065,1.065,0,0,1,.983-.6,2.126,2.126,0,0,1,1.386.6c.424.261.456,1.092.5,2.243a21.782,21.782,0,0,0,.281,3.055c2.529,2.767,4.5,3.347,5.706,3.347A3.132,3.132,0,0,0,32.016,35.4c.692-.85.194-1.4.189-1.4a4.267,4.267,0,0,0,.985-.162,2.633,2.633,0,0,0,.761-.411,5.727,5.727,0,0,0-.188,1.259,3.275,3.275,0,0,0,.188,1.061A15.134,15.134,0,0,0,32.1,42.1l.189-.167a16.255,16.255,0,0,0,.167,4.576c0,.011,0,.023,0,.034q.05.229.1.446a17.856,17.856,0,0,0,.81,2.464l.043.025a11.237,11.237,0,0,0,.546,1.135l-.046.035a11.958,11.958,0,0,0,.711,1.256,20.9,20.9,0,0,0,2.236,2.331A10.086,10.086,0,0,0,41.717,56.9c.207.006.412.009.611.009,6.855,0,9.856-3.5,10.841-4.648a3.318,3.318,0,0,1,.331-.359s.005-.005,0-.007-.093-.023-.26-.023c-.326,0-.857.029-.879.03a16.359,16.359,0,0,1-2.6,1.774A15.412,15.412,0,0,1,46.983,54.9a11.075,11.075,0,0,1-3.362.554c-3.41,0-6.311-1.824-8.621-5.423l3.508-2.915c-1.306,1.022-2.662,2.068-4.034,3.109h0c-.089-.19-.184-.4-.282-.612a3.491,3.491,0,0,0,1.316-.487l2.368-2.019.017-.015c5.773-4.921,15.435-13.159,17.068-14.815a1.1,1.1,0,0,0,.279-.832c-.082-1.478-2.409-3.552-2.433-3.573l-.391.291c.328.274,1.961,1.7,1.969,2.758a.841.841,0,0,1-.316.678c-.1.335-15.793,13.986-18.938,16.718l-.109.095a1.469,1.469,0,0,1-.853.416.615.615,0,0,1-.385-.132c-.167-.383-.346-.8-.529-1.231-.03-.19-.052-.4-.067-.628,0-1.023.045-1.233.112-1.233.032,0,.07.049.113.108l.024.031c.057.073.118.14.184.14.048,0,.094-.035.14-.106a3.35,3.35,0,0,0,.2-.8l-1.2-1.231c0,.014-.033.164-.07.382a9.137,9.137,0,0,1,.243-2.756l1.492-1.327c7.5-6.684,17.819-16.232,24.416-23.764C70.3,1.483,71.252.011,71.258,0l0,.005A14.9,14.9,0,0,1,71.7,2.232a23.882,23.882,0,0,1,.017,5.83,25.9,25.9,0,0,1-2.365,8.126,31.618,31.618,0,0,1-6.708,9.122q-1.843,2.125-4.207,4.5a7.634,7.634,0,0,1,3.152,2.267,5.874,5.874,0,0,1,.632,5.807,2.954,2.954,0,0,1,.484-.041,3.605,3.605,0,0,1,2.831,1.574,6.888,6.888,0,0,1,1.3,3.972,4.817,4.817,0,0,1-2.215,4.054c-.573.474-1.026.85-1.026,1.3,0,.582.221.619.5.667.45.076,1.066.18,1.181,2.65a9.29,9.29,0,0,1-.5,3.506,9.594,9.594,0,0,1-1.339,2.53,9.333,9.333,0,0,1-2.026,2.049c.005-.04.54-4.063-.355-6.373-.7-1.8-1.563-2.747-2.507-2.747a1.462,1.462,0,0,0-.35.043c-.454.235-.685.454-.729.692-.061.325.235.66.609,1.084A4.382,4.382,0,0,1,59.4,55.46c.111,1.45-.645,3.15-2.309,5.2-3.937,3.589-8.537,5.566-12.952,5.566ZM67.263,7.817c-.94,1.628-2.878,4.726-6.768,10.242-9.356,9.079-26.541,24.423-26.714,24.577l.944,1.2c.134-.117,14.959-13.073,24.039-21.9C63.77,16.764,66.122,12.591,67.213,10a12.664,12.664,0,0,0,1.179-4.427A11.414,11.414,0,0,1,67.263,7.817ZM53.641,26.864l.008.007A18.7,18.7,0,0,0,55.3,28.179a6.209,6.209,0,0,0,2.918,1.294,1.139,1.139,0,0,0,.8-.283,13.325,13.325,0,0,0,1.989-2.208l-.2.132a9.736,9.736,0,0,1-2.378,1.876,1.1,1.1,0,0,1-.34.052,5.031,5.031,0,0,1-2.554-1.315,15.936,15.936,0,0,1-1.417-1.315ZM35.527,37.085a14.711,14.711,0,0,0-.036-2.559,12.69,12.69,0,0,0-1.54-5.116,9.082,9.082,0,0,0-3.673-3.383,9.646,9.646,0,0,0-2.166-.827l0,0a7.1,7.1,0,0,1,1.4.976A11.587,11.587,0,0,1,32.2,29.7a6.8,6.8,0,0,1-.912,4.19,2.19,2.19,0,0,1-1.838,1.247,2.7,2.7,0,0,1-1.49-.54,12.661,12.661,0,0,1-2.978-2.663,8.038,8.038,0,0,1,.148-3.494c.156-.8.279-1.436.08-1.691a28.242,28.242,0,0,0-4.453-3.537,5.172,5.172,0,0,0-2.443-.895,1.187,1.187,0,0,0-1.259,1.029h0a2.26,2.26,0,0,1,1.02-.234,2.51,2.51,0,0,1,.914.176,3.1,3.1,0,0,1,1.885,1.786,2.392,2.392,0,0,1-.3,1.706,3.651,3.651,0,0,1-2.308,1.918,5.945,5.945,0,0,1-2.02-.476,4.836,4.836,0,0,1-1.935-1.583,12.425,12.425,0,0,1-1.121-5.81c-.057-1.908-.111-3.711-1.039-5.153l-1.273-.859c-3.591-2.425-3.731-2.519-3.731-3.148.5-4.653-3.935-6.692-6.62-7.494a.9.9,0,0,1-.166-.055s0,0,.008,0c.026,0,.115.013.278.035.641.089,2.339.326,5.777.6A5.718,5.718,0,0,1,9.347,8.8c.416,1.444.744,2.583,2.869,2.583a8.164,8.164,0,0,0,1.059-.077,4.176,4.176,0,0,1,2.159.557A6.309,6.309,0,0,1,17.4,14.09a1.738,1.738,0,0,1-.122,1.376,1.448,1.448,0,0,1-1.081.449c-.293.034-.525.061-.579.218-.11.323.5,1.174,3.965,4.568a9.089,9.089,0,0,0,4.5,1.822,2.074,2.074,0,0,0,2.04-1.291,5.276,5.276,0,0,0,.3-2.6,3.964,3.964,0,0,0-3.939-3.777,2.146,2.146,0,0,0-.239.012s0,0,.005-.008a9.845,9.845,0,0,1,1.239-1.236,5.436,5.436,0,0,1,2.875-1.362,2.7,2.7,0,0,1,.67-.082,4.984,4.984,0,0,1,3.559,1.887,6.42,6.42,0,0,1,1.418,5.278c-.564,3.485-.092,3.846.85,4.564a6.941,6.941,0,0,1,1.013.9,6.905,6.905,0,0,0,4.494,1.931c1.275,0,2.832-.563,3.01-3.249a3.234,3.234,0,0,0-.651-2.5,2.677,2.677,0,0,0-2.043-.734,8.77,8.77,0,0,0-2.977.655s0,0,0-.007a14.786,14.786,0,0,1,1.146-3.165,9.281,9.281,0,0,1,1.633-2.362A5,5,0,0,1,41,13.917a6,6,0,0,1,1.245-.13,7.19,7.19,0,0,1,3.255.818,7,7,0,0,1,2.4,1.967,3.165,3.165,0,0,1,.7,2.767c-.316.31-.455.568-.427.791.043.325.435.546.888.8.749.422,1.681.948,1.391,2.208A9.856,9.856,0,0,1,48.7,25.758c-3.4,2.989-7.829,6.8-13.169,11.327h0Z" fill="#ff8282"/>
</svg>
