<?xml version="1.0" encoding="UTF-8" standalone="no"?>
<!DOCTYPE svg PUBLIC "-//W3C//DTD SVG 1.1//EN" "http://www.w3.org/Graphics/SVG/1.1/DTD/svg11.dtd">
<svg xmlns="http://www.w3.org/2000/svg" version="1.1" viewBox="0.00 0.00 718.00 713.00">
<path fill="#ff8585" d="
  M 489.74 0.00
  Q 496.00 1.34 496.00 7.75
  Q 496.00 94.16 495.99 220.38
  A 0.62 0.62 0.0 0 0 496.61 221.00
  Q 602.49 221.02 709.16 220.99
  Q 712.96 220.99 714.64 222.03
  Q 716.94 223.46 718.00 226.49
  L 718.00 490.23
  Q 716.27 496.02 710.73 496.02
  Q 595.91 495.94 498.56 496.05
  A 0.50 0.50 0.0 0 0 498.06 496.55
  Q 497.93 656.30 498.02 702.73
  Q 498.04 710.18 491.63 713.00
  L 225.11 713.00
  Q 221.05 712.29 218.50 709.31
  C 216.97 707.51 216.98 706.04 216.98 703.73
  Q 217.03 670.80 217.00 496.60
  A 0.58 0.58 0.0 0 0 216.42 496.02
  Q 132.67 495.96 11.50 496.01
  C 8.43 496.01 5.14 496.45 2.85 494.61
  Q 0.69 492.87 0.00 490.01
  L 0.00 227.87
  Q 0.43 223.91 3.12 222.16
  Q 4.94 220.98 9.61 220.99
  Q 107.96 221.02 216.94 221.00
  A 1.07 1.06 90.0 0 0 218.00 219.93
  Q 218.00 95.97 218.00 21.25
  Q 218.00 14.54 217.29 8.50
  Q 216.92 5.32 217.89 3.64
  Q 219.32 1.14 222.40 0.00
  L 489.74 0.00
  Z
  M 673.13 295.35
  Q 674.50 295.24 675.23 294.37
  A 1.09 1.08 -66.3 0 1 676.19 293.99
  Q 679.83 294.42 684.98 292.23
  C 688.75 290.63 689.78 294.03 692.32 295.56
  A 1.52 1.39 61.6 0 0 692.78 295.72
  L 702.70 297.03
  A 1.15 1.14 -86.1 0 0 704.00 295.89
  L 704.00 235.52
  A 0.53 0.52 90.0 0 0 703.48 234.99
  Q 495.72 235.00 494.95 235.00
  C 489.03 234.98 486.53 235.51 483.53 231.13
  Q 481.99 228.89 481.99 224.24
  Q 482.02 114.65 481.99 14.60
  A 0.60 0.60 0.0 0 0 481.39 14.00
  L 232.36 13.99
  A 0.37 0.36 90.0 0 0 232.00 14.36
  Q 232.00 191.80 231.99 227.70
  C 231.99 231.83 230.78 234.06 227.40 235.66
  A 2.67 2.63 34.5 0 1 226.05 235.90
  Q 215.94 235.01 214.25 235.01
  Q 189.97 234.98 14.32 235.00
  A 0.30 0.29 -0.0 0 0 14.02 235.29
  Q 13.92 281.38 14.06 287.25
  C 14.13 290.16 16.74 293.36 18.14 295.17
  A 1.80 1.78 -8.5 0 0 18.96 295.77
  L 27.05 298.79
  A 2.95 2.91 54.8 0 0 28.06 298.97
  Q 32.64 298.97 37.28 296.62
  C 39.77 295.35 42.41 291.95 44.39 290.15
  C 48.75 286.21 50.74 291.47 54.29 292.93
  Q 56.28 293.76 62.56 295.63
  A 2.49 2.48 -40.8 0 0 63.68 295.71
  L 69.91 294.76
  A 2.56 2.51 -72.5 0 0 71.40 293.97
  C 76.68 288.23 82.74 289.82 89.24 292.17
  A 1.97 0.30 38.5 0 1 90.08 292.65
  Q 91.04 293.34 92.75 292.93
  A 1.21 1.20 -11.3 0 1 94.21 293.90
  Q 98.14 317.21 102.28 339.22
  C 104.38 350.39 113.40 356.64 123.79 359.03
  A 0.64 0.64 0.0 0 0 124.57 358.41
  L 124.57 296.67
  A 0.71 0.71 0.0 0 1 125.36 295.96
  Q 126.63 296.10 127.80 294.97
  A 0.31 0.31 0.0 0 1 128.33 295.19
  L 128.33 358.44
  A 0.72 0.71 -7.5 0 0 129.23 359.13
  Q 145.88 354.70 152.07 340.43
  Q 153.71 336.67 156.60 318.35
  Q 158.14 308.59 160.54 293.56
  Q 160.68 292.69 160.69 292.67
  A 1.61 1.61 0.0 0 1 162.78 291.93
  L 169.69 294.98
  A 1.46 1.04 54.5 0 0 169.95 295.07
  Q 171.61 295.41 177.80 296.68
  C 183.63 297.87 180.87 303.04 184.81 306.14
  A 0.46 0.46 0.0 0 0 185.55 305.87
  C 186.40 301.70 189.52 298.12 192.95 296.00
  C 196.32 293.92 201.30 295.30 204.41 297.56
  A 1.64 1.63 47.7 0 0 206.20 297.65
  L 211.87 294.38
  A 3.55 3.54 33.6 0 1 214.08 293.94
  L 223.72 295.17
  A 3.84 3.81 -24.8 0 1 225.29 295.74
  Q 225.42 295.83 228.11 298.65
  Q 231.60 302.30 236.61 301.97
  A 2.28 2.25 -75.9 0 0 238.41 300.88
  C 240.47 297.45 244.95 292.90 249.27 292.91
  C 252.97 292.92 255.29 293.84 258.27 296.67
  Q 259.96 298.27 262.36 298.60
  A 0.93 0.91 -65.7 0 0 263.19 298.28
  Q 265.82 295.13 268.68 294.64
  Q 275.58 293.44 283.74 294.65
  Q 294.78 296.28 305.93 295.37
  C 308.94 295.13 311.51 295.28 314.20 295.62
  C 317.86 296.09 320.98 295.28 324.24 294.23
  C 326.02 293.65 327.37 293.81 328.74 295.21
  Q 332.25 298.82 332.45 299.00
  A 4.01 4.01 0.0 0 0 334.82 299.98
  C 337.64 300.18 342.97 300.76 345.11 298.36
  C 346.39 296.93 347.29 296.24 349.47 295.93
  Q 357.66 294.77 363.56 290.72
  A 2.92 2.90 -65.2 0 1 364.88 290.23
  L 376.20 288.95
  A 3.61 3.57 56.0 0 1 378.35 289.38
  Q 386.32 293.80 397.29 293.75
  Q 401.63 293.74 407.70 291.48
  Q 411.16 290.19 413.25 291.37
  Q 416.99 293.47 420.34 294.58
  C 423.44 295.60 425.66 297.58 427.05 300.04
  A 1.68 1.67 82.0 0 0 428.13 300.86
  L 432.27 301.81
  A 0.86 0.84 -45.6 0 0 432.73 301.80
  L 440.50 299.62
  A 1.36 1.36 0.0 0 0 441.39 298.80
  Q 444.05 291.81 452.19 289.44
  C 454.37 288.81 459.15 289.33 460.59 290.49
  C 465.25 294.23 467.64 296.35 472.34 297.70
  A 3.58 3.57 -54.9 0 0 475.42 297.16
  C 479.31 294.34 482.23 291.07 487.49 291.02
  Q 495.70 290.94 505.33 291.04
  Q 508.05 291.07 511.15 291.76
  Q 513.35 292.24 516.98 292.03
  A 0.40 0.40 0.0 0 1 517.25 292.74
  Q 516.25 293.52 515.19 294.93
  Q 500.39 314.63 496.32 337.29
  Q 494.50 347.40 494.43 351.28
  Q 494.32 356.38 495.06 363.93
  A 0.94 0.93 -79.7 0 0 495.57 364.68
  Q 496.06 364.92 496.14 365.27
  A 0.75 0.74 67.6 0 1 495.81 366.07
  Q 495.68 366.14 495.64 366.17
  A 1.24 1.24 0.0 0 0 495.23 367.27
  Q 499.39 399.17 520.13 422.11
  Q 535.58 439.21 556.68 447.68
  Q 577.66 456.11 600.74 454.62
  Q 624.10 453.12 645.04 440.77
  Q 646.94 439.65 647.76 438.99
  Q 647.96 438.83 650.58 437.21
  A 0.99 0.99 0.0 0 0 649.80 435.41
  Q 647.34 436.07 639.03 436.80
  Q 634.28 437.21 629.46 436.79
  Q 623.01 436.21 619.89 435.59
  Q 611.16 433.83 607.30 432.14
  Q 592.43 425.62 578.23 415.13
  C 574.89 412.66 570.88 408.72 568.89 405.90
  A 0.94 0.94 0.0 0 1 569.46 404.43
  C 572.09 403.87 574.13 402.57 575.76 400.26
  Q 582.05 391.32 583.49 381.21
  C 586.34 361.27 572.70 342.13 554.15 335.35
  C 543.52 331.46 532.54 332.08 522.41 337.44
  Q 515.56 341.07 510.33 346.09
  Q 502.75 353.37 497.59 363.17
  A 0.21 0.20 -64.7 0 1 497.33 363.27
  L 497.32 363.26
  A 0.18 0.18 0.0 0 1 497.22 363.03
  Q 501.02 352.15 507.27 342.52
  C 509.12 339.67 511.96 336.34 513.41 334.48
  Q 515.94 331.25 518.54 328.95
  Q 527.04 321.45 536.98 316.25
  Q 549.12 309.91 554.59 308.05
  Q 559.34 306.43 565.97 305.27
  A 0.37 0.36 -3.2 0 1 566.40 305.65
  L 566.03 311.84
  A 1.19 1.14 -54.1 0 0 566.10 312.34
  Q 568.30 318.10 574.08 325.41
  Q 581.82 335.20 593.05 338.24
  Q 604.52 341.35 613.45 339.29
  Q 625.16 336.61 634.57 327.98
  Q 640.55 322.50 643.34 316.66
  Q 646.53 309.99 646.85 302.73
  Q 647.13 296.38 646.91 294.62
  A 0.57 0.57 0.0 0 1 647.48 293.98
  L 650.30 293.98
  A 0.66 0.65 -11.6 0 1 650.90 294.37
  Q 651.32 295.34 652.74 295.00
  A 1.97 1.90 -15.7 0 1 655.07 296.25
  Q 658.52 307.04 658.60 318.66
  Q 658.63 323.54 658.24 331.35
  C 657.82 339.90 656.89 346.03 654.17 353.07
  A 0.89 0.89 0.0 0 1 652.82 353.47
  L 649.38 350.95
  A 1.91 1.88 -23.2 0 0 648.51 350.61
  C 638.32 349.34 624.56 351.12 616.25 357.80
  Q 613.11 360.33 612.30 360.87
  A 6.01 5.96 88.4 0 0 610.52 362.77
  Q 610.50 362.81 608.40 365.33
  Q 600.39 374.90 599.61 387.24
  C 598.79 400.00 601.93 412.48 611.61 421.37
  Q 621.02 430.00 635.80 433.04
  Q 636.05 433.09 636.11 433.14
  Q 636.30 433.29 636.41 433.31
  Q 644.68 434.66 653.88 434.38
  A 1.46 1.44 -64.9 0 0 654.77 434.05
  Q 678.61 415.12 688.04 387.06
  Q 692.01 375.25 692.85 362.09
  Q 693.61 350.34 691.37 336.82
  Q 690.84 333.66 689.74 329.77
  Q 684.58 311.45 674.95 298.06
  C 674.38 297.27 673.15 296.27 672.88 295.88
  A 0.34 0.34 0.0 0 1 673.13 295.35
  Z
  M 26.30 407.13
  A 4.37 4.35 73.7 0 0 29.92 409.12
  Q 46.76 409.29 61.21 400.98
  Q 87.19 386.03 120.22 367.42
  A 1.31 1.31 0.0 0 0 120.52 365.37
  Q 106.14 350.50 85.85 357.11
  Q 73.13 361.25 25.15 379.82
  Q 21.47 381.24 18.47 385.30
  A 1.56 1.55 63.2 0 0 18.17 386.22
  Q 18.20 390.45 19.64 394.07
  Q 22.54 401.34 26.30 407.13
  Z
  M 224.73 379.72
  C 222.21 378.66 219.11 377.71 214.17 375.87
  Q 186.27 365.50 171.25 360.01
  Q 161.40 356.42 158.96 355.93
  Q 149.11 353.96 140.15 359.41
  Q 136.18 361.83 133.74 363.92
  A 2.14 2.13 50.2 0 0 133.48 366.89
  Q 135.17 368.96 137.61 370.38
  Q 176.38 392.90 205.00 408.54
  Q 208.08 410.23 209.81 410.59
  Q 221.67 413.12 228.55 403.33
  Q 229.68 401.72 231.74 397.19
  Q 232.39 395.75 232.63 394.72
  Q 233.25 392.13 234.36 389.80
  A 2.61 2.55 59.0 0 0 234.59 388.83
  C 234.78 382.74 230.81 382.30 224.73 379.72
  Z
  M 120.61 369.30
  Q 120.02 369.48 119.53 369.77
  C 96.78 383.06 72.36 397.20 49.38 412.12
  Q 44.82 415.08 42.85 420.30
  Q 40.21 427.32 41.45 433.60
  A 3.46 3.46 0.0 0 0 41.79 434.55
  C 44.82 440.19 49.79 444.93 54.43 449.47
  A 1.67 1.66 47.2 0 0 56.64 449.56
  Q 86.57 424.79 112.49 402.49
  Q 118.42 397.39 120.85 394.09
  C 125.92 387.20 125.34 377.48 121.72 369.80
  A 0.93 0.93 0.0 0 0 120.61 369.30
  Z
  M 130.58 370.54
  C 128.15 380.80 127.96 392.63 136.35 400.18
  Q 143.44 406.58 157.04 417.72
  Q 187.22 442.46 197.19 450.67
  A 1.22 1.22 0.0 0 0 198.91 450.51
  Q 206.44 441.48 212.04 433.67
  Q 215.51 428.84 212.79 424.45
  C 209.68 419.42 204.65 412.79 199.16 409.33
  Q 167.94 389.69 139.02 373.00
  Q 135.19 370.79 131.38 370.03
  A 0.68 0.68 0.0 0 0 130.58 370.54
  Z
  M 456.88 686.01
  L 456.44 683.96
  A 0.05 0.01 58.3 0 0 456.43 683.93
  Q 445.75 654.85 441.99 623.98
  Q 441.71 621.72 441.32 619.48
  Q 440.86 616.91 440.77 614.99
  Q 440.55 610.70 440.23 606.23
  Q 437.86 573.56 443.94 541.58
  Q 444.92 536.40 445.41 535.28
  A 1.28 1.24 -36.9 0 0 445.51 534.66
  Q 445.32 532.46 446.32 530.68
  A 1.59 1.58 -30.7 0 0 446.52 529.91
  Q 446.50 528.02 447.31 526.70
  A 1.44 1.43 -30.2 0 0 447.52 525.92
  Q 447.49 524.04 448.31 522.70
  A 1.46 1.42 -30.3 0 0 448.51 521.97
  Q 448.50 521.06 448.77 519.97
  C 448.97 519.16 449.61 518.54 449.52 517.88
  Q 449.43 517.23 449.76 516.20
  Q 451.75 509.98 452.37 508.43
  A 2.36 2.28 -33.8 0 0 452.52 507.73
  Q 452.68 505.15 454.35 502.57
  A 1.44 1.43 57.6 0 0 454.56 501.61
  Q 454.39 500.34 455.24 499.79
  A 0.78 0.77 -22.5 0 0 455.58 498.98
  Q 455.34 497.87 456.13 496.96
  A 1.26 1.18 -20.7 0 0 456.42 496.37
  L 456.93 493.59
  A 0.50 0.49 -83.5 0 0 456.47 493.00
  Q 455.29 492.96 453.04 493.79
  Q 448.53 495.46 445.50 496.46
  Q 426.19 502.87 403.52 507.09
  Q 400.82 507.59 399.50 507.50
  A 2.74 2.64 -51.8 0 0 398.48 507.64
  Q 396.04 508.51 392.15 508.48
  A 1.90 1.83 32.0 0 0 391.39 508.64
  Q 390.71 508.95 389.75 509.05
  Q 365.11 511.61 340.51 509.94
  C 339.87 509.89 339.70 509.46 339.01 509.48
  Q 334.22 509.62 329.80 508.72
  Q 328.35 508.43 323.63 508.15
  Q 323.37 508.13 322.68 507.68
  A 1.39 1.35 59.4 0 0 321.83 507.45
  Q 318.62 507.68 316.51 506.62
  A 1.50 1.46 52.8 0 0 315.57 506.48
  Q 314.87 506.61 311.50 506.11
  A 1.02 0.98 -17.2 0 1 310.94 505.83
  Q 310.50 505.39 309.98 505.48
  Q 309.33 505.58 308.55 505.42
  Q 299.85 503.56 294.29 502.14
  Q 292.36 501.65 291.79 501.50
  Q 282.80 499.04 280.10 498.04
  Q 279.72 497.89 279.65 497.81
  A 0.95 0.92 -23.3 0 0 278.83 497.50
  Q 277.34 497.70 275.97 496.84
  A 1.97 1.82 65.6 0 0 275.42 496.61
  Q 272.12 495.84 267.91 493.92
  Q 266.03 493.06 263.51 493.04
  A 0.54 0.54 0.0 0 0 262.98 493.68
  Q 263.76 497.65 265.19 500.57
  Q 265.44 501.09 265.37 501.55
  Q 265.21 502.56 265.81 502.72
  A 0.80 0.79 89.8 0 1 266.36 503.28
  L 268.39 511.03
  A 1.68 1.64 23.6 0 0 268.59 511.52
  Q 269.11 512.40 269.41 513.43
  Q 275.48 534.13 277.42 549.12
  Q 277.42 549.15 278.06 552.47
  Q 278.51 554.82 278.50 557.26
  A 4.95 4.95 0.0 0 0 278.60 558.25
  Q 279.20 561.12 279.67 568.00
  Q 279.75 569.23 279.78 569.77
  Q 281.05 591.53 279.82 604.52
  Q 279.76 605.13 279.59 605.50
  A 0.90 0.87 -32.6 0 0 279.52 605.79
  L 279.07 615.00
  A 1.68 1.47 -36.0 0 1 278.94 615.57
  Q 278.36 616.96 278.48 619.24
  Q 278.53 620.14 277.26 628.77
  Q 276.93 630.95 276.61 631.66
  A 1.58 1.58 0.0 0 0 276.47 632.31
  Q 276.46 635.36 275.63 637.51
  A 2.09 1.99 -35.6 0 0 275.49 638.25
  Q 275.48 640.64 274.66 642.40
  A 1.78 1.73 -33.5 0 0 274.50 643.13
  Q 274.51 645.57 273.60 647.51
  A 1.44 1.40 51.2 0 0 273.51 648.45
  Q 273.64 649.00 273.07 651.06
  Q 272.02 654.84 270.20 663.11
  A 2.24 1.67 70.3 0 1 270.09 663.47
  Q 268.76 666.79 268.45 669.20
  A 6.13 5.95 60.5 0 1 268.08 670.61
  Q 266.61 674.24 266.42 676.43
  A 0.93 0.83 60.3 0 1 266.37 676.66
  L 262.99 686.69
  A 0.63 0.63 0.0 0 0 263.47 687.51
  Q 264.35 687.67 265.50 687.47
  A 0.40 0.40 0.0 0 0 265.83 687.13
  Q 265.94 686.46 266.66 686.55
  A 1.93 1.82 36.7 0 0 267.45 686.46
  L 273.63 684.32
  A 0.94 0.71 7.8 0 0 273.86 684.19
  Q 274.75 683.45 276.04 683.54
  A 1.01 0.99 22.1 0 0 276.85 683.21
  Q 277.40 682.59 278.62 682.58
  C 280.30 682.56 281.08 681.03 282.89 681.57
  A 0.72 0.71 -65.3 0 0 283.68 681.27
  Q 284.29 680.32 286.26 680.57
  A 0.36 0.35 24.0 0 0 286.56 680.46
  L 286.91 680.10
  A 0.68 0.65 12.8 0 1 287.23 679.91
  Q 297.36 677.25 304.78 675.49
  Q 305.13 675.41 305.79 675.52
  A 1.38 1.37 -54.4 0 0 306.68 675.37
  Q 308.53 674.39 310.80 674.52
  A 1.91 1.83 32.8 0 0 311.67 674.35
  Q 313.95 673.25 316.73 673.53
  A 1.66 1.56 32.7 0 0 317.59 673.37
  Q 319.50 672.44 322.55 672.51
  A 2.83 2.62 -51.1 0 0 323.44 672.38
  Q 326.47 671.42 330.43 671.50
  A 2.99 2.88 -50.8 0 0 331.26 671.40
  Q 335.41 670.35 341.01 670.53
  Q 341.57 670.54 342.08 670.20
  A 1.02 0.98 24.9 0 1 342.57 670.03
  Q 360.34 669.14 378.30 670.03
  A 1.73 1.66 -27.7 0 1 379.06 670.25
  Q 379.59 670.55 379.98 670.54
  Q 385.47 670.38 389.73 671.41
  A 4.78 4.61 -37.3 0 0 390.83 671.54
  Q 395.09 671.55 397.38 672.36
  A 3.26 3.19 -34.3 0 0 398.50 672.56
  Q 401.29 672.55 403.31 673.34
  A 2.86 2.78 56.4 0 0 404.24 673.54
  C 407.53 673.68 409.38 674.54 412.27 674.78
  Q 413.27 674.86 413.88 675.18
  C 415.16 675.86 416.20 675.55 417.67 675.89
  Q 428.55 678.47 436.11 680.76
  A 1.61 1.46 66.3 0 1 436.51 680.94
  C 437.72 681.72 438.80 681.44 440.16 681.90
  Q 453.97 686.51 455.72 687.06
  A 0.91 0.91 0.0 0 0 456.88 686.01
  Z"
/>
<path fill="#ff8585" d="
  M 278.68 105.19
  Q 280.00 99.58 283.97 95.30
  Q 285.30 93.86 285.62 92.00
  Q 286.12 89.01 284.58 86.19
  Q 271.89 62.89 259.43 39.30
  C 258.43 37.40 257.96 35.68 257.14 34.05
  A 0.25 0.25 0.0 0 1 257.41 33.69
  Q 270.23 35.93 274.58 36.21
  Q 277.95 36.43 282.70 37.33
  Q 298.36 40.29 301.61 54.90
  Q 302.16 57.35 302.11 60.19
  Q 302.04 63.81 304.46 67.06
  A 0.52 0.51 -56.6 0 0 305.37 66.87
  Q 308.77 53.24 322.21 51.23
  Q 328.24 50.33 336.75 49.41
  Q 336.93 49.39 337.61 49.02
  C 338.87 48.32 339.99 49.37 341.23 47.93
  A 0.76 0.74 -34.8 0 0 341.37 47.20
  Q 338.30 38.55 340.27 32.26
  C 340.74 30.77 341.68 28.69 342.81 27.45
  Q 347.08 22.76 350.81 21.28
  Q 359.47 17.84 367.18 22.91
  Q 370.69 25.22 372.66 28.16
  Q 373.72 29.74 374.09 30.71
  Q 376.38 36.75 374.67 43.71
  Q 374.04 46.30 373.91 47.33
  A 0.61 0.60 11.5 0 0 374.35 47.99
  Q 379.25 49.28 383.99 50.73
  Q 386.96 51.64 396.30 51.89
  A 1.48 1.47 -25.0 0 1 397.19 52.21
  Q 397.86 52.71 398.41 52.81
  Q 400.47 53.19 401.86 54.30
  Q 405.43 57.18 408.19 62.70
  Q 409.26 64.82 412.00 67.20
  A 0.39 0.39 0.0 0 0 412.64 66.91
  Q 412.69 64.28 413.22 62.71
  Q 413.76 61.14 414.25 58.49
  Q 415.09 53.92 416.31 49.44
  Q 416.58 48.43 416.88 46.92
  Q 417.56 43.44 420.29 40.90
  A 0.79 0.78 18.7 0 1 420.66 40.72
  L 458.48 33.20
  A 0.29 0.29 0.0 0 1 458.82 33.57
  Q 458.12 35.82 457.91 36.22
  Q 453.17 45.40 430.61 86.75
  A 1.13 0.79 80.0 0 0 430.54 86.90
  L 429.56 89.94
  A 2.65 2.64 46.2 0 0 429.53 91.45
  L 430.18 93.76
  A 1.69 1.61 -75.6 0 0 430.56 94.44
  Q 433.88 98.19 435.27 103.53
  A 0.73 0.73 0.0 0 1 434.88 104.37
  Q 433.32 105.13 431.24 105.23
  A 1.23 1.22 -71.3 0 0 430.38 105.66
  Q 429.95 106.17 428.68 106.13
  Q 427.66 106.10 427.60 106.23
  Q 427.46 106.53 427.36 106.69
  A 0.91 0.90 16.2 0 1 426.57 107.12
  Q 425.90 107.10 425.43 107.49
  Q 425.02 107.83 425.26 108.50
  Q 426.15 110.96 426.89 111.67
  A 0.76 0.75 -63.2 0 1 427.10 112.32
  Q 426.93 113.38 427.62 113.74
  A 0.64 0.63 -82.1 0 1 427.95 114.18
  L 428.21 115.50
  A 0.37 0.37 0.0 0 0 428.53 115.78
  Q 429.11 115.83 429.08 116.66
  Q 429.07 117.13 429.29 117.53
  Q 431.02 120.58 432.13 123.68
  A 1.64 1.58 -80.3 0 0 432.56 124.31
  Q 433.20 124.90 433.10 125.62
  Q 432.99 126.36 433.61 126.73
  Q 434.22 127.09 434.08 128.03
  A 0.72 0.70 -76.5 0 0 434.54 128.80
  Q 435.01 128.98 435.04 129.48
  Q 435.07 129.92 435.28 130.35
  Q 436.51 132.84 444.28 149.88
  A 0.52 0.40 -82.4 0 0 444.36 150.02
  Q 445.24 151.10 445.15 152.03
  A 0.63 0.63 0.0 0 0 445.51 152.66
  Q 446.21 152.99 446.08 154.01
  A 0.74 0.73 -74.6 0 0 446.51 154.78
  Q 447.02 155.01 447.11 155.89
  Q 447.15 156.26 447.57 157.03
  Q 449.10 159.82 449.86 162.00
  C 450.25 163.09 451.28 163.82 451.11 164.88
  A 0.74 0.74 0.0 0 0 451.54 165.67
  Q 452.24 165.99 452.07 167.08
  A 0.61 0.61 0.0 0 0 452.54 167.76
  Q 453.04 167.88 453.05 168.49
  Q 453.06 168.85 453.30 169.36
  Q 456.50 176.28 457.03 177.17
  A 0.79 0.78 -55.9 0 1 457.13 177.71
  Q 457.01 178.36 457.50 178.63
  A 1.10 1.10 0.0 0 1 458.06 179.67
  Q 458.06 179.71 458.06 179.73
  A 1.37 1.35 -70.7 0 0 458.59 180.85
  Q 459.14 181.28 459.21 182.17
  A 0.82 0.81 -58.8 0 0 459.27 182.42
  L 463.84 192.11
  A 0.63 0.63 0.0 0 1 463.41 192.99
  Q 439.67 198.10 415.26 202.75
  Q 408.99 203.95 404.99 204.33
  Q 403.99 204.43 402.03 204.88
  Q 400.25 205.29 398.25 204.90
  Q 395.35 204.34 393.58 203.68
  Q 387.05 201.28 385.14 200.70
  A 0.82 0.81 27.5 0 0 384.28 200.97
  Q 381.92 203.92 379.89 206.88
  Q 376.82 211.37 372.72 215.97
  Q 368.30 220.93 361.90 223.85
  A 3.11 2.99 28.8 0 1 360.93 224.11
  Q 356.08 224.56 354.29 223.99
  Q 351.72 223.18 348.02 220.61
  Q 344.17 217.94 338.91 211.21
  Q 334.82 205.99 329.94 198.59
  A 0.49 0.49 0.0 0 0 329.18 198.52
  L 325.11 202.66
  A 0.50 0.42 -76.7 0 1 324.95 202.78
  L 320.77 204.98
  A 1.03 0.99 27.6 0 1 320.43 205.08
  Q 315.74 205.53 311.01 205.03
  Q 310.69 205.00 310.46 204.64
  A 0.52 0.49 77.9 0 0 310.13 204.41
  L 251.55 193.53
  A 0.51 0.50 17.4 0 1 251.18 192.83
  L 289.80 108.14
  A 0.39 0.39 0.0 0 0 289.51 107.59
  L 278.97 105.63
  A 0.37 0.36 12.0 0 1 278.68 105.19
  Z"
/>
<path fill="#ff8585" d="
  M 645.32 293.58
  C 641.63 292.76 638.80 293.79 635.44 293.75
  A 3.04 3.01 -28.9 0 1 633.92 293.32
  C 630.27 291.15 627.29 292.97 624.10 292.72
  C 620.72 292.46 617.17 293.72 613.61 294.03
  Q 608.58 294.47 603.16 297.39
  Q 602.11 297.95 599.32 297.41
  A 1.27 1.27 0.0 0 1 598.48 296.79
  C 595.44 291.38 591.78 292.61 586.87 291.28
  C 582.58 290.12 579.77 292.79 575.55 292.36
  Q 568.92 291.67 560.01 288.48
  Q 558.31 287.88 555.64 288.43
  Q 550.51 289.49 544.98 291.20
  A 5.61 5.54 -48.2 0 1 542.39 291.36
  C 538.59 290.68 535.91 290.09 531.87 290.60
  Q 528.46 291.03 523.66 290.92
  A 3.03 2.79 -47.4 0 0 523.18 290.96
  L 519.14 291.77
  A 0.20 0.20 0.0 0 1 518.95 291.44
  Q 535.37 272.13 558.73 263.35
  Q 590.62 251.38 623.11 261.16
  Q 629.69 263.14 635.56 265.92
  A 3.96 3.90 -2.8 0 1 637.23 267.41
  Q 644.35 278.98 646.35 292.62
  A 0.86 0.86 0.0 0 1 645.32 293.58
  Z"
/>
<path fill="#ff8585" d="
  M 124.10 294.07
  A 0.71 0.71 0.0 0 1 123.46 294.82
  Q 119.55 295.20 116.19 294.31
  A 5.31 5.25 -41.0 0 0 114.18 294.18
  Q 110.68 294.64 109.74 294.69
  C 106.82 294.85 103.99 292.63 101.50 292.34
  Q 98.21 291.95 95.18 292.45
  A 0.73 0.73 0.0 0 1 94.35 291.85
  Q 93.00 283.43 90.32 266.55
  Q 89.84 263.50 92.78 260.41
  A 3.43 3.22 6.3 0 1 93.66 259.75
  Q 105.87 253.40 117.04 261.30
  C 122.04 264.83 123.67 270.35 123.67 277.00
  Q 123.67 287.64 124.10 294.07
  Z"
/>
<path fill="#ff8585" d="
  M 160.02 291.19
  Q 154.71 290.82 148.02 291.32
  C 145.38 291.51 142.68 292.71 139.93 293.29
  A 4.45 4.37 -45.5 0 1 138.19 293.32
  Q 134.02 292.55 129.74 293.67
  A 0.51 0.51 0.0 0 1 129.10 293.18
  Q 129.12 290.02 129.76 282.81
  Q 130.27 277.10 131.69 272.67
  Q 134.00 265.47 136.04 261.12
  C 136.96 259.17 139.19 258.15 141.27 257.67
  Q 142.95 257.29 145.73 257.79
  Q 153.19 259.12 159.24 259.82
  Q 161.11 260.04 162.88 260.96
  A 2.85 2.84 -77.4 0 1 164.40 263.36
  C 164.47 265.13 164.50 266.83 164.15 268.78
  Q 162.04 280.79 160.63 290.70
  A 0.57 0.57 0.0 0 1 160.02 291.19
  Z"
/>
<path fill="#ff8585" d="
  M 670.24 293.58
  Q 662.99 296.23 655.71 294.79
  A 1.07 1.03 -7.7 0 1 654.99 294.26
  C 653.66 291.84 652.74 288.50 651.38 285.78
  Q 647.35 277.70 641.83 270.69
  Q 641.39 270.12 641.23 269.61
  A 0.41 0.41 0.0 0 1 641.83 269.13
  Q 658.58 278.69 670.39 293.03
  A 0.35 0.35 0.0 0 1 670.24 293.58
  Z"
/>
<path fill="#ff8585" d="
  M 348.93 600.96
  Q 351.29 592.79 350.42 584.86
  A 3.27 3.14 -59.1 0 0 350.23 584.03
  Q 349.53 582.08 349.22 579.78
  A 0.45 0.45 0.0 0 1 349.73 579.27
  Q 351.92 579.57 353.30 580.32
  A 2.56 2.55 -30.6 0 0 354.52 580.63
  L 365.66 580.63
  A 2.60 2.59 27.0 0 0 367.18 580.14
  Q 368.44 579.23 369.78 579.54
  A 0.70 0.69 22.1 0 0 370.54 579.23
  Q 370.70 578.97 370.75 578.94
  A 0.22 0.21 85.9 0 1 371.06 579.21
  L 369.50 582.79
  A 0.37 0.33 -42.1 0 0 369.48 582.99
  Q 369.63 583.70 369.16 589.48
  Q 368.83 593.48 370.64 600.44
  A 0.30 0.30 0.0 0 1 370.30 600.81
  Q 367.41 600.32 366.57 599.60
  A 0.97 0.91 63.8 0 0 365.96 599.37
  L 354.11 599.37
  A 1.43 1.42 -62.3 0 0 353.29 599.63
  Q 352.19 600.39 350.18 600.56
  A 0.91 0.88 20.9 0 0 349.69 600.77
  L 349.24 601.16
  A 0.19 0.19 0.0 0 1 348.93 600.96
  Z"
/>
</svg>
