<svg xmlns="http://www.w3.org/2000/svg" width="756" height="755" viewBox="20.85 81.65 755.99 755.29">
<path fill="#ff8585" d="
  M 252.40 313.38
  A 1.61 1.59 -8.7 0 0 253.53 311.86
  C 253.52 308.74 252.43 305.76 252.49 302.33
  C 252.57 297.18 251.46 292.28 251.59 287.21
  C 251.72 281.90 250.52 275.23 250.62 269.59
  C 250.69 265.54 250.78 254.51 250.00 247.03
  Q 249.55 242.74 249.55 239.57
  C 249.57 221.88 249.07 212.49 250.17 203.44
  Q 250.57 200.14 250.55 195.25
  Q 250.54 192.07 250.60 152.01
  C 250.61 147.25 251.55 142.91 251.55 137.99
  Q 251.53 114.63 251.61 103.80
  Q 251.65 98.92 254.98 94.99
  Q 260.01 89.04 267.50 88.01
  C 272.81 87.29 276.86 86.67 282.52 86.67
  Q 406.66 86.65 518.25 86.68
  Q 522.85 86.68 530.46 88.01
  Q 537.36 89.22 541.69 94.78
  Q 544.47 98.36 545.77 106.72
  Q 547.31 116.68 546.39 127.04
  Q 545.71 134.57 545.72 138.98
  Q 545.73 145.68 545.73 294.76
  C 545.73 300.76 544.58 305.96 544.79 311.78
  A 1.73 1.72 -0.9 0 0 546.51 313.44
  C 562.45 313.46 572.21 312.98 583.50 314.01
  Q 589.38 314.54 594.00 314.54
  Q 674.28 314.51 702.51 314.58
  C 704.70 314.59 708.13 315.44 710.82 315.44
  Q 717.29 315.44 726.03 315.47
  C 732.72 315.48 738.90 314.26 745.46 314.61
  C 748.94 314.80 753.58 315.59 756.96 317.54
  Q 760.06 319.33 764.03 322.23
  C 769.57 326.29 770.30 331.56 771.34 338.35
  Q 771.76 341.06 771.76 347.18
  Q 771.67 517.16 771.80 576.50
  Q 771.84 590.88 762.22 600.83
  A 2.68 2.67 -73.0 0 1 760.74 601.62
  C 756.92 602.30 754.64 603.00 751.53 603.01
  C 746.34 603.04 740.79 604.27 735.47 604.12
  C 730.27 603.98 725.50 604.93 720.54 604.97
  C 712.27 605.03 707.23 604.81 700.97 605.73
  Q 700.15 605.85 698.03 605.86
  Q 680.87 605.93 659.75 605.87
  C 655.81 605.86 651.25 605.11 647.75 605.09
  Q 606.27 604.85 567.77 605.07
  Q 559.09 605.12 551.96 607.88
  C 545.94 610.22 544.79 618.63 544.79 624.75
  C 544.82 722.39 544.96 776.37 544.75 805.19
  C 544.70 811.95 543.47 816.85 540.78 822.08
  Q 537.93 827.62 531.34 829.84
  C 526.71 831.39 520.23 831.94 513.82 831.92
  Q 481.39 831.84 436.25 831.85
  C 431.72 831.85 427.00 830.89 422.24 830.89
  Q 362.38 830.84 285.93 830.90
  Q 273.31 830.91 272.09 830.69
  Q 265.39 829.50 259.36 825.39
  C 255.08 822.48 254.80 820.17 253.73 814.34
  A 4.59 4.56 44.8 0 1 253.72 812.78
  Q 254.39 808.93 254.41 801.75
  C 254.44 779.22 254.71 766.92 253.71 756.86
  Q 253.39 753.66 253.41 749.00
  Q 253.44 743.75 253.40 665.42
  Q 253.39 657.35 254.10 647.11
  Q 254.89 635.87 254.17 623.25
  C 253.75 615.71 251.56 607.81 243.49 605.26
  C 239.85 604.11 236.70 604.09 232.93 604.09
  Q 141.80 604.09 55.24 604.10
  A 5.63 5.31 -50.3 0 0 53.93 604.26
  C 45.70 606.20 36.23 604.02 32.70 595.55
  Q 28.55 585.59 26.91 575.33
  C 26.10 570.29 26.57 563.21 27.21 556.25
  Q 27.84 549.42 27.36 545.25
  Q 26.58 538.63 26.58 531.50
  Q 26.56 507.19 26.56 379.35
  C 26.56 373.81 27.63 365.55 27.54 358.37
  Q 27.51 356.46 26.80 349.62
  Q 25.85 340.51 28.24 331.99
  C 30.98 322.19 36.62 318.37 46.72 316.06
  Q 52.31 314.78 58.98 313.87
  Q 64.00 313.18 70.98 314.01
  C 80.31 315.12 89.29 315.93 98.24 315.24
  Q 107.98 314.50 112.79 314.52
  Q 134.52 314.61 154.00 314.46
  C 158.98 314.42 165.46 313.49 171.02 313.49
  Q 245.73 313.53 251.99 313.47
  Q 252.10 313.47 252.40 313.38
  Z
  M 572.42 378.65
  Q 572.62 378.03 573.14 377.66
  Q 579.03 373.46 591.38 366.88
  Q 595.32 364.78 605.00 361.42
  Q 611.72 359.10 619.22 357.84
  Q 650.46 352.62 679.60 364.79
  C 682.74 366.11 683.30 366.77 684.72 369.68
  A 1.70 1.70 0.0 0 0 686.98 370.47
  C 688.85 369.57 690.51 369.61 692.63 368.95
  Q 702.44 365.90 709.49 365.73
  Q 713.45 365.63 718.96 366.97
  Q 726.92 368.90 728.20 368.89
  Q 737.23 368.78 743.53 364.79
  A 1.95 1.94 -30.0 0 0 744.22 362.25
  C 740.09 354.27 740.79 347.05 743.89 338.92
  A 1.09 1.09 0.0 0 0 742.95 337.45
  Q 737.88 337.10 733.80 337.61
  Q 726.58 338.52 724.68 338.37
  C 719.68 337.98 714.37 339.35 709.11 339.18
  Q 701.01 338.91 694.35 339.54
  Q 687.81 340.15 679.63 340.13
  Q 653.18 340.06 648.25 340.07
  C 643.24 340.07 637.14 339.18 632.23 339.18
  Q 567.32 339.15 538.25 339.22
  Q 535.19 339.23 531.98 337.97
  Q 519.74 333.16 516.61 320.18
  Q 514.39 310.96 514.45 307.72
  Q 514.63 298.64 514.17 292.89
  Q 513.51 284.69 513.52 278.08
  Q 513.54 265.20 513.50 153.01
  Q 513.50 147.22 511.30 137.36
  Q 509.65 129.97 506.63 126.12
  Q 501.85 120.04 492.42 118.39
  Q 479.63 116.15 474.96 116.14
  Q 381.89 116.02 323.69 116.14
  Q 318.95 116.15 306.65 118.42
  C 301.50 119.37 295.91 121.91 293.07 125.52
  C 287.28 132.88 285.79 142.17 285.75 152.99
  Q 285.70 165.22 285.71 182.33
  C 285.71 185.90 284.56 189.22 285.20 192.48
  Q 285.75 195.27 285.75 199.06
  Q 285.77 260.95 285.81 261.75
  Q 286.05 267.43 285.02 277.22
  C 284.15 285.41 285.43 296.94 284.38 305.73
  C 283.31 314.76 282.98 321.17 279.34 328.33
  C 274.84 337.18 266.85 340.74 257.25 342.50
  C 247.98 344.20 237.46 344.06 229.51 343.88
  C 224.53 343.77 220.33 344.88 215.48 344.88
  Q 153.87 344.88 111.57 344.87
  C 108.07 344.87 104.58 344.00 100.65 343.96
  Q 92.93 343.88 71.47 343.88
  A 9.34 9.30 50.8 0 1 69.55 343.68
  Q 62.62 342.21 61.39 341.89
  Q 59.76 341.47 58.46 342.56
  A 0.63 0.63 0.0 0 0 58.32 343.36
  L 59.63 345.64
  A 4.35 4.22 24.9 0 1 60.11 346.89
  Q 61.64 354.27 59.66 361.40
  C 58.66 365.01 56.24 369.63 53.03 371.74
  C 50.74 373.26 52.07 375.15 52.57 377.20
  Q 53.63 381.58 56.43 390.42
  A 1.24 1.23 -0.8 0 0 57.28 391.24
  Q 61.07 392.28 63.54 391.30
  A 3.00 2.99 79.2 0 0 65.42 388.52
  L 65.42 381.62
  A 2.70 2.69 77.4 0 1 66.96 379.18
  Q 76.79 374.50 86.84 374.08
  A 8.83 8.43 -39.2 0 1 88.87 374.24
  Q 92.69 375.03 98.04 375.93
  C 101.08 376.44 104.85 380.03 103.66 383.58
  C 102.58 386.83 100.02 388.07 98.73 390.02
  A 1.03 1.03 0.0 0 0 99.60 391.62
  L 107.36 391.62
  A 1.80 1.80 0.0 0 0 107.98 391.51
  Q 111.21 390.36 115.44 388.32
  C 118.16 387.02 120.29 386.48 122.96 385.74
  A 1.61 1.59 87.2 0 0 124.11 384.46
  Q 124.46 382.36 124.20 380.75
  Q 123.23 374.84 122.59 370.67
  Q 121.76 365.19 126.44 362.68
  C 136.19 357.45 149.89 360.30 155.00 370.14
  C 157.78 375.49 157.18 383.73 156.90 390.02
  A 1.57 1.56 1.1 0 1 155.33 391.52
  L 143.89 391.52
  A 2.67 2.66 -6.4 0 1 141.29 389.45
  Q 140.20 384.71 138.52 381.35
  Q 137.77 379.86 135.57 379.73
  A 1.52 1.46 -55.3 0 0 134.84 379.88
  L 126.34 384.31
  A 2.08 2.07 72.1 0 0 125.25 386.46
  Q 128.39 406.66 133.69 436.06
  Q 135.89 448.24 138.20 452.00
  Q 143.80 461.14 155.65 463.86
  A 1.37 1.37 0.0 0 0 157.32 462.53
  Q 157.45 444.42 157.47 426.00
  Q 157.47 422.97 157.44 420.00
  Q 157.32 409.02 157.46 398.00
  Q 157.50 394.95 158.44 391.69
  A 0.73 0.73 0.0 0 1 158.79 391.24
  L 161.45 389.71
  A 2.67 2.64 77.6 0 0 162.76 387.64
  Q 163.85 375.47 169.74 363.83
  C 171.59 360.17 176.26 360.39 179.78 360.92
  Q 190.00 362.45 193.74 363.00
  Q 196.20 363.37 197.35 364.08
  A 3.13 3.11 -74.0 0 1 198.82 366.75
  Q 198.79 373.22 196.84 380.52
  A 1.80 1.80 0.0 0 0 198.36 382.77
  Q 201.74 383.19 204.47 384.53
  C 210.12 387.31 218.99 384.95 224.13 382.37
  Q 237.30 375.74 244.68 371.43
  Q 247.88 369.56 249.80 370.34
  Q 256.59 373.08 263.99 377.48
  C 267.55 379.60 271.51 383.48 271.47 387.94
  Q 271.44 390.89 273.72 392.49
  A 0.57 0.57 0.0 0 0 274.55 392.30
  Q 275.95 389.80 276.72 386.95
  Q 277.34 384.60 279.32 383.55
  Q 287.14 379.38 295.78 381.43
  A 2.32 2.32 0.0 0 0 298.63 379.33
  C 298.85 376.11 300.59 374.30 303.73 373.21
  Q 314.08 369.62 323.50 375.00
  Q 328.20 377.68 330.79 381.62
  A 1.89 1.89 0.0 0 0 333.30 382.23
  Q 336.53 380.40 340.91 380.86
  Q 343.40 381.12 348.14 383.64
  Q 354.14 386.84 357.49 388.00
  C 361.43 389.36 368.45 389.53 370.91 385.12
  C 373.99 379.59 375.73 376.55 380.78 371.78
  C 384.42 368.35 387.80 368.54 393.39 368.54
  Q 401.46 368.53 409.41 372.29
  Q 414.14 374.53 414.28 374.62
  C 417.93 377.05 420.41 381.50 423.24 384.13
  A 7.85 7.19 80.0 0 0 424.35 384.98
  Q 426.06 386.06 434.22 390.79
  Q 436.55 392.14 439.82 391.69
  A 4.39 4.38 16.0 0 0 442.60 390.15
  C 446.19 385.84 449.19 382.20 454.12 380.37
  C 463.79 376.78 474.14 376.49 485.99 375.59
  C 491.62 375.16 498.03 375.49 503.07 374.97
  C 514.49 373.78 526.27 374.26 537.27 374.12
  C 541.39 374.07 548.21 372.11 552.93 372.46
  Q 560.45 373.03 566.49 375.89
  A 1.88 1.83 76.8 0 1 566.88 376.14
  L 570.90 379.45
  A 0.62 0.62 0.0 0 1 570.83 380.46
  Q 568.07 382.12 566.06 384.04
  Q 531.88 416.79 532.12 464.57
  Q 532.13 465.65 533.34 470.64
  A 0.76 0.70 42.6 0 1 533.36 470.88
  L 533.12 475.60
  A 7.13 6.95 -48.7 0 0 533.19 476.95
  Q 537.54 504.21 553.28 524.99
  C 571.70 549.29 599.30 564.48 629.76 566.74
  Q 663.38 569.24 693.48 551.14
  A 3.49 3.41 -83.8 0 0 694.33 550.44
  Q 696.84 547.65 702.50 544.25
  Q 706.64 541.77 712.03 536.28
  C 733.48 514.43 744.48 485.72 742.76 455.22
  C 741.03 424.74 725.37 395.25 700.62 377.09
  Q 696.60 374.15 692.35 370.60
  A 1.53 1.53 0.0 0 0 689.89 371.41
  Q 689.66 372.35 690.38 373.39
  Q 698.45 385.12 702.33 395.66
  Q 706.82 407.87 707.00 425.00
  C 707.12 436.26 706.16 449.03 702.16 459.79
  A 0.83 0.82 30.4 0 1 700.85 460.13
  C 698.48 458.10 696.08 456.61 692.74 456.48
  C 678.97 455.93 666.43 458.76 657.07 468.06
  C 643.64 481.40 640.39 500.35 647.37 517.90
  C 654.24 535.13 673.70 543.97 691.18 545.13
  A 2.71 2.64 -45.7 0 0 691.58 545.12
  L 695.53 544.63
  A 0.81 0.80 20.6 0 1 696.17 546.03
  C 693.35 548.55 686.83 548.74 682.78 548.76
  Q 661.93 548.84 645.69 540.86
  C 637.95 537.06 629.06 531.49 622.55 526.80
  Q 615.46 521.69 610.36 515.13
  A 0.77 0.77 0.0 0 1 610.69 513.94
  C 617.42 511.34 620.53 505.82 623.14 499.42
  Q 630.58 481.13 621.82 464.26
  Q 614.01 449.21 598.54 441.91
  C 585.80 435.90 572.84 436.31 560.75 443.04
  Q 544.88 451.87 536.34 468.23
  A 0.58 0.58 0.0 0 1 535.25 468.04
  Q 535.12 467.03 535.35 466.38
  C 542.34 447.01 555.39 430.98 573.53 421.13
  C 584.54 415.14 595.21 409.59 607.56 407.54
  A 0.83 0.83 0.0 0 1 608.51 408.50
  Q 607.44 414.69 610.61 420.13
  C 616.57 430.36 624.00 438.55 635.76 442.34
  Q 646.62 445.83 654.26 444.62
  C 670.99 441.97 688.83 429.68 692.69 412.17
  Q 696.33 395.71 688.84 376.94
  Q 688.03 374.91 687.17 373.92
  A 1.62 1.62 0.0 0 0 684.88 373.76
  L 678.63 379.16
  A 0.76 0.75 56.7 0 1 677.45 378.91
  C 675.55 374.92 674.03 371.89 670.58 369.79
  C 666.98 367.60 661.18 368.65 657.61 370.61
  Q 655.37 371.84 649.43 375.62
  C 644.20 378.96 641.26 381.57 636.11 378.13
  Q 627.98 372.69 624.19 370.38
  Q 614.08 364.23 602.30 365.91
  C 596.35 366.76 592.64 369.39 587.52 373.50
  Q 585.63 375.01 584.83 375.89
  C 581.14 379.90 577.57 378.52 572.79 379.11
  A 0.35 0.35 0.0 0 1 572.42 378.65
  Z
  M 195.40 383.33
  Q 194.21 383.35 193.12 384.37
  A 1.20 1.20 0.0 0 1 191.46 384.35
  Q 189.50 382.42 185.60 379.57
  Q 179.50 375.11 172.77 378.19
  C 169.12 379.86 163.12 388.30 162.71 392.25
  C 162.33 395.85 161.86 401.03 161.89 404.92
  Q 162.27 445.83 161.95 460.34
  Q 161.92 461.73 161.70 462.61
  A 1.14 1.14 0.0 0 0 162.76 464.02
  Q 164.78 464.10 166.82 463.30
  Q 184.27 456.48 187.61 438.14
  Q 187.77 437.24 195.47 390.89
  Q 195.97 387.85 196.64 384.87
  A 1.26 1.26 0.0 0 0 195.40 383.33
  Z
  M 153.13 471.85
  C 152.06 469.95 148.67 467.70 145.98 465.89
  C 138.00 460.53 128.08 459.79 119.01 463.02
  Q 91.92 472.66 62.22 484.24
  Q 57.30 486.16 52.59 488.91
  Q 48.21 491.47 49.71 496.77
  Q 52.47 506.47 57.79 514.26
  A 2.25 2.12 88.9 0 0 58.35 514.83
  Q 59.80 515.85 61.25 515.79
  Q 70.40 515.45 78.05 513.57
  C 84.27 512.04 91.26 508.27 96.83 505.04
  Q 119.93 491.65 152.80 473.04
  A 0.88 0.88 0.0 0 0 153.13 471.85
  Z
  M 168.12 473.50
  Q 169.53 474.30 171.04 475.81
  A 2.23 1.95 -3.7 0 0 171.47 476.14
  C 197.58 491.29 216.25 502.27 238.65 514.35
  C 245.23 517.89 251.27 519.60 258.08 515.56
  C 263.52 512.33 266.22 506.19 268.29 499.92
  C 269.94 494.94 271.73 491.00 265.64 488.62
  Q 260.86 486.75 197.24 463.26
  C 186.50 459.30 175.31 462.60 167.69 470.41
  A 1.97 1.97 0.0 0 0 168.12 473.50
  Z
  M 153.48 476.42
  Q 151.59 477.02 150.11 477.88
  Q 112.72 499.63 85.65 516.64
  Q 80.03 520.18 78.14 522.13
  Q 74.02 526.36 72.76 535.02
  Q 71.82 541.42 76.62 546.85
  Q 81.06 551.86 85.02 555.98
  Q 87.00 558.04 89.21 556.20
  Q 118.74 531.73 144.23 509.73
  Q 150.52 504.30 152.16 502.32
  C 158.43 494.76 158.51 485.99 154.78 477.03
  A 1.06 1.06 0.0 0 0 153.48 476.42
  Z
  M 165.51 476.86
  A 1.14 1.12 14.3 0 0 164.52 477.44
  C 163.23 479.74 163.08 482.18 162.86 485.29
  Q 162.12 495.50 167.13 503.04
  Q 168.95 505.78 180.68 515.63
  Q 205.78 536.71 231.25 557.26
  Q 233.30 558.91 234.75 557.01
  Q 244.06 544.78 245.87 542.37
  Q 248.08 539.44 248.89 536.97
  A 2.25 2.23 49.9 0 0 248.97 535.99
  Q 248.64 533.65 247.16 531.56
  C 242.65 525.19 238.76 519.83 232.41 515.84
  Q 207.68 500.30 174.00 480.53
  Q 172.69 479.76 166.32 476.93
  A 0.84 0.69 -27.4 0 0 165.99 476.86
  L 165.51 476.86
  Z
  M 398.59 612.08
  C 362.03 612.07 325.15 605.01 291.02 592.31
  A 1.37 1.28 -70.2 0 0 289.32 593.18
  Q 289.17 593.62 289.48 594.49
  Q 294.35 607.96 296.89 616.78
  Q 312.79 671.85 307.45 727.54
  Q 303.37 769.99 289.41 809.15
  A 1.15 1.14 16.6 0 0 290.22 810.64
  Q 290.86 810.80 291.88 810.43
  Q 345.75 791.19 398.55 791.20
  Q 451.35 791.21 505.21 810.48
  Q 506.23 810.85 506.87 810.69
  A 1.15 1.14 -16.5 0 0 507.68 809.20
  Q 493.74 770.04 489.68 727.58
  Q 484.37 671.89 500.30 616.83
  Q 502.84 608.01 507.72 594.54
  Q 508.03 593.67 507.88 593.23
  A 1.37 1.28 70.3 0 0 506.18 592.36
  C 472.04 605.05 435.16 612.09 398.59 612.08
  Z"
/>
<path fill="#ff8585" d="
  M 346.41 170.45
  C 347.78 169.08 348.18 165.19 349.50 163.41
  C 353.21 158.42 357.42 156.67 363.52 155.54
  Q 371.72 154.02 380.33 153.35
  A 1.85 1.85 0.0 0 0 381.97 151.02
  C 379.32 141.22 379.82 132.62 389.32 126.82
  C 395.48 123.06 402.44 123.23 408.60 127.16
  Q 416.08 131.91 416.68 140.79
  C 416.90 143.95 416.05 147.54 415.35 151.14
  A 1.34 1.33 11.1 0 0 416.40 152.70
  Q 419.43 153.31 425.51 154.96
  Q 428.09 155.66 435.74 156.07
  C 444.64 156.54 447.18 162.47 451.60 170.07
  A 1.96 1.89 3.0 0 0 452.19 170.70
  L 452.31 170.78
  A 1.17 1.17 0.0 0 0 454.11 170.02
  Q 456.07 159.53 458.48 150.72
  C 459.14 148.34 460.22 145.50 462.74 144.93
  Q 479.49 141.15 499.36 137.53
  A 0.67 0.67 0.0 0 1 500.11 138.43
  Q 498.82 141.84 497.57 144.31
  Q 494.27 150.82 472.80 190.09
  C 470.43 194.43 470.67 196.35 473.14 200.15
  C 475.03 203.04 476.62 205.54 476.67 208.25
  A 1.06 1.05 -7.5 0 1 475.86 209.30
  L 468.51 211.11
  A 2.04 2.04 0.0 0 0 467.15 213.95
  Q 495.82 276.18 502.60 290.64
  Q 504.22 294.10 504.85 297.91
  A 0.58 0.58 0.0 0 1 504.31 298.59
  Q 501.67 298.71 499.68 299.14
  Q 474.26 304.63 451.07 308.78
  Q 445.54 309.76 443.00 309.89
  C 437.70 310.15 432.17 308.04 426.99 305.93
  A 1.37 1.37 0.0 0 0 425.36 306.40
  Q 422.44 310.50 416.34 318.34
  Q 412.07 323.84 407.36 326.79
  C 397.36 333.03 389.25 327.28 382.76 319.74
  Q 376.28 312.20 371.12 303.64
  A 0.58 0.58 0.0 0 0 370.16 303.60
  Q 364.00 312.13 353.24 309.99
  Q 324.81 304.34 293.07 298.87
  A 0.88 0.87 14.6 0 1 292.39 297.72
  Q 293.95 293.21 294.90 291.14
  Q 311.56 254.60 328.17 218.09
  C 328.85 216.60 329.69 215.65 330.33 214.20
  A 1.64 1.63 -73.9 0 0 329.08 211.93
  L 321.39 210.75
  A 1.67 1.66 10.0 0 1 320.01 208.79
  C 320.91 204.24 323.56 201.62 325.41 198.78
  C 327.72 195.24 325.34 190.61 323.17 186.59
  Q 306.53 155.91 301.45 146.08
  Q 299.93 143.13 298.23 139.10
  A 0.82 0.82 0.0 0 1 299.13 137.98
  Q 309.51 139.86 321.60 141.16
  C 329.28 141.99 337.50 146.08 340.74 153.45
  Q 343.34 159.36 343.28 166.46
  Q 343.26 168.89 345.49 170.52
  A 0.71 0.71 0.0 0 0 346.41 170.45
  Z"
/>
<path fill="#ff8585" d="
  M 398.45 690.67
  Q 404.53 690.68 410.48 688.77
  Q 410.89 688.64 411.13 688.88
  Q 411.37 689.12 411.24 689.53
  Q 409.31 695.47 409.30 701.55
  Q 409.29 707.63 411.19 713.58
  Q 411.32 713.99 411.08 714.23
  Q 410.84 714.47 410.44 714.34
  Q 404.49 712.41 398.41 712.40
  Q 392.33 712.39 386.38 714.29
  Q 385.97 714.42 385.74 714.18
  Q 385.50 713.94 385.63 713.54
  Q 387.56 707.59 387.57 701.51
  Q 387.58 695.43 385.67 689.48
  Q 385.54 689.07 385.78 688.84
  Q 386.02 688.60 386.43 688.73
  Q 392.37 690.66 398.45 690.67
  Z"/>
</svg>
