<svg id="Component_204_1" data-name="Component 204 – 1" xmlns="http://www.w3.org/2000/svg" width="60" height="60" viewBox="0 0 60 60">
  <g id="Layer_2" data-name="Layer 2" transform="translate(3 3)">
    <g id="Layer_1" data-name="Layer 1" transform="translate(0 0)">
      <path id="Path_1770" data-name="Path 1770" d="M23.406,68.645l-3.132-8.983-.424.09q.814,3.456,1.625,6.912l-.517.212L12.138,53.537l.607,2.081c-2.292-1.357-4.462-6.536-3.16-7.936L15.3,56.52l.186-.074-3.307-7.12.367-.256a15.541,15.541,0,0,1,1.488,2.007c1.139,2.158,2.191,4.352,3.276,6.549l.473-.125c.078-.256.258-.512.212-.732a38.993,38.993,0,0,0-1.328-5.681c-1.2-3.2-2.677-6.308-3.793-9.606l1.4,2.322c.028-4.206-2.067-7.883-2.977-11.851l.326-.123c1.292,3.382,2.307,6.912,3.992,10.1s1.7,7.079,4.31,9.8l.326-.11-2.4-10.107.357-.118.747.812V38.819l.362-.033C20,41.305,20.75,43.8,21.287,46.351c.711,3.287,1.292,6.6,1.809,9.926.127.809-.359,1.708-.258,2.532.333,2.788.814,5.558,1.209,8.338a10.07,10.07,0,0,1,0,1.452Z" transform="translate(-6.817 -23.606)" fill="#ff8282"/>
      <path id="Path_1771" data-name="Path 1771" d="M145.75,53.875l2.326-3.169.3.069-2.69,7.266.354.141,3.475-6.761.62.256c-.235.689-.473,1.375-.711,2.071.16.236.543.548.491.768a16.209,16.209,0,0,1-.943,3.072,53.534,53.534,0,0,1-2.7,5.228c-.447.75-1.318,1.239-1.907,1.923a21.389,21.389,0,0,0-1.356,1.961l-1.6,2.317-.351-.195q.915-3.664,1.832-7.325l-.419-.133-3.558,10.031-.354-.041a4.693,4.693,0,0,1-.072-1c.4-2.947.85-5.888,1.217-8.838.1-.768-.114-1.58-.065-2.363a41.646,41.646,0,0,1,.431-4.168c.413-2.473.91-4.933,1.39-7.4.114-.573.3-1.134.457-1.7l.333.026V53.04h.274l4.69-14.3.468.136-1.437,5.02.483.256a6.324,6.324,0,0,0,.938-1.324c1.015-2.729,1.969-5.479,2.946-8.221l.4.128c-.483,1.623-1,3.239-1.447,4.864-.468,1.708-.863,3.436-1.323,5.146a16.844,16.844,0,0,1-.713,2.174c-.793,1.879-1.667,3.722-2.421,5.617-.15.376.093.909.155,1.37Z" transform="translate(-102.689 -25.667)" fill="#ff8282"/>
      <path id="Path_1772" data-name="Path 1772" d="M91.343,58.993c-.152-1.655-.377-2.976-.367-4.3,0-1.234-.116-2.15-2.207-1.8.517-.849.685-1.59,1.119-1.8a1.233,1.233,0,0,0,.814-1.49c-.217-2.545-.393-5.092-.555-7.639-.052-.793,0-1.59,0-2.309,2-.552,1.4,1.419,2.444,2.214a17.28,17.28,0,0,0,.121-1.816c-.235-4.307-.517-8.612-.731-12.919a31.844,31.844,0,0,1,.961-9.768,19.222,19.222,0,0,1,.69-1.837l.38.087Q93.5,19.3,93.008,22.974l-.2-.059c.067.744.158,1.488.2,2.232q.47,8.5.912,17.005a12.627,12.627,0,0,1-.274,3.561,14.234,14.234,0,0,0-.207-2.309c-.088-.364-.568-.636-.873-.949-.3.326-.775.616-.85.982a7.7,7.7,0,0,0,.075,1.914c.132,1.739.225,1.8,2.163,1.383a13.866,13.866,0,0,1,.406,2.309c0,1,.258,1.565,1.4,1.344.155-.028.349.149.775.354l-6.891.941.054.485h1.742l.217,1.154,2.646-.467a18.966,18.966,0,0,1,.351,6.585c-.021.213-.1.418-.114.631-.279,3.335-.729,2.475-3.359,2.239-.238-.023-.664-.446-.63-.6C90.8,60.7,91.132,59.7,91.343,58.993Z" transform="translate(-65.825 -11.525)" fill="#ff8282"/>
      <path id="Path_1773" data-name="Path 1773" d="M53.449,27.532c-.227-1.55-.517-3.072-.669-4.62-.147-1.431-.067-2.889-.258-4.31-.186-1.282-.643-2.514-.881-3.806a24.033,24.033,0,0,1-.22-2.561l.364-.023.791,2.48.276-.018q-.181-1.55-.367-3.085c2.235,10.038,3.119,20.26,4,30.453l-.475.078-.623-2.734-.207.023c.044.721.1,1.442.127,2.165a6.576,6.576,0,0,1-.207,2.119q-2.325-12.131-4.63-24.262l.411-.109c.393,1.341.814,2.674,1.17,4.023s.672,2.783,1,4.176Z" transform="translate(-37.425 -8.595)" fill="#ff8282"/>
      <path id="Path_1774" data-name="Path 1774" d="M134.6,30.036q1.034-3.927,2.093-7.855l.517.114q-2.093,11.077-4.16,22.151l-.217.015-.147-3.258-.189.018q-.411,1.7-.824,3.39l-.349-.062c.935-9.847,1.809-19.7,3.721-29.456.077.437.158.876.279,1.55l.9-2.274.344.09q-1.065,7.767-2.134,15.534Z" transform="translate(-97.377 -10.657)" fill="#ff8282"/>
      <path id="Path_1775" data-name="Path 1775" d="M90.784,12.116l-.558-1.034c.289,5.455,1.328,10.622.147,15.79-1.55-1.245-1.775-4.672-.351-5.971.54-.488.55-.692-.1-1.124a2.6,2.6,0,0,1-1.173-1.493,40.5,40.5,0,0,1-.581-6.914,15.1,15.1,0,0,1,4.6-10.335A14.362,14.362,0,0,1,94.081,0c-.134,1.349-.031,2.253-.969,3.219-.848.873-1.1,2.354-1.524,3.6-.491,1.452-1.222,2.868-.628,4.478C91.021,11.446,90.887,11.671,90.784,12.116Z" transform="translate(-65.371 0)" fill="#ff8282"/>
      <path id="Path_1776" data-name="Path 1776" d="M176.36,105.464c.845-1.956,1.517-3.617,2.279-5.227a35.02,35.02,0,0,1,1.7-3.062c.106-.178.4-.258.775-.465l-.183,1.48.16.07,2.284-3.7C183.76,97.082,179.941,102.958,176.36,105.464Z" transform="translate(-130.775 -70.32)" fill="#ff8282"/>
      <path id="Path_1777" data-name="Path 1777" d="M37.14,50.717l-1.63-5.467.419-.129,1.749,5.444Z" transform="translate(-26.332 -33.544)" fill="#ff8282"/>
      <path id="Path_1778" data-name="Path 1778" d="M91.4,204.05l4.274.886-.049.372c-1.292.344-2.535-.326-3.8-.517C91.653,204.779,91.555,204.311,91.4,204.05Z" transform="translate(-67.776 -151.668)" fill="#ff8282"/>
      <path id="Path_1779" data-name="Path 1779" d="M2.028,97.984,0,94.488l.419-.258,2.067,3.444Z" transform="translate(0 -70.047)" fill="#ff8282"/>
      <path id="Path_1780" data-name="Path 1780" d="M103.84,156.131l3.659-.651.049.331A3.749,3.749,0,0,1,103.84,156.131Z" transform="translate(-77 -115.564)" fill="#ff8282"/>
      <path id="Path_1781" data-name="Path 1781" d="M180.45,73.3l1.85-3.8.39.194q-.943,1.912-1.889,3.822Z" transform="translate(-133.808 -51.665)" fill="#ff8282"/>
      <path id="Path_1782" data-name="Path 1782" d="M202.548,106.615l-1.868,1.7a2.924,2.924,0,0,1,1.514-2.155C202.313,106.31,202.432,106.462,202.548,106.615Z" transform="translate(-148.811 -78.91)" fill="#ff8282"/>
    </g>
  </g>
  <rect id="Rectangle_3289" data-name="Rectangle 3289" width="60" height="60" fill="none"/>
</svg>
