<svg xmlns="http://www.w3.org/2000/svg" width="86.556" height="78.169" viewBox="0 0 86.556 78.169">
  <g id="Component_112_4" data-name="Component 112 – 4" transform="translate(0.079 0.184)">
    <line id="Line_625" data-name="Line 625" y1="23.202" x2="9.201" transform="translate(62.773)" fill="none" stroke="#ff7474" stroke-width="1"/>
    <line id="Line_627" data-name="Line 627" y1="10.001" x2="8.401" transform="translate(73.974 20.801)" fill="none" stroke="#ff7474" stroke-width="1"/>
    <line id="Line_628" data-name="Line 628" x1="8.401" y1="10.001" transform="translate(1.569 21.202)" fill="none" stroke="#ff7474" stroke-width="1"/>
    <line id="Line_629" data-name="Line 629" x1="1.2" y1="6.4" transform="translate(26.771 0.4)" fill="none" stroke="#ff7474" stroke-width="1"/>
    <line id="Line_630" data-name="Line 630" y1="6.4" x2="1.2" transform="translate(55.572 0.4)" fill="none" stroke="#ff7474" stroke-width="1"/>
    <line id="Line_631" data-name="Line 631" y1="3.2" x2="5.6" transform="translate(77.574 50.804)" fill="none" stroke="#ff7474" stroke-width="1"/>
    <line id="Line_632" data-name="Line 632" x1="5.6" y1="3.2" transform="translate(0.169 50.804)" fill="none" stroke="#ff7474" stroke-width="1"/>
    <line id="Line_626" data-name="Line 626" x1="9.201" y1="23.202" transform="translate(11.569)" fill="none" stroke="#ff7474" stroke-width="1"/>
    <path id="Subtraction_240" data-name="Subtraction 240" d="M48.021,69.57a12.626,12.626,0,0,1-4.307-.942,17.82,17.82,0,0,1-2.051-.942h0a19.879,19.879,0,0,1-2.022.922,12.024,12.024,0,0,1-4.048.923,4.925,4.925,0,0,1-.81-.063,4.52,4.52,0,0,1-1.828-.765,6.628,6.628,0,0,1-1.317-1.23,8.228,8.228,0,0,1-1.065-1.647v-.018a.974.974,0,0,1-.221.028h-.022c-.353.441-1.608.727-3.2.727-1.652,0-3.786-.329-4.821-1.253a3.436,3.436,0,0,1-1.187-2.605,8.753,8.753,0,0,1,.453-2.617c.253-.874,1.2-1.4,1.819-1.743.365-.2.628-.349.626-.481,0-.054-.047-.1-.141-.152-.048-.024-.094-.054-.134-.08a.775.775,0,0,0-.459-.158,4.022,4.022,0,0,0-1.71.707c-.625.371-.67,1.127-.714,1.858-.059.987-.116,1.919-1.51,1.919a8.432,8.432,0,0,1-2.594-.579C12.855,60.018,8.034,57.8,4.845,56.338h0l-.012-.006C3.143,55.556,1.924,55,1.659,54.944l-.009,0c.05,0,2.651.4,5.4.814l.011,0,1.048.159.054.008,1.419.216c3.907.593,7.921,1.2,8.076,1.2h0a.06.06,0,0,0-.016-.005,13.111,13.111,0,0,1-6.186-2.89c-1.683-1.606-2.39-3.791-2.162-6.679a4.953,4.953,0,0,1,.9-2.342A4.172,4.172,0,0,1,11.976,44.1l-.117-.167-.008-.012a10.224,10.224,0,0,1,3.9-.846,7.228,7.228,0,0,1,5.387,2.332,6.269,6.269,0,0,1,1.83,3.836,4.4,4.4,0,0,1-4.2,4.565c-2.383,0-3.353-.246-3.353-2.723,0-.167-.146-.249-.447-.249a2.848,2.848,0,0,0-.394.032.857.857,0,0,0-.079.361,3.721,3.721,0,0,0,.393,2.01,4.49,4.49,0,0,0,2.679,2.122,2.74,2.74,0,0,0,.829.129,8.552,8.552,0,0,0,1.181-.125l.017,0-.113.081a7.587,7.587,0,0,0,3.1-2.534,6.463,6.463,0,0,0,1.19-3.719,6.615,6.615,0,0,0-2.285-4.95,8.222,8.222,0,0,0-5.516-2.05,8.367,8.367,0,0,0-4.455,1.251l-.293-.42L.982,32.664,0,31.011l2.036.575h0l0,0,0,0h0c.015,0,.687.406,8.714,5.6a13.51,13.51,0,0,1-.143-5.385,6.7,6.7,0,0,1,2.181-3.85,3.867,3.867,0,0,1,2.09-.937c.633,0,1.132.394,1.618,1.277.106.193.19.282.265.282.16,0,.271-.412.455-1.095.036-.133.075-.278.118-.433a3.333,3.333,0,0,1-.7.083,2.1,2.1,0,0,1-1.747-.993C13.249,19.876,10.027,5.9,10,5.765a.012.012,0,0,1,.008,0c.085,0,1.046.513,8.517,18.3l.05.186a13.767,13.767,0,0,0,1.88,3.933c1.281,1.1,2.02,1.765,2.461,2.163a3.344,3.344,0,0,0,1.3.917h0l.026.011.23.1a1.039,1.039,0,0,0-.267.722v0a.978.978,0,0,1-.189.588,6.925,6.925,0,0,0-5.869,3.83,10.558,10.558,0,0,0-1.126,3.521,17.986,17.986,0,0,1,2.4-3.9,6.046,6.046,0,0,1,1.842-1.611,9.4,9.4,0,0,1,2.089-.882,11.639,11.639,0,0,1,2.421-.446l1.579-1.619-2-.459-4.2-4.422-.491-.682a4.3,4.3,0,0,1,2.2-2.869,10.873,10.873,0,0,1,5.067-1.259,12.006,12.006,0,0,1,3.069.412c.019-1.732-.113-5.368-.253-9.217v-.033c-.225-6.181-.458-12.573-.156-13A.077.077,0,0,1,30.643,0c.475,0,1.79,5.968,3.182,12.287l.017.077c.491,2.228,1,4.531,1.48,6.621a8.365,8.365,0,0,1,6.45-2.8,8.879,8.879,0,0,1,5.758,2.168c.007.1.022.144.044.144.4,0,3.087-15.514,3.114-15.67L52.372.04v3c0,.08-.188,8.7-.472,19.827a12.232,12.232,0,0,1,3.659-.584,10.869,10.869,0,0,1,5.066,1.26,5.262,5.262,0,0,1,1.411,1.195,3.891,3.891,0,0,1,.726,1.417l-.387.538-4.2,4.422-2,.459,1.579,1.619a11.847,11.847,0,0,1,2.421.446,9.4,9.4,0,0,1,2.089.882A6.051,6.051,0,0,1,64.1,36.132a17.453,17.453,0,0,1,2.4,3.905,10.427,10.427,0,0,0-1.126-3.525,6.925,6.925,0,0,0-5.869-3.83.98.98,0,0,1-.189-.588v0a1.039,1.039,0,0,0-.266-.721,6.37,6.37,0,0,0,1.5-1.241,8.565,8.565,0,0,1,1.823-1.509,2.059,2.059,0,0,1,.43-.17c-.02.108-.04.2-.06.291.178-.11.352-.215.519-.311a.707.707,0,0,1,.509.5c0-.007.076-.782.151-1.565.239-.924.475-2.044.5-2.169v0L72.687,6.566v.01c-.108.679-1.149,7.024-4.5,20.683a4.032,4.032,0,0,1,2.091.653,5.841,5.841,0,0,1,2.657,3.81,13.152,13.152,0,0,1-.251,5.475.033.033,0,0,0,0,.029.045.045,0,0,0,.037.012c.827,0,13.62-8.43,13.749-8.515l-.006.008c-.505.573-5.192,5.831-14.046,13.939-.072.2-.152.4-.236.594a8.373,8.373,0,0,0-4.414-1.227,8.219,8.219,0,0,0-5.516,2.051,7.138,7.138,0,0,0-1.37,1.654,15.8,15.8,0,0,0-.694-5.946,16.09,16.09,0,0,0-3.115-5.533,20.718,20.718,0,0,0-14.433-7.016,12.415,12.415,0,0,0-1.285-.066,14.839,14.839,0,0,0-5.068.941,19.836,19.836,0,0,0-4.761,2.541,21.2,21.2,0,0,0-6.9,8.189A18.507,18.507,0,0,0,23.387,44.5a12.832,12.832,0,0,0,.054,2.335c.013.025.136.241.291.241.116,0,.22-.121.311-.358a41.621,41.621,0,0,1,2.794-6.372.126.126,0,0,1,.048-.01.173.173,0,0,1,.127.073,5.552,5.552,0,0,1,.282,3.122,4.876,4.876,0,0,1-.8,1.578v0a9.336,9.336,0,0,0-1.284,2.569,4.564,4.564,0,0,0,.389,3.393A22.074,22.074,0,0,0,27.28,53.6c.316.425.589.792.788,1.124-.02-.015-2.1-1.507-2.724-1.507a.2.2,0,0,0-.134.04,13.532,13.532,0,0,0,.2,3.656c.676.605.357,1.027-.084,1.611a3.293,3.293,0,0,0-.855,2.552,3.358,3.358,0,0,0,1,1.776,1.553,1.553,0,0,0,.347.28l.063.044a3.948,3.948,0,0,0,2.19.664,2.281,2.281,0,0,0,1.847-.725,2.182,2.182,0,0,0,.655-1.967,9.436,9.436,0,0,1,.23-2.8,4.272,4.272,0,0,1,1.255.484,2.369,2.369,0,0,1,1.242,1.559,1.085,1.085,0,0,1-.375,1.193A4.525,4.525,0,0,0,31.7,64.061c-.045.4.462,1.109.9,1.636a8.873,8.873,0,0,0,1.028,1.09h.009c.041,0,.252-.028.311-.107a.07.07,0,0,0,.012-.064,6.269,6.269,0,0,0-.349-.8l0,0c-.244-.5-.5-1.018-.408-1.225a5.18,5.18,0,0,1,.7-.419l.013-.007c.122-.067.184-.1.185-.1a.728.728,0,0,0,.011-.116,1.609,1.609,0,0,1,.417-1.155.471.471,0,0,1,.3-.091,2.937,2.937,0,0,1,1.284.547.016.016,0,0,1,0-.006c0-.236.045-1.429.717-1.691a1.323,1.323,0,0,1,.746-.235,2.361,2.361,0,0,1,1.509.778v0c.025-.123.265-1.207.951-1.368a2.925,2.925,0,0,1,.506-.047,1.542,1.542,0,0,1,1.28.56,1.438,1.438,0,0,1,.276.569v0c.055-.122.563-1.19,1.464-1.2h.061a1.342,1.342,0,0,1,1.191.647,3.355,3.355,0,0,1,.212.384c.075.153.129.263.19.263h0a1.2,1.2,0,0,0,.367-.176l0,0a2.47,2.47,0,0,1,1.141-.43.894.894,0,0,1,.209.024,2.168,2.168,0,0,1,1.052,1.947c.008.151.012.242.051.242.021,0,.053-.028.1-.089a1.168,1.168,0,0,1,1-.521.857.857,0,0,1,.73.315.589.589,0,0,1,.02.568l-.076-.125,0,0c-.25-.407-.431-.451-.5-.451a.1.1,0,0,0-.031,0,.483.483,0,0,0-.152-.024,1.5,1.5,0,0,0-1.068.787c.006.042.012.08.017.114.053.355.053.355-.16,1.136l0,.009a5.262,5.262,0,0,1-.28.753,1.43,1.43,0,0,0,.312,1.978.49.49,0,0,0,.1.009,1.328,1.328,0,0,0,.853-.407A6.072,6.072,0,0,0,50.236,65.5a2.892,2.892,0,0,0-.177-1.393c.119.187.182.213.232.213a.253.253,0,0,0,.095-.026h0l.016-.007a.381.381,0,0,1,.152-.034.819.819,0,0,1,.453.2,3.653,3.653,0,0,1-.356,1.3,2.82,2.82,0,0,0-.278.966.027.027,0,0,0,.023.012h0a2.5,2.5,0,0,0,1.029-.656,3.331,3.331,0,0,0,1-1.482,14.553,14.553,0,0,0-.18-1.72v0a3.958,3.958,0,0,1-1.178-1.719,1.417,1.417,0,0,0-.142-.335,1.81,1.81,0,0,1,.535-1.332,3.617,3.617,0,0,1,1.993-1.012l.417,4.178a4.219,4.219,0,0,0,.7.55v.064h.1a3.523,3.523,0,0,0,1.812.545A3.979,3.979,0,0,0,59.7,61.666a2.989,2.989,0,0,0-.835-3.085c-.39-.456-.7-.817-.457-1.286,0,0,.155-.022.328-.5a12.259,12.259,0,0,0,.464-3.316c.054-.107-.071-.218-.077-.223a.211.211,0,0,0-.188-.086,3.421,3.421,0,0,0-1.243.6,3.539,3.539,0,0,1-1.063.538,5.346,5.346,0,0,1,1-1.766,12.829,12.829,0,0,0,1.34-2.116,4.344,4.344,0,0,0-.122-2.734,6.757,6.757,0,0,0-1.205-2.638c-.8-.23-.711-2.718-.546-3.886.077-.541.172-.876.25-.876.014,0,.027.011.039.032,1.241,2.29,2.579,4.895,2.747,6.828a.325.325,0,0,0,.085.13,6.37,6.37,0,0,0-.248,1.761,6.465,6.465,0,0,0,1.19,3.719,7.586,7.586,0,0,0,3.1,2.534l-.112-.08h.015a8.63,8.63,0,0,0,1.181.126,2.78,2.78,0,0,0,.828-.129,4.49,4.49,0,0,0,2.68-2.122,3.719,3.719,0,0,0,.393-2.01.858.858,0,0,0-.079-.361,2.919,2.919,0,0,0-.394-.032c-.3,0-.447.081-.447.248,0,2.477-.97,2.724-3.353,2.724a4.4,4.4,0,0,1-4.2-4.565,6.267,6.267,0,0,1,1.83-3.836,7.226,7.226,0,0,1,5.387-2.332,10.267,10.267,0,0,1,3.955.868c-.03.062-.061.125-.093.188A4.17,4.17,0,0,1,73.544,45.3a4.866,4.866,0,0,1,.863,2.257,13.86,13.86,0,0,1-.115,3.377,5.822,5.822,0,0,1-1.029,2.461c-1.1,1.507-3.069,2.672-5.89,4.064l3.969-.634.1-.019,8.845-1.695a8,8,0,0,1-2.136,1.3c-1.773.9-5.405,2.58-12.641,5.425a.682.682,0,0,1-.512.155,4.151,4.151,0,0,1-.869-.128h-.005l-.112-.025c-1.575-.838-1.491-1.4-1.4-2a1.559,1.559,0,0,0-.177-1.2,3.059,3.059,0,0,0-2.374-1.184.686.686,0,0,0-.136.01.347.347,0,0,0-.278.181c-.076.19.118.48.289.736.136.2.264.394.232.5h.006a1.7,1.7,0,0,1,.216-.013,1.894,1.894,0,0,1,1.385.572,3.42,3.42,0,0,1,.661,2.6c-.012.1-.023.2-.034.3l0,.015a4.135,4.135,0,0,1-1.127,2.944c-.978.859-2.809,1.317-5.76,1.442-.077.007-.153.01-.226.01a1.317,1.317,0,0,1-1.125-.5,1.7,1.7,0,0,1-.28-.656,12.773,12.773,0,0,1-1.892,2.3,5.835,5.835,0,0,1-2.834,1.584A6.076,6.076,0,0,1,48.021,69.57ZM34.944,63.2c-.067,0-.248.044-.5.451a2.55,2.55,0,0,0-.428,1.844,6.072,6.072,0,0,0,1.342,2.066,1.328,1.328,0,0,0,.853.407.488.488,0,0,0,.1-.009,1.431,1.431,0,0,0,.312-1.978,5.27,5.27,0,0,1-.28-.753l0-.009c-.213-.781-.213-.781-.16-1.135.005-.035.011-.073.017-.116a1.5,1.5,0,0,0-1.069-.787.483.483,0,0,0-.151.023A.1.1,0,0,0,34.944,63.2Zm11.277-1.61a1.467,1.467,0,0,0-1.1.781l-.1,3c0,.034,0,.069-.005.106a2.671,2.671,0,0,0,.114,1.152,1.209,1.209,0,0,0,1.17.7h.01a2.195,2.195,0,0,0,1-.91,7.26,7.26,0,0,0,.534-2.861c-.016-.261-.02-.458-.024-.617a1.2,1.2,0,0,0-.292-.952,1.25,1.25,0,0,0-.99-.39,1.64,1.64,0,0,0-.191.01A.549.549,0,0,0,46.221,61.59Zm-8.59.005A1.264,1.264,0,0,0,36.614,62a1.2,1.2,0,0,0-.276.957c0,.159,0,.356-.013.617a7.312,7.312,0,0,0,.584,2.851,1.486,1.486,0,0,0,.432.523,1.461,1.461,0,0,0,.581.37h.012a1.209,1.209,0,0,0,1.158-.718,2.668,2.668,0,0,0,.094-1.152c0-.037,0-.072-.007-.107l-.157-2.994a1.483,1.483,0,0,0-1.107-.762.554.554,0,0,0-.127.014A1.531,1.531,0,0,0,37.632,61.6Zm2.868-.771a1.19,1.19,0,0,0-.933.357,1.206,1.206,0,0,0-.325.942c-.009.158-.02.355-.045.615a7.3,7.3,0,0,0,.434,2.878,1.5,1.5,0,0,0,.409.55c.185.182.443.395.562.395h.006a1.207,1.207,0,0,0,1.334-1.228.686.686,0,0,1,.082-.02l.031,0a.439.439,0,0,1,.18.051,1.2,1.2,0,0,0,1.331,1.2h.006c.119,0,.376-.213.561-.395a1.5,1.5,0,0,0,.409-.55,7.242,7.242,0,0,0,.434-2.878c-.025-.26-.036-.458-.045-.616a1.2,1.2,0,0,0-.325-.941,1.19,1.19,0,0,0-.933-.356,1.749,1.749,0,0,0-.26.018.538.538,0,0,0-.1-.008,1.47,1.47,0,0,0-1.1.819v.341a.186.186,0,0,0-.05-.007.147.147,0,0,0-.033,0,.5.5,0,0,0-.117-.013.5.5,0,0,0-.067,0v-.328a1.47,1.47,0,0,0-1.1-.819.539.539,0,0,0-.1.008A1.728,1.728,0,0,0,40.5,60.825Zm1.727,4.459-.085-.16h.005a.535.535,0,0,0,.072,0c0,.055,0,.108.009.165Zm-1.939-6.519a.48.48,0,0,1-.381-.194,5.2,5.2,0,0,1-.82-2.274c.361-2.277,2.843-5.846,2.949-6l0,0c.127.2,3.1,4.889,3.1,5.994a3.323,3.323,0,0,1-.532,1.628c-.293.482-.631.819-.821.819a.127.127,0,0,1-.063-.015,15.443,15.443,0,0,1-1.61-1.689l0,0C42,57.219,41,58.764,40.288,58.764Zm-8.483-4.657c-2.252-.607-4.888-3.3-4.6-5.336-.013-2.027.2-3.37,1.326-4.236a19.121,19.121,0,0,0,4.637-1.554,6.024,6.024,0,0,1,1.783-.626,35.058,35.058,0,0,0,5.773,2.18,1.528,1.528,0,0,1,.126,1.147c-.142.691-.69,1.834-2.5,3.357a33.446,33.446,0,0,0-1.882,2.786,4.694,4.694,0,0,1-1.557,1.86A6.7,6.7,0,0,1,31.805,54.107Zm20.47,0h0a6.7,6.7,0,0,1-3.108-.423,4.692,4.692,0,0,1-1.556-1.859v0l0,0a33.485,33.485,0,0,0-1.879-2.781c-1.807-1.522-2.355-2.666-2.5-3.357a1.522,1.522,0,0,1,.126-1.147c.006-.019.017-.052.022-.052,2.773-.977,3.156-1.353,3.362-1.554s.254-.249,2.389-.574a6.019,6.019,0,0,1,1.782.625,19.152,19.152,0,0,0,4.638,1.555c1.126.865,1.339,2.208,1.327,4.236.287,2.034-2.35,4.73-4.6,5.336Z" transform="translate(0 8.415)" fill="#ff8282"/>
  </g>
</svg>
