<?xml version="1.0" encoding="UTF-8" standalone="no"?>
<!DOCTYPE svg PUBLIC "-//W3C//DTD SVG 1.1//EN" "http://www.w3.org/Graphics/SVG/1.1/DTD/svg11.dtd">
<svg xmlns="http://www.w3.org/2000/svg" version="1.1" viewBox="0.00 0.00 87.00 78.00">
<path fill="#000000" fill-opacity="0.682" d="
  M 72.29 0.00
  Q 72.38 0.13 72.49 0.30
  A 0.67 0.66 -52.8 0 1 72.57 0.93
  L 63.66 23.36
  A 0.58 0.58 0.0 0 1 62.91 23.69
  L 62.56 23.55
  A 0.54 0.53 21.7 0 1 62.26 22.86
  L 71.37 0.00
  L 72.29 0.00
  Z"
/>
<rect fill="#000000" fill-opacity="0.682" x="-0.74" y="-12.66" transform="translate(16.26,11.82) rotate(-21.7)" width="1.48" height="25.32" rx="0.63"/>
<rect fill="#000000" x="-0.52" y="-3.42" transform="translate(27.45,3.70) rotate(-10.8)" width="1.04" height="6.84" rx="0.27"/>
<path fill="#000000" fill-opacity="0.886" d="
  M 55.31 7.12
  A 0.21 0.21 0.0 0 1 55.14 6.87
  L 56.09 1.57
  A 1.50 0.39 -79.8 0 1 56.74 0.16
  L 57.12 0.23
  A 1.50 0.39 -79.8 0 1 57.23 1.78
  L 56.28 7.08
  A 0.21 0.21 0.0 0 1 56.04 7.25
  L 55.31 7.12
  Z"
/>
<path fill="#000000" d="
  M 10.78 45.20
  C 10.20 41.88 10.38 39.46 12.82 36.82
  Q 14.94 34.53 16.51 36.74
  A 0.33 0.33 0.0 0 0 17.00 36.78
  Q 17.29 36.51 17.26 36.22
  A 0.43 0.42 5.3 0 0 16.95 35.86
  Q 15.14 35.39 14.63 33.40
  Q 12.63 25.58 10.37 15.51
  A 0.30 0.30 0.0 0 1 10.94 15.32
  C 14.58 23.07 16.02 26.86 19.42 34.42
  C 20.58 36.98 21.93 38.26 24.14 39.70
  A 0.86 0.86 0.0 0 1 23.83 41.26
  Q 18.14 42.30 17.50 47.92
  A 0.07 0.07 0.0 0 0 17.63 47.96
  Q 19.90 42.30 25.39 41.96
  A 1.02 0.95 18.5 0 0 26.01 41.68
  L 27.08 40.61
  A 0.40 0.39 23.3 0 0 26.81 39.94
  L 26.18 39.93
  A 0.93 0.92 -21.5 0 1 25.55 39.66
  L 21.26 35.37
  A 1.45 1.45 0.0 0 1 21.27 33.32
  Q 25.09 29.54 30.12 30.89
  A 0.77 0.77 0.0 0 0 31.09 30.13
  L 30.43 9.46
  A 0.29 0.28 -71.2 0 1 30.89 9.23
  Q 31.42 9.66 31.91 11.88
  Q 35.12 26.39 35.25 26.92
  A 0.44 0.43 63.5 0 0 35.95 27.16
  Q 41.14 22.82 47.18 26.66
  A 0.45 0.44 22.8 0 0 47.86 26.39
  Q 49.19 20.73 50.54 12.76
  Q 50.87 10.80 52.10 9.33
  A 0.25 0.25 0.0 0 1 52.54 9.50
  L 51.98 31.02
  A 0.40 0.40 0.0 0 0 52.47 31.43
  C 56.36 30.58 59.80 30.76 62.36 33.77
  A 1.20 1.19 -43.0 0 1 62.30 35.40
  L 56.98 40.72
  A 0.53 0.53 0.0 0 0 57.30 41.62
  Q 63.40 42.21 65.40 47.03
  A 0.28 0.28 0.0 0 0 65.94 46.87
  Q 65.32 43.52 62.03 41.91
  A 1.63 1.51 61.2 0 0 61.55 41.75
  Q 60.45 41.58 59.66 41.13
  A 0.71 0.70 28.8 0 1 59.38 40.19
  Q 60.74 37.61 63.32 37.19
  A 0.63 0.63 0.0 0 0 63.83 36.70
  Q 64.56 33.49 64.86 32.86
  Q 68.83 24.28 72.48 15.79
  A 0.15 0.15 0.0 0 1 72.66 15.71
  L 72.68 15.72
  A 0.20 0.19 -75.6 0 1 72.81 15.95
  L 68.44 35.21
  A 0.62 0.61 -75.4 0 0 68.87 35.95
  C 73.21 37.18 73.31 41.26 72.86 45.18
  A 0.46 0.46 0.0 0 0 73.56 45.62
  L 85.23 38.23
  A 0.23 0.23 0.0 0 1 85.51 38.58
  L 72.72 51.37
  A 0.88 0.87 -55.8 0 1 71.76 51.56
  Q 65.73 49.08 61.75 53.62
  A 0.48 0.48 0.0 0 1 60.91 53.29
  C 61.20 43.13 51.45 36.44 42.20 35.82
  Q 41.51 35.78 38.74 36.25
  Q 36.78 36.59 35.40 37.22
  Q 29.29 39.98 25.70 45.76
  C 24.41 47.83 24.09 50.38 23.50 52.69
  Q 23.31 53.43 23.48 53.78
  Q 23.67 54.14 23.56 54.34
  A 0.46 0.45 39.5 0 1 22.81 54.41
  Q 18.40 49.08 12.15 51.77
  A 0.73 0.71 -33.8 0 1 11.36 51.62
  L 0.51 40.76
  A 0.55 0.55 0.0 0 1 1.18 39.89
  L 10.59 45.32
  A 0.13 0.12 11.9 0 0 10.78 45.20
  Z"
/>
<rect fill="#000000" fill-opacity="0.682" x="-0.85" y="-6.77" transform="translate(78.30,25.92) rotate(40.1)" width="1.70" height="13.54" rx="0.27"/>
<path fill="#000000" fill-opacity="0.682" d="
  M 9.62 32.12
  L 1.03 21.93
  A 0.25 0.25 0.0 0 1 1.15 21.52
  Q 1.65 21.39 2.00 20.99
  A 0.25 0.25 0.0 0 1 2.38 20.99
  L 10.45 30.57
  A 0.38 0.37 -51.2 0 1 10.49 31.01
  L 9.86 32.10
  A 0.15 0.15 0.0 0 1 9.62 32.12
  Z"
/>
<path fill="#000000" d="
  M 50.19 78.00
  L 46.58 78.00
  L 42.27 76.55
  A 1.41 1.34 44.3 0 0 41.40 76.54
  L 36.96 78.00
  L 34.52 78.00
  Q 32.32 77.12 30.94 74.99
  A 0.75 0.75 0.0 0 0 30.13 74.67
  C 25.93 75.73 19.20 74.93 21.89 68.60
  A 2.02 1.95 -12.2 0 1 22.32 67.96
  Q 23.65 66.63 23.68 66.54
  A 0.37 0.36 -89.5 0 0 23.23 66.08
  Q 20.75 66.81 20.84 69.44
  A 1.04 1.04 0.0 0 1 19.69 70.51
  C 16.14 70.14 13.32 68.49 10.68 67.47
  Q 6.06 65.67 3.24 64.09
  A 0.18 0.18 0.0 0 1 3.36 63.76
  L 15.29 65.62
  A 0.14 0.14 0.0 0 0 15.38 65.36
  L 11.75 63.19
  A 0.92 0.84 -2.6 0 1 11.51 62.99
  Q 8.37 59.31 10.12 54.36
  A 1.58 1.53 -8.0 0 1 10.72 53.59
  Q 16.09 50.02 20.41 53.47
  C 23.19 55.69 24.46 60.16 20.48 61.89
  Q 16.65 63.55 15.37 60.10
  A 0.30 0.30 0.0 0 0 14.79 60.16
  Q 14.60 61.20 15.39 62.22
  Q 18.03 65.64 21.37 62.90
  Q 24.21 60.56 23.63 56.26
  A 1.28 1.27 58.8 0 1 23.85 55.35
  Q 25.59 52.89 26.41 49.65
  A 0.39 0.38 40.8 0 1 27.14 49.60
  C 28.02 51.73 26.32 54.24 25.43 56.09
  A 2.50 2.43 57.3 0 0 25.19 57.28
  Q 25.35 60.26 27.38 61.85
  A 0.40 0.40 0.0 0 1 27.26 62.54
  Q 27.11 62.59 26.09 62.11
  A 0.58 0.58 0.0 0 0 25.27 62.70
  L 25.70 66.45
  A 0.76 0.74 -33.7 0 1 25.60 66.92
  L 24.78 68.34
  A 1.43 1.39 56.2 0 0 24.61 69.27
  Q 25.07 72.32 28.33 72.35
  A 2.15 2.14 4.5 0 0 30.47 70.53
  L 30.93 67.59
  A 0.45 0.44 14.7 0 1 31.53 67.24
  Q 33.04 67.82 33.40 69.12
  A 1.12 1.10 -37.7 0 1 33.29 69.94
  L 31.92 72.32
  A 0.76 0.75 44.6 0 0 31.93 73.10
  L 33.26 75.19
  A 0.34 0.34 0.0 0 0 33.87 75.10
  Q 34.00 74.65 33.66 74.40
  Q 33.19 74.07 33.31 73.79
  Q 33.39 73.60 33.79 73.15
  A 0.25 0.25 0.0 0 1 34.22 73.33
  Q 34.15 74.64 35.56 76.23
  Q 36.16 76.90 36.59 76.36
  Q 36.78 76.13 36.86 75.55
  A 0.29 0.29 0.0 0 1 37.34 75.37
  Q 37.79 75.79 38.31 75.75
  Q 38.87 75.70 39.04 75.10
  Q 39.20 74.55 39.23 73.81
  A 0.23 0.23 0.0 0 1 39.68 73.73
  L 40.01 74.49
  A 0.76 0.76 0.0 0 0 40.70 74.96
  Q 41.82 74.97 42.17 74.42
  A 0.26 0.26 0.0 0 1 42.63 74.49
  Q 42.83 75.17 43.69 75.14
  A 0.61 0.60 12.0 0 0 44.22 74.80
  Q 44.92 73.36 45.11 71.77
  A 0.01 0.01 0.0 0 1 45.12 71.76
  Q 45.12 71.77 45.13 71.77
  Q 45.08 73.50 45.19 74.96
  A 0.88 0.87 -32.5 0 0 46.82 75.32
  L 47.21 74.63
  A 0.29 0.29 0.0 0 1 47.74 74.82
  L 47.58 75.81
  A 0.61 0.61 0.0 0 0 48.46 76.44
  Q 49.86 75.72 50.07 73.58
  A 0.41 0.41 0.0 0 1 50.74 73.31
  Q 51.05 73.59 50.75 74.46
  A 0.40 0.39 73.9 0 0 51.43 74.84
  Q 53.53 72.10 51.38 70.34
  A 0.97 0.96 -60.4 0 1 51.09 69.27
  Q 51.51 68.11 52.80 67.42
  A 0.49 0.49 0.0 0 1 53.51 67.77
  L 53.95 70.48
  A 2.07 2.06 -2.1 0 0 55.81 72.20
  Q 59.37 72.52 59.82 69.22
  A 1.42 1.37 -58.4 0 0 59.61 68.27
  L 58.93 67.20
  A 1.58 1.57 -58.4 0 1 58.70 66.22
  Q 59.03 62.93 59.35 62.26
  A 0.30 0.30 0.0 0 0 58.96 61.85
  L 57.24 62.59
  A 0.27 0.26 8.2 0 1 56.93 62.18
  C 59.09 59.60 59.81 57.66 58.30 54.94
  C 57.10 52.77 56.92 52.10 57.17 49.75
  A 0.33 0.33 0.0 0 1 57.78 49.61
  Q 60.68 54.27 60.13 58.10
  A 2.43 2.41 -51.8 0 0 60.27 59.32
  C 61.24 61.80 63.50 64.68 66.62 63.63
  Q 68.89 62.87 69.33 59.79
  A 0.33 0.33 0.0 0 0 69.06 59.42
  L 68.73 59.37
  A 0.25 0.25 0.0 0 0 68.44 59.58
  L 68.22 61.02
  A 0.95 0.94 82.3 0 1 67.68 61.73
  Q 65.11 62.91 63.26 61.74
  C 59.61 59.43 60.55 55.81 63.32 53.35
  Q 65.03 51.84 67.74 51.68
  Q 72.03 51.43 73.68 54.42
  C 76.14 58.90 73.16 63.77 68.45 65.24
  A 0.22 0.22 0.0 0 0 68.31 65.54
  L 68.43 65.82
  A 0.04 0.03 75.1 0 0 68.46 65.84
  L 79.08 64.10
  A 0.29 0.29 0.0 0 1 79.24 64.66
  L 65.83 70.40
  A 2.13 2.12 75.7 0 1 62.88 68.64
  Q 62.69 66.55 60.37 66.13
  A 0.52 0.52 0.0 0 0 60.02 67.09
  L 61.78 68.10
  A 1.12 1.10 9.6 0 1 62.31 68.83
  C 63.58 74.40 58.19 76.18 54.16 74.79
  A 0.81 0.80 32.1 0 0 53.34 74.97
  L 50.19 78.00
  Z"
/>
<path fill="#000000" fill-opacity="0.886" d="
  M 5.50 53.91
  L 5.48 54.64
  A 0.23 0.22 25.0 0 1 5.08 54.78
  Q 3.97 53.55 0.73 52.13
  A 0.71 0.70 12.5 0 1 0.30 51.47
  L 0.32 50.85
  A 0.36 0.36 0.0 0 1 0.86 50.55
  L 6.20 53.63
  A 0.07 0.07 0.0 0 1 6.17 53.76
  Q 6.03 53.77 5.79 53.70
  A 0.23 0.23 0.0 0 0 5.50 53.91
  Z"
/>
<rect fill="#000000" fill-opacity="0.886" x="-3.48" y="-0.68" transform="translate(80.49,52.57) rotate(-29.7)" width="6.96" height="1.36" rx="0.64"/>
<path fill="#000000" d="
  M 39.94 52.80
  A 1.52 1.52 0.0 0 1 40.58 55.14
  L 35.43 61.80
  A 1.25 1.18 -80.3 0 1 34.91 62.19
  Q 31.68 63.52 29.12 61.14
  Q 26.63 58.84 27.59 55.02
  A 3.09 3.07 87.3 0 1 29.56 52.85
  L 34.75 51.03
  A 1.09 1.03 44.8 0 1 35.52 51.05
  L 39.94 52.80
  Z"
/>
<path fill="#000000" d="
  M 44.28 52.75
  L 48.72 51.00
  A 1.09 1.03 -44.7 0 1 49.49 50.98
  L 54.68 52.82
  A 3.09 3.08 -87.2 0 1 56.65 54.99
  Q 57.61 58.82 55.11 61.12
  Q 52.54 63.50 49.30 62.16
  A 1.25 1.18 80.4 0 1 48.78 61.77
  L 43.64 55.09
  A 1.52 1.52 0.0 0 1 44.28 52.75
  Z"
/>
<path fill="#000000" d="
  M 42.03 65.92
  L 40.90 67.05
  A 0.62 0.62 0.0 0 1 39.90 66.87
  C 38.56 63.95 39.99 61.86 41.85 59.48
  A 0.43 0.43 0.0 0 1 42.57 59.54
  L 45.02 64.10
  A 0.98 0.92 -58.7 0 1 45.14 64.67
  Q 45.01 66.30 44.08 67.06
  A 0.54 0.54 0.0 0 1 43.28 66.93
  L 42.69 65.99
  A 0.43 0.43 0.0 0 0 42.03 65.92
  Z"
/>
<path fill="#000000" fill-opacity="0.682" d="
  M 42.15 70.20
  Q 42.03 70.15 41.85 69.91
  A 0.19 0.19 0.0 0 1 42.05 69.60
  Q 42.18 69.64 42.38 69.94
  A 0.18 0.18 0.0 0 1 42.15 70.20
  Z"
/>
<path fill="#000000" fill-opacity="0.886" d="
  M 37.37 70.89
  Q 36.38 71.24 36.23 72.11
  A 0.25 0.25 0.0 0 1 35.85 72.28
  Q 35.78 72.24 35.89 71.96
  Q 36.56 70.34 37.33 70.45
  A 0.23 0.23 0.0 0 1 37.37 70.89
  Z"
/>
<path fill="#000000" d="
  M 39.20 70.88
  L 38.89 70.70
  A 0.06 0.06 0.0 0 1 38.91 70.59
  Q 39.44 70.50 39.38 70.80
  A 0.12 0.12 0.0 0 1 39.20 70.88
  Z"
/>
<path fill="#000000" d="
  M 45.85 70.77
  Q 45.82 70.78 45.60 70.80
  A 0.03 0.02 4.7 0 1 45.57 70.77
  Q 45.62 70.63 45.77 70.56
  A 0.12 0.11 -67.7 0 1 45.85 70.77
  Z"
/>
<path fill="#000000" d="
  M 47.36 71.16
  Q 47.21 71.07 47.10 70.92
  A 0.09 0.09 0.0 0 1 47.16 70.77
  Q 47.33 70.77 47.57 70.93
  A 0.17 0.14 -7.2 0 1 47.36 71.16
  Z"
/>
<path fill="#000000" d="
  M 35.11 72.13
  Q 34.93 72.31 34.41 72.23
  A 0.23 0.22 -86.9 0 1 34.23 72.02
  Q 34.23 71.72 34.45 71.60
  A 0.48 0.37 1.3 0 1 35.11 72.13
  Z"
/>
<path fill="#000000" d="
  M 48.28 72.65
  C 47.98 73.04 47.98 73.38 47.79 73.77
  A 0.14 0.14 0.0 0 1 47.52 73.70
  Q 47.53 72.97 47.97 72.41
  Q 48.41 71.85 49.13 71.67
  A 0.14 0.14 0.0 0 1 49.25 71.92
  C 48.91 72.20 48.58 72.27 48.28 72.65
  Z"
/>
</svg>
