<svg xmlns="http://www.w3.org/2000/svg" width="76.066" height="77.635" viewBox="0 0 76.066 77.635">
  <path id="Subtraction_402" data-name="Subtraction 402" d="M36.481,77.635a17.667,17.667,0,0,1-4.374-.725,22.9,22.9,0,0,1-3.3-1.165,9.732,9.732,0,0,0-3.983-.723c-.506,0-1.04.025-1.545.072v.029l-.028,0h-.028l-.4.017-.172.023h-.008V75.15c-.81.032-1.488.048-2.013.048a4.32,4.32,0,0,1-1.129-.075c-2.244-1.129-8.65-3.456-8.714-3.479L21.3,69.4,5.064,58l14.98.286L0,35.777c.05.02,5.089,2.076,10.28,4.1,6.464,2.524,10.237,3.859,10.911,3.859.059,0,.1-.01.11-.03a.043.043,0,0,0,0-.041A215.967,215.967,0,0,0,11.878,22.85c-3.113-6.14-5.743-10.9-5.854-11.1l0,0L31.242,39,30.65,19.278l.009.02c.352.774,2.211,4.84,4.2,8.862,2,4.052,4.554,8.882,5.314,8.882.31,0,.966-1.947,1.95-5.788.788-3.075,1.786-7.359,2.966-12.733C47,9.838,48.784,1.005,48.981.027L48.986,0,50.77,39,71.452,17.222A35.572,35.572,0,0,0,68.912,22.5c-1.578,3.752-4.259,10.782-8.067,22.966,0,.785-.639,4.655-.712,5.093l0,.011,13.489-1.807L60.132,62.082l15.935.531-.025.01c-.627.241-2.87,1.11-5.4,2.2a42.7,42.7,0,0,0-7.4,3.79,5.594,5.594,0,0,0-3.076,4.808c-.075.536-.13.923-.3,1.057a4.2,4.2,0,0,1-2.229.48c-.214,0-.355-.008-.37-.009l-7.37.432h0c-.116.055-1.167.552-2.489,1.038a14.823,14.823,0,0,1-4.5,1.039,2.5,2.5,0,0,1-1.566-.415,1.891,1.891,0,0,0-1.132-.315c-.113,0-.189.007-.2.008h0a1.177,1.177,0,0,0-.244-.021,1.73,1.73,0,0,0-1.082.376A3.553,3.553,0,0,1,36.481,77.635Zm9.845-5.466a1.4,1.4,0,0,0-1,.731c.005.039.011.073.015.1v0c.049.328.049.328-.149,1.053l0,.01a4.871,4.871,0,0,1-.261.7,1.323,1.323,0,0,0,.291,1.837.449.449,0,0,0,.09.009,1.243,1.243,0,0,0,.8-.378,5.642,5.642,0,0,0,1.253-1.918,2.382,2.382,0,0,0-.4-1.713c-.233-.378-.4-.418-.465-.418a.093.093,0,0,0-.029,0A.453.453,0,0,0,46.326,72.169Zm-13.371.018c-.062,0-.232.041-.465.419a2.381,2.381,0,0,0-.4,1.713,5.641,5.641,0,0,0,1.253,1.918,1.243,1.243,0,0,0,.8.378.45.45,0,0,0,.09-.009,1.323,1.323,0,0,0,.291-1.837,4.868,4.868,0,0,1-.261-.7l0-.011c-.2-.724-.2-.724-.149-1.052v0c0-.032.01-.067.015-.106a1.4,1.4,0,0,0-1-.731.454.454,0,0,0-.142.022A.094.094,0,0,0,32.954,72.188Zm10.635-1.5a1.37,1.37,0,0,0-1.031.725l-.1,2.782c0,.031,0,.064,0,.1a2.469,2.469,0,0,0,.106,1.07,1.13,1.13,0,0,0,1.093.648h.009a2.042,2.042,0,0,0,.933-.845,6.71,6.71,0,0,0,.5-2.657c-.015-.242-.019-.426-.022-.573a1.115,1.115,0,0,0-.273-.884,1.171,1.171,0,0,0-.925-.362,1.539,1.539,0,0,0-.178.009A.516.516,0,0,0,43.589,70.691Zm-8.1.005a1.184,1.184,0,0,0-.95.379,1.116,1.116,0,0,0-.257.889c0,.148,0,.331-.012.573a6.751,6.751,0,0,0,.546,2.648,1.381,1.381,0,0,0,.4.486,1.365,1.365,0,0,0,.543.343h.011a1.13,1.13,0,0,0,1.082-.668,2.466,2.466,0,0,0,.087-1.071V74.27c0-.032,0-.063-.006-.093l-.146-2.78a1.384,1.384,0,0,0-1.034-.707.519.519,0,0,0-.118.013A1.457,1.457,0,0,0,35.486,70.7ZM29.06,67.544h0A4,4,0,0,1,30.243,68a2.238,2.238,0,0,1,1.17,1.473,1.025,1.025,0,0,1-.353,1.126A4.271,4.271,0,0,0,29.9,72.944c-.043.375.435,1.047.844,1.545a8.443,8.443,0,0,0,.969,1.03h.008c.038,0,.237-.026.293-.1a.065.065,0,0,0,.011-.06,5.965,5.965,0,0,0-.329-.753v0c-.23-.473-.467-.962-.385-1.157a4.833,4.833,0,0,1,.662-.4l.007,0c.122-.067.177-.1.178-.1a.669.669,0,0,0,.01-.105v0a1.526,1.526,0,0,1,.393-1.09.444.444,0,0,1,.282-.086,2.822,2.822,0,0,1,1.211.517h0c0-.137.019-1.345.675-1.6a1.243,1.243,0,0,1,.7-.222,2.2,2.2,0,0,1,1.422.735c.024-.118.259-1.145.9-1.294a2.731,2.731,0,0,1,.477-.045,1.4,1.4,0,0,1,1.467,1.066v0c.052-.115.537-1.125,1.38-1.13h.058a1.263,1.263,0,0,1,1.122.611,3.136,3.136,0,0,1,.2.355l0,.008c.071.144.122.248.179.248h0a1.171,1.171,0,0,0,.349-.168,2.321,2.321,0,0,1,1.075-.406.842.842,0,0,1,.2.023,2.05,2.05,0,0,1,.991,1.839v0c.007.141.011.226.048.226.02,0,.05-.027.095-.084a1.1,1.1,0,0,1,.946-.492.807.807,0,0,1,.687.3.559.559,0,0,1,.017.548c.215.415.3.5.385.5a.236.236,0,0,0,.089-.025h0l.015-.006a.355.355,0,0,1,.143-.032.77.77,0,0,1,.427.192,3.439,3.439,0,0,1-.334,1.222l0,0,0,.006v0a2.624,2.624,0,0,0-.259.9.026.026,0,0,0,.022.012h0a2.36,2.36,0,0,0,.969-.619,3.144,3.144,0,0,0,.94-1.4,14.168,14.168,0,0,0-.17-1.625v0a3.737,3.737,0,0,1-1.11-1.624,1.323,1.323,0,0,0-.134-.316,1.713,1.713,0,0,1,.51-1.265,3.406,3.406,0,0,1,1.872-.949l.393,3.945a4.018,4.018,0,0,0,.7.547,3.425,3.425,0,0,0,1.764.547,3.75,3.75,0,0,0,3.03-2.018,2.828,2.828,0,0,0-.787-2.914c-.368-.431-.659-.771-.431-1.214,0,0,.149-.03.309-.476a11.617,11.617,0,0,0,.437-3.131c.051-.1-.071-.209-.072-.21a.2.2,0,0,0-.177-.082,3.224,3.224,0,0,0-1.17.564l0,0,0,0a3.325,3.325,0,0,1-1,.506,5.036,5.036,0,0,1,.94-1.665v0l0,0,0,0a12.074,12.074,0,0,0,1.261-2,4.116,4.116,0,0,0-.115-2.582,6.394,6.394,0,0,0-1.136-2.491c-.755-.219-.671-2.579-.512-3.687.072-.5.161-.81.233-.81.013,0,.025.01.037.031,1.169,2.162,2.43,4.621,2.589,6.448.04.1.092.151.154.151.19,0,.422-.484.467-.581a14.865,14.865,0,0,0-3.546-11.787,19.017,19.017,0,0,0-6.326-4.748,18.8,18.8,0,0,0-7.232-1.827A11.634,11.634,0,0,0,39,38.116,13.961,13.961,0,0,0,34.228,39a18.673,18.673,0,0,0-4.486,2.4,21,21,0,0,0-3.8,3.511,18.5,18.5,0,0,0-2.708,4.222,17.49,17.49,0,0,0-1.171,5.333,11.844,11.844,0,0,0,.051,2.206c.021.038.132.228.274.228.109,0,.208-.114.293-.338a39.346,39.346,0,0,1,2.633-6.017.113.113,0,0,1,.045-.01.163.163,0,0,1,.119.068,5.242,5.242,0,0,1,.266,2.949A4.613,4.613,0,0,1,25,55.044l0,0a8.826,8.826,0,0,0-1.211,2.428,4.317,4.317,0,0,0,.367,3.2,20.865,20.865,0,0,0,1.583,2.379l0,0,.009.012c.293.395.546.736.733,1.048A9.817,9.817,0,0,0,23.91,62.7a.183.183,0,0,0-.126.038,12.854,12.854,0,0,0,.19,3.453c.637.571.337.97-.079,1.522a3.116,3.116,0,0,0-.806,2.41,3.148,3.148,0,0,0,1.332,1.983,3.718,3.718,0,0,0,2.064.626,2.147,2.147,0,0,0,1.74-.685,2.064,2.064,0,0,0,.617-1.858,8.924,8.924,0,0,1,.217-2.645Zm10.6,6.6a.434.434,0,0,1,.182.055,1.116,1.116,0,0,0,1.243,1.106h.006c.111,0,.352-.2.524-.367a1.394,1.394,0,0,0,.382-.511,6.71,6.71,0,0,0,.405-2.673c-.023-.241-.034-.424-.042-.572a1.1,1.1,0,0,0-1.175-1.205,1.627,1.627,0,0,0-.242.017.5.5,0,0,0-.089-.008,1.37,1.37,0,0,0-1.025.761v.321a.182.182,0,0,0-.06-.011.136.136,0,0,0-.03,0,.469.469,0,0,0-.109-.012.463.463,0,0,0-.076.006V70.75a1.372,1.372,0,0,0-1.025-.761.505.505,0,0,0-.089.008,1.645,1.645,0,0,0-.242-.017,1.1,1.1,0,0,0-1.175,1.205c-.008.147-.019.33-.042.572a6.753,6.753,0,0,0,.405,2.673,1.391,1.391,0,0,0,.382.511c.173.169.413.366.524.366h.006a1.123,1.123,0,0,0,1.246-1.135.644.644,0,0,1,.091-.023Zm.177,0-.094-.177h0a.516.516,0,0,0,.08-.006c0,.062.005.124.011.184Zm-1.843-6.209a.452.452,0,0,1-.358-.183,4.909,4.909,0,0,1-.773-2.147,12.545,12.545,0,0,1,1.509-3.633c.64-1.124,1.244-1.993,1.269-2.03l.007.009c.3.473,2.92,4.647,2.92,5.654a3.142,3.142,0,0,1-.5,1.537c-.276.455-.595.773-.774.773a.123.123,0,0,1-.059-.014,14.545,14.545,0,0,1-1.517-1.594h0C39.672,66.381,38.686,67.942,37.991,67.942Zm-7.919-4.4h0c-1.986-.532-4.311-2.9-4.058-4.681-.011-1.779.177-2.957,1.17-3.715a16.952,16.952,0,0,0,4.09-1.364,5.317,5.317,0,0,1,1.572-.549,31.376,31.376,0,0,0,5.092,1.913,1.306,1.306,0,0,1,.111,1.006,5.718,5.718,0,0,1-2.2,2.945,29.3,29.3,0,0,0-1.652,2.431l0,.006,0,.006a4.126,4.126,0,0,1-1.373,1.632A5.936,5.936,0,0,1,30.072,63.544Zm19.211-.016h0a5.935,5.935,0,0,1-2.742-.371,4.119,4.119,0,0,1-1.373-1.632,29.385,29.385,0,0,0-1.659-2.443,5.719,5.719,0,0,1-2.2-2.945,1.331,1.331,0,0,1,.111-1.006c.006-.021.016-.046.02-.046,2.447-.858,2.784-1.187,2.965-1.364s.224-.219,2.107-.5a5.317,5.317,0,0,1,1.572.549,16.947,16.947,0,0,0,4.09,1.364c.993.759,1.181,1.937,1.17,3.716.253,1.784-2.072,4.149-4.058,4.681Z" fill="#ff8282"/>
</svg>
