<?xml version="1.0" encoding="UTF-8" standalone="no"?>
<!DOCTYPE svg PUBLIC "-//W3C//DTD SVG 1.1//EN" "http://www.w3.org/Graphics/SVG/1.1/DTD/svg11.dtd">
<svg xmlns="http://www.w3.org/2000/svg" version="1.1" viewBox="0.00 0.00 80.00 71.00">
<path fill="#000000" d="
  M 62.07 39.74
  A 0.54 0.54 0.0 0 0 62.66 40.49
  L 72.05 38.76
  A 1.31 1.30 69.9 0 1 73.42 39.40
  L 73.55 39.63
  A 0.64 0.64 0.0 0 1 73.22 40.55
  Q 67.92 42.59 63.34 46.07
  A 0.55 0.55 0.0 0 0 63.57 47.05
  L 69.95 48.19
  A 1.18 1.15 71.1 0 1 70.56 48.50
  Q 71.31 49.23 72.92 49.19
  A 0.58 0.58 0.0 0 1 73.24 50.26
  Q 72.52 50.69 72.10 50.66
  Q 69.69 50.43 66.68 51.48
  A 1.35 0.95 21.1 0 1 66.40 51.55
  L 61.57 52.10
  A 0.89 0.88 -26.8 0 1 60.89 51.88
  Q 58.40 49.61 57.15 47.87
  A 1.76 1.46 67.4 0 1 57.98 45.18
  Q 58.68 45.13 59.68 46.26
  A 0.31 0.31 0.0 0 0 60.06 46.32
  L 60.33 46.18
  A 0.27 0.26 -28.8 0 0 60.44 45.81
  L 55.81 37.80
  A 0.46 0.43 43.5 0 1 55.79 37.42
  L 56.42 35.94
  A 1.06 1.03 -45.8 0 0 56.42 35.11
  Q 54.92 31.69 53.88 29.11
  Q 53.14 27.29 53.96 25.88
  Q 55.26 23.62 55.28 23.53
  C 55.87 21.35 57.50 19.32 58.45 17.35
  Q 59.90 14.34 66.72 0.45
  A 0.35 0.35 0.0 0 1 67.12 0.26
  L 67.45 0.35
  A 0.30 0.29 -73.3 0 1 67.65 0.73
  Q 65.72 6.37 65.14 7.62
  Q 64.45 9.11 64.80 10.19
  A 0.78 0.75 43.6 0 1 64.82 10.61
  L 59.88 29.32
  A 0.49 0.49 0.0 0 0 60.62 29.86
  C 64.55 27.32 68.81 23.91 73.10 20.95
  Q 75.99 18.95 78.65 16.05
  A 0.39 0.39 0.0 0 1 79.28 16.12
  L 79.47 16.46
  A 1.28 1.27 55.7 0 1 79.17 18.09
  Q 75.43 21.07 72.47 25.71
  Q 72.45 25.75 70.33 28.11
  Q 66.64 32.24 64.98 35.48
  A 3.59 3.56 81.0 0 1 64.31 36.41
  Q 62.93 37.83 62.07 39.74
  Z
  M 66.80 29.78
  Q 66.67 29.73 66.43 29.77
  A 0.20 0.19 -51.0 0 0 66.46 30.16
  Q 66.49 30.16 66.81 29.97
  A 0.11 0.10 -48.7 0 0 66.80 29.78
  Z
  M 62.34 32.33
  Q 62.24 32.80 62.51 32.95
  A 0.63 0.51 -3.4 0 0 63.35 32.18
  Q 63.25 32.08 62.89 31.99
  A 0.45 0.44 -76.4 0 0 62.34 32.33
  Z
  M 63.59 49.29
  A 0.18 0.18 0.0 0 0 63.48 49.63
  Q 63.54 49.66 63.63 49.48
  Q 63.72 49.31 63.59 49.29
  Z"
/>
<path fill="#000000" d="
  M 0.00 21.60
  L 0.00 19.29
  Q 0.25 17.48 1.77 15.95
  A 0.79 0.79 0.0 0 1 3.12 16.58
  L 2.82 19.67
  A 0.73 0.73 0.0 0 0 3.03 20.27
  L 5.69 22.93
  A 1.37 1.37 0.0 0 0 7.84 21.28
  L 5.85 17.83
  A 0.89 0.87 41.8 0 1 5.80 17.03
  L 6.87 14.54
  A 0.54 0.54 0.0 0 1 7.23 14.22
  Q 8.06 13.97 8.18 13.37
  A 0.37 0.36 -9.1 0 0 7.64 12.98
  L 7.29 13.18
  A 0.29 0.28 -12.7 0 1 6.86 12.91
  L 6.98 11.70
  A 0.81 0.78 -60.6 0 0 6.84 11.16
  Q 4.91 8.32 7.10 5.30
  A 0.44 0.44 0.0 0 1 7.90 5.55
  C 7.92 8.60 9.46 9.36 10.53 11.54
  A 1.81 1.79 73.6 0 0 12.34 12.54
  L 12.61 12.51
  A 0.71 0.71 0.0 0 0 13.14 11.45
  L 10.20 6.37
  A 0.29 0.29 0.0 0 1 10.31 5.98
  L 10.58 5.82
  A 0.42 0.42 0.0 0 1 11.15 5.97
  Q 12.37 8.00 13.37 8.90
  C 15.10 10.45 15.73 12.71 14.10 14.70
  A 0.77 0.76 -57.9 0 1 13.21 14.91
  L 12.29 14.52
  A 0.33 0.33 0.0 0 0 11.83 14.82
  Q 11.81 16.09 13.00 16.34
  Q 13.78 16.51 16.17 16.81
  A 1.66 1.64 70.3 0 1 17.09 17.25
  Q 19.31 19.35 18.94 21.68
  A 1.67 1.60 -17.9 0 1 18.45 22.59
  Q 17.65 23.34 17.58 24.31
  A 0.94 0.86 35.0 0 0 17.69 24.81
  L 19.59 28.10
  A 1.75 1.73 35.7 0 1 19.79 29.29
  Q 19.41 31.18 17.04 31.17
  A 0.61 0.61 0.0 0 0 16.46 31.98
  Q 16.71 32.74 17.67 33.17
  A 0.39 0.39 0.0 0 1 17.67 33.88
  Q 16.90 34.22 16.24 35.06
  A 0.57 0.57 0.0 0 0 16.37 35.89
  Q 17.39 36.58 18.38 36.81
  A 0.40 0.40 0.0 0 1 18.61 37.43
  Q 17.52 38.91 16.11 38.81
  C 14.14 38.68 12.29 38.75 10.54 38.42
  A 0.23 0.22 -14.0 0 0 10.32 38.78
  C 11.84 40.67 13.05 42.58 16.11 40.10
  A 0.28 0.28 0.0 0 1 16.55 40.40
  Q 16.52 40.49 14.75 43.28
  A 0.76 0.75 21.3 0 1 13.98 43.61
  Q 10.57 42.97 9.63 40.57
  A 1.64 1.60 2.8 0 0 8.82 39.70
  Q 4.40 37.53 3.09 32.37
  A 0.87 0.78 41.8 0 1 3.07 32.19
  L 2.95 25.66
  A 1.91 1.89 15.8 0 0 2.06 24.09
  Q 0.82 23.32 0.00 21.60
  Z
  M 7.25 36.50
  Q 7.48 36.36 7.28 35.55
  Q 7.15 34.99 6.54 34.84
  Q 6.04 34.71 5.88 35.37
  A 0.99 0.92 82.6 0 0 7.25 36.50
  Z
  M 8.14 37.61
  Q 8.19 37.67 8.34 37.79
  A 0.17 0.17 0.0 0 0 8.60 37.57
  Q 8.45 37.29 8.31 37.27
  A 0.20 0.20 0.0 0 0 8.14 37.61
  Z"
/>
<path fill="#000000" d="
  M 23.94 13.33
  Q 24.17 13.50 24.41 13.85
  C 25.82 15.91 28.67 19.92 30.84 17.57
  A 0.74 0.72 31.4 0 1 31.64 17.39
  Q 33.26 18.03 33.76 19.49
  Q 34.60 21.90 33.29 23.17
  Q 31.96 24.44 29.76 23.94
  C 26.60 23.22 25.53 21.59 22.92 19.29
  A 3.20 3.10 5.4 0 1 22.34 18.61
  Q 18.48 12.44 21.46 5.69
  A 0.70 0.70 0.0 0 1 22.80 5.90
  L 23.53 12.63
  A 1.00 0.96 -76.6 0 0 23.94 13.33
  Z"
/>
<path fill="#000000" d="
  M 47.56 17.97
  Q 48.32 16.58 50.19 15.03
  A 2.82 2.82 0.0 0 0 51.06 13.74
  L 52.72 8.66
  A 1.26 1.23 46.5 0 0 52.73 7.89
  Q 52.44 6.90 52.79 6.44
  A 0.54 0.54 0.0 0 1 53.67 6.46
  Q 56.02 10.01 54.68 14.52
  A 0.66 0.66 0.0 0 0 54.68 14.94
  Q 55.00 16.05 53.71 17.67
  C 51.34 20.62 48.64 24.04 44.77 24.23
  A 3.01 2.91 79.7 0 1 41.81 22.10
  Q 40.88 19.05 43.48 17.59
  A 0.93 0.92 46.1 0 1 44.41 17.61
  Q 45.14 18.05 46.82 18.33
  A 0.72 0.71 18.7 0 0 47.56 17.97
  Z"
/>
<path fill="#000000" d="
  M 40.55 17.15
  A 0.26 0.26 0.0 0 1 40.81 17.40
  L 40.82 19.20
  A 3.52 1.77 89.7 0 1 39.06 22.73
  L 36.82 22.75
  A 3.52 1.77 89.7 0 1 35.04 19.24
  L 35.03 17.44
  A 0.26 0.26 0.0 0 1 35.29 17.17
  L 40.55 17.15
  Z"
/>
<path fill="#000000" d="
  M 28.32 47.01
  Q 29.63 46.97 29.71 47.86
  A 0.86 0.85 10.1 0 0 30.21 48.57
  Q 32.14 49.44 33.41 49.35
  A 1.46 1.44 59.3 0 1 34.33 49.59
  Q 35.57 50.44 37.66 50.14
  Q 38.90 49.96 43.39 48.99
  A 0.87 0.71 17.0 0 0 43.61 48.90
  L 46.92 46.82
  A 0.64 0.63 40.6 0 0 46.83 45.70
  L 43.76 44.38
  A 0.46 0.45 34.5 0 1 43.62 43.64
  L 44.00 43.26
  A 0.76 0.74 33.8 0 1 44.84 43.10
  L 45.82 43.52
  A 0.68 0.67 22.9 0 0 46.70 43.17
  L 51.35 32.34
  A 0.72 0.71 -74.6 0 0 50.79 31.34
  Q 50.12 31.24 49.42 30.35
  A 0.38 0.37 -52.7 0 0 48.78 30.44
  L 48.55 30.96
  A 0.06 0.03 48.6 0 0 48.56 31.01
  Q 50.05 32.86 49.93 34.63
  A 1.83 1.77 -25.7 0 1 49.57 35.61
  Q 47.99 37.73 45.35 36.48
  A 1.17 1.15 39.3 0 0 44.15 36.59
  Q 43.35 37.19 42.38 35.82
  A 0.19 0.19 0.0 0 0 42.04 35.93
  Q 41.95 37.79 40.51 38.69
  A 1.16 1.12 -60.9 0 1 39.95 38.86
  Q 39.18 38.90 38.80 39.61
  A 0.83 0.83 0.0 0 1 37.93 40.04
  Q 35.63 39.67 33.68 38.07
  A 1.29 1.29 0.0 0 1 34.91 35.85
  L 35.18 35.94
  A 0.45 0.45 0.0 0 0 35.77 35.51
  Q 35.80 35.16 35.75 34.07
  Q 35.64 31.44 38.90 32.16
  A 1.15 1.06 25.9 0 1 39.60 33.94
  Q 39.03 34.58 39.10 35.77
  A 0.28 0.28 0.0 0 0 39.65 35.84
  Q 40.46 33.39 42.99 33.83
  A 1.29 1.28 -66.8 0 0 44.23 33.33
  C 45.77 31.28 47.16 29.98 45.85 27.65
  A 1.65 1.64 -29.9 0 1 46.46 25.41
  L 49.28 23.78
  A 1.67 1.66 -13.9 0 1 51.78 25.28
  C 51.66 28.54 53.17 30.32 54.78 33.36
  A 0.39 0.38 -11.7 0 1 54.41 33.92
  Q 53.98 33.88 53.47 33.58
  A 0.65 0.65 0.0 0 0 52.57 34.46
  L 57.78 43.48
  A 0.21 0.21 0.0 0 1 57.51 43.78
  L 55.31 42.84
  A 0.29 0.28 8.5 0 0 54.91 43.13
  Q 55.28 46.08 56.92 48.85
  Q 58.31 51.18 58.70 51.59
  Q 59.98 52.97 60.45 53.64
  A 0.64 0.63 57.8 0 1 60.25 54.55
  L 59.76 54.83
  A 0.73 0.72 66.2 0 0 59.44 55.67
  Q 60.54 59.15 59.79 60.63
  Q 57.18 65.85 51.56 68.27
  Q 49.90 68.98 47.31 68.91
  A 0.48 0.42 35.0 0 0 47.12 68.93
  L 42.28 70.18
  A 0.15 0.15 0.0 0 1 42.13 69.94
  Q 42.96 68.93 43.36 68.84
  Q 49.84 67.28 52.82 61.39
  A 0.60 0.59 25.2 0 1 53.59 61.12
  L 53.84 61.22
  A 0.34 0.34 0.0 0 1 54.01 61.68
  Q 52.73 64.46 50.08 66.59
  A 0.32 0.32 0.0 0 0 50.16 67.14
  Q 50.41 67.24 50.68 67.17
  Q 56.36 65.50 58.38 59.96
  C 59.35 57.31 58.15 52.51 54.51 52.63
  A 0.76 0.75 -6.2 0 0 53.79 53.52
  L 54.00 54.69
  A 0.41 0.41 0.0 0 1 53.62 55.18
  Q 52.67 55.25 52.50 53.37
  A 1.67 1.60 -70.3 0 0 52.06 52.38
  Q 48.71 48.81 43.91 51.25
  A 0.31 0.31 0.0 0 0 43.88 51.78
  Q 48.91 55.17 46.87 61.09
  A 2.09 2.03 -16.1 0 1 46.46 61.81
  Q 45.57 62.86 45.25 63.55
  A 0.53 0.53 0.0 0 0 46.10 64.15
  L 49.16 61.09
  A 0.45 0.45 0.0 0 1 49.85 61.65
  L 48.14 64.28
  A 0.92 0.88 -87.6 0 1 47.83 64.58
  L 43.72 66.95
  A 0.30 0.30 0.0 0 1 43.31 66.84
  L 42.19 64.89
  A 0.57 0.57 0.0 0 1 42.35 64.14
  Q 46.76 60.94 46.15 56.38
  A 3.33 3.23 -62.5 0 0 45.86 55.41
  Q 44.60 52.71 40.61 53.74
  A 0.50 0.50 0.0 0 0 40.29 54.45
  C 40.94 55.75 41.93 57.53 40.43 58.70
  A 0.36 0.36 0.0 0 1 39.85 58.41
  Q 39.90 54.84 37.28 52.72
  A 2.75 2.66 -15.9 0 0 36.33 52.21
  Q 30.63 50.48 25.63 53.90
  Q 24.03 55.00 23.87 56.91
  A 0.62 0.61 24.2 0 1 22.83 57.30
  Q 21.73 56.23 21.94 54.83
  A 0.66 0.66 0.0 0 0 21.17 54.08
  L 20.64 54.17
  A 0.86 0.84 -16.3 0 1 19.69 53.66
  C 18.47 50.74 16.98 47.69 19.28 45.46
  Q 20.02 44.73 20.04 44.48
  Q 20.08 44.07 19.82 43.15
  A 0.39 0.39 0.0 0 0 19.19 42.96
  Q 18.54 43.52 18.26 43.50
  A 0.54 0.54 0.0 0 1 17.78 42.83
  Q 18.24 41.05 19.44 40.22
  C 21.01 39.13 21.34 37.03 22.31 34.49
  A 0.75 0.75 0.0 0 0 21.96 33.55
  Q 21.71 33.43 21.17 33.57
  A 0.33 0.33 0.0 0 1 20.79 33.12
  L 24.54 24.38
  A 0.91 0.90 -53.9 0 1 26.05 24.14
  L 26.59 24.77
  A 0.35 0.35 0.0 0 0 26.88 24.87
  Q 27.73 24.78 29.42 25.81
  A 0.70 0.69 -66.9 0 1 29.73 26.59
  C 28.78 30.00 26.90 28.73 25.22 30.51
  Q 23.26 32.60 24.71 35.52
  A 2.65 2.61 -82.1 0 0 25.26 36.26
  Q 27.08 37.88 28.04 40.78
  A 1.54 1.52 41.3 0 1 28.09 41.49
  Q 27.92 42.36 28.37 43.43
  A 0.53 0.52 -25.7 0 0 29.11 43.68
  Q 30.19 43.05 31.12 42.83
  A 0.72 0.72 0.0 0 1 31.65 44.15
  L 28.09 46.21
  A 0.43 0.43 0.0 0 0 28.32 47.01
  Z
  M 26.37 44.78
  Q 26.02 44.72 25.86 44.83
  A 0.15 0.15 0.0 0 0 25.91 45.11
  Q 26.10 45.16 26.39 45.07
  A 0.15 0.15 0.0 0 0 26.37 44.78
  Z
  M 23.87 45.80
  Q 23.96 45.83 24.44 45.70
  A 0.27 0.27 0.0 0 0 24.41 45.17
  Q 24.23 45.15 23.83 45.37
  A 0.24 0.23 -50.9 0 0 23.87 45.80
  Z
  M 42.95 52.95
  Q 43.42 53.00 43.45 52.97
  A 0.74 0.74 0.0 0 0 42.66 51.89
  Q 42.47 51.92 42.42 52.05
  A 0.65 0.65 0.0 0 0 42.95 52.95
  Z"
/>
<path fill="#000000" d="
  M 37.17 30.36
  Q 37.08 30.44 37.02 30.50
  A 1.12 1.12 0.0 0 1 35.14 29.35
  L 36.08 27.03
  A 0.36 0.36 0.0 0 1 36.68 26.93
  Q 37.44 27.80 38.12 27.48
  A 0.93 0.92 49.5 0 1 39.06 27.56
  Q 40.68 28.73 40.36 30.31
  A 0.92 0.89 89.1 0 1 39.71 31.00
  Q 38.63 31.30 37.89 30.41
  A 0.50 0.50 0.0 0 0 37.17 30.36
  Z"
/>
<path fill="#000000" d="
  M 33.57 35.16
  L 31.71 36.24
  A 0.49 0.49 0.0 0 1 31.07 36.11
  Q 30.23 35.01 28.89 36.10
  A 1.94 1.75 67.3 0 1 26.00 34.74
  Q 25.67 32.75 26.54 31.48
  A 1.39 1.35 -44.0 0 1 28.85 31.49
  Q 30.47 34.16 33.35 34.26
  A 0.48 0.48 0.0 0 1 33.57 35.16
  Z"
/>
<path fill="#000000" d="
  M 33.51 32.37
  A 0.64 0.61 -30.1 0 1 32.37 32.10
  Q 32.35 31.74 32.80 31.37
  A 0.56 0.52 -23.8 0 1 33.69 31.68
  Q 33.74 32.06 33.51 32.37
  Z"
/>
<path fill="#000000" d="
  M 41.89 32.59
  Q 41.69 32.48 41.90 31.54
  Q 41.98 31.21 42.30 31.15
  Q 42.70 31.07 42.80 31.33
  A 0.94 0.71 88.7 0 1 41.89 32.59
  Z"
/>
<path fill="#000000" d="
  M 40.42 42.59
  Q 41.27 40.76 43.06 39.83
  A 0.69 0.68 -83.1 0 1 43.89 40.89
  Q 43.33 41.53 40.81 42.95
  A 0.28 0.28 0.0 0 1 40.42 42.59
  Z"
/>
<path fill="#000000" d="
  M 34.64 42.61
  Q 34.21 43.13 33.69 42.68
  Q 31.51 40.80 31.89 40.34
  Q 32.27 39.88 34.53 41.66
  Q 35.07 42.09 34.64 42.61
  Z"
/>
<path fill="#000000" d="
  M 43.48 46.03
  A 0.59 0.59 0.0 0 1 43.15 47.04
  Q 40.60 47.35 38.64 48.45
  A 1.25 1.24 -51.5 0 1 37.72 48.56
  L 32.18 47.10
  A 0.76 0.76 0.0 0 1 31.85 45.81
  Q 37.56 40.37 43.48 46.03
  Z"
/>
<path fill="#000000" d="
  M 13.35 47.30
  A 0.32 0.32 0.0 0 1 13.71 47.82
  Q 11.44 50.30 11.47 54.12
  A 0.72 0.72 0.0 0 0 12.85 54.39
  L 15.11 49.13
  A 0.53 0.52 -38.5 0 1 16.11 49.24
  Q 16.25 50.05 15.50 50.74
  A 1.61 1.60 75.1 0 0 15.04 51.54
  Q 13.24 59.74 19.95 63.24
  A 0.97 0.95 -74.3 0 1 20.46 64.17
  Q 20.44 64.54 20.15 64.87
  Q 19.80 65.27 19.97 65.73
  Q 20.26 66.54 20.45 67.26
  A 0.42 0.42 0.0 0 1 19.88 67.75
  L 19.29 67.50
  A 0.35 0.35 0.0 0 1 19.08 67.18
  L 19.08 65.39
  A 1.60 1.59 26.4 0 0 18.75 64.42
  Q 15.79 60.59 12.74 59.67
  A 0.90 0.89 9.6 0 1 12.10 58.78
  Q 12.20 56.56 10.87 56.07
  A 1.78 1.76 15.6 0 0 8.51 57.38
  Q 8.22 58.98 8.46 60.03
  A 0.58 0.57 22.6 0 1 7.41 60.46
  Q 6.59 59.12 7.08 56.90
  A 1.33 1.32 -11.2 0 1 7.63 56.08
  Q 9.68 54.72 10.01 52.69
  C 10.39 50.38 11.39 48.09 13.35 47.30
  Z"
/>
<path fill="#000000" d="
  M 17.18 53.46
  L 17.11 54.24
  A 1.23 1.21 23.0 0 0 17.55 55.31
  Q 19.84 57.18 21.91 61.06
  A 1.69 1.65 82.1 0 0 23.00 61.90
  Q 25.47 62.49 27.26 63.81
  Q 28.37 64.64 29.34 64.47
  Q 30.44 64.27 30.96 64.79
  A 1.27 1.26 66.4 0 0 31.90 65.16
  Q 33.10 65.10 37.16 65.25
  A 0.76 0.76 0.0 0 1 37.89 66.08
  Q 37.84 66.52 37.44 66.66
  Q 34.29 67.76 30.61 66.17
  A 0.30 0.29 -66.1 0 0 30.23 66.32
  L 30.12 66.59
  A 0.19 0.19 0.0 0 0 30.18 66.82
  L 32.75 68.49
  A 2.37 2.31 63.5 0 0 33.84 68.87
  L 40.47 69.52
  A 0.31 0.31 0.0 0 1 40.48 70.14
  Q 34.30 71.04 30.32 68.52
  A 2.68 2.07 -48.7 0 0 27.41 69.09
  Q 26.10 70.35 23.88 70.11
  A 0.57 0.57 0.0 0 1 23.37 69.45
  L 23.39 69.32
  A 0.69 0.68 6.5 0 1 24.11 68.75
  Q 26.92 68.94 27.71 66.29
  A 0.81 0.80 20.5 0 0 27.26 65.32
  L 24.55 64.16
  A 1.03 1.01 -51.9 0 0 23.52 64.29
  L 22.96 64.73
  A 0.57 0.56 56.8 0 1 22.12 64.55
  Q 21.57 63.55 21.64 62.67
  A 1.16 1.14 -67.1 0 0 21.26 61.71
  Q 19.73 60.32 18.18 57.30
  A 1.79 1.76 -4.1 0 0 17.15 56.42
  Q 17.12 56.41 16.99 56.38
  A 0.96 0.95 -84.6 0 1 16.24 55.47
  Q 16.21 54.60 15.82 53.79
  A 0.60 0.60 0.0 0 1 16.42 52.94
  L 16.78 52.97
  A 0.44 0.44 0.0 0 1 17.18 53.46
  Z"
/>
<path fill="#000000" d="
  M 32.07 54.96
  Q 33.76 55.07 34.83 56.26
  C 37.56 59.31 33.00 64.08 29.72 63.34
  Q 26.19 62.54 23.45 60.36
  A 0.97 0.97 0.0 0 1 23.19 59.16
  L 23.20 59.14
  A 0.69 0.69 0.0 0 1 24.24 58.91
  Q 28.21 62.00 32.38 61.14
  A 2.53 2.51 84.0 0 0 34.38 58.65
  Q 34.36 56.50 32.16 56.34
  A 0.15 0.14 -13.2 0 1 32.03 56.26
  L 31.66 55.62
  A 0.44 0.44 0.0 0 1 32.07 54.96
  Z"
/>
<path fill="#000000" d="
  M 10.05 61.79
  L 11.84 62.55
  A 0.44 0.44 0.0 0 1 11.64 63.39
  Q 10.16 63.31 9.49 62.56
  A 0.49 0.49 0.0 0 1 10.05 61.79
  Z"
/>
<path fill="#000000" d="
  M 21.78 69.78
  Q 21.73 69.76 21.11 69.24
  A 0.51 0.51 0.0 0 1 21.69 68.40
  Q 21.73 68.42 22.22 69.17
  A 0.40 0.40 0.0 0 1 21.78 69.78
  Z"
/>
</svg>
