<?xml version="1.0" encoding="UTF-8" standalone="no"?>
<!DOCTYPE svg PUBLIC "-//W3C//DTD SVG 1.1//EN" "http://www.w3.org/Graphics/SVG/1.1/DTD/svg11.dtd">
<svg xmlns="http://www.w3.org/2000/svg" version="1.1" viewBox="0.00 0.00 77.00 74.00">
<path fill="#000000" d="
  M 65.26 0.00
  L 65.30 7.06
  A 0.57 0.57 0.0 0 0 65.87 7.62
  L 72.12 7.62
  A 0.35 0.35 0.0 0 1 72.47 7.97
  L 72.47 14.28
  A 0.33 0.33 0.0 0 1 72.14 14.61
  L 65.75 14.61
  A 0.52 0.52 0.0 0 0 65.23 15.13
  L 65.23 20.97
  A 0.66 0.66 0.0 0 1 64.57 21.63
  L 58.89 21.63
  A 0.65 0.65 0.0 0 1 58.24 20.98
  L 58.24 15.13
  A 0.49 0.49 0.0 0 0 57.75 14.64
  L 51.27 14.64
  A 0.29 0.29 0.0 0 1 50.98 14.35
  L 50.98 7.97
  A 0.32 0.31 -90.0 0 1 51.29 7.65
  L 57.54 7.65
  A 0.56 0.56 0.0 0 0 58.10 7.10
  L 58.12 0.00
  L 65.26 0.00
  Z"
/>
<path fill="#000000" d="
  M 54.79 22.55
  Q 54.94 22.69 55.76 22.68
  Q 59.03 22.63 59.94 22.66
  A 0.44 0.44 0.0 0 1 60.37 23.10
  L 60.37 27.59
  A 0.38 0.38 0.0 0 1 59.99 27.97
  L 55.12 27.97
  A 0.50 0.50 0.0 0 0 54.62 28.47
  L 54.62 32.86
  A 0.38 0.38 0.0 0 1 54.24 33.24
  L 49.68 33.24
  A 0.28 0.28 0.0 0 1 49.40 32.96
  Q 49.39 30.74 49.37 28.28
  Q 49.37 28.19 49.28 28.09
  Q 49.19 28.00 49.09 28.00
  Q 46.64 28.00 44.42 28.01
  A 0.28 0.28 0.0 0 1 44.13 27.73
  L 44.10 23.17
  A 0.38 0.38 0.0 0 1 44.48 22.79
  L 48.87 22.76
  A 0.50 0.50 0.0 0 0 49.37 22.26
  L 49.33 17.39
  A 0.38 0.38 0.0 0 1 49.71 17.00
  L 54.20 16.97
  A 0.44 0.44 0.0 0 1 54.64 17.40
  Q 54.68 18.31 54.65 21.58
  Q 54.65 22.41 54.79 22.55
  Z"
/>
<path fill="#000000" d="
  M 0.00 70.04
  L 0.00 67.27
  L 0.41 62.13
  A 0.75 0.74 -87.5 0 1 1.15 61.45
  L 3.32 61.45
  A 0.73 0.72 -70.5 0 0 3.89 61.17
  C 4.55 60.31 5.04 59.96 6.16 59.92
  Q 8.66 59.83 8.71 57.31
  A 1.20 1.16 -19.7 0 1 9.15 56.42
  C 11.75 54.30 14.87 54.01 18.06 54.16
  A 0.48 0.48 0.0 0 0 18.56 53.68
  L 18.56 46.04
  A 5.17 5.12 61.4 0 1 19.36 43.28
  Q 22.70 38.01 27.75 35.71
  A 0.77 0.76 51.8 0 0 27.90 34.41
  L 23.40 30.85
  A 0.92 0.92 0.0 0 1 23.35 29.45
  L 23.65 29.18
  A 1.29 1.29 0.0 0 1 25.32 29.12
  L 31.66 34.13
  A 2.11 2.11 0.0 0 0 33.55 34.50
  C 35.44 33.97 35.34 35.81 36.66 35.96
  Q 37.14 36.01 37.16 36.00
  A 0.43 0.43 0.0 0 0 37.19 35.21
  Q 36.12 34.70 35.93 33.71
  A 0.60 0.59 -11.6 0 1 36.40 33.01
  Q 37.82 32.73 38.54 33.37
  A 0.48 0.48 0.0 0 0 39.29 33.20
  Q 39.29 33.19 39.31 33.12
  A 0.50 0.50 0.0 0 1 39.77 32.73
  Q 47.08 32.20 52.67 35.96
  C 54.58 37.25 56.00 39.61 57.30 40.84
  A 0.36 0.36 0.0 0 0 57.88 40.43
  L 57.23 38.92
  A 0.93 0.92 35.3 0 1 57.15 38.46
  L 57.66 32.30
  A 1.40 1.38 72.3 0 1 58.16 31.32
  Q 60.31 29.48 63.99 30.08
  A 0.96 0.95 84.6 0 1 64.73 30.70
  C 65.29 32.24 66.46 32.84 67.05 34.44
  Q 68.71 39.06 73.38 42.32
  A 1.78 1.76 63.6 0 0 74.26 42.62
  Q 75.00 42.65 75.40 42.84
  A 1.53 1.52 -52.6 0 1 75.73 45.39
  Q 72.40 48.19 70.92 52.64
  Q 70.59 53.61 69.98 58.39
  A 0.83 0.83 0.0 0 1 69.16 59.11
  L 68.83 59.11
  A 0.34 0.34 0.0 0 0 68.62 59.72
  L 69.43 60.36
  A 1.04 1.04 0.0 0 1 68.66 62.20
  Q 66.47 61.92 65.68 62.19
  A 2.08 2.08 0.0 0 1 63.11 61.05
  L 59.32 52.29
  A 0.42 0.42 0.0 0 0 58.52 52.42
  L 58.41 53.76
  A 1.29 1.27 -56.4 0 0 58.54 54.44
  L 60.60 58.59
  A 0.63 0.56 -86.8 0 0 60.76 58.79
  Q 62.08 59.86 63.18 62.81
  A 0.64 0.63 65.8 0 1 62.89 63.59
  Q 62.87 63.60 62.61 63.73
  A 0.57 0.57 0.0 0 0 62.54 64.71
  Q 64.84 66.33 66.76 66.52
  A 1.29 1.28 5.4 0 1 67.91 67.91
  Q 67.72 70.13 66.14 69.93
  Q 65.64 69.87 65.45 69.65
  Q 65.30 69.46 65.20 69.34
  A 0.80 0.80 0.0 0 0 63.98 69.38
  L 63.62 69.84
  A 0.55 0.54 25.3 0 1 63.08 70.03
  C 60.88 69.52 61.15 67.27 59.67 66.11
  A 1.72 1.63 65.0 0 0 58.78 65.76
  L 55.12 65.46
  A 1.74 1.70 -24.3 0 1 54.27 65.15
  L 51.60 63.27
  A 0.49 0.48 29.0 0 0 50.87 63.47
  Q 49.89 65.76 50.93 66.85
  Q 53.09 69.12 54.82 70.85
  A 1.27 1.26 55.4 0 1 54.45 72.90
  Q 51.71 74.13 49.61 73.08
  A 1.09 1.09 0.0 0 1 49.14 72.61
  L 47.42 69.23
  A 1.41 1.21 -85.5 0 0 47.26 69.01
  Q 46.09 67.71 44.24 68.73
  Q 43.31 69.25 42.52 67.73
  A 0.08 0.07 -60.0 0 0 42.38 67.77
  Q 42.38 68.41 42.28 68.54
  Q 42.03 68.88 41.63 68.88
  Q 35.63 68.91 34.81 68.82
  A 1.56 1.54 70.6 0 1 33.87 68.36
  Q 32.86 67.33 31.85 66.88
  A 0.84 0.83 28.9 0 0 30.82 67.17
  C 27.41 72.19 23.17 71.95 16.94 72.24
  Q 14.01 72.38 9.29 72.48
  A 0.68 0.68 0.0 0 1 8.60 71.80
  L 8.62 64.95
  A 0.73 0.73 0.0 0 0 7.53 64.32
  L 7.45 64.37
  A 2.07 2.07 0.0 0 0 6.40 66.10
  Q 6.31 68.23 5.84 70.41
  A 1.40 1.24 -67.9 0 1 3.88 71.38
  Q 3.11 70.85 3.43 69.48
  A 0.46 0.46 0.0 0 0 2.58 69.15
  Q 1.50 71.02 0.00 70.04
  Z
  M 34.69 39.07
  Q 35.25 38.99 35.36 38.87
  A 0.37 0.37 0.0 0 0 34.97 38.27
  Q 34.90 38.30 34.50 38.62
  A 0.26 0.25 -68.4 0 0 34.69 39.07
  Z
  M 41.05 38.84
  Q 40.99 39.40 41.13 39.65
  A 0.73 0.64 -31.8 0 0 42.12 39.82
  Q 42.51 39.57 42.43 39.02
  Q 42.36 38.52 41.91 38.35
  A 0.65 0.61 13.3 0 0 41.05 38.84
  Z
  M 38.63 43.05
  Q 38.40 42.38 38.35 42.33
  A 0.28 0.28 0.0 0 0 37.87 42.50
  Q 37.84 42.91 38.26 43.29
  A 0.23 0.23 0.0 0 0 38.63 43.05
  Z
  M 71.3398 43.4818
  A 0.95 0.64 -1.1 0 0 70.3777 42.8601
  A 0.95 0.64 -1.1 0 0 69.4402 43.5182
  A 0.95 0.64 -1.1 0 0 70.4023 44.1399
  A 0.95 0.64 -1.1 0 0 71.3398 43.4818
  Z
  M 54.91 47.22
  Q 55.14 48.06 55.22 48.81
  A 0.32 0.32 0.0 0 0 55.81 48.95
  Q 56.54 47.77 56.28 46.84
  Q 56.03 45.91 54.81 45.27
  A 0.32 0.32 0.0 0 0 54.37 45.69
  Q 54.68 46.38 54.91 47.22
  Z
  M 66.60 46.30
  Q 67.05 45.89 67.11 45.60
  A 0.24 0.23 -11.8 0 0 66.74 45.37
  Q 66.45 45.58 66.25 46.06
  A 0.22 0.22 0.0 0 0 66.60 46.30
  Z
  M 36.2390 46.0884
  A 0.85 0.76 -127.8 0 0 36.1595 47.2258
  A 0.85 0.76 -127.8 0 0 37.2810 47.4316
  A 0.85 0.76 -127.8 0 0 37.3605 46.2942
  A 0.85 0.76 -127.8 0 0 36.2390 46.0884
  Z
  M 65.53 49.90
  L 63.65 55.13
  A 0.11 0.11 0.0 0 0 63.72 55.28
  L 63.75 55.29
  A 2.72 1.18 -70.3 0 0 65.77 53.12
  L 65.89 52.80
  A 2.72 1.18 -70.3 0 0 65.69 49.84
  L 65.67 49.83
  A 0.11 0.11 0.0 0 0 65.53 49.90
  Z
  M 51.09 51.65
  Q 52.35 52.56 53.69 52.47
  Q 55.24 52.37 55.01 50.80
  A 0.44 0.44 0.0 0 0 54.34 50.49
  Q 52.49 51.60 51.21 51.35
  A 0.17 0.16 67.4 0 0 51.09 51.65
  Z
  M 44.81 54.00
  A 1.84 1.38 31.0 0 0 44.01 52.03
  Q 42.58 51.06 41.61 52.28
  A 0.39 0.39 0.0 0 0 41.88 52.91
  L 43.43 53.03
  A 1.24 1.22 73.8 0 1 44.30 53.52
  Q 44.75 54.12 44.81 54.00
  Z
  M 28.2927 53.0703
  A 0.93 0.66 -88.6 0 0 27.6102 53.9839
  A 0.93 0.66 -88.6 0 0 28.2473 54.9297
  A 0.93 0.66 -88.6 0 0 28.9298 54.0161
  A 0.93 0.66 -88.6 0 0 28.2927 53.0703
  Z
  M 34.1874 54.0248
  A 0.47 0.24 -40.5 0 0 33.6741 54.1475
  A 0.47 0.24 -40.5 0 0 33.4726 54.6352
  A 0.47 0.24 -40.5 0 0 33.9859 54.5125
  A 0.47 0.24 -40.5 0 0 34.1874 54.0248
  Z
  M 36.76 55.20
  C 38.09 56.66 37.21 58.08 35.53 58.70
  A 0.26 0.26 0.0 0 0 35.38 59.05
  L 35.50 59.34
  A 0.30 0.29 71.2 0 0 35.84 59.51
  Q 38.37 58.87 38.69 57.19
  Q 39.10 55.07 37.10 54.62
  A 0.35 0.35 0.0 0 0 36.76 55.20
  Z
  M 54.77 56.68
  Q 54.60 56.14 54.15 56.21
  A 0.28 0.28 0.0 0 0 53.91 56.54
  Q 53.97 56.88 54.22 57.06
  A 0.35 0.35 0.0 0 0 54.77 56.68
  Z
  M 27.66 59.15
  L 29.36 58.77
  A 0.62 0.61 -20.5 0 1 30.02 59.07
  Q 30.36 59.67 31.09 59.22
  A 0.85 0.84 48.0 0 1 32.06 59.28
  L 33.25 60.22
  A 0.52 0.52 0.0 0 0 33.94 59.44
  L 31.32 56.82
  A 0.54 0.54 0.0 0 0 30.72 56.71
  L 27.34 58.17
  A 0.52 0.52 0.0 0 0 27.66 59.15
  Z
  M 42.1484 58.9954
  A 0.96 0.74 -120.8 0 0 42.0044 60.1989
  A 0.96 0.74 -120.8 0 0 43.1316 60.6446
  A 0.96 0.74 -120.8 0 0 43.2756 59.4411
  A 0.96 0.74 -120.8 0 0 42.1484 58.9954
  Z
  M 20.80 63.42
  A 0.85 0.85 0.0 0 0 22.34 63.32
  Q 22.43 63.11 22.27 62.83
  A 0.87 0.79 37.0 0 0 20.71 62.97
  Q 20.67 63.19 20.80 63.42
  Z
  M 43.60 64.31
  Q 43.63 64.25 43.13 63.65
  Q 42.72 63.17 42.37 63.39
  Q 41.86 63.72 41.84 64.16
  A 0.94 0.84 -37.2 0 0 43.60 64.31
  Z
  M 33.48 64.18
  Q 32.89 64.61 33.23 65.20
  Q 33.59 65.81 33.96 65.66
  A 0.90 0.78 -38.7 0 0 34.23 64.19
  Q 33.82 63.94 33.48 64.18
  Z
  M 3.68 65.14
  A 0.40 0.40 0.0 0 0 3.00 64.95
  Q 2.20 65.81 2.75 66.53
  A 0.52 0.51 37.3 0 0 3.63 66.42
  Q 3.84 65.89 3.68 65.14
  Z
  M 21.71 66.57
  Q 21.37 66.92 20.58 67.18
  A 0.43 0.43 0.0 0 0 20.56 67.99
  Q 21.73 68.47 22.67 67.50
  Q 23.60 66.53 23.08 65.37
  A 0.43 0.43 0.0 0 0 22.27 65.43
  Q 22.04 66.22 21.71 66.57
  Z"
/>
</svg>
