<?xml version="1.0" encoding="UTF-8" standalone="no"?>
<!DOCTYPE svg PUBLIC "-//W3C//DTD SVG 1.1//EN" "http://www.w3.org/Graphics/SVG/1.1/DTD/svg11.dtd">
<svg xmlns="http://www.w3.org/2000/svg" version="1.1" viewBox="0.00 0.00 75.00 67.00">
<g stroke-width="2.00" fill="none" stroke-linecap="butt">
<path stroke="#192d21" stroke-opacity="0.875" vector-effect="non-scaling-stroke" d="
  M 48.64 34.41
  Q 46.47 32.39 43.75 31.59"
/>
<path stroke="#657966" stroke-opacity="0.875" vector-effect="non-scaling-stroke" d="
  M 43.75 31.59
  Q 42.07 30.51 39.65 30.32"
/>
<path stroke="#657966" stroke-opacity="0.875" vector-effect="non-scaling-stroke" d="
  M 38.55 29.95
  Q 36.70 30.70 34.80 30.57
  Q 34.61 30.56 34.67 30.27"
/>
<path stroke="#657966" stroke-opacity="0.875" vector-effect="non-scaling-stroke" d="
  M 34.12 29.76
  Q 33.68 30.80 32.48 31.29"
/>
<path stroke="#6a7f6a" stroke-opacity="0.890" vector-effect="non-scaling-stroke" d="
  M 32.48 31.29
  Q 28.36 33.50 24.88 37.13
  A 2.12 2.04 -10.2 0 0 24.49 37.67
  C 23.00 40.53 21.24 43.81 22.11 46.82
  A 0.65 0.65 0.0 0 0 23.37 46.78
  L 24.11 43.59
  A 0.36 0.36 0.0 0 1 24.77 43.47
  L 24.93 43.71"
/>
<path stroke="#1f3326" stroke-opacity="0.890" vector-effect="non-scaling-stroke" d="
  M 24.93 43.71
  Q 25.18 44.06 25.18 44.56
  A 1.55 1.51 62.1 0 1 24.92 45.45
  Q 21.81 50.02 25.37 54.24
  A 0.21 0.21 0.0 0 1 25.09 54.54
  Q 24.16 53.85 23.19 54.05"
/>
<path stroke="#6a7f6a" stroke-opacity="0.890" vector-effect="non-scaling-stroke" d="
  M 39.65 30.32
  Q 39.13 30.32 38.55 29.95"
/>
<path stroke="#6a7f6a" stroke-opacity="0.890" vector-effect="non-scaling-stroke" d="
  M 34.67 30.27
  L 34.12 29.76"
/>
<path stroke="#1f3326" stroke-opacity="0.890" vector-effect="non-scaling-stroke" d="
  M 48.80 34.21
  Q 48.72 34.31 48.64 34.41"
/>
<path stroke="#43433d" vector-effect="non-scaling-stroke" d="
  M 43.75 31.59
  L 36.37 34.94
  A 7.01 6.86 -80.8 0 0 34.03 36.67
  C 31.97 39.02 29.49 42.56 25.88 42.90
  A 0.96 0.94 -67.9 0 0 25.35 43.13
  Q 25.09 43.37 24.93 43.71"
/>
<path stroke="#323c35" stroke-opacity="0.914" vector-effect="non-scaling-stroke" d="
  M 48.80 34.21
  Q 49.15 36.05 48.26 36.94
  A 0.63 0.63 0.0 0 0 48.91 37.98
  Q 49.69 37.71 50.43 37.96
  A 0.67 0.66 9.1 0 1 50.89 38.59
  L 50.89 44.82
  A 1.72 1.69 24.5 0 0 51.33 45.96
  Q 54.41 49.34 51.23 53.58
  A 0.35 0.33 65.8 0 0 51.16 53.79
  L 51.16 54.26
  A 0.22 0.22 0.0 0 0 51.54 54.41
  Q 52.59 53.30 54.03 54.70"
/>
</g>
<path fill="#3a684d" fill-opacity="0.749" d="
  M 27.24 0.00
  Q 31.84 0.64 35.46 3.49
  A 1.94 1.86 -88.8 0 1 35.90 3.97
  L 37.02 5.71
  A 0.68 0.68 0.0 0 0 38.10 5.79
  Q 46.34 -3.49 57.74 2.78
  Q 59.30 3.64 61.19 6.52
  A 0.62 0.61 -26.0 0 0 61.90 6.76
  L 65.60 5.53
  A 1.28 1.20 40.3 0 1 66.24 5.50
  L 70.08 6.39
  A 1.99 1.91 67.2 0 1 70.75 6.68
  Q 74.38 9.22 75.00 13.34
  L 75.00 18.40
  Q 74.18 21.09 72.18 23.20
  A 1.23 1.21 64.8 0 0 71.85 24.13
  Q 72.26 29.44 67.81 31.33
  Q 62.78 33.46 59.34 28.54
  Q 61.78 27.09 64.46 26.55
  A 0.34 0.33 76.9 0 0 64.71 26.13
  L 64.64 25.85
  A 0.55 0.54 -14.4 0 0 63.99 25.47
  Q 61.20 26.13 57.84 27.24
  Q 57.13 27.47 56.32 26.86
  A 0.28 0.28 0.0 0 0 55.88 27.12
  L 56.66 33.18
  A 0.17 0.16 -4.3 0 1 56.49 33.37
  Q 56.38 33.37 56.24 33.38
  Q 56.00 33.38 55.96 33.77
  Q 55.96 33.80 55.94 34.39
  A 0.28 0.28 0.0 0 1 55.47 34.59
  Q 52.81 32.25 51.92 29.10
  A 0.40 0.40 0.0 0 0 51.25 28.93
  L 48.71 31.46
  A 0.81 0.81 0.0 0 0 49.11 32.82
  L 50.90 33.24
  A 0.69 0.69 0.0 0 1 51.42 34.07
  L 51.17 35.16
  A 0.16 0.15 -58.9 0 1 50.90 35.23
  Q 50.72 35.00 50.91 34.75
  A 0.44 0.43 39.0 0 0 50.84 34.16
  Q 49.73 33.23 48.64 34.41
  Q 46.47 32.39 43.75 31.59
  Q 42.07 30.51 39.65 30.32
  C 42.28 24.73 43.59 21.91 43.65 16.17
  A 0.15 0.14 7.9 0 0 43.54 16.03
  L 43.28 15.97
  A 0.38 0.38 0.0 0 0 42.82 16.30
  Q 41.95 23.52 38.55 29.95
  Q 36.70 30.70 34.80 30.57
  Q 34.61 30.56 34.67 30.27
  C 36.46 27.61 40.78 18.22 37.33 16.58
  A 0.31 0.31 0.0 0 0 36.89 16.88
  Q 37.39 23.83 34.12 29.76
  Q 33.68 30.80 32.48 31.29
  L 31.56 19.21
  A 0.18 0.18 0.0 0 0 31.36 19.05
  L 31.11 19.09
  A 0.36 0.36 0.0 0 0 30.79 19.48
  Q 31.42 26.64 28.89 32.79
  A 0.42 0.41 -34.3 0 1 28.09 32.64
  Q 28.07 28.97 27.61 23.35
  C 26.97 15.55 26.57 10.37 18.79 8.15
  A 0.43 0.43 0.0 0 0 18.35 8.86
  Q 23.41 14.32 22.57 22.24
  A 0.10 0.09 -47.1 0 1 22.38 22.25
  C 21.02 13.59 15.67 8.15 6.54 11.87
  A 1.09 1.08 85.7 0 0 5.90 12.62
  L 4.57 18.41
  A 0.48 0.48 0.0 0 0 4.93 18.99
  L 5.21 19.05
  A 0.40 0.40 0.0 0 0 5.70 18.70
  C 6.45 11.31 15.81 10.07 18.87 16.18
  Q 19.84 18.13 19.08 23.17
  Q 18.38 27.75 17.33 32.27
  L 16.99 28.23
  A 0.32 0.32 0.0 0 0 16.40 28.09
  Q 14.07 31.83 10.75 32.22
  A 3.55 3.55 0.0 0 1 9.91 32.22
  Q 3.14 31.45 3.28 24.03
  A 1.78 1.76 -67.7 0 0 2.73 22.70
  Q -0.10 19.99 0.11 15.14
  C 0.40 8.25 6.30 4.17 12.92 6.62
  A 0.70 0.69 -62.7 0 0 13.75 6.35
  Q 17.76 0.12 25.71 0.00
  L 27.24 0.00
  Z
  M 17.61 6.35
  A 0.49 0.49 0.0 0 0 18.25 6.82
  C 26.38 4.34 29.87 9.47 33.70 15.50
  A 0.52 0.51 -32.9 0 0 34.42 15.65
  L 34.44 15.64
  A 0.50 0.50 0.0 0 0 34.58 14.96
  C 31.74 10.56 29.83 6.60 24.66 5.36
  A 3.67 3.46 -37.9 0 0 23.70 5.27
  L 18.17 5.52
  A 0.58 0.57 -1.0 0 0 17.61 6.09
  L 17.61 6.35
  Z"
/>
<path fill="#477557" fill-opacity="0.780" d="
  M 18.17 5.52
  L 23.70 5.27
  A 3.67 3.46 -37.9 0 1 24.66 5.36
  C 29.83 6.60 31.74 10.56 34.58 14.96
  A 0.50 0.50 0.0 0 1 34.44 15.64
  L 34.42 15.65
  A 0.52 0.51 -32.9 0 1 33.70 15.50
  C 29.87 9.47 26.38 4.34 18.25 6.82
  A 0.49 0.49 0.0 0 1 17.61 6.35
  L 17.61 6.09
  A 0.58 0.57 -1.0 0 1 18.17 5.52
  Z"
/>
<path fill="#477557" fill-opacity="0.780" d="
  M 32.48 31.29
  Q 28.36 33.50 24.88 37.13
  A 2.12 2.04 -10.2 0 0 24.49 37.67
  C 23.00 40.53 21.24 43.81 22.11 46.82
  A 0.65 0.65 0.0 0 0 23.37 46.78
  L 24.11 43.59
  A 0.36 0.36 0.0 0 1 24.77 43.47
  L 24.93 43.71
  Q 25.18 44.06 25.18 44.56
  A 1.55 1.51 62.1 0 1 24.92 45.45
  Q 21.81 50.02 25.37 54.24
  A 0.21 0.21 0.0 0 1 25.09 54.54
  Q 24.16 53.85 23.19 54.05
  L 20.79 55.04
  A 0.85 0.84 54.0 0 1 19.93 54.90
  C 15.76 51.37 14.99 43.77 15.81 38.75
  Q 16.04 37.30 17.33 32.27
  Q 18.38 27.75 19.08 23.17
  Q 19.84 18.13 18.87 16.18
  C 15.81 10.07 6.45 11.31 5.70 18.70
  A 0.40 0.40 0.0 0 1 5.21 19.05
  L 4.93 18.99
  A 0.48 0.48 0.0 0 1 4.57 18.41
  L 5.90 12.62
  A 1.09 1.08 85.7 0 1 6.54 11.87
  C 15.67 8.15 21.02 13.59 22.38 22.25
  A 0.10 0.09 -47.1 0 0 22.57 22.24
  Q 23.41 14.32 18.35 8.86
  A 0.43 0.43 0.0 0 1 18.79 8.15
  C 26.57 10.37 26.97 15.55 27.61 23.35
  Q 28.07 28.97 28.09 32.64
  A 0.42 0.41 -34.3 0 0 28.89 32.79
  Q 31.42 26.64 30.79 19.48
  A 0.36 0.36 0.0 0 1 31.11 19.09
  L 31.36 19.05
  A 0.18 0.18 0.0 0 1 31.56 19.21
  L 32.48 31.29
  Z
  M 22.62 32.69
  L 24.46 33.47
  A 0.25 0.25 0.0 0 0 24.79 33.34
  L 24.84 33.22
  A 7.50 1.10 -67.0 0 0 26.76 25.88
  L 26.48 25.76
  A 7.50 1.10 -67.0 0 0 22.54 32.24
  L 22.49 32.36
  A 0.25 0.25 0.0 0 0 22.62 32.69
  Z"
/>
<path fill="#477557" fill-opacity="0.780" d="
  M 39.65 30.32
  Q 39.13 30.32 38.55 29.95
  Q 41.95 23.52 42.82 16.30
  A 0.38 0.38 0.0 0 1 43.28 15.97
  L 43.54 16.03
  A 0.15 0.14 7.9 0 1 43.65 16.17
  C 43.59 21.91 42.28 24.73 39.65 30.32
  Z"
/>
<path fill="#477557" fill-opacity="0.780" d="
  M 34.67 30.27
  L 34.12 29.76
  Q 37.39 23.83 36.89 16.88
  A 0.31 0.31 0.0 0 1 37.33 16.58
  C 40.78 18.22 36.46 27.61 34.67 30.27
  Z"
/>
<path fill="#477557" fill-opacity="0.780" d="
  M 59.34 28.54
  Q 58.44 32.17 58.86 34.69
  Q 59.95 41.25 59.52 45.79
  L 56.28 42.78
  A 1.09 1.07 -69.1 0 1 55.93 41.98
  Q 55.93 41.10 55.23 41.01
  A 1.71 1.71 0.0 0 1 53.84 39.91
  Q 52.46 36.17 48.80 34.21
  Q 48.72 34.31 48.64 34.41
  Q 49.73 33.23 50.84 34.16
  A 0.44 0.43 39.0 0 1 50.91 34.75
  Q 50.72 35.00 50.90 35.23
  A 0.16 0.15 -58.9 0 0 51.17 35.16
  L 51.42 34.07
  A 0.69 0.69 0.0 0 0 50.90 33.24
  L 49.11 32.82
  A 0.81 0.81 0.0 0 1 48.71 31.46
  L 51.25 28.93
  A 0.40 0.40 0.0 0 1 51.92 29.10
  Q 52.81 32.25 55.47 34.59
  A 0.28 0.28 0.0 0 0 55.94 34.39
  Q 55.96 33.80 55.96 33.77
  Q 56.00 33.38 56.24 33.38
  Q 56.38 33.37 56.49 33.37
  A 0.17 0.16 -4.3 0 0 56.66 33.18
  L 55.88 27.12
  A 0.28 0.28 0.0 0 1 56.32 26.86
  Q 57.13 27.47 57.84 27.24
  Q 61.20 26.13 63.99 25.47
  A 0.55 0.54 -14.4 0 1 64.64 25.85
  L 64.71 26.13
  A 0.34 0.33 76.9 0 1 64.46 26.55
  Q 61.78 27.09 59.34 28.54
  Z"
/>
<path fill="#3a684d" fill-opacity="0.749" d="
  M 22.62 32.69
  A 0.25 0.25 0.0 0 1 22.49 32.36
  L 22.54 32.24
  A 7.50 1.10 -67.0 0 1 26.48 25.76
  L 26.76 25.88
  A 7.50 1.10 -67.0 0 1 24.84 33.22
  L 24.79 33.34
  A 0.25 0.25 0.0 0 1 24.46 33.47
  L 22.62 32.69
  Z"
/>
<path fill="#868679" d="
  M 34.67 30.27
  Q 34.61 30.56 34.80 30.57
  Q 36.70 30.70 38.55 29.95
  Q 39.13 30.32 39.65 30.32
  Q 42.07 30.51 43.75 31.59
  L 36.37 34.94
  A 7.01 6.86 -80.8 0 0 34.03 36.67
  C 31.97 39.02 29.49 42.56 25.88 42.90
  A 0.96 0.94 -67.9 0 0 25.35 43.13
  Q 25.09 43.37 24.93 43.71
  L 24.77 43.47
  A 0.36 0.36 0.0 0 0 24.11 43.59
  L 23.37 46.78
  A 0.65 0.65 0.0 0 1 22.11 46.82
  C 21.24 43.81 23.00 40.53 24.49 37.67
  A 2.12 2.04 -10.2 0 1 24.88 37.13
  Q 28.36 33.50 32.48 31.29
  Q 33.68 30.80 34.12 29.76
  L 34.67 30.27
  Z"
/>
<path fill="#000000" d="
  M 43.75 31.59
  Q 46.47 32.39 48.64 34.41
  Q 48.72 34.31 48.80 34.21
  Q 49.15 36.05 48.26 36.94
  A 0.63 0.63 0.0 0 0 48.91 37.98
  Q 49.69 37.71 50.43 37.96
  A 0.67 0.66 9.1 0 1 50.89 38.59
  L 50.89 44.82
  A 1.72 1.69 24.5 0 0 51.33 45.96
  Q 54.41 49.34 51.23 53.58
  A 0.35 0.33 65.8 0 0 51.16 53.79
  L 51.16 54.26
  A 0.22 0.22 0.0 0 0 51.54 54.41
  Q 52.59 53.30 54.03 54.70
  Q 52.95 55.31 52.67 57.59
  A 0.92 0.92 0.0 0 0 53.07 58.45
  Q 53.21 58.54 53.22 58.55
  A 1.36 1.33 -83.1 0 1 53.65 59.11
  Q 54.53 61.31 52.21 62.69
  A 1.56 1.50 34.1 0 1 51.17 62.87
  L 49.22 62.49
  A 0.87 0.87 0.0 0 1 48.52 61.64
  L 48.52 58.86
  A 0.54 0.53 -14.1 0 0 47.73 58.39
  Q 46.86 58.87 46.33 59.52
  A 0.87 0.87 0.0 0 0 46.27 60.54
  C 47.27 62.12 48.12 63.63 46.33 64.86
  A 0.34 0.34 0.0 0 1 45.81 64.50
  Q 46.01 63.63 45.65 63.41
  A 0.32 0.32 0.0 0 0 45.17 63.76
  Q 45.56 65.27 44.25 66.44
  A 0.61 0.60 46.7 0 1 43.41 66.41
  L 43.03 66.04
  A 0.96 0.96 0.0 0 0 41.97 65.84
  Q 41.17 66.18 40.96 65.32
  Q 40.81 64.68 40.67 62.39
  A 0.05 0.04 -29.6 0 0 40.59 62.37
  Q 40.58 62.39 40.56 62.42
  A 0.13 0.07 73.2 0 0 40.54 62.52
  Q 40.70 64.11 39.71 65.35
  A 0.48 0.47 -38.1 0 1 38.91 65.26
  Q 38.55 64.53 37.88 64.95
  Q 37.22 65.38 36.68 65.11
  Q 36.04 64.80 35.64 63.54
  A 0.02 0.01 -57.9 0 0 35.61 63.55
  L 35.61 65.18
  A 0.67 0.64 -18.0 0 1 35.32 65.72
  Q 34.79 66.08 33.98 65.93
  A 0.56 0.56 0.0 0 0 33.35 66.27
  Q 33.06 66.97 32.52 66.53
  Q 31.83 65.97 31.21 64.27
  A 0.74 0.73 57.6 0 1 31.38 63.50
  L 32.27 62.61
  A 0.16 0.16 0.0 0 0 32.11 62.35
  Q 29.80 63.12 30.81 65.05
  A 0.28 0.27 3.5 0 1 30.41 65.40
  C 28.64 64.17 28.97 62.42 30.33 60.66
  A 0.78 0.77 41.4 0 0 30.26 59.65
  L 28.99 58.39
  A 0.43 0.42 25.7 0 0 28.26 58.64
  L 27.96 61.46
  A 1.15 1.15 0.0 0 1 27.59 62.18
  Q 25.59 64.00 23.18 61.73
  A 1.56 1.55 -55.5 0 1 22.85 59.92
  Q 24.06 57.43 23.19 54.05
  Q 24.16 53.85 25.09 54.54
  A 0.21 0.21 0.0 0 0 25.37 54.24
  Q 21.81 50.02 24.92 45.45
  A 1.55 1.51 62.1 0 0 25.18 44.56
  Q 25.18 44.06 24.93 43.71
  Q 25.09 43.37 25.35 43.13
  A 0.96 0.94 -67.9 0 1 25.88 42.90
  C 29.49 42.56 31.97 39.02 34.03 36.67
  A 7.01 6.86 -80.8 0 1 36.37 34.94
  L 43.75 31.59
  Z
  M 36.31 46.52
  Q 35.12 44.19 32.37 44.29
  A 0.64 0.54 31.3 0 0 32.18 44.32
  L 27.28 45.61
  A 2.71 2.67 0.1 0 0 25.38 47.48
  C 24.24 51.57 28.23 56.32 32.36 53.55
  A 1.36 1.32 83.5 0 0 32.89 52.86
  L 34.46 48.30
  A 0.93 0.93 0.0 0 1 35.10 47.70
  L 35.88 47.49
  A 0.69 0.68 69.4 0 0 36.31 46.52
  Z
  M 40.30 46.49
  A 0.69 0.68 -68.8 0 0 40.72 47.46
  L 41.50 47.67
  A 0.93 0.93 0.0 0 1 42.13 48.28
  L 43.66 52.84
  A 1.36 1.31 -83.0 0 0 44.18 53.53
  C 48.28 56.33 52.30 51.63 51.20 47.54
  A 2.70 2.67 0.4 0 0 49.32 45.66
  L 44.44 44.33
  A 0.64 0.54 -30.8 0 0 44.25 44.30
  Q 41.51 44.17 40.30 46.49
  Z
  M 38.95 57.42
  Q 39.02 57.66 39.07 57.83
  A 0.58 0.58 0.0 0 0 39.90 58.20
  Q 41.16 57.55 40.74 56.09
  Q 39.99 53.49 38.40 51.20
  A 0.27 0.27 0.0 0 0 37.95 51.21
  Q 35.63 54.74 35.84 57.74
  A 0.76 0.76 0.0 0 0 37.14 58.22
  L 38.14 57.22
  A 0.49 0.49 0.0 0 1 38.95 57.42
  Z
  M 36.68 60.69
  Q 37.35 60.67 38.34 61.15
  A 0.03 0.02 31.7 0 0 38.37 61.15
  Q 38.49 61.11 38.60 61.05
  A 0.14 0.14 0.0 0 0 38.53 60.78
  Q 37.47 60.77 36.53 60.33
  A 0.03 0.02 84.8 0 0 36.50 60.37
  Q 36.59 60.51 36.41 60.56
  A 0.21 0.07 8.2 0 0 36.68 60.69
  Z
  M 39.65 60.69
  Q 40.10 60.73 40.78 61.20
  A 0.18 0.18 0.0 0 0 41.04 60.96
  Q 40.60 60.22 39.63 60.40
  A 0.15 0.15 0.0 0 0 39.65 60.69
  Z
  M 34.3752 60.8538
  A 0.88 0.24 -40.9 0 0 33.5529 61.2486
  A 0.88 0.24 -40.9 0 0 33.0448 62.0062
  A 0.88 0.24 -40.9 0 0 33.8671 61.6114
  A 0.88 0.24 -40.9 0 0 34.3752 60.8538
  Z
  M 35.27 61.70
  Q 35.13 62.11 35.25 62.42
  A 0.27 0.27 0.0 0 0 35.74 62.45
  Q 35.76 62.41 35.74 61.76
  A 0.24 0.24 0.0 0 0 35.27 61.70
  Z
  M 43.0060 61.8682
  A 0.89 0.36 -154.6 0 0 43.6556 62.5752
  A 0.89 0.36 -154.6 0 0 44.6140 62.6318
  A 0.89 0.36 -154.6 0 0 43.9644 61.9248
  A 0.89 0.36 -154.6 0 0 43.0060 61.8682
  Z
  M 43.4160 63.4506
  A 0.51 0.18 -92.7 0 0 43.2602 63.9685
  A 0.51 0.18 -92.7 0 0 43.4640 64.4694
  A 0.51 0.18 -92.7 0 0 43.6198 63.9515
  A 0.51 0.18 -92.7 0 0 43.4160 63.4506
  Z
  M 33.28 64.41
  Q 33.12 65.41 33.12 65.42
  A 0.27 0.27 0.0 0 0 33.64 65.44
  Q 33.73 65.23 33.57 64.34
  Q 33.42 63.51 33.28 64.41
  Z"
/>
<path fill="#6f8575" fill-opacity="0.827" d="
  M 59.52 45.79
  C 59.10 48.31 57.55 55.04 54.03 54.70
  Q 52.59 53.30 51.54 54.41
  A 0.22 0.22 0.0 0 1 51.16 54.26
  L 51.16 53.79
  A 0.35 0.33 65.8 0 1 51.23 53.58
  Q 54.41 49.34 51.33 45.96
  A 1.72 1.69 24.5 0 1 50.89 44.82
  L 50.89 38.59
  A 0.67 0.66 9.1 0 0 50.43 37.96
  Q 49.69 37.71 48.91 37.98
  A 0.63 0.63 0.0 0 1 48.26 36.94
  Q 49.15 36.05 48.80 34.21
  Q 52.46 36.17 53.84 39.91
  A 1.71 1.71 0.0 0 0 55.23 41.01
  Q 55.93 41.10 55.93 41.98
  A 1.09 1.07 -69.1 0 0 56.28 42.78
  L 59.52 45.79
  Z"
/>
</svg>
