<svg id="Component_74_17" data-name="Component 74 – 17" xmlns="http://www.w3.org/2000/svg" width="75.402" height="67.004" viewBox="0 0 75.402 67.004">
  <path id="Subtraction_218" data-name="Subtraction 218" d="M9.09,35.326H9.083a7.894,7.894,0,0,1-.91-.972c-.384-.47-.833-1.1-.793-1.459a5.6,5.6,0,0,1,.555-1.522,3.257,3.257,0,0,1,.538-.691A.972.972,0,0,0,8.8,29.617a2.111,2.111,0,0,0-1.1-1.391,3.754,3.754,0,0,0-1.111-.432,8.47,8.47,0,0,0-.2,2.5,1.956,1.956,0,0,1-.58,1.755,2.012,2.012,0,0,1-1.635.647A3.479,3.479,0,0,1,2.236,32.1,2.974,2.974,0,0,1,.985,30.229a2.948,2.948,0,0,1,.757-2.276c.39-.521.673-.9.074-1.437a12.393,12.393,0,0,1-.179-3.261.171.171,0,0,1,.118-.036,9.267,9.267,0,0,1,2.411,1.344c-.176-.3-.418-.623-.7-1a19.716,19.716,0,0,1-1.489-2.25,4.1,4.1,0,0,1-.345-3.026,8.347,8.347,0,0,1,1.138-2.293,4.369,4.369,0,0,0,.707-1.408,4.972,4.972,0,0,0-.25-2.785.152.152,0,0,0-.112-.064.108.108,0,0,0-.042.009A37.278,37.278,0,0,0,.6,17.426c-.08.212-.173.319-.275.319-.143,0-.256-.213-.257-.215a11.4,11.4,0,0,1-.048-2.083,16.151,16.151,0,0,1,.29-2.263,16.724,16.724,0,0,1,.81-2.774A17.483,17.483,0,0,1,3.667,6.423,19.777,19.777,0,0,1,7.234,3.107,17.52,17.52,0,0,1,11.448.84,13.056,13.056,0,0,1,15.935,0a10.882,10.882,0,0,1,1.138.059,16.283,16.283,0,0,1,3.389.5,18.869,18.869,0,0,1,6.6,3.144,16.92,16.92,0,0,1,2.751,2.567A14.08,14.08,0,0,1,33.14,17.4c0,.006-.244.549-.439.55-.058,0-.107-.048-.145-.143-.149-1.725-1.333-4.048-2.432-6.09-.011-.019-.022-.029-.034-.029-.067,0-.151.293-.218.765-.15,1.047-.229,3.276.481,3.483a3.319,3.319,0,0,1,.58.949,9.34,9.34,0,0,1,.487,1.4,3.906,3.906,0,0,1,.108,2.438,11.439,11.439,0,0,1-1.186,1.887,4.775,4.775,0,0,0-.886,1.576,3.128,3.128,0,0,0,.94-.48,3.029,3.029,0,0,1,1.1-.534.186.186,0,0,1,.166.077s.116.1.068.2a11.022,11.022,0,0,1-.41,2.958c-.154.429-.289.449-.291.449-.214.418.059.74.4,1.147a3.73,3.73,0,0,1,.7,1.054,2.651,2.651,0,0,1,.044,1.7,3.521,3.521,0,0,1-2.846,1.907,3.2,3.2,0,0,1-1.657-.517,3.814,3.814,0,0,1-.662-.517l-.369-3.726a2.433,2.433,0,0,0-.777.225,3.092,3.092,0,0,0-.982.671A1.623,1.623,0,0,0,24.4,30a1.268,1.268,0,0,1,.126.3,3.531,3.531,0,0,0,1.043,1.534h0a13.32,13.32,0,0,1,.16,1.536,2.975,2.975,0,0,1-.883,1.322,2.214,2.214,0,0,1-.91.585h0a.024.024,0,0,1-.02-.011,2.52,2.52,0,0,1,.246-.861,3.284,3.284,0,0,0,.315-1.157.721.721,0,0,0-.4-.181.334.334,0,0,0-.134.03l-.013.005h0a.225.225,0,0,1-.085.024c-.076,0-.159-.077-.362-.469a.531.531,0,0,0-.016-.517.757.757,0,0,0-.645-.279,1.032,1.032,0,0,0-.889.465c-.042.054-.07.079-.089.079-.034,0-.038-.081-.045-.216a1.94,1.94,0,0,0-.931-1.737.779.779,0,0,0-.185-.022,2.174,2.174,0,0,0-1.01.383,1.081,1.081,0,0,1-.328.159h0c-.054,0-.1-.1-.168-.234a3,3,0,0,0-.188-.343,1.186,1.186,0,0,0-1.055-.577h-.054a1.307,1.307,0,0,0-.964.537,2.5,2.5,0,0,0-.332.532,1.3,1.3,0,0,0-.241-.5,1.361,1.361,0,0,0-1.137-.5,2.577,2.577,0,0,0-.448.042,1.1,1.1,0,0,0-.662.668,2.716,2.716,0,0,0-.18.554,2.1,2.1,0,0,0-1.336-.694,1.164,1.164,0,0,0-.661.21,1.13,1.13,0,0,0-.563.853,3.209,3.209,0,0,0-.07.66,2.644,2.644,0,0,0-1.138-.489.414.414,0,0,0-.265.081,1.445,1.445,0,0,0-.369,1.03.675.675,0,0,1-.009.1s-.07.041-.166.094a4.638,4.638,0,0,0-.629.379c-.078.185.145.646.361,1.092a5.645,5.645,0,0,1,.311.715.062.062,0,0,1-.01.057A.46.46,0,0,1,9.09,35.326ZM16.532,20.62h0c-.006.008-.577.829-1.183,1.9a11.891,11.891,0,0,0-1.428,3.453A4.657,4.657,0,0,0,14.647,28a.424.424,0,0,0,.338.173c.35,0,.771-.418,1.063-.769a7.422,7.422,0,0,0,.555-.769,13.716,13.716,0,0,0,1.426,1.506.114.114,0,0,0,.055.013c.169,0,.468-.3.727-.731a2.98,2.98,0,0,0,.471-1.452,10.9,10.9,0,0,0-1.375-3.056c-.679-1.194-1.368-2.282-1.375-2.293ZM18.495,17a3.723,3.723,0,0,1,1.043.139,1.384,1.384,0,0,1,.922.7c.216.694.4,1.311.564,1.856.6,1.994.926,3.092,1.531,3.668.587.558,1.431.648,3.225.648,1.994-.541,4.328-2.946,4.074-4.759.01-1.606-.2-2.768-1.268-3.6a42.3,42.3,0,0,0-5.155-1.526l-.664-.158a5.433,5.433,0,0,0-.63-.038,3.78,3.78,0,0,0-3.144,1.536,4.629,4.629,0,0,0-.756,1.536h0C18.316,17.006,18.4,17,18.495,17Zm-7.375-3.063a5.437,5.437,0,0,0-.63.038l-.663.158h0A42.3,42.3,0,0,0,4.67,15.661c-1.069.828-1.278,1.989-1.268,3.6-.254,1.813,2.08,4.219,4.074,4.76,1.794,0,2.638-.09,3.225-.648.605-.576.934-1.674,1.531-3.668h0c.163-.545.348-1.162.564-1.855a1.384,1.384,0,0,1,.922-.7A3.722,3.722,0,0,1,14.761,17c.158,0,.258.009.259.009a4.623,4.623,0,0,0-.756-1.536A3.78,3.78,0,0,0,11.119,13.939Z" transform="translate(21.657 30.335)" fill="#f17a7a"/>
  <path id="Union_18" data-name="Union 18" d="M-13577.4-2492.035a1.053,1.053,0,0,1-1.166-1.042.368.368,0,0,0-.2-.052.651.651,0,0,0-.086.022,1.059,1.059,0,0,1-1.168,1.072c-.185.014-.846-.644-.859-.828a6.282,6.282,0,0,1-.378-2.522c.085-.9-.021-.951.323-1.367a1.234,1.234,0,0,1,1.047-.3c.446-.082,1.032.528,1.046.712v.288a.462.462,0,0,1,.174,0,.153.153,0,0,1,.086.009v-.3c.014-.184.6-.794,1.046-.712a1.234,1.234,0,0,1,1.047.3c.344.416.238.463.323,1.367a6.308,6.308,0,0,1-.378,2.522,1.9,1.9,0,0,1-.854.828Zm-1.261-1.258.09.171c0-.06-.008-.119-.01-.177A.554.554,0,0,1-13578.665-2493.293Z" transform="translate(13616.948 2557.496)" fill="#f17a7a"/>
  <path id="Path_802" data-name="Path 802" d="M.428,4.773A1.237,1.237,0,0,0,1.493,5c.45.05.995-.6.995-.783L2.3,1.591C2.268,1,2.279-.053,1.009,0c-.184,0-.8.7-.8.886a6.312,6.312,0,0,0-.2,2.545C.159,4.327.057,4.382.428,4.773Z" transform="matrix(-0.995, -0.105, 0.105, -0.995, 42.964, 66.238)" fill="#f17a7a"/>
  <path id="Path_803" data-name="Path 803" d="M.428.259A1.237,1.237,0,0,1,1.493.036c.45-.05.995.6.995.783L2.3,3.441c-.036.593-.025,1.643-1.3,1.588-.184,0-.8-.7-.8-.886A6.312,6.312,0,0,1,.009,1.6C.159.7.057.65.428.259Z" transform="translate(32.939 61.26) rotate(-7)" fill="#f17a7a"/>
  <path id="Path_804" data-name="Path 804" d="M.7.3c.371-.391.535-.287.535-.287.45-.05.908.693.908.877C2,1.288,2,1.209,2.042,2c.051,1,.618,1.628-.525,2.338C1.332,4.335.493,4.14,0,1.8A2.245,2.245,0,0,1,.7.3Z" transform="matrix(0.978, -0.208, 0.208, 0.978, 30.723, 62.764)" fill="#f17a7a"/>
  <path id="Path_805" data-name="Path 805" d="M.7,4.036c.371.391.535.287.535.287.45.05.908-.693.908-.877C2,3.047,2,3.125,2.042,2.338,2.093,1.341,2.66.71,1.516,0,1.332,0,.493.194,0,2.531A2.245,2.245,0,0,0,.7,4.036Z" transform="matrix(-0.978, -0.208, 0.208, -0.978, 44.917, 67.004)" fill="#f17a7a"/>
  <g id="Union_14" data-name="Union 14" transform="translate(0)" fill="#627e70" opacity="0.75">
    <path d="M 53.59029388427734 54.98658752441406 C 53.52471923828125 54.91441345214844 53.40887451171875 54.7107048034668 53.31386184692383 54.54362106323242 C 53.02933120727539 54.04330062866211 52.63965225219727 53.35808181762695 52.03776168823242 53.02786254882812 C 51.97884368896484 52.99607086181641 51.91331100463867 52.98038101196289 51.84141159057617 52.98038101196289 C 51.55177307128906 52.98038101196289 51.1557731628418 53.24090194702148 50.58467102050781 53.63835144042969 C 50.38424301147461 53.77785110473633 50.19492340087891 53.90959930419922 50.08030319213867 53.96908187866211 C 50.07285308837891 53.97296142578125 50.06577301025391 53.97655868530273 50.05903625488281 53.97990036010742 C 50.05903625488281 53.97966766357422 50.05904006958008 53.97943115234375 50.05904006958008 53.97920227050781 C 50.05931854248047 53.95223617553711 50.05960464477539 53.92474365234375 50.05896759033203 53.89702606201172 C 50.09361267089844 53.86175155639648 50.16117858886719 53.80501556396484 50.21771240234375 53.75754165649414 C 50.73730087280273 53.32118988037109 51.8184928894043 52.41323089599609 52.16545104980469 49.72406005859375 C 52.43303298950195 47.65024948120117 51.81067276000977 46.96390151977539 51.26158142089844 46.35834121704102 C 50.85174179077148 45.90634918212891 50.49778366088867 45.5160026550293 50.44506072998047 44.56760025024414 C 50.33941268920898 42.66445159912109 50.38223266601562 40.59759902954102 50.56889343261719 38.59051895141602 L 50.59383010864258 38.32231903076172 L 50.32452011108398 38.31740951538086 C 50.21829223632812 38.31547164916992 50.11235046386719 38.31443023681641 50.00710296630859 38.31443023681641 C 49.01396942138672 38.31443023681641 48.21903610229492 38.40800476074219 47.5304069519043 38.60754013061523 C 47.59835433959961 38.33552932739258 47.76801681518555 37.87575912475586 47.89052200317383 37.54378890991211 L 47.96672058105469 37.33684158325195 C 48.35523223876953 36.27767944335938 48.49639129638672 35.75912094116211 48.30584335327148 35.48625946044922 C 48.29056930541992 35.46438980102539 48.27351379394531 35.44461059570312 48.2548713684082 35.42701721191406 C 48.38467788696289 35.14738845825195 48.53369903564453 34.66263580322266 48.11403274536133 34.24053192138672 C 47.17217254638672 33.294189453125 44.66308212280273 31.82977104187012 43.98358154296875 31.82977104187012 C 43.95059204101562 31.82977104187012 43.91918182373047 31.83259010314941 43.89022064208984 31.83816146850586 C 42.84085083007812 32.04030990600586 42.03211212158203 32.62530899047852 41.25 33.1910514831543 C 40.27992248535156 33.89274978637695 39.36364364624023 34.5555419921875 38.00577163696289 34.5555419921875 C 35.70963287353516 34.5555419921875 34.30057144165039 36.29777145385742 32.66901016235352 38.31510162353516 C 31.50740242004395 39.75136947631836 30.1908016204834 41.3792724609375 28.36165237426758 42.53734970092773 C 27.75979232788086 42.91847991943359 26.95533180236816 43.11172103881836 25.97061157226562 43.11173248291016 C 25.70356178283691 43.11174011230469 25.41861152648926 43.09749221801758 25.12367248535156 43.06940078735352 L 24.85583114624023 43.04388046264648 L 24.85002136230469 43.31287002563477 C 24.84090232849121 43.73503112792969 24.82473182678223 44.15719223022461 24.80195236206055 44.56763076782227 C 24.74936103820801 45.51602935791016 24.39541244506836 45.90637969970703 23.98557281494141 46.35837173461914 C 23.43648147583008 46.96393203735352 22.81412124633789 47.65029144287109 23.08188247680664 49.72407913208008 C 23.42883110046387 52.41320037841797 24.50984191894531 53.32117080688477 25.02934265136719 53.75752258300781 C 25.08590316772461 53.80502319335938 25.15349769592285 53.86180114746094 25.18811225891113 53.89707183837891 C 25.18749618530273 53.92469024658203 25.18779373168945 53.95199203491211 25.18808174133301 53.9787712097168 C 25.18808555603027 53.97916412353516 25.18809127807617 53.97956085205078 25.18809509277344 53.97996139526367 C 25.18144989013672 53.97666549682617 25.17445755004883 53.97311401367188 25.16712188720703 53.96929168701172 C 25.05208206176758 53.90959167480469 24.86272239685059 53.77780151367188 24.66224098205566 53.63825988769531 C 24.09127235412598 53.24087142944336 23.69535255432129 52.98038101196289 23.40585136413574 52.98038101196289 C 23.33394241333008 52.98038101196289 23.26839256286621 52.99608993530273 23.21102142333984 53.02706909179688 C 22.60743141174316 53.35810089111328 22.21778106689453 54.04341888427734 21.93327140808105 54.5438117980957 C 21.83833503723145 54.71080017089844 21.72256660461426 54.91440963745117 21.65702247619629 54.98658752441406 C 20.17737579345703 54.95633697509766 18.69576454162598 53.63880920410156 17.58452224731445 51.36120986938477 C 16.39998245239258 48.93338012695312 15.74763202667236 45.71689224243164 15.74763202667236 42.30424118041992 C 15.74763202667236 39.40851211547852 16.23456192016602 36.54180908203125 17.11873245239258 34.23221206665039 L 17.13269233703613 34.19573211669922 L 17.13486099243164 34.15673065185547 L 17.14465141296387 33.98102188110352 C 17.34535217285156 30.38125038146973 17.42874145507812 28.32305145263672 16.80947113037109 27.88088989257812 C 16.70535278320312 27.80659103393555 16.60199165344238 27.72554016113281 16.50220108032227 27.63994026184082 L 16.22718238830566 27.40401077270508 L 16.10425186157227 27.74488067626953 C 15.18643188476562 30.2900505065918 12.75099182128906 32.00009155273438 10.04397201538086 32.00009155273438 C 6.492772102355957 32.00009155273438 3.603651762008667 29.11111068725586 3.603651762008667 25.56008148193359 C 3.603651762008667 24.93308067321777 3.693541765213013 24.31352043151855 3.870831966400146 23.71860122680664 L 3.921791791915894 23.5476016998291 L 3.776631832122803 23.4438304901123 C 1.535411834716797 21.8415699005127 0.2500018775463104 18.95732116699219 0.2500018775463104 15.53064060211182 C 0.2500018775463104 10.21673107147217 4.174671649932861 5.893550872802734 8.998751640319824 5.893550872802734 C 10.59628200531006 5.893550872802734 12.02178192138672 6.313780784606934 13.23565196990967 7.142570972442627 L 13.48293209075928 7.311400890350342 L 13.60493183135986 7.037961006164551 C 14.48046207427979 5.07559061050415 16.06769180297852 3.391790866851807 18.19503211975098 2.168600797653198 C 20.37795257568359 0.9134407639503479 22.95743179321289 0.2500008046627045 25.65461158752441 0.2500008046627045 C 28.26129150390625 0.2500008046627045 30.76920127868652 0.873140811920166 32.90719223022461 2.052060842514038 C 34.98704147338867 3.198920726776123 36.58310317993164 4.791080951690674 37.52282333374023 6.656430721282959 L 37.73653030395508 7.08064079284668 L 37.96521377563477 6.664310932159424 C 39.99099349975586 2.976160764694214 44.51833343505859 0.5930507779121399 49.49916076660156 0.5930507779121399 C 52.12912368774414 0.5930507779121399 54.64954376220703 1.24233078956604 56.7879524230957 2.470710754394531 C 58.87092208862305 3.667240858078003 60.44051361083984 5.319300651550293 61.32704162597656 7.248301029205322 L 61.45556259155273 7.527950763702393 L 61.70294189453125 7.344841003417969 C 63.12180328369141 6.294600963592529 64.77436828613281 5.739470958709717 66.48200225830078 5.739470958709717 C 71.26284027099609 5.739470958709717 75.15234375 10.09063053131104 75.15234375 15.43894100189209 C 75.15234375 16.99429130554199 74.81533813476562 18.54058074951172 74.17778015136719 19.91064071655273 C 73.56179809570312 21.23432159423828 72.66500854492188 22.39994049072266 71.5843505859375 23.28149032592773 L 71.45889282226562 23.38384056091309 L 71.50096893310547 23.54019165039062 C 71.64730072021484 24.08380126953125 71.72150421142578 24.64797019958496 71.72150421142578 25.21703147888184 C 71.72150421142578 28.7680606842041 68.83238220214844 31.65704154968262 65.28118133544922 31.65704154968262 C 62.87983322143555 31.65704154968262 60.69367218017578 30.33526039123535 59.57583999633789 28.2075309753418 L 59.28584289550781 27.65554046630859 L 59.11418151855469 28.25497055053711 C 58.36777496337891 30.8614387512207 58.32995223999023 33.72797775268555 58.9991569519043 37.01515960693359 L 58.95871353149414 37.06327056884766 L 58.98370361328125 37.18234252929688 C 59.32609176635742 38.81394195556641 59.49970245361328 40.53720092773438 59.49970245361328 42.30424118041992 C 59.49970245361328 45.71688079833984 58.84734344482422 48.93338012695312 57.66281127929688 51.36120986938477 C 56.55157089233398 53.63880920410156 55.06993103027344 54.95633697509766 53.59029388427734 54.98658752441406 Z" stroke="none"/>
    <path d="M 53.71369171142578 54.73048400878906 C 55.05419540405273 54.62923812866211 56.40255737304688 53.37408065795898 57.4381217956543 51.25159072875977 C 58.60634231567383 48.85721969604492 59.24970245361328 45.67964935302734 59.24970245361328 42.30424118041992 C 59.24970245361328 40.55442047119141 59.0778923034668 38.84844207763672 58.73903274536133 37.23369216918945 L 58.68905258178711 36.99554061889648 L 58.73031616210938 36.94645309448242 C 58.07780075073242 33.66844177246094 58.12511825561523 30.80068778991699 58.87384033203125 28.1861515045166 L 59.2171630859375 26.98727035522461 L 59.79715347290039 28.09126091003418 C 60.87165069580078 30.13651084899902 62.97300338745117 31.40704154968262 65.28118133544922 31.40704154968262 C 68.69453430175781 31.40704154968262 71.47150421142578 28.63021087646484 71.47150421142578 25.21703147888184 C 71.47150421142578 24.66990089416504 71.40019989013672 24.12760162353516 71.25957489013672 23.60518074035645 L 71.17539215087891 23.29247093200684 L 71.42632293701172 23.08777046203613 C 72.47791290283203 22.22994041442871 73.35097503662109 21.0948314666748 73.95111846923828 19.80516052246094 C 74.57341003417969 18.46792030334473 74.90234375 16.95810127258301 74.90234375 15.43894100189209 C 74.90234375 10.22848033905029 71.12499237060547 5.989470958709717 66.48200225830078 5.989470958709717 C 64.82830810546875 5.989470958709717 63.2271728515625 6.527630805969238 61.8516731262207 7.545780658721924 L 61.35693359375 7.91200065612793 L 61.09988021850586 7.352700710296631 C 60.23518371582031 5.471190929412842 58.70108032226562 3.857980728149414 56.66343307495117 2.687490701675415 C 54.56285095214844 1.48085081577301 52.08549118041992 0.8430507779121399 49.49916076660156 0.8430507779121399 C 44.60819244384766 0.8430507779121399 40.16685104370117 3.175270795822144 38.18432998657227 6.784660816192627 L 37.72697067260742 7.617331027984619 L 37.29955291748047 6.768910884857178 C 36.38260269165039 4.948760986328125 34.82200241088867 3.393400907516479 32.78648376464844 2.27099084854126 C 30.68535232543945 1.112400770187378 28.21919250488281 0.5000007748603821 25.65461158752441 0.5000007748603821 C 20.35580253601074 0.5000007748603821 15.60515213012695 3.168340682983398 13.83323192596436 7.139820575714111 L 13.58924198150635 7.686700820922852 L 13.09469223022461 7.3490309715271 C 11.92312145233154 6.549130916595459 10.54505157470703 6.143550872802734 8.998751640319824 6.143550872802734 C 4.312521934509277 6.143550872802734 0.500001847743988 10.35458087921143 0.500001847743988 15.53064060211182 C 0.500001847743988 18.87560081481934 1.747281908988953 21.68572044372559 3.922031879425049 23.24044990539551 L 4.212331771850586 23.44799041748047 L 4.110421657562256 23.78999137878418 C 3.940041780471802 24.36173057556152 3.853651762008667 24.95727157592773 3.853651762008667 25.56008148193359 C 3.853651762008667 28.9732608795166 6.630621910095215 31.75009155273438 10.04397201538086 31.75009155273438 C 12.64595222473145 31.75009155273438 14.986891746521 30.10644149780273 15.86908149719238 27.66007041931152 L 16.11492156982422 26.97834014892578 L 16.66498184204102 27.45019149780273 C 16.75914192199707 27.53097152709961 16.85659217834473 27.60739135742188 16.95474243164062 27.67743110656738 C 17.64731216430664 28.17192077636719 17.62301254272461 29.8921012878418 17.39427185058594 33.99494171142578 L 17.3801326751709 34.24863052368164 L 17.35220146179199 34.32159042358398 C 16.47869110107422 36.60335159301758 15.99763202667236 39.43831253051758 15.99763202667236 42.30424118041992 C 15.99763202667236 45.67966079711914 16.6409912109375 48.85721969604492 17.80920219421387 51.25159072875977 C 18.84476661682129 53.37408065795898 20.19309616088867 54.62923431396484 21.53359985351562 54.7304801940918 C 21.58848190307617 54.64443588256836 21.65926551818848 54.51994705200195 21.71595191955566 54.42024993896484 C 22.01523208618164 53.89387130737305 22.42511177062988 53.1729621887207 23.09220123291016 52.80710983276367 C 23.18646240234375 52.75620269775391 23.2919921875 52.73038101196289 23.40585136413574 52.73038101196289 C 23.54932403564453 52.73038101196289 23.69970321655273 52.77177047729492 23.86783027648926 52.84877014160156 C 23.44204902648926 52.1995964050293 23.02405548095703 51.2296028137207 22.83394241333008 49.75609970092773 C 22.55140113830566 47.56785202026367 23.21494102478027 46.8360710144043 23.80037117004395 46.1904411315918 C 24.19385147094727 45.75649261474609 24.50465202331543 45.41373062133789 24.55234146118164 44.55377197265625 C 24.5749626159668 44.14614105224609 24.59102249145508 43.72682189941406 24.60008239746094 43.30747985839844 L 24.61169242858887 42.76950073242188 L 25.14737129211426 42.82052230834961 C 25.43453216552734 42.84788131713867 25.71150207519531 42.86174011230469 25.97060203552246 42.86173248291016 C 26.9072322845459 42.86172103881836 27.66669273376465 42.68152236938477 28.2279224395752 42.32612228393555 C 30.02230262756348 41.19005966186523 31.32515144348145 39.57916259765625 32.47463226318359 38.15789031982422 C 34.0768928527832 36.17678070068359 35.59029006958008 34.3055419921875 38.00577163696289 34.3055419921875 C 39.2827033996582 34.3055419921875 40.16712188720703 33.66580200195312 41.10348129272461 32.98849105834961 C 41.90764999389648 32.40679931640625 42.73919296264648 31.80530166625977 43.84312057495117 31.59263038635254 C 43.8875617980957 31.5841007232666 43.93482208251953 31.57977104187012 43.98358154296875 31.57977104187012 C 44.77565002441406 31.57977104187012 47.37381362915039 33.14240264892578 48.29132080078125 34.06426239013672 C 48.64567947387695 34.42067718505859 48.72834014892578 34.86441421508789 48.5386848449707 35.38637161254883 C 48.75577545166016 35.75282287597656 48.61277770996094 36.30148315429688 48.20144271850586 37.42291259765625 L 48.12509155273438 37.63024139404297 C 48.05632400512695 37.81659698486328 47.97113418579102 38.04746627807617 47.89944076538086 38.25710296630859 C 48.50607299804688 38.12648010253906 49.19255065917969 38.06443023681641 50.00710296630859 38.06443023681641 C 50.11386108398438 38.06443023681641 50.22133255004883 38.06549072265625 50.32908248901367 38.06745147705078 L 50.86770248413086 38.0772819519043 L 50.81781005859375 38.61367034912109 C 50.63228225708008 40.60866165161133 50.58970260620117 42.66271209716797 50.69468307495117 44.55373001098633 C 50.74248123168945 45.41369247436523 51.05329132080078 45.75645065307617 51.44678115844727 46.19041061401367 C 52.03221130371094 46.83602905273438 52.69574356079102 47.56780242919922 52.41340255737305 49.75605010986328 C 52.22328186035156 51.22959899902344 51.80527877807617 52.19953918457031 51.37942886352539 52.84872436523438 C 51.54753494262695 52.77175903320312 51.69792938232422 52.73038101196289 51.84141159057617 52.73038101196289 C 51.95523071289062 52.73038101196289 52.06072998046875 52.75617218017578 52.15801239013672 52.80868148803711 C 52.82197189331055 53.17295074462891 53.23187255859375 53.89374160766602 53.53117370605469 54.4200325012207 C 53.58791351318359 54.51980972290039 53.65876770019531 54.64440155029297 53.71369171142578 54.73048400878906 M 53.53830337524414 55.23712158203125 C 53.24805068969727 55.23712158203125 52.82533264160156 53.74510192871094 51.91751098632812 53.24703979492188 C 51.64327621459961 53.09913635253906 50.60366058349609 53.97916030883789 50.19545364379883 54.19097900390625 C 49.72270965576172 54.43740081787109 49.82522583007812 54.06499862670898 49.80670166015625 53.85811233520508 C 49.77891159057617 53.55026245117188 51.47318267822266 53.13589096069336 51.91751098632812 49.69207000732422 C 52.36185073852539 46.24826049804688 50.32916259765625 46.98686981201172 50.19545364379883 44.58148193359375 C 50.08350372314453 42.56489944458008 50.14009094238281 40.50146102905273 50.31996154785156 38.5673713684082 C 49.27268600463867 38.54826354980469 48.26998138427734 38.61760711669922 47.38124084472656 38.91600036621094 C 47.05521774291992 39.02532577514648 47.40657424926758 38.13819122314453 47.73201370239258 37.25075912475586 C 48.05469512939453 36.37104797363281 48.3517951965332 35.49104690551758 47.93674087524414 35.58335113525391 C 47.77132797241211 35.62019729614258 48.46876525878906 34.95190811157227 47.93674087524414 34.41679000854492 C 46.96376800537109 33.43918609619141 44.39828491210938 31.99500274658203 43.93742370605469 32.08366012573242 C 41.69507217407227 32.51564025878906 40.59211349487305 34.8055419921875 38.00577163696289 34.8055419921875 C 34.20162200927734 34.8055419921875 32.85256195068359 39.98994064331055 28.49538230895996 42.74856948852539 C 27.59503364562988 43.31872177124023 26.39171600341797 43.44132232666016 25.09996223449707 43.31827163696289 C 25.09085273742676 43.74018096923828 25.07485198974609 44.16199111938477 25.05157279968262 44.58148193359375 C 24.91817092895508 46.98686981201172 22.88517189025879 46.24826049804688 23.3298225402832 49.69207000732422 C 23.7741527557373 53.13589096069336 25.46811103820801 53.55026245117188 25.44032096862793 53.85811233520508 C 25.4221019744873 54.06499862670898 25.52430725097656 54.43738174438477 25.05157279968262 54.19097900390625 C 24.64336204528809 53.97916412353516 23.60370826721191 53.09917068481445 23.3298225402832 53.24703979492188 C 22.42169189453125 53.74510192871094 21.99928092956543 55.23712158203125 21.70903205871582 55.23712158203125 C 18.39305114746094 55.23712158203125 15.49763202667236 49.5046501159668 15.49763202667236 42.30424118041992 C 15.49763202667236 39.23373031616211 16.02405166625977 36.39244079589844 16.88525199890137 34.14282989501953 C 17.04590225219727 31.2569408416748 17.21277236938477 28.47603034973145 16.6642017364502 28.0843505859375 C 16.55217170715332 28.0044116973877 16.44388198852539 27.91929054260254 16.33943176269531 27.82969093322754 C 15.40988159179688 30.40738105773926 12.94207191467285 32.25009155273438 10.04397201538086 32.25009155273438 C 6.349122047424316 32.25009155273438 3.353651762008667 29.25493049621582 3.353651762008667 25.56008148193359 C 3.353651762008667 24.89559173583984 3.45061182975769 24.25334167480469 3.631241798400879 23.64720153808594 C 1.348131895065308 22.01500129699707 1.874999952633516e-06 19.0806713104248 1.874999952633516e-06 15.53064060211182 C 1.874999952633516e-06 10.03562068939209 4.072181701660156 5.643550872802734 8.998751640319824 5.643550872802734 C 10.68407154083252 5.643550872802734 12.16188144683838 6.106720924377441 13.37662220001221 6.936100959777832 C 15.18051147460938 2.892950773239136 19.99685096740723 7.910156227808329e-07 25.65461158752441 7.910156227808329e-07 C 31.12772178649902 7.910156227808329e-07 35.81314086914062 2.707060813903809 37.74609375 6.54395055770874 C 39.7531623840332 2.889860868453979 44.26072311401367 0.3430507779121399 49.49916076660156 0.3430507779121399 C 55.0201301574707 0.3430507779121399 59.72869110107422 3.171780824661255 61.55420303344727 7.143900871276855 C 62.96626281738281 6.098690986633301 64.66053009033203 5.489470958709717 66.48200225830078 5.489470958709717 C 71.40859222412109 5.489470958709717 75.40234375 9.943910598754883 75.40234375 15.43894100189209 C 75.40234375 18.73978042602539 73.96126556396484 21.66515159606934 71.74237823486328 23.47521018981934 C 71.89183044433594 24.0304012298584 71.97150421142578 24.61430168151855 71.97150421142578 25.21703147888184 C 71.97150421142578 28.91188049316406 68.97602081298828 31.90704154968262 65.28118133544922 31.90704154968262 C 62.70781326293945 31.90704154968262 60.47367095947266 30.45405006408691 59.35452270507812 28.32380104064941 C 58.74344253540039 30.45769119262695 58.47671127319336 33.27875137329102 59.2683219909668 37.08279037475586 C 59.25512313842773 37.09894943237305 59.2417106628418 37.11513137817383 59.22837066650391 37.13100051879883 C 59.56239318847656 38.72270202636719 59.74970245361328 40.47256088256836 59.74970245361328 42.30424118041992 C 59.74970245361328 49.5046501159668 56.85427093505859 55.23712158203125 53.53830337524414 55.23712158203125 Z" stroke="none" fill="#a6c1a7"/>
  </g>
  <path id="Path_806" data-name="Path 806" d="M0,0A8.081,8.081,0,0,1,3.452,1.926,12.908,12.908,0,0,1,5.832,5.832" transform="translate(13.818 17.326)" fill="none" stroke="#a6c1a7" stroke-width="0.5" opacity="0.75"/>
  <path id="Path_807" data-name="Path 807" d="M5.832,0A8.081,8.081,0,0,0,2.381,1.926,12.908,12.908,0,0,0,0,5.832" transform="translate(55.25 17.031)" fill="none" stroke="#a6c1a7" stroke-width="0.5" opacity="0.75"/>
  <path id="Path_808" data-name="Path 808" d="M.972-2.435A12.624,12.624,0,0,1,3.963,6.709C3.534,12.284-.1,21.066-.1,21.066" transform="translate(20.4 14.465)" fill="none" stroke="#a6c1a7" stroke-width="0.5" opacity="0.75"/>
  <path id="Path_809" data-name="Path 809" d="M2.932-2.435A12.624,12.624,0,0,0-.059,6.709C.37,12.284,4,21.066,4,21.066" transform="translate(50.302 13.843)" fill="none" stroke="#a6c1a7" stroke-width="0.5" opacity="0.75"/>
  <path id="Path_810" data-name="Path 810" d="M0,0S5.461.016,6.919,5.076,4.954,17.852,4.954,17.852" transform="translate(12.104 20.414)" fill="none" stroke="#a6c1a7" stroke-width="0.5" opacity="0.75"/>
  <path id="Path_811" data-name="Path 811" d="M7.281,0S1.82.016.362,5.076,2.327,17.852,2.327,17.852" transform="translate(55.332 20.414)" fill="none" stroke="#a6c1a7" stroke-width="0.5" opacity="0.75"/>
  <path id="Path_812" data-name="Path 812" d="M-.251,0S-2.9,5.483-3.414,9.686a12.646,12.646,0,0,0,1.105,7.126" transform="translate(23.676 33.451)" fill="none" stroke="#a6c1a7" stroke-width="0.5" opacity="0.75"/>
  <path id="Path_813" data-name="Path 813" d="M1.655,0a26.709,26.709,0,0,1-.273,6.731C1.12,8.82-.57,11.045-.968,13.439a16.336,16.336,0,0,0,.222,5.774" transform="translate(25.887 23.502)" fill="none" stroke="#a6c1a7" stroke-width="0.5" opacity="0.75"/>
  <path id="Path_814" data-name="Path 814" d="M-.785,0a9.47,9.47,0,0,0-.271,4.122A6.507,6.507,0,0,0,.931,7.2" transform="translate(27.641 35.853)" fill="none" stroke="#a6c1a7" stroke-width="0.5" opacity="0.75"/>
  <path id="Path_815" data-name="Path 815" d="M0,0A13.164,13.164,0,0,0,1.047,2.156,8.648,8.648,0,0,0,2.4,3.774" transform="translate(17.249 47.518)" fill="none" stroke="#a6c1a7" stroke-width="0.5" opacity="0.75"/>
  <path id="Path_816" data-name="Path 816" d="M.875,0s1,.532.74,6.021C1.5,8.546.237,12.076-.154,15.293a11.022,11.022,0,0,0,1.029,6.2" transform="translate(30.098 19.042)" fill="none" stroke="#a6c1a7" stroke-width="0.5" opacity="0.75"/>
  <path id="Path_817" data-name="Path 817" d="M5.309.02s1.8,2.844.342,8.076C5.148,9.9,2.5,13.428,1.592,15.573-.018,19.365,0,20.941,0,20.941" transform="translate(31.658 16.284)" fill="none" stroke="#a6c1a7" stroke-width="0.5" opacity="0.75"/>
  <path id="Path_818" data-name="Path 818" d="M5.146,0A31.2,31.2,0,0,1,3.875,8.471,27.874,27.874,0,0,1,0,15.782" transform="translate(38.178 15.268)" fill="none" stroke="#a6c1a7" stroke-width="0.5" opacity="0.75"/>
  <path id="Path_819" data-name="Path 819" d="M3.088,0A8.866,8.866,0,0,1,1.995,2.134,19.782,19.782,0,0,1,0,4.46c.027-.027,0,0,0,0" transform="translate(38.178 30.363)" fill="none" stroke="#a6c1a7" stroke-width="0.5" opacity="0.75"/>
  <path id="Path_820" data-name="Path 820" d="M1.715,0a13,13,0,0,1,0,4.333A9.631,9.631,0,0,1,0,7.891" transform="translate(42.295 24.874)" fill="none" stroke="#a6c1a7" stroke-width="0.5" opacity="0.75"/>
  <path id="Path_821" data-name="Path 821" d="M1.372,0A10.293,10.293,0,0,1,1.144,2.86,10.232,10.232,0,0,1,0,5.487" transform="translate(48.814 30.022)" fill="none" stroke="#a6c1a7" stroke-width="0.5" opacity="0.75"/>
  <path id="Path_822" data-name="Path 822" d="M2.641,2.836a3.1,3.1,0,0,1-.513,2.435A13.423,13.423,0,0,1,0,8.039" transform="translate(48.471 30.559)" fill="none" stroke="#a6c1a7" stroke-width="0.5" opacity="0.75"/>
  <path id="Path_796" data-name="Path 796" d="M0,0S.873.392,1.045,2.193A26.162,26.162,0,0,1,.686,7.2" transform="translate(52.588 37.568)" fill="none" stroke="#a6c1a7" stroke-width="0.5" opacity="0.75"/>
  <path id="Path_797" data-name="Path 797" d="M1.029,0a7.666,7.666,0,0,1,0,2.608A9,9,0,0,1,0,5.146" transform="translate(54.303 40.999)" fill="none" stroke="#a6c1a7" stroke-width="0.5" opacity="0.75"/>
  <path id="Path_798" data-name="Path 798" d="M.155,5.668A25.094,25.094,0,0,0,1.992,3.275,17.241,17.241,0,0,0,3.532,0" transform="translate(54.887 45.459)" fill="none" stroke="#a6c1a7" stroke-width="0.5" opacity="0.75"/>
  <path id="Path_823" data-name="Path 823" d="M7.271-.555S4.176-1.4,2.461-.2.623,5.568.623,5.568" transform="translate(57.324 26.801)" fill="none" stroke="#a6c1a7" stroke-width="0.5" opacity="0.75"/>
  <path id="Path_833" data-name="Path 833" d="M-.245,3.786A6.066,6.066,0,0,1,1.189,1.1,5.364,5.364,0,0,1,3.913,0" transform="translate(3.906 20.414)" fill="none" stroke="#a6c1a7" stroke-width="0.5" opacity="0.75"/>
  <path id="Path_824" data-name="Path 824" d="M-.2-15.308s-1.84-10.061,9.751-7.61c9.16,2.8,6.031,17.56,6.031,17.56" transform="translate(5.446 34.349)" fill="none" stroke="#a6c1a7" stroke-width="0.5" opacity="0.75"/>
  <path id="Path_825" data-name="Path 825" d="M0,0S6.122,1.094,7.838,5.64s-.976,12.543-.976,12.543" transform="translate(18.279 8.749)" fill="none" stroke="#a6c1a7" stroke-width="0.5" opacity="0.75"/>
  <path id="Path_826" data-name="Path 826" d="M-2.312-1.29S3.783-2.752,7.815-.264s6.792,9.086,6.792,9.086" transform="translate(19.797 7.475)" fill="none" stroke="#a6c1a7" stroke-width="0.5" opacity="0.75"/>
  <path id="Path_827" data-name="Path 827" d="M-1.916-1.427s5.033.587,7.435,3.76,2.649,8.759,2.649,8.759" transform="translate(27.86 1.967)" fill="none" stroke="#a6c1a7" stroke-width="0.5" opacity="0.75"/>
  <path id="Path_829" data-name="Path 829" d="M15.986-15.308s1.84-10.061-9.751-7.61C-2.925-20.117.2-5.358.2-5.358" transform="translate(53.408 34.349)" fill="none" stroke="#a6c1a7" stroke-width="0.5" opacity="0.75"/>
  <path id="Path_830" data-name="Path 830" d="M8.41,0S2.287,1.094.572,5.64s.976,12.543.976,12.543" transform="translate(47.947 8.749)" fill="none" stroke="#a6c1a7" stroke-width="0.5" opacity="0.75"/>
  <path id="Path_831" data-name="Path 831" d="M14.606-1.29S8.511-2.752,4.48-.264-2.312,8.822-2.312,8.822" transform="translate(42.543 7.475)" fill="none" stroke="#a6c1a7" stroke-width="0.5" opacity="0.75"/>
  <path id="Path_832" data-name="Path 832" d="M8.168-1.427S3.135-.84.733,2.333s-2.649,8.759-2.649,8.759" transform="translate(41.341 1.967)" fill="none" stroke="#a6c1a7" stroke-width="0.5" opacity="0.75"/>
  <path id="Path_828" data-name="Path 828" d="M4.139,3.32a6.922,6.922,0,0,0-1.5-1.948A7.3,7.3,0,0,0,0,0" transform="translate(67.443 20.242)" fill="none" stroke="#a6c1a7" stroke-width="0.5" opacity="0.75"/>
</svg>
