<svg xmlns="http://www.w3.org/2000/svg" width="64.788" height="76.506" viewBox="0 0 64.788 76.506">
  <path id="Union_108" data-name="Union 108" d="M22.886,75.87c-2.2-1.155-2.462-2-2.69-4.295l-3.885,1.139H16.2a3.416,3.416,0,0,1-2.584-1.141A5.851,5.851,0,0,1,12.187,67.1a5.59,5.59,0,0,1,.53-2.055l0-.005,0,0,0-.008,0-.009a4.967,4.967,0,0,0,.324-.895c.166-.68-.352-.906-.808-1.1l-.008,0-.008,0-.017-.007h0a1.241,1.241,0,0,1-.551-.344,1.458,1.458,0,0,1,0-1.158c-.057.115-.2.383-.333.383-.092,0-.159-.131-.2-.39-.077-.517-.223-1.648-.422-3.27,0-.026,0-.049-.007-.067l0-.009,0-.019a.256.256,0,0,0,0-.034l0,0a7.741,7.741,0,0,1-.884-.658,10.625,10.625,0,0,1-1.564-1.786l0,0a3.9,3.9,0,0,1-2.377-1.533,7.2,7.2,0,0,1-1.1-2.623v0l0-.01v0l0-.006,0-.019,0-.006,0-.006v0a14.306,14.306,0,0,0-.582-1.825,3.108,3.108,0,0,1-.319-1.726.684.684,0,0,1,.211-.44l0,.009c.128.279.792,1.674,1.234,1.674a.249.249,0,0,0,.206-.133l0,0c-.1-.205-.307-.694-.186-.811a.983.983,0,0,1,.292-.1l.008,0,.037-.01.006,0,.052-.013h0c.47-.124,1.182-.312,1.288-.643a.361.361,0,0,0-.1-.345,2.549,2.549,0,0,0-1.455-.611l-.008,0,0,0v0l0,0h0a4.5,4.5,0,0,1-3.234-2.113,3.736,3.736,0,0,1-.412-1.76A4.247,4.247,0,0,1,2.264,40.6a5.346,5.346,0,0,1,.534-.871h0l0,0,0,0-.007,0,0,0a.067.067,0,0,0-.012-.01c-.673-.569-1.233-1.073-1.577-1.419a5.143,5.143,0,0,1-.873-2.06c-.1-.262.047-.591.25-1.047l0,0,0,0,0-.006,0-.007A6.369,6.369,0,0,0,1.248,32,17.158,17.158,0,0,0,0,26.97a4.1,4.1,0,0,1,2.569,1.24l0,0a1.767,1.767,0,0,0,1.2.645c.04,0,.083,0,.12-.007h.028l.017,0C5.156,28.7,5.8,27.079,5.867,26.895l1.186-2.886a2.542,2.542,0,0,1,.361-.932,4.36,4.36,0,0,1,.8-.858l2.5-2.6,0,0a5.986,5.986,0,0,1,.377-2.854,4.115,4.115,0,0,1,.962-1.393l0,0,.011-.011.028-.028.023-.022c.1-.1.206-.206.325-.342a2.055,2.055,0,0,1,1.538-.779h0a.9.9,0,0,1,.142-.011,2.632,2.632,0,0,1,1.206.421,3.01,3.01,0,0,0-1.527.919,3.784,3.784,0,0,0-.915,2.8c.082.651.287.981.609.981.42,0,.926-.579,1.124-.827l0,0v0a3.946,3.946,0,0,1-.839,1.538c-.423.482-1.016,1.033-1.54,1.519l-.018.016-.011.01-.012.011a13.043,13.043,0,0,0-1.492,1.517,2.169,2.169,0,0,0-.407,1.833.2.2,0,0,0,.177.13c.1,0,.268-.083.505-.481a18.77,18.77,0,0,1,1.8-2.257l.039-.045.019-.022,0-.006.006-.006a26.753,26.753,0,0,0,2.475-3.137c.686-1.107.693-1.406.7-1.752a2.35,2.35,0,0,1,.159-.85,4.831,4.831,0,0,1,.921-1.791l0-.006.073-.1a1.948,1.948,0,0,0,.43-1.178,6.987,6.987,0,0,0,.221-4.087V9.319c-.227-1.467-.422-2.735.807-3.529a2.254,2.254,0,0,1,1.143-.652,2.467,2.467,0,0,1,.494-.043,5.147,5.147,0,0,1,1.128.14h0c-.016.012-1.657,1.294-1.625,2.563a.291.291,0,0,0,.2.084c.348,0,.86-.536,1.509-1.215l.024-.026,0,0,0,0,0,0,0,0A11.083,11.083,0,0,1,24.329,4.3a9.462,9.462,0,0,1,3.482-1.154.755.755,0,0,1,.625.211.609.609,0,0,1,.067.533c-.071.3-.109.4-.157.4-.021,0-.046-.02-.076-.046l0,0-.018-.015a.084.084,0,0,0-.018-.015l0,0,0,0,0,0,0,0a.4.4,0,0,0-.252-.09c-.423,0-1.093.6-1.992,1.771v0l-.014.024a22.033,22.033,0,0,1-2.764,3.867,7.219,7.219,0,0,1-.657.531l-.008.006-.006,0,0,0c-.53.388-.656.48-.985,2.255A10.049,10.049,0,0,0,21.5,15.75v.035l0,.014a9.3,9.3,0,0,1,.029,2.514c-.3,1.937-.633,2.021-1.185,2.159l-.037.008h-.006l-.038,0c-.529,0-1.45-2.154-1.629-2.585l0-.008,0,0,0,0c-.429.852-1.829,3.7-1.829,4.524,0,.135.037.2.109.2.375,0,1.563-1.777,1.614-1.852l0,0a.828.828,0,0,1,.172.388v.006l0,0v0a.961.961,0,0,0,.385.64c.013.043-.076.138-.2.269l0,0-.006.006-.013.013a2.245,2.245,0,0,0-.77,2.461L19.791,22.8a3.728,3.728,0,0,1,1.02-1.213,4.359,4.359,0,0,1,1.655-.584c.249-1.223.661-1.343.993-1.439l0,0a.518.518,0,0,0,.4-.287.948.948,0,0,1-.143-.819,2.881,2.881,0,0,1,.725-.943,2.778,2.778,0,0,0-.616-2.064l0,0,0,0,0,0,0,0a3.226,3.226,0,0,1-.538-3.2,7.979,7.979,0,0,1,2.226-2.675,12.56,12.56,0,0,1,3-1.987v.587h.582c.039.109-.155.349-.448.714l0,0-.006.009,0,0a7.616,7.616,0,0,0-1.591,2.785,5.091,5.091,0,0,1,.659,2.6v.039a5.6,5.6,0,0,0,.225,1.479.232.232,0,0,1,.052-.006c.107,0,.316.048.528.368a6.533,6.533,0,0,1,.578,1.374l0,.008,0,.006a1.538,1.538,0,0,1,.352-.231c0-.01.01-.067.229-.356.9-.767.751-1.677.59-2.641v0a3.563,3.563,0,0,1,.251-2.636,3.63,3.63,0,0,1,3.1-2.008l.006,0,.1-.021c.261-.051.545-.108.856-.179-.01.431-.594.981-1.108,1.467l-.005,0,0,0-.006,0-.018.018-.008.006-.006,0,0,.006,0,0,0,0c-.447.42-.869.816-.869,1.083,0,.651.15,2.077.6,2.077a.263.263,0,0,0,.106-.024c.194-.088.143-.249.071-.473v0l0,0,0-.006c-.141-.418-.355-1.049.717-1.843a4.147,4.147,0,0,0,1.279-2.848,9.713,9.713,0,0,0,.032-1.924.013.013,0,0,0,0-.009,5.424,5.424,0,0,1-.162-1.175,6.181,6.181,0,0,1,.516-2.71A6.993,6.993,0,0,1,37.44.8,7.093,7.093,0,0,1,38.509,0l0,0a1.623,1.623,0,0,0-.125,1.011c.035.08.071.125.107.131A8.569,8.569,0,0,0,37.274,4.3,3.657,3.657,0,0,1,38.2,6.89v.019A6.823,6.823,0,0,0,38.38,8.43c.316,1.268.779,1.458,1.026,1.458a.374.374,0,0,0,.138-.023c0,.006-.144.649,0,.8a.946.946,0,0,0,.556.162.446.446,0,0,0,.4-.162.892.892,0,0,0,.081-.623c.117-.033.692-.276.605-1.871-.054-1-.258-3.075-.591-6l-.013-.1,0-.011.822.938a17.066,17.066,0,0,0,.811,3.718v.006l0,.006v.011c.506,1.6.812,2.57-.359,5.509-.206.077-.391.151-.562.22a3.426,3.426,0,0,1-1.578.352c-.923-.408-1.3-2.016-1.545-3.08V9.727l0-.009v0c-.128-.572-.238-1.066-.391-1.066-.108,0-.237.261-.407.82-.526,1.737-.194,2.168.191,2.668a2.319,2.319,0,0,1,.571,1.362,10.2,10.2,0,0,1-.067,1.977l0,.018-.006.061v0l0,.014v.006c-.069.639-.129,1.191.039,1.378a.212.212,0,0,0,.166.071.623.623,0,0,0,.247-.067c.435-.2.443-.487.453-.846v-.008a1.891,1.891,0,0,1,1.053-1.768,5.583,5.583,0,0,1,2.2-1.048l.011,0,.008,0h0a5.3,5.3,0,0,0,1.791-.783c1.289-.938,1.325-1.695,1.325-1.7.67.5.654,1.461-.047,2.7a4.036,4.036,0,0,1-1.641,1.474l0,0a5.308,5.308,0,0,0-1.158.849,2.488,2.488,0,0,0-.843,1.319l0,0-.007.024,0,0a.059.059,0,0,1-.008.026l0,.015,0,.019-.008.031,0,.016c-.01.037-.022.081-.038.13-.166.523.464,1.44.47,1.448a1.049,1.049,0,0,1-.013.8,6.589,6.589,0,0,1-2.021,2.624,5.264,5.264,0,0,1-1.1.418l-.021.007-.011,0h0l-.026.008-.009,0,0,0a13.087,13.087,0,0,0-2.62,1.058,2.456,2.456,0,0,0-1.114,1.676,1.874,1.874,0,0,0,.346,1.486,2.292,2.292,0,0,1,.383.68l0,0,0,.008c.182.459.34.855,1.877,1.517a.44.44,0,0,0,.194.058.145.145,0,0,0,.142-.086A1.351,1.351,0,0,0,37.8,28.1a1.716,1.716,0,0,0-.492-.409l0,0-.008-.006A1.39,1.39,0,0,1,36.632,27a1.069,1.069,0,0,1,.054-.745l0-.005,0-.013v-.011a2.457,2.457,0,0,0,.162-.986c-.026-.735-.068-.792-.081-.792a1.482,1.482,0,0,1,1.053-.282h.024a2.622,2.622,0,0,0,1.1-.194c-.012.019-1.184,1.942-.606,2.672.724.912,1.948,2.518,2.351,3.2a4.315,4.315,0,0,1,.423,1.563v0l0,.011v.009l0,.028v.006a3.741,3.741,0,0,0,.143.721h.582c-.386-2.138-.362-3.556.073-4.461a2.874,2.874,0,0,1,1.709-1.373l.006,0,0,0a3.4,3.4,0,0,0,1.657-1.18c.828-1.242,1.434-1.5,1.8-1.5a.558.558,0,0,1,.369.118,1.836,1.836,0,0,1-.186.759,10.26,10.26,0,0,1-1.7,2.56,2.845,2.845,0,0,1-1.033.869l0,0,0,0,0,0,0,0a2.717,2.717,0,0,0-1.182,1.094c-.315.827-.036,1.069.317,1.376l0,0c.455.394,1.021.885.534,2.871.231.487.465.744.676.744s.386-.264.49-.744c.43-2.529-.372-3.647-.38-3.658s0,0,.006,0a5.067,5.067,0,0,1,1.152.729c.517.451.542.61.542,1.044a3.48,3.48,0,0,1-.055.491v.006l0,0v0a1.421,1.421,0,0,0,.057.984.463.463,0,0,0,.373.157.637.637,0,0,0,.483-.222.947.947,0,0,0,.149-.809A5.574,5.574,0,0,0,46.163,29.4l-.006-.006c-.376-.441-.127-1.165.149-1.694A6.977,6.977,0,0,1,47,26.645l0,0a3.946,3.946,0,0,0,.543,1.29l.011.013,0,.006,0,0a2.923,2.923,0,0,1,.725,1.438c.023.094.045.189.069.3l.011.049.015.056v0l0,.016v0a3.389,3.389,0,0,0,.438,1.243c.007,0,.722-.185.722-1.34a5.212,5.212,0,0,0-.853-2.568l0,0,0-.009,0,0-.017-.034c-.056-.1-.2-.381-.379-.73l0-.008a18.055,18.055,0,0,1-.74-4.556,5.153,5.153,0,0,1,1.279-4.064,3.454,3.454,0,0,1,2.769-1.88l.174-.044.426-.129.209-.063.128-.039,1.045-.315.266-.08.034-.01.028-.008.039-.012h0l.05-.015.1-.031.186-.055h0l.013,0,.009,0a11.979,11.979,0,0,0-3.719,3.382,2.841,2.841,0,0,0-.5,2.256.411.411,0,0,0,.388.208,1.275,1.275,0,0,0,.505-.132,10.583,10.583,0,0,1,4.169-2.407,16.89,16.89,0,0,0-2.575,2.407.627.627,0,0,0-.13.613c.112.226.449.278.55.289l3.041-1.957a18.032,18.032,0,0,0-1.34,1.683c-.583.84-1.244,2-1.085,2.739A9.943,9.943,0,0,0,54.3,26.07l.006.014.013.028,0,0,0,.008.008.019,0,0,0,0a16.4,16.4,0,0,1,.924,2.538,8.2,8.2,0,0,1,.342,2.124v.028c.006.213.009.293.118.352a.094.094,0,0,0,.051.013c.13,0,.3-.224.469-.6a5.063,5.063,0,0,0,.36-1.318,1.73,1.73,0,0,0-.255-1.087l0,0a1.048,1.048,0,0,1-.1-1.1,2.977,2.977,0,0,1,1.326-1.249,2.488,2.488,0,0,0-.227,1.249.752.752,0,0,0,.76.5,1.464,1.464,0,0,0,.418-.069,1.745,1.745,0,0,0,.861-.781l0,0,0,0,0,0a4.348,4.348,0,0,1,.4-.511c.068-.222.116-.4.15-.557a17.984,17.984,0,0,1-.607,3.394,6.433,6.433,0,0,1-.81,1.559l0,.006-.006.009-.007.011,0,0a5.486,5.486,0,0,0-.931,2.1c-.487,1.685-.279,2.011,1.759,4.465.227.269.425.522.608.757l.032.041.02.024,0,0,.012.015,0,.005v0c.719.916,1.287,1.639,1.953,1.639a1,1,0,0,0,.3-.05,2.859,2.859,0,0,1,.61-3.533L62.9,36.1l0-.007.005-.006a2.585,2.585,0,0,0,.378-.5,5.845,5.845,0,0,0-.226,1.778c.117.23.245.48.3.589a.665.665,0,0,0,.03.06,6.635,6.635,0,0,1,1.143,5.8,14.324,14.324,0,0,1-1.252,3.149A2.765,2.765,0,0,1,61.3,48.5h0c-.573.168-1.068.313-1.256,1.092a2.061,2.061,0,0,0,.529,2.018l0,.006.007.008,0,0,0,0v0a2.515,2.515,0,0,1,.567,1.02c.185.845.059,1.049.012,1.125-.013.019-.022.034-.012.048a.321.321,0,0,0,.162.043,1.288,1.288,0,0,0,.833-.606,2.178,2.178,0,0,0,.526-1.633,6.2,6.2,0,0,0-.513-1.325h0c.073,0,1.806.123,2.316,1.1.534,1.02.3,1.8-.121,2.981a3.078,3.078,0,0,1-1.729,1.593l-.006,0-.008,0h0L62.571,56l-.018.009-.011,0-.009,0a1.679,1.679,0,0,0-.3.172,3.59,3.59,0,0,1-1.172.4L58.5,59.864a1.919,1.919,0,0,1-1.023.406l-.01,0-.008,0a1.854,1.854,0,0,0-1.238.582L53.6,61.45a3.1,3.1,0,0,1-1.484,1.637l0,0h0l0,0c-.5.339-.9.607-.826.949a1,1,0,0,0,.433.6l.005,0,0,0a2.1,2.1,0,0,1,.838,1.474c.041.235.091.454.139.667l0,.009v0l.007.039v.012a3.73,3.73,0,0,1-.395,3.332,4.83,4.83,0,0,1-3.971,2.334,3.556,3.556,0,0,1-.456.03,7.579,7.579,0,0,1-3.526-1.189l0,0v0a5.018,5.018,0,0,1-.176,2.519,5.717,5.717,0,0,1-1.777,1.673l0,0a3.825,3.825,0,0,1-2.843.867,23.785,23.785,0,0,1-6.652-1.368,1.842,1.842,0,0,0-.488-.066,1.246,1.246,0,0,0-.427.066.994.994,0,0,0-.364.229l0,0,0,0a1.4,1.4,0,0,1-.744.358c-.656.135-1.864.518-2.1.594h-.006l-.011,0a14.352,14.352,0,0,1-2.655.259A6.992,6.992,0,0,1,22.886,75.87Zm2.226-5.393c-.067,0-.25.044-.5.454a2.591,2.591,0,0,0-.432,1.858,6.124,6.124,0,0,0,1.352,2.081,1.337,1.337,0,0,0,.859.41.465.465,0,0,0,.1-.009,1.441,1.441,0,0,0,.314-1.993,5.367,5.367,0,0,1-.282-.759l0-.007c-.215-.789-.215-.789-.162-1.145.005-.035.011-.074.017-.117a1.51,1.51,0,0,0-1.076-.793.488.488,0,0,0-.153.024A.113.113,0,0,0,25.113,70.478Zm13.728.894c.006.041.011.078.016.112.051.346.051.346-.157,1.11l0,.007a5.174,5.174,0,0,1-.273.735,1.4,1.4,0,0,0,.3,1.931.479.479,0,0,0,.094.009,1.3,1.3,0,0,0,.832-.4,5.935,5.935,0,0,0,1.31-2.016,2.513,2.513,0,0,0-.418-1.8c-.243-.4-.421-.44-.485-.44a.1.1,0,0,0-.031,0,.471.471,0,0,0-.148-.023A1.461,1.461,0,0,0,38.84,71.371ZM27.049,69.312a1.131,1.131,0,0,0-.258.9c0,.149,0,.335-.012.58a6.877,6.877,0,0,0,.548,2.678,2.017,2.017,0,0,0,.951.839h.011a1.135,1.135,0,0,0,1.087-.675,2.5,2.5,0,0,0,.088-1.083c0-.034,0-.068-.006-.1l-.148-2.812a1.394,1.394,0,0,0-1.04-.715.523.523,0,0,0-.119.013s-.058-.007-.147-.007A1.188,1.188,0,0,0,27.049,69.312Zm8.8.26-.242,2.769c0,.032-.006.065-.01.1a2.475,2.475,0,0,0,.05,1.071,1.121,1.121,0,0,0,1.049.7h.015a2.056,2.056,0,0,0,.964-.795,6.713,6.713,0,0,0,.634-2.624c0-.242,0-.425.008-.572a1.119,1.119,0,0,0-.224-.9,1.218,1.218,0,0,0-.991-.412c-.048,0-.079,0-.084,0a.516.516,0,0,0-.138-.018A1.375,1.375,0,0,0,35.853,69.572Zm-15.245-4.5a4.527,4.527,0,0,1,1.332.514,2.517,2.517,0,0,1,1.318,1.656,1.151,1.151,0,0,1-.4,1.267,4.8,4.8,0,0,0-1.311,2.634c-.048.422.49,1.178.951,1.737a9.427,9.427,0,0,0,1.091,1.157h.01c.044,0,.268-.029.33-.114a.074.074,0,0,0,.012-.068,6.616,6.616,0,0,0-.367-.839l-.006-.011c-.259-.531-.526-1.08-.433-1.3a5.519,5.519,0,0,1,.744-.446l.013-.007c.128-.07.195-.107.2-.11a.763.763,0,0,0,.011-.123,1.709,1.709,0,0,1,.442-1.226.5.5,0,0,1,.318-.1,3.2,3.2,0,0,1,1.364.581v0c0-.251.05-1.52.761-1.8a1.405,1.405,0,0,1,.792-.25,2.507,2.507,0,0,1,1.6.826c.044-.214.3-1.289,1.01-1.455a3.111,3.111,0,0,1,.537-.05,1.57,1.57,0,0,1,1.652,1.2c.06-.131.611-1.266,1.554-1.272H34.2a1.424,1.424,0,0,1,1.264.687,3.587,3.587,0,0,1,.223.4l0,0c.079.162.137.279.2.279h0a1.285,1.285,0,0,0,.39-.187l0,0A2.624,2.624,0,0,1,37.5,68.2a.953.953,0,0,1,.221.026A2.3,2.3,0,0,1,38.835,70.3v0c.008.158.013.254.054.254.023,0,.056-.03.107-.094a1.24,1.24,0,0,1,1.066-.553.909.909,0,0,1,.775.335.628.628,0,0,1,.017.613c.243.467.343.559.434.559a.268.268,0,0,0,.1-.028h0l.017-.007a.4.4,0,0,1,.161-.036.867.867,0,0,1,.48.216,3.878,3.878,0,0,1-.378,1.377,3,3,0,0,0-.3,1.025.029.029,0,0,0,.024.013h0a2.658,2.658,0,0,0,1.092-.7A3.534,3.534,0,0,0,43.552,71.7a15.446,15.446,0,0,0-.191-1.826v0a4.2,4.2,0,0,1-1.25-1.826,1.5,1.5,0,0,0-.151-.355,1.922,1.922,0,0,1,.568-1.414A3.839,3.839,0,0,1,44.643,65.2l.443,4.435a4.329,4.329,0,0,0,2.781,1.23c1.262,0,2.41-.764,3.413-2.269a3.175,3.175,0,0,0-.886-3.275c-.415-.485-.742-.867-.485-1.365,0,0,.164-.023.349-.535a13.041,13.041,0,0,0,.492-3.52c.058-.114-.076-.232-.081-.237a.223.223,0,0,0-.2-.092,3.639,3.639,0,0,0-1.319.636,3.761,3.761,0,0,1-1.129.571,5.672,5.672,0,0,1,1.062-1.875,13.6,13.6,0,0,0,1.423-2.247c.27-.465.128-1.512-.391-2.872a9.169,9.169,0,0,0-1.541-2.77c-.917-.266-.793-3.988-.59-5.425.063-.446.134-.7.195-.7.012,0,.023.01.034.029.247.455.457.685.625.685a.208.208,0,0,0,.152-.073c.474-.5.329-3.419.328-3.449-.17-.424-.474-.881-.743-.881a.948.948,0,0,0-.247.3,1.262,1.262,0,0,1-1.307.646,5.713,5.713,0,0,1-.984-.1c-.791.038-.9.324-1.024.655a1.171,1.171,0,0,1-.688.771,4.023,4.023,0,0,1-1.591.4,1.763,1.763,0,0,1-1.3-.511,3.5,3.5,0,0,1-.766-2.155,2.963,2.963,0,0,0,1.542.567,1.476,1.476,0,0,0,1.293-.758,3.108,3.108,0,0,0-.059-.33c-.083-.382-.168-.777.305-1.092a5.392,5.392,0,0,0,2.221.516,4.638,4.638,0,0,0,4.119-2.716c.338-.723.394-1.385.142-1.687a.421.421,0,0,1-.225-.268c-.167-.577.56-1.774,1.33-3.043a9.785,9.785,0,0,0,1.407-2.879,4.139,4.139,0,0,0-1.035-2.594,11.755,11.755,0,0,0-1.177-1.334l-.008-.007v0a24.186,24.186,0,0,1,.647,2.568c.235,1.241.4,2.848-.143,3.462-1.92,1.873-1.758,3.027-1.628,3.954a2.353,2.353,0,0,1-.02,1.148c-.418,1-1.594,2.482-3.123,2.482a3.1,3.1,0,0,1-1.812-.659c-.374-.143-.683-1.017-.981-1.861-.308-.871-.6-1.694-.953-1.774a2.9,2.9,0,0,1-1.152-.649,2.3,2.3,0,0,0-1.167-.61.9.9,0,0,1-.1-.028,4.89,4.89,0,0,0-1.43-.256,2.022,2.022,0,0,0-1.212.342.012.012,0,0,1-.01-.006c-.012-.019.008-.082.041-.183a1.444,1.444,0,0,0-.264-1.633c1.1-.041,1.585-.128,1.616-.29.042-.222-.8-.588-2.067-1.143l-.008,0-.025-.011-.015-.007-.273-.119a10.361,10.361,0,0,0-3.078-.491,11.481,11.481,0,0,0-1.481.105l-.2.025h0a7.085,7.085,0,0,1-.864.079c-.684,0-1.117-.271-1.442-1.7-.028-.157-.064-.319-.105-.5a2.966,2.966,0,0,1,.893-3.443,18.348,18.348,0,0,0,3.022-3.324,6.6,6.6,0,0,0,1.052-2.317,2.258,2.258,0,0,0-.231-1.8.026.026,0,0,1,0,.007,10.035,10.035,0,0,1-.292,1.723,3.487,3.487,0,0,1-1.457,2.285c-4.339,4.511-4.773,6.708-4.065,9.411a4.988,4.988,0,0,0,4.472,3.683h.015c.469,0,.98-.59,1.422-1.144l.154-.195.019-.024,0,0c.391-.495.728-.922.968-.922a.181.181,0,0,1,.117.042c.917.638.5,1.57.058,2.558-.431.963-.876,1.959-.058,2.72a2.39,2.39,0,0,0,.892.18,2.782,2.782,0,0,0,2.256-1.4c-.31,2.086-1.072,3.144-2.265,3.144-1.641,0-3.517-2.008-3.726-2.294-4.742-.816-5.722-2.146-7.5-4.559-.195-.263-.4-.536-.613-.824a4.938,4.938,0,0,1-.822-4.191,6.749,6.749,0,0,1,.821-2.016,6.8,6.8,0,0,0-1.163.772,4.12,4.12,0,0,0-1.471,2.117,2.989,2.989,0,0,0,.714,2.554,18.972,18.972,0,0,0,2.858,3.076,1.152,1.152,0,0,1,.511,1.2,2.512,2.512,0,0,0,.537,1.874c.4.716.842,1.079,1.327,1.079.795,0,1.423-.968,1.492-1.079,1.211.4,1.784,1.029,1.658,1.807A3,3,0,0,1,29.7,40.19a3.154,3.154,0,0,1-1.553.761.354.354,0,0,1-.182-.041c-4.6-1.911-4.423-3.416-4.254-4.872a2.881,2.881,0,0,0-.41-2.3c-1.622-2.2-2.049-2.44-2.158-2.44a.049.049,0,0,0-.052.039,5.14,5.14,0,0,1,.314,3.288,1.9,1.9,0,0,1-1.912,1.129,2.976,2.976,0,0,1-.427-.029h0a5.34,5.34,0,0,0,.26,1.209A3.412,3.412,0,0,0,20.7,38.8a2.619,2.619,0,0,0,.3.018,2.179,2.179,0,0,0,1.6-.7c.134-.133.248-.267.341-.375.162-.19.28-.327.377-.327.051,0,.1.039.136.118.174.339-.347,1.306-.808,2.159l0,0c-.4.748-.783,1.454-.649,1.64a3.2,3.2,0,0,0,2.9,1.891,4.814,4.814,0,0,0,2.211-.61l0,0c-.034.1-.071.218-.118.367l0,.007a13.954,13.954,0,0,1-.6,1.656c-.181.375-.447.607-1.214.607a7.674,7.674,0,0,1-1.215-.123c-.4-.067-3.388-.875-4.087-2.24a1.206,1.206,0,0,1,0-1.135c.1-.884-.356-1.18-.931-1.556a3.488,3.488,0,0,1-1.286-1.252,2.063,2.063,0,0,1-.792-2.451,9.5,9.5,0,0,1,1.4-2.523c.5-.725.9-1.3.8-1.6a11.577,11.577,0,0,0-.774-1.414l-.009-.014c.143.266.723,1.724-1.887,4.237a2.424,2.424,0,0,0-1.8,1.591,7.3,7.3,0,0,0-.11,2.535c.006.1.012.194.018.292.292,1.452,1.753,1.958,3.776,2.658l.19.066.149.052c.835.9.064,2.332-.193,2.751l0,.008a9.105,9.105,0,0,0-3.249-1.569.414.414,0,0,0-.418.224.255.255,0,0,1-.248.124,3.7,3.7,0,0,1-1.364-.586l-.272-.163-.058-.035,0,0a3,3,0,0,0-.735-.386c-.021,0-.032.008-.035.024a7.015,7.015,0,0,0,.06,2.294,2.927,2.927,0,0,0,.633,1.328,1.922,1.922,0,0,0,1.448.66c.433,0,.819-.155.9-.36.231-.678.4-.994.547-.994.089,0,.157.116.229.238l.008.015,0,0c.066.112.149.251.258.251.081,0,.17-.073.271-.225a.128.128,0,0,1,.051-.011.184.184,0,0,1,.135.078,5.9,5.9,0,0,1,.3,3.314,5.173,5.173,0,0,1-.848,1.675,9.913,9.913,0,0,0-1.364,2.73,4.846,4.846,0,0,0,.413,3.6,23.412,23.412,0,0,0,1.786,2.677l0,.007c.333.448.621.835.831,1.186-.021-.015-2.226-1.6-2.891-1.6a.208.208,0,0,0-.142.043c-.279.7.163,3.558.214,3.881.718.643.38,1.091-.089,1.711a3.5,3.5,0,0,0-.908,2.709,3.538,3.538,0,0,0,1.5,2.229,4.192,4.192,0,0,0,2.325.7,2.421,2.421,0,0,0,1.961-.77,2.315,2.315,0,0,0,.7-2.089,10.013,10.013,0,0,1,.244-2.973h0Zm9.522,3.534a1.175,1.175,0,0,0-.316.917c-.009.154-.019.347-.044.6a7.113,7.113,0,0,0,.423,2.8,1.461,1.461,0,0,0,.4.536c.18.177.431.384.547.384h.006a1.176,1.176,0,0,0,1.3-1.2.635.635,0,0,1,.08-.019l.03,0a.429.429,0,0,1,.176.05,1.168,1.168,0,0,0,1.3,1.167h.006c.116,0,.367-.207.547-.384a1.465,1.465,0,0,0,.4-.536,7.052,7.052,0,0,0,.423-2.8c-.024-.253-.036-.446-.044-.6a1.175,1.175,0,0,0-.317-.916,1.159,1.159,0,0,0-.909-.347,1.7,1.7,0,0,0-.253.018.533.533,0,0,0-.093-.008,1.432,1.432,0,0,0-1.069.8V69.4a.178.178,0,0,0-.049-.007.147.147,0,0,0-.032,0,.509.509,0,0,0-.114-.013.515.515,0,0,0-.065,0v-.32a1.43,1.43,0,0,0-1.069-.8.529.529,0,0,0-.093.008,1.734,1.734,0,0,0-.253-.018A1.16,1.16,0,0,0,30.13,68.607ZM51.155,57.2a2.338,2.338,0,0,0-.356,1.79c.086.255.238.395.427.395a.8.8,0,0,0,.607-.431,2,2,0,0,0,.151-1.71c-.075-.226-.187-.341-.334-.341A.783.783,0,0,0,51.155,57.2Zm-37.907.509-.018.034,0,0,0,.006,0,.008,0,.008c-.161.331-.589,1.212-.455,1.483a.166.166,0,0,0,.16.086,1.4,1.4,0,0,0,.884-.6,1.565,1.565,0,0,0,0-1.156.248.248,0,0,0-.216-.166A.445.445,0,0,0,13.249,57.713Zm44.559-7.425a4.238,4.238,0,0,1-.6,3.141,6.98,6.98,0,0,0-1.549,1.924,14.834,14.834,0,0,0-.826,2.89.031.031,0,0,0,0,.011l1.014-.307a2.824,2.824,0,0,1,1.292-1.117v-.009a2.4,2.4,0,0,1,.108-.686c.026-.069.129-.148.3-.27l0,0a2.943,2.943,0,0,0,1.376-2.808,12,12,0,0,0-.322-2.046V51l0-.007,0-.011a6.4,6.4,0,0,1-.225-2.077,2,2,0,0,1,.806-1.625l0,0,0,0c.113-.092.195-.158.177-.233a.474.474,0,0,0-.23-.045,1.854,1.854,0,0,0-.252.019l0,0-.024,0h-.024a2.664,2.664,0,0,1-.294.02,1.438,1.438,0,0,1-.466-.076A3.863,3.863,0,0,1,56.7,46.2h0A11.351,11.351,0,0,1,57.808,50.289ZM12.822,52.18a1.251,1.251,0,0,0-.841,1.113,2.18,2.18,0,0,0,.075.772l0,.006L13.27,55.6v-.011a.026.026,0,0,1,0-.008v0s0-.008,0-.012v0a16.869,16.869,0,0,0,.133-1.7,5.558,5.558,0,0,1,.845-1.952.078.078,0,0,1,.007-.013l0,0,0,0h-.006a2.081,2.081,0,0,1-.844.32.319.319,0,0,1-.144-.028.552.552,0,0,0-.246-.065A.3.3,0,0,0,12.822,52.18ZM51.84,53.764a1.074,1.074,0,0,0-.356,1.131.457.457,0,0,0,.429.25.892.892,0,0,0,.6-.274.864.864,0,0,0,.151-1.078.36.36,0,0,0-.334-.216A.923.923,0,0,0,51.84,53.764ZM6.747,50.923a2.915,2.915,0,0,1,.222.522l0,0c.188.54.351,1.006,2.026,1.724l0,0,0,0a1.417,1.417,0,0,0,.536-.716.429.429,0,0,0-.085-.336,1.132,1.132,0,0,0-.7-.386H8.743a1.43,1.43,0,0,1-.7-.338,9.752,9.752,0,0,1-1.152-2.066l0-.006A1.612,1.612,0,0,0,6.747,50.923Zm43.214-3.38v0l0,.008a1.22,1.22,0,0,0,.12.77c.027.006.169.052.283.3a3.467,3.467,0,0,1,.123,1.765c.384.06.552.41.73.779v.006l.006.01,0,0,0,0,0,.005a1.643,1.643,0,0,0,.67.849c.4-.071.625-.191.694-.367.107-.285-.2-.666-.547-1.106l0-.007,0,0,0,0,0,0a2.936,2.936,0,0,1-.75-1.355c-.026-.38-.023-.611-.02-.764v-.042c.01-.318.011-.367-.251-.788a2.071,2.071,0,0,0-1.16-.813A1.335,1.335,0,0,1,49.961,47.543Zm-37.383.895-.335,1.346h.579c0,.007.171.729.556.846a.536.536,0,0,0,.134.018h0a1.871,1.871,0,0,0,.882-.391c.26-.916.549-1.034.673-1.085.029-.012.057-.024.065-.043.011-.035-.037-.111-.154-.295l0,0,0-.006-.017-.027c-.024-.037-.057-.088-.091-.146l-.015-.024-.045-.071a.556.556,0,0,1-.429.166,2.743,2.743,0,0,1-.749-.162l-.008,0a2.705,2.705,0,0,0-.776-.164A.717.717,0,0,0,12.578,48.438Zm38.9-3.393a3.941,3.941,0,0,0,.481,2.135c.159.216.3.326.418.326.183,0,.291-.253.365-.474a1.414,1.414,0,0,0-.257-1.446c-.284-.387-.662-.778-.866-.778C51.524,44.808,51.477,44.888,51.477,45.045Zm7.837-4.6a5.025,5.025,0,0,1,.123,2.841,1.1,1.1,0,0,1-.7.822l-.005,0c-.276.115-.561.233-.774,1.072.143.011.286.017.437.017,1.191,0,1.561-.421,1.564-.425a3.82,3.82,0,0,0,.9-1.67,1.68,1.68,0,0,0-.391-1.7,11.641,11.641,0,0,0-1.149-.952l0,0-.008-.006,0,0h0Zm-3.5-.425c-.43.143-.745,1.932-.8,2.619a.417.417,0,0,0,.073.311.2.2,0,0,0,.157.065c.227,0,.6-.285.837-.813a1.037,1.037,0,0,1,.582-.614l0,0a.579.579,0,0,0,.393-.511.753.753,0,0,0-.172-.638,1.273,1.273,0,0,0-.9-.44A.552.552,0,0,0,55.811,40.019Zm-2.679.134a6.943,6.943,0,0,0-.749,2.432.035.035,0,0,0,.032.021c.034,0,.088-.046.16-.136a6.99,6.99,0,0,1,.949-.887l0,0,0,0c.512-.426,1-.827,1.045-1.168a.417.417,0,0,0-.106-.343.912.912,0,0,0-.67-.273A.737.737,0,0,0,53.132,40.152ZM9.152,29.447l-.125,1.7c.194.493-.062.814-.333,1.155l0,0,0,0a1.6,1.6,0,0,0-.477,1.061c.034.006.345.09.512,1.184l.124.358.3,1.044-.43.913c-.122.24-.263.47-.375.654l0,0-.011.018,0,0a3.088,3.088,0,0,0-.653,1.892,3.827,3.827,0,0,1,.744.5l.015.012a2.613,2.613,0,0,0,1.325.606l.306-.712c.321-.321.13-.558-.111-.857l0-.006a1.3,1.3,0,0,1-.367-1.272,14.137,14.137,0,0,1,1.372-3.61L9.879,32.421V29.192l.467-1.775Zm42.442,9.111-.011,0-.018.008c-.337.146-.559.243-.611.41a.545.545,0,0,0,.116.423,1.041,1.041,0,0,0,.7.226,4.17,4.17,0,0,0,2.707-1.491c1.225-1.354,1.946-2.272,1.369-4.018C54.249,37.41,52.522,38.157,51.594,38.558ZM45.36,36.3h0c0,.008-.44.865,0,1.156a1.229,1.229,0,0,0,.654.129,5.927,5.927,0,0,0,1.1-.127l.011,0h0a0,0,0,0,0,0,0,0,0,0,0,1,0,0,1.628,1.628,0,0,1,0-.887c.142-.288.995-.375,1-.375l0,0c-.006-.007-.67-.7-1-.749a.242.242,0,0,0-.052,0c-.148,0-.22.107-.311.242l0,0,0,0,0,0a1.306,1.306,0,0,1-.388.414,1.486,1.486,0,0,1-.8.214,1.586,1.586,0,0,1-.2-.011h0ZM2.491,33.966a2.437,2.437,0,0,0-.274.859l-.008.039-.01.045c-.031.135-.059.261-.089.386a2.22,2.22,0,0,0,.483,1.78.371.371,0,0,0,.289.131,1.109,1.109,0,0,0,.64-.344,1.151,1.151,0,0,0-.021-1.1l-.006-.021,0,0a9.346,9.346,0,0,1-.364-1.255c0-.005-.4-.537-.586-.537A.062.062,0,0,0,2.491,33.966Zm1.6-.019A3,3,0,0,1,4.7,36.5V36.5l-.008.089V36.6c0,.024,0,.048-.006.071l0,.023c0,.049-.007.1-.01.145,1.419-.367,1.515-1.09,1.675-2.287,0-.025.008-.05.011-.076,0-.01,0-.019,0-.028l0-.027c.043-.3.083-.582.143-.882a5.708,5.708,0,0,1-1.236-.368l-.008,0a6.926,6.926,0,0,0-1.174-.378Zm8.687-4.185.008.026,0,.013,0,.013,0,.01,0,0c.292.857.692,2.031,1.53,2.031a1.1,1.1,0,0,0,.214-.024c1.311-.291,2.371-1.793,2.925-3.1a4.251,4.251,0,0,0,.228-2.569,14,14,0,0,0-.636,1.255l0,0-.013.032,0,0c-.534,1.155-1.038,2.245-2.166,2.6a.539.539,0,0,1-.091.009,7.6,7.6,0,0,1-2.245-.947l0,0A5.543,5.543,0,0,1,12.778,29.761Zm2.194-8.3,0,0,0,0-.008.011a10.51,10.51,0,0,0-1.079,1.759c-.083,1.74.333,1.877.7,2,.437.142.814.265.267,2.962l0,0,.006,0a2.306,2.306,0,0,0,1.109-.756,7.348,7.348,0,0,0,.507-2.079V25.35c.024-.146.078-.641-.229-.865a.278.278,0,0,0-.177-.054,1.093,1.093,0,0,0-.347.088h0l0,0,0,0h0l-.008,0,0,0-.006,0a1.014,1.014,0,0,1-.323.082c-.146,0-.237-.089-.289-.28a15.769,15.769,0,0,1-.1-2.832c0-.013,0-.021,0-.022v-.019h0ZM30.264,65.314a5.524,5.524,0,0,1-.87-2.413c.387-2.436,3.1-6.327,3.13-6.366l0,.007c.337.53,3.292,5.216,3.292,6.36a3.528,3.528,0,0,1-.564,1.727c-.311.512-.67.869-.872.869a.141.141,0,0,1-.067-.016,16.775,16.775,0,0,1-1.71-1.793v0c-.118.187-1.176,1.829-1.94,1.829A.509.509,0,0,1,30.264,65.314Zm-13.485-10.4c-.013-2.152.213-3.578,1.408-4.5a20.331,20.331,0,0,0,4.922-1.649A6.383,6.383,0,0,1,25,48.1a37.246,37.246,0,0,0,6.129,2.314,1.621,1.621,0,0,1,.134,1.217c-.151.734-.733,1.947-2.651,3.563a35.576,35.576,0,0,0-1.993,2.95l0,.007a4.981,4.981,0,0,1-1.652,1.975,7.108,7.108,0,0,1-3.3.449C19.273,59.933,16.475,57.07,16.779,54.912Zm23.314,5.216a4.983,4.983,0,0,1-1.652-1.973,35.42,35.42,0,0,0-2-2.958c-1.918-1.616-2.5-2.83-2.651-3.563a1.615,1.615,0,0,1,.134-1.217c0-.015.018-.055.024-.055,2.945-1.037,3.351-1.436,3.569-1.651s.269-.264,2.535-.608a6.387,6.387,0,0,1,1.892.663,20.274,20.274,0,0,0,4.923,1.651c1.2.919,1.421,2.344,1.408,4.5.3,2.158-2.494,5.021-4.885,5.664A7.113,7.113,0,0,1,40.094,60.128ZM30.737,32.751s-.671-.175-1.242-1.62c.846-.175,1.074.025,1.3.224a1.086,1.086,0,0,0,1.048.27,4.979,4.979,0,0,0,2.5-1.358,11.8,11.8,0,0,1-.353,1.467c-.2.58-.543.842-1.357,1.1a2.394,2.394,0,0,1-.707.1A4.574,4.574,0,0,1,30.737,32.751Zm29.2-7.079c.055-.53.1-1.075.136-1.62l.007-.071v-.017s0,0,0,0a4.371,4.371,0,0,1-.142,1.7h0ZM38.489,1.147c.074-.128.126-.2.132-.211l.012-.021,0,0a.019.019,0,0,0,0-.008l0,0,0,0c-.024.093-.076.248-.146.248Z" fill="#ff8282"/>
</svg>
