<?xml version="1.0" encoding="UTF-8" standalone="no"?>
<!DOCTYPE svg PUBLIC "-//W3C//DTD SVG 1.1//EN" "http://www.w3.org/Graphics/SVG/1.1/DTD/svg11.dtd">
<svg xmlns="http://www.w3.org/2000/svg" version="1.1" viewBox="0.00 0.00 65.00 77.00">
<path fill="#000000" d="
  M 46.05 29.83
  L 46.85 32.64
  A 0.30 0.29 72.2 0 0 47.23 32.84
  L 47.47 32.76
  A 0.27 0.27 0.0 0 0 47.63 32.42
  L 46.77 29.93
  A 0.31 0.30 78.1 0 0 46.47 29.73
  Q 46.24 29.74 46.05 29.83
  Q 45.77 28.41 46.23 27.62
  A 0.77 0.77 0.0 0 1 47.62 27.75
  L 48.64 30.67
  A 0.25 0.25 0.0 0 0 49.12 30.67
  L 49.57 29.35
  A 0.08 0.06 -52.0 0 0 49.57 29.28
  Q 47.73 25.50 47.62 20.91
  A 2.87 2.69 -39.0 0 1 47.74 20.04
  Q 49.02 15.93 53.55 15.27
  A 0.21 0.21 0.0 0 1 53.68 15.66
  Q 51.00 17.21 50.10 19.61
  A 0.84 0.84 0.0 0 0 51.37 20.59
  L 53.87 18.81
  A 0.23 0.22 -10.0 0 1 54.22 19.05
  Q 54.14 19.34 52.43 20.89
  A 0.56 0.56 0.0 0 0 53.15 21.75
  L 55.04 20.30
  A 0.18 0.18 0.0 0 1 55.31 20.53
  L 53.74 23.26
  A 1.30 1.27 47.0 0 0 53.71 24.49
  Q 55.21 27.43 55.49 30.65
  A 0.29 0.29 0.0 0 0 56.03 30.77
  L 56.62 29.74
  A 0.21 0.18 -40.3 0 0 56.64 29.62
  Q 55.88 26.37 57.21 26.44
  A 0.46 0.45 -7.8 0 1 57.61 26.74
  L 57.73 27.07
  A 0.60 0.53 -75.1 0 0 57.82 27.25
  Q 58.54 28.17 59.42 26.72
  A 0.25 0.25 0.0 0 1 59.87 26.91
  Q 59.10 29.90 57.68 32.35
  A 2.64 2.62 -48.9 0 0 57.87 35.27
  L 61.16 39.55
  A 0.46 0.46 0.0 0 0 61.97 39.18
  Q 61.63 37.56 62.76 36.10
  A 0.22 0.22 0.0 0 1 63.16 36.25
  Q 63.09 37.60 64.04 39.57
  A 3.77 3.67 -61.9 0 1 64.40 40.82
  Q 65.01 46.84 60.43 49.11
  A 1.01 1.00 -30.1 0 0 60.04 50.57
  Q 60.84 51.74 61.02 53.33
  A 0.42 0.41 61.7 0 0 61.75 53.55
  Q 62.79 52.33 62.40 51.26
  A 0.69 0.69 0.0 0 1 63.55 50.54
  Q 65.44 52.53 63.96 54.91
  A 1.48 1.35 -83.9 0 1 63.36 55.44
  C 62.07 56.05 60.48 56.94 59.63 58.34
  Q 57.91 61.14 54.10 61.21
  A 1.06 1.04 -71.0 0 0 53.30 61.61
  L 51.63 63.82
  A 0.66 0.65 46.7 0 0 51.61 64.60
  Q 51.75 64.78 52.04 65.19
  A 4.36 3.72 43.3 0 1 52.52 69.55
  Q 50.10 73.94 44.64 71.61
  A 0.25 0.25 0.0 0 0 44.29 71.88
  Q 44.66 74.31 42.23 75.49
  C 39.42 76.86 36.01 75.96 33.07 75.05
  A 1.39 1.38 -50.1 0 0 31.99 75.15
  Q 29.25 76.59 24.49 76.10
  Q 20.47 75.69 20.32 72.30
  A 0.59 0.58 -4.6 0 0 19.67 71.75
  Q 19.15 71.80 17.48 72.44
  Q 15.28 73.28 13.47 71.27
  Q 11.51 69.08 12.73 65.26
  Q 13.12 64.04 13.03 63.69
  Q 12.93 63.34 12.26 62.96
  C 11.09 62.30 10.74 60.10 10.88 58.91
  A 1.29 1.27 -67.4 0 0 10.42 57.77
  L 5.95 54.10
  A 1.21 1.20 -80.1 0 1 5.59 53.58
  L 3.81 48.45
  A 0.28 0.28 0.0 0 1 4.25 48.14
  Q 5.42 49.08 6.68 47.57
  A 0.41 0.41 0.0 0 0 6.53 46.93
  C 4.28 45.96 3.01 45.81 1.93 43.57
  A 1.35 1.34 39.6 0 1 1.84 42.66
  L 2.47 40.11
  A 0.95 0.94 -63.3 0 0 2.17 39.18
  C -0.59 36.82 0.84 34.59 1.30 31.74
  A 0.96 0.95 -50.5 0 0 1.26 31.31
  L 0.14 28.09
  A 0.66 0.65 5.4 0 1 1.09 27.31
  L 2.93 28.37
  A 1.93 1.93 0.0 0 0 5.73 27.29
  Q 7.15 22.83 9.47 20.83
  Q 10.80 19.69 10.90 18.36
  Q 11.16 14.60 14.47 14.24
  A 0.31 0.31 0.0 0 1 14.67 14.82
  Q 12.97 15.87 12.86 18.37
  A 0.69 0.67 -82.2 0 0 13.37 19.06
  Q 13.61 19.12 13.62 19.13
  A 0.46 0.46 0.0 0 1 13.75 19.85
  L 10.23 23.70
  A 0.29 0.24 66.6 0 0 10.17 23.90
  L 10.28 24.64
  A 0.31 0.31 0.0 0 0 10.84 24.79
  L 15.78 18.31
  A 0.58 0.47 -27.7 0 0 15.87 18.10
  Q 16.23 16.41 16.38 16.13
  Q 18.36 12.64 17.86 9.71
  C 17.36 6.80 17.92 5.32 20.92 5.12
  A 0.30 0.30 0.0 0 1 21.10 5.67
  Q 19.84 6.50 20.10 7.21
  A 0.47 0.46 55.2 0 0 20.88 7.36
  Q 24.10 3.69 28.00 3.20
  A 0.51 0.50 -59.1 0 1 28.24 4.17
  C 25.50 5.23 25.26 7.83 23.19 9.56
  Q 22.06 10.51 21.82 11.26
  A 4.09 3.84 -36.4 0 0 21.61 12.40
  L 21.36 19.32
  A 0.95 0.95 0.0 0 1 19.66 19.86
  L 18.56 18.43
  A 0.25 0.25 0.0 0 0 18.13 18.50
  L 16.85 22.20
  A 0.25 0.25 0.0 0 0 17.23 22.48
  Q 17.50 22.27 18.33 21.13
  A 0.40 0.40 0.0 0 1 19.02 21.52
  L 18.20 23.58
  A 0.40 0.40 0.0 0 0 18.17 23.81
  Q 18.24 24.20 18.64 24.16
  A 0.14 0.14 0.0 0 0 18.76 24.09
  Q 19.66 22.57 20.86 21.83
  C 22.86 20.59 23.52 19.51 24.30 17.66
  A 1.08 1.07 46.8 0 0 24.32 16.91
  L 23.26 13.86
  A 1.71 1.66 -43.1 0 1 23.32 12.61
  Q 24.78 9.48 28.54 7.69
  A 0.30 0.29 -89.5 0 1 28.93 8.09
  L 27.35 11.28
  A 1.22 1.20 56.5 0 0 27.22 11.94
  Q 27.44 14.89 28.97 17.22
  A 0.31 0.31 0.0 0 0 29.48 17.23
  Q 30.50 15.80 30.32 14.80
  C 29.84 12.12 30.87 10.11 33.75 9.77
  A 0.37 0.37 0.0 0 1 34.14 10.28
  Q 34.10 10.38 33.47 10.87
  C 32.73 11.46 32.44 12.38 32.62 13.26
  A 0.33 0.33 0.0 0 0 33.23 13.34
  L 35.18 9.68
  A 1.39 1.36 -31.2 0 0 35.35 9.02
  L 35.35 4.23
  A 0.78 0.76 -31.7 0 1 35.44 3.87
  Q 36.71 1.50 37.79 0.54
  A 0.46 0.45 78.8 0 1 38.52 1.03
  L 37.51 3.93
  A 1.68 1.63 45.8 0 0 37.51 5.02
  L 39.27 10.05
  A 0.84 0.84 0.0 0 0 40.88 9.97
  C 41.43 7.60 40.88 5.47 40.68 2.66
  A 0.26 0.26 0.0 0 1 41.18 2.56
  C 41.70 4.12 44.56 12.81 40.14 12.66
  Q 38.96 12.62 38.53 10.97
  Q 38.25 9.85 38.24 9.21
  A 0.34 0.34 0.0 0 0 37.61 9.04
  C 36.21 11.46 38.36 12.35 38.23 14.10
  Q 38.13 15.34 38.02 16.50
  A 0.42 0.42 0.0 0 0 38.40 16.97
  L 38.46 16.97
  A 0.44 0.44 0.0 0 0 38.94 16.48
  Q 38.71 14.30 42.99 13.02
  C 44.66 12.52 44.42 11.80 45.37 11.22
  A 0.34 0.34 0.0 0 1 45.88 11.54
  C 45.52 15.06 40.74 15.37 42.01 18.84
  A 0.99 0.96 49.3 0 1 41.96 19.63
  Q 40.36 22.70 37.56 23.25
  A 2.69 2.66 19.6 0 0 36.43 23.78
  Q 33.76 25.97 37.13 29.08
  A 0.49 0.49 0.0 0 0 37.92 28.56
  C 37.70 27.91 36.71 27.65 36.64 26.44
  Q 36.54 24.57 37.79 24.10
  A 0.71 0.71 0.0 0 1 38.54 25.26
  Q 38.35 25.45 38.19 25.93
  A 0.96 0.96 0.0 0 0 38.45 26.93
  Q 40.44 28.75 41.26 31.64
  A 0.30 0.29 -16.7 0 0 41.64 31.84
  L 41.96 31.73
  A 0.08 0.07 -21.7 0 0 42.01 31.63
  Q 41.04 28.97 42.29 27.29
  A 1.74 1.68 4.6 0 1 42.96 26.74
  Q 44.69 25.90 46.44 23.92
  A 0.52 0.52 0.0 0 1 47.27 24.53
  Q 45.83 26.96 43.91 28.47
  A 1.50 1.49 -38.0 0 0 43.65 30.56
  Q 44.52 31.67 44.42 33.48
  A 0.39 0.39 0.0 0 0 45.18 33.62
  Q 45.61 32.36 45.39 30.84
  Q 45.33 30.43 45.47 30.13
  Q 45.67 29.73 46.05 29.83
  Z
  M 34.18 30.38
  Q 34.11 30.22 33.96 30.07
  A 0.53 0.50 -20.3 0 0 33.58 29.91
  L 30.55 29.91
  A 0.85 0.84 -9.7 0 1 29.75 29.35
  C 28.43 25.75 30.19 24.11 32.69 21.57
  A 3.09 2.84 81.2 0 0 33.28 20.69
  L 34.41 18.10
  A 0.22 0.22 0.0 0 0 34.02 17.89
  Q 33.69 18.37 32.95 20.02
  A 3.56 3.49 79.0 0 1 32.31 20.99
  Q 29.18 24.43 28.69 25.66
  Q 26.80 30.31 30.21 33.17
  A 2.67 2.67 0.0 0 0 33.56 33.25
  L 35.26 31.95
  A 0.47 0.47 0.0 0 1 35.99 32.47
  L 35.00 35.32
  A 1.41 1.41 0.0 0 0 36.92 37.06
  Q 37.35 36.86 38.07 36.45
  A 0.24 0.23 85.0 0 1 38.41 36.74
  Q 37.41 39.37 35.17 38.78
  A 1.91 1.90 75.8 0 1 34.25 38.23
  Q 32.34 36.27 28.66 35.63
  A 2.05 2.02 -18.8 0 1 27.63 35.13
  C 24.85 32.59 22.65 29.98 24.10 25.97
  A 0.30 0.30 0.0 0 0 23.62 25.64
  Q 22.21 26.82 21.78 28.59
  A 1.16 1.16 0.0 0 0 21.99 29.55
  L 25.73 34.43
  A 0.81 0.76 -64.3 0 1 25.89 34.94
  Q 25.80 36.18 26.96 37.54
  A 0.67 0.67 0.0 0 0 27.81 37.69
  L 28.72 37.17
  A 1.35 1.35 0.0 0 1 30.52 39.09
  Q 29.94 39.97 28.99 40.67
  A 1.06 1.05 -54.3 0 1 28.03 40.83
  Q 25.28 39.94 23.78 37.64
  A 1.31 1.30 35.9 0 1 23.61 36.61
  Q 24.27 34.08 21.81 31.91
  A 0.26 0.26 0.0 0 0 21.39 32.15
  Q 22.03 35.63 19.59 35.70
  A 0.51 0.50 -15.5 0 0 19.16 36.45
  L 20.23 38.29
  A 0.90 0.89 59.9 0 0 21.45 38.62
  L 22.60 37.96
  A 0.54 0.54 0.0 0 1 23.27 38.78
  C 20.66 41.67 23.38 43.75 26.19 42.87
  A 0.46 0.45 85.2 0 1 26.77 43.37
  Q 26.62 44.39 26.04 44.95
  A 1.23 1.21 24.5 0 1 25.13 45.28
  Q 22.70 45.12 20.60 43.56
  A 1.81 1.80 -72.0 0 1 19.86 42.10
  L 19.86 41.22
  A 0.95 0.93 -79.6 0 0 19.26 40.34
  Q 17.83 39.79 16.97 37.78
  A 1.64 1.60 41.1 0 1 16.89 36.76
  Q 17.07 36.06 18.61 33.40
  Q 19.09 32.58 18.79 31.84
  A 0.21 0.21 0.0 0 0 18.40 31.86
  Q 17.69 34.53 15.12 35.87
  A 1.03 1.03 0.0 0 0 14.57 36.78
  L 14.57 39.74
  A 0.97 0.97 0.0 0 0 14.94 40.50
  Q 16.65 41.83 18.18 42.36
  A 1.25 1.23 -80.4 0 1 19.00 43.53
  L 19.00 43.93
  A 0.84 0.84 0.0 0 1 17.94 44.74
  Q 17.46 44.62 16.43 44.10
  C 15.13 43.44 13.86 44.07 12.75 43.01
  A 0.34 0.34 0.0 0 0 12.18 43.22
  C 11.98 45.37 12.28 47.00 14.71 46.90
  Q 15.09 46.88 15.13 46.51
  Q 15.17 46.15 15.41 45.89
  A 0.56 0.56 0.0 0 1 16.31 45.96
  C 17.80 48.39 16.31 50.42 14.93 53.18
  A 3.91 3.87 50.1 0 0 14.69 56.07
  Q 15.38 58.31 17.12 60.15
  A 0.27 0.26 -23.8 0 1 16.94 60.60
  Q 16.72 60.62 15.30 59.88
  A 0.47 0.46 15.0 0 0 14.62 60.27
  Q 14.54 62.28 15.09 64.14
  A 1.00 0.98 -34.8 0 1 14.92 65.04
  Q 13.82 66.46 14.03 67.97
  C 14.34 70.15 15.87 70.39 17.74 70.83
  C 19.22 71.17 20.32 69.75 20.39 68.22
  Q 20.46 66.39 20.63 65.70
  A 0.72 0.72 0.0 0 1 21.90 65.44
  L 22.89 66.74
  A 1.33 1.32 41.4 0 1 22.99 68.22
  L 21.74 70.38
  A 1.08 1.08 0.0 0 0 21.61 71.00
  Q 21.75 72.53 23.17 73.69
  A 0.40 0.39 19.8 0 0 23.82 73.39
  Q 23.81 73.28 23.39 72.86
  A 0.74 0.72 -52.8 0 1 23.28 71.98
  L 24.22 70.35
  A 0.65 0.64 -61.2 0 1 25.08 70.10
  Q 26.09 70.63 26.53 69.16
  A 0.95 0.94 8.2 0 1 27.44 68.49
  L 29.51 68.49
  A 0.61 0.59 -77.9 0 0 30.06 68.12
  Q 30.11 68.01 30.18 67.83
  A 0.67 0.67 0.0 0 1 31.27 67.60
  Q 32.49 68.77 33.90 67.68
  A 0.68 0.68 0.0 0 1 34.82 67.77
  Q 35.76 68.87 37.21 68.26
  A 0.75 0.75 0.0 0 1 38.21 68.71
  L 38.49 69.49
  A 0.95 0.94 -14.4 0 0 39.55 70.11
  Q 39.60 70.10 39.62 70.09
  A 1.68 1.68 0.0 0 1 40.79 70.47
  Q 42.21 71.65 41.42 73.09
  A 0.28 0.28 0.0 0 0 41.67 73.51
  L 42.11 73.51
  A 0.83 0.82 -80.6 0 0 42.89 72.95
  L 43.57 71.00
  A 0.54 0.53 41.2 0 0 43.54 70.59
  L 42.15 67.76
  A 1.02 1.02 0.0 0 1 42.55 66.43
  L 44.41 65.36
  A 0.27 0.26 74.6 0 1 44.81 65.59
  L 44.81 68.40
  A 2.32 2.32 0.0 0 0 46.97 70.71
  Q 50.91 70.99 51.34 67.18
  A 1.10 1.08 -61.4 0 0 51.11 66.38
  L 50.05 64.99
  A 0.93 0.89 -55.0 0 1 49.92 64.14
  Q 50.45 62.66 50.55 60.87
  C 50.63 59.50 51.84 59.13 52.06 57.70
  A 0.42 0.42 0.0 0 0 51.68 57.22
  L 51.67 57.22
  A 0.50 0.50 0.0 0 0 51.12 57.70
  Q 51.05 59.70 48.70 60.34
  A 0.21 0.21 0.0 0 1 48.47 60.03
  L 50.41 56.67
  A 1.36 1.35 53.3 0 0 50.55 55.67
  Q 49.82 52.80 48.00 50.10
  A 0.57 0.53 30.4 0 1 47.91 49.80
  L 47.91 46.22
  A 1.08 1.06 -17.4 0 1 48.38 45.34
  Q 50.09 44.17 49.04 41.64
  A 0.44 0.44 0.0 0 0 48.32 41.49
  Q 47.65 42.15 46.22 42.13
  A 1.39 1.37 20.3 0 0 45.18 42.60
  Q 43.99 43.96 42.58 43.79
  A 1.29 1.29 0.0 0 1 41.63 43.16
  L 40.79 41.70
  A 0.26 0.26 0.0 0 1 41.10 41.33
  L 42.51 41.82
  A 0.72 0.72 0.0 0 0 43.46 41.14
  L 43.46 40.32
  A 0.58 0.57 -84.0 0 1 44.15 39.75
  Q 48.56 40.70 50.33 36.74
  A 0.94 0.92 42.1 0 0 50.28 35.88
  L 50.16 35.65
  A 0.85 0.83 41.8 0 1 50.11 34.87
  C 51.36 31.95 54.15 29.12 51.18 26.14
  A 0.27 0.27 0.0 0 0 50.73 26.39
  C 51.26 28.88 52.04 30.71 50.41 32.36
  C 49.35 33.43 49.35 34.29 49.40 36.05
  A 2.16 2.14 -33.5 0 1 49.19 37.06
  Q 47.77 40.08 44.53 38.53
  A 1.33 1.30 -88.4 0 1 43.89 37.84
  L 43.10 35.88
  A 2.00 1.98 -79.9 0 0 42.59 35.14
  Q 40.38 33.12 38.19 33.55
  A 0.75 0.74 20.4 0 1 37.58 32.23
  L 38.17 31.78
  A 0.44 0.43 42.9 0 0 38.14 31.07
  Q 36.19 29.80 34.18 30.38
  Z
  M 15.13 27.96
  Q 15.27 27.99 15.45 27.94
  A 1.37 0.92 -30.5 0 1 15.63 27.89
  Q 15.65 27.88 16.51 25.41
  A 0.58 0.57 21.0 0 0 16.19 24.70
  Q 14.99 24.21 14.84 22.34
  A 0.43 0.42 42.8 0 0 13.99 22.37
  L 13.99 24.24
  A 0.93 0.92 19.2 0 0 14.35 24.97
  Q 15.51 25.85 14.97 27.70
  A 0.20 0.20 0.0 0 0 15.13 27.96
  Z
  M 17.38 27.09
  Q 16.56 28.97 15.03 29.75
  A 1.16 1.12 -41.6 0 1 13.88 29.70
  Q 13.59 29.52 13.57 29.51
  A 0.50 0.50 0.0 0 0 12.84 29.99
  Q 12.91 30.95 14.08 31.62
  A 0.92 0.91 41.8 0 0 15.08 31.57
  Q 17.30 29.94 17.81 27.22
  A 0.23 0.23 0.0 0 0 17.38 27.09
  Z
  M 9.75 28.29
  C 8.82 29.78 9.34 31.35 8.57 32.69
  A 1.45 1.44 47.3 0 0 8.52 34.02
  Q 9.41 35.86 8.25 37.84
  Q 7.10 39.80 9.22 40.35
  A 0.73 0.73 0.0 0 0 10.13 39.54
  Q 9.99 38.50 9.77 38.27
  A 0.57 0.55 32.9 0 1 9.64 37.70
  L 10.79 34.37
  A 0.93 0.92 30.4 0 0 10.53 33.38
  Q 10.29 33.16 10.27 33.13
  A 1.75 1.75 0.0 0 1 9.81 31.76
  L 10.15 28.42
  A 0.22 0.21 -26.5 0 0 9.75 28.29
  Z
  M 6.12 33.13
  L 4.64 33.11
  A 0.29 0.29 0.0 0 0 4.34 33.39
  L 4.34 33.55
  A 2.95 0.95 -89.0 0 0 5.24 36.52
  L 5.40 36.52
  A 2.95 0.95 -89.0 0 0 6.40 33.59
  L 6.40 33.43
  A 0.29 0.29 0.0 0 0 6.12 33.13
  Z
  M 2.31 35.72
  Q 2.31 35.99 2.57 36.85
  A 0.32 0.32 0.0 0 0 3.14 36.94
  Q 3.51 36.40 3.51 35.52
  Q 3.51 35.25 3.25 34.39
  A 0.32 0.32 0.0 0 0 2.67 34.30
  Q 2.30 34.84 2.31 35.72
  Z
  M 53.63 37.22
  Q 52.65 38.19 51.33 38.79
  A 0.41 0.41 0.0 0 0 51.51 39.58
  Q 53.11 39.51 54.52 38.13
  Q 55.93 36.74 56.02 35.14
  A 0.41 0.41 0.0 0 0 55.24 34.94
  Q 54.61 36.26 53.63 37.22
  Z
  M 47.22 35.53
  Q 45.45 36.10 45.40 37.08
  A 0.53 0.53 0.0 0 0 45.98 37.63
  Q 47.68 37.44 47.62 35.81
  A 0.31 0.31 0.0 0 0 47.22 35.53
  Z
  M 52.92 42.10
  Q 54.31 40.88 54.37 40.65
  A 0.62 0.62 0.0 0 0 53.22 40.20
  L 52.46 41.76
  A 0.29 0.29 0.0 0 0 52.92 42.10
  Z
  M 55.11 42.88
  Q 55.47 43.07 56.40 41.90
  Q 57.48 40.53 56.63 40.07
  Q 55.78 39.61 55.22 41.26
  Q 54.74 42.68 55.11 42.88
  Z
  M 59.37 43.13
  Q 59.18 43.68 58.11 44.65
  A 0.39 0.39 0.0 0 0 58.43 45.31
  Q 60.08 45.04 60.60 43.57
  Q 61.13 42.09 60.02 40.84
  A 0.39 0.39 0.0 0 0 59.35 41.16
  Q 59.57 42.58 59.37 43.13
  Z
  M 52.82 46.81
  Q 52.83 45.84 51.85 44.89
  A 0.25 0.25 0.0 0 0 51.44 45.12
  Q 51.68 46.34 52.29 47.01
  A 0.30 0.30 0.0 0 0 52.82 46.81
  Z
  M 56.92 46.43
  A 0.13 0.13 0.0 0 0 56.75 46.57
  C 57.08 49.01 59.02 51.58 56.76 53.88
  Q 55.60 55.06 55.01 57.56
  A 0.44 0.44 0.0 0 0 55.71 58.00
  Q 57.18 56.81 58.64 54.37
  A 2.07 2.06 -33.6 0 0 58.92 52.99
  L 58.34 49.05
  A 1.20 1.18 -27.9 0 1 58.65 48.07
  Q 58.93 47.78 59.02 47.58
  A 0.37 0.37 0.0 0 0 58.80 47.08
  L 56.92 46.43
  Z
  M 52.48 51.14
  Q 51.44 50.00 50.93 47.21
  A 0.11 0.11 0.0 0 0 50.82 47.11
  L 50.19 47.11
  A 0.31 0.31 0.0 0 0 49.90 47.53
  Q 50.45 48.99 50.60 50.37
  Q 50.64 50.76 51.18 51.27
  Q 51.87 51.91 52.26 51.83
  A 0.42 0.42 0.0 0 0 52.48 51.14
  Z
  M 14.41 48.70
  Q 13.86 48.57 13.11 48.56
  A 0.93 0.80 56.1 0 0 12.91 50.23
  Q 14.00 50.83 14.76 49.57
  A 0.59 0.58 -67.3 0 0 14.41 48.70
  Z
  M 6.60 50.13
  Q 6.88 52.12 8.59 53.07
  A 0.45 0.45 0.0 0 0 9.17 52.40
  L 7.23 49.87
  A 0.35 0.35 0.0 0 0 6.60 50.13
  Z
  M 12.06 53.13
  Q 11.82 54.01 12.64 54.66
  A 0.42 0.41 -59.1 0 0 13.28 54.49
  Q 13.47 54.05 13.60 53.55
  Q 13.74 53.06 13.80 52.58
  A 0.42 0.41 89.6 0 0 13.33 52.12
  Q 12.30 52.25 12.06 53.13
  Z
  M 52.29 53.63
  L 51.37 54.83
  A 0.20 0.20 0.0 0 0 51.60 55.14
  Q 52.74 54.73 52.92 53.93
  A 0.36 0.36 0.0 0 0 52.29 53.63
  Z
  M 13.18 57.89
  Q 13.03 58.23 13.23 58.68
  Q 13.36 59.00 13.77 58.70
  Q 13.88 58.62 13.83 58.13
  A 0.39 0.32 59.6 0 0 13.18 57.89
  Z
  M 32.68 72.69
  Q 32.72 72.72 32.89 73.05
  A 1.18 1.11 -49.6 0 0 34.98 72.82
  Q 35.70 70.85 35.02 68.86
  A 0.78 0.76 82.2 0 0 34.36 68.35
  Q 33.57 68.28 32.80 68.98
  A 0.44 0.43 45.5 0 1 32.20 68.97
  Q 31.52 68.31 30.62 68.40
  A 0.82 0.81 -85.5 0 0 29.90 69.02
  Q 29.32 71.36 30.68 73.62
  A 0.69 0.66 -12.9 0 0 31.23 73.95
  Q 32.22 73.98 32.32 72.85
  A 0.23 0.22 20.8 0 1 32.68 72.69
  Z
  M 27.7747 68.8227
  A 2.78 1.25 -98.8 0 0 26.9647 71.7612
  A 2.78 1.25 -98.8 0 0 28.6253 74.3173
  A 2.78 1.25 -98.8 0 0 29.4353 71.3788
  A 2.78 1.25 -98.8 0 0 27.7747 68.8227
  Z
  M 37.97 69.26
  L 36.42 69.06
  A 0.47 0.47 0.0 0 0 35.89 69.46
  L 35.66 71.20
  A 2.70 1.10 -82.4 0 0 36.40 74.02
  L 36.69 74.06
  A 2.70 1.10 -82.4 0 0 38.14 71.53
  L 38.37 69.79
  A 0.47 0.47 0.0 0 0 37.97 69.26
  Z
  M 27.15 74.67
  L 25.98 70.64
  A 0.28 0.28 0.0 0 0 25.64 70.45
  L 25.50 70.48
  A 1.84 1.64 73.8 0 0 24.44 72.71
  L 24.74 73.75
  A 1.84 1.64 73.8 0 0 26.83 75.06
  L 26.96 75.02
  A 0.28 0.28 0.0 0 0 27.15 74.67
  Z
  M 39.22 70.76
  L 38.03 74.70
  A 0.21 0.21 0.0 0 0 38.17 74.96
  L 38.26 74.99
  A 1.88 1.78 -73.2 0 0 40.50 73.70
  L 40.73 72.96
  A 1.88 1.78 -73.2 0 0 39.57 70.64
  L 39.48 70.62
  A 0.21 0.21 0.0 0 0 39.22 70.76
  Z"
/>
<path fill="#000000" d="
  M 54.66 18.31
  Q 54.86 18.20 55.06 18.21
  A 0.15 0.15 0.0 0 1 55.18 18.42
  Q 55.07 18.67 54.92 18.73
  A 0.26 0.24 15.7 0 1 54.66 18.31
  Z"
/>
<path fill="#000000" d="
  M 34.18 30.38
  C 34.19 33.10 30.98 33.87 29.84 31.77
  A 0.41 0.41 0.0 0 1 30.37 31.20
  Q 32.14 32.03 34.18 30.38
  Z"
/>
<path fill="#000000" d="
  M 31.11 52.21
  L 25.36 59.67
  A 1.11 1.07 -78.7 0 1 24.83 60.04
  C 19.38 61.79 15.54 56.98 17.28 51.88
  A 2.86 2.84 -0.3 0 1 19.05 50.11
  L 23.94 48.42
  A 3.05 2.98 44.9 0 1 25.90 48.44
  L 30.47 50.04
  A 1.40 1.39 -61.5 0 1 31.11 52.21
  Z"
/>
<path fill="#000000" d="
  M 33.98 52.21
  A 1.39 1.39 0.0 0 1 34.62 50.05
  L 39.17 48.47
  A 3.03 2.97 -44.7 0 1 41.12 48.46
  L 45.99 50.15
  A 2.84 2.83 0.5 0 1 47.74 51.92
  C 49.46 57.00 45.62 61.77 40.21 60.02
  A 1.10 1.06 78.9 0 1 39.68 59.65
  L 33.98 52.21
  Z"
/>
<path fill="#000000" d="
  M 33.00 57.01
  L 35.68 62.23
  A 1.17 1.15 -52.7 0 1 35.78 63.01
  Q 35.43 64.64 34.37 65.40
  A 0.45 0.44 66.6 0 1 33.68 65.12
  Q 33.41 63.75 32.47 63.90
  A 0.36 0.34 -76.4 0 0 32.22 64.06
  L 31.72 64.78
  A 1.19 1.19 0.0 0 1 29.55 63.98
  Q 30.01 59.60 32.33 56.92
  A 0.41 0.41 0.0 0 1 33.00 57.01
  Z"
/>
</svg>
