<?xml version="1.0" encoding="UTF-8" standalone="no"?>
<!DOCTYPE svg PUBLIC "-//W3C//DTD SVG 1.1//EN" "http://www.w3.org/Graphics/SVG/1.1/DTD/svg11.dtd">
<svg xmlns="http://www.w3.org/2000/svg" version="1.1" viewBox="0.00 0.00 80.00 80.00">
<g stroke-width="2.00" fill="none" stroke-linecap="butt">
<path stroke="#775721" vector-effect="non-scaling-stroke" d="
  M 73.24 61.00
  Q 72.51 60.66 72.02 60.96"
/>
<path stroke="#f6d6a1" vector-effect="non-scaling-stroke" d="
  M 72.02 60.96
  Q 72.10 60.64 72.17 60.32"
/>
<path stroke="#775721" vector-effect="non-scaling-stroke" d="
  M 72.17 60.32
  Q 76.35 54.24 77.61 46.93
  C 79.88 33.76 75.16 19.74 64.85 11.11
  C 58.65 5.92 50.24 2.38 41.82 2.27
  C 40.03 2.24 36.33 1.89 33.30 2.77
  A 0.41 0.41 0.0 0 0 33.33 3.56
  Q 33.34 3.57 33.47 3.73
  A 0.16 0.08 26.6 0 1 33.50 3.77
  Q 33.72 4.16 33.50 4.55"
/>
<path stroke="#f6d6a1" vector-effect="non-scaling-stroke" d="
  M 33.50 4.55
  Q 32.14 4.51 31.10 5.21"
/>
<path stroke="#775721" vector-effect="non-scaling-stroke" d="
  M 31.10 5.21
  Q 31.07 4.21 30.83 3.64
  A 0.62 0.62 0.0 0 0 30.11 3.28
  C 16.65 6.89 6.16 17.96 2.98 31.31
  C -1.86 51.68 10.75 71.08 30.28 76.74
  C 35.04 78.12 41.42 78.25 45.74 77.60
  Q 51.17 76.79 56.44 74.37
  Q 57.19 74.02 61.64 71.07
  Q 64.28 69.32 67.18 68.29"
/>
<path stroke="#775721" vector-effect="non-scaling-stroke" d="
  M 44.21 79.06
  L 43.47 79.13"
/>
<path stroke="#775721" vector-effect="non-scaling-stroke" d="
  M 36.46 79.12
  Q 36.09 79.06 35.75 79.15"
/>
<path stroke="#808080" vector-effect="non-scaling-stroke" d="
  M 42.06 71.02
  Q 41.27 69.87 39.77 70.07
  A 0.31 0.31 0.0 0 0 39.77 70.69
  L 42.06 71.02"
/>
<path stroke="#808080" vector-effect="non-scaling-stroke" d="
  M 72.17 60.32
  Q 56.60 69.52 39.73 72.43
  Q 39.60 72.45 39.60 72.23
  A 0.13 0.13 0.0 0 1 39.72 72.10
  Q 41.42 71.94 42.06 71.02
  Q 44.32 71.29 46.40 70.40
  C 47.36 69.99 48.23 70.30 48.93 69.88
  Q 49.65 69.44 50.51 69.20
  Q 61.42 66.15 71.19 59.88
  A 0.44 0.43 53.1 0 0 71.28 59.23
  L 71.06 59.04
  A 0.36 0.34 51.0 0 0 70.68 58.99
  L 58.84 65.10
  A 0.23 0.22 61.1 0 1 58.54 65.01
  L 58.41 64.78
  A 0.08 0.07 65.8 0 1 58.44 64.69
  L 70.44 58.50
  A 1.11 1.10 -22.0 0 0 70.99 57.22
  L 70.92 56.95
  A 0.84 0.83 -37.9 0 0 69.84 56.82
  Q 56.08 66.05 40.17 69.24
  A 0.11 0.10 75.8 0 1 40.06 69.17
  L 39.98 68.93
  A 0.32 0.32 0.0 0 1 40.22 68.52
  C 51.70 66.21 64.77 61.00 73.34 52.76
  A 1.09 1.09 0.0 0 0 73.43 51.28
  L 70.82 48.05
  A 0.75 0.75 0.0 0 0 69.70 48.00
  Q 60.15 57.79 48.22 63.97
  Q 43.79 66.27 39.33 67.19
  A 0.24 0.24 0.0 0 1 39.18 66.74
  C 41.00 65.93 43.11 65.56 44.94 64.73
  Q 58.03 58.80 68.57 48.06
  Q 70.80 45.78 72.27 43.42
  A 0.88 0.87 -50.4 0 0 72.18 42.38
  L 40.93 7.21
  A 0.96 0.96 0.0 0 0 39.57 7.13
  L 39.01 7.63
  A 1.48 1.48 0.0 0 0 38.84 9.67
  L 63.15 39.71
  A 2.48 2.47 -54.3 0 1 63.54 42.14
  C 60.06 51.46 49.22 64.15 38.58 64.52
  A 0.75 0.75 0.0 0 0 37.85 65.27
  L 37.85 75.72
  A 0.76 0.75 -9.0 0 0 38.84 76.43
  L 69.58 66.35
  A 2.35 2.34 88.0 0 0 71.14 64.67
  L 72.02 60.96"
/>
<path stroke="#808080" vector-effect="non-scaling-stroke" d="
  M 31.10 5.21
  Q 25.88 23.51 7.60 28.17
  A 0.24 0.24 0.0 0 0 7.47 28.56
  L 36.92 62.90
  A 2.98 2.97 62.1 0 0 39.94 63.84
  C 50.39 61.08 59.38 51.62 63.00 41.48
  A 1.06 1.04 -55.0 0 0 62.83 40.45
  L 33.50 4.55"
/>
<path stroke="#808080" vector-effect="non-scaling-stroke" d="
  M 6.38 40.13
  A 0.38 0.38 0.0 0 0 6.47 40.38
  L 36.60 75.51
  A 0.38 0.38 0.0 0 0 37.27 75.26
  L 37.27 64.60
  A 0.38 0.38 0.0 0 0 37.18 64.35
  L 7.05 29.22
  A 0.38 0.38 0.0 0 0 6.38 29.47
  L 6.38 40.13"
/>
<path stroke="#808080" vector-effect="non-scaling-stroke" d="
  M 56.42 65.80
  L 57.61 65.80
  A 0.35 0.34 -38.4 0 0 57.69 65.12
  Q 56.97 64.95 56.31 65.22
  A 0.30 0.30 0.0 0 0 56.42 65.80"
/>
<path stroke="#808080" vector-effect="non-scaling-stroke" d="
  M 53.68 66.76
  L 54.94 66.76
  A 0.26 0.26 0.0 0 0 54.99 66.24
  Q 53.70 65.97 53.53 66.55
  A 0.16 0.16 0.0 0 0 53.68 66.76"
/>
<path stroke="#808080" vector-effect="non-scaling-stroke" d="
  M 50.58 67.98
  Q 52.02 67.79 52.36 67.61
  A 0.26 0.26 0.0 0 0 52.27 67.12
  Q 51.16 66.95 50.39 67.47
  A 0.28 0.28 0.0 0 0 50.58 67.98"
/>
<path stroke="#808080" vector-effect="non-scaling-stroke" d="
  M 47.63 68.83
  Q 48.57 68.83 49.19 68.52
  A 0.20 0.19 -57.7 0 0 49.11 68.15
  Q 47.60 68.13 47.42 68.34
  A 0.29 0.29 0.0 0 0 47.63 68.83"
/>
<path stroke="#808080" vector-effect="non-scaling-stroke" d="
  M 45.3796 69.4996
  A 1.09 0.33 -1.6 0 0 44.2808 69.2001
  A 1.09 0.33 -1.6 0 0 43.2004 69.5604
  A 1.09 0.33 -1.6 0 0 44.2992 69.8599
  A 1.09 0.33 -1.6 0 0 45.3796 69.4996"
/>
</g>
<path fill="#edad42" fill-opacity="0.996" d="
  M 73.24 61.00
  Q 72.51 60.66 72.02 60.96
  Q 72.10 60.64 72.17 60.32
  Q 76.35 54.24 77.61 46.93
  C 79.88 33.76 75.16 19.74 64.85 11.11
  C 58.65 5.92 50.24 2.38 41.82 2.27
  C 40.03 2.24 36.33 1.89 33.30 2.77
  A 0.41 0.41 0.0 0 0 33.33 3.56
  Q 33.34 3.57 33.47 3.73
  A 0.16 0.08 26.6 0 1 33.50 3.77
  Q 33.72 4.16 33.50 4.55
  Q 32.14 4.51 31.10 5.21
  Q 31.07 4.21 30.83 3.64
  A 0.62 0.62 0.0 0 0 30.11 3.28
  C 16.65 6.89 6.16 17.96 2.98 31.31
  C -1.86 51.68 10.75 71.08 30.28 76.74
  C 35.04 78.12 41.42 78.25 45.74 77.60
  Q 51.17 76.79 56.44 74.37
  Q 57.19 74.02 61.64 71.07
  Q 64.28 69.32 67.18 68.29
  Q 57.66 77.53 44.21 79.06
  L 43.47 79.13
  L 36.46 79.12
  Q 36.09 79.06 35.75 79.15
  C 17.06 76.57 3.47 63.43 0.81 44.88
  C -1.72 27.24 8.78 9.90 25.87 3.21
  C 41.83 -3.04 60.22 2.03 70.67 15.29
  C 81.00 28.41 82.87 46.44 73.24 61.00
  Z"
/>
<path fill="#010101" d="
  M 72.17 60.32
  Q 56.60 69.52 39.73 72.43
  Q 39.60 72.45 39.60 72.23
  A 0.13 0.13 0.0 0 1 39.72 72.10
  Q 41.42 71.94 42.06 71.02
  Q 44.32 71.29 46.40 70.40
  C 47.36 69.99 48.23 70.30 48.93 69.88
  Q 49.65 69.44 50.51 69.20
  Q 61.42 66.15 71.19 59.88
  A 0.44 0.43 53.1 0 0 71.28 59.23
  L 71.06 59.04
  A 0.36 0.34 51.0 0 0 70.68 58.99
  L 58.84 65.10
  A 0.23 0.22 61.1 0 1 58.54 65.01
  L 58.41 64.78
  A 0.08 0.07 65.8 0 1 58.44 64.69
  L 70.44 58.50
  A 1.11 1.10 -22.0 0 0 70.99 57.22
  L 70.92 56.95
  A 0.84 0.83 -37.9 0 0 69.84 56.82
  Q 56.08 66.05 40.17 69.24
  A 0.11 0.10 75.8 0 1 40.06 69.17
  L 39.98 68.93
  A 0.32 0.32 0.0 0 1 40.22 68.52
  C 51.70 66.21 64.77 61.00 73.34 52.76
  A 1.09 1.09 0.0 0 0 73.43 51.28
  L 70.82 48.05
  A 0.75 0.75 0.0 0 0 69.70 48.00
  Q 60.15 57.79 48.22 63.97
  Q 43.79 66.27 39.33 67.19
  A 0.24 0.24 0.0 0 1 39.18 66.74
  C 41.00 65.93 43.11 65.56 44.94 64.73
  Q 58.03 58.80 68.57 48.06
  Q 70.80 45.78 72.27 43.42
  A 0.88 0.87 -50.4 0 0 72.18 42.38
  L 40.93 7.21
  A 0.96 0.96 0.0 0 0 39.57 7.13
  L 39.01 7.63
  A 1.48 1.48 0.0 0 0 38.84 9.67
  L 63.15 39.71
  A 2.48 2.47 -54.3 0 1 63.54 42.14
  C 60.06 51.46 49.22 64.15 38.58 64.52
  A 0.75 0.75 0.0 0 0 37.85 65.27
  L 37.85 75.72
  A 0.76 0.75 -9.0 0 0 38.84 76.43
  L 69.58 66.35
  A 2.35 2.34 88.0 0 0 71.14 64.67
  L 72.02 60.96
  Q 72.51 60.66 73.24 61.00
  L 71.55 65.58
  A 1.27 1.23 -4.9 0 1 70.96 66.26
  L 67.18 68.29
  Q 64.28 69.32 61.64 71.07
  Q 57.19 74.02 56.44 74.37
  Q 51.17 76.79 45.74 77.60
  C 41.42 78.25 35.04 78.12 30.28 76.74
  C 10.75 71.08 -1.86 51.68 2.98 31.31
  C 6.16 17.96 16.65 6.89 30.11 3.28
  A 0.62 0.62 0.0 0 1 30.83 3.64
  Q 31.07 4.21 31.10 5.21
  Q 25.88 23.51 7.60 28.17
  A 0.24 0.24 0.0 0 0 7.47 28.56
  L 36.92 62.90
  A 2.98 2.97 62.1 0 0 39.94 63.84
  C 50.39 61.08 59.38 51.62 63.00 41.48
  A 1.06 1.04 -55.0 0 0 62.83 40.45
  L 33.50 4.55
  Q 33.72 4.16 33.50 3.77
  A 0.16 0.08 26.6 0 0 33.47 3.73
  Q 33.34 3.57 33.33 3.56
  A 0.41 0.41 0.0 0 1 33.30 2.77
  C 36.33 1.89 40.03 2.24 41.82 2.27
  C 50.24 2.38 58.65 5.92 64.85 11.11
  C 75.16 19.74 79.88 33.76 77.61 46.93
  Q 76.35 54.24 72.17 60.32
  Z
  M 6.38 40.13
  A 0.38 0.38 0.0 0 0 6.47 40.38
  L 36.60 75.51
  A 0.38 0.38 0.0 0 0 37.27 75.26
  L 37.27 64.60
  A 0.38 0.38 0.0 0 0 37.18 64.35
  L 7.05 29.22
  A 0.38 0.38 0.0 0 0 6.38 29.47
  L 6.38 40.13
  Z"
/>
<path fill="#ffffff" d="
  M 33.50 4.55
  L 62.83 40.45
  A 1.06 1.04 -55.0 0 1 63.00 41.48
  C 59.38 51.62 50.39 61.08 39.94 63.84
  A 2.98 2.97 62.1 0 1 36.92 62.90
  L 7.47 28.56
  A 0.24 0.24 0.0 0 1 7.60 28.17
  Q 25.88 23.51 31.10 5.21
  Q 32.14 4.51 33.50 4.55
  Z"
/>
<path fill="#ffffff" d="
  M 42.06 71.02
  Q 41.27 69.87 39.77 70.07
  A 0.31 0.31 0.0 0 0 39.77 70.69
  L 42.06 71.02
  Q 41.42 71.94 39.72 72.10
  A 0.13 0.13 0.0 0 0 39.60 72.23
  Q 39.60 72.45 39.73 72.43
  Q 56.60 69.52 72.17 60.32
  Q 72.10 60.64 72.02 60.96
  L 71.14 64.67
  A 2.35 2.34 88.0 0 1 69.58 66.35
  L 38.84 76.43
  A 0.76 0.75 -9.0 0 1 37.85 75.72
  L 37.85 65.27
  A 0.75 0.75 0.0 0 1 38.58 64.52
  C 49.22 64.15 60.06 51.46 63.54 42.14
  A 2.48 2.47 -54.3 0 0 63.15 39.71
  L 38.84 9.67
  A 1.48 1.48 0.0 0 1 39.01 7.63
  L 39.57 7.13
  A 0.96 0.96 0.0 0 1 40.93 7.21
  L 72.18 42.38
  A 0.88 0.87 -50.4 0 1 72.27 43.42
  Q 70.80 45.78 68.57 48.06
  Q 58.03 58.80 44.94 64.73
  C 43.11 65.56 41.00 65.93 39.18 66.74
  A 0.24 0.24 0.0 0 0 39.33 67.19
  Q 43.79 66.27 48.22 63.97
  Q 60.15 57.79 69.70 48.00
  A 0.75 0.75 0.0 0 1 70.82 48.05
  L 73.43 51.28
  A 1.09 1.09 0.0 0 1 73.34 52.76
  C 64.77 61.00 51.70 66.21 40.22 68.52
  A 0.32 0.32 0.0 0 0 39.98 68.93
  L 40.06 69.17
  A 0.11 0.10 75.8 0 0 40.17 69.24
  Q 56.08 66.05 69.84 56.82
  A 0.84 0.83 -37.9 0 1 70.92 56.95
  L 70.99 57.22
  A 1.11 1.10 -22.0 0 1 70.44 58.50
  L 58.44 64.69
  A 0.08 0.07 65.8 0 0 58.41 64.78
  L 58.54 65.01
  A 0.23 0.22 61.1 0 0 58.84 65.10
  L 70.68 58.99
  A 0.36 0.34 51.0 0 1 71.06 59.04
  L 71.28 59.23
  A 0.44 0.43 53.1 0 1 71.19 59.88
  Q 61.42 66.15 50.51 69.20
  Q 49.65 69.44 48.93 69.88
  C 48.23 70.30 47.36 69.99 46.40 70.40
  Q 44.32 71.29 42.06 71.02
  Z
  M 56.42 65.80
  L 57.61 65.80
  A 0.35 0.34 -38.4 0 0 57.69 65.12
  Q 56.97 64.95 56.31 65.22
  A 0.30 0.30 0.0 0 0 56.42 65.80
  Z
  M 53.68 66.76
  L 54.94 66.76
  A 0.26 0.26 0.0 0 0 54.99 66.24
  Q 53.70 65.97 53.53 66.55
  A 0.16 0.16 0.0 0 0 53.68 66.76
  Z
  M 50.58 67.98
  Q 52.02 67.79 52.36 67.61
  A 0.26 0.26 0.0 0 0 52.27 67.12
  Q 51.16 66.95 50.39 67.47
  A 0.28 0.28 0.0 0 0 50.58 67.98
  Z
  M 47.63 68.83
  Q 48.57 68.83 49.19 68.52
  A 0.20 0.19 -57.7 0 0 49.11 68.15
  Q 47.60 68.13 47.42 68.34
  A 0.29 0.29 0.0 0 0 47.63 68.83
  Z
  M 45.3796 69.4996
  A 1.09 0.33 -1.6 0 0 44.2808 69.2001
  A 1.09 0.33 -1.6 0 0 43.2004 69.5604
  A 1.09 0.33 -1.6 0 0 44.2992 69.8599
  A 1.09 0.33 -1.6 0 0 45.3796 69.4996
  Z"
/>
<path fill="#ffffff" d="
  M 6.38 40.13
  L 6.38 29.47
  A 0.38 0.38 0.0 0 1 7.05 29.22
  L 37.18 64.35
  A 0.38 0.38 0.0 0 1 37.27 64.60
  L 37.27 75.26
  A 0.38 0.38 0.0 0 1 36.60 75.51
  L 6.47 40.38
  A 0.38 0.38 0.0 0 1 6.38 40.13
  Z"
/>
<path fill="#010101" d="
  M 56.42 65.80
  A 0.30 0.30 0.0 0 1 56.31 65.22
  Q 56.97 64.95 57.69 65.12
  A 0.35 0.34 -38.4 0 1 57.61 65.80
  L 56.42 65.80
  Z"
/>
<path fill="#010101" d="
  M 53.53 66.55
  Q 53.70 65.97 54.99 66.24
  A 0.26 0.26 0.0 0 1 54.94 66.76
  L 53.68 66.76
  A 0.16 0.16 0.0 0 1 53.53 66.55
  Z"
/>
<path fill="#010101" d="
  M 50.39 67.47
  Q 51.16 66.95 52.27 67.12
  A 0.26 0.26 0.0 0 1 52.36 67.61
  Q 52.02 67.79 50.58 67.98
  A 0.28 0.28 0.0 0 1 50.39 67.47
  Z"
/>
<path fill="#010101" d="
  M 47.42 68.34
  Q 47.60 68.13 49.11 68.15
  A 0.20 0.19 -57.7 0 1 49.19 68.52
  Q 48.57 68.83 47.63 68.83
  A 0.29 0.29 0.0 0 1 47.42 68.34
  Z"
/>
<ellipse fill="#010101" cx="0.00" cy="0.00" transform="translate(44.29,69.53) rotate(-1.6)" rx="1.09" ry="0.33"/>
<path fill="#010101" d="
  M 42.06 71.02
  L 39.77 70.69
  A 0.31 0.31 0.0 0 1 39.77 70.07
  Q 41.27 69.87 42.06 71.02
  Z"
/>
<path fill="#010101" d="
  M 36.46 79.12
  L 35.75 79.15
  Q 36.09 79.06 36.46 79.12
  Z"
/>
<path fill="#010101" d="
  M 44.21 79.06
  Q 44.00 79.19 43.47 79.13
  L 44.21 79.06
  Z"
/>
</svg>
