<?xml version="1.0" encoding="UTF-8" standalone="no"?>
<!DOCTYPE svg PUBLIC "-//W3C//DTD SVG 1.1//EN" "http://www.w3.org/Graphics/SVG/1.1/DTD/svg11.dtd">
<svg xmlns="http://www.w3.org/2000/svg" version="1.1" viewBox="0.00 0.00 80.00 80.00">
<g stroke-width="2.00" fill="none" stroke-linecap="butt">
<path stroke="#083e56" vector-effect="non-scaling-stroke" d="
  M 74.69 58.27
  Q 73.25 57.30 74.07 55.74
  C 78.22 47.83 78.59 38.04 76.29 29.78
  C 72.06 14.67 58.99 4.46 43.55 2.39
  Q 39.10 1.80 34.38 2.75
  Q 28.88 3.86 25.53 5.30
  Q 16.77 9.07 10.43 16.68
  Q 3.18 25.36 2.23 38.06
  Q 1.58 46.83 6.06 56.22
  Q 6.65 57.46 5.43 58.49"
/>
<path stroke="#083e56" vector-effect="non-scaling-stroke" d="
  M 67.60 66.42
  Q 57.79 74.89 47.07 76.99
  Q 37.41 78.88 28.45 75.69
  Q 20.07 72.71 11.52 66.30"
/>
<path stroke="#808080" vector-effect="non-scaling-stroke" d="
  M 40.08 51.30
  C 47.89 51.30 54.01 57.10 54.71 64.78
  A 0.68 0.67 -2.6 0 0 55.39 65.39
  Q 66.67 65.32 75.47 65.17
  Q 75.98 65.16 76.21 64.96
  Q 76.79 64.47 76.41 63.81
  Q 71.01 54.28 66.67 46.99
  A 0.78 0.78 0.0 0 0 65.60 46.72
  C 56.33 52.24 44.38 46.46 43.44 35.49
  Q 42.67 26.62 50.77 21.25
  A 0.63 0.63 0.0 0 0 50.96 20.40
  Q 45.43 11.03 40.98 3.50
  Q 40.74 3.09 40.04 3.09
  Q 39.34 3.09 39.10 3.50
  Q 34.67 11.04 29.15 20.42
  A 0.63 0.63 0.0 0 0 29.34 21.27
  Q 37.45 26.62 36.70 35.50
  C 35.78 46.47 23.83 52.27 14.56 46.76
  A 0.78 0.78 0.0 0 0 13.49 47.03
  Q 9.16 54.33 3.77 63.87
  Q 3.39 64.53 3.98 65.02
  Q 4.21 65.22 4.72 65.23
  Q 13.52 65.36 24.80 65.42
  A 0.68 0.67 2.5 0 0 25.47 64.81
  C 26.16 57.12 32.27 51.31 40.08 51.30"
/>
<path stroke="#808080" vector-effect="non-scaling-stroke" d="
  M 25.59 34.08
  A 3.35 3.35 0.0 0 0 22.24 30.73
  A 3.35 3.35 0.0 0 0 18.89 34.08
  A 3.35 3.35 0.0 0 0 22.24 37.43
  A 3.35 3.35 0.0 0 0 25.59 34.08"
/>
<path stroke="#808080" vector-effect="non-scaling-stroke" d="
  M 61.25 34.07
  A 3.36 3.36 0.0 0 0 57.89 30.71
  A 3.36 3.36 0.0 0 0 54.53 34.07
  A 3.36 3.36 0.0 0 0 57.89 37.43
  A 3.36 3.36 0.0 0 0 61.25 34.07"
/>
<path stroke="#808080" vector-effect="non-scaling-stroke" d="
  M 43.28 64.83
  A 3.34 3.34 0.0 0 0 39.94 61.49
  A 3.34 3.34 0.0 0 0 36.60 64.83
  A 3.34 3.34 0.0 0 0 39.94 68.17
  A 3.34 3.34 0.0 0 0 43.28 64.83"
/>
</g>
<path fill="#117dad" fill-opacity="0.996" d="
  M 74.69 58.27
  Q 73.25 57.30 74.07 55.74
  C 78.22 47.83 78.59 38.04 76.29 29.78
  C 72.06 14.67 58.99 4.46 43.55 2.39
  Q 39.10 1.80 34.38 2.75
  Q 28.88 3.86 25.53 5.30
  Q 16.77 9.07 10.43 16.68
  Q 3.18 25.36 2.23 38.06
  Q 1.58 46.83 6.06 56.22
  Q 6.65 57.46 5.43 58.49
  C -6.94 34.83 6.80 6.18 33.01 1.32
  C 50.44 -1.91 67.84 7.23 75.43 23.50
  Q 83.24 40.23 74.69 58.27
  Z"
/>
<path fill="#000000" d="
  M 74.69 58.27
  Q 75.16 60.71 76.95 63.14
  A 1.81 1.80 70.4 0 1 75.59 66.01
  L 67.60 66.42
  Q 57.79 74.89 47.07 76.99
  Q 37.41 78.88 28.45 75.69
  Q 20.07 72.71 11.52 66.30
  L 4.57 66.13
  A 1.79 1.78 -76.7 0 1 3.00 63.58
  L 5.43 58.49
  Q 6.65 57.46 6.06 56.22
  Q 1.58 46.83 2.23 38.06
  Q 3.18 25.36 10.43 16.68
  Q 16.77 9.07 25.53 5.30
  Q 28.88 3.86 34.38 2.75
  Q 39.10 1.80 43.55 2.39
  C 58.99 4.46 72.06 14.67 76.29 29.78
  C 78.59 38.04 78.22 47.83 74.07 55.74
  Q 73.25 57.30 74.69 58.27
  Z
  M 40.08 51.30
  C 47.89 51.30 54.01 57.10 54.71 64.78
  A 0.68 0.67 -2.6 0 0 55.39 65.39
  Q 66.67 65.32 75.47 65.17
  Q 75.98 65.16 76.21 64.96
  Q 76.79 64.47 76.41 63.81
  Q 71.01 54.28 66.67 46.99
  A 0.78 0.78 0.0 0 0 65.60 46.72
  C 56.33 52.24 44.38 46.46 43.44 35.49
  Q 42.67 26.62 50.77 21.25
  A 0.63 0.63 0.0 0 0 50.96 20.40
  Q 45.43 11.03 40.98 3.50
  Q 40.74 3.09 40.04 3.09
  Q 39.34 3.09 39.10 3.50
  Q 34.67 11.04 29.15 20.42
  A 0.63 0.63 0.0 0 0 29.34 21.27
  Q 37.45 26.62 36.70 35.50
  C 35.78 46.47 23.83 52.27 14.56 46.76
  A 0.78 0.78 0.0 0 0 13.49 47.03
  Q 9.16 54.33 3.77 63.87
  Q 3.39 64.53 3.98 65.02
  Q 4.21 65.22 4.72 65.23
  Q 13.52 65.36 24.80 65.42
  A 0.68 0.67 2.5 0 0 25.47 64.81
  C 26.16 57.12 32.27 51.31 40.08 51.30
  Z
  M 25.59 34.08
  A 3.35 3.35 0.0 0 0 22.24 30.73
  A 3.35 3.35 0.0 0 0 18.89 34.08
  A 3.35 3.35 0.0 0 0 22.24 37.43
  A 3.35 3.35 0.0 0 0 25.59 34.08
  Z
  M 61.25 34.07
  A 3.36 3.36 0.0 0 0 57.89 30.71
  A 3.36 3.36 0.0 0 0 54.53 34.07
  A 3.36 3.36 0.0 0 0 57.89 37.43
  A 3.36 3.36 0.0 0 0 61.25 34.07
  Z
  M 43.28 64.83
  A 3.34 3.34 0.0 0 0 39.94 61.49
  A 3.34 3.34 0.0 0 0 36.60 64.83
  A 3.34 3.34 0.0 0 0 39.94 68.17
  A 3.34 3.34 0.0 0 0 43.28 64.83
  Z"
/>
<path fill="#ffffff" d="
  M 40.04 3.09
  Q 40.74 3.09 40.98 3.50
  Q 45.43 11.03 50.96 20.40
  A 0.63 0.63 0.0 0 1 50.77 21.25
  Q 42.67 26.62 43.44 35.49
  C 44.38 46.46 56.33 52.24 65.60 46.72
  A 0.78 0.78 0.0 0 1 66.67 46.99
  Q 71.01 54.28 76.41 63.81
  Q 76.79 64.47 76.21 64.96
  Q 75.98 65.16 75.47 65.17
  Q 66.67 65.32 55.39 65.39
  A 0.68 0.67 -2.6 0 1 54.71 64.78
  C 54.01 57.10 47.89 51.30 40.08 51.30
  C 32.27 51.31 26.16 57.12 25.47 64.81
  A 0.68 0.67 2.5 0 1 24.80 65.42
  Q 13.52 65.36 4.72 65.23
  Q 4.21 65.22 3.98 65.02
  Q 3.39 64.53 3.77 63.87
  Q 9.16 54.33 13.49 47.03
  A 0.78 0.78 0.0 0 1 14.56 46.76
  C 23.83 52.27 35.78 46.47 36.70 35.50
  Q 37.45 26.62 29.34 21.27
  A 0.63 0.63 0.0 0 1 29.15 20.42
  Q 34.67 11.04 39.10 3.50
  Q 39.34 3.09 40.04 3.09
  Z"
/>
<circle fill="#ffffff" cx="22.24" cy="34.08" r="3.35"/>
<circle fill="#ffffff" cx="57.89" cy="34.07" r="3.36"/>
<circle fill="#ffffff" cx="39.94" cy="64.83" r="3.34"/>
<path fill="#117dad" fill-opacity="0.996" d="
  M 67.60 66.42
  Q 67.25 68.59 63.86 71.10
  Q 45.95 84.35 24.90 76.37
  Q 16.80 73.29 11.52 66.30
  Q 20.07 72.71 28.45 75.69
  Q 37.41 78.88 47.07 76.99
  Q 57.79 74.89 67.60 66.42
  Z"
/>
</svg>
