<?xml version="1.0" encoding="UTF-8" standalone="no"?>
<!DOCTYPE svg PUBLIC "-//W3C//DTD SVG 1.1//EN" "http://www.w3.org/Graphics/SVG/1.1/DTD/svg11.dtd">
<svg xmlns="http://www.w3.org/2000/svg" version="1.1" viewBox="0.00 0.00 80.00 80.00">
<g stroke-width="2.00" fill="none" stroke-linecap="butt">
<path stroke="#a7654b" stroke-opacity="0.996" vector-effect="non-scaling-stroke" d="
  M 31.97 1.95
  Q 3.67 9.99 0.94 39.57
  A 5.69 5.61 44.6 0 0 0.96 40.91
  C 1.41 44.23 1.79 47.78 2.84 50.98
  Q 10.20 73.27 33.87 78.29"
/>
<path stroke="#d1744d" stroke-opacity="0.996" vector-effect="non-scaling-stroke" d="
  M 33.87 78.29
  Q 39.90 79.76 45.40 78.36"
/>
<path stroke="#a7654b" stroke-opacity="0.996" vector-effect="non-scaling-stroke" d="
  M 45.40 78.36
  Q 55.90 76.72 63.64 70.64
  C 73.65 62.79 79.52 50.46 78.68 37.41
  Q 78.37 32.67 77.45 29.80
  Q 70.36 7.61 47.81 1.91"
/>
<path stroke="#d1744d" stroke-opacity="0.996" vector-effect="non-scaling-stroke" d="
  M 47.81 1.91
  L 41.37 0.72
  A 2.97 2.73 43.8 0 0 40.42 0.70
  L 31.97 1.95"
/>
<path stroke="#7a1e06" stroke-opacity="0.996" vector-effect="non-scaling-stroke" d="
  M 47.81 1.91
  Q 44.76 1.69 44.87 2.75"
/>
<path stroke="#d29683" vector-effect="non-scaling-stroke" d="
  M 44.87 2.75
  L 35.39 2.74"
/>
<path stroke="#7a1e06" stroke-opacity="0.996" vector-effect="non-scaling-stroke" d="
  M 35.39 2.74
  Q 35.34 1.74 31.97 1.95"
/>
<path stroke="#a88782" vector-effect="non-scaling-stroke" d="
  M 35.39 2.74
  Q 23.50 4.35 14.86 12.12
  C -8.94 33.53 3.48 72.79 35.15 77.16"
/>
<path stroke="#7a1e06" stroke-opacity="0.996" vector-effect="non-scaling-stroke" d="
  M 35.15 77.16
  Q 36.45 77.36 36.16 77.70
  Q 35.70 78.23 33.87 78.29"
/>
<path stroke="#d29683" vector-effect="non-scaling-stroke" d="
  M 43.95 77.24
  L 35.15 77.16"
/>
<path stroke="#7a1e06" stroke-opacity="0.996" vector-effect="non-scaling-stroke" d="
  M 45.40 78.36
  Q 44.01 77.78 43.95 77.24"
/>
<path stroke="#a88782" vector-effect="non-scaling-stroke" d="
  M 43.95 77.24
  Q 55.86 75.92 64.43 68.43
  C 88.99 46.98 77.07 7.74 44.87 2.75"
/>
<path stroke="#808080" vector-effect="non-scaling-stroke" d="
  M 75.74 39.99
  A 35.76 35.76 0.0 0 0 39.98 4.23
  A 35.76 35.76 0.0 0 0 4.22 39.99
  A 35.76 35.76 0.0 0 0 39.98 75.75
  A 35.76 35.76 0.0 0 0 75.74 39.99"
/>
<path stroke="#808080" vector-effect="non-scaling-stroke" d="
  M 60.97 64.93
  A 0.06 0.05 -57.7 0 0 61.04 64.91
  Q 64.62 59.36 62.15 53.75
  A 0.95 0.94 48.6 0 1 62.20 52.88
  L 63.87 49.99
  A 0.61 0.61 0.0 0 1 64.72 49.77
  Q 67.91 51.78 67.12 55.70
  A 0.39 0.39 0.0 0 0 67.50 56.16
  L 67.82 56.16
  A 0.44 0.44 0.0 0 0 68.25 55.82
  Q 69.61 49.87 65.70 45.48
  A 0.70 0.70 0.0 0 1 65.52 45.01
  L 65.52 41.45
  A 0.73 0.72 -87.8 0 1 66.30 40.72
  C 69.27 40.94 70.19 43.08 70.91 45.61
  A 0.38 0.38 0.0 0 0 71.64 45.59
  C 72.43 41.93 69.04 38.01 66.08 36.44
  A 1.44 1.42 -89.6 0 1 65.44 35.78
  Q 64.60 34.06 64.55 32.34
  A 0.77 0.76 87.6 0 1 65.26 31.56
  Q 69.10 31.30 70.82 34.82
  A 0.46 0.45 26.8 0 0 71.68 34.54
  C 70.96 30.69 66.70 28.15 63.09 27.71
  A 1.45 1.45 0.0 0 1 62.07 27.09
  L 60.52 24.84
  A 1.06 1.06 0.0 0 1 61.12 23.22
  Q 64.87 22.20 67.15 24.59
  A 0.29 0.28 -44.3 0 0 67.56 24.59
  L 67.80 24.36
  A 0.51 0.50 -44.6 0 0 67.81 23.66
  Q 63.48 19.14 57.21 20.61
  A 0.97 0.97 0.0 0 1 56.44 20.45
  L 53.86 18.55
  A 0.68 0.67 -52.2 0 1 53.74 17.58
  Q 56.20 14.59 60.42 16.29
  A 0.31 0.31 0.0 0 0 60.76 15.78
  C 57.91 12.90 52.85 13.77 49.83 15.68
  A 1.69 1.66 34.6 0 1 48.57 15.90
  L 45.93 15.30
  A 1.00 1.00 0.0 0 1 45.27 13.84
  Q 47.07 10.51 50.48 10.83
  A 0.44 0.44 0.0 0 0 50.96 10.39
  L 50.96 10.07
  A 0.45 0.45 0.0 0 0 50.54 9.62
  Q 44.33 9.18 40.61 14.11
  A 1.00 0.99 -71.1 0 1 39.82 14.50
  L 36.46 14.50
  A 0.58 0.58 0.0 0 1 35.88 13.84
  Q 36.37 9.98 40.03 8.85
  A 0.41 0.40 -50.3 0 0 39.96 8.06
  C 36.24 7.65 32.73 12.15 31.81 15.19
  A 0.75 0.72 -8.3 0 1 31.48 15.61
  L 28.47 17.34
  A 0.98 0.98 0.0 0 1 27.02 16.69
  Q 26.27 13.06 29.32 10.69
  A 0.33 0.33 0.0 0 0 29.05 10.10
  C 25.20 10.88 23.59 16.48 23.79 19.74
  A 0.81 0.79 66.4 0 1 23.56 20.35
  L 21.09 22.82
  A 0.61 0.61 0.0 0 1 20.23 22.82
  C 17.94 20.50 19.12 18.58 19.59 15.99
  A 0.41 0.41 0.0 0 0 18.85 15.69
  Q 15.43 20.76 17.58 26.07
  A 1.65 1.60 42.6 0 1 17.64 27.12
  Q 17.00 29.37 16.03 30.43
  A 0.73 0.73 0.0 0 1 15.08 30.53
  Q 12.00 28.35 12.81 24.82
  A 0.48 0.48 0.0 0 0 12.38 24.24
  L 12.26 24.23
  A 0.57 0.57 0.0 0 0 11.65 24.67
  Q 10.33 30.57 14.36 35.06
  A 1.12 1.10 -62.9 0 1 14.64 35.96
  L 14.19 39.13
  A 0.66 0.65 9.5 0 1 13.41 39.68
  Q 9.62 38.91 9.21 34.89
  A 0.46 0.46 0.0 0 0 8.30 34.85
  C 7.62 38.53 10.81 42.30 13.81 43.91
  A 1.69 1.66 2.0 0 1 14.51 44.65
  Q 15.31 46.35 15.40 48.00
  A 0.78 0.78 0.0 0 1 14.68 48.82
  Q 10.84 49.09 9.13 45.57
  A 0.46 0.45 28.2 0 0 8.27 45.83
  C 8.80 49.69 13.43 52.25 16.92 52.69
  A 1.29 1.29 0.0 0 1 17.83 53.24
  L 19.51 55.72
  A 0.87 0.86 -27.6 0 1 19.10 57.02
  Q 15.40 58.39 12.65 55.71
  A 0.10 0.09 42.6 0 0 12.52 55.71
  L 11.91 56.32
  A 0.16 0.16 0.0 0 0 11.91 56.54
  Q 16.14 60.78 21.12 60.01
  C 23.58 59.62 24.93 60.60 26.14 62.00
  A 0.71 0.70 44.7 0 1 26.15 62.92
  Q 23.84 65.62 19.76 64.17
  A 0.34 0.34 0.0 0 0 19.33 64.63
  C 20.76 67.73 28.00 66.18 30.06 64.70
  A 1.43 1.42 -56.6 0 1 31.23 64.46
  L 34.12 65.12
  A 0.91 0.91 0.0 0 1 34.73 66.43
  Q 32.93 69.91 29.28 69.57
  A 0.37 0.37 0.0 0 0 28.92 70.12
  L 29.01 70.28
  A 1.03 1.02 75.8 0 0 29.89 70.81
  Q 36.00 70.91 39.29 66.25
  A 0.86 0.84 16.9 0 1 39.99 65.89
  L 43.46 65.89
  A 0.60 0.59 -86.6 0 1 44.05 66.56
  Q 43.55 70.40 40.08 71.43
  A 0.46 0.46 0.0 0 0 39.82 72.12
  L 39.97 72.37
  A 0.45 0.45 0.0 0 0 40.47 72.56
  Q 46.35 70.84 48.17 65.12
  A 0.68 0.67 -6.1 0 1 48.48 64.74
  L 51.27 63.13
  A 1.21 1.20 -16.2 0 1 53.08 64.12
  Q 53.22 67.83 50.70 69.58
  A 0.38 0.38 0.0 0 0 50.79 70.25
  Q 51.43 70.49 52.07 69.98
  Q 56.32 66.62 56.17 60.88
  A 1.47 1.45 -23.7 0 1 56.60 59.80
  L 58.80 57.59
  A 0.75 0.74 49.5 0 1 59.92 57.68
  Q 62.26 60.84 59.96 64.42
  A 0.11 0.11 0.0 0 0 60.01 64.58
  L 60.97 64.93"
/>
<path stroke="#808080" vector-effect="non-scaling-stroke" d="
  M 64.76 40.18
  A 24.80 24.80 0.0 0 0 39.96 15.38
  A 24.80 24.80 0.0 0 0 15.16 40.18
  A 24.80 24.80 0.0 0 0 39.96 64.98
  A 24.80 24.80 0.0 0 0 64.76 40.18"
/>
<path stroke="#808080" vector-effect="non-scaling-stroke" d="
  M 63.52 39.87
  A 23.55 23.55 0.0 0 0 39.97 16.32
  A 23.55 23.55 0.0 0 0 16.42 39.87
  A 23.55 23.55 0.0 0 0 39.97 63.42
  A 23.55 23.55 0.0 0 0 63.52 39.87"
/>
<path stroke="#808080" vector-effect="non-scaling-stroke" d="
  M 62.56 39.88
  A 22.58 22.58 0.0 0 0 39.98 17.30
  A 22.58 22.58 0.0 0 0 17.40 39.88
  A 22.58 22.58 0.0 0 0 39.98 62.46
  A 22.58 22.58 0.0 0 0 62.56 39.88"
/>
<path stroke="#808080" vector-effect="non-scaling-stroke" d="
  M 33.13 22.23
  Q 33.29 22.24 34.76 21.86
  C 38.95 20.78 44.50 23.61 47.39 26.55
  A 0.59 0.58 56.7 0 1 47.20 27.50
  Q 42.49 29.41 42.11 34.40
  C 41.80 38.43 45.04 42.60 49.33 42.73
  C 55.94 42.90 59.26 36.78 57.13 31.03
  C 54.21 23.14 45.32 18.57 37.06 20.08
  Q 33.75 20.68 32.88 21.61
  A 0.36 0.36 0.0 0 0 33.13 22.23"
/>
<path stroke="#808080" vector-effect="non-scaling-stroke" d="
  M 28.51 55.27
  Q 28.44 55.12 27.36 54.05
  C 24.28 50.97 23.90 44.72 24.97 40.72
  A 0.59 0.58 -63.8 0 1 25.89 40.40
  Q 29.95 43.50 34.46 41.28
  C 38.10 39.49 40.06 34.55 37.98 30.78
  C 34.75 24.97 27.76 25.22 23.87 30.00
  C 18.53 36.56 19.12 46.58 24.64 52.96
  Q 26.85 55.52 28.11 55.80
  A 0.37 0.36 82.3 0 0 28.51 55.27"
/>
<path stroke="#808080" vector-effect="non-scaling-stroke" d="
  M 59.24 42.66
  Q 59.15 42.80 58.74 44.25
  C 57.55 48.40 52.31 51.73 48.33 52.72
  A 0.58 0.58 0.0 0 1 47.61 52.07
  Q 48.35 47.07 44.26 44.22
  C 40.96 41.93 35.74 42.60 33.47 46.21
  C 29.98 51.80 33.55 57.74 39.56 58.82
  C 47.81 60.30 56.22 54.98 59.10 47.13
  Q 60.26 43.98 59.89 42.76
  A 0.36 0.36 0.0 0 0 59.24 42.66"
/>
</g>
<path fill="#febb92" fill-opacity="0.996" d="
  M 41.15 0.00
  C 59.84 1.13 74.43 13.28 78.88 31.40
  C 80.73 38.96 79.82 48.27 76.52 55.62
  C 66.57 77.86 39.62 87.15 18.33 73.27
  C 1.11 62.03 -5.38 38.76 5.47 20.19
  C 11.52 9.84 22.12 2.15 34.42 0.53
  Q 36.55 0.24 38.71 0.00
  L 41.15 0.00
  Z
  M 31.97 1.95
  Q 3.67 9.99 0.94 39.57
  A 5.69 5.61 44.6 0 0 0.96 40.91
  C 1.41 44.23 1.79 47.78 2.84 50.98
  Q 10.20 73.27 33.87 78.29
  Q 39.90 79.76 45.40 78.36
  Q 55.90 76.72 63.64 70.64
  C 73.65 62.79 79.52 50.46 78.68 37.41
  Q 78.37 32.67 77.45 29.80
  Q 70.36 7.61 47.81 1.91
  L 41.37 0.72
  A 2.97 2.73 43.8 0 0 40.42 0.70
  L 31.97 1.95
  Z"
/>
<path fill="#a42c07" fill-opacity="0.996" d="
  M 47.81 1.91
  Q 44.76 1.69 44.87 2.75
  L 35.39 2.74
  Q 35.34 1.74 31.97 1.95
  L 40.42 0.70
  A 2.97 2.73 43.8 0 1 41.37 0.72
  L 47.81 1.91
  Z"
/>
<path fill="#500f04" fill-opacity="0.996" d="
  M 31.97 1.95
  Q 35.34 1.74 35.39 2.74
  Q 23.50 4.35 14.86 12.12
  C -8.94 33.53 3.48 72.79 35.15 77.16
  Q 36.45 77.36 36.16 77.70
  Q 35.70 78.23 33.87 78.29
  Q 10.20 73.27 2.84 50.98
  C 1.79 47.78 1.41 44.23 0.96 40.91
  A 5.69 5.61 44.6 0 1 0.94 39.57
  Q 3.67 9.99 31.97 1.95
  Z"
/>
<path fill="#500f04" fill-opacity="0.996" d="
  M 47.81 1.91
  Q 70.36 7.61 77.45 29.80
  Q 78.37 32.67 78.68 37.41
  C 79.52 50.46 73.65 62.79 63.64 70.64
  Q 55.90 76.72 45.40 78.36
  Q 44.01 77.78 43.95 77.24
  Q 55.86 75.92 64.43 68.43
  C 88.99 46.98 77.07 7.74 44.87 2.75
  Q 44.76 1.69 47.81 1.91
  Z"
/>
<path fill="#ffffff" d="
  M 44.87 2.75
  C 77.07 7.74 88.99 46.98 64.43 68.43
  Q 55.86 75.92 43.95 77.24
  L 35.15 77.16
  C 3.48 72.79 -8.94 33.53 14.86 12.12
  Q 23.50 4.35 35.39 2.74
  L 44.87 2.75
  Z
  M 75.74 39.99
  A 35.76 35.76 0.0 0 0 39.98 4.23
  A 35.76 35.76 0.0 0 0 4.22 39.99
  A 35.76 35.76 0.0 0 0 39.98 75.75
  A 35.76 35.76 0.0 0 0 75.74 39.99
  Z"
/>
<path fill="#000000" d="
  M 75.74 39.99
  A 35.76 35.76 0.0 0 1 39.98 75.75
  A 35.76 35.76 0.0 0 1 4.22 39.99
  A 35.76 35.76 0.0 0 1 39.98 4.23
  A 35.76 35.76 0.0 0 1 75.74 39.99
  Z
  M 60.97 64.93
  A 0.06 0.05 -57.7 0 0 61.04 64.91
  Q 64.62 59.36 62.15 53.75
  A 0.95 0.94 48.6 0 1 62.20 52.88
  L 63.87 49.99
  A 0.61 0.61 0.0 0 1 64.72 49.77
  Q 67.91 51.78 67.12 55.70
  A 0.39 0.39 0.0 0 0 67.50 56.16
  L 67.82 56.16
  A 0.44 0.44 0.0 0 0 68.25 55.82
  Q 69.61 49.87 65.70 45.48
  A 0.70 0.70 0.0 0 1 65.52 45.01
  L 65.52 41.45
  A 0.73 0.72 -87.8 0 1 66.30 40.72
  C 69.27 40.94 70.19 43.08 70.91 45.61
  A 0.38 0.38 0.0 0 0 71.64 45.59
  C 72.43 41.93 69.04 38.01 66.08 36.44
  A 1.44 1.42 -89.6 0 1 65.44 35.78
  Q 64.60 34.06 64.55 32.34
  A 0.77 0.76 87.6 0 1 65.26 31.56
  Q 69.10 31.30 70.82 34.82
  A 0.46 0.45 26.8 0 0 71.68 34.54
  C 70.96 30.69 66.70 28.15 63.09 27.71
  A 1.45 1.45 0.0 0 1 62.07 27.09
  L 60.52 24.84
  A 1.06 1.06 0.0 0 1 61.12 23.22
  Q 64.87 22.20 67.15 24.59
  A 0.29 0.28 -44.3 0 0 67.56 24.59
  L 67.80 24.36
  A 0.51 0.50 -44.6 0 0 67.81 23.66
  Q 63.48 19.14 57.21 20.61
  A 0.97 0.97 0.0 0 1 56.44 20.45
  L 53.86 18.55
  A 0.68 0.67 -52.2 0 1 53.74 17.58
  Q 56.20 14.59 60.42 16.29
  A 0.31 0.31 0.0 0 0 60.76 15.78
  C 57.91 12.90 52.85 13.77 49.83 15.68
  A 1.69 1.66 34.6 0 1 48.57 15.90
  L 45.93 15.30
  A 1.00 1.00 0.0 0 1 45.27 13.84
  Q 47.07 10.51 50.48 10.83
  A 0.44 0.44 0.0 0 0 50.96 10.39
  L 50.96 10.07
  A 0.45 0.45 0.0 0 0 50.54 9.62
  Q 44.33 9.18 40.61 14.11
  A 1.00 0.99 -71.1 0 1 39.82 14.50
  L 36.46 14.50
  A 0.58 0.58 0.0 0 1 35.88 13.84
  Q 36.37 9.98 40.03 8.85
  A 0.41 0.40 -50.3 0 0 39.96 8.06
  C 36.24 7.65 32.73 12.15 31.81 15.19
  A 0.75 0.72 -8.3 0 1 31.48 15.61
  L 28.47 17.34
  A 0.98 0.98 0.0 0 1 27.02 16.69
  Q 26.27 13.06 29.32 10.69
  A 0.33 0.33 0.0 0 0 29.05 10.10
  C 25.20 10.88 23.59 16.48 23.79 19.74
  A 0.81 0.79 66.4 0 1 23.56 20.35
  L 21.09 22.82
  A 0.61 0.61 0.0 0 1 20.23 22.82
  C 17.94 20.50 19.12 18.58 19.59 15.99
  A 0.41 0.41 0.0 0 0 18.85 15.69
  Q 15.43 20.76 17.58 26.07
  A 1.65 1.60 42.6 0 1 17.64 27.12
  Q 17.00 29.37 16.03 30.43
  A 0.73 0.73 0.0 0 1 15.08 30.53
  Q 12.00 28.35 12.81 24.82
  A 0.48 0.48 0.0 0 0 12.38 24.24
  L 12.26 24.23
  A 0.57 0.57 0.0 0 0 11.65 24.67
  Q 10.33 30.57 14.36 35.06
  A 1.12 1.10 -62.9 0 1 14.64 35.96
  L 14.19 39.13
  A 0.66 0.65 9.5 0 1 13.41 39.68
  Q 9.62 38.91 9.21 34.89
  A 0.46 0.46 0.0 0 0 8.30 34.85
  C 7.62 38.53 10.81 42.30 13.81 43.91
  A 1.69 1.66 2.0 0 1 14.51 44.65
  Q 15.31 46.35 15.40 48.00
  A 0.78 0.78 0.0 0 1 14.68 48.82
  Q 10.84 49.09 9.13 45.57
  A 0.46 0.45 28.2 0 0 8.27 45.83
  C 8.80 49.69 13.43 52.25 16.92 52.69
  A 1.29 1.29 0.0 0 1 17.83 53.24
  L 19.51 55.72
  A 0.87 0.86 -27.6 0 1 19.10 57.02
  Q 15.40 58.39 12.65 55.71
  A 0.10 0.09 42.6 0 0 12.52 55.71
  L 11.91 56.32
  A 0.16 0.16 0.0 0 0 11.91 56.54
  Q 16.14 60.78 21.12 60.01
  C 23.58 59.62 24.93 60.60 26.14 62.00
  A 0.71 0.70 44.7 0 1 26.15 62.92
  Q 23.84 65.62 19.76 64.17
  A 0.34 0.34 0.0 0 0 19.33 64.63
  C 20.76 67.73 28.00 66.18 30.06 64.70
  A 1.43 1.42 -56.6 0 1 31.23 64.46
  L 34.12 65.12
  A 0.91 0.91 0.0 0 1 34.73 66.43
  Q 32.93 69.91 29.28 69.57
  A 0.37 0.37 0.0 0 0 28.92 70.12
  L 29.01 70.28
  A 1.03 1.02 75.8 0 0 29.89 70.81
  Q 36.00 70.91 39.29 66.25
  A 0.86 0.84 16.9 0 1 39.99 65.89
  L 43.46 65.89
  A 0.60 0.59 -86.6 0 1 44.05 66.56
  Q 43.55 70.40 40.08 71.43
  A 0.46 0.46 0.0 0 0 39.82 72.12
  L 39.97 72.37
  A 0.45 0.45 0.0 0 0 40.47 72.56
  Q 46.35 70.84 48.17 65.12
  A 0.68 0.67 -6.1 0 1 48.48 64.74
  L 51.27 63.13
  A 1.21 1.20 -16.2 0 1 53.08 64.12
  Q 53.22 67.83 50.70 69.58
  A 0.38 0.38 0.0 0 0 50.79 70.25
  Q 51.43 70.49 52.07 69.98
  Q 56.32 66.62 56.17 60.88
  A 1.47 1.45 -23.7 0 1 56.60 59.80
  L 58.80 57.59
  A 0.75 0.74 49.5 0 1 59.92 57.68
  Q 62.26 60.84 59.96 64.42
  A 0.11 0.11 0.0 0 0 60.01 64.58
  L 60.97 64.93
  Z"
/>
<path fill="#ffffff" d="
  M 60.97 64.93
  L 60.01 64.58
  A 0.11 0.11 0.0 0 1 59.96 64.42
  Q 62.26 60.84 59.92 57.68
  A 0.75 0.74 49.5 0 0 58.80 57.59
  L 56.60 59.80
  A 1.47 1.45 -23.7 0 0 56.17 60.88
  Q 56.32 66.62 52.07 69.98
  Q 51.43 70.49 50.79 70.25
  A 0.38 0.38 0.0 0 1 50.70 69.58
  Q 53.22 67.83 53.08 64.12
  A 1.21 1.20 -16.2 0 0 51.27 63.13
  L 48.48 64.74
  A 0.68 0.67 -6.1 0 0 48.17 65.12
  Q 46.35 70.84 40.47 72.56
  A 0.45 0.45 0.0 0 1 39.97 72.37
  L 39.82 72.12
  A 0.46 0.46 0.0 0 1 40.08 71.43
  Q 43.55 70.40 44.05 66.56
  A 0.60 0.59 -86.6 0 0 43.46 65.89
  L 39.99 65.89
  A 0.86 0.84 16.9 0 0 39.29 66.25
  Q 36.00 70.91 29.89 70.81
  A 1.03 1.02 75.8 0 1 29.01 70.28
  L 28.92 70.12
  A 0.37 0.37 0.0 0 1 29.28 69.57
  Q 32.93 69.91 34.73 66.43
  A 0.91 0.91 0.0 0 0 34.12 65.12
  L 31.23 64.46
  A 1.43 1.42 -56.6 0 0 30.06 64.70
  C 28.00 66.18 20.76 67.73 19.33 64.63
  A 0.34 0.34 0.0 0 1 19.76 64.17
  Q 23.84 65.62 26.15 62.92
  A 0.71 0.70 44.7 0 0 26.14 62.00
  C 24.93 60.60 23.58 59.62 21.12 60.01
  Q 16.14 60.78 11.91 56.54
  A 0.16 0.16 0.0 0 1 11.91 56.32
  L 12.52 55.71
  A 0.10 0.09 42.6 0 1 12.65 55.71
  Q 15.40 58.39 19.10 57.02
  A 0.87 0.86 -27.6 0 0 19.51 55.72
  L 17.83 53.24
  A 1.29 1.29 0.0 0 0 16.92 52.69
  C 13.43 52.25 8.80 49.69 8.27 45.83
  A 0.46 0.45 28.2 0 1 9.13 45.57
  Q 10.84 49.09 14.68 48.82
  A 0.78 0.78 0.0 0 0 15.40 48.00
  Q 15.31 46.35 14.51 44.65
  A 1.69 1.66 2.0 0 0 13.81 43.91
  C 10.81 42.30 7.62 38.53 8.30 34.85
  A 0.46 0.46 0.0 0 1 9.21 34.89
  Q 9.62 38.91 13.41 39.68
  A 0.66 0.65 9.5 0 0 14.19 39.13
  L 14.64 35.96
  A 1.12 1.10 -62.9 0 0 14.36 35.06
  Q 10.33 30.57 11.65 24.67
  A 0.57 0.57 0.0 0 1 12.26 24.23
  L 12.38 24.24
  A 0.48 0.48 0.0 0 1 12.81 24.82
  Q 12.00 28.35 15.08 30.53
  A 0.73 0.73 0.0 0 0 16.03 30.43
  Q 17.00 29.37 17.64 27.12
  A 1.65 1.60 42.6 0 0 17.58 26.07
  Q 15.43 20.76 18.85 15.69
  A 0.41 0.41 0.0 0 1 19.59 15.99
  C 19.12 18.58 17.94 20.50 20.23 22.82
  A 0.61 0.61 0.0 0 0 21.09 22.82
  L 23.56 20.35
  A 0.81 0.79 66.4 0 0 23.79 19.74
  C 23.59 16.48 25.20 10.88 29.05 10.10
  A 0.33 0.33 0.0 0 1 29.32 10.69
  Q 26.27 13.06 27.02 16.69
  A 0.98 0.98 0.0 0 0 28.47 17.34
  L 31.48 15.61
  A 0.75 0.72 -8.3 0 0 31.81 15.19
  C 32.73 12.15 36.24 7.65 39.96 8.06
  A 0.41 0.40 -50.3 0 1 40.03 8.85
  Q 36.37 9.98 35.88 13.84
  A 0.58 0.58 0.0 0 0 36.46 14.50
  L 39.82 14.50
  A 1.00 0.99 -71.1 0 0 40.61 14.11
  Q 44.33 9.18 50.54 9.62
  A 0.45 0.45 0.0 0 1 50.96 10.07
  L 50.96 10.39
  A 0.44 0.44 0.0 0 1 50.48 10.83
  Q 47.07 10.51 45.27 13.84
  A 1.00 1.00 0.0 0 0 45.93 15.30
  L 48.57 15.90
  A 1.69 1.66 34.6 0 0 49.83 15.68
  C 52.85 13.77 57.91 12.90 60.76 15.78
  A 0.31 0.31 0.0 0 1 60.42 16.29
  Q 56.20 14.59 53.74 17.58
  A 0.68 0.67 -52.2 0 0 53.86 18.55
  L 56.44 20.45
  A 0.97 0.97 0.0 0 0 57.21 20.61
  Q 63.48 19.14 67.81 23.66
  A 0.51 0.50 -44.6 0 1 67.80 24.36
  L 67.56 24.59
  A 0.29 0.28 -44.3 0 1 67.15 24.59
  Q 64.87 22.20 61.12 23.22
  A 1.06 1.06 0.0 0 0 60.52 24.84
  L 62.07 27.09
  A 1.45 1.45 0.0 0 0 63.09 27.71
  C 66.70 28.15 70.96 30.69 71.68 34.54
  A 0.46 0.45 26.8 0 1 70.82 34.82
  Q 69.10 31.30 65.26 31.56
  A 0.77 0.76 87.6 0 0 64.55 32.34
  Q 64.60 34.06 65.44 35.78
  A 1.44 1.42 -89.6 0 0 66.08 36.44
  C 69.04 38.01 72.43 41.93 71.64 45.59
  A 0.38 0.38 0.0 0 1 70.91 45.61
  C 70.19 43.08 69.27 40.94 66.30 40.72
  A 0.73 0.72 -87.8 0 0 65.52 41.45
  L 65.52 45.01
  A 0.70 0.70 0.0 0 0 65.70 45.48
  Q 69.61 49.87 68.25 55.82
  A 0.44 0.44 0.0 0 1 67.82 56.16
  L 67.50 56.16
  A 0.39 0.39 0.0 0 1 67.12 55.70
  Q 67.91 51.78 64.72 49.77
  A 0.61 0.61 0.0 0 0 63.87 49.99
  L 62.20 52.88
  A 0.95 0.94 48.6 0 0 62.15 53.75
  Q 64.62 59.36 61.04 64.91
  A 0.06 0.05 -57.7 0 1 60.97 64.93
  Z
  M 64.76 40.18
  A 24.80 24.80 0.0 0 0 39.96 15.38
  A 24.80 24.80 0.0 0 0 15.16 40.18
  A 24.80 24.80 0.0 0 0 39.96 64.98
  A 24.80 24.80 0.0 0 0 64.76 40.18
  Z"
/>
<path fill="#000000" d="
  M 64.76 40.18
  A 24.80 24.80 0.0 0 1 39.96 64.98
  A 24.80 24.80 0.0 0 1 15.16 40.18
  A 24.80 24.80 0.0 0 1 39.96 15.38
  A 24.80 24.80 0.0 0 1 64.76 40.18
  Z
  M 63.52 39.87
  A 23.55 23.55 0.0 0 0 39.97 16.32
  A 23.55 23.55 0.0 0 0 16.42 39.87
  A 23.55 23.55 0.0 0 0 39.97 63.42
  A 23.55 23.55 0.0 0 0 63.52 39.87
  Z"
/>
<path fill="#ffffff" d="
  M 63.52 39.87
  A 23.55 23.55 0.0 0 1 39.97 63.42
  A 23.55 23.55 0.0 0 1 16.42 39.87
  A 23.55 23.55 0.0 0 1 39.97 16.32
  A 23.55 23.55 0.0 0 1 63.52 39.87
  Z
  M 62.56 39.88
  A 22.58 22.58 0.0 0 0 39.98 17.30
  A 22.58 22.58 0.0 0 0 17.40 39.88
  A 22.58 22.58 0.0 0 0 39.98 62.46
  A 22.58 22.58 0.0 0 0 62.56 39.88
  Z"
/>
<path fill="#000000" d="
  M 62.56 39.88
  A 22.58 22.58 0.0 0 1 39.98 62.46
  A 22.58 22.58 0.0 0 1 17.40 39.88
  A 22.58 22.58 0.0 0 1 39.98 17.30
  A 22.58 22.58 0.0 0 1 62.56 39.88
  Z
  M 33.13 22.23
  Q 33.29 22.24 34.76 21.86
  C 38.95 20.78 44.50 23.61 47.39 26.55
  A 0.59 0.58 56.7 0 1 47.20 27.50
  Q 42.49 29.41 42.11 34.40
  C 41.80 38.43 45.04 42.60 49.33 42.73
  C 55.94 42.90 59.26 36.78 57.13 31.03
  C 54.21 23.14 45.32 18.57 37.06 20.08
  Q 33.75 20.68 32.88 21.61
  A 0.36 0.36 0.0 0 0 33.13 22.23
  Z
  M 28.51 55.27
  Q 28.44 55.12 27.36 54.05
  C 24.28 50.97 23.90 44.72 24.97 40.72
  A 0.59 0.58 -63.8 0 1 25.89 40.40
  Q 29.95 43.50 34.46 41.28
  C 38.10 39.49 40.06 34.55 37.98 30.78
  C 34.75 24.97 27.76 25.22 23.87 30.00
  C 18.53 36.56 19.12 46.58 24.64 52.96
  Q 26.85 55.52 28.11 55.80
  A 0.37 0.36 82.3 0 0 28.51 55.27
  Z
  M 59.24 42.66
  Q 59.15 42.80 58.74 44.25
  C 57.55 48.40 52.31 51.73 48.33 52.72
  A 0.58 0.58 0.0 0 1 47.61 52.07
  Q 48.35 47.07 44.26 44.22
  C 40.96 41.93 35.74 42.60 33.47 46.21
  C 29.98 51.80 33.55 57.74 39.56 58.82
  C 47.81 60.30 56.22 54.98 59.10 47.13
  Q 60.26 43.98 59.89 42.76
  A 0.36 0.36 0.0 0 0 59.24 42.66
  Z"
/>
<path fill="#ffffff" d="
  M 33.13 22.23
  A 0.36 0.36 0.0 0 1 32.88 21.61
  Q 33.75 20.68 37.06 20.08
  C 45.32 18.57 54.21 23.14 57.13 31.03
  C 59.26 36.78 55.94 42.90 49.33 42.73
  C 45.04 42.60 41.80 38.43 42.11 34.40
  Q 42.49 29.41 47.20 27.50
  A 0.59 0.58 56.7 0 0 47.39 26.55
  C 44.50 23.61 38.95 20.78 34.76 21.86
  Q 33.29 22.24 33.13 22.23
  Z"
/>
<path fill="#ffffff" d="
  M 28.11 55.80
  Q 26.85 55.52 24.64 52.96
  C 19.12 46.58 18.53 36.56 23.87 30.00
  C 27.76 25.22 34.75 24.97 37.98 30.78
  C 40.06 34.55 38.10 39.49 34.46 41.28
  Q 29.95 43.50 25.89 40.40
  A 0.59 0.58 -63.8 0 0 24.97 40.72
  C 23.90 44.72 24.28 50.97 27.36 54.05
  Q 28.44 55.12 28.51 55.27
  A 0.37 0.36 82.3 0 1 28.11 55.80
  Z"
/>
<path fill="#ffffff" d="
  M 59.24 42.66
  A 0.36 0.36 0.0 0 1 59.89 42.76
  Q 60.26 43.98 59.10 47.13
  C 56.22 54.98 47.81 60.30 39.56 58.82
  C 33.55 57.74 29.98 51.80 33.47 46.21
  C 35.74 42.60 40.96 41.93 44.26 44.22
  Q 48.35 47.07 47.61 52.07
  A 0.58 0.58 0.0 0 0 48.33 52.72
  C 52.31 51.73 57.55 48.40 58.74 44.25
  Q 59.15 42.80 59.24 42.66
  Z"
/>
<path fill="#a42c07" fill-opacity="0.996" d="
  M 43.95 77.24
  Q 44.01 77.78 45.40 78.36
  Q 39.90 79.76 33.87 78.29
  Q 35.70 78.23 36.16 77.70
  Q 36.45 77.36 35.15 77.16
  L 43.95 77.24
  Z"
/>
</svg>
